<svg width="36" height="36" viewBox="0 0 36 36" fill="none" xmlns="http://www.w3.org/2000/svg">
<path fill-rule="evenodd" clip-rule="evenodd" d="M12 6C12 4.34315 13.3431 3 15 3H21C22.6569 3 24 4.34315 24 6V9H28.5C30.9853 9 33 11.0147 33 13.5V16.5C33 17.3284 32.3284 18 31.5 18C30.6716 18 30 17.3284 30 16.5V13.5C30 12.6716 29.3284 12 28.5 12H27V16.5C27 17.3284 26.3284 18 25.5 18C24.6716 18 24 17.3284 24 16.5V12H12V28.5H18C18.8284 28.5 19.5 29.1716 19.5 30C19.5 30.8284 18.8284 31.5 18 31.5H7.5C5.01472 31.5 3 29.4853 3 27V13.5C3 11.0147 5.01472 9 7.5 9H12V6ZM21 6V9H15V6H21ZM9 12H7.5C6.67157 12 6 12.6716 6 13.5V27C6 27.8284 6.67157 28.5 7.5 28.5H9V12Z" fill="white"/>
<path d="M27 22.5C27 21.6716 27.6716 21 28.5 21C29.3284 21 30 21.6716 30 22.5V25.5H33C33.8284 25.5 34.5 26.1716 34.5 27C34.5 27.8284 33.8284 28.5 33 28.5H30V31.5C30 32.3284 29.3284 33 28.5 33C27.6716 33 27 32.3284 27 31.5V28.5H24C23.1716 28.5 22.5 27.8284 22.5 27C22.5 26.1716 23.1716 25.5 24 25.5H27V22.5Z" fill="white"/>
</svg>
