<svg width="37" height="36" viewBox="0 0 37 36" fill="none" xmlns="http://www.w3.org/2000/svg">
<path d="M18.3333 21C19.9901 21 21.3333 19.6569 21.3333 18C21.3333 16.3431 19.9901 15 18.3333 15C16.6764 15 15.3333 16.3431 15.3333 18C15.3333 19.6569 16.6764 21 18.3333 21Z" fill="white"/>
<path fill-rule="evenodd" clip-rule="evenodd" d="M18.3333 27C23.3038 27 27.3333 22.9706 27.3333 18C27.3333 13.0294 23.3038 9 18.3333 9C13.3627 9 9.33325 13.0294 9.33325 18C9.33325 22.9706 13.3627 27 18.3333 27ZM18.3333 24C21.647 24 24.3333 21.3137 24.3333 18C24.3333 14.6863 21.647 12 18.3333 12C15.0195 12 12.3333 14.6863 12.3333 18C12.3333 21.3137 15.0195 24 18.3333 24Z" fill="white"/>
<path fill-rule="evenodd" clip-rule="evenodd" d="M18.3333 33C26.6175 33 33.3333 26.2843 33.3333 18C33.3333 9.71573 26.6175 3 18.3333 3C10.049 3 3.33325 9.71573 3.33325 18C3.33325 26.2843 10.049 33 18.3333 33ZM18.3333 30C24.9607 30 30.3333 24.6274 30.3333 18C30.3333 11.3726 24.9607 6 18.3333 6C11.7058 6 6.33325 11.3726 6.33325 18C6.33325 24.6274 11.7058 30 18.3333 30Z" fill="white"/>
</svg>
