<svg width="36" height="36" viewBox="0 0 36 36" fill="none" xmlns="http://www.w3.org/2000/svg">
<path fill-rule="evenodd" clip-rule="evenodd" d="M15 3C13.3431 3 12 4.34315 12 6V9H7.5C5.01472 9 3 11.0147 3 13.5V27C3 29.4853 5.01472 31.5 7.5 31.5H28.5C30.9853 31.5 33 29.4853 33 27V13.5C33 11.0147 30.9853 9 28.5 9H24V6C24 4.34315 22.6569 3 21 3H15ZM21 9V6H15V9H21ZM12 12V28.5H24V12H12ZM27 12V28.5H28.5C29.3284 28.5 30 27.8284 30 27V13.5C30 12.6716 29.3284 12 28.5 12H27ZM7.5 12H9V28.5H7.5C6.67157 28.5 6 27.8284 6 27V13.5C6 12.6716 6.67157 12 7.5 12Z" fill="white"/>
</svg>
