<svg width="36" height="36" viewBox="0 0 36 36" fill="none" xmlns="http://www.w3.org/2000/svg">
<path fill-rule="evenodd" clip-rule="evenodd" d="M4.67461 6.29912V29.7007H19.8053V6.29912H4.67461ZM22.5053 29.7007H32.134V12.5138H22.5053V29.7007ZM22.5053 9.81379V6.07412C22.5053 4.70721 21.3972 3.59912 20.0303 3.59912H4.44961C3.0827 3.59912 1.97461 4.70722 1.97461 6.07412V29.9257C1.97461 31.2926 3.08271 32.4007 4.44961 32.4007H32.359C33.7259 32.4007 34.834 31.2926 34.834 29.9257V12.2888C34.834 10.9219 33.7259 9.81379 32.359 9.81379H22.5053Z" fill="white"/>
<path d="M26.1738 16.1351C25.8632 16.1351 25.6113 16.387 25.6113 16.6976V18.9476C25.6113 19.2583 25.8632 19.5101 26.1738 19.5101H28.4238C28.7345 19.5101 28.9863 19.2583 28.9863 18.9476V16.6976C28.9863 16.387 28.7345 16.1351 28.4238 16.1351H26.1738Z" fill="white"/>
<path d="M26.1738 22.847C25.8632 22.847 25.6113 23.0989 25.6113 23.4095V25.6595C25.6113 25.9702 25.8632 26.222 26.1738 26.222H28.4238C28.7345 26.222 28.9863 25.9702 28.9863 25.6595V23.4095C28.9863 23.0989 28.7345 22.847 28.4238 22.847H26.1738Z" fill="white"/>
<path d="M7.87005 9.42338C7.55939 9.42338 7.30755 9.67522 7.30755 9.98588V12.2359C7.30755 12.5465 7.55939 12.7984 7.87005 12.7984H10.12C10.4307 12.7984 10.6825 12.5465 10.6825 12.2359V9.98588C10.6825 9.67522 10.4307 9.42338 10.12 9.42338H7.87005Z" fill="white"/>
<path d="M14.0051 9.42338C13.6944 9.42338 13.4426 9.67522 13.4426 9.98588V12.2359C13.4426 12.5465 13.6944 12.7984 14.0051 12.7984H16.2551C16.5657 12.7984 16.8176 12.5465 16.8176 12.2359V9.98588C16.8176 9.67522 16.5657 9.42338 16.2551 9.42338H14.0051Z" fill="white"/>
<path d="M7.30755 16.6976C7.30755 16.387 7.55939 16.1351 7.87005 16.1351H10.12C10.4307 16.1351 10.6825 16.387 10.6825 16.6976V18.9476C10.6825 19.2583 10.4307 19.5101 10.12 19.5101H7.87005C7.55939 19.5101 7.30755 19.2583 7.30755 18.9476V16.6976Z" fill="white"/>
<path d="M7.87005 22.847C7.55939 22.847 7.30755 23.0989 7.30755 23.4095V25.6595C7.30755 25.9702 7.55939 26.222 7.87005 26.222H10.12C10.4307 26.222 10.6825 25.9702 10.6825 25.6595V23.4095C10.6825 23.0989 10.4307 22.847 10.12 22.847H7.87005Z" fill="white"/>
<path d="M13.4426 16.6976C13.4426 16.387 13.6944 16.1351 14.0051 16.1351H16.2551C16.5657 16.1351 16.8176 16.387 16.8176 16.6976V18.9476C16.8176 19.2583 16.5657 19.5101 16.2551 19.5101H14.0051C13.6944 19.5101 13.4426 19.2583 13.4426 18.9476V16.6976Z" fill="white"/>
<path d="M14.0051 22.847C13.6944 22.847 13.4426 23.0989 13.4426 23.4095V25.6595C13.4426 25.9702 13.6944 26.222 14.0051 26.222H16.2551C16.5657 26.222 16.8176 25.9702 16.8176 25.6595V23.4095C16.8176 23.0989 16.5657 22.847 16.2551 22.847H14.0051Z" fill="white"/>
</svg>
