<svg width="36" height="36" viewBox="0 0 36 36" fill="none" xmlns="http://www.w3.org/2000/svg">
<path fill-rule="evenodd" clip-rule="evenodd" d="M9 13.5C11.8495 13.5 14.2351 11.5136 14.8475 8.85001H24.0002C25.7668 8.85001 26.9633 9.40572 27.7086 10.1172C28.4624 10.8367 28.8376 11.7916 28.8376 12.75C28.8376 13.7084 28.4624 14.6633 27.7085 15.3828C26.9632 16.0943 25.7666 16.65 24 16.65H12C9.64169 16.65 7.74453 17.4068 6.42738 18.6641C5.11874 19.9133 4.46266 21.5834 4.46265 23.25C4.46263 24.9166 5.11867 26.5867 6.42731 27.8359C7.74447 29.0932 9.64164 29.85 12 29.85H21.1525C21.7649 32.5136 24.1505 34.5 27 34.5C30.3137 34.5 33 31.8137 33 28.5C33 25.1863 30.3137 22.5 27 22.5C24.1505 22.5 21.7649 24.4864 21.1525 27.15H12C10.2334 27.15 9.03692 26.5943 8.29162 25.8829C7.5378 25.1633 7.16264 24.2084 7.16265 23.25C7.16266 22.2916 7.53784 21.3367 8.29167 20.6172C9.03699 19.9057 10.2335 19.35 12 19.35H24C26.3584 19.35 28.2556 18.5932 29.5728 17.3359C30.8814 16.0868 31.5375 14.4166 31.5376 12.75C31.5376 11.0834 30.8815 9.41329 29.5729 8.16411C28.2557 6.9068 26.3585 6.15001 24.0002 6.15001H14.8475C14.2351 3.4864 11.8495 1.5 9 1.5C5.68629 1.5 3 4.18629 3 7.5C3 10.8137 5.68629 13.5 9 13.5ZM9 10.8C10.8225 10.8 12.3 9.32254 12.3 7.5C12.3 5.67746 10.8225 4.2 9 4.2C7.17746 4.2 5.7 5.67746 5.7 7.5C5.7 9.32254 7.17746 10.8 9 10.8ZM30.3 28.5C30.3 30.3225 28.8225 31.8 27 31.8C25.1775 31.8 23.7 30.3225 23.7 28.5C23.7 26.6775 25.1775 25.2 27 25.2C28.8225 25.2 30.3 26.6775 30.3 28.5Z" fill="white"/>
</svg>
