<svg width="37" height="36" viewBox="0 0 37 36" fill="none" xmlns="http://www.w3.org/2000/svg">
<path fill-rule="evenodd" clip-rule="evenodd" d="M6.33325 6C6.33325 4.34314 7.6764 3 9.33325 3L27.3333 3C28.9901 3 30.3333 4.34315 30.3333 6L30.3333 30C30.3333 31.6569 28.9901 33 27.3333 33L15.0759 33C14.2802 33 13.5172 32.6839 12.9546 32.1213L7.21193 26.3787C6.64932 25.8161 6.33325 25.053 6.33325 24.2574L6.33325 6ZM9.33325 6L27.3333 6L27.3333 30L16.8333 30L16.8333 24C16.8333 23.1716 16.1617 22.5 15.3333 22.5H9.33325L9.33325 6Z" fill="white"/>
<path d="M14.8048 11.209C14.1325 11.209 13.5145 11.3597 12.9591 11.6674C12.3981 11.9783 11.9563 12.4327 11.6343 13.0188C11.3067 13.6151 11.1526 14.3249 11.1526 15.1318C11.1526 15.9358 11.3042 16.6435 11.6264 17.2392C11.9437 17.8258 12.3819 18.2817 12.9405 18.5951L12.9423 18.5961C13.4986 18.9044 14.1225 19.0545 14.8048 19.0545C15.3169 19.0545 15.7854 18.977 16.2037 18.8129C16.6122 18.6536 16.9676 18.4358 17.2632 18.156L17.2644 18.1548C17.5501 17.8819 17.7784 17.5762 17.9454 17.2377C18.0239 17.0807 18.0883 16.9211 18.1381 16.7588C18.3057 16.2127 17.8434 15.7919 17.3863 15.7891L16.5709 15.7843C16.1517 15.7817 15.8664 16.0852 15.7369 16.3577C15.727 16.3785 15.7164 16.3987 15.7051 16.4182L15.7041 16.4199C15.6537 16.5085 15.5899 16.5826 15.5114 16.6445C15.4361 16.7034 15.3442 16.7518 15.2309 16.7868L15.2294 16.7872C15.1204 16.8214 14.9913 16.8409 14.8386 16.8409C14.5721 16.8409 14.3609 16.779 14.1895 16.6691C14.023 16.5587 13.8813 16.3893 13.7728 16.1382C13.6677 15.8876 13.607 15.5566 13.607 15.1318C13.607 14.7262 13.6662 14.4026 13.7705 14.1497C13.8773 13.8964 14.0202 13.7213 14.1918 13.6041C14.3642 13.4879 14.5775 13.4226 14.8487 13.4226C15.002 13.4226 15.1317 13.4445 15.242 13.4828L15.2481 13.4848C15.3631 13.5226 15.4547 13.5748 15.5286 13.6385C15.6047 13.7041 15.6667 13.7834 15.7149 13.8798C15.7249 13.8998 15.7343 13.9204 15.743 13.9417C15.8632 14.2341 16.1521 14.5557 16.5839 14.5557H17.3799C17.8469 14.5557 18.29 14.1358 18.1571 13.6014C18.0955 13.3537 18.0082 13.1207 17.8943 12.9037C17.7032 12.5396 17.4524 12.2288 17.1419 11.9753C16.8334 11.7211 16.4787 11.5309 16.082 11.4028C15.6848 11.2723 15.2581 11.209 14.8048 11.209Z" fill="white"/>
<path d="M19.4438 11.3034C18.8793 11.3034 18.4816 11.8576 18.6622 12.3924L20.6905 18.399C20.8037 18.7344 21.1182 18.9601 21.4721 18.9601H23.0503C23.4042 18.9601 23.7187 18.7344 23.8319 18.399L25.8602 12.3924C26.0408 11.8576 25.643 11.3034 25.0786 11.3034H24.1687C23.8059 11.3034 23.4857 11.5404 23.3797 11.8873L22.2612 15.5477L21.1427 11.8873C21.0366 11.5404 20.7164 11.3034 20.3537 11.3034H19.4438Z" fill="white"/>
</svg>
