<svg width="36" height="36" viewBox="0 0 36 36" fill="none" xmlns="http://www.w3.org/2000/svg">
<path fill-rule="evenodd" clip-rule="evenodd" d="M12.9751 3.00345C13.6496 3.0491 14.2102 3.54028 14.3441 4.20291L18.715 25.8321L23.6453 11.6702C23.8488 11.0857 24.3904 10.6862 25.0089 10.6644C25.6275 10.6425 26.1959 11.0028 26.4402 11.5715L29.3627 18.376H34.5C35.3284 18.376 36 19.0476 36 19.876C36 20.7045 35.3284 21.376 34.5 21.376H28.3744C27.7748 21.376 27.2328 21.019 26.9962 20.468L25.2083 16.3052L19.7466 31.9932C19.5244 32.6315 18.9027 33.0424 18.2284 32.9966C17.554 32.9508 16.9936 32.4596 16.8597 31.7971L12.4899 10.1729L8.9457 20.3686C8.73602 20.9717 8.16745 21.376 7.52886 21.376L1.5 21.376C0.671572 21.376 -3.57628e-07 20.7045 0 19.876C4.47035e-07 19.0476 0.671574 18.376 1.5 18.376L6.46224 18.376L11.457 4.00751C11.6789 3.36897 12.3006 2.9578 12.9751 3.00345Z" fill="white"/>
</svg>
