<svg width="36" height="36" viewBox="0 0 36 36" fill="none" xmlns="http://www.w3.org/2000/svg">
<path d="M7.5 6C7.5 5.17157 8.17157 4.5 9 4.5C9.82843 4.5 10.5 5.17157 10.5 6V30C10.5 30.8284 9.82843 31.5 9 31.5C8.17157 31.5 7.5 30.8284 7.5 30V6Z" fill="white"/>
<path d="M13.5 15C13.5 14.1716 14.1716 13.5 15 13.5C15.8284 13.5 16.5 14.1716 16.5 15V30C16.5 30.8284 15.8284 31.5 15 31.5C14.1716 31.5 13.5 30.8284 13.5 30V15Z" fill="white"/>
<path d="M19.5 21C19.5 20.1716 20.1716 19.5 21 19.5C21.8284 19.5 22.5 20.1716 22.5 21V30C22.5 30.8284 21.8284 31.5 21 31.5C20.1716 31.5 19.5 30.8284 19.5 30V21Z" fill="white"/>
<path d="M25.5 9C25.5 8.17157 26.1716 7.5 27 7.5C27.8284 7.5 28.5 8.17157 28.5 9V30C28.5 30.8284 27.8284 31.5 27 31.5C26.1716 31.5 25.5 30.8284 25.5 30V9Z" fill="white"/>
</svg>
