<svg width="37" height="36" viewBox="0 0 37 36" fill="none" xmlns="http://www.w3.org/2000/svg">
<path d="M10.8333 7.5C10.8333 9.15685 9.49011 10.5 7.83325 10.5C6.1764 10.5 4.83325 9.15685 4.83325 7.5C4.83325 5.84315 6.1764 4.5 7.83325 4.5C9.49011 4.5 10.8333 5.84315 10.8333 7.5Z" fill="white"/>
<path d="M10.8333 18C10.8333 19.6569 9.49011 21 7.83325 21C6.1764 21 4.83325 19.6569 4.83325 18C4.83325 16.3431 6.1764 15 7.83325 15C9.49011 15 10.8333 16.3431 10.8333 18Z" fill="white"/>
<path d="M10.8333 28.5C10.8333 30.1569 9.49011 31.5 7.83325 31.5C6.1764 31.5 4.83325 30.1569 4.83325 28.5C4.83325 26.8431 6.1764 25.5 7.83325 25.5C9.49011 25.5 10.8333 26.8431 10.8333 28.5Z" fill="white"/>
<path d="M21.3333 7.5C21.3333 9.15685 19.9901 10.5 18.3333 10.5C16.6764 10.5 15.3333 9.15685 15.3333 7.5C15.3333 5.84315 16.6764 4.5 18.3333 4.5C19.9901 4.5 21.3333 5.84315 21.3333 7.5Z" fill="white"/>
<path d="M21.3333 18C21.3333 19.6569 19.9901 21 18.3333 21C16.6764 21 15.3333 19.6569 15.3333 18C15.3333 16.3431 16.6764 15 18.3333 15C19.9901 15 21.3333 16.3431 21.3333 18Z" fill="white"/>
<path d="M21.3333 28.5C21.3333 30.1569 19.9901 31.5 18.3333 31.5C16.6764 31.5 15.3333 30.1569 15.3333 28.5C15.3333 26.8431 16.6764 25.5 18.3333 25.5C19.9901 25.5 21.3333 26.8431 21.3333 28.5Z" fill="white"/>
<path d="M31.8333 7.5C31.8333 9.15685 30.4901 10.5 28.8333 10.5C27.1764 10.5 25.8333 9.15685 25.8333 7.5C25.8333 5.84315 27.1764 4.5 28.8333 4.5C30.4901 4.5 31.8333 5.84315 31.8333 7.5Z" fill="white"/>
<path d="M31.8333 18C31.8333 19.6569 30.4901 21 28.8333 21C27.1764 21 25.8333 19.6569 25.8333 18C25.8333 16.3431 27.1764 15 28.8333 15C30.4901 15 31.8333 16.3431 31.8333 18Z" fill="white"/>
<path d="M31.8333 28.5C31.8333 30.1569 30.4901 31.5 28.8333 31.5C27.1764 31.5 25.8333 30.1569 25.8333 28.5C25.8333 26.8431 27.1764 25.5 28.8333 25.5C30.4901 25.5 31.8333 26.8431 31.8333 28.5Z" fill="white"/>
</svg>
