<svg width="37" height="36" viewBox="0 0 37 36" fill="none" xmlns="http://www.w3.org/2000/svg">
<path fill-rule="evenodd" clip-rule="evenodd" d="M18.2815 5.72727C14.2708 5.72727 10.177 9.06338 10.177 13.959C10.177 16.8888 11.9413 19.0739 13.4233 20.3944C14.0039 20.9118 14.5319 21.527 14.9233 22.1833C15.3052 22.8238 15.6145 23.6008 15.6145 24.4178C15.6145 24.7309 15.6155 25.0936 15.6169 25.4403H21.0496C21.051 25.0936 21.052 24.7309 21.052 24.4178C21.052 23.5733 21.3994 22.7836 21.7939 22.1546C22.2018 21.5044 22.7411 20.8967 23.3064 20.3866C24.765 19.0703 26.4895 16.8952 26.4895 13.959C26.4895 8.8283 22.293 5.72727 18.2815 5.72727ZM21.0434 28.1675H15.6229C15.6226 28.4154 15.6222 28.6617 15.6217 28.9022C15.6203 29.6593 16.2312 30.2727 16.9835 30.2727H19.683C20.4354 30.2727 21.0461 29.6593 21.0446 28.9024C21.0442 28.6611 21.0437 28.4145 21.0434 28.1675ZM12.9052 26.8039L12.9051 26.7966L12.9005 25.9788C12.8981 25.5022 12.8958 24.9029 12.8958 24.4178C12.8958 24.2715 12.8296 23.9849 12.5901 23.5834C12.3601 23.1977 12.0208 22.7925 11.6177 22.4334C9.90712 20.9092 7.45825 18.0407 7.45825 13.959C7.45825 7.40739 12.923 3 18.2815 3C23.5366 3 29.2083 7.07576 29.2083 13.959C29.2083 18.0251 26.8244 20.8804 25.1247 22.4142C24.706 22.7919 24.3433 23.2113 24.095 23.6071C23.8335 24.024 23.7708 24.299 23.7708 24.4178C23.7708 24.903 23.7683 25.5024 23.7659 25.979L23.7611 26.7968L23.761 26.8039V26.8085C23.761 27.4708 23.762 28.2051 23.7634 28.897C23.7678 31.1601 21.9412 33 19.683 33H16.9835C14.7252 33 12.8987 31.16 12.903 28.8971C12.9043 28.2135 12.9052 27.4832 12.9052 26.8084V26.8039Z" fill="white"/>
<path fill-rule="evenodd" clip-rule="evenodd" d="M18.3333 10.5C19.1617 10.5 19.8333 11.1716 19.8333 12V18C19.8333 18.8284 19.1617 19.5 18.3333 19.5C17.5048 19.5 16.8333 18.8284 16.8333 18V12C16.8333 11.1716 17.5048 10.5 18.3333 10.5Z" fill="white"/>
</svg>
