<svg width="36" height="36" viewBox="0 0 36 36" fill="none" xmlns="http://www.w3.org/2000/svg">
<path fill-rule="evenodd" clip-rule="evenodd" d="M6 7.5C6 5.01472 8.01472 3 10.5 3H25.5C27.9853 3 30 5.01472 30 7.5V28.5C30 30.9853 27.9853 33 25.5 33H10.5C8.01472 33 6 30.9853 6 28.5V7.5ZM10.5 6C9.67157 6 9 6.67157 9 7.5V28.5C9 29.3284 9.67157 30 10.5 30H25.5C26.3284 30 27 29.3284 27 28.5V7.5C27 6.67157 26.3284 6 25.5 6H10.5Z" fill="white"/>
<path fill-rule="evenodd" clip-rule="evenodd" d="M10.5 10.5C10.5 8.84315 11.8431 7.5 13.5 7.5H22.5C24.1569 7.5 25.5 8.84315 25.5 10.5V21C25.5 22.6569 24.1569 24 22.5 24H13.5C11.8431 24 10.5 22.6569 10.5 21V10.5ZM22.5 10.5H13.5V21H22.5V10.5Z" fill="white"/>
<path d="M19.5 27C19.5 27.8284 18.8284 28.5 18 28.5C17.1716 28.5 16.5 27.8284 16.5 27C16.5 26.1716 17.1716 25.5 18 25.5C18.8284 25.5 19.5 26.1716 19.5 27Z" fill="white"/>
</svg>
