<svg width="37" height="36" viewBox="0 0 37 36" fill="none" xmlns="http://www.w3.org/2000/svg">
<path fill-rule="evenodd" clip-rule="evenodd" d="M7.83325 13.5C7.83325 7.70101 12.5343 3 18.3333 3C24.1322 3 28.8333 7.70101 28.8333 13.5V22.5C28.8333 28.299 24.1322 33 18.3333 33C12.5343 33 7.83325 28.299 7.83325 22.5V13.5ZM18.3333 6C14.1911 6 10.8333 9.35786 10.8333 13.5V22.5C10.8333 26.6421 14.1911 30 18.3333 30C22.4754 30 25.8333 26.6421 25.8333 22.5V13.5C25.8333 9.35786 22.4754 6 18.3333 6Z" fill="white"/>
<path d="M16.8333 10.5C16.8333 9.67157 17.5048 9 18.3333 9C19.1617 9 19.8333 9.67157 19.8333 10.5V13.5C19.8333 14.3284 19.1617 15 18.3333 15C17.5048 15 16.8333 14.3284 16.8333 13.5V10.5Z" fill="white"/>
</svg>
