<svg width="36" height="36" viewBox="0 0 36 36" fill="none" xmlns="http://www.w3.org/2000/svg">
<path fill-rule="evenodd" clip-rule="evenodd" d="M12 6C13.6569 6 15 7.34315 15 9C15 10.6569 13.6569 12 12 12C10.3431 12 9 10.6569 9 9C9 7.34315 10.3431 6 12 6Z" fill="white"/>
<path fill-rule="evenodd" clip-rule="evenodd" d="M24 6C25.6569 6 27 7.34315 27 9C27 10.6569 25.6569 12 24 12C22.3431 12 21 10.6569 21 9C21 7.34315 22.3431 6 24 6Z" fill="white"/>
<path d="M3 28.4998C3 28.2874 3.04418 28.0852 3.12386 27.902C3.1322 27.8811 3.14235 27.856 3.15434 27.8269C3.18804 27.7452 3.23639 27.632 3.30029 27.4917C3.42797 27.2113 3.61839 26.8213 3.87881 26.3584C4.39821 25.435 5.20451 24.206 6.35945 22.9741C8.68573 20.4927 12.4352 18 18.0006 18C23.5661 18 27.3155 20.4927 29.6418 22.9741C30.7967 24.206 31.603 25.435 32.1224 26.3584C32.3829 26.8213 32.5733 27.2113 32.701 27.4917C32.7649 27.632 32.8132 27.7452 32.8469 27.8269C32.8638 27.8678 32.877 27.9008 32.8866 27.9254L32.8985 27.9558L32.9024 27.9662L32.9046 27.9719C32.9663 28.1361 33 28.314 33 28.4998C33 29.3283 32.3284 29.9998 31.5 29.9998C30.8468 29.9998 30.2911 29.5823 30.0853 28.9996L30.082 28.9915L30.0736 28.9709C30.0529 28.9208 30.0189 28.8407 29.9707 28.7349C29.8743 28.5231 29.7219 28.2099 29.5077 27.8291C29.0779 27.065 28.4076 26.044 27.4532 25.0259C25.5607 23.0073 22.5602 21 18.0006 21C13.4411 21 10.4405 23.0073 8.54806 25.0259C7.59361 26.044 6.92336 27.065 6.49354 27.8291C6.27934 28.2099 6.12699 28.5231 6.03055 28.7349C5.98239 28.8407 5.94834 28.9208 5.92766 28.9709C5.91732 28.996 5.91034 29.0135 5.90661 29.023L5.90465 29.0279C5.69103 29.5959 5.1426 29.9998 4.5 29.9998C3.67157 29.9998 3 29.3283 3 28.4998Z" fill="white"/>
</svg>
