<svg width="36" height="36" viewBox="0 0 36 36" fill="none" xmlns="http://www.w3.org/2000/svg">
<path fill-rule="evenodd" clip-rule="evenodd" d="M12 6C13.6569 6 15 7.34315 15 9C15 10.6569 13.6569 12 12 12C10.3431 12 9 10.6569 9 9C9 7.34315 10.3431 6 12 6Z" fill="white"/>
<path fill-rule="evenodd" clip-rule="evenodd" d="M24 6C25.6569 6 27 7.34315 27 9C27 10.6569 25.6569 12 24 12C22.3431 12 21 10.6569 21 9C21 7.34315 22.3431 6 24 6Z" fill="white"/>
<path d="M3 19.5C3 19.7125 3.04418 19.9147 3.12386 20.0978C3.1322 20.1187 3.14235 20.1438 3.15434 20.1729C3.18804 20.2546 3.23639 20.3679 3.30029 20.5082C3.42797 20.7886 3.61839 21.1785 3.87881 21.6415C4.39821 22.5649 5.20451 23.7938 6.35945 25.0258C8.68573 27.5071 12.4352 29.9998 18.0006 29.9998C23.5661 29.9998 27.3155 27.5071 29.6418 25.0258C30.7967 23.7938 31.603 22.5649 32.1224 21.6415C32.3829 21.1785 32.5733 20.7886 32.701 20.5082C32.7649 20.3679 32.8132 20.2546 32.8469 20.1729C32.8638 20.1321 32.877 20.0991 32.8866 20.0745L32.8985 20.044L32.9024 20.0336L32.9046 20.028C32.9663 19.8638 33 19.6858 33 19.5C33 18.6716 32.3284 18 31.5 18C30.8468 18 30.2911 18.4175 30.0853 19.0003L30.082 19.0083L30.0736 19.0289C30.0529 19.0791 30.0189 19.1592 29.9707 19.2649C29.8743 19.4767 29.7219 19.7899 29.5077 20.1707C29.0779 20.9348 28.4076 21.9559 27.4532 22.9739C25.5607 24.9926 22.5602 26.9998 18.0006 26.9998C13.4411 26.9998 10.4405 24.9926 8.54806 22.9739C7.59361 21.9559 6.92336 20.9348 6.49354 20.1707C6.27934 19.7899 6.12699 19.4767 6.03055 19.2649C5.98239 19.1592 5.94834 19.0791 5.92766 19.0289C5.91732 19.0039 5.91034 18.9863 5.90661 18.9768L5.90465 18.9719C5.69103 18.404 5.1426 18 4.5 18C3.67157 18 3 18.6716 3 19.5Z" fill="white"/>
</svg>
