<svg width="37" height="36" viewBox="0 0 37 36" fill="none" xmlns="http://www.w3.org/2000/svg">
<path fill-rule="evenodd" clip-rule="evenodd" d="M8.61934 3.28955C4.95926 3.28955 1.99219 6.25663 1.99219 9.9167C1.99219 13.5768 4.95926 16.5438 8.61934 16.5438C12.2794 16.5438 15.2465 13.5768 15.2465 9.9167C15.2465 6.25663 12.2794 3.28955 8.61934 3.28955ZM5.14219 9.9167C5.14219 7.99632 6.69896 6.43955 8.61934 6.43955C10.5397 6.43955 12.0965 7.99632 12.0965 9.9167C12.0965 11.8371 10.5397 13.3938 8.61934 13.3938C6.69896 13.3938 5.14219 11.8371 5.14219 9.9167Z" fill="white"/>
<path fill-rule="evenodd" clip-rule="evenodd" d="M22.7654 5.31035C20.2214 5.31035 18.1591 7.37265 18.1591 9.91664C18.1591 12.4606 20.2214 14.5229 22.7654 14.5229C25.3094 14.5229 27.3717 12.4606 27.3717 9.91664C27.3717 7.37265 25.3094 5.31035 22.7654 5.31035ZM21.3091 9.91664C21.3091 9.11235 21.9611 8.46035 22.7654 8.46035C23.5697 8.46035 24.2217 9.11235 24.2217 9.91664C24.2217 10.7209 23.5697 11.3729 22.7654 11.3729C21.9611 11.3729 21.3091 10.7209 21.3091 9.91664Z" fill="white"/>
<path fill-rule="evenodd" clip-rule="evenodd" d="M1.99219 26.0836C1.99219 22.4236 4.95926 19.4565 8.61934 19.4565C12.2794 19.4565 15.2465 22.4236 15.2465 26.0836C15.2465 29.7437 12.2794 32.7108 8.61934 32.7108C4.95926 32.7108 1.99219 29.7437 1.99219 26.0836ZM8.61934 22.6065C6.69896 22.6065 5.14219 24.1633 5.14219 26.0836C5.14219 28.004 6.69896 29.5608 8.61934 29.5608C10.5397 29.5608 12.0965 28.004 12.0965 26.0836C12.0965 24.1633 10.5397 22.6065 8.61934 22.6065Z" fill="white"/>
<path fill-rule="evenodd" clip-rule="evenodd" d="M22.7654 21.4773C20.2214 21.4773 18.1591 23.5396 18.1591 26.0836C18.1591 28.6276 20.2214 30.6899 22.7654 30.6899C25.3094 30.6899 27.3717 28.6276 27.3717 26.0836C27.3717 23.5396 25.3094 21.4773 22.7654 21.4773ZM21.3091 26.0836C21.3091 25.2793 21.9611 24.6273 22.7654 24.6273C23.5697 24.6273 24.2217 25.2793 24.2217 26.0836C24.2217 26.8879 23.5697 27.5399 22.7654 27.5399C21.9611 27.5399 21.3091 26.8879 21.3091 26.0836Z" fill="white"/>
<path d="M32.8697 11.9375C33.9858 11.9375 34.8906 11.0328 34.8906 9.91668C34.8906 8.80059 33.9858 7.89582 32.8697 7.89582C31.7536 7.89582 30.8489 8.80059 30.8489 9.91668C30.8489 11.0328 31.7536 11.9375 32.8697 11.9375Z" fill="white"/>
<path d="M34.8906 26.0835C34.8906 27.1996 33.9858 28.1043 32.8697 28.1043C31.7536 28.1043 30.8489 27.1996 30.8489 26.0835C30.8489 24.9674 31.7536 24.0626 32.8697 24.0626C33.9858 24.0626 34.8906 24.9674 34.8906 26.0835Z" fill="white"/>
</svg>
