<svg width="37" height="36" viewBox="0 0 37 36" fill="none" xmlns="http://www.w3.org/2000/svg">
<path d="M21.9283 1.63604C21.9283 0.766187 21.2232 0.0610352 20.3533 0.0610352C19.4835 0.0610352 18.7783 0.766187 18.7783 1.63603L18.7783 4.79756C18.7783 5.66741 19.4835 6.37256 20.3533 6.37256C21.2232 6.37256 21.9283 5.66741 21.9283 4.79756V1.63604Z" fill="white"/>
<path d="M32.9156 4.64628C33.5253 4.02582 33.5165 3.02862 32.896 2.41898C32.2756 1.80935 31.2784 1.81813 30.6687 2.43859L27.5419 5.62099C26.9322 6.24146 26.941 7.23865 27.5615 7.84829C28.1819 8.45793 29.1791 8.44915 29.7888 7.82868L32.9156 4.64628Z" fill="white"/>
<path d="M28.9434 14.9814C28.9434 14.1116 29.6486 13.4064 30.5184 13.4064L33.6988 13.4064C34.5687 13.4064 35.2738 14.1116 35.2738 14.9814C35.2738 15.8512 34.5687 16.5564 33.6988 16.5564H30.5184C29.6486 16.5564 28.9434 15.8513 28.9434 14.9814Z" fill="white"/>
<path fill-rule="evenodd" clip-rule="evenodd" d="M12.7275 3.87395C13.1452 3.87395 13.5458 4.03989 13.8412 4.33526L30.9995 21.4935C31.2948 21.7889 31.4608 22.1895 31.4608 22.6072C31.4608 23.0249 31.2948 23.4255 30.9995 23.7209L27.1945 27.5258L27.1866 27.5338L27.1786 27.5418L26.9272 27.7931C21.5746 33.1458 12.8943 33.1458 7.54159 27.7931C2.18893 22.4405 2.18893 13.7601 7.54159 8.40748L11.6138 4.33526C11.9092 4.03989 12.3098 3.87395 12.7275 3.87395ZM27.6584 22.6072L26.0729 24.1927L11.142 9.26186L12.7275 7.67634L27.6584 22.6072ZM9.76898 25.5657C5.93539 21.7321 5.66672 15.6819 8.96298 11.5376L23.7971 26.3717C19.6528 29.668 13.6026 29.3993 9.76898 25.5657Z" fill="white"/>
</svg>
