<svg width="37" height="36" viewBox="0 0 37 36" fill="none" xmlns="http://www.w3.org/2000/svg">
<path fill-rule="evenodd" clip-rule="evenodd" d="M11.3677 4.12568C12.0843 3.40513 13.0586 3 14.0749 3H23.4644C24.4996 3 25.4904 3.42032 26.2098 4.16465L32.594 10.7699C33.2821 11.4818 33.6667 12.4332 33.6667 13.4234V22.5908C33.6667 23.5823 33.2811 24.5348 32.5914 25.247L26.2087 31.838C25.4894 32.5807 24.4997 33 23.4658 33H14.0827C13.0594 33 12.0788 32.5892 11.3611 31.8597L4.76324 25.1539C4.06056 24.4397 3.66675 23.4779 3.66675 22.476V13.4441C3.66675 12.4351 4.06617 11.4671 4.77772 10.7516L11.3677 4.12568ZM14.0749 5.66667C13.7684 5.66667 13.4745 5.78885 13.2584 6.00616L6.66847 12.6321C6.45388 12.8479 6.33341 13.1398 6.33341 13.4441V22.476C6.33341 22.7782 6.45218 23.0683 6.6641 23.2837L13.2619 29.9894C13.4784 30.2094 13.7741 30.3333 14.0827 30.3333H23.4658C23.7776 30.3333 24.0761 30.2069 24.293 29.9829L30.6758 23.3919C30.8838 23.1771 31.0001 22.8899 31.0001 22.5908V13.4234C31.0001 13.1248 30.8841 12.8378 30.6765 12.6231L24.2924 6.01791C24.0754 5.79343 23.7766 5.66667 23.4644 5.66667H14.0749Z" fill="white"/>
</svg>
