<svg width="37" height="36" viewBox="0 0 37 36" fill="none" xmlns="http://www.w3.org/2000/svg">
<path d="M18.6667 13.875C17.9626 13.875 17.3917 14.4458 17.3917 15.15V21.525C17.3917 22.2292 17.9626 22.8 18.6667 22.8H23.7667C24.4709 22.8 25.0417 22.2292 25.0417 21.525C25.0417 20.8208 24.4709 20.25 23.7667 20.25H19.9417V15.15C19.9417 14.4458 19.3709 13.875 18.6667 13.875Z" fill="white"/>
<path fill-rule="evenodd" clip-rule="evenodd" d="M14.1667 6C13.3383 6 12.6667 5.32843 12.6667 4.5C12.6667 3.67157 13.3383 3 14.1667 3H23.1667C23.9952 3 24.6667 3.67157 24.6667 4.5C24.6667 5.32843 23.9952 6 23.1667 6H20.1667V7.58731C26.5015 8.3297 31.4167 13.7158 31.4167 20.25C31.4167 27.2916 25.7084 33 18.6667 33C11.6251 33 5.91675 27.2916 5.91675 20.25C5.91675 13.7158 10.832 8.3297 17.1667 7.58731V6H14.1667ZM18.6667 30.45C24.3001 30.45 28.8667 25.8833 28.8667 20.25C28.8667 14.6167 24.3001 10.05 18.6667 10.05C13.0334 10.05 8.46675 14.6167 8.46675 20.25C8.46675 25.8833 13.0334 30.45 18.6667 30.45Z" fill="white"/>
</svg>
