<svg width="37" height="36" viewBox="0 0 37 36" fill="none" xmlns="http://www.w3.org/2000/svg">
<path fill-rule="evenodd" clip-rule="evenodd" d="M24.476 3.72395C22.3027 3.90152 20.2664 4.52964 18.6686 5.56677C16.8054 4.1154 14.6308 3.19164 12.2976 3.02658C9.56799 2.83346 6.7474 3.68834 4.10553 5.73602C1.54627 7.71966 0.676905 10.7248 0.666837 13.4018C0.656923 16.0381 1.47535 18.6872 2.71763 20.204C3.33271 20.955 4.27146 21.9648 5.13822 22.8461C5.11939 23.7438 5.44845 24.6481 6.12752 25.3398C6.7069 25.9299 7.44609 26.2685 8.20885 26.3544C8.3109 27.0549 8.62849 27.7305 9.16267 28.2746C9.68797 28.8097 10.3446 29.138 11.0311 29.2586C11.093 30.0388 11.4189 30.8025 12.0103 31.4049C12.6705 32.0773 13.5381 32.4232 14.4117 32.4407C14.5481 32.9951 14.8306 33.5214 15.2598 33.9586C16.5353 35.2578 18.6236 35.278 19.924 34.0037L21.9859 31.9834C22.1986 31.775 22.377 31.5449 22.5211 31.3001C22.8847 31.3948 23.2581 31.429 23.6324 31.4025C24.6204 31.3326 25.4824 30.85 26.0914 30.1998C26.6363 29.618 27.0299 28.8483 27.129 27.9944C27.8696 27.8799 28.5548 27.5268 29.0815 26.9941C29.6039 26.4657 29.9694 25.7603 30.0616 24.9689C30.8678 24.83 31.5665 24.4085 32.0753 23.8569C32.599 23.289 32.9642 22.5379 33.0381 21.7102L33.0591 21.6868C33.0718 21.6723 33.0927 21.6494 33.1207 21.6186C33.3805 21.334 34.2556 20.3754 34.9617 19.1409C35.571 18.0755 36.0641 15.9518 35.9158 13.6503C35.7636 11.2887 34.9236 8.52399 32.6036 6.33269C30.2365 4.09685 27.1855 3.50256 24.476 3.72395ZM22.5968 28.0977C22.6593 28.1425 22.719 28.1929 22.7752 28.249C23.0693 28.5428 23.2948 28.5721 23.431 28.5624C23.604 28.5502 23.821 28.4566 24.0103 28.2545C24.1992 28.0528 24.2963 27.8099 24.303 27.5988C24.3085 27.4207 24.2552 27.1818 23.9723 26.9082C22.2246 25.2204 19.0795 22.0928 17.7286 20.7433C17.1721 20.1873 17.1721 19.2859 17.7286 18.73C18.2851 18.174 19.1874 18.174 19.7439 18.73C21.0961 20.0808 25.1669 24.1028 25.9536 24.8616C26.2491 25.1466 26.4841 25.1902 26.6184 25.1875C26.7739 25.1843 26.9316 25.1169 27.0539 24.9932C27.1748 24.8709 27.2353 24.7203 27.2344 24.5715C27.2336 24.4401 27.1839 24.1854 26.8519 23.8537C26.2566 23.259 25.546 22.5544 24.8067 21.8238C23.5148 20.5472 22.1351 19.1909 21.1288 18.2017L20.7054 17.7855C20.1445 17.234 20.1373 16.3327 20.6893 15.7723C21.1603 15.2941 21.8863 15.2187 22.4377 15.5495C22.5325 15.6064 22.6222 15.6752 22.7045 15.7562L23.1286 16.1731C24.7088 17.7265 27.2228 20.1976 28.8671 21.8404C29.177 22.15 29.4027 22.1757 29.5139 22.1701C29.6554 22.1629 29.829 22.0906 29.9793 21.9276C30.1303 21.7639 30.2026 21.567 30.2019 21.3981C30.2014 21.2605 30.1543 21.0469 29.873 20.7931C29.8565 20.7782 29.8403 20.7629 29.8246 20.7473L21.6911 12.6862C21.6104 12.7638 21.5284 12.8425 21.4456 12.9219C20.7214 13.6163 19.9444 14.3556 19.55 14.7138C19.5158 14.7448 19.4711 14.7877 19.4164 14.84C18.9976 15.241 17.9952 16.2007 16.6774 16.7071C15.8942 17.008 14.9644 17.1709 13.9346 16.9968C12.9052 16.8227 11.8739 16.3285 10.8617 15.4679C10.5624 15.2135 10.3816 14.8469 10.362 14.4548C10.3424 14.0628 10.4857 13.68 10.7581 13.397C11.7975 12.317 14.2033 9.82559 16.4806 7.48983C15.1183 6.53523 13.6253 5.97487 12.0963 5.86669C10.1405 5.72832 8.0012 6.32019 5.85254 7.98559C4.2122 9.257 3.52484 11.2792 3.51682 13.4125C3.50864 15.5866 4.21076 17.5309 4.92341 18.401C5.3161 18.8805 5.88549 19.5098 6.48784 20.1438L8.40887 18.2615C9.77344 16.9244 11.9646 16.9456 13.303 18.3088C13.8372 18.8529 14.1548 19.5286 14.2568 20.2291C15.0196 20.3149 15.7588 20.6536 16.3381 21.2437C16.9296 21.8461 17.2555 22.6098 17.3174 23.39C18.0038 23.5106 18.6605 23.8389 19.1858 24.3739C19.7392 24.9376 20.0601 25.6424 20.1498 26.3698C20.8403 26.4693 21.5049 26.7876 22.0311 27.3237C22.2622 27.559 22.4507 27.8202 22.5968 28.0977ZM32.4872 17.7282C32.2766 18.0964 32.048 18.4311 31.8306 18.7212L31.8001 18.6946L22.7086 9.68396C22.1577 9.13798 21.2708 9.13272 20.7134 9.67211C20.6077 9.77449 20.4852 9.89287 20.3509 10.0224C19.4966 10.8467 18.1657 12.1231 17.6329 12.607C17.5601 12.6731 17.485 12.7434 17.407 12.8164C16.9484 13.2455 16.392 13.7662 15.6543 14.0496C15.2608 14.2008 14.8511 14.264 14.4102 14.1895C14.2957 14.1701 14.1725 14.1403 14.0408 14.0967C15.5114 12.5738 17.667 10.3484 19.5562 8.41779C19.6031 8.37985 19.6518 8.34198 19.7021 8.30421C20.7868 7.49087 22.6523 6.72968 24.7083 6.5617C26.8681 6.38523 29.0304 6.87598 30.6456 8.40162C32.308 9.97179 32.9523 11.9812 33.0717 13.8332C33.1949 15.7453 32.7467 17.2745 32.4872 17.7282ZM8.06553 22.3761C7.76554 22.6701 7.76088 23.1513 8.05511 23.451C8.34934 23.7507 8.83104 23.7553 9.13103 23.4614L11.365 21.2724C11.665 20.9785 11.6696 20.4973 11.3754 20.1976C11.0812 19.8979 10.5995 19.8932 10.2995 20.1872L8.06553 22.3761ZM11.1007 25.311C10.8007 25.6049 10.796 26.0862 11.0903 26.3859C11.3845 26.6856 11.8662 26.6902 12.1662 26.3963L14.4001 24.2073C14.7001 23.9134 14.7048 23.4322 14.4106 23.1325C14.1163 22.8328 13.6346 22.8281 13.3346 23.1221L11.1007 25.311ZM13.9379 29.5161C13.6437 29.2164 13.6484 28.7352 13.9483 28.4413L16.1823 26.2523C16.4823 25.9584 16.964 25.963 17.2582 26.2627C17.5524 26.5624 17.5478 27.0436 17.2478 27.3376L15.0138 29.5265C14.7139 29.8205 14.2321 29.8158 13.9379 29.5161ZM17.1956 31.2246C16.9597 31.4557 16.956 31.8342 17.1874 32.0698C17.4187 32.3055 17.7975 32.3092 18.0334 32.078L20.0953 30.0576C20.3312 29.8265 20.3349 29.4481 20.1035 29.2124C19.8722 28.9768 19.4934 28.9731 19.2575 29.2042L17.1956 31.2246Z" fill="white"/>
</svg>
