<svg width="36" height="36" viewBox="0 0 36 36" fill="none" xmlns="http://www.w3.org/2000/svg">
<path fill-rule="evenodd" clip-rule="evenodd" d="M3 18C3 13.0294 7.02944 9 12 9H24C28.9706 9 33 13.0294 33 18C33 22.9706 28.9706 27 24 27H12C7.02944 27 3 22.9706 3 18ZM12 12C8.68629 12 6 14.6863 6 18C6 21.3137 8.68629 24 12 24H24C27.3137 24 30 21.3137 30 18C30 14.6863 27.3137 12 24 12H12Z" fill="white"/>
<path d="M28.5 18C28.5 20.4853 26.4853 22.5 24 22.5C21.5147 22.5 19.5 20.4853 19.5 18C19.5 15.5147 21.5147 13.5 24 13.5C26.4853 13.5 28.5 15.5147 28.5 18Z" fill="white"/>
</svg>
