<svg width="36" height="36" viewBox="0 0 36 36" fill="none" xmlns="http://www.w3.org/2000/svg">
<path fill-rule="evenodd" clip-rule="evenodd" d="M12.7266 10.1133C12.7266 7.21193 15.0786 4.85987 17.98 4.85987C20.8815 4.85987 23.2335 7.21193 23.2335 10.1133C23.2335 13.0148 20.8815 15.3668 17.98 15.3668C15.0786 15.3668 12.7266 13.0148 12.7266 10.1133ZM17.98 7.55987C16.5698 7.55987 15.4266 8.7031 15.4266 10.1133C15.4266 11.5236 16.5698 12.6668 17.98 12.6668C19.3903 12.6668 20.5335 11.5236 20.5335 10.1133C20.5335 8.7031 19.3903 7.55987 17.98 7.55987Z" fill="white"/>
<path fill-rule="evenodd" clip-rule="evenodd" d="M9.79733 20.9173C11.3188 18.6937 13.9536 17.1668 17.9815 17.1668C22.0094 17.1668 24.6443 18.6937 26.1657 20.9173C27.5825 22.9879 27.785 26.3884 27.7892 27.6062C27.7958 29.5294 26.236 30.7998 24.6411 30.7998H11.3219C9.72707 30.7998 8.16725 29.5294 8.17385 27.6062C8.17803 26.3884 8.3806 22.9879 9.79733 20.9173ZM17.9815 19.8668C14.7145 19.8668 12.9744 21.0553 12.0256 22.442C11.0549 23.8607 10.8772 26.6203 10.8738 27.6155C10.8732 27.7904 10.9356 27.8985 11.0114 27.9709C11.1003 28.0557 11.2184 28.0998 11.3219 28.0998H24.6411C24.7446 28.0998 24.8628 28.0557 24.9516 27.9709C25.0275 27.8985 25.0898 27.7904 25.0892 27.6155C25.0858 26.6203 24.9081 23.8607 23.9374 22.442C22.9886 21.0553 21.2486 19.8668 17.9815 19.8668Z" fill="white"/>
<path fill-rule="evenodd" clip-rule="evenodd" d="M3.29231 12.3482C3.29231 9.93913 5.24523 7.98621 7.65428 7.98621C10.0633 7.98621 12.0162 9.93913 12.0162 12.3482C12.0162 14.7572 10.0633 16.7101 7.65428 16.7101C5.24523 16.7101 3.29231 14.7572 3.29231 12.3482ZM7.65428 10.6862C6.7364 10.6862 5.99231 11.4303 5.99231 12.3482C5.99231 13.2661 6.7364 14.0101 7.65428 14.0101C8.57216 14.0101 9.31624 13.2661 9.31624 12.3482C9.31624 11.4303 8.57216 10.6862 7.65428 10.6862Z" fill="white"/>
<path d="M8.0418 20.4209C8.52098 19.7205 9.1021 18.9891 9.80018 18.2971C9.37507 18.2507 8.92913 18.2266 8.46187 18.2266C5.01437 18.2266 2.72761 19.5374 1.40269 21.4738C0.175917 23.2667 0.00359295 26.3491 1.89109e-05 27.3908C-0.00597162 29.1369 1.41226 30.2917 2.86199 30.2917H6.97275C6.44437 29.839 6.08797 29.1578 6.09084 28.3212C6.09159 28.1016 6.09757 27.8569 6.112 27.5917H2.86199C2.83104 27.5917 2.78456 27.5766 2.7492 27.5428C2.73426 27.5286 2.72355 27.5131 2.7161 27.4958C2.70924 27.48 2.69983 27.4506 2.7 27.4001C2.70281 26.581 2.85024 24.1396 3.63101 22.9985C4.30881 22.0079 5.50597 21.1203 7.70157 20.9543C7.80799 20.7751 7.92125 20.597 8.0418 20.4209Z" fill="white"/>
<path d="M28.9908 30.292H33.0937C34.5434 30.292 35.9616 29.1371 35.9556 27.391C35.9521 26.3493 35.7797 23.2669 34.553 21.474C33.228 19.5376 30.9413 18.2267 27.4937 18.2267C27.0292 18.2267 26.5858 18.2505 26.1629 18.2964C26.8613 18.9887 27.4427 19.7203 27.922 20.4209C28.0427 20.5973 28.1561 20.7756 28.2627 20.9552C30.4528 21.1228 31.6477 22.0093 32.3246 22.9986C33.1054 24.1397 33.2528 26.5812 33.2557 27.4003C33.2558 27.4509 33.2464 27.4802 33.2396 27.496C33.2321 27.5133 33.2214 27.5288 33.2065 27.543C33.1711 27.5768 33.1246 27.592 33.0937 27.592H29.8518C29.8662 27.857 29.8722 28.1016 29.873 28.3212C29.8758 29.1579 29.5193 29.8392 28.9908 30.292Z" fill="white"/>
<path fill-rule="evenodd" clip-rule="evenodd" d="M28.3123 8.03465C25.9003 8.03465 23.9449 9.99002 23.9449 12.4021C23.9449 14.8142 25.9003 16.7696 28.3123 16.7696C30.7244 16.7696 32.6798 14.8142 32.6798 12.4021C32.6798 9.99002 30.7244 8.03465 28.3123 8.03465ZM26.6449 12.4021C26.6449 11.4812 27.3914 10.7346 28.3123 10.7346C29.2332 10.7346 29.9798 11.4812 29.9798 12.4021C29.9798 13.323 29.2332 14.0696 28.3123 14.0696C27.3914 14.0696 26.6449 13.323 26.6449 12.4021Z" fill="white"/>
</svg>
