<svg width="37" height="36" viewBox="0 0 37 36" fill="none" xmlns="http://www.w3.org/2000/svg">
<path fill-rule="evenodd" clip-rule="evenodd" d="M29.2733 28.6066C26.5589 31.3211 22.8089 33 18.6667 33C10.3825 33 3.66675 26.2843 3.66675 18C3.66675 9.71573 10.3825 3 18.6667 3C22.6794 3 26.3241 4.57564 29.0159 7.14197C29.1868 7.30497 29.3539 7.47197 29.5171 7.64282C32.0692 10.3157 33.6437 13.9301 33.6665 17.9121C33.6669 17.9759 33.6668 18.0397 33.6664 18.1036C33.6394 22.0915 32.0562 25.7099 29.4937 28.3816C29.421 28.4574 29.3476 28.5324 29.2733 28.6066ZM27.3877 26.721C25.1558 28.9529 22.0725 30.3333 18.6667 30.3333C11.8552 30.3333 6.33341 24.8115 6.33341 18C6.33341 11.1885 11.8552 5.66667 18.6667 5.66667V18L27.3877 26.721Z" fill="white"/>
</svg>
