<svg width="37" height="36" viewBox="0 0 37 36" fill="none" xmlns="http://www.w3.org/2000/svg">
<path d="M23.6574 7.80956C23.6574 6.93684 24.3735 6.2251 25.2621 6.2251H34.8365C35.7251 6.2251 36.4412 6.93684 36.4412 7.80956V16.1532C36.4412 17.0259 35.7251 17.7377 34.8365 17.7377C33.9479 17.7377 33.2318 17.0259 33.2318 16.1532V11.3228L21.8594 24.4653C21.546 24.7452 21.1329 24.892 20.7097 24.8729C20.2822 24.8536 19.8807 24.6665 19.5939 24.3539L14.3483 18.7719C14.3047 18.7254 14.2434 18.6997 14.1796 18.701C14.1159 18.7024 14.0557 18.7307 14.014 18.779L3.6442 30.7974C3.02676 31.4221 2.01313 31.4362 1.37815 30.8275C0.742919 30.2185 0.727469 29.2171 1.34307 28.589L13.0796 15.175C13.3877 14.8631 13.8127 14.6898 14.2549 14.697C14.6991 14.7043 15.1199 14.893 15.4176 15.2175L20.7375 20.8805C20.7816 20.9275 20.8438 20.9533 20.9083 20.9513C20.9727 20.9494 21.0332 20.9199 21.0745 20.8703L30.6172 9.39403H25.2621C24.3735 9.39403 23.6574 8.68228 23.6574 7.80956Z" fill="white"/>
</svg>
