<svg width="36" height="36" viewBox="0 0 36 36" fill="none" xmlns="http://www.w3.org/2000/svg">
<path fill-rule="evenodd" clip-rule="evenodd" d="M18 15C21.3137 15 24 12.3137 24 9C24 5.68629 21.3137 3 18 3C14.6863 3 12 5.68629 12 9C12 12.3137 14.6863 15 18 15ZM18 12C19.6569 12 21 10.6569 21 9C21 7.34315 19.6569 6 18 6C16.3431 6 15 7.34315 15 9C15 10.6569 16.3431 12 18 12Z" fill="white"/>
<path d="M6.52565 23.1523C8.55788 20.1856 12.1812 18 18.0007 18C19.84 18 21.4674 18.2172 22.9016 18.6161C23.6998 18.8381 24.1668 19.6651 23.9449 20.4632C23.7229 21.2613 22.8959 21.7284 22.0978 21.5064C20.9579 21.1894 19.6045 21 18.0007 21C13.0201 21 10.3934 22.8144 9.00066 24.8477C7.87897 26.4852 7.45948 28.4093 7.4255 30H20.9997C21.8281 30 22.4997 30.6716 22.4997 31.5C22.4997 32.3284 21.8281 33 20.9997 33H6.00066C5.24417 33 4.60607 32.4367 4.51224 31.6861C4.22918 29.4215 4.55579 26.028 6.52565 23.1523Z" fill="white"/>
<path d="M28.5 33C27.6716 33 27 32.3284 27 31.5V28.5H24C23.1716 28.5 22.5 27.8284 22.5 27C22.5 26.1716 23.1716 25.5 24 25.5H27V22.5C27 21.6716 27.6716 21 28.5 21C29.3284 21 30 21.6716 30 22.5V25.5H33C33.8284 25.5 34.5 26.1716 34.5 27C34.5 27.8284 33.8284 28.5 33 28.5H30V31.5C30 32.3284 29.3284 33 28.5 33Z" fill="white"/>
</svg>
