<svg width="36" height="36" viewBox="0 0 36 36" fill="none" xmlns="http://www.w3.org/2000/svg">
<path fill-rule="evenodd" clip-rule="evenodd" d="M1.80389 8.75575C1.6574 9.16669 1.76066 9.62526 2.06916 9.93375L2.62469 10.4893C3.21048 11.0751 4.16022 11.0751 4.74601 10.4893L8.98865 6.24665C9.57444 5.66086 9.57444 4.71111 8.98865 4.12533L8.39092 3.5276C8.10681 3.24348 7.68741 3.14261 7.30518 3.26644C4.7785 4.085 2.77532 6.03066 1.8835 8.53242L1.80389 8.75575ZM33.4805 9.93375C33.789 9.62526 33.8922 9.16669 33.7457 8.75575L33.6661 8.53242C32.7743 6.03066 30.7711 4.085 28.2445 3.26644C27.8622 3.14261 27.4428 3.24348 27.1587 3.5276L26.561 4.12533C25.9752 4.71111 25.9752 5.66086 26.561 6.24665L30.8036 10.4893C31.3894 11.0751 32.3392 11.0751 32.9249 10.4893L33.4805 9.93375ZM18.0004 29.9999C23.7994 29.9999 28.5004 25.2989 28.5004 19.4999C28.5004 13.7009 23.7994 8.99989 18.0004 8.99989C12.2014 8.99989 7.5004 13.7009 7.5004 19.4999C7.5004 25.2989 12.2014 29.9999 18.0004 29.9999ZM29.1846 27.0629C30.6465 24.9054 31.5004 22.3023 31.5004 19.4999C31.5004 12.044 25.4562 5.99989 18.0004 5.99989C10.5446 5.99989 4.5004 12.044 4.5004 19.4999C4.5004 22.3023 5.35433 24.9054 6.81617 27.0629L3.43974 30.4393C2.85396 31.0251 2.85396 31.9749 3.43974 32.5607C4.02553 33.1465 4.97528 33.1465 5.56106 32.5607L8.77021 29.3515C11.1843 31.6143 14.4306 32.9999 18.0004 32.9999C21.5703 32.9999 24.8165 31.6143 27.2306 29.3515L30.4397 32.5607C31.0255 33.1465 31.9753 33.1465 32.5611 32.5607C33.1469 31.9749 33.1469 31.0251 32.5611 30.4393L29.1846 27.0629Z" fill="white"/>
<path d="M18.0004 13.4999C17.172 13.4999 16.5004 14.1715 16.5004 14.9999V17.9999H13.5004C12.672 17.9999 12.0004 18.6715 12.0004 19.4999C12.0004 20.3283 12.672 20.9999 13.5004 20.9999H16.5004V23.9999C16.5004 24.8283 17.172 25.4999 18.0004 25.4999C18.8288 25.4999 19.5004 24.8283 19.5004 23.9999V20.9999H22.5004C23.3288 20.9999 24.0004 20.3283 24.0004 19.4999C24.0004 18.6715 23.3288 17.9999 22.5004 17.9999H19.5004V14.9999C19.5004 14.1715 18.8288 13.4999 18.0004 13.4999Z" fill="white"/>
</svg>
