<svg width="36" height="36" viewBox="0 0 36 36" fill="none" xmlns="http://www.w3.org/2000/svg">
<path fill-rule="evenodd" clip-rule="evenodd" d="M33.7448 8.75623C33.8913 9.16718 33.788 9.62575 33.4795 9.93424L32.924 10.4898C32.3382 11.0756 31.3884 11.0756 30.8026 10.4898L26.56 6.24714C25.9742 5.66135 25.9742 4.7116 26.56 4.12582L27.1577 3.52809C27.4418 3.24397 27.8612 3.14309 28.2435 3.26693C30.8773 4.12021 32.8255 6.17754 33.7448 8.75623ZM8.14797 10.27C5.88511 12.6841 4.49943 15.9304 4.49943 19.5004C4.49943 22.3028 5.35335 24.9058 6.81519 27.0634L3.43877 30.4398C2.85298 31.0256 2.85298 31.9754 3.43877 32.5612C4.02455 33.1469 4.9743 33.1469 5.56009 32.5612L8.76923 29.352C11.1833 31.6148 14.4296 33.0004 17.9994 33.0004C21.5693 33.0004 24.8155 31.6148 27.2296 29.352L30.4388 32.5612C31.0246 33.1469 31.9743 33.1469 32.5601 32.5612C33.075 32.0462 33.1373 31.2501 32.747 30.6672L5.92914 3.84931C3.94851 4.90081 2.54917 6.66282 1.80292 8.75623C1.65643 9.16718 1.75968 9.62575 2.06818 9.93424L2.62371 10.4898C3.2095 11.0756 4.15925 11.0756 4.74503 10.4898L6.55639 8.67842L8.14797 10.27ZM10.2707 12.3927C8.55009 14.2628 7.49943 16.7589 7.49943 19.5004C7.49943 25.2994 12.2004 30.0004 17.9994 30.0004C20.7409 30.0004 23.237 28.9497 25.1071 27.2291L20.3783 22.5003H18C17.1716 22.5003 16.5 21.8288 16.5 21.0003V18.622L10.2707 12.3927ZM31.4994 19.5004C31.4994 21.1905 31.1888 22.8081 30.6216 24.2992L28.2237 21.9012C28.404 21.1302 28.4994 20.3264 28.4994 19.5004C28.4994 13.7014 23.7984 9.00038 17.9994 9.00038C17.1734 9.00038 16.3696 9.09576 15.5986 9.27612L13.2006 6.87817C14.6917 6.31096 16.3093 6.00038 17.9994 6.00038C25.4553 6.00038 31.4994 12.0445 31.4994 19.5004Z" fill="white"/>
</svg>
