<svg width="36" height="36" viewBox="0 0 36 36" fill="none" xmlns="http://www.w3.org/2000/svg">
<path d="M12 9C12 10.6569 10.6569 12 9 12C7.34315 12 6 10.6569 6 9C6 7.34315 7.34315 6 9 6C10.6569 6 12 7.34315 12 9Z" fill="white"/>
<path d="M12 27C12 28.6569 10.6569 30 9 30C7.34315 30 6 28.6569 6 27C6 25.3431 7.34315 24 9 24C10.6569 24 12 25.3431 12 27Z" fill="white"/>
<path d="M12 18C12 19.6569 10.6569 21 9 21C7.34315 21 6 19.6569 6 18C6 16.3431 7.34315 15 9 15C10.6569 15 12 16.3431 12 18Z" fill="white"/>
<path d="M21 9C21 10.6569 19.6569 12 18 12C16.3431 12 15 10.6569 15 9C15 7.34315 16.3431 6 18 6C19.6569 6 21 7.34315 21 9Z" fill="white"/>
<path d="M21 27C21 28.6569 19.6569 30 18 30C16.3431 30 15 28.6569 15 27C15 25.3431 16.3431 24 18 24C19.6569 24 21 25.3431 21 27Z" fill="white"/>
<path d="M21 18C21 19.6569 19.6569 21 18 21C16.3431 21 15 19.6569 15 18C15 16.3431 16.3431 15 18 15C19.6569 15 21 16.3431 21 18Z" fill="white"/>
<path d="M30 9C30 10.6569 28.6569 12 27 12C25.3431 12 24 10.6569 24 9C24 7.34315 25.3431 6 27 6C28.6569 6 30 7.34315 30 9Z" fill="white"/>
<path d="M30 27C30 28.6569 28.6569 30 27 30C25.3431 30 24 28.6569 24 27C24 25.3431 25.3431 24 27 24C28.6569 24 30 25.3431 30 27Z" fill="white"/>
<path d="M30 18C30 19.6569 28.6569 21 27 21C25.3431 21 24 19.6569 24 18C24 16.3431 25.3431 15 27 15C28.6569 15 30 16.3431 30 18Z" fill="white"/>
</svg>
