<svg width="36" height="36" viewBox="0 0 36 36" fill="none" xmlns="http://www.w3.org/2000/svg">
<path fill-rule="evenodd" clip-rule="evenodd" d="M3 9C3 7.34315 4.34315 6 6 6H17.926C19.4044 6 20.7886 6.72621 21.6287 7.94271L23.9129 11.25H30.2614C32.2545 11.25 33.6935 13.1577 33.146 15.0742L29.814 26.7362C29.262 28.6681 27.4963 30 25.4871 30H6C4.34315 30 3 28.6569 3 27V9ZM20.267 11.25L19.1602 9.64757C18.8802 9.24207 18.4188 9 17.926 9H6V18.5896L7.9809 13.2129C8.41541 12.0335 9.53905 11.25 10.7959 11.25H20.267ZM6.09856 27H25.4871C26.1568 27 26.7454 26.556 26.9294 25.9121L30.2614 14.25H10.7959L6.09856 27Z" fill="white"/>
</svg>
