<svg width="36" height="36" viewBox="0 0 36 36" fill="none" xmlns="http://www.w3.org/2000/svg">
<path fill-rule="evenodd" clip-rule="evenodd" d="M18 6C13.0294 6 9 10.0294 9 15V25.5C9 26.3284 8.32843 27 7.5 27C6.67157 27 6 26.3284 6 25.5V15C6 8.37258 11.3726 3 18 3C24.6274 3 30 8.37258 30 15V24C30 26.5909 29.1298 28.8665 27.4982 30.4982C25.8665 32.1298 23.5909 33 21 33C18.4091 33 16.1335 32.1298 14.5018 30.4982C12.8702 28.8665 12 26.5909 12 24V15C12 13.8551 12.5275 12.4082 13.4537 11.2505C14.4179 10.0452 15.9424 9 18 9C20.0576 9 21.5821 10.0452 22.5463 11.2505C23.4725 12.4082 24 13.8551 24 15V25.5C24 26.3284 23.3284 27 22.5 27C21.6716 27 21 26.3284 21 25.5V15C21 14.6449 20.7775 13.8418 20.2037 13.1245C19.6679 12.4548 18.9424 12 18 12C17.0576 12 16.3321 12.4548 15.7963 13.1245C15.2225 13.8418 15 14.6449 15 15V24C15 25.9091 15.6298 27.3835 16.6232 28.3768C17.6165 29.3702 19.0909 30 21 30C22.9091 30 24.3835 29.3702 25.3768 28.3768C26.3702 27.3835 27 25.9091 27 24V15C27 10.0294 22.9706 6 18 6Z" fill="white"/>
</svg>
