<svg width="36" height="36" viewBox="0 0 36 36" fill="none" xmlns="http://www.w3.org/2000/svg">
<path d="M4.5 10.5C4.5 9.67157 5.17157 9 6 9H30C30.8284 9 31.5 9.67157 31.5 10.5C31.5 11.3284 30.8284 12 30 12H6C5.17157 12 4.5 11.3284 4.5 10.5Z" fill="white"/>
<path d="M4.5 18C4.5 17.1716 5.17157 16.5 6 16.5H30C30.8284 16.5 31.5 17.1716 31.5 18C31.5 18.8284 30.8284 19.5 30 19.5H6C5.17157 19.5 4.5 18.8284 4.5 18Z" fill="white"/>
<path d="M4.5 25.5C4.5 24.6716 5.17157 24 6 24H30C30.8284 24 31.5 24.6716 31.5 25.5C31.5 26.3284 30.8284 27 30 27H6C5.17157 27 4.5 26.3284 4.5 25.5Z" fill="white"/>
</svg>
