<svg width="36" height="36" viewBox="0 0 36 36" fill="none" xmlns="http://www.w3.org/2000/svg">
<path fill-rule="evenodd" clip-rule="evenodd" d="M4.5 4.48907C4.5 3.66668 5.17074 3 5.99813 3H19.4813C20.3087 3 20.9795 3.66668 20.9795 4.48907V22.3579C20.9795 23.1803 20.3087 23.847 19.4813 23.847H5.99813C5.17074 23.847 4.5 23.1803 4.5 22.3579V4.48907ZM7.49627 5.97815V20.8689H17.9832V5.97815H7.49627Z" fill="white"/>
<path fill-rule="evenodd" clip-rule="evenodd" d="M24.0274 10.8011C24.2436 10.0073 25.0663 9.53796 25.865 9.75286L31.893 11.3749C32.6902 11.5894 33.1623 12.4047 32.9486 13.1976L27.9079 31.896C27.6937 32.6903 26.8723 33.1617 26.0731 32.9489L14.5988 29.893C13.7996 29.6801 13.3253 28.8636 13.5395 28.0692C13.7536 27.2749 14.5751 26.8035 15.3743 27.0163L25.4015 29.6868L29.6677 13.8614L25.082 12.6275C24.2834 12.4126 23.8112 11.5949 24.0274 10.8011Z" fill="white"/>
</svg>
