<svg width="36" height="36" viewBox="0 0 36 36" fill="none" xmlns="http://www.w3.org/2000/svg">
<path fill-rule="evenodd" clip-rule="evenodd" d="M5.74651 5.76836C6.40482 5.11021 7.47202 5.11034 8.13018 5.76865L17.937 15.6825L27.8723 5.74372C28.5303 5.0852 29.5975 5.08471 30.256 5.74265C30.9146 6.40058 30.915 7.46779 30.2571 8.12631L20.3203 18.0665L30.2326 27.8736C30.8907 28.532 30.8906 29.5992 30.2323 30.2573C29.5739 30.9155 28.5067 30.9153 27.8486 30.257L17.9377 20.4512L8.1284 30.2559C7.47046 30.9145 6.40326 30.915 5.74473 30.257C5.0862 29.5991 5.08572 28.5319 5.74365 27.8734L15.5544 18.0673L5.74621 8.15203C5.08806 7.49372 5.0882 6.42651 5.74651 5.76836Z" fill="white"/>
</svg>
