<svg width="36" height="36" viewBox="0 0 36 36" fill="none" xmlns="http://www.w3.org/2000/svg">
<path fill-rule="evenodd" clip-rule="evenodd" d="M9 13.5C9 14.0551 9.0603 14.596 9.1747 15.1167C5.66467 15.7426 3 18.8101 3 22.5C3 26.6421 6.35786 30 10.5 30H22.5C28.299 30 33 25.299 33 19.5C33 13.7027 28.3018 9.00277 22.5051 9L22.5005 9C21.1322 7.17833 18.9537 6 16.5 6C12.3579 6 9 9.35786 9 13.5ZM19.1733 9.87978C19.0658 9.80024 18.9546 9.72538 18.84 9.65549C18.1582 9.23961 17.3571 9 16.5 9C14.0147 9 12 11.0147 12 13.5V15.1293C12.9524 15.3102 13.6717 15.6753 14.1857 16.1893C14.9139 16.9176 15 17.25 15 18C15 18.8284 14.3284 19.5 13.5 19.5C12.7674 19.5 12.1574 18.9748 12.0261 18.2803C11.9838 18.2511 11.9021 18.2048 11.76 18.1574C11.5255 18.0792 11.1295 18 10.5 18C8.01497 18.0003 6 20.0149 6 22.5C6 24.9853 8.01472 27 10.5 27H22.5C26.6421 27 30 23.6421 30 19.5C30 15.8273 27.3601 12.7712 23.8744 12.1256C23.4288 12.0431 22.9694 12 22.5 12C21.8705 12 21.4745 12.0792 21.24 12.1574C21.0979 12.2048 21.0162 12.2511 20.9739 12.2803C20.8426 12.9748 20.2326 13.5 19.5 13.5C18.6716 13.5 18 12.8284 18 12C17.9838 11.5107 18.2693 10.7344 18.8143 10.1893C18.9245 10.0792 19.0441 9.9759 19.1733 9.87978Z" fill="white"/>
</svg>
