<svg width="36" height="36" viewBox="0 0 36 36" fill="none" xmlns="http://www.w3.org/2000/svg">
<path fill-rule="evenodd" clip-rule="evenodd" d="M9 30H27L27 11.7426L21.2574 6H9V30ZM9 3C7.34315 3 6 4.34315 6 6V30C6 31.6569 7.34315 33 9 33H27C28.6569 33 30 31.6569 30 30V11.7426C30 10.947 29.6839 10.1839 29.1213 9.62132L23.3787 3.87868C22.8161 3.31607 22.053 3 21.2574 3H9Z" fill="white"/>
<path fill-rule="evenodd" clip-rule="evenodd" d="M16.0607 15.4393C15.4749 14.8536 14.5251 14.8536 13.9393 15.4393C13.3536 16.0251 13.3536 16.9749 13.9393 17.5607L15.8787 19.5L13.9393 21.4393C13.3536 22.0251 13.3536 22.9749 13.9393 23.5607C14.5251 24.1464 15.4749 24.1464 16.0607 23.5607L18 21.6213L19.9393 23.5607C20.5251 24.1464 21.4749 24.1464 22.0607 23.5607C22.6464 22.9749 22.6464 22.0251 22.0607 21.4393L20.1213 19.5L22.0607 17.5607C22.6464 16.9749 22.6464 16.0251 22.0607 15.4393C21.4749 14.8536 20.5251 14.8536 19.9393 15.4393L18 17.3787L16.0607 15.4393Z" fill="white"/>
</svg>
