<svg width="36" height="36" viewBox="0 0 36 36" fill="none" xmlns="http://www.w3.org/2000/svg">
<path d="M25.5 9C25.5 10.6569 24.1569 12 22.5 12C20.8431 12 19.5 10.6569 19.5 9C19.5 7.34315 20.8431 6 22.5 6C24.1569 6 25.5 7.34315 25.5 9Z" fill="white"/>
<path d="M25.5 18C25.5 19.6569 24.1569 21 22.5 21C20.8431 21 19.5 19.6569 19.5 18C19.5 16.3431 20.8431 15 22.5 15C24.1569 15 25.5 16.3431 25.5 18Z" fill="white"/>
<path d="M25.5 27C25.5 28.6569 24.1569 30 22.5 30C20.8431 30 19.5 28.6569 19.5 27C19.5 25.3431 20.8431 24 22.5 24C24.1569 24 25.5 25.3431 25.5 27Z" fill="white"/>
<path d="M16.5 9C16.5 10.6569 15.1569 12 13.5 12C11.8431 12 10.5 10.6569 10.5 9C10.5 7.34315 11.8431 6 13.5 6C15.1569 6 16.5 7.34315 16.5 9Z" fill="white"/>
<path d="M16.5 18C16.5 19.6569 15.1569 21 13.5 21C11.8431 21 10.5 19.6569 10.5 18C10.5 16.3431 11.8431 15 13.5 15C15.1569 15 16.5 16.3431 16.5 18Z" fill="white"/>
<path d="M16.5 27C16.5 28.6569 15.1569 30 13.5 30C11.8431 30 10.5 28.6569 10.5 27C10.5 25.3431 11.8431 24 13.5 24C15.1569 24 16.5 25.3431 16.5 27Z" fill="white"/>
</svg>
