<svg width="36" height="36" viewBox="0 0 36 36" fill="none" xmlns="http://www.w3.org/2000/svg">
<path d="M24.125 7.59481C22.271 6.64288 20.205 5.99987 17.9993 5.99987C14.0338 5.99987 10.5196 8.07838 7.87699 10.2938C5.20877 12.5308 3.23454 15.0706 2.32234 16.3394C1.60479 17.3374 1.60479 18.6623 2.32234 19.6604C3.11761 20.7665 4.72006 22.8387 6.88583 24.834L9.00911 22.7108C7.06382 20.9353 5.58901 19.0554 4.82367 17.9999C5.69014 16.8049 7.46597 14.5532 9.80436 12.5928C12.229 10.5601 15.0681 8.99987 17.9993 8.99987C19.3184 8.99987 20.6188 9.31582 21.8712 9.84861L24.125 7.59481Z" fill="white"/>
<path fill-rule="evenodd" clip-rule="evenodd" d="M31.0539 4.96061C31.6401 4.37446 32.5904 4.37446 33.1766 4.96061C33.7627 5.54676 33.7627 6.49711 33.1766 7.08326L29.1031 11.1568C31.2738 13.1549 32.8799 15.2316 33.6763 16.3394C34.3939 17.3374 34.3939 18.6623 33.6763 19.6604C32.7641 20.9292 30.7899 23.469 28.1217 25.7059C25.4791 27.9214 21.9649 29.9999 17.9993 29.9999C15.7888 29.9999 13.7185 29.354 11.8612 28.3986L9.16683 31.093C8.58068 31.6791 7.63035 31.6791 7.0442 31.093C6.45805 30.5068 6.45805 29.5565 7.0442 28.9703C7.0442 28.9703 28.0429 7.97165 31.0539 4.96061ZM26.9797 13.2801L23.8004 16.4594C23.9306 16.951 24 17.4673 24 17.9999C24 21.3136 21.3137 23.9999 18 23.9999C17.4674 23.9999 16.9511 23.9305 16.4595 23.8003L14.1143 26.1455C15.3707 26.6817 16.6756 26.9999 17.9993 26.9999C20.9306 26.9999 23.7697 25.4396 26.1943 23.4069C28.5327 21.4465 30.3085 19.1948 31.175 17.9999C30.4084 16.9426 28.9299 15.0581 26.9797 13.2801Z" fill="white"/>
<path d="M19.5246 12.1953C19.0377 12.0678 18.5268 11.9999 18 11.9999C14.6863 11.9999 12 14.6862 12 17.9999C12 18.5267 12.0679 19.0376 12.1954 19.5245L19.5246 12.1953Z" fill="white"/>
</svg>
