<svg width="36" height="36" viewBox="0 0 36 36" fill="none" xmlns="http://www.w3.org/2000/svg">
<path fill-rule="evenodd" clip-rule="evenodd" d="M4.82465 18C5.69112 19.195 7.46694 21.4466 9.80533 23.4071C12.2299 25.4398 15.069 27 18.0003 27C20.9316 27 23.7707 25.4398 26.1953 23.4071C28.5337 21.4466 30.3095 19.195 31.176 18C30.3095 16.805 28.5337 14.5534 26.1953 12.5929C23.7707 10.5602 20.9316 9 18.0003 9C15.069 9 12.2299 10.5602 9.80533 12.5929C7.46694 14.5534 5.69112 16.805 4.82465 18ZM7.87796 10.294C10.5206 8.07852 14.0347 6 18.0003 6C21.9659 6 25.4801 8.07852 28.1227 10.294C30.7909 12.5309 32.7651 15.0707 33.6773 16.3395C34.3948 17.3376 34.3948 18.6624 33.6773 19.6605C32.7651 20.9293 30.7909 23.4691 28.1227 25.706C25.4801 27.9215 21.9659 30 18.0003 30C14.0347 30 10.5206 27.9215 7.87796 25.706C5.20975 23.4691 3.23552 20.9293 2.32332 19.6605C1.60577 18.6624 1.60577 17.3376 2.32332 16.3395C3.23552 15.0707 5.20975 12.5309 7.87796 10.294Z" fill="white"/>
<path fill-rule="evenodd" clip-rule="evenodd" d="M18.0003 21C19.6572 21 21.0003 19.6569 21.0003 18C21.0003 16.3431 19.6572 15 18.0003 15C16.3435 15 15.0003 16.3431 15.0003 18C15.0003 19.6569 16.3435 21 18.0003 21ZM18.0003 24C21.314 24 24.0003 21.3137 24.0003 18C24.0003 14.6863 21.314 12 18.0003 12C14.6866 12 12.0003 14.6863 12.0003 18C12.0003 21.3137 14.6866 24 18.0003 24Z" fill="white"/>
</svg>
