<svg width="36" height="36" viewBox="0 0 36 36" fill="none" xmlns="http://www.w3.org/2000/svg">
<path fill-rule="evenodd" clip-rule="evenodd" d="M7.5 9C6.67157 9 6 9.67157 6 10.5V25.5C6 26.3284 6.67157 27 7.5 27H28.5C29.3284 27 30 26.3284 30 25.5V17.25C30 16.4216 29.3284 15.75 28.5 15.75H25.6056C24.101 15.75 22.6959 14.998 21.8613 13.7462L19.1425 9.66795C18.8643 9.25065 18.396 9 17.8944 9H7.5ZM3 10.5C3 8.01472 5.01472 6 7.5 6H17.8944C19.399 6 20.8041 6.75195 21.6387 8.00385L24.3575 12.082C24.6357 12.4993 25.104 12.75 25.6056 12.75H28.5C30.9853 12.75 33 14.7647 33 17.25V25.5C33 27.9853 30.9853 30 28.5 30H7.5C5.01472 30 3 27.9853 3 25.5V10.5Z" fill="white"/>
</svg>
