<svg width="36" height="36" viewBox="0 0 36 36" fill="none" xmlns="http://www.w3.org/2000/svg">
<path fill-rule="evenodd" clip-rule="evenodd" d="M33 18C33 26.2843 26.2843 33 18 33C9.71573 33 3 26.2843 3 18C3 9.71573 9.71573 3 18 3C26.2843 3 33 9.71573 33 18ZM13.8678 29.2696C13.697 28.8725 13.5396 28.4541 13.395 28.0203C12.9688 26.7416 12.6276 25.2486 12.3893 23.6107C10.7514 23.3724 9.2584 23.0312 7.97972 22.605C7.54586 22.4604 7.12755 22.303 6.73042 22.1322C7.942 25.4355 10.5645 28.058 13.8678 29.2696ZM6.73042 13.8678C7.942 10.5645 10.5645 7.942 13.8678 6.73042C13.697 7.12755 13.5396 7.54586 13.395 7.97972C12.9688 9.2584 12.6276 10.7514 12.3893 12.3893C10.7514 12.6276 9.2584 12.9688 7.97972 13.395C7.54586 13.5396 7.12755 13.697 6.73042 13.8678ZM22.1322 6.73042C22.303 7.12755 22.4604 7.54586 22.605 7.97972C23.0312 9.2584 23.3724 10.7514 23.6107 12.3893C25.2486 12.6276 26.7416 12.9688 28.0203 13.395C28.4541 13.5396 28.8725 13.697 29.2696 13.8678C28.058 10.5645 25.4355 7.942 22.1322 6.73042ZM29.2696 22.1322C28.8725 22.303 28.4541 22.4604 28.0203 22.605C26.7416 23.0312 25.2486 23.3724 23.6107 23.6107C23.3724 25.2486 23.0312 26.7416 22.605 28.0203C22.4604 28.4541 22.303 28.8725 22.1322 29.2696C25.4355 28.058 28.058 25.4355 29.2696 22.1322ZM17.9996 6C18.2121 5.99934 18.4645 6.35111 18.5735 6.48936C18.9638 6.98462 19.3809 7.79424 19.759 8.9284C20.0611 9.83485 20.321 10.8959 20.5238 12.0756C19.7021 12.0258 18.8586 12 18 12C17.1414 12 16.2979 12.0258 15.4762 12.0756C15.679 10.8959 15.9389 9.83485 16.241 8.9284C16.6191 7.79424 17.0362 6.98462 17.4265 6.48936C17.5362 6.35016 17.7864 6.00131 17.9996 6ZM6.48936 18.5735C6.98462 18.9638 7.79424 19.3809 8.9284 19.759C9.83485 20.0611 10.8959 20.321 12.0756 20.5238C12.0258 19.7021 12 18.8586 12 18C12 17.1414 12.0258 16.2979 12.0756 15.4762C10.8959 15.679 9.83485 15.9389 8.9284 16.241C7.79424 16.6191 6.98462 17.0362 6.48936 17.4265C6.2049 17.6507 5.99971 17.8248 6 18C6.00028 18.1736 6.20349 18.3482 6.48936 18.5735ZM15 18C15 18.9989 15.0375 19.9669 15.1076 20.8924C16.0331 20.9625 17.0011 21 18 21C18.9989 21 19.9669 20.9625 20.8924 20.8924C20.9625 19.9669 21 18.9989 21 18C21 17.0011 20.9625 16.0331 20.8924 15.1076C19.9669 15.0375 18.9989 15 18 15C17.0011 15 16.0331 15.0375 15.1076 15.1076C15.0375 16.0331 15 17.0011 15 18ZM16.241 27.0716C15.9389 26.1652 15.679 25.1041 15.4762 23.9244C16.2979 23.9742 17.1414 24 18 24C18.8586 24 19.7021 23.9742 20.5238 23.9244C20.321 25.1041 20.0611 26.1652 19.759 27.0716C19.3809 28.2058 18.9638 29.0154 18.5735 29.5106C18.2945 29.8646 18.1202 29.9912 18 29.991C17.8818 29.9909 17.7061 29.8654 17.4265 29.5106C17.0362 29.0154 16.6191 28.2058 16.241 27.0716ZM27.0716 19.759C26.1652 20.0611 25.1041 20.321 23.9244 20.5238C23.9742 19.7021 24 18.8586 24 18C24 17.1414 23.9742 16.2979 23.9244 15.4762C25.1041 15.679 26.1652 15.9389 27.0716 16.241C28.2058 16.6191 29.0154 17.0362 29.5106 17.4265C29.8699 17.7097 30 17.8125 30 18C30 18.1875 29.6198 18.4875 29.5106 18.5735C29.0154 18.9638 28.2058 19.3809 27.0716 19.759Z" fill="white"/>
</svg>
