<svg width="36" height="36" viewBox="0 0 36 36" fill="none" xmlns="http://www.w3.org/2000/svg">
<path fill-rule="evenodd" clip-rule="evenodd" d="M18.0213 4.50015C18.4539 4.50628 18.8627 4.69889 19.1429 5.02853L31.8929 20.0285C32.2716 20.474 32.3569 21.0989 32.1115 21.6296C31.8661 22.1603 31.3347 22.5 30.75 22.5H28.5V31.5C28.5 32.3284 27.8285 33 27 33H19.5V25.5H16.5V33H9.00003C8.1716 33 7.50003 32.3284 7.50003 31.5V22.5H4.50003C3.90766 22.5 3.37078 22.1514 3.12978 21.6103C2.88878 21.0691 2.98881 20.4369 3.38509 19.9966L16.8851 4.99655C17.1745 4.67498 17.5887 4.49402 18.0213 4.50015ZM7.86807 19.5H10.5V30H13.5V22.5H22.5V30H25.5V19.5H27.5064L17.9678 8.27812L7.86807 19.5Z" fill="white"/>
</svg>
