<svg width="36" height="36" viewBox="0 0 36 36" fill="none" xmlns="http://www.w3.org/2000/svg">
<path fill-rule="evenodd" clip-rule="evenodd" d="M18 6C13.8579 6 10.5 9.35786 10.5 13.5C10.5 17.6819 12.9175 23.801 18 29.333C23.0825 23.801 25.5 17.6819 25.5 13.5C25.5 9.35786 22.1421 6 18 6ZM7.5 13.5C7.5 7.70101 12.201 3 18 3C23.799 3 28.5 7.70101 28.5 13.5C28.5 18.9783 25.2533 26.368 19.0607 32.5607C18.4749 33.1464 17.5251 33.1464 16.9393 32.5607C10.7467 26.368 7.5 18.9783 7.5 13.5Z" fill="white"/>
<path fill-rule="evenodd" clip-rule="evenodd" d="M18 15C18.8284 15 19.5 14.3284 19.5 13.5C19.5 12.6716 18.8284 12 18 12C17.1716 12 16.5 12.6716 16.5 13.5C16.5 14.3284 17.1716 15 18 15ZM18 18C20.4853 18 22.5 15.9853 22.5 13.5C22.5 11.0147 20.4853 9 18 9C15.5147 9 13.5 11.0147 13.5 13.5C13.5 15.9853 15.5147 18 18 18Z" fill="white"/>
</svg>
