<svg width="36" height="36" viewBox="0 0 36 36" fill="none" xmlns="http://www.w3.org/2000/svg">
<path fill-rule="evenodd" clip-rule="evenodd" d="M7.5 6C5.01472 6 3 8.01472 3 10.5V25.5C3 27.9853 5.01472 30 7.5 30H28.5C30.9853 30 33 27.9853 33 25.5V10.5C33 8.01472 30.9853 6 28.5 6H7.5ZM7.23827 9.02276C7.32326 9.0078 7.41072 9 7.5 9H28.5C28.5893 9 28.6768 9.0078 28.7618 9.02276L18 16.1973L7.23827 9.02276ZM6 11.8028V25.5C6 26.3284 6.67157 27 7.5 27H28.5C29.3284 27 30 26.3284 30 25.5V11.8028L18.8321 19.2481C18.3282 19.584 17.6718 19.584 17.168 19.2481L6 11.8028Z" fill="white"/>
</svg>
