<svg width="36" height="36" viewBox="0 0 36 36" fill="none" xmlns="http://www.w3.org/2000/svg">
<path d="M21 9C21 10.6569 19.6569 12 18 12C16.3431 12 15 10.6569 15 9C15 7.34315 16.3431 6 18 6C19.6569 6 21 7.34315 21 9Z" fill="white"/>
<path d="M21 18C21 19.6569 19.6569 21 18 21C16.3431 21 15 19.6569 15 18C15 16.3431 16.3431 15 18 15C19.6569 15 21 16.3431 21 18Z" fill="white"/>
<path d="M21 27C21 28.6569 19.6569 30 18 30C16.3431 30 15 28.6569 15 27C15 25.3431 16.3431 24 18 24C19.6569 24 21 25.3431 21 27Z" fill="white"/>
</svg>
