<svg width="36" height="36" viewBox="0 0 36 36" fill="none" xmlns="http://www.w3.org/2000/svg">
<path fill-rule="evenodd" clip-rule="evenodd" d="M6.72685 6.4349C6.2976 6.86461 5.90402 7.39172 5.64955 7.85071C5.32992 8.4117 5.09397 9.02687 4.95171 9.66647L4.87768 10.0529C3.71105 15.9719 5.19267 21.2668 10.0837 26.1229C13.2928 29.3092 15.7262 30.6185 19.0581 31.0965C19.5981 31.174 20.162 31.2321 20.8331 31.2818L22.2127 31.3657C22.9826 31.4055 24.2655 31.4694 24.7035 31.4943C25.2802 31.5272 26.0433 31.4168 27.0689 31.1766L27.2242 31.1311C28.1195 30.8148 28.9369 30.3018 29.6214 29.6165C32.1262 27.109 32.1262 23.0435 29.6214 20.536L29.3982 20.3229C26.9769 18.118 23.2742 18.0979 20.8302 20.2732L20.5405 20.5355L18.9919 22.0857C18.6526 22.4254 18.1183 22.4715 17.7259 22.1948C16.9097 21.6191 14.7411 19.4967 14.2118 18.7733C13.924 18.3801 13.9658 17.8355 14.3102 17.4908L15.6745 16.1258L15.7912 16.0309L15.9645 15.8703C15.9957 15.8402 16.0275 15.809 16.0591 15.7774C18.6361 13.1975 18.6361 9.01476 16.0591 6.4349C13.4821 3.85503 9.30388 3.85503 6.72685 6.4349ZM8.82007 8.53041C10.241 7.10787 12.5449 7.10787 13.9659 8.53041C15.3869 9.95295 15.3869 12.2593 13.9659 13.6819C13.878 13.7699 13.7864 13.8528 13.6914 13.9306L12.2175 15.3948C10.8398 16.7734 10.6727 18.9518 11.8238 20.5247C12.5442 21.5091 14.9439 23.8578 16.021 24.6175L16.2289 24.7545C17.7748 25.706 19.7867 25.4811 21.0851 24.1813L22.5168 22.7476L22.5364 22.7377L22.6743 22.6027C24.0253 21.2804 26.1903 21.2921 27.5282 22.6315C28.8769 23.9817 28.8769 26.1708 27.5282 27.521L27.2981 27.7319C27.0602 27.9311 26.7998 28.0952 26.5222 28.2221L26.2982 28.3122L25.9177 28.396L25.5158 28.4713C25.2135 28.5219 24.9944 28.5426 24.8717 28.5356L21.866 28.3795L21.0696 28.3277L20.3789 28.2696C20.0552 28.2383 19.7602 28.2034 19.478 28.163C16.8106 27.7803 14.9465 26.7773 12.1682 24.0188C8.13127 20.0106 6.87999 15.8645 7.70484 11.044L7.79112 10.5754C7.86932 10.0954 8.01414 9.68184 8.22948 9.30377C8.3606 9.06749 8.58861 8.76212 8.82007 8.53041Z" fill="white"/>
</svg>
