<svg width="36" height="36" viewBox="0 0 36 36" fill="none" xmlns="http://www.w3.org/2000/svg">
<path fill-rule="evenodd" clip-rule="evenodd" d="M31.7595 24.2008C33.0022 22.0485 32.2647 19.2964 30.1124 18.0537L30.0192 17.9999L30.1123 17.9462C32.2647 16.7035 33.0021 13.9514 31.7594 11.799L30.2594 9.20096C29.0168 7.04865 26.2647 6.31121 24.1123 7.55385L24.0191 7.6077V7.5C24.0191 5.01472 22.0044 3 19.5191 3L16.5191 3C14.0338 3 12.0191 5.01472 12.0191 7.5L12.0191 7.60753L11.9259 7.55373C9.77357 6.31109 7.02141 7.04853 5.77877 9.20084L4.27877 11.7989C3.03613 13.9512 3.77357 16.7034 5.92589 17.946L6.01921 17.9999L5.9258 18.0538C3.77348 19.2965 3.03605 22.0486 4.27868 24.201L5.77868 26.799C7.02133 28.9514 9.77348 29.6888 11.9258 28.4462L12.0191 28.3923V28.5C12.0191 30.9853 14.0338 33 16.5191 33H19.5191C22.0043 33 24.0191 30.9853 24.0191 28.5V28.3921L24.1124 28.446C26.2647 29.6887 29.0169 28.9512 30.2595 26.7989L31.7595 24.2008ZM25.5191 10.2058C23.5191 11.3605 21.0191 9.9171 21.0191 7.60769V7.5C21.0191 6.67157 20.3475 6 19.5191 6L16.5191 6C15.6907 6 15.0191 6.67152 15.0191 7.4999L15.0191 7.60753C15.0191 9.91686 12.5192 11.3602 10.5192 10.2057L10.4259 10.1518C9.70845 9.73759 8.79106 9.9834 8.37685 10.7008L6.87685 13.2989C6.46263 14.0164 6.70845 14.9337 7.42589 15.348L7.51908 15.4018C9.51921 16.5564 9.51928 19.4433 7.5192 20.598L7.4258 20.6519C6.70836 21.0661 6.46255 21.9835 6.87676 22.701L8.37676 25.299C8.79098 26.0165 9.70836 26.2623 10.4258 25.8481L10.5191 25.7942C12.5191 24.6395 15.0191 26.0829 15.0191 28.3923V28.5C15.0191 29.3284 15.6906 30 16.5191 30H19.5191C20.3475 30 21.0191 29.3284 21.0191 28.5V28.3921C21.0191 26.0827 23.5192 24.6393 25.5192 25.7941L25.6124 25.848C26.3299 26.2622 27.2472 26.0164 27.6615 25.2989L29.1615 22.7008C29.5757 21.9834 29.3299 21.066 28.6124 20.6518L28.5191 20.5979C26.5192 19.4432 26.5193 16.5565 28.5192 15.4019L28.6124 15.3481C29.3298 14.9338 29.5756 14.0165 29.1614 13.299L27.6614 10.701C27.2472 9.98352 26.3298 9.73771 25.6123 10.1519L25.5191 10.2058Z" fill="white"/>
<path fill-rule="evenodd" clip-rule="evenodd" d="M18.0188 20.9999C19.6757 20.9999 21.0188 19.6568 21.0188 17.9999C21.0188 16.3431 19.6757 14.9999 18.0188 14.9999C16.3619 14.9999 15.0188 16.3431 15.0188 17.9999C15.0188 19.6568 16.3619 20.9999 18.0188 20.9999ZM18.0188 23.9999C21.3325 23.9999 24.0188 21.3136 24.0188 17.9999C24.0188 14.6862 21.3325 11.9999 18.0188 11.9999C14.7051 11.9999 12.0188 14.6862 12.0188 17.9999C12.0188 21.3136 14.7051 23.9999 18.0188 23.9999Z" fill="white"/>
</svg>
