<svg width="36" height="36" viewBox="0 0 36 36" fill="none" xmlns="http://www.w3.org/2000/svg">
<path fill-rule="evenodd" clip-rule="evenodd" d="M9 30H27L27 11.7426L21.2574 6H9V30ZM9 3C7.34315 3 6 4.34315 6 6V30C6 31.6569 7.34315 33 9 33H27C28.6569 33 30 31.6569 30 30V11.7426C30 10.947 29.6839 10.1839 29.1213 9.62132L23.3787 3.87868C22.8161 3.31607 22.053 3 21.2574 3H9Z" fill="white"/>
<path d="M12 25.5C12 24.6716 12.6716 24 13.5 24H22.5C23.3284 24 24 24.6716 24 25.5C24 26.3284 23.3284 27 22.5 27H13.5C12.6716 27 12 26.3284 12 25.5Z" fill="white"/>
<path d="M12 19.5C12 18.6716 12.6716 18 13.5 18H19.5C20.3284 18 21 18.6716 21 19.5C21 20.3284 20.3284 21 19.5 21H13.5C12.6716 21 12 20.3284 12 19.5Z" fill="white"/>
<path d="M12 13.5C12 12.6716 12.6716 12 13.5 12H16.5C17.3284 12 18 12.6716 18 13.5C18 14.3284 17.3284 15 16.5 15H13.5C12.6716 15 12 14.3284 12 13.5Z" fill="white"/>
</svg>
