<svg width="36" height="36" viewBox="0 0 36 36" fill="none" xmlns="http://www.w3.org/2000/svg">
<path fill-rule="evenodd" clip-rule="evenodd" d="M18 6C19.6569 6 21 7.34315 21 9C21 9.82843 21.6716 10.5 22.5 10.5C23.3284 10.5 24 9.82843 24 9C24 5.68629 21.3137 3 18 3C14.6863 3 12 5.68629 12 9V13.5H9C7.34315 13.5 6 14.8431 6 16.5V30C6 31.6569 7.34315 33 9 33H27C28.6569 33 30 31.6569 30 30V16.5C30 14.8431 28.6569 13.5 27 13.5H15V9C15 7.34315 16.3431 6 18 6ZM9 16.5H27V30H9V16.5Z" fill="white"/>
</svg>
