<svg width="36" height="36" viewBox="0 0 36 36" fill="none" xmlns="http://www.w3.org/2000/svg">
<path fill-rule="evenodd" clip-rule="evenodd" d="M3 10.5C3 8.01472 5.01472 6 7.5 6H28.5C30.9853 6 33 8.01472 33 10.5V17.75C33 18.3023 32.5524 18.75 32.0001 18.75C31.6734 18.75 31.3266 18.75 30.9999 18.75C30.4476 18.75 30 18.3023 30 17.75V11.8028L18.8321 19.2481C18.3282 19.584 17.6718 19.584 17.168 19.2481L6 11.8028V25.5C6 26.3284 6.67157 27 7.5 27H18.7561C19.3083 27 19.7561 27.4478 19.7561 28C19.7561 28.3361 19.7561 28.6661 19.7561 29C19.7561 29.5523 19.3083 30 18.7561 30H7.5C5.01472 30 3 27.9853 3 25.5V10.5ZM7.5 9C7.41072 9 7.32326 9.0078 7.23827 9.02276L18 16.1973L28.7618 9.02276C28.6768 9.0078 28.5893 9 28.5 9H7.5Z" fill="white"/>
<path d="M34.5 27C34.5 30.3137 31.8137 33 28.5 33C25.1863 33 22.5 30.3137 22.5 27C22.5 23.6863 25.1863 21 28.5 21C31.8137 21 34.5 23.6863 34.5 27Z" fill="#FA5050"/>
</svg>
