<svg width="36" height="36" viewBox="0 0 36 36" fill="none" xmlns="http://www.w3.org/2000/svg">
<path fill-rule="evenodd" clip-rule="evenodd" d="M15 3C13.3431 3 12 4.34315 12 6V31.5H20.704C19.9383 30.1762 19.5 28.6393 19.5 27C19.5 23.6687 21.3099 20.7602 24 19.204V6C24 4.34315 22.6569 3 21 3H15ZM21 9H15V6H21V9Z" fill="white"/>
<path d="M33 13.5V19.204C31.6762 18.4383 30.1393 18 28.5 18C27.9889 18 27.4878 18.0426 27 18.1244V9H28.5C30.9853 9 33 11.0147 33 13.5Z" fill="white"/>
<path d="M9 9V31.5H7.5C7.34467 31.5 7.19118 31.4921 7.0399 31.4768C4.77075 31.2463 3 29.3299 3 27V13.5C3 11.0147 5.01472 9 7.5 9H9Z" fill="white"/>
<path d="M27 22.5C27 21.6716 27.6716 21 28.5 21C29.3284 21 30 21.6716 30 22.5V25.5H33C33.8284 25.5 34.5 26.1716 34.5 27C34.5 27.8284 33.8284 28.5 33 28.5H30V31.5C30 32.3284 29.3284 33 28.5 33C27.6716 33 27 32.3284 27 31.5V28.5H24C23.1716 28.5 22.5 27.8284 22.5 27C22.5 26.1716 23.1716 25.5 24 25.5H27V22.5Z" fill="white"/>
</svg>
