<svg width="36" height="36" viewBox="0 0 36 36" fill="none" xmlns="http://www.w3.org/2000/svg">
<path fill-rule="evenodd" clip-rule="evenodd" d="M12 6C12 4.34315 13.3431 3 15 3H21C22.6569 3 24 4.34315 24 6V31.5H12V6ZM15 9H21V6H15V9Z" fill="white"/>
<path d="M27 31.5H28.5C30.9853 31.5 33 29.4853 33 27V13.5C33 11.0147 30.9853 9 28.5 9H27V31.5Z" fill="white"/>
<path d="M9 9V31.5H7.5C7.34467 31.5 7.19118 31.4921 7.0399 31.4768C4.77075 31.2463 3 29.3299 3 27V13.5C3 11.0147 5.01472 9 7.5 9H9Z" fill="white"/>
</svg>
