<svg width="36" height="36" viewBox="0 0 36 36" fill="none" xmlns="http://www.w3.org/2000/svg">
<path fill-rule="evenodd" clip-rule="evenodd" d="M32.5682 9.67997H24.9385V31.167H32.5682C33.8108 31.167 34.8182 30.1597 34.8182 28.917V11.93C34.8182 10.6873 33.8108 9.67997 32.5682 9.67997ZM27.9658 15.1614C27.9658 14.8508 28.2176 14.5989 28.5283 14.5989H31.2283C31.5389 14.5989 31.7908 14.8508 31.7908 15.1614V17.8614C31.7908 18.1721 31.5389 18.4239 31.2283 18.4239H28.5283C28.2176 18.4239 27.9658 18.1721 27.9658 17.8614V15.1614ZM27.9658 23.0364C27.9658 22.7258 28.2176 22.4739 28.5283 22.4739H31.2283C31.5389 22.4739 31.7908 22.7258 31.7908 23.0364V25.7364C31.7908 26.0471 31.5389 26.2989 31.2283 26.2989H28.5283C28.2176 26.2989 27.9658 26.0471 27.9658 25.7364V23.0364Z" fill="white"/>
<path fill-rule="evenodd" clip-rule="evenodd" d="M4.2334 1.85596C2.99076 1.85596 1.9834 2.86331 1.9834 4.10596V28.917C1.9834 30.1596 2.99076 31.167 4.2334 31.167H19.4812C20.7238 31.167 21.7312 30.1596 21.7312 28.917V4.10596C21.7312 2.86332 20.7238 1.85596 19.4812 1.85596H4.2334ZM13.6012 7.28646C13.6012 6.9758 13.853 6.72396 14.1637 6.72396H16.8637C17.1743 6.72396 17.4262 6.9758 17.4262 7.28646V9.98646C17.4262 10.2971 17.1743 10.549 16.8637 10.549H14.1637C13.853 10.549 13.6012 10.2971 13.6012 9.98646V7.28646ZM6.28839 7.28647C6.28839 6.97581 6.54023 6.72397 6.85089 6.72397H9.55089C9.86155 6.72397 10.1134 6.97581 10.1134 7.28647V9.98647C10.1134 10.2971 9.86155 10.549 9.55089 10.549H6.85089C6.54023 10.549 6.28839 10.2971 6.28839 9.98647V7.28647ZM6.85117 14.599C6.54051 14.599 6.28867 14.8508 6.28867 15.1615V17.8615C6.28867 18.1721 6.54051 18.424 6.85117 18.424H9.55117C9.86183 18.424 10.1137 18.1721 10.1137 17.8615V15.1615C10.1137 14.8508 9.86183 14.599 9.55117 14.599H6.85117ZM6.28867 23.0364C6.28867 22.7258 6.54051 22.4739 6.85117 22.4739H9.55117C9.86183 22.4739 10.1137 22.7258 10.1137 23.0364V25.7364C10.1137 26.0471 9.86183 26.2989 9.55117 26.2989H6.85117C6.54051 26.2989 6.28867 26.0471 6.28867 25.7364V23.0364ZM14.1637 14.599C13.853 14.599 13.6012 14.8508 13.6012 15.1615V17.8615C13.6012 18.1721 13.853 18.424 14.1637 18.424H16.8637C17.1743 18.424 17.4262 18.1721 17.4262 17.8615V15.1615C17.4262 14.8508 17.1743 14.599 16.8637 14.599H14.1637ZM13.6012 23.0364C13.6012 22.7258 13.853 22.4739 14.1637 22.4739H16.8637C17.1743 22.4739 17.4262 22.7258 17.4262 23.0364V25.7364C17.4262 26.0471 17.1743 26.2989 16.8637 26.2989H14.1637C13.853 26.2989 13.6012 26.0471 13.6012 25.7364V23.0364Z" fill="white"/>
</svg>
