<svg width="36" height="36" viewBox="0 0 36 36" fill="none" xmlns="http://www.w3.org/2000/svg">
<path d="M9 13.5C11.7415 13.5 14.0535 11.6614 14.7703 9.14999H24.0002C25.7011 9.14999 26.8198 9.68336 27.5015 10.3341C28.1937 10.9949 28.5377 11.8703 28.5376 12.75C28.5376 13.6297 28.1937 14.5051 27.5014 15.1658C26.8196 15.8166 25.7009 16.35 24.0001 16.35H12.0001C9.57601 16.35 7.601 17.1291 6.2203 18.4471C4.85002 19.7551 4.16274 21.5047 4.16272 23.25C4.1627 24.9953 4.84996 26.7449 6.22024 28.0529C7.60094 29.3709 9.57596 30.15 12.0001 30.15H21.2297C21.9465 32.6614 24.2585 34.5 27 34.5C30.3137 34.5 33 31.8137 33 28.5C33 25.1863 30.3137 22.5 27 22.5C24.2585 22.5 21.9465 24.3386 21.2297 26.85H12.0001C10.2993 26.85 9.18059 26.3166 8.49884 25.6658C7.80666 25.0051 7.46271 24.1297 7.46272 23.25C7.46273 22.3703 7.8067 21.4949 8.49889 20.8341C9.18067 20.1833 10.2993 19.65 12.0001 19.65H24.0001C26.4242 19.65 28.3993 18.8709 29.78 17.5529C31.1503 16.2449 31.8376 14.4953 31.8376 12.75C31.8377 11.0047 31.1504 9.25511 29.7801 7.94709C28.3994 6.62912 26.4244 5.84999 24.0002 5.84999H14.7703C14.0535 3.3386 11.7415 1.5 9 1.5C5.68629 1.5 3 4.18629 3 7.5C3 10.8137 5.68629 13.5 9 13.5Z" fill="white"/>
</svg>
