<svg width="37" height="36" viewBox="0 0 37 36" fill="none" xmlns="http://www.w3.org/2000/svg">
<path fill-rule="evenodd" clip-rule="evenodd" d="M15.4833 33H26.2085C28.5262 33 30.3335 31.0795 30.3335 28.8L30.3335 7.2C30.3335 4.92052 28.5262 3 26.2085 3H10.4585C8.14077 3 6.3335 4.92052 6.3335 7.2V23.6316C6.3335 24.7321 6.75812 25.7957 7.52685 26.5864L12.5517 31.7548C13.3218 32.5469 14.3754 33 15.4833 33ZM9.3335 22.5H16.8335L16.8335 30H15.4833C15.1988 30 14.9171 29.8841 14.7026 29.6636L9.67783 24.4952C9.46199 24.2732 9.3335 23.9633 9.3335 23.6316L9.3335 22.5ZM12.1151 10.9521C12.7273 10.6128 13.4109 10.4451 14.1606 10.4451C14.6685 10.4451 15.1427 10.516 15.5814 10.6602C16.0199 10.8017 16.4091 11.0109 16.7464 11.2889C17.0849 11.5652 17.3591 11.9045 17.5689 12.3042C17.7058 12.5649 17.8081 12.8482 17.8766 13.153C17.9712 13.573 17.6276 13.9171 17.2387 13.9171H16.1663C15.8178 13.9171 15.567 13.6574 15.468 13.3853C15.4505 13.3373 15.4308 13.2913 15.4087 13.2473C15.3405 13.1109 15.2513 12.9961 15.141 12.901C15.0319 12.807 14.9002 12.7332 14.7424 12.6814L14.7387 12.6801C14.5851 12.6267 14.4101 12.5984 14.2116 12.5984C13.8599 12.5984 13.5689 12.6839 13.3285 12.8461C13.0898 13.0089 12.8994 13.2477 12.7617 13.5746C12.6268 13.9013 12.5552 14.3071 12.5552 14.7989C12.5552 15.3124 12.6284 15.7278 12.765 16.053C12.905 16.3774 13.0947 16.6102 13.329 16.7651C13.5675 16.9185 13.8547 16.9994 14.1998 16.9994C14.3955 16.9994 14.5684 16.9741 14.7188 16.927C14.8731 16.8794 15.0038 16.8116 15.1136 16.7256C15.2267 16.6364 15.3194 16.5282 15.3915 16.4016C15.416 16.3591 15.4381 16.3147 15.4579 16.2682C15.5667 16.0121 15.814 15.7673 16.1524 15.7693L17.2442 15.7759C17.6269 15.7782 17.9798 16.1221 17.862 16.5471C17.805 16.7528 17.7262 16.9558 17.6261 17.1558C17.4435 17.5262 17.1922 17.863 16.8762 18.1649C16.5543 18.4697 16.1648 18.7093 15.7118 18.886C15.254 19.0656 14.7356 19.1528 14.1606 19.1528C13.3985 19.1528 12.7072 18.9847 12.0944 18.6451C11.4814 18.3012 10.999 17.8008 10.6475 17.1509C10.2931 16.4957 10.1216 15.7085 10.1216 14.7989C10.1216 13.8863 10.2959 13.0973 10.6561 12.4417C11.0129 11.7921 11.4994 11.2932 12.1151 10.9521ZM18.8172 11.4459C18.6694 11.0084 18.9948 10.555 19.4567 10.555H20.6728C20.9696 10.555 21.2316 10.7488 21.3183 11.0327L22.8382 16.0064L24.358 11.0327C24.4448 10.7489 24.7068 10.555 25.0036 10.555H26.2197C26.6815 10.555 27.0069 11.0084 26.8592 11.4459L24.4489 18.5838C24.3563 18.8582 24.099 19.0429 23.8094 19.0429H21.8669C21.5774 19.0429 21.3201 18.8582 21.2274 18.5838L18.8172 11.4459Z" fill="white"/>
</svg>
