<svg width="36" height="36" viewBox="0 0 36 36" fill="none" xmlns="http://www.w3.org/2000/svg">
<path fill-rule="evenodd" clip-rule="evenodd" d="M13.1466 3.00209C14.0223 3.06167 14.7503 3.69897 14.9251 4.5591L18.8216 23.7247L23.0289 11.7122C23.2944 10.9542 23.9975 10.4365 24.8001 10.408C25.6028 10.3795 26.3408 10.8461 26.6593 11.5834L29.373 17.8636H34.0495C35.1265 17.8636 35.9995 18.7367 35.9995 19.8136C35.9995 20.8906 35.1265 21.7636 34.0495 21.7636H28.0913C27.3133 21.7636 26.6098 21.3012 26.3013 20.5871L25.0594 17.7131L20.1617 31.6967C19.8717 32.5249 19.0641 33.0573 18.1885 32.9975C17.313 32.9378 16.5853 32.3005 16.4105 31.4406L12.5153 12.2813L9.65603 20.4573C9.38243 21.2397 8.64417 21.7636 7.81534 21.7636L1.95122 21.7636C0.874264 21.7636 0.00122017 20.8906 0.0012207 19.8136C0.00122124 18.7367 0.874267 17.8636 1.95122 17.8636L6.43148 17.8636L11.1735 4.30388C11.4633 3.47535 12.2709 2.94252 13.1466 3.00209Z" fill="white"/>
</svg>
