<svg width="37" height="36" viewBox="0 0 37 36" fill="none" xmlns="http://www.w3.org/2000/svg">
<path fill-rule="evenodd" clip-rule="evenodd" d="M18.2743 3C12.9205 3 7.4585 7.25892 7.4585 13.5549C7.4585 17.4112 9.86603 20.1907 11.6904 21.7553C12.8146 22.7195 13.6728 24.1364 13.6728 25.0595L13.6757 26.1836C13.6766 26.5594 13.9806 26.8636 14.3553 26.8636H22.3116C22.6862 26.8636 22.9903 26.5595 22.9912 26.1836L22.9942 25.0596C22.9942 24.1364 23.9316 22.7171 25.0561 21.7404C26.8608 20.1729 29.2085 17.4062 29.2085 13.5549C29.2085 6.94723 23.5695 3 18.2743 3ZM14.0895 29.1818C13.8645 29.1818 13.6821 29.3645 13.6817 29.5902L13.6805 30.2632C13.6773 31.7733 14.8961 33 16.4015 33H20.2655C21.7709 33 22.9897 31.7733 22.9864 30.2631L22.9851 29.5901C22.9847 29.3645 22.8022 29.1818 22.5773 29.1818H14.0895ZM19.8293 12.5453C19.8293 11.7169 19.1599 11.0453 18.334 11.0453C17.5082 11.0453 16.8387 11.7169 16.8387 12.5453V17.9999C16.8387 18.8283 17.5082 19.4999 18.334 19.4999C19.1599 19.4999 19.8293 18.8283 19.8293 17.9999V12.5453Z" fill="white"/>
</svg>
