<svg width="37" height="36" viewBox="0 0 37 36" fill="none" xmlns="http://www.w3.org/2000/svg">
<path d="M13.3589 6.22395C13.3589 15.4391 20.8944 22.9746 30.1095 22.9746C30.5334 22.9746 30.9608 22.9612 31.3874 22.9301C31.6909 22.908 32.0018 23.044 32.1875 23.2469C32.3561 23.4311 32.3553 23.574 32.2976 23.6957C29.9527 28.6419 24.9008 32 19.0841 32C10.9736 32 4.3335 25.3599 4.3335 17.2494C4.3335 11.4327 7.69157 6.38082 12.6378 4.03593C12.7595 3.97822 12.9024 3.97736 13.0866 4.14602C13.2895 4.3317 13.4255 4.64262 13.4034 4.94606C13.3723 5.37271 13.3589 5.80013 13.3589 6.22395Z" fill="white" stroke="white" stroke-width="2" stroke-miterlimit="10" stroke-linecap="square"/>
</svg>
