<svg width="37" height="36" viewBox="0 0 37 36" fill="none" xmlns="http://www.w3.org/2000/svg">
<path d="M8.7002 16.6128C12.4281 16.6128 15.4502 13.5907 15.4502 9.86279C15.4502 6.13487 12.4281 3.11279 8.7002 3.11279C4.97227 3.11279 1.9502 6.13487 1.9502 9.86279C1.9502 13.5907 4.97227 16.6128 8.7002 16.6128Z" fill="white"/>
<path d="M32.2707 12.1128C33.5133 12.1128 34.5207 11.1054 34.5207 9.86279C34.5207 8.62015 33.5133 7.61279 32.2707 7.61279C31.028 7.61279 30.0207 8.62015 30.0207 9.86279C30.0207 11.1054 31.028 12.1128 32.2707 12.1128Z" fill="white"/>
<path d="M22.7353 14.3629C25.2206 14.3629 27.2353 12.3482 27.2353 9.86293C27.2353 7.37765 25.2206 5.36293 22.7353 5.36293C20.25 5.36293 18.2353 7.37765 18.2353 9.86293C18.2353 12.3482 20.25 14.3629 22.7353 14.3629Z" fill="white"/>
<path d="M8.7002 32.8867C12.4281 32.8867 15.4502 29.8646 15.4502 26.1367C15.4502 22.4088 12.4281 19.3867 8.7002 19.3867C4.97227 19.3867 1.9502 22.4088 1.9502 26.1367C1.9502 29.8646 4.97227 32.8867 8.7002 32.8867Z" fill="white"/>
<path d="M32.2707 28.3867C33.5133 28.3867 34.5207 27.3793 34.5207 26.1367C34.5207 24.8941 33.5133 23.8867 32.2707 23.8867C31.028 23.8867 30.0207 24.8941 30.0207 26.1367C30.0207 27.3793 31.028 28.3867 32.2707 28.3867Z" fill="white"/>
<path d="M22.7353 30.6367C25.2206 30.6367 27.2353 28.622 27.2353 26.1367C27.2353 23.6514 25.2206 21.6367 22.7353 21.6367C20.25 21.6367 18.2353 23.6514 18.2353 26.1367C18.2353 28.622 20.25 30.6367 22.7353 30.6367Z" fill="white"/>
</svg>
