<svg width="37" height="36" viewBox="0 0 37 36" fill="none" xmlns="http://www.w3.org/2000/svg">
<path d="M20.6517 4.56493V1.98509C20.6517 0.888756 19.763 0 18.6666 0C17.5703 0 16.6815 0.888758 16.6815 1.98509V4.56493C16.6815 5.66126 17.5703 6.55002 18.6666 6.55002C19.763 6.55002 20.6517 5.66126 20.6517 4.56493Z" fill="white"/>
<path d="M27.6322 9.72214L29.9856 7.36872C30.7608 6.5935 30.7608 5.33662 29.9856 4.5614C29.2104 3.78618 27.9535 3.78618 27.1783 4.5614L24.8248 6.91483C24.0496 7.69004 24.0496 8.94692 24.8248 9.72214C25.6001 10.4974 26.8569 10.4974 27.6322 9.72214Z" fill="white"/>
<path d="M30.0387 13.8956H32.5623C33.6587 13.8956 34.5474 14.7844 34.5474 15.8807C34.5474 16.9771 33.6587 17.8658 32.5623 17.8658H30.0387C28.9424 17.8658 28.0536 16.9771 28.0536 15.8807C28.0536 14.7844 28.9424 13.8956 30.0387 13.8956Z" fill="white"/>
<path d="M6.3829 10.675C5.85113 10.147 4.95938 10.276 4.6278 10.948C3.48251 13.2694 2.78589 15.4389 2.78589 17.8658C2.78589 21.6375 4.17545 25.0121 6.95458 27.5927C9.73371 30.1734 12.9099 31.7615 16.6815 31.7615C19.0746 31.7615 21.7206 30.9359 23.7841 29.8344C24.4122 29.4991 24.495 28.6602 23.9898 28.1585L6.3829 10.675Z" fill="white"/>
<path d="M29.8282 24.4719L27.9472 26.3524C27.4199 26.8795 26.5652 26.8794 26.038 26.3521L8.2985 8.60754C7.77137 8.08026 7.77149 7.22549 8.29876 6.69837L10.1797 4.81792C10.707 4.2908 11.5618 4.29092 12.0889 4.81819L29.8284 22.5628C30.3556 23.09 30.3555 23.9448 29.8282 24.4719Z" fill="white"/>
</svg>
