<svg width="37" height="36" viewBox="0 0 37 36" fill="none" xmlns="http://www.w3.org/2000/svg">
<path fill-rule="evenodd" clip-rule="evenodd" d="M4.4603 11.0764L11.6932 3.80406C12.205 3.28938 12.901 3 13.6269 3H23.9325C24.6719 3 25.3796 3.30023 25.8935 3.83189L32.9005 11.0815C33.392 11.5901 33.6667 12.2696 33.6667 12.9769V23.0387C33.6667 23.7469 33.3913 24.4273 32.8986 24.936L25.8932 32.17C25.3795 32.7005 24.6725 33 23.934 33H13.6355C12.9045 33 12.2041 32.7066 11.6915 32.1855L4.44996 24.8255C3.94804 24.3154 3.66675 23.6284 3.66675 22.9127V12.9996C3.66675 12.2789 3.95205 11.5875 4.4603 11.0764Z" fill="white"/>
</svg>
