<svg width="37" height="36" viewBox="0 0 37 36" fill="none" xmlns="http://www.w3.org/2000/svg">
<path d="M22.5584 10.9804C22.1443 11.3813 21.645 11.8632 21.1603 12.3282L19.5032 13.8955C19.4533 13.941 19.3927 13.9988 19.322 14.0664C18.8219 14.5438 17.8141 15.5062 16.4885 16.0177C15.7117 16.3174 14.807 16.4739 13.8089 16.3045C12.4931 16.3045 11.1962 15.2641 10.7123 14.744C10.5553 14.61 10.4605 14.4172 10.4502 14.211C10.4399 14.0049 10.515 13.8036 10.6578 13.6546C11.9551 12.3011 15.1111 9.01957 17.9088 6.14378C16.0279 4.58719 13.8704 3.64843 11.6178 3.4884C9.13794 3.31222 6.47614 4.07472 3.86142 6.10981C1.6969 7.79448 0.852446 10.4279 0.842616 13.0528C0.832706 15.6989 1.67348 18.1561 2.65455 19.359C3.23603 20.0719 4.12881 21.0459 5.00977 21.9561C5.07543 21.8779 5.14545 21.8022 5.21981 21.7293L7.78804 19.2104C9.04057 17.9819 11.0518 18.0013 12.2803 19.2539C12.9415 19.9279 13.2412 20.8218 13.1817 21.6951C14.109 21.601 15.0691 21.9139 15.7725 22.6311C16.4873 23.3598 16.7796 24.3455 16.6524 25.2843C17.5196 25.2481 18.3981 25.5654 19.0538 26.2338C19.7708 26.7414 19.9501 28.1161 19.9501 28.7399C20.7976 28.6769 21.6662 28.9737 22.3079 29.6279C22.5911 29.9166 22.8038 30.2482 22.9463 30.6013C23.0267 30.6377 23.102 30.689 23.1681 30.7552C23.6715 31.2603 24.1748 31.4035 24.6051 31.3729C25.055 31.3409 25.5033 31.1125 25.8504 30.7403C26.1973 30.3684 26.3638 30.0463 26.343 29.6279C26.3183 29.1309 26.1218 28.7358 25.6438 28.2645C25.6272 28.2481 25.6101 28.2312 25.5925 28.2139C25.0705 27.6981 18.9385 21.4805 18.9385 21.4805C18.6461 21.1871 18.6468 20.7122 18.9402 20.4198C19.2336 20.1274 19.7084 20.1281 20.0009 20.4215C21.1255 21.5497 22.8237 22.9275 24.9023 24.9879C26.3925 26.4651 26.4789 26.5453 26.5898 26.6483C26.6336 26.689 26.6813 26.7332 26.8206 26.8683C27.313 27.3458 27.8033 27.5003 28.2132 27.4918C28.6341 27.4831 29.0295 27.3016 29.3211 27.0054C29.6121 26.7099 29.7861 26.3144 29.7835 25.8898C29.781 25.4744 29.6163 24.9652 29.0858 24.4407C28.8086 24.1666 26.9771 22.3505 25.2494 20.6373C23.6709 19.0721 22.4989 18.104 22.3582 17.9651C22.0634 17.6741 22.0603 17.1992 22.3514 16.9044C22.4323 16.8225 22.5279 16.7629 22.6294 16.7261C22.8929 16.6308 23.1993 16.6877 23.412 16.8977L23.4945 16.9758C24.123 17.5961 25.1049 18.3888 26.0404 19.3284C27.8011 21.0968 29.6909 22.9949 30.1482 23.3817C30.8484 23.974 31.1533 24.0396 31.5571 24.0191C31.977 23.9978 32.385 23.7926 32.6943 23.4559C33.0038 23.1188 33.1854 22.6806 33.1837 22.2406C33.182 21.8168 33.0107 21.3375 32.5149 20.8882C30.2081 18.7975 28.0179 16.5495 25.8331 14.3071C24.7447 13.1901 23.6578 12.0745 22.5584 10.9804Z" fill="white"/>
<path d="M12.3234 14.0882C14.7108 11.6018 17.1043 9.12104 19.5101 6.65238C20.8731 5.52688 23.2969 4.5056 25.9374 4.28896C28.5817 4.07201 31.3341 4.6686 33.4177 6.64488C35.5265 8.64502 36.3258 11.1928 36.4728 13.4832C36.6218 15.805 36.0942 17.7503 35.6881 18.4633C35.2187 19.2872 34.6753 19.9786 34.2816 20.441L33.5336 19.7844L23.097 9.39758C22.8069 9.10882 22.3388 9.10604 22.0452 9.39132C21.7041 9.72289 21.2072 10.2041 20.6841 10.7081C19.8451 11.5163 18.9381 12.3833 18.4951 12.7873C18.4249 12.8513 18.3483 12.9238 18.2653 13.0022C17.7446 13.4942 16.9716 14.2248 15.9513 14.6184C15.38 14.8389 14.7499 14.9425 14.0627 14.8258C13.543 14.7376 12.961 14.5183 12.3234 14.0882Z" fill="white"/>
<path d="M6.24992 25.1714C5.60151 24.5103 5.6118 23.4488 6.27289 22.8004L8.84112 20.2814C9.50222 19.633 10.5638 19.6433 11.2122 20.3044C11.8606 20.9655 11.8503 22.027 11.1892 22.6755L8.621 25.1944C7.9599 25.8428 6.89834 25.8325 6.24992 25.1714Z" fill="white"/>
<path d="M9.74211 28.5486C9.0937 27.8875 9.10398 26.826 9.76508 26.1776L12.3333 23.6586C12.9944 23.0102 14.056 23.0205 14.7044 23.6816C15.3528 24.3427 15.3425 25.4042 14.6814 26.0527L12.1132 28.5716C11.4521 29.22 10.3905 29.2097 9.74211 28.5486Z" fill="white"/>
<path d="M13.0234 32.1514C12.375 31.4903 12.3852 30.4288 13.0463 29.7803L15.6146 27.2614C16.2757 26.613 17.3372 26.6233 17.9856 27.2844C18.634 27.9455 18.6238 29.007 17.9627 29.6554L15.3944 32.1744C14.7333 32.8228 13.6718 32.8125 13.0234 32.1514Z" fill="white"/>
<path d="M16.7421 35.0898C16.166 34.5024 16.1751 33.5591 16.7625 32.983L19.133 30.658C19.7204 30.0819 20.6636 30.091 21.2398 30.6784C21.8159 31.2658 21.8068 32.2091 21.2194 32.7852L18.9026 35.0575C18.6177 35.2406 18.3458 35.3948 18.0974 35.5077C17.621 35.6024 17.1077 35.4625 16.7421 35.0898Z" fill="white"/>
</svg>
