<svg width="36" height="36" viewBox="0 0 36 36" fill="none" xmlns="http://www.w3.org/2000/svg">
<path d="M18 15.8391C20.9823 15.8391 23.4 13.4214 23.4 10.4391C23.4 7.45672 20.9823 5.03906 18 5.03906C15.0177 5.03906 12.6 7.45672 12.6 10.4391C12.6 13.4214 15.0177 15.8391 18 15.8391Z" fill="white"/>
<path d="M11.7354 12.4804C11.7354 14.7259 9.91508 16.5463 7.66955 16.5463C5.42403 16.5463 3.60367 14.7259 3.60367 12.4804C3.60367 10.2349 5.42403 8.4145 7.66955 8.4145C9.91508 8.4145 11.7354 10.2349 11.7354 12.4804Z" fill="white"/>
<path d="M17.9997 17.4462C13.9947 17.4462 11.5928 18.937 10.2366 20.9191C8.92586 22.8348 8.71707 26.8293 8.7129 28.0443C8.70871 29.266 9.68566 30.0635 10.6873 30.0635H25.312C26.3137 30.0635 27.2906 29.266 27.2864 28.0443C27.2822 26.8293 27.0735 22.8348 25.7628 20.9191C24.4066 18.937 22.0047 17.4462 17.9997 17.4462Z" fill="white"/>
<path d="M9.77243 18.6228C9.30473 19.067 8.9 19.5492 8.55188 20.058C6.95648 22.3897 6.70236 26.8611 6.69728 28.3399C6.69626 28.6371 6.74294 28.9136 6.82802 29.1659H1.63056C0.803368 29.1659 -0.0034505 28.5074 1.10989e-05 27.4984C0.0034536 26.495 0.175888 22.8828 1.25837 21.3007C2.3784 19.6638 4.36201 18.4326 7.66959 18.4326C8.44052 18.4326 9.13952 18.4995 9.77243 18.6228Z" fill="white"/>
<path d="M29.1737 29.1659C29.2587 28.9136 29.3054 28.6371 29.3044 28.3399C29.2993 26.8611 29.0452 22.3897 27.4499 20.058C27.1016 19.5491 26.6968 19.0667 26.2289 18.6224C26.8613 18.4994 27.5596 18.4326 28.3297 18.4326C31.6373 18.4326 33.6209 19.6638 34.741 21.3007C35.8234 22.8828 35.9958 26.495 35.9993 27.4984C36.0027 28.5074 35.1959 29.1659 34.3687 29.1659H29.1737Z" fill="white"/>
<path d="M32.3956 12.4804C32.3956 14.7259 30.5752 16.5463 28.3297 16.5463C26.0842 16.5463 24.2638 14.7259 24.2638 12.4804C24.2638 10.2349 26.0842 8.4145 28.3297 8.4145C30.5752 8.4145 32.3956 10.2349 32.3956 12.4804Z" fill="white"/>
</svg>
