<svg width="37" height="36" viewBox="0 0 37 36" fill="none" xmlns="http://www.w3.org/2000/svg">
<path fill-rule="evenodd" clip-rule="evenodd" d="M22.1642 24.0649C22.173 24.057 22.1813 24.0485 22.189 24.0395L32.4772 12.1605V15.5228C32.4772 16.6708 33.4181 17.5959 34.572 17.5959C35.7258 17.5959 36.6667 16.6708 36.6667 15.5228V7.32308C36.6667 6.17507 35.7258 5.25 34.572 5.25H25.1545C24.0007 5.25 23.0597 6.17507 23.0597 7.32308C23.0597 8.47109 24.0007 9.39616 25.1545 9.39616H29.3208L20.8519 19.5722L15.8519 14.2544L15.8507 14.253C15.4614 13.8299 14.9132 13.5852 14.3361 13.5759C13.7584 13.5665 13.2015 13.7933 12.7983 14.2043L1.25249 27.3889C0.451817 28.2117 0.474631 29.5214 1.30474 30.3164C2.1351 31.1117 3.45993 31.0918 4.26496 30.2712L14.2677 18.6882L19.1987 23.9309L19.1999 23.9322C19.5749 24.3398 20.098 24.5825 20.6535 24.6075C21.2095 24.6326 21.7533 24.4377 22.1642 24.0649Z" fill="white"/>
</svg>
