<svg width="36" height="36" viewBox="0 0 36 36" fill="none" xmlns="http://www.w3.org/2000/svg">
<path fill-rule="evenodd" clip-rule="evenodd" d="M15 3C13.3431 3 12 4.34315 12 6V31.5H20.704C19.9383 30.1762 19.5 28.6393 19.5 27C19.5 23.6687 21.3099 20.7602 24 19.204V6C24 4.34315 22.6569 3 21 3H15ZM21 9H15V6H21V9Z" fill="white"/>
<path d="M33 13.5V19.204C31.6762 18.4383 30.1393 18 28.5 18C27.9889 18 27.4878 18.0426 27 18.1244V9H28.5C30.9853 9 33 11.0147 33 13.5Z" fill="white"/>
<path d="M9 31.5V9H7.5C5.01472 9 3 11.0147 3 13.5V27C3 29.3299 4.77075 31.2463 7.0399 31.4768C7.19118 31.4921 7.34467 31.5 7.5 31.5H9Z" fill="white"/>
<circle cx="28.5" cy="27" r="6" fill="#12B823"/>
</svg>
