<svg width="36" height="36" viewBox="0 0 36 36" fill="none" xmlns="http://www.w3.org/2000/svg">
<path d="M28.4994 3.87451C28.4994 3.04608 27.8278 2.37451 26.9994 2.37451C26.171 2.37451 25.4994 3.04608 25.4994 3.87451V28.7532L20.5601 23.8138C19.9743 23.2281 19.0245 23.2281 18.4388 23.8138C17.853 24.3996 17.853 25.3494 18.4388 25.9352L25.9388 33.4352C26.5245 34.021 27.4743 34.021 28.0601 33.4352L35.5601 25.9352C36.1459 25.3494 36.1459 24.3996 35.5601 23.8138C34.9743 23.2281 34.0245 23.2281 33.4388 23.8138L28.4994 28.7532V3.87451Z" fill="white"/>
<path d="M3.07751 16.6258C2.21243 16.6259 1.62335 15.7489 1.95056 14.9481L6.68346 3.21964C6.88952 2.70902 7.38515 2.37473 7.93578 2.3747C8.32825 2.37468 8.69666 2.37461 9.08897 2.37459C9.64155 2.37455 10.1384 2.7114 10.3429 3.22472L15.0357 15.0013C15.2996 15.7931 14.7677 16.6259 13.9332 16.6259C13.7964 16.6259 13.6585 16.6259 13.5188 16.6259C12.9526 16.6259 12.4349 16.2981 12.2257 15.772C11.9487 15.0749 11.7042 14.3615 11.4359 13.6649H5.66767L4.89853 15.6644C4.67571 16.2436 4.1193 16.6258 3.49865 16.6258C3.36073 16.6258 3.2196 16.6258 3.07751 16.6258ZM10.5624 11.003L8.56798 6.18467L6.42508 11.003H10.5624Z" fill="white"/>
<path d="M3.71192 33.8746C3.04917 33.8746 2.5139 33.3373 2.5139 32.6746C2.5139 32.2455 2.5139 31.8184 2.5139 31.6175C2.5139 30.8572 2.81189 30.5694 3.292 29.9508C5.67804 26.8764 7.08798 25.0581 9.28926 22.2703C8.36238 22.2703 5.31019 22.2703 3.59451 22.2703C2.93177 22.2703 2.39641 21.7331 2.3964 21.0704L2.3964 20.8246C2.39639 20.1619 2.9304 19.6246 3.59315 19.6246C5.96137 19.6246 10.3005 19.6246 12.2902 19.6246C12.8701 19.6246 13.3374 20.0947 13.3374 20.6746C13.3374 20.9388 13.3374 21.1925 13.3374 21.3527C13.3374 22.0802 12.8962 22.6198 12.7142 22.8583L6.53845 30.9493C7.47127 30.9493 10.5536 30.9493 12.4131 30.9493C13.2209 30.9493 13.8749 31.6042 13.8749 32.412C13.8749 33.2197 13.2202 33.8746 12.4124 33.8746C9.9588 33.8746 5.76203 33.8746 3.71192 33.8746Z" fill="white"/>
</svg>
