<svg width="36" height="36" viewBox="0 0 36 36" fill="none" xmlns="http://www.w3.org/2000/svg">
<path fill-rule="evenodd" clip-rule="evenodd" d="M18 3C14.6863 3 12 5.68629 12 9V12.0793C10.3028 12.4023 8.90859 13.6838 8.4774 15.4086L5.4774 27.4086C4.76736 30.2487 6.91547 33 9.84304 33H26.1584C29.0859 33 31.2341 30.2488 30.524 27.4086L27.524 15.4086C27.0927 13.6833 25.6978 12.4016 24 12.079V9C24 5.68629 21.3137 3 18 3ZM23.1584 15H12.843C12.1547 15 11.5548 15.4684 11.3878 16.1362L8.38782 28.1362C8.15114 29.0829 8.86718 30 9.84304 30H26.1584C27.1342 30 27.8503 29.0829 27.6136 28.1362L24.6136 16.1362C24.4467 15.4684 23.8467 15 23.1584 15ZM21 12V9C21 7.34315 19.6569 6 18 6C16.3431 6 15 7.34315 15 9V12H21Z" fill="white"/>
</svg>
