<svg width="36" height="36" viewBox="0 0 36 36" fill="none" xmlns="http://www.w3.org/2000/svg">
<path fill-rule="evenodd" clip-rule="evenodd" d="M18.3631 4.78564C17.7249 4.78564 17.2076 5.30298 17.2076 5.94115V7.30455C17.0945 7.31935 16.975 7.33608 16.8473 7.35468C15.2188 7.59185 13.9828 8.20174 12.9457 9.18728C11.8558 10.223 11.3109 11.5319 11.3109 13.0965C11.3109 14.7094 11.8122 16.0124 12.8324 16.9775L12.8359 16.9807C13.856 17.9074 15.181 18.579 17.0278 19.0044L17.0332 19.0055C17.083 19.0157 17.1415 19.0279 17.2076 19.042V25.1481C17.0964 25.138 16.9873 25.1248 16.8816 25.108C16.8728 25.1066 16.8646 25.1046 16.8568 25.1021L16.8414 25.0971L16.8255 25.0943C16.2341 24.9906 15.7421 24.8056 15.2001 24.5335C14.5949 24.2013 13.9766 23.7566 13.3452 23.1968C13.0734 22.9472 12.7428 22.8231 12.3667 22.8231C11.9386 22.8231 11.5674 22.9958 11.2628 23.3224C10.9607 23.6272 10.7998 23.9886 10.7998 24.3987C10.7998 24.9173 11.0386 25.3673 11.4738 25.7437C12.3037 26.5189 13.1767 27.1047 14.0933 27.4968L14.0949 27.4975C14.965 27.8619 15.8201 28.099 16.8473 28.2076C16.9745 28.2211 17.0942 28.2333 17.2076 28.2441V29.8345C17.2076 30.4727 17.7249 30.99 18.3631 30.99C19.0013 30.99 19.5186 30.4727 19.5186 29.8345V28.1938C19.6701 28.1687 19.8322 28.1392 20.0095 28.105C21.5293 27.8121 22.6315 27.1725 23.625 26.1928L23.6266 26.1913C24.6729 25.1396 25.1998 23.872 25.1998 22.4008C25.1998 20.7052 24.7435 19.3879 23.7933 18.4926C22.9635 17.6773 21.8812 17.0359 20.2848 16.5625L20.2765 16.5604C20.0296 16.497 19.7736 16.4329 19.5186 16.3696V10.4984C19.6286 10.5239 19.7214 10.55 19.7943 10.5742L19.8066 10.5775C20.3086 10.7138 20.6562 10.9005 21.1275 11.1545L21.195 11.191L21.198 11.1925C21.7335 11.4709 22.1589 11.7636 22.4798 12.0683L22.485 12.0729C22.7047 12.2692 22.9803 12.3602 23.2922 12.3602C23.7152 12.3602 24.0785 12.2009 24.3679 11.8892C24.6698 11.5845 24.8307 11.2231 24.8307 10.8132C24.8307 10.2896 24.5684 9.82278 24.1036 9.41447C23.589 8.8988 22.9414 8.46716 22.1662 8.11656C21.4541 7.79445 20.828 7.55919 20.0095 7.41706C19.832 7.38624 19.6696 7.35924 19.5186 7.33596V5.94115C19.5186 5.30298 19.0013 4.78564 18.3631 4.78564ZM17.2076 10.4305C17.1776 10.435 17.1475 10.4398 17.1174 10.4448C16.233 10.5899 15.6611 10.8938 15.1669 11.3546C14.7016 11.8056 14.4731 12.3438 14.4731 12.9823C14.4731 13.6854 14.6974 14.2392 15.1366 14.6654C15.5665 15.0487 16.0828 15.3786 16.8473 15.654V15.6358L17.1584 15.7488C17.1737 15.7544 17.1901 15.7601 17.2076 15.7661V10.4305ZM19.5186 19.6536V25.036C19.5877 25.025 19.6516 25.014 19.7093 25.0033L19.7931 24.9776C20.4897 24.7635 20.9001 24.446 21.3392 24.0046L21.3424 24.0013C21.7929 23.566 22.0085 23.0745 22.0093 22.518C21.9911 21.846 21.7814 21.304 21.3893 20.8756L21.3862 20.8723C20.9973 20.4303 20.5814 20.0659 19.8499 19.7687L19.7005 19.7161C19.6405 19.6949 19.5798 19.6741 19.5186 19.6536Z" fill="white"/>
</svg>
