<svg width="36" height="36" viewBox="0 0 36 36" fill="none" xmlns="http://www.w3.org/2000/svg">
<path d="M4.5 10.5C4.5 9.67157 5.17157 9 6 9H30C30.8284 9 31.5 9.67157 31.5 10.5C31.5 11.3284 30.8284 12 30 12H6C5.17157 12 4.5 11.3284 4.5 10.5Z" fill="white"/>
<path d="M10.5 18C10.5 17.1716 11.1716 16.5 12 16.5H24C24.8284 16.5 25.5 17.1716 25.5 18C25.5 18.8284 24.8284 19.5 24 19.5H12C11.1716 19.5 10.5 18.8284 10.5 18Z" fill="white"/>
<path d="M15 25.5C15 24.6716 15.6716 24 16.5 24H19.5C20.3284 24 21 24.6716 21 25.5C21 26.3284 20.3284 27 19.5 27H16.5C15.6716 27 15 26.3284 15 25.5Z" fill="white"/>
</svg>
