<svg width="36" height="36" viewBox="0 0 36 36" fill="none" xmlns="http://www.w3.org/2000/svg">
<path d="M10.5 10.5C10.5 9.67157 11.1716 9 12 9H30C30.8284 9 31.5 9.67157 31.5 10.5C31.5 11.3284 30.8284 12 30 12H12C11.1716 12 10.5 11.3284 10.5 10.5Z" fill="white"/>
<path d="M10.5 18C10.5 17.1716 11.1716 16.5 12 16.5H30C30.8284 16.5 31.5 17.1716 31.5 18C31.5 18.8284 30.8284 19.5 30 19.5H12C11.1716 19.5 10.5 18.8284 10.5 18Z" fill="white"/>
<path d="M10.5 25.5C10.5 24.6716 11.1716 24 12 24H30C30.8284 24 31.5 24.6716 31.5 25.5C31.5 26.3284 30.8284 27 30 27H12C11.1716 27 10.5 26.3284 10.5 25.5Z" fill="white"/>
<path d="M7.5 10.5C7.5 11.3284 6.82843 12 6 12C5.17157 12 4.5 11.3284 4.5 10.5C4.5 9.67157 5.17157 9 6 9C6.82843 9 7.5 9.67157 7.5 10.5Z" fill="white"/>
<path d="M7.5 18C7.5 18.8284 6.82843 19.5 6 19.5C5.17157 19.5 4.5 18.8284 4.5 18C4.5 17.1716 5.17157 16.5 6 16.5C6.82843 16.5 7.5 17.1716 7.5 18Z" fill="white"/>
<path d="M7.5 25.5C7.5 26.3284 6.82843 27 6 27C5.17157 27 4.5 26.3284 4.5 25.5C4.5 24.6716 5.17157 24 6 24C6.82843 24 7.5 24.6716 7.5 25.5Z" fill="white"/>
</svg>
