<svg width="36" height="36" viewBox="0 0 36 36" fill="none" xmlns="http://www.w3.org/2000/svg">
<path d="M3 6C3 4.34315 4.34314 3 6 3H16.5C18.1569 3 19.5 4.34315 19.5 6V9C19.5 9.82843 18.8284 10.5 18 10.5C17.1716 10.5 16.5 9.82843 16.5 9V6L6 6V30H16.5V27C16.5 26.1716 17.1716 25.5 18 25.5C18.8284 25.5 19.5 26.1716 19.5 27V30C19.5 31.6569 18.1569 33 16.5 33H6C4.34315 33 3 31.6569 3 30V6Z" fill="white"/>
<path d="M27.8787 19.5L24.4393 22.9393C23.8536 23.5251 23.8536 24.4749 24.4393 25.0607C25.0251 25.6464 25.9749 25.6464 26.5607 25.0607L32.3485 19.2728C33.0515 18.5699 33.0515 17.4302 32.3485 16.7272L26.5607 10.9393C25.9749 10.3536 25.0251 10.3536 24.4393 10.9393C23.8536 11.5251 23.8536 12.4749 24.4393 13.0607L27.8787 16.5L12 16.5V19.5L27.8787 19.5Z" fill="white"/>
</svg>
