<svg width="36" height="36" viewBox="0 0 36 36" fill="none" xmlns="http://www.w3.org/2000/svg">
<path d="M19.6899 4.68627C19.6899 3.75497 18.9348 3 18.0034 3C17.0719 3 16.3168 3.75497 16.3168 4.68627V16.3028H4.68649C3.75503 16.3028 2.99994 17.0578 2.99994 17.9891C2.99994 18.9204 3.75503 19.6754 4.68649 19.6754H16.3168V31.3137C16.3168 32.245 17.0719 33 18.0034 33C18.9348 33 19.6899 32.245 19.6899 31.3137V19.6754H31.3134C32.2449 19.6754 33 18.9204 33 17.9891C33 17.0578 32.2449 16.3028 31.3134 16.3028H19.6899V4.68627Z" fill="white"/>
</svg>
