<svg width="36" height="36" viewBox="0 0 36 36" fill="none" xmlns="http://www.w3.org/2000/svg">
<path fill-rule="evenodd" clip-rule="evenodd" d="M10.5 6C8.01472 6 6 8.01472 6 10.5V12.2561C4.25221 12.8738 3 14.5407 3 16.5V25.5C3 27.9853 5.01472 30 7.5 30H28.5C30.9853 30 33 27.9853 33 25.5V16.5C33 14.5407 31.7478 12.8738 30 12.2561V10.5C30 8.01472 27.9853 6 25.5 6H10.5ZM28.5 15H7.5C6.67157 15 6 15.6716 6 16.5V25.5C6 26.3284 6.67157 27 7.5 27H28.5C29.3284 27 30 26.3284 30 25.5V16.5C30 15.6716 29.3284 15 28.5 15ZM27 12V10.5C27 9.67157 26.3284 9 25.5 9H10.5C9.67157 9 9 9.67157 9 10.5V12H27Z" fill="white"/>
<path d="M27 19.5C27 20.3284 26.3284 21 25.5 21C24.6716 21 24 20.3284 24 19.5C24 18.6716 24.6716 18 25.5 18C26.3284 18 27 18.6716 27 19.5Z" fill="white"/>
</svg>
