<svg width="36" height="36" viewBox="0 0 36 36" fill="none" xmlns="http://www.w3.org/2000/svg">
<path fill-rule="evenodd" clip-rule="evenodd" d="M0 4.5C0 3.67157 0.671573 3 1.5 3H3.65767C5.72258 3 7.5225 4.40534 8.02331 6.40859L8.29616 7.5H27.9041C31.3375 7.5 33.5004 11.188 31.8352 14.1854L27.6685 21.6854C26.8748 23.114 25.369 24 23.7348 24H12.8423C10.7774 24 8.9775 22.5947 8.47669 20.5914L5.11288 7.1362C4.94595 6.46845 4.34597 6 3.65767 6H1.5C0.671573 6 0 5.32843 0 4.5ZM9.04616 10.5L11.3871 19.8638C11.5541 20.5316 12.154 21 12.8423 21H23.7348C24.2795 21 24.7815 20.7047 25.046 20.2285L29.2127 12.7285C29.7692 11.7267 29.0456 10.5 27.9041 10.5H9.04616Z" fill="white"/>
<path d="M13.5 30C13.5 31.6569 12.1569 33 10.5 33C8.84315 33 7.5 31.6569 7.5 30C7.5 28.3431 8.84315 27 10.5 27C12.1569 27 13.5 28.3431 13.5 30Z" fill="white"/>
<path d="M28.5 30C28.5 31.6569 27.1569 33 25.5 33C23.8431 33 22.5 31.6569 22.5 30C22.5 28.3431 23.8431 27 25.5 27C27.1569 27 28.5 28.3431 28.5 30Z" fill="white"/>
</svg>
