<svg width="36" height="36" viewBox="0 0 36 36" fill="none" xmlns="http://www.w3.org/2000/svg">
<path d="M25.1893 31.0607C25.7751 31.6464 26.7249 31.6464 27.3107 31.0607L34.0607 24.3107C34.6464 23.7249 34.6464 22.7751 34.0607 22.1893C33.4749 21.6036 32.5251 21.6036 31.9393 22.1893L27.75 26.3787L27.75 6C27.75 5.17157 27.0784 4.5 26.25 4.5C25.4216 4.5 24.75 5.17157 24.75 6L24.75 26.3787L20.5607 22.1893C19.9749 21.6036 19.0251 21.6036 18.4393 22.1893C17.8536 22.7751 17.8536 23.7249 18.4393 24.3107L25.1893 31.0607Z" fill="white"/>
<path d="M10.8107 4.93934C10.2249 4.35355 9.27513 4.35355 8.68934 4.93934L1.93934 11.6893C1.35355 12.2751 1.35355 13.2249 1.93934 13.8107C2.52513 14.3964 3.47487 14.3964 4.06066 13.8107L8.25 9.62132V30C8.25 30.8284 8.92157 31.5 9.75 31.5C10.5784 31.5 11.25 30.8284 11.25 30V9.62132L15.4393 13.8107C16.0251 14.3964 16.9749 14.3964 17.5607 13.8107C18.1464 13.2249 18.1464 12.2751 17.5607 11.6893L10.8107 4.93934Z" fill="white"/>
</svg>
