<svg width="36" height="36" viewBox="0 0 36 36" fill="none" xmlns="http://www.w3.org/2000/svg">
<path fill-rule="evenodd" clip-rule="evenodd" d="M8.63292 7.07736C7.75974 7.04377 7.0428 7.76071 7.07638 8.6339L7.41579 17.4586C7.43032 17.8362 7.58682 18.1944 7.85402 18.4616L17.1202 27.7278C17.706 28.3136 18.6558 28.3136 19.2415 27.7278L27.7268 19.2425C28.3126 18.6567 28.3126 17.707 27.7268 17.1212L18.4606 7.855C18.1934 7.5878 17.8352 7.43129 17.4576 7.41677L8.63292 7.07736ZM4.0786 8.7492C3.97784 6.12964 6.12866 3.97882 8.74822 4.07957L17.5729 4.41898C18.7057 4.46255 19.7803 4.93207 20.5819 5.73368L29.8481 14.9999C31.6055 16.7572 31.6055 19.6065 29.8481 21.3638L21.3629 29.8491C19.6055 31.6065 16.7563 31.6065 14.9989 29.8491L5.7327 20.5829C4.9311 19.7813 4.46158 18.7067 4.41801 17.5739L4.0786 8.7492Z" fill="white"/>
<path d="M15.3641 11.1212C16.5357 12.2928 16.5357 14.1923 15.3641 15.3638C14.1925 16.5354 12.293 16.5354 11.1215 15.3638C9.94988 14.1923 9.94988 12.2928 11.1215 11.1212C12.293 9.94963 14.1925 9.94963 15.3641 11.1212Z" fill="white"/>
</svg>
