<svg width="36" height="36" viewBox="0 0 36 36" fill="none" xmlns="http://www.w3.org/2000/svg">
<path d="M13.5 4.5C13.5 3.67157 14.1716 3 15 3H21C21.8284 3 22.5 3.67157 22.5 4.5V6H30C30.8284 6 31.5 6.67157 31.5 7.5C31.5 8.32843 30.8284 9 30 9H6C5.17157 9 4.5 8.32843 4.5 7.5C4.5 6.67157 5.17157 6 6 6H13.5V4.5Z" fill="white"/>
<path d="M9 12C9.82843 12 10.5 12.6716 10.5 13.5V28.5C10.5 29.3284 11.1716 30 12 30H24C24.8284 30 25.5 29.3284 25.5 28.5V13.5C25.5 12.6716 26.1716 12 27 12C27.8284 12 28.5 12.6716 28.5 13.5V28.5C28.5 30.9853 26.4853 33 24 33H12C9.51472 33 7.5 30.9853 7.5 28.5V13.5C7.5 12.6716 8.17157 12 9 12Z" fill="white"/>
<path d="M13.5 16.5C13.5 15.6716 14.1716 15 15 15C15.8284 15 16.5 15.6716 16.5 16.5V25.5C16.5 26.3284 15.8284 27 15 27C14.1716 27 13.5 26.3284 13.5 25.5V16.5Z" fill="white"/>
<path d="M21 15C20.1716 15 19.5 15.6716 19.5 16.5V25.5C19.5 26.3284 20.1716 27 21 27C21.8284 27 22.5 26.3284 22.5 25.5V16.5C22.5 15.6716 21.8284 15 21 15Z" fill="white"/>
</svg>
