<svg width="36" height="36" viewBox="0 0 36 36" fill="none" xmlns="http://www.w3.org/2000/svg">
<path fill-rule="evenodd" clip-rule="evenodd" d="M3 9C3 6.51472 5.01472 4.5 7.5 4.5H21C23.4853 4.5 25.5 6.51472 25.5 9V10.5H28.5C30.9853 10.5 33 12.5147 33 15V27C33 29.4853 30.9853 31.5 28.5 31.5H7.5C5.01472 31.5 3 29.4853 3 27V9ZM30 22.5V19.5H24V22.5H30ZM30 16.5H24C22.3431 16.5 21 17.8431 21 19.5V22.5C21 24.1569 22.3431 25.5 24 25.5H30V27C30 27.8284 29.3284 28.5 28.5 28.5H7.5C6.67157 28.5 6 27.8284 6 27V13.5H28.5C29.3284 13.5 30 14.1716 30 15V16.5ZM22.5 9V10.5H6V9C6 8.17157 6.67157 7.5 7.5 7.5H21C21.8284 7.5 22.5 8.17157 22.5 9Z" fill="white"/>
</svg>
