<svg width="36" height="36" viewBox="0 0 36 36" fill="none" xmlns="http://www.w3.org/2000/svg">
<path d="M14.4023 7.90393C15.2308 7.90393 15.9023 8.5755 15.9023 9.40393V12.7789H19.2773C20.1058 12.7789 20.7773 13.4505 20.7773 14.2789C20.7773 15.1074 20.1058 15.7789 19.2773 15.7789H15.9023V19.1539C15.9023 19.9824 15.2308 20.6539 14.4023 20.6539C13.5739 20.6539 12.9023 19.9824 12.9023 19.1539V15.7789H9.52734C8.69892 15.7789 8.02734 15.1074 8.02734 14.2789C8.02734 13.4505 8.69892 12.7789 9.52734 12.7789H12.9023V9.40393C12.9023 8.5755 13.5739 7.90393 14.4023 7.90393Z" fill="white"/>
<path fill-rule="evenodd" clip-rule="evenodd" d="M14.3933 1.5C7.27253 1.5 1.5 7.27253 1.5 14.3933C1.5 21.5141 7.27253 27.2866 14.3933 27.2866C17.4143 27.2866 20.1943 26.2462 22.3916 24.5064L30.4459 32.5607C31.0316 33.1464 31.9814 33.1464 32.5672 32.5607C33.153 31.9749 33.153 31.0251 32.5672 30.4393L24.5122 22.3843C26.2485 20.1881 27.2866 17.4109 27.2866 14.3933C27.2866 7.27253 21.5141 1.5 14.3933 1.5ZM4.5 14.3933C4.5 8.92939 8.92939 4.5 14.3933 4.5C19.8572 4.5 24.2866 8.92939 24.2866 14.3933C24.2866 17.1243 23.1821 19.5944 21.3918 21.3861C19.5996 23.1798 17.1271 24.2866 14.3933 24.2866C8.92939 24.2866 4.5 19.8572 4.5 14.3933Z" fill="white"/>
</svg>
