<svg width="36" height="36" viewBox="0 0 36 36" fill="none" xmlns="http://www.w3.org/2000/svg">
<path fill-rule="evenodd" clip-rule="evenodd" d="M14.3933 4.5C8.92939 4.5 4.5 8.92939 4.5 14.3933C4.5 19.8572 8.92939 24.2866 14.3933 24.2866C17.1271 24.2866 19.5996 23.1798 21.3918 21.3861C23.1821 19.5944 24.2866 17.1243 24.2866 14.3933C24.2866 8.92939 19.8572 4.5 14.3933 4.5ZM1.5 14.3933C1.5 7.27253 7.27253 1.5 14.3933 1.5C21.5141 1.5 27.2866 7.27253 27.2866 14.3933C27.2866 17.4109 26.2485 20.1881 24.5122 22.3843L32.5672 30.4393C33.153 31.0251 33.153 31.9749 32.5672 32.5607C31.9814 33.1464 31.0316 33.1464 30.4459 32.5607L22.3916 24.5064C20.1943 26.2462 17.4143 27.2866 14.3933 27.2866C7.27253 27.2866 1.5 21.5141 1.5 14.3933Z" fill="white"/>
<path fill-rule="evenodd" clip-rule="evenodd" d="M20.7778 14.279C20.7778 15.1075 20.1062 15.779 19.2778 15.779H9.52779C8.69936 15.779 8.02779 15.1075 8.02779 14.279C8.02779 13.4506 8.69936 12.779 9.52779 12.779L19.2778 12.779C20.1062 12.779 20.7778 13.4506 20.7778 14.279Z" fill="white"/>
</svg>
