<svg width="36" height="36" viewBox="0 0 36 36" fill="none" xmlns="http://www.w3.org/2000/svg">
<rect width="36" height="36" rx="18" fill="white"/>
<path d="M18.604 12.3737L15.0765 18.1884L18.8502 24.3638C18.8744 24.407 18.881 24.4577 18.8688 24.5057C18.8558 24.5503 18.8124 24.5218 18.7361 24.5348H16.0459C15.8568 24.5348 15.7234 24.528 15.6477 24.4016C15.3947 23.9093 15.1418 23.4199 14.8891 22.9333C14.6365 22.4468 14.3677 21.9512 14.0828 21.4465C13.7978 20.9414 13.5164 20.4299 13.2386 19.9119H13.22C12.9669 20.4171 12.7045 20.9222 12.4328 21.4273C12.1611 21.9324 11.8923 22.4342 11.6265 22.9327C11.361 23.4316 11.0893 23.9272 10.8114 24.4196C10.7605 24.5336 10.6719 24.5435 10.5453 24.5435H7.94757C7.89733 24.5435 7.8688 24.5633 7.8626 24.5131C7.85542 24.4669 7.86557 24.4197 7.89113 24.3805L11.5508 18.3762L7.98231 12.3526C7.94385 12.3024 7.93765 12.2615 7.9637 12.2287C7.97765 12.2126 7.99518 12.1999 8.01489 12.1917C8.03459 12.1836 8.05594 12.1801 8.07722 12.1816H10.7506C10.8091 12.178 10.8676 12.1875 10.9218 12.2095C10.9671 12.2354 11.0058 12.2712 11.0353 12.3142C11.2632 12.8193 11.5162 13.3244 11.7945 13.8295C12.0728 14.3346 12.354 14.8333 12.6381 15.3257C12.9226 15.818 13.185 16.3167 13.4253 16.8218H13.4439C13.6965 16.3043 13.9525 15.7992 14.2118 15.3064C14.4711 14.8137 14.7365 14.3181 15.0082 13.8196C15.2803 13.3211 15.5427 12.8255 15.7954 12.3328C15.8101 12.2858 15.8363 12.2432 15.8716 12.2089C15.9184 12.1853 15.9709 12.1756 16.023 12.181H18.5041C18.518 12.1776 18.5324 12.1769 18.5465 12.179C18.5606 12.1812 18.5741 12.186 18.5863 12.1934C18.5985 12.2008 18.6092 12.2105 18.6176 12.2219C18.6261 12.2334 18.6322 12.2464 18.6356 12.2603C18.6407 12.2802 18.6399 12.3012 18.6335 12.3208C18.627 12.3403 18.615 12.3576 18.599 12.3706L18.604 12.3737Z" fill="#1E1F27"/>
<path d="M24.0474 24.7795C23.1745 24.7928 22.3095 24.6117 21.5154 24.2492C20.7756 23.9073 20.1572 23.349 19.7421 22.6483C19.2856 21.8308 19.0624 20.9038 19.097 19.9683C19.0904 19.1 19.3129 18.2453 19.7421 17.4902C20.1845 16.72 20.8352 16.0899 21.6197 15.6719C22.5375 15.1945 23.5626 14.9599 24.597 14.9905C24.659 14.9905 24.7428 14.9942 24.8451 15.0004C24.9474 15.0066 25.0659 15.0165 25.2055 15.0289V11.2938C25.2055 11.2058 25.2433 11.1612 25.3196 11.1612H27.7089C27.7221 11.1593 27.7354 11.16 27.7483 11.1632C27.7611 11.1665 27.7732 11.1723 27.7838 11.1802C27.7944 11.1882 27.8034 11.1981 27.8101 11.2096C27.8168 11.221 27.8212 11.2336 27.8231 11.2467C27.8246 11.2559 27.8246 11.2654 27.8231 11.2746V22.4687C27.8231 22.6838 27.8326 22.9174 27.8516 23.1693C27.8706 23.4213 27.8865 23.6484 27.8994 23.8508C27.9017 23.8901 27.8921 23.9292 27.8718 23.963C27.8516 23.9969 27.8216 24.0238 27.7859 24.0404C27.1694 24.2972 26.5273 24.4877 25.8704 24.6085C25.2691 24.7198 24.659 24.777 24.0474 24.7795ZM25.2042 22.4309V17.2604C25.1027 17.2327 24.9989 17.2136 24.8941 17.2034C24.7651 17.1906 24.6355 17.1844 24.5052 17.1848C24.045 17.1804 23.5902 17.2844 23.1778 17.4884C22.7771 17.6881 22.4352 17.9882 22.1853 18.3594C21.907 18.8073 21.7713 19.329 21.7964 19.8555C21.7872 20.2685 21.8547 20.6796 21.9955 21.0679C22.1106 21.3807 22.2919 21.6649 22.5271 21.9012C22.7522 22.1185 23.0249 22.2806 23.3236 22.3745C23.639 22.4768 23.9688 22.528 24.3005 22.5263C24.4771 22.5263 24.6414 22.5199 24.7936 22.5071C24.9324 22.4959 25.0696 22.4704 25.203 22.4309H25.2042Z" fill="#1E1F27"/>
</svg>
