<svg width="36" height="36" viewBox="0 0 36 36" fill="none" xmlns="http://www.w3.org/2000/svg">
<rect width="36" height="36" rx="18" fill="white"/>
<path d="M26.4044 13.2398L19.0799 7.41769C18.4225 6.85426 17.4835 6.85426 16.8261 7.41769L9.5955 13.2398C9.31379 13.4276 9.12598 13.8032 9.12598 14.1788V26.1047C9.12598 26.5742 9.40769 26.9498 9.78331 27.1376C10.1589 27.3254 10.6284 27.3254 11.0041 27.0437L17.4835 21.879C17.7652 21.5973 18.2347 21.5973 18.5164 21.879L24.9958 27.0437C25.1836 27.2315 25.4654 27.3254 25.7471 27.3254C25.9349 27.3254 26.1227 27.3254 26.2166 27.2315C26.5922 27.0437 26.8739 26.6681 26.8739 26.1986V14.1788C26.8739 13.8032 26.6861 13.4276 26.4044 13.2398ZM16.8261 21.1277L10.3467 26.2925C10.2528 26.3864 10.2528 26.2925 10.1589 26.2925C10.1589 26.2925 10.065 26.1986 10.065 26.1047V14.1788C10.065 14.0849 10.065 14.0849 10.1589 14.0849L17.4835 8.26283V20.846C17.2957 20.846 17.014 20.9399 16.8261 21.1277ZM25.841 26.1047C25.841 26.1986 25.7471 26.1986 25.7471 26.2925C25.7471 26.2925 25.6532 26.2925 25.5593 26.2925L19.0799 21.1277C18.892 20.9399 18.7042 20.846 18.4225 20.846V8.16892L25.7471 13.991L25.841 14.0849V26.1047Z" fill="#1E1F27"/>
</svg>
