<svg width="36" height="36" viewBox="0 0 36 36" fill="none" xmlns="http://www.w3.org/2000/svg">
<rect width="36" height="36" rx="18" fill="white"/>
<path d="M14.3471 10.0672L14.3454 10.0647C14.0518 9.67334 13.6611 9.67334 13.5326 9.67334H12.2613C11.9355 9.67334 11.6688 9.82304 11.5295 10.0836C11.3862 10.3505 11.4166 10.6711 11.6149 10.9682L16.3245 17.497L10.9089 25.0505C10.7197 25.3346 10.6931 25.6504 10.836 25.9171C10.9762 26.1776 11.2431 26.3269 11.5682 26.3269H12.8677C13.202 26.3269 13.4959 26.1534 13.6428 25.8801L19.7046 17.5271L14.3471 10.0672Z" fill="#1E1F27"/>
<path d="M24.5033 10.1142C24.3736 9.83811 24.0952 9.67355 23.7589 9.67355H22.4591C22.0816 9.67355 21.7993 9.82558 21.6507 10.0993L19.7243 12.9139L21.4108 15.2202L24.3551 10.9967C24.6783 10.604 24.5664 10.2486 24.5033 10.1142Z" fill="#1E1F27"/>
<path d="M21.3714 19.9311L25.1499 25.1165C25.2936 25.4036 25.2894 25.7079 25.1382 25.9521C24.9906 26.1903 24.7301 26.3267 24.423 26.3267H23.1522C23.0222 26.3256 22.8938 26.2976 22.7752 26.2443L22.6975 26.2103L19.7094 22.2223L21.3714 19.9311Z" fill="#1E1F27"/>
</svg>
