<svg width="36" height="36" viewBox="0 0 36 36" fill="none" xmlns="http://www.w3.org/2000/svg">
<rect width="36" height="36" rx="18" fill="white"/>
<path d="M28.7355 18.0714C28.5967 17.095 28.2585 16.1691 27.73 15.3196C27.2691 14.5782 26.6776 13.9188 25.9717 13.3584L25.9736 13.3566L18.5595 7.66221C18.5542 7.65751 18.5486 7.65307 18.5428 7.64893C18.2963 7.4601 17.9626 7.3562 17.6034 7.3562C17.2438 7.3562 16.897 7.46033 16.6274 7.64953C16.3376 7.85201 16.1719 8.12068 16.1603 8.40665C16.1497 8.67346 16.277 8.93018 16.5196 9.13031C16.9968 9.5068 17.4729 9.89149 17.9497 10.2766C18.4123 10.6506 18.8891 11.0357 19.3635 11.4106L10.2825 11.4045C9.24394 11.4045 8.5368 11.8921 8.39134 12.7086C8.32742 13.0662 8.44021 13.4594 8.69235 13.7606C8.95986 14.0798 9.34826 14.2559 9.78594 14.2559L10.4782 14.2564C11.4346 14.2564 12.3952 14.254 13.3544 14.2517L14.2692 14.2496L6.02741 20.3471L5.99469 20.371C5.53433 20.7238 5.23294 21.2185 5.16791 21.7281C5.11862 22.1142 5.20869 22.467 5.42848 22.7488C5.69043 23.0847 6.09942 23.2695 6.5802 23.2695C7.0525 23.2695 7.53443 23.0905 7.93782 22.7646L12.3885 19.1223C12.3695 19.3001 12.3464 19.5611 12.3491 19.7504C12.3541 20.0503 12.4503 20.652 12.6027 21.1404C12.9176 22.1443 13.4481 23.0627 14.1792 23.8693C14.94 24.7085 15.8666 25.3739 16.933 25.8465C18.0604 26.3452 19.2724 26.5983 20.5354 26.5983H20.5471C21.8141 26.5952 23.0299 26.3381 24.161 25.8338C25.2292 25.3555 26.1553 24.6874 26.9132 23.8484C27.6434 23.0377 28.1731 22.1177 28.4874 21.1147C28.6429 20.6182 28.7425 20.1059 28.7844 19.5873C28.8232 19.086 28.8065 18.576 28.7355 18.0714ZM20.6277 22.8828C17.8443 22.8828 15.5871 20.8637 15.5871 18.3728C15.5871 15.8822 17.8443 13.8631 20.6277 13.8631C23.4112 13.8631 25.6681 15.8822 25.6681 18.3728C25.6682 20.8637 23.4112 22.8828 20.6277 22.8828Z" fill="#1E1F27"/>
<path d="M22.7573 19.9212C23.2788 19.4102 23.5757 18.7199 23.5347 17.9765C23.4942 17.2545 23.1419 16.6175 22.6111 16.1662C22.0893 15.7225 21.3889 15.4517 20.6235 15.4517C19.8583 15.4517 19.1577 15.7224 18.636 16.1662C18.1054 16.6175 17.7531 17.255 17.7132 17.9771C17.6723 18.72 17.9687 19.4102 18.4899 19.9212C19.0205 20.4418 19.7776 20.7687 20.6236 20.7687C21.47 20.7687 22.2269 20.4418 22.7573 19.9212Z" fill="#1E1F27"/>
</svg>
