<svg width="36" height="36" viewBox="0 0 36 36" fill="none" xmlns="http://www.w3.org/2000/svg">
<g clip-path="url(#clip0_304_120)">
<path d="M18 36C27.9411 36 36 27.9411 36 18C36 8.05887 27.9411 0 18 0C8.05887 0 0 8.05887 0 18C0 27.9411 8.05887 36 18 36Z" fill="white"/>
<path d="M18 36C27.9411 36 36 27.9411 36 18C36 8.05887 27.9411 0 18 0C8.05887 0 0 8.05887 0 18C0 27.9411 8.05887 36 18 36Z" fill="white"/>
<path d="M18 36C27.9411 36 36 27.9411 36 18C36 8.05887 27.9411 0 18 0C8.05887 0 0 8.05887 0 18C0 27.9411 8.05887 36 18 36Z" fill="white"/>
<path d="M18 36C27.9411 36 36 27.9411 36 18C36 8.05887 27.9411 0 18 0C8.05887 0 0 8.05887 0 18C0 27.9411 8.05887 36 18 36Z" fill="white"/>
<path d="M18 36C27.9411 36 36 27.9411 36 18C36 8.05887 27.9411 0 18 0C8.05887 0 0 8.05887 0 18C0 27.9411 8.05887 36 18 36Z" fill="white"/>
<path d="M24.2021 20.9728C24.0828 20.9728 23.9779 21.0737 23.8686 21.2942C22.6351 23.8015 20.5047 25.5755 18.0393 25.5755C15.1886 25.5755 13.4233 22.996 13.4233 19.4324C13.4233 13.3959 16.7786 9.90574 19.7256 9.90574C21.1027 9.90574 21.9437 10.7732 21.9437 12.1537C21.9437 13.7922 21.0151 14.6597 21.0151 15.2375C21.0151 15.4969 21.176 15.654 21.4952 15.654C22.7775 15.654 24.2826 14.1769 24.2826 12.0903C24.2826 10.0671 22.5259 8.58 19.5789 8.58C14.7085 8.58 10.38 13.1063 10.38 19.3689C10.38 24.2166 13.1415 27.42 17.4025 27.42C21.925 27.42 24.54 22.9095 24.54 21.4455C24.54 21.1213 24.3746 20.9728 24.2021 20.9728Z" fill="#1E1F27"/>
</g>
<defs>
<clipPath id="clip0_304_120">
<rect width="36" height="36" rx="18" fill="white"/>
</clipPath>
</defs>
</svg>
