<svg width="36" height="36" viewBox="0 0 36 36" fill="none" xmlns="http://www.w3.org/2000/svg">
<rect width="36" height="36" rx="18" fill="white"/>
<path d="M11.84 10.2408V26.2191C9.4991 24.3444 8 21.4623 8 18.23C8 14.9977 9.4991 12.1155 11.84 10.2408Z" fill="#1E1F27"/>
<path d="M11.84 26.2191V10.2408C12.9688 9.33678 14.2934 8.66702 15.74 8.30521V14.4404C14.5088 15.2512 13.6962 16.6458 13.6962 18.23C13.6962 19.8141 14.5088 21.2088 15.74 22.0196V28.1547C14.2934 27.7929 12.9688 27.1232 11.84 26.2191Z" fill="#05060F" fill-opacity="0.8"/>
<path d="M18.2304 28.46C17.3714 28.46 16.5372 28.3541 15.74 28.1547V22.0196C16.4548 22.4903 17.3106 22.7643 18.2304 22.7643C18.7227 22.7643 19.1965 22.686 19.64 22.5411V28.3637C19.1792 28.4272 18.7087 28.46 18.2304 28.46Z" fill="#05060F" fill-opacity="0.6"/>
<path d="M19.64 8.09633V13.9189C19.1964 13.774 18.7226 13.6957 18.2304 13.6957C17.3106 13.6957 16.4548 13.9696 15.74 14.4404V8.30521C16.5372 8.10583 17.3714 8 18.2304 8C18.7086 8 19.1792 8.03282 19.64 8.09633Z" fill="#05060F" fill-opacity="0.6"/>
<path d="M23.54 26.9766C22.3729 27.6864 21.0524 28.1691 19.64 28.3637V22.5411C20.5873 22.2316 21.3968 21.6187 21.9541 20.8177H21.9561C21.9649 20.8021 21.9747 20.7875 21.9855 20.7719C21.9894 20.768 21.9923 20.7622 21.9953 20.7583C22.3795 20.1928 22.9316 19.8092 23.54 19.6288V26.9766Z" fill="#05060F" fill-opacity="0.48"/>
<path d="M23.54 9.48409V16.8322C22.9318 16.652 22.38 16.2686 21.9962 15.7037C21.9923 15.6979 21.9884 15.692 21.9845 15.6871C21.4266 14.8636 20.6046 14.2339 19.64 13.9189V8.09633C21.0524 8.29098 22.3728 8.77398 23.54 9.48409Z" fill="#05060F" fill-opacity="0.48"/>
<path d="M23.54 26.9766C24.7608 26.2343 25.9675 25.184 26.7116 23.95C27.5916 22.6464 27.248 20.8771 25.9451 19.9973C25.2104 19.5025 24.328 19.3952 23.54 19.6288V26.9766Z" fill="#05060F" fill-opacity="0.24"/>
<path d="M23.54 16.8322V9.48409C24.7934 10.2467 25.8701 11.2711 26.6939 12.4817C27.5013 13.8208 27.3042 15.5456 25.9451 16.4626C25.2104 16.958 24.3278 17.0656 23.54 16.8322Z" fill="#05060F" fill-opacity="0.24"/>
</svg>
