<svg width="36" height="36" viewBox="0 0 36 36" fill="none" xmlns="http://www.w3.org/2000/svg">
<rect width="36" height="36" rx="18" fill="white"/>
<path fill-rule="evenodd" clip-rule="evenodd" d="M15.231 8.68018C13.1374 8.68018 11.4551 10.4102 11.4551 12.5218C11.4551 13.7216 11.9969 14.7956 12.8476 15.501C11.9969 16.2063 11.4551 17.2804 11.4551 18.4802C11.4551 19.6799 11.9969 20.754 12.8476 21.4593C11.9969 22.1647 11.4551 23.2388 11.4551 24.4386C11.4551 26.5502 13.1374 28.2802 15.231 28.2802C17.3246 28.2802 19.0069 26.5502 19.0069 24.4386V21.696C19.5997 22.091 20.3093 22.3218 21.0725 22.3218C23.1661 22.3218 24.8484 20.5918 24.8484 18.4802C24.8484 17.2804 24.3066 16.2063 23.4559 15.501C24.3066 14.7956 24.8484 13.7216 24.8484 12.5218C24.8484 10.4102 23.1661 8.68018 21.0725 8.68018H15.231ZM13.1653 12.5218C13.1653 11.3444 14.1001 10.405 15.231 10.405H17.2966V14.6385L15.2304 14.6385L15.2236 14.6385C14.096 14.6345 13.1653 13.6966 13.1653 12.5218ZM19.0069 14.6386V10.405H21.0725C22.2034 10.405 23.1382 11.3444 23.1382 12.5218C23.1382 13.697 22.2069 14.635 21.0789 14.6385L21.0725 14.6385L21.0605 14.6386H19.0069ZM13.1653 18.4802C13.1653 17.3049 14.0966 16.3668 15.2247 16.3633L15.231 16.3634H17.2966L17.2967 18.4447L17.2966 18.4802L17.2967 18.5156V20.5969H15.231C14.1001 20.597 13.1653 19.6576 13.1653 18.4802ZM21.0725 16.3634L21.0798 16.3633C22.2074 16.3673 23.1382 17.3053 23.1382 18.4802C23.1382 19.6576 22.2034 20.597 21.0725 20.597C19.9506 20.597 19.0218 19.6726 19.0069 18.5084V18.4519C19.0217 17.291 19.9455 16.3685 21.0631 16.3634H21.0725ZM13.1653 24.4386C13.1653 23.2611 14.1001 22.3217 15.231 22.3217H17.2967V24.4386C17.2967 25.616 16.3619 26.5554 15.231 26.5554C14.1001 26.5554 13.1653 25.616 13.1653 24.4386Z" fill="#1E1F27"/>
</svg>
