<svg width="36" height="36" viewBox="0 0 36 36" fill="none" xmlns="http://www.w3.org/2000/svg">
<rect width="36" height="36" rx="18" fill="white"/>
<path d="M18.1196 18.2401C18.1196 16.4362 19.5821 14.9737 21.3861 14.9737C23.19 14.9737 24.6525 16.4362 24.6525 18.2401C24.6525 20.0441 23.19 21.5065 21.3861 21.5065C19.5821 21.5065 18.1196 20.0441 18.1196 18.2401Z" fill="#1E1F27"/>
<path d="M11.5869 24.7729C11.5869 22.969 13.0493 21.5065 14.8533 21.5065H18.1197V24.7729C18.1197 26.5769 16.6573 28.0393 14.8533 28.0393C13.0493 28.0393 11.5869 26.5769 11.5869 24.7729Z" fill="#1E1F27"/>
<path d="M18.1196 8.44092V14.9737L21.3861 14.9737C23.1901 14.9737 24.6525 13.5113 24.6525 11.7073C24.6525 9.90334 23.1901 8.44092 21.3861 8.44092H18.1196Z" fill="#1E1F27"/>
<path d="M11.5869 11.7073C11.5869 13.5113 13.0493 14.9737 14.8533 14.9737L18.1196 14.9737V8.44092L14.8533 8.44093C13.0493 8.44093 11.5869 9.90335 11.5869 11.7073Z" fill="#1E1F27"/>
<path d="M11.5869 18.2401C11.5869 20.0441 13.0493 21.5065 14.8533 21.5065H18.1197L18.1196 14.9737L14.8533 14.9737C13.0493 14.9737 11.5869 16.4362 11.5869 18.2401Z" fill="#1E1F27"/>
</svg>
