<svg width="36" height="36" viewBox="0 0 36 36" fill="none" xmlns="http://www.w3.org/2000/svg">
<rect width="36" height="36" rx="18" fill="white"/>
<path fill-rule="evenodd" clip-rule="evenodd" d="M8.87957 12.5327C8.31991 12.5327 7.86621 12.9827 7.86621 13.5377V14.5427V22.5826C7.86621 23.1377 8.31991 23.5876 8.87957 23.5876H9.38626C9.94592 23.5876 10.3996 23.1377 10.3996 22.5826V15.0452H14.9598C15.5194 15.0452 15.9731 14.5953 15.9731 14.0402V13.5377C15.9731 12.9827 15.5194 12.5327 14.9598 12.5327H9.89294H8.87957ZM19.0132 12.5327H18.5065C17.9468 12.5327 17.4932 12.9827 17.4932 13.5377V22.5826C17.4932 23.1377 17.9468 23.5876 18.5065 23.5876H19.0132C19.5729 23.5876 20.0266 23.1377 20.0266 22.5826V13.5377C20.0266 12.9827 19.5729 12.5327 19.0132 12.5327ZM27.1201 12.5327H26.6134C26.0538 12.5327 25.6001 12.9827 25.6001 13.5377V22.5826C25.6001 23.1377 26.0538 23.5876 26.6134 23.5876H27.1201C27.6798 23.5876 28.1335 23.1377 28.1335 22.5826V13.5377C28.1335 12.9827 27.6798 12.5327 27.1201 12.5327ZM22.56 14.5427H23.0667C23.6263 14.5427 24.08 14.9926 24.08 15.5477V21.0751C24.08 21.6302 23.6263 22.0801 23.0667 22.0801H22.56C22.0003 22.0801 21.5466 21.6302 21.5466 21.0751V15.5477C21.5466 14.9926 22.0003 14.5427 22.56 14.5427ZM13.4397 17.5577H12.4263C11.8667 17.5577 11.413 18.0076 11.413 18.5626V19.0651C11.413 19.6202 11.8667 20.0701 12.4263 20.0701H13.4397C13.9994 20.0701 14.4531 19.6202 14.4531 19.0651V18.5626C14.4531 18.0076 13.9994 17.5577 13.4397 17.5577Z" fill="#1E1F27"/>
</svg>
