<svg width="36" height="36" viewBox="0 0 36 36" fill="none" xmlns="http://www.w3.org/2000/svg">
<rect width="36" height="36" rx="18" fill="white"/>
<path d="M20.9849 9.2624V24.1124C20.9849 25.774 22.1312 26.6999 23.3474 26.6999C24.4724 26.6999 25.7099 25.9124 25.7099 24.1124V9.3749C25.7099 7.85165 24.5849 6.8999 23.3474 6.8999C22.1099 6.8999 20.9849 7.94953 20.9849 9.2624Z" fill="#1E1F27"/>
<path d="M14.7974 16.7999V24.1124C14.7974 25.774 15.9437 26.6999 17.1599 26.6999C18.2849 26.6999 19.5224 25.9124 19.5224 24.1124V16.9124C19.5224 15.3892 18.3974 14.4374 17.1599 14.4374C15.9224 14.4374 14.7974 15.487 14.7974 16.7999Z" fill="#1E1F27"/>
<path d="M10.9724 26.6999C12.2771 26.6999 13.3349 25.6422 13.3349 24.3374C13.3349 23.0326 12.2771 21.9749 10.9724 21.9749C9.66759 21.9749 8.60986 23.0326 8.60986 24.3374C8.60986 25.6422 9.66759 26.6999 10.9724 26.6999Z" fill="#1E1F27"/>
</svg>
