<svg width="36" height="36" viewBox="0 0 36 36" fill="none" xmlns="http://www.w3.org/2000/svg">
<rect width="36" height="36" rx="18" fill="white"/>
<path fill-rule="evenodd" clip-rule="evenodd" d="M7.99219 17.2545C7.99219 12.7324 11.5735 6.98975 18.3239 6.98975C21.6767 6.98975 24.168 8.40253 25.7816 10.4205C27.3772 12.4161 28.0949 14.9754 28.0004 17.288C27.8128 21.8776 24.5971 25.9515 22.0364 28.8524C21.7367 29.1919 21.2185 29.2242 20.879 28.9245C20.5395 28.6248 20.5072 28.1066 20.8069 27.7671C23.3945 24.8357 26.2006 21.1622 26.3617 17.221C26.4415 15.2682 25.8284 13.1051 24.5007 11.4447C23.191 9.80666 21.1666 8.62975 18.3239 8.62975C12.6831 8.62975 9.63219 13.4199 9.63219 17.2545C9.63219 20.3022 10.8872 23.9021 14.2453 26.0683C13.8036 25.2252 13.5866 24.3456 13.6498 23.5013C13.6554 23.427 13.6632 23.3533 13.6731 23.2801C12.7154 22.3131 12.137 21.0418 12.137 19.5613C12.137 18.5275 12.4243 17.6064 12.9259 16.8308C12.5784 16.1171 12.5296 15.4701 12.5296 15.1654C12.5296 13.2705 14.025 11.955 15.796 11.3244C17.1293 10.8497 18.7482 10.6995 20.4046 10.9565C20.3196 10.5953 20.4895 10.2099 20.8357 10.0363C21.2406 9.83341 21.7333 9.99711 21.9362 10.402L22.6343 11.7948C22.8154 12.1561 22.7062 12.5955 22.3771 12.83L21.1554 13.7005C20.7866 13.9633 20.2746 13.8773 20.0118 13.5085C19.8033 13.2159 19.8143 12.8332 20.0119 12.5563C18.6621 12.3688 17.3729 12.5038 16.3461 12.8694C14.8776 13.3922 14.1696 14.2747 14.1696 15.1654C14.1696 15.2322 14.1746 15.3421 14.1977 15.4801C15.3829 14.5916 16.9519 14.1277 18.6289 14.1277C19.8736 14.1277 20.9349 14.3898 21.7376 14.8256C22.52 15.2505 23.1497 15.8991 23.3062 16.7069C23.4776 17.5922 23.0315 18.3784 22.2435 18.8737C21.4889 19.348 20.3862 19.5979 18.978 19.5979C16.5915 19.5979 15.0329 19.0319 14.0385 18.2211C13.8684 18.6249 13.7769 19.0728 13.7769 19.5613C13.7769 20.2947 13.9983 20.9893 14.408 21.5913C14.5979 21.3624 14.8235 21.1526 15.0852 20.9666C15.9523 20.35 17.1518 20.0371 18.6345 20.0471C20.0794 20.0568 21.1963 20.2968 21.9699 20.7328C22.7606 21.1784 23.2812 21.9008 23.1855 22.7763C23.0972 23.5847 22.5078 24.2242 21.7982 24.6315C21.0672 25.0511 20.0973 25.2996 18.978 25.2996C17.6644 25.2996 16.4287 25.0142 15.3785 24.4949C15.6453 25.4975 16.4558 26.6716 17.8682 27.6316C18.1981 27.8558 18.3188 28.2849 18.1542 28.6482C17.9895 29.0115 17.5873 29.2037 17.2012 29.1034C10.3782 27.3319 7.99219 21.7027 7.99219 17.2545ZM15.5924 22.7398C16.4646 23.3127 17.6178 23.6596 18.978 23.6596C19.8656 23.6596 20.5428 23.4611 20.9817 23.2092C21.4421 22.9449 21.5454 22.6882 21.5552 22.5981L21.5553 22.5974C21.5582 22.5715 21.5779 22.3944 21.1647 22.1615C20.7303 21.9167 19.9273 21.6958 18.6234 21.687C17.3572 21.6785 16.5332 21.9493 16.0355 22.3032C15.8532 22.4328 15.7064 22.579 15.5924 22.7398ZM15.0296 16.9118C15.6506 17.4384 16.8056 17.9579 18.978 17.9579C20.2312 17.9579 20.9828 17.729 21.3708 17.4852C21.7253 17.2623 21.7101 17.091 21.6961 17.0187C21.6671 16.869 21.4951 16.5601 20.955 16.2668C20.4351 15.9845 19.6531 15.7677 18.6289 15.7677C17.205 15.7677 15.9743 16.1728 15.1188 16.8402C15.0887 16.8637 15.0589 16.8876 15.0296 16.9118Z" fill="#1E1F27"/>
</svg>
