<svg width="36" height="36" viewBox="0 0 36 36" fill="none" xmlns="http://www.w3.org/2000/svg">
<rect width="36" height="36" rx="18" fill="white"/>
<path d="M28.1998 16.9322H21.9853L27.3671 13.8246L26.2998 11.975L20.9174 15.0826L24.024 9.7004L22.175 8.6328L19.0677 14.0136V7.7998H16.9319V14.0143L13.8246 8.6328L11.975 9.7004L15.0815 15.0812L9.70045 11.975L8.63253 13.8246L14.0143 16.9322H7.7998V19.0681H14.0136L8.63253 22.1757L9.69977 24.0253L15.0822 20.9177L11.975 26.2999L13.824 27.3675L16.9319 21.986V28.1998H19.0677V21.8527L22.2321 27.3335L23.9662 26.3325L20.8012 20.8504L26.2985 24.0246L27.3664 22.175L21.9853 19.0674H28.1991V16.9322H28.1998ZM17.9998 20.9034C17.6185 20.9035 17.241 20.8284 16.8887 20.6825C16.5365 20.5365 16.2164 20.3227 15.9468 20.053C15.6771 19.7833 15.4632 19.4632 15.3173 19.1109C15.1713 18.7585 15.0962 18.3809 15.0962 17.9995C15.0961 17.6181 15.1712 17.2404 15.317 16.888C15.4629 16.5356 15.6767 16.2154 15.9463 15.9457C16.2158 15.676 16.5359 15.462 16.8881 15.3161C17.2403 15.1701 17.6179 15.0949 17.9991 15.0948C18.7691 15.0948 19.5076 15.4007 20.0522 15.9452C20.5967 16.4898 20.9027 17.2285 20.9028 17.9988C20.9029 18.769 20.5971 19.5078 20.0527 20.0525C19.5082 20.5972 18.7698 20.9033 17.9998 20.9034Z" fill="#1E1F27"/>
</svg>
