<svg width="36" height="36" viewBox="0 0 36 36" fill="none" xmlns="http://www.w3.org/2000/svg">
<rect width="36" height="36" rx="18" fill="white"/>
<path fill-rule="evenodd" clip-rule="evenodd" d="M7.78097 22.2869C6.36596 20.8778 6.36598 18.5932 7.78102 17.1841L11.6243 13.3569C12.8205 12.1657 14.645 11.9815 16.0355 12.8042C16.4657 13.0587 16.4619 13.6425 16.1081 13.9947C15.7544 14.347 15.1769 14.3167 14.6967 14.1768C14.0818 13.9978 13.3903 14.1497 12.9054 14.6326L9.0621 18.4598C8.35459 19.1643 8.35458 20.3066 9.06208 21.0112C9.7696 21.7158 10.9167 21.7158 11.6243 21.0112L19.3108 13.3569C20.7259 11.9478 23.02 11.9478 24.4351 13.3569L28.2785 17.1841C29.6935 18.5931 29.6935 20.8778 28.2785 22.2869C26.8634 23.696 24.5692 23.696 23.1541 22.2869L21.873 21.0112L20.2717 22.6058C19.0755 23.797 17.251 23.9812 15.8604 23.1585C15.4303 22.904 15.4341 22.3203 15.7879 21.968C16.1416 21.6157 16.719 21.646 17.1993 21.7858C17.8141 21.9649 18.5056 21.813 18.9906 21.3301L20.6377 19.6899C21.32 19.0105 22.4261 19.0105 23.1084 19.6899L24.4352 21.0112C25.1427 21.7157 26.2898 21.7157 26.9973 21.0112C27.7049 20.3066 27.7049 19.1643 26.9973 18.4598L23.154 14.6326C22.4465 13.9281 21.2994 13.9281 20.5919 14.6326L12.9054 22.2869C11.4903 23.696 9.19602 23.696 7.78097 22.2869Z" fill="#1E1F27"/>
</svg>
