<svg width="36" height="36" viewBox="0 0 36 36" fill="none" xmlns="http://www.w3.org/2000/svg">
<rect width="36" height="36" rx="18" fill="white"/>
<path d="M9.87712 9.06358L20.7003 8.26417C22.0297 8.15013 22.3713 8.227 23.2073 8.83473L26.6621 11.2686C27.2319 11.6872 27.4217 11.8012 27.4217 12.2569V25.6053C27.4217 26.4419 27.1179 26.9367 26.0544 27.0122L13.4859 27.7735C12.6879 27.8113 12.3078 27.6972 11.8898 27.1646L9.34568 23.8562C8.88934 23.2473 8.7002 22.7916 8.7002 22.2588V10.3937C8.7002 9.70965 9.00396 9.13928 9.87712 9.06358Z" fill="white"/>
<path fill-rule="evenodd" clip-rule="evenodd" d="M20.7003 8.26417L9.87712 9.06358C9.00396 9.13928 8.7002 9.70965 8.7002 10.3937V22.2588C8.7002 22.7916 8.88934 23.2473 9.34568 23.8562L11.8898 27.1646C12.3078 27.6972 12.6879 27.8113 13.4859 27.7735L26.0544 27.0122C27.1179 26.9367 27.4217 26.4419 27.4217 25.6053V12.2569C27.4217 11.8247 27.2511 11.7003 26.7484 11.3314L23.2073 8.83473C22.3713 8.227 22.0297 8.15013 20.7003 8.26417ZM13.7701 12.0387C12.7438 12.1077 12.5111 12.1234 11.9282 11.6494L10.4463 10.4707C10.2957 10.3182 10.3714 10.1278 10.7509 10.0899L21.1554 9.3296C22.0292 9.25331 22.4841 9.55786 22.8258 9.82388L24.6103 11.1168C24.6866 11.1553 24.8763 11.3828 24.648 11.3828L13.9032 12.0297L13.7701 12.0387ZM12.5737 25.4914V14.1597C12.5737 13.6649 12.7256 13.4366 13.1806 13.3983L25.5218 12.6757C25.9404 12.638 26.1295 12.904 26.1295 13.3981V24.6543C26.1295 25.1491 26.0532 25.5677 25.37 25.6055L13.5603 26.2901C12.877 26.3278 12.5737 26.1003 12.5737 25.4914ZM24.2314 14.7673C24.3071 15.1096 24.2314 15.4519 23.8891 15.491L23.3199 15.6039V23.9703C22.8256 24.2363 22.3707 24.3883 21.9904 24.3883C21.3827 24.3883 21.2309 24.1979 20.7758 23.628L17.0535 17.7717V23.4376L18.231 23.7042C18.231 23.7042 18.231 24.3888 17.281 24.3888L14.6619 24.5408C14.5856 24.3883 14.6619 24.0082 14.9273 23.9325L15.6113 23.7428V16.2513L14.6621 16.1744C14.5858 15.8321 14.7755 15.3378 15.3076 15.2995L18.1177 15.1104L21.9906 21.0423V15.7944L21.0034 15.6809C20.9272 15.2618 21.2309 14.9572 21.6104 14.92L24.2314 14.7673Z" fill="#1E1F27"/>
</svg>
