<svg width="36" height="36" viewBox="0 0 36 36" fill="none" xmlns="http://www.w3.org/2000/svg">
<rect width="36" height="36" rx="18" fill="white"/>
<path fill-rule="evenodd" clip-rule="evenodd" d="M17.9998 31.3334C25.3636 31.3334 31.3332 25.3639 31.3332 18.0001C31.3332 10.6363 25.3636 4.66675 17.9998 4.66675C10.636 4.66675 4.6665 10.6363 4.6665 18.0001C4.6665 25.3639 10.636 31.3334 17.9998 31.3334ZM25.0808 9.70115C23.3375 10.5083 21.1413 13.2566 22.4261 16.8077C23.7832 20.5585 23.9279 24.1338 23.1082 26.4399C22.6885 27.6204 21.5839 28.3832 20.3604 28.6531C19.6003 28.8208 18.8104 28.9092 17.9998 28.9092C14.5853 28.9092 11.5372 27.3405 9.53692 24.8845C9.59058 24.8953 9.64554 24.9056 9.70181 24.9152C12.4826 25.393 14.7998 23.3013 15.5842 17.2489C16.0506 13.6496 17.1238 10.9422 18.7715 8.96084C19.703 7.84074 21.2735 7.4886 22.5945 8.10288C23.4971 8.52262 24.3327 9.06219 25.0808 9.70115ZM17.9998 7.09099C18.0792 7.09099 18.1583 7.09184 18.2372 7.09352C18.1405 7.1124 18.0405 7.1349 17.9371 7.16149C16.3685 7.56495 14.4077 10.793 13.6234 13.6174C13.3186 14.7149 12.0547 19.2664 9.30965 20.0734C8.89374 20.1956 8.46232 20.0929 8.0625 19.8769C7.39923 19.5185 7.09075 18.754 7.09075 18.0001L-nan -nanL7.09075 18.0001C7.09075 17.182 7.1808 16.3849 7.35152 15.6183C8.18891 15.539 9.48327 15.1714 10.1653 14.4244C10.5857 13.9639 11.1403 13.0311 11.7741 11.965C12.4036 10.9062 13.1112 9.71594 13.8431 8.7266C14.4385 7.9218 15.32 7.3751 16.3092 7.2212C16.8602 7.13548 17.4248 7.09099 17.9998 7.09099Z" fill="#1E1F27"/>
</svg>
