<svg width="36" height="36" viewBox="0 0 36 36" fill="none" xml:space="preserve" xmlns="http://www.w3.org/2000/svg"><path fill="#fff" d="M0 18C0 8.059 8.059 0 18 0s18 8.059 18 18-8.059 18-18 18S0 27.941 0 18" style="stroke-width:1.33333"/>
<path fill="#1e1f27" fill-rule="evenodd" d="M18 31.333c7.364 0 13.333-5.97 13.333-13.333S25.363 4.667 18 4.667 4.667 10.636 4.667 18 10.637 31.333 18 31.333m7.08-21.632c-1.743.807-3.939 3.555-2.654 7.107 1.357 3.75 1.502 7.326.682 9.632-.42 1.18-1.524 1.943-2.747 2.213a11 11 0 0 1-2.361.256 10.89 10.89 0 0 1-8.463-4.025q.08.017.165.031c2.78.478 5.098-1.614 5.882-7.666.467-3.6 1.54-6.307 3.187-8.288a3.21 3.21 0 0 1 3.824-.858A11 11 0 0 1 25.08 9.7M18 7.091q.118 0 .237.003-.145.028-.3.068c-1.569.403-3.53 3.631-4.314 6.456-.304 1.097-1.568 5.649-4.313 6.455-.416.123-.848.02-1.247-.196-.664-.358-.972-1.123-.972-1.877L4.667 31.334 7.09 18c0-.818.09-1.615.26-2.382.838-.08 2.132-.447 2.814-1.194.42-.46.975-1.393 1.61-2.46.629-1.058 1.336-2.248 2.068-3.237A3.8 3.8 0 0 1 16.31 7.22 11 11 0 0 1 18 7.091" style="stroke-width:1.33333"/>
</svg>