<svg width="36" height="36" viewBox="0 0 36 36" fill="none" xmlns="http://www.w3.org/2000/svg">
<rect width="36" height="36" rx="18" fill="white"/>
<path d="M13.0346 8.96094H23.0286C24.8928 8.96094 26.359 10.4037 26.2889 12.1747V22.9276C26.2889 24.6959 24.8256 26.1386 23.0258 26.1386H20.828L22.0278 29.9399L16.2333 26.1386H13.0374C11.1732 26.1386 9.70704 24.6959 9.70704 22.8614V12.1774C9.70424 10.4037 11.1704 8.96094 13.0346 8.96094ZM16.9173 20.7621C16.5781 20.5773 16.3062 20.3097 16.1015 19.9566C15.8969 19.6035 15.7959 19.1787 15.7959 18.6849V12.9554C15.7959 12.8671 15.7763 12.7981 15.7343 12.754C15.695 12.7071 15.6277 12.685 15.5324 12.685H14.0438C14.0102 12.685 13.9766 12.6905 13.9457 12.7043C13.9149 12.7181 13.8869 12.7374 13.8672 12.765C13.8196 12.8174 13.7943 12.8864 13.7971 12.9581V18.6629C13.7971 19.576 13.9878 20.3401 14.369 20.9608C14.7503 21.5787 15.2605 22.0394 15.9053 22.3428C16.5472 22.6463 17.2649 22.7952 18.0555 22.7952C18.8488 22.7952 19.5665 22.6463 20.2084 22.3511C20.8504 22.0559 21.3606 21.6008 21.7419 20.9828C22.1231 20.3649 22.3138 19.598 22.3138 18.6822V12.9609C22.3138 12.925 22.3082 12.8892 22.2941 12.8533C22.2801 12.8202 22.2605 12.7871 22.2353 12.7623C22.182 12.7098 22.1119 12.6823 22.0222 12.6823H20.6037C20.5196 12.6823 20.4495 12.7071 20.3991 12.7595C20.3458 12.8119 20.3206 12.8781 20.3206 12.9609V18.6849C20.3206 19.1456 20.2196 19.5566 20.0178 19.9125C19.816 20.2711 19.544 20.547 19.1992 20.7428C18.8544 20.9387 18.4732 21.0352 18.0583 21.0352C17.6349 21.038 17.2565 20.947 16.9173 20.7621Z" fill="#1E1F27"/>
</svg>
