<svg width="36" height="36" viewBox="0 0 36 36" fill="none" xmlns="http://www.w3.org/2000/svg">
<rect width="36" height="36" rx="18" fill="white"/>
<path d="M18.0037 7.95394C18.8494 7.95394 19.6724 8.0457 20.4953 8.25215C20.701 8.29802 20.9296 8.18333 20.9982 7.97688C21.0896 7.74749 20.9753 7.49517 20.7467 7.40341C20.7239 7.40341 20.701 7.38047 20.701 7.38047C18.9409 6.96758 17.1122 6.96758 15.352 7.38047C15.1234 7.44929 14.9863 7.67868 15.032 7.90807C15.032 7.931 15.032 7.95394 15.0549 7.95394C15.1234 8.16039 15.352 8.27509 15.5578 8.22921C16.3578 8.0457 17.1807 7.95394 18.0037 7.95394Z" fill="#1E1F27"/>
<path d="M23.3981 9.12393C23.3752 9.30744 23.4438 9.46801 23.6038 9.55976C28.4727 12.6565 29.9357 19.1482 26.8498 24.0571C23.7638 28.9659 17.2948 30.434 12.4258 27.3373C7.55689 24.2406 6.07107 17.7489 9.15701 12.84C10.0028 11.5096 11.1229 10.3856 12.4487 9.53682C12.6087 9.44507 12.6773 9.26156 12.6544 9.10099C12.6087 8.8716 12.403 8.68809 12.1515 8.73397C12.1058 8.73397 12.0372 8.75691 11.9915 8.80278C6.68825 12.1289 5.06528 19.1482 8.37981 24.4699C11.6943 29.7917 18.6892 31.4204 23.9924 28.0943C29.2957 24.7682 30.9415 17.7718 27.627 12.4271C26.7126 10.982 25.5011 9.74327 24.0381 8.82572C23.8324 8.71103 23.5581 8.77985 23.4438 8.98629C23.4209 9.03217 23.3981 9.07805 23.3981 9.12393Z" fill="#1E1F27"/>
<path d="M20.3579 12.106C19.8093 11.9913 19.2378 11.9225 18.6892 11.8766C18.4606 11.8766 18.232 11.8537 18.0034 11.8537C17.3177 11.8537 16.6319 11.8996 15.969 12.0372C14.5517 12.2895 13.2031 12.7942 11.9687 13.5282C11.1686 14.0099 10.4143 14.5605 9.72851 15.2257C9.54564 15.3863 9.47707 15.6156 9.49992 15.868L10.5971 24.5618C13.9345 28.6678 19.9693 29.2871 24.061 25.9151C24.5639 25.5022 25.0211 25.0435 25.4097 24.5618L25.5697 23.2542C26.5983 22.6808 27.2384 21.5568 27.2155 20.364C27.2384 19.4694 26.8727 18.5977 26.2326 17.9554L26.4841 15.868C26.5069 15.6386 26.4383 15.4092 26.2783 15.2486C24.6553 13.6429 22.5752 12.5648 20.3579 12.106Z" fill="#1E1F27"/>
<path d="M16.9518 22.6807C16.609 22.8642 16.2432 22.956 15.8546 22.956C14.4831 22.956 13.4544 21.8549 13.4544 20.3639C13.4544 18.8729 14.4831 17.7718 15.8546 17.7718C16.4261 17.7718 16.9976 17.9783 17.409 18.3682C17.9576 18.8729 18.2777 19.6069 18.2548 20.3639C18.3005 21.3044 17.7976 22.199 16.9518 22.6807Z" fill="#1E1F27"/>
<path d="M25.2953 22.6807C24.9524 22.8642 24.5866 22.956 24.198 22.956C22.8265 22.956 21.7979 21.8549 21.7979 20.3639C21.7979 18.8729 22.8265 17.7718 24.198 17.7718C24.7695 17.7718 25.341 17.9783 25.7524 18.3682C26.3011 18.8729 26.6211 19.6069 26.5982 20.3639C26.6439 21.3044 26.1182 22.199 25.2953 22.6807Z" fill="#1E1F27"/>
<path d="M14.0945 12.5417L13.3402 7.63284C12.5401 7.67872 11.8543 7.05937 11.8086 6.23358C11.7629 5.52247 12.2429 4.90313 12.9287 4.74256C13.7059 4.55905 14.4831 5.04076 14.6888 5.79774C14.8488 6.46296 14.5517 7.15113 13.9345 7.47227L15.7175 12.1059C15.1689 12.2206 14.6203 12.3582 14.0945 12.5417Z" fill="#1E1F27"/>
<path d="M20.3579 12.106L22.141 7.44937C21.4324 7.08235 21.1352 6.18774 21.5238 5.47664C21.8439 4.8573 22.5753 4.53615 23.2382 4.7426C24.0154 4.97199 24.4498 5.79778 24.2212 6.5777C24.0383 7.21999 23.4211 7.65582 22.7582 7.60995C22.5296 9.03215 22.2553 10.8214 21.981 12.5418C21.4324 12.3812 20.9065 12.2207 20.3579 12.106Z" fill="#1E1F27"/>
<path d="M16.9518 22.6807C16.609 22.8642 16.2432 22.956 15.8546 22.956C14.4831 22.956 13.4544 21.8549 13.4544 20.3639C13.4544 18.8729 14.4831 17.7718 15.8546 17.7718C16.4261 17.7718 16.9976 17.9783 17.409 18.3682C17.9576 18.8729 18.2777 19.6069 18.2548 20.3639C18.3005 21.3044 17.7976 22.199 16.9518 22.6807Z" fill="white"/>
<path d="M25.2953 22.6807C24.9524 22.8642 24.5866 22.956 24.198 22.956C22.8265 22.956 21.7979 21.8549 21.7979 20.3639C21.7979 18.8729 22.8265 17.7718 24.198 17.7718C24.7695 17.7718 25.341 17.9783 25.7524 18.3682C26.3011 18.8729 26.6211 19.6069 26.5982 20.3639C26.6439 21.3044 26.1182 22.199 25.2953 22.6807Z" fill="white"/>
<path d="M24.3811 19.3776C24.244 19.1483 24.0154 19.0106 23.7411 19.0106C23.4897 19.0106 23.2611 19.1253 23.1239 19.3547C22.941 19.607 22.8496 19.9282 22.8496 20.2493C22.8267 20.5705 22.9182 20.8916 23.1011 21.1669C23.2839 21.511 23.7182 21.6486 24.0611 21.4421C24.1754 21.3733 24.2669 21.2816 24.3354 21.1669C24.5183 20.9145 24.6097 20.6163 24.6097 20.2952C24.6555 19.9741 24.564 19.6529 24.3811 19.3776Z" fill="#1E1F27"/>
<path d="M23.9238 20.1575C24.0879 20.1575 24.2209 20.0239 24.2209 19.8593C24.2209 19.6946 24.0879 19.5611 23.9238 19.5611C23.7597 19.5611 23.6266 19.6946 23.6266 19.8593C23.6266 20.0239 23.7597 20.1575 23.9238 20.1575Z" fill="white"/>
<path d="M16.0604 19.3776C15.9233 19.1483 15.6947 19.0106 15.4204 19.0106C15.1689 19.0106 14.9404 19.1253 14.8032 19.3547C14.6203 19.607 14.5289 19.9282 14.5289 20.2493C14.506 20.5705 14.5975 20.8916 14.7803 21.1669C14.9632 21.511 15.3975 21.6486 15.7404 21.4421C15.8547 21.3733 15.9461 21.2816 16.0147 21.1669C16.1976 20.9145 16.289 20.6163 16.289 20.2952C16.3119 19.9741 16.2433 19.6529 16.0604 19.3776Z" fill="#1E1F27"/>
<path d="M15.5803 20.1575C15.7444 20.1575 15.8775 20.0239 15.8775 19.8593C15.8775 19.6946 15.7444 19.5611 15.5803 19.5611C15.4162 19.5611 15.2831 19.6946 15.2831 19.8593C15.2831 20.0239 15.4162 20.1575 15.5803 20.1575Z" fill="white"/>
</svg>
