<svg width="36" height="36" viewBox="0 0 36 36" fill="none" xmlns="http://www.w3.org/2000/svg">
<rect width="36" height="36" rx="18" fill="white"/>
<path d="M19.4385 22.871C19.3507 22.5578 19.2675 22.224 19.1895 21.8728C19.4565 22.1813 19.7205 22.4718 19.9789 22.7412C19.797 22.7891 19.6168 22.8322 19.4385 22.871Z" fill="#1E1F27"/>
<path fill-rule="evenodd" clip-rule="evenodd" d="M20.8509 24.3152C20.9803 23.8689 21.0831 23.3869 21.1581 23.0112C21.2138 23.0644 21.2691 23.1165 21.3241 23.1674C21.7851 23.5941 22.1991 23.921 22.563 24.1421C22.9232 24.361 23.2528 24.488 23.5407 24.488C23.7089 24.488 23.8653 24.4444 23.9982 24.3517C24.1974 24.2126 24.2967 23.9976 24.3348 23.7627C24.3725 23.5296 24.3531 23.2613 24.3021 22.9847C24.1999 22.4305 23.9616 21.7968 23.7205 21.2483L23.6825 21.162C26.6072 19.398 28.2522 16.9016 27.5249 14.9098C26.7861 12.8879 23.806 12.0279 20.3341 12.6168L20.3255 12.5874C20.3127 12.5442 20.2983 12.4936 20.2822 12.4368C20.1874 12.1033 20.0326 11.5587 19.8047 11.0786C19.6712 10.7975 19.5066 10.5248 19.3036 10.3253C19.0984 10.1236 18.841 9.98518 18.5331 10.0096L18.5317 10.0098C18.1545 10.0428 17.86 10.3881 17.6557 10.8302C17.4758 11.2196 17.3422 11.7316 17.2751 12.3227C16.8883 11.9877 16.5632 11.7534 16.2899 11.5926C15.8861 11.3551 15.5849 11.2721 15.3588 11.2721C15.1914 11.2721 15.0355 11.3154 14.9028 11.4078C14.5964 11.6218 14.5104 12.0143 14.5566 12.4843C14.6035 12.9609 14.7901 13.5753 15.1049 14.3179C15.5875 15.456 16.337 16.8031 17.2494 18.1828C17.2893 18.6556 17.343 19.133 17.4066 19.6016C17.3387 19.5069 17.2711 19.4116 17.2036 19.3156C16.1044 17.7518 15.1899 16.1879 14.6085 14.8808C13.3833 15.7033 12.4236 16.6554 11.8242 17.6271L8.30469 18.9033L10.2792 21.1632L10.2245 24.1588L13.736 22.8858C13.736 22.8858 15.5921 23.3767 18.1024 23.0912C18.1326 23.1976 18.1626 23.2985 18.1924 23.3933C18.3765 23.9805 18.5797 24.544 18.8299 24.969C19.0765 25.3878 19.3984 25.722 19.8375 25.7529C19.9846 25.7632 20.1115 25.7026 20.2133 25.6161C20.3133 25.5311 20.3989 25.4136 20.4731 25.2837C20.6218 25.0234 20.7468 24.6739 20.8509 24.3152ZM19.5954 12.7625C19.4002 12.1012 19.1837 11.5537 18.9805 11.1967C18.886 11.0312 18.7979 10.912 18.7221 10.8366C18.6843 10.7992 18.6532 10.7761 18.6296 10.7631C18.6109 10.7528 18.6004 10.7507 18.597 10.7503C18.5924 10.752 18.567 10.7622 18.5239 10.8127C18.4719 10.8736 18.4093 10.9763 18.3435 11.135C18.2124 11.4517 18.0809 11.9612 17.9859 12.7221C17.9436 13.0608 17.9275 13.404 17.9003 13.7496L17.8855 13.9371L17.8822 13.9338C17.8209 15.1175 17.8515 16.4936 17.9751 17.9303C18.1222 18.1501 18.2735 18.3707 18.4287 18.5916C18.5238 18.7269 18.6193 18.8608 18.7151 18.9932C18.6777 18.6715 18.6443 18.3444 18.6152 18.0137C18.4534 16.1675 18.4436 14.413 18.5856 13.0272C18.9245 12.9257 19.2616 12.8375 19.5954 12.7625ZM21.4505 22.2574C21.5793 22.3853 21.7062 22.5072 21.8308 22.6226C22.9683 23.676 23.4389 23.7469 23.5345 23.7469C23.5572 23.7469 23.5679 23.7437 23.5714 23.7424C23.5747 23.7385 23.5933 23.7152 23.6053 23.6425C23.6195 23.5569 23.6199 23.4268 23.5921 23.2431C23.5367 22.8768 23.3746 22.3305 23.0401 21.5691L23.0248 21.5346C22.5292 21.7982 22.0029 22.0408 21.4505 22.2574ZM20.5176 22.49C20.5176 22.4467 20.5183 22.4062 20.5198 22.3682C19.7491 21.5539 18.9339 20.5608 18.1425 19.4707C18.328 20.8781 18.5903 22.1593 18.9036 23.1738C19.092 23.784 19.2959 24.2775 19.4905 24.605C19.5052 24.6299 19.5195 24.6552 19.5338 24.6808C19.5742 24.7527 19.6155 24.8262 19.6706 24.8937C19.7319 24.9689 19.7834 25.0015 19.829 25.0085C19.8326 25.0048 19.8369 25.0001 19.8418 24.9942C19.8714 24.9587 19.9088 24.9 19.9516 24.8166C20.0364 24.6514 20.1283 24.4162 20.2134 24.1459C20.3843 23.6033 20.5176 22.9517 20.5176 22.49ZM17.1934 13.5174C17.1976 13.4321 17.2021 13.3481 17.2067 13.2654C16.6459 12.7303 16.2327 12.4205 15.9372 12.2429C15.5944 12.0369 15.4202 12.0148 15.3633 12.0148C15.346 12.0148 15.3353 12.0166 15.3298 12.018C15.325 12.0242 15.3095 12.0472 15.2985 12.1068C15.284 12.1854 15.2813 12.3054 15.3039 12.4756C15.3492 12.8151 15.4909 13.3218 15.7905 14.0282C15.8071 14.0672 15.824 14.1066 15.8412 14.1461C16.2702 13.9197 16.7219 13.709 17.1934 13.5174Z" fill="#1E1F27"/>
</svg>
