<svg width="37" height="36" viewBox="0 0 37 36" fill="none" xmlns="http://www.w3.org/2000/svg">
<path d="M2.40168 9.93424C2.09318 9.62575 1.98992 9.16718 2.13641 8.75623L2.21602 8.53291C3.10784 6.03115 5.11102 4.08549 7.6377 3.26693C8.01993 3.14309 8.43933 3.24397 8.72344 3.52809L9.32117 4.12582C9.90696 4.7116 9.90696 5.66135 9.32117 6.24714L5.07853 10.4898C4.49274 11.0756 3.543 11.0756 2.95721 10.4898L2.40168 9.93424Z" fill="white"/>
<path d="M34.0783 8.75623C34.2248 9.16718 34.1215 9.62575 33.813 9.93424L33.2575 10.4898C32.6717 11.0756 31.7219 11.0756 31.1361 10.4898L26.8935 6.24714C26.3077 5.66135 26.3077 4.7116 26.8935 4.12582L27.4912 3.52809C27.7753 3.24397 28.1947 3.14309 28.577 3.26693C31.1036 4.08549 33.1068 6.03115 33.9986 8.53291L34.0783 8.75623Z" fill="white"/>
<path fill-rule="evenodd" clip-rule="evenodd" d="M31.8329 19.5004C31.8329 22.3028 30.979 24.9058 29.5172 27.0634L32.8936 30.4398C33.4794 31.0256 33.4794 31.9754 32.8936 32.5611C32.3078 33.1469 31.358 33.1469 30.7723 32.5611L27.5631 29.352C25.149 31.6148 21.9028 33.0004 18.3329 33.0004C14.7631 33.0004 11.5168 31.6148 9.10273 29.352L5.89358 32.5611C5.3078 33.1469 4.35805 33.1469 3.77226 32.5611C3.18648 31.9754 3.18648 31.0256 3.77226 30.4398L7.14869 27.0634C5.68685 24.9058 4.83292 22.3028 4.83292 19.5004C4.83292 12.0445 10.8771 6.00038 18.3329 6.00038C25.7888 6.00038 31.8329 12.0445 31.8329 19.5004ZM16.8335 15.0002C16.8335 14.1718 17.5051 13.5002 18.3335 13.5002C19.1619 13.5002 19.8335 14.1718 19.8335 15.0002V18.0002H22.8335C23.6619 18.0002 24.3335 18.6718 24.3335 19.5002C24.3335 20.3287 23.6619 21.0002 22.8335 21.0002H19.8335V24.0002C19.8335 24.8287 19.1619 25.5002 18.3335 25.5002C17.5051 25.5002 16.8335 24.8287 16.8335 24.0002V21.0002H13.8335C13.0051 21.0002 12.3335 20.3287 12.3335 19.5002C12.3335 18.6718 13.0051 18.0002 13.8335 18.0002H16.8335V15.0002Z" fill="white"/>
</svg>
