<svg width="37" height="36" viewBox="0 0 37 36" fill="none" xmlns="http://www.w3.org/2000/svg">
<path fill-rule="evenodd" clip-rule="evenodd" d="M34.0783 8.75623C34.2248 9.16718 34.1215 9.62575 33.813 9.93424L33.2575 10.4898C32.6717 11.0756 31.7219 11.0756 31.1361 10.4898L26.8935 6.24714C26.3077 5.66135 26.3077 4.7116 26.8935 4.12582L27.4912 3.52809C27.7753 3.24397 28.1947 3.14309 28.577 3.26693C31.2108 4.12021 33.159 6.17754 34.0783 8.75623ZM8.48147 10.27C6.21861 12.6841 4.83292 15.9304 4.83292 19.5004C4.83292 22.3028 5.68685 24.9058 7.14869 27.0634L3.77226 30.4398C3.18648 31.0256 3.18648 31.9754 3.77226 32.5612C4.35805 33.1469 5.3078 33.1469 5.89358 32.5612L9.10273 29.352C11.5168 31.6148 14.7631 33.0004 18.3329 33.0004C21.9028 33.0004 25.149 31.6148 27.5631 29.352L30.7723 32.5612C31.358 33.1469 32.3078 33.1469 32.8936 32.5612C33.4085 32.0462 33.4708 31.2501 33.0805 30.6672L6.26264 3.84931C4.282 4.90081 2.88267 6.66282 2.13641 8.75623C1.98992 9.16718 2.09318 9.62575 2.40168 9.93424L2.95721 10.4898C3.543 11.0756 4.49274 11.0756 5.07853 10.4898L6.88989 8.67842L8.48147 10.27ZM31.8329 19.5004C31.8329 21.1905 31.5223 22.8081 30.9551 24.2992L28.5572 21.9012C28.7375 21.1302 28.8329 20.3264 28.8329 19.5004C28.8329 13.7014 24.1319 9.00038 18.3329 9.00038C17.5069 9.00038 16.7031 9.09576 15.9321 9.27612L13.5341 6.87817C15.0252 6.31096 16.6428 6.00038 18.3329 6.00038C25.7888 6.00038 31.8329 12.0445 31.8329 19.5004Z" fill="white"/>
</svg>
