<svg width="37" height="36" viewBox="0 0 37 36" fill="none" xmlns="http://www.w3.org/2000/svg">
<path d="M2.40168 9.93424C2.09318 9.62575 1.98992 9.16718 2.13641 8.75623L2.21602 8.53291C3.10784 6.03115 5.11102 4.08549 7.6377 3.26693C8.01993 3.14309 8.43933 3.24397 8.72344 3.52809L9.32117 4.12582C9.90696 4.7116 9.90696 5.66135 9.32117 6.24714L5.07853 10.4898C4.49274 11.0756 3.543 11.0756 2.95721 10.4898L2.40168 9.93424Z" fill="white"/>
<path d="M34.0783 8.75623C34.2248 9.16718 34.1215 9.62575 33.813 9.93424L33.2575 10.4898C32.6717 11.0756 31.7219 11.0756 31.1361 10.4898L26.8935 6.24714C26.3077 5.66135 26.3077 4.7116 26.8935 4.12582L27.4912 3.52809C27.7753 3.24397 28.1947 3.14309 28.577 3.26693C31.1036 4.08549 33.1068 6.03115 33.9986 8.53291L34.0783 8.75623Z" fill="white"/>
<path fill-rule="evenodd" clip-rule="evenodd" d="M31.8329 19.5004C31.8329 22.3028 30.979 24.9058 29.5172 27.0634L32.8936 30.4398C33.4794 31.0256 33.4794 31.9754 32.8936 32.5611C32.3078 33.1469 31.358 33.1469 30.7723 32.5611L27.5631 29.352C25.149 31.6148 21.9028 33.0004 18.3329 33.0004C14.7631 33.0004 11.5168 31.6148 9.10273 29.352L5.89358 32.5611C5.3078 33.1469 4.35805 33.1469 3.77226 32.5611C3.18648 31.9754 3.18648 31.0256 3.77226 30.4398L7.14869 27.0634C5.68685 24.9058 4.83292 22.3028 4.83292 19.5004C4.83292 12.0445 10.8771 6.00038 18.3329 6.00038C25.7888 6.00038 31.8329 12.0445 31.8329 19.5004ZM24.6442 16.8109C25.2299 16.2251 25.2299 15.2754 24.6442 14.6896C24.0584 14.1038 23.1086 14.1038 22.5228 14.6896L16.8335 20.3789L14.8942 18.4396C14.3084 17.8538 13.3586 17.8538 12.7728 18.4396C12.187 19.0254 12.187 19.9751 12.7728 20.5609L15.7728 23.5609C16.3586 24.1467 17.3084 24.1467 17.8942 23.5609L24.6442 16.8109Z" fill="white"/>
</svg>
