<svg width="36" height="36" viewBox="0 0 36 36" fill="none" xmlns="http://www.w3.org/2000/svg">
<path fill-rule="evenodd" clip-rule="evenodd" d="M6 6C6 4.34315 7.34315 3 9 3H21.2574C22.053 3 22.8161 3.31607 23.3787 3.87868L29.1213 9.62132C29.6839 10.1839 30 10.947 30 11.7426V30C30 31.6569 28.6569 33 27 33H9C7.34315 33 6 31.6569 6 30V6ZM23.5607 17.5607C24.1464 16.9749 24.1464 16.0251 23.5607 15.4393C22.9749 14.8536 22.0251 14.8536 21.4393 15.4393L16.5 20.3787L14.5607 18.4393C13.9749 17.8536 13.0251 17.8536 12.4393 18.4393C11.8536 19.0251 11.8536 19.9749 12.4393 20.5607L15.4393 23.5607C16.0251 24.1464 16.9749 24.1464 17.5607 23.5607L23.5607 17.5607Z" fill="white"/>
</svg>
