<svg width="37" height="36" viewBox="0 0 37 36" fill="none" xmlns="http://www.w3.org/2000/svg">
<path d="M6.66487 3C5.83748 3 5.16675 3.66702 5.16675 4.48984V22.3679C5.16675 23.1907 5.83748 23.8578 6.66487 23.8578H20.148C20.9754 23.8578 21.6461 23.1907 21.6461 22.3679V4.48984C21.6461 3.66702 20.9754 3 20.148 3H6.66487Z" fill="white"/>
<path fill-rule="evenodd" clip-rule="evenodd" d="M24.6943 10.8041C24.9104 10.0104 25.7329 9.54133 26.5316 9.75634L32.5595 11.3792C33.3567 11.5938 33.829 12.4091 33.6154 13.2018L28.5784 31.8964C28.3644 32.6906 27.543 33.1618 26.7438 32.9488L15.2697 29.8913C14.4705 29.6784 13.9961 28.8619 14.2101 28.0677C14.4241 27.2735 15.2454 26.8023 16.0446 27.0153L26.0717 29.6871L30.3348 13.865L25.7492 12.6304C24.9505 12.4154 24.4782 11.5977 24.6943 10.8041Z" fill="white"/>
</svg>
