<svg width="37" height="36" viewBox="0 0 37 36" fill="none" xmlns="http://www.w3.org/2000/svg">
<path fill-rule="evenodd" clip-rule="evenodd" d="M33.3335 18C33.3335 26.2843 26.6178 33 18.3335 33C10.0492 33 3.3335 26.2843 3.3335 18C3.3335 9.71573 10.0492 3 18.3335 3C26.6178 3 33.3335 9.71573 33.3335 18ZM18.3335 9C17.5051 9 16.8335 9.67157 16.8335 10.5V19.5C16.8335 20.3284 17.5051 21 18.3335 21H25.8335C26.6619 21 27.3335 20.3284 27.3335 19.5C27.3335 18.6716 26.6619 18 25.8335 18H19.8335V10.5C19.8335 9.67157 19.1619 9 18.3335 9Z" fill="white"/>
</svg>
