<svg width="36" height="36" viewBox="0 0 36 36" fill="none" xmlns="http://www.w3.org/2000/svg">
<path fill-rule="evenodd" clip-rule="evenodd" d="M6 6C6 4.34315 7.34315 3 9 3H21.2574C22.053 3 22.8161 3.31607 23.3787 3.87868L29.1213 9.62132C29.6839 10.1839 30 10.947 30 11.7426V30C30 31.6569 28.6569 33 27 33H9C7.34315 33 6 31.6569 6 30V6ZM13.9393 15.4393C14.5251 14.8536 15.4749 14.8536 16.0607 15.4393L18 17.3787L19.9393 15.4393C20.5251 14.8536 21.4749 14.8536 22.0607 15.4393C22.6464 16.0251 22.6464 16.9749 22.0607 17.5607L20.1213 19.5L22.0607 21.4393C22.6464 22.0251 22.6464 22.9749 22.0607 23.5607C21.4749 24.1464 20.5251 24.1464 19.9393 23.5607L18 21.6213L16.0607 23.5607C15.4749 24.1464 14.5251 24.1464 13.9393 23.5607C13.3536 22.9749 13.3536 22.0251 13.9393 21.4393L15.8787 19.5L13.9393 17.5607C13.3536 16.9749 13.3536 16.0251 13.9393 15.4393Z" fill="white"/>
</svg>
