<svg width="36" height="36" viewBox="0 0 36 36" fill="none" xmlns="http://www.w3.org/2000/svg">
<path fill-rule="evenodd" clip-rule="evenodd" d="M6 7.2C6 4.92052 7.80727 3 10.125 3H20.8502C21.9581 3 23.0117 3.45307 23.7818 4.24519L28.8067 9.41357C29.5754 10.2043 30 11.2679 30 12.3684V28.8C30 31.0795 28.1927 33 25.875 33H10.125C7.80727 33 6 31.0795 6 28.8V7.2ZM19.5 13.5H27V12.3684C27 12.0367 26.8715 11.7268 26.6557 11.5048L21.6309 6.33643C21.4164 6.11586 21.1347 6 20.8502 6H19.5V13.5Z" fill="white"/>
</svg>
