<svg width="37" height="36" viewBox="0 0 37 36" fill="none" xmlns="http://www.w3.org/2000/svg">
<path d="M24.5663 7.65073C22.6846 6.66821 20.5813 6 18.3328 6C14.3673 6 10.8531 8.07852 8.21048 10.294C5.54227 12.5309 3.56804 15.0707 2.65584 16.3395C1.93829 17.3376 1.93829 18.6624 2.65584 19.6605C3.46151 20.7811 5.09562 22.8932 7.30462 24.9124L11.3861 20.8309C11.0298 19.9574 10.8335 19.0016 10.8335 18C10.8335 13.8579 14.1914 10.5 18.3335 10.5C19.3351 10.5 20.2909 10.6963 21.1644 11.0526L24.5663 7.65073Z" fill="white"/>
<path fill-rule="evenodd" clip-rule="evenodd" d="M21.5779 14.8817L21.5792 14.883L23.7007 12.7614L23.6995 12.7602L27.173 9.28666L27.1744 9.28773L31.5228 4.93934C32.1086 4.35355 33.0584 4.35355 33.6442 4.93934C34.2299 5.52513 34.2299 6.47487 33.6442 7.06066L29.4945 11.2103C31.6359 13.1919 33.2205 15.2416 34.0098 16.3395C34.7274 17.3376 34.7274 18.6624 34.0098 19.6605C33.0976 20.9293 31.1234 23.4691 28.4552 25.706C25.8126 27.9215 22.2984 30 18.3328 30C16.1515 30 14.1067 29.3711 12.2684 28.4364L9.64416 31.0607C9.05837 31.6464 8.10862 31.6464 7.52284 31.0607C6.93705 30.4749 6.93705 29.5251 7.52284 28.9393L9.64098 26.8212L9.63952 26.8201L13.0936 23.366L13.0949 23.3673L15.2165 21.2457L15.2152 21.2444L21.5779 14.8817ZM25.3527 15.3521L22.8317 17.8731C22.8329 17.9152 22.8335 17.9576 22.8335 18C22.8335 20.4853 20.8188 22.5 18.3335 22.5C18.291 22.5 18.2487 22.4994 18.2066 22.4982L15.6856 25.0192C16.509 25.33 17.4014 25.5 18.3335 25.5C22.4756 25.5 25.8335 22.1421 25.8335 18C25.8335 17.0679 25.6635 16.1755 25.3527 15.3521Z" fill="white"/>
<path d="M18.7021 13.5149C18.5806 13.505 18.4576 13.5 18.3335 13.5C15.8482 13.5 13.8335 15.5147 13.8335 18C13.8335 18.1241 13.8385 18.2471 13.8484 18.3686L18.7021 13.5149Z" fill="white"/>
</svg>
