<svg width="37" height="36" viewBox="0 0 37 36" fill="none" xmlns="http://www.w3.org/2000/svg">
<path fill-rule="evenodd" clip-rule="evenodd" d="M18.3328 6C14.3673 6 10.8531 8.07852 8.21048 10.294C5.54227 12.5309 3.56804 15.0707 2.65584 16.3395C1.93829 17.3376 1.93829 18.6624 2.65584 19.6605C3.56804 20.9293 5.54227 23.4691 8.21048 25.706C10.8531 27.9215 14.3673 30 18.3328 30C22.2984 30 25.8126 27.9215 28.4552 25.706C31.1234 23.4691 33.0976 20.9293 34.0098 19.6605C34.7274 18.6624 34.7274 17.3376 34.0098 16.3395C33.0976 15.0707 31.1234 12.5309 28.4552 10.294C25.8126 8.07852 22.2984 6 18.3328 6ZM18.3335 25.5C22.4756 25.5 25.8335 22.1421 25.8335 18C25.8335 13.8579 22.4756 10.5 18.3335 10.5C14.1914 10.5 10.8335 13.8579 10.8335 18C10.8335 22.1421 14.1914 25.5 18.3335 25.5Z" fill="white"/>
<path d="M22.8335 18C22.8335 20.4853 20.8188 22.5 18.3335 22.5C15.8482 22.5 13.8335 20.4853 13.8335 18C13.8335 15.5147 15.8482 13.5 18.3335 13.5C20.8188 13.5 22.8335 15.5147 22.8335 18Z" fill="white"/>
</svg>
