<svg width="37" height="36" viewBox="0 0 37 36" fill="none" xmlns="http://www.w3.org/2000/svg">
<path fill-rule="evenodd" clip-rule="evenodd" d="M18.6667 30C25.2942 30 30.6667 24.6274 30.6667 18C30.6667 11.3726 25.2942 6 18.6667 6C12.0393 6 6.66675 11.3726 6.66675 18C6.66675 24.6274 12.0393 30 18.6667 30ZM18.6667 33C26.951 33 33.6667 26.2843 33.6667 18C33.6667 9.71573 26.951 3 18.6667 3C10.3825 3 3.66675 9.71573 3.66675 18C3.66675 26.2843 10.3825 33 18.6667 33Z" fill="white"/>
<path d="M14.6374 26.7672C14.7639 27.1468 14.9016 27.5128 15.0511 27.8603C12.1607 26.8002 9.86599 24.5055 8.80587 21.6151C9.15335 21.7646 9.51938 21.9023 9.899 22.0288C11.0178 22.4018 12.3243 22.7003 13.7574 22.9088C13.9659 24.3419 14.2644 25.6483 14.6374 26.7672Z" fill="white"/>
<path d="M15.0511 8.13856C12.1607 9.19869 9.86599 11.4934 8.80587 14.3838C9.15335 14.2343 9.51938 14.0966 9.899 13.9701C11.0178 13.5971 12.3243 13.2986 13.7574 13.0901C13.9659 11.657 14.2644 10.3505 14.6374 9.23169C14.7639 8.85207 14.9016 8.48604 15.0511 8.13856Z" fill="white"/>
<path d="M22.6961 9.23169C22.5696 8.85207 22.4319 8.48604 22.2824 8.13856C25.1728 9.19869 27.4675 11.4934 28.5276 14.3838C28.1801 14.2343 27.8141 14.0966 27.4345 13.9701C26.3156 13.5971 25.0092 13.2986 23.5761 13.0901C23.3676 11.657 23.0691 10.3505 22.6961 9.23169Z" fill="white"/>
<path d="M27.4345 22.0288C27.8141 21.9023 28.1801 21.7646 28.5276 21.6151C27.4675 24.5055 25.1728 26.8002 22.2824 27.8603C22.4319 27.5128 22.5696 27.1468 22.6961 26.7672C23.0691 25.6483 23.3676 24.3419 23.5761 22.9088C25.0092 22.7003 26.3156 22.4018 27.4345 22.0288Z" fill="white"/>
<path d="M19.1413 7.89262C19.0355 7.75604 18.8364 7.49892 18.6664 7.49944C18.4959 7.50049 18.2984 7.75544 18.1924 7.89234C18.1824 7.90526 18.1732 7.91712 18.1649 7.92763C17.8234 8.36099 17.4585 9.0694 17.1277 10.0618C16.8633 10.8549 16.6358 11.7833 16.4584 12.8156C17.1774 12.772 17.9155 12.7494 18.6667 12.7494C19.418 12.7494 20.1561 12.772 20.8751 12.8156C20.6977 11.7833 20.4702 10.8549 20.2058 10.0618C19.875 9.0694 19.5101 8.36099 19.1685 7.92763C19.1604 7.91723 19.1512 7.90546 19.1413 7.89262Z" fill="white"/>
<path d="M10.7291 19.5385C9.73671 19.2077 9.02829 18.8428 8.59494 18.5012C8.3448 18.3041 8.167 18.1513 8.16675 17.9994C8.1665 17.8462 8.34603 17.6938 8.59494 17.4976C9.02829 17.1561 9.73671 16.7911 10.7291 16.4604C11.5222 16.196 12.4506 15.9685 13.4829 15.7911C13.4393 16.5101 13.4167 17.2482 13.4167 17.9994C13.4167 18.7507 13.4393 19.4888 13.4829 20.2078C12.4506 20.0303 11.5222 19.8029 10.7291 19.5385Z" fill="white"/>
<path d="M16.1359 20.5303C16.0746 19.7205 16.0417 18.8735 16.0417 17.9994C16.0417 17.1254 16.0746 16.2784 16.1359 15.4686C16.9457 15.4073 17.7927 15.3744 18.6667 15.3744C19.5408 15.3744 20.3878 15.4073 21.1976 15.4686C21.2589 16.2784 21.2917 17.1254 21.2917 17.9994C21.2917 18.8735 21.2589 19.7205 21.1976 20.5303C20.3878 20.5916 19.5408 20.6244 18.6667 20.6244C17.7927 20.6244 16.9457 20.5916 16.1359 20.5303Z" fill="white"/>
<path d="M16.4584 23.1833C16.6358 24.2155 16.8633 25.1439 17.1277 25.9371C17.4585 26.9295 17.8234 27.6379 18.1649 28.0713C18.4096 28.3817 18.5634 28.4915 18.6667 28.4916C18.7719 28.4917 18.9244 28.381 19.1685 28.0713C19.5101 27.6379 19.875 26.9295 20.2058 25.9371C20.4702 25.1439 20.6977 24.2155 20.8751 23.1833C20.1561 23.2269 19.418 23.2494 18.6667 23.2494C17.9155 23.2494 17.1774 23.2269 16.4584 23.1833Z" fill="white"/>
<path d="M23.8506 20.2078C24.8828 20.0303 25.8113 19.8029 26.6044 19.5385C27.5968 19.2077 28.3052 18.8428 28.7386 18.5012C28.8341 18.426 29.1667 18.1635 29.1667 17.9994C29.1667 17.8354 29.0529 17.7454 28.7386 17.4976C28.3052 17.1561 27.5968 16.7912 26.6044 16.4604C25.8113 16.196 24.8828 15.9685 23.8506 15.7911C23.8942 16.5101 23.9167 17.2482 23.9167 17.9994C23.9167 18.7507 23.8942 19.4888 23.8506 20.2078Z" fill="white"/>
</svg>
