<svg width="36" height="36" viewBox="0 0 36 36" fill="none" xmlns="http://www.w3.org/2000/svg">
<path d="M4.46728 7.17541C5.26722 6.44529 6.33161 6 7.5 6H28.5C29.6684 6 30.7328 6.44529 31.5327 7.17541L18 16.1972L4.46728 7.17541Z" fill="white"/>
<path d="M3.04875 9.83528C3.01664 10.0522 3 10.2742 3 10.5V25.5C3 27.9853 5.01472 30 7.5 30H28.5C30.9853 30 33 27.9853 33 25.5V10.5C33 10.2742 32.9834 10.0522 32.9512 9.83528L18.8321 19.2481C18.3282 19.584 17.6718 19.584 17.1679 19.2481L3.04875 9.83528Z" fill="white"/>
</svg>
