<svg width="37" height="36" viewBox="0 0 37 36" fill="none" xmlns="http://www.w3.org/2000/svg">
<path fill-rule="evenodd" clip-rule="evenodd" d="M7.3936 6.4349C6.96435 6.86461 6.57077 7.39172 6.31629 7.85071C5.92422 8.53886 5.6925 9.27996 5.54443 10.0529C4.37779 15.9719 5.85941 21.2668 10.7504 26.1229C13.9595 29.3092 16.3929 30.6185 19.7249 31.0965C21.5917 31.3643 23.49 31.3872 25.3702 31.4943C26.2035 31.5418 27.0944 31.3644 27.891 31.1311C28.7863 30.8148 29.6037 30.3018 30.2882 29.6165C32.7929 27.109 32.7929 23.0435 30.2882 20.536L30.065 20.3229C27.6436 18.118 23.941 18.0979 21.497 20.2732L19.6587 22.0857C19.3193 22.4254 18.785 22.4715 18.3927 22.1948C17.5765 21.6191 15.4079 19.4967 14.8785 18.7733C14.5907 18.3801 14.6325 17.8355 14.9769 17.4908C15.5598 16.9198 16.1492 16.3547 16.7259 15.7774C19.3029 13.1975 19.3029 9.01476 16.7259 6.4349C14.1488 3.85503 9.97063 3.85503 7.3936 6.4349Z" fill="white"/>
</svg>
