<svg width="36" height="36" viewBox="0 0 36 36" fill="none" xmlns="http://www.w3.org/2000/svg">
<path fill-rule="evenodd" clip-rule="evenodd" d="M12.6084 5.72727C12.6084 4.22104 13.8153 3 15.3042 3H20.6957C22.1846 3 23.3915 4.22104 23.3915 5.72727V7.00298C23.8505 7.23372 24.2929 7.493 24.7166 7.77853L25.8101 7.13985C27.0994 6.38673 28.7481 6.83366 29.4926 8.1381L32.1883 12.8619C32.9328 14.1663 32.491 15.8343 31.2016 16.5874L30.1073 17.2266C30.123 17.4824 30.131 17.7402 30.131 18C30.131 18.2598 30.123 18.5177 30.1073 18.7735L31.2014 19.4126C32.4907 20.1657 32.9325 21.8337 32.1881 23.1381L29.4923 27.8619C28.7479 29.1663 27.0992 29.6133 25.8098 28.8602L24.7165 28.2215C24.2928 28.507 23.8504 28.7663 23.3915 28.997V30.2727C23.3915 31.779 22.1846 33 20.6957 33H15.3042C13.8153 33 12.6084 31.779 12.6084 30.2727V28.997C12.1495 28.7663 11.7071 28.507 11.2834 28.2215L10.1901 28.8601C8.90072 29.6132 7.252 29.1663 6.50759 27.8619L3.81181 23.1381C3.06739 21.8337 3.50916 20.1657 4.79853 19.4126L5.89265 18.7735C5.87692 18.5177 5.86894 18.2598 5.86894 18C5.86894 17.7402 5.87692 17.4824 5.89264 17.2266L4.79829 16.5874C3.50892 15.8343 3.06715 14.1663 3.81157 12.8619L6.50735 8.13813C7.25177 6.83369 8.90048 6.38676 10.1899 7.13987L11.2833 7.77854C11.707 7.49301 12.1494 7.23373 12.6084 7.00298V5.72727ZM18.0003 24.8182C21.7224 24.8182 24.7398 21.7656 24.7398 18C24.7398 14.2344 21.7224 11.1818 18.0003 11.1818C14.2782 11.1818 11.2609 14.2344 11.2609 18C11.2609 21.7656 14.2782 24.8182 18.0003 24.8182Z" fill="white"/>
<path d="M22.044 18C22.044 20.2593 20.2336 22.0909 18.0003 22.0909C15.7671 22.0909 13.9566 20.2593 13.9566 18C13.9566 15.7407 15.7671 13.9091 18.0003 13.9091C20.2336 13.9091 22.044 15.7407 22.044 18Z" fill="white"/>
</svg>
