<svg width="36" height="36" viewBox="0 0 36 36" fill="none" xmlns="http://www.w3.org/2000/svg">
<path fill-rule="evenodd" clip-rule="evenodd" d="M6 6C6 4.34315 7.34315 3 9 3H21.2574C22.053 3 22.8161 3.31607 23.3787 3.87868L29.1213 9.62132C29.6839 10.1839 30 10.947 30 11.7426V30C30 31.6569 28.6569 33 27 33H9C7.34315 33 6 31.6569 6 30V6ZM12 12C11.1716 12 10.5 12.6716 10.5 13.5C10.5 14.3284 11.1716 15 12 15H15C15.8284 15 16.5 14.3284 16.5 13.5C16.5 12.6716 15.8284 12 15 12H12ZM10.5 19.5C10.5 18.6716 11.1716 18 12 18H18C18.8284 18 19.5 18.6716 19.5 19.5C19.5 20.3284 18.8284 21 18 21H12C11.1716 21 10.5 20.3284 10.5 19.5ZM10.5 25.5C10.5 24.6716 11.1716 24 12 24H21C21.8284 24 22.5 24.6716 22.5 25.5C22.5 26.3284 21.8284 27 21 27H12C11.1716 27 10.5 26.3284 10.5 25.5Z" fill="white"/>
</svg>
