<svg width="36" height="36" viewBox="0 0 36 36" fill="none" xmlns="http://www.w3.org/2000/svg">
<path fill-rule="evenodd" clip-rule="evenodd" d="M18 6C19.6569 6 21 7.34315 21 9C21 9.82843 21.6716 10.5 22.5 10.5C23.3284 10.5 24 9.82843 24 9C24 5.68629 21.3137 3 18 3C14.6863 3 12 5.68629 12 9V13.5H10.5C8.84315 13.5 7.5 14.8431 7.5 16.5V28.5C7.5 30.1569 8.84315 31.5 10.5 31.5H25.5C27.1569 31.5 28.5 30.1569 28.5 28.5V16.5C28.5 14.8431 27.1569 13.5 25.5 13.5H15V9C15 7.34315 16.3431 6 18 6Z" fill="white"/>
</svg>
