<svg width="37" height="36" viewBox="0 0 37 36" fill="none" xmlns="http://www.w3.org/2000/svg">
<path fill-rule="evenodd" clip-rule="evenodd" d="M33.3333 18C33.3333 26.2843 26.6175 33 18.3333 33C10.049 33 3.33325 26.2843 3.33325 18C3.33325 9.71573 10.049 3 18.3333 3C26.6175 3 33.3333 9.71573 33.3333 18ZM16.8333 10.5C16.8333 9.67157 17.5048 9 18.3333 9C19.1617 9 19.8333 9.67157 19.8333 10.5V18C19.8333 18.8284 19.1617 19.5 18.3333 19.5C17.5048 19.5 16.8333 18.8284 16.8333 18V10.5ZM16.8333 24C16.8333 23.1716 17.5048 22.5 18.3333 22.5C19.1617 22.5 19.8333 23.1716 19.8333 24C19.8333 24.8284 19.1617 25.5 18.3333 25.5C17.5048 25.5 16.8333 24.8284 16.8333 24Z" fill="white"/>
</svg>
