<svg width="37" height="36" viewBox="0 0 37 36" fill="none" xmlns="http://www.w3.org/2000/svg">
<path fill-rule="evenodd" clip-rule="evenodd" d="M33.3333 18C33.3333 26.2843 26.6175 33 18.3333 33C10.049 33 3.33325 26.2843 3.33325 18C3.33325 9.71573 10.049 3 18.3333 3C26.6175 3 33.3333 9.71573 33.3333 18ZM23.8841 12.4113C23.3419 11.8719 22.464 11.8722 21.9222 12.412L18.3134 16.0061L14.7095 12.419C14.1676 11.8793 13.2896 11.8793 12.7476 12.4188C12.2046 12.9594 12.2046 13.8367 12.7474 14.3773L16.3531 17.9662L12.778 21.6162C12.2372 22.1572 12.2382 23.0331 12.7807 23.5728C13.3229 24.1123 14.201 24.1119 14.7427 23.572L18.3159 19.9239L21.9695 23.6006L21.971 23.6021C22.5129 24.1418 23.3909 24.1419 23.933 23.6023C24.4757 23.0621 24.4753 22.1847 23.9332 21.6439L20.2761 17.9637L23.885 14.3697C24.4277 13.8288 24.4273 12.9516 23.8841 12.4113Z" fill="white"/>
</svg>
