<svg width="37" height="36" viewBox="0 0 37 36" fill="none" xmlns="http://www.w3.org/2000/svg">
<path d="M18.6665 15.75C17.4239 15.75 16.4165 16.7574 16.4165 18C16.4165 19.2426 17.4239 20.25 18.6665 20.25C19.9091 20.25 20.9165 19.2426 20.9165 18C20.9165 16.7574 19.9091 15.75 18.6665 15.75Z" fill="white"/>
<path fill-rule="evenodd" clip-rule="evenodd" d="M33.6665 18C33.6665 26.2843 26.9508 33 18.6665 33C10.3822 33 3.6665 26.2843 3.6665 18C3.6665 9.71573 10.3822 3 18.6665 3C26.9508 3 33.6665 9.71573 33.6665 18ZM15.4841 14.8184C18.6386 11.6639 26.0907 10.5758 26.0907 10.5758C26.0907 10.5758 25.0026 18.0278 21.848 21.1824C18.6935 24.3369 11.2414 25.425 11.2414 25.425C11.2414 25.425 12.3295 17.973 15.4841 14.8184Z" fill="white"/>
</svg>
