<svg width="37" height="36" viewBox="0 0 37 36" fill="none" xmlns="http://www.w3.org/2000/svg">
<path fill-rule="evenodd" clip-rule="evenodd" d="M6.08643 4.8208C5.49756 4.36157 4.64795 4.40259 4.10596 4.94385C3.52002 5.52979 3.52002 6.479 4.10596 7.06494L6.92725 9.88623C5.42139 12.2256 4.54541 15.0103 4.54541 18C4.54541 26.2844 11.2603 33 19.5454 33C22.5337 33 25.3228 32.1255 27.6606 30.6182L29.562 32.521C29.8228 32.7825 30.1567 32.9275 30.4995 32.9553C30.9243 32.9905 31.3579 32.8455 31.6831 32.521C32.2251 31.979 32.2632 31.125 31.8032 30.5369C31.7651 30.4893 31.7271 30.4438 31.6831 30.3999L6.22705 4.94385C6.18311 4.89917 6.13623 4.85889 6.08643 4.8208ZM12.1216 25.4253C12.1216 25.4253 12.772 20.9656 14.5269 17.4858L20.061 23.0186C16.5806 24.7742 12.1216 25.4253 12.1216 25.4253Z" fill="white"/>
<path d="M11.105 5.59717L18.6753 13.1667C22.1968 11.2727 26.9692 10.5754 26.9692 10.5754C26.9692 10.5754 26.2749 15.3464 24.3794 18.8694L31.9468 26.4382C33.5845 24.0344 34.5454 21.1289 34.5454 18C34.5454 9.71558 27.8306 3 19.5454 3C16.4165 3 13.5103 3.95801 11.105 5.59717Z" fill="white"/>
</svg>
