<svg width="36" height="36" viewBox="0 0 36 36" fill="none" xmlns="http://www.w3.org/2000/svg">
<path fill-rule="evenodd" clip-rule="evenodd" d="M18 33C26.2843 33 33 26.2843 33 18C33 9.71573 26.2843 3 18 3C9.71573 3 3 9.71573 3 18C3 26.2843 9.71573 33 18 33ZM18 12C16.1466 12 15 13.4561 15 15C15 15.8284 14.3284 16.5 13.5 16.5C12.6716 16.5 12 15.8284 12 15C12 12.0439 14.2551 9 18 9C21.7449 9 24 12.0439 24 15C24 18.0704 21.6846 19.7097 20.9208 20.0916C20.8067 20.1487 20.6791 20.2029 20.5897 20.2409L20.55 20.2578C20.4607 20.2957 20.3785 20.3306 20.291 20.37C20.0919 20.4597 19.9193 20.5493 19.7774 20.647C19.5 20.8382 19.5 20.935 19.5 21C19.5 21.8284 18.8284 22.5 18 22.5C17.1716 22.5 16.5 21.8284 16.5 21C16.5 19.565 17.3613 18.6685 18.0755 18.1765C18.43 17.9323 18.7868 17.7572 19.0592 17.6346C19.2603 17.544 19.3622 17.5022 19.4318 17.4736C19.4903 17.4496 19.5263 17.4348 19.5792 17.4084C19.6623 17.3668 20.0489 17.1261 20.4002 16.685C20.7326 16.2676 21 15.7163 21 15C21 13.4561 19.8534 12 18 12ZM18 25.5C17.1716 25.5 16.5 26.1716 16.5 27C16.5 27.8284 17.1716 28.5 18 28.5C18.8284 28.5 19.5 27.8284 19.5 27C19.5 26.1716 18.8284 25.5 18 25.5Z" fill="white"/>
</svg>
