<svg width="36" height="36" viewBox="0 0 36 36" fill="none" xmlns="http://www.w3.org/2000/svg">
<path fill-rule="evenodd" clip-rule="evenodd" d="M20.6514 6.30215C19.5246 4.17369 16.4755 4.17371 15.3487 6.30215L4.34005 27.0963C3.28229 29.0943 4.7307 31.4999 6.99142 31.4999H29.0087C31.2694 31.4999 32.7178 29.0943 31.6601 27.0963L20.6514 6.30215ZM18 13.4999C17.1716 13.4999 16.5 14.1715 16.5 14.9999V20.9999C16.5 21.8283 17.1716 22.4999 18 22.4999C18.8284 22.4999 19.5 21.8283 19.5 20.9999V14.9999C19.5 14.1715 18.8284 13.4999 18 13.4999ZM18 26.9999C18.8284 26.9999 19.5 26.3283 19.5 25.4999C19.5 24.6715 18.8284 23.9999 18 23.9999C17.1716 23.9999 16.5 24.6715 16.5 25.4999C16.5 26.3283 17.1716 26.9999 18 26.9999Z" fill="white"/>
</svg>
