<svg width="36" height="36" viewBox="0 0 36 36" fill="none" xmlns="http://www.w3.org/2000/svg">
<rect width="36" height="36" rx="18" fill="#05060F"/>
<path fill-rule="evenodd" clip-rule="evenodd" d="M22.4691 25.4546C22.4691 25.6865 22.6571 25.8746 22.8891 25.8746H24.6742C24.9062 25.8746 25.0942 25.6865 25.0942 25.4546V11.42C25.0942 11.188 24.9062 11 24.6742 11H10.6383C10.4063 11 10.2183 11.188 10.2183 11.42V13.2052C10.2183 13.4371 10.4063 13.6252 10.6383 13.6252H22.0491C22.281 13.6252 22.4691 13.8132 22.4691 14.0452V25.4546Z" fill="white"/>
<path fill-rule="evenodd" clip-rule="evenodd" d="M15.25 26C18.1495 26 20.5 23.6495 20.5 20.75C20.5 17.8505 18.1495 15.5 15.25 15.5C12.3505 15.5 10 17.8505 10 20.75C10 23.6495 12.3505 26 15.25 26ZM15.25 23.5C16.7688 23.5 18 22.2688 18 20.75C18 19.2312 16.7688 18 15.25 18C13.7312 18 12.5 19.2312 12.5 20.75C12.5 22.2688 13.7312 23.5 15.25 23.5Z" fill="white"/>
</svg>
