<svg width="36" height="36" viewBox="0 0 36 36" fill="none" xmlns="http://www.w3.org/2000/svg">
<rect width="36" height="36" rx="18" fill="#470137"/>
<path d="M18.604 12.3734L15.0765 18.1882L18.8502 24.3636C18.8744 24.4067 18.881 24.4575 18.8688 24.5054C18.8558 24.55 18.8124 24.5215 18.7361 24.5345H16.0459C15.8568 24.5345 15.7234 24.5277 15.6477 24.4013C15.3947 23.909 15.1418 23.4196 14.8891 22.9331C14.6365 22.4466 14.3677 21.9509 14.0828 21.4462C13.7978 20.9411 13.5164 20.4296 13.2386 19.9117H13.22C12.9669 20.4168 12.7045 20.9219 12.4328 21.427C12.1611 21.9322 11.8923 22.434 11.6265 22.9325C11.361 23.4314 11.0893 23.927 10.8114 24.4193C10.7605 24.5333 10.6719 24.5432 10.5453 24.5432H7.94757C7.89733 24.5432 7.8688 24.563 7.8626 24.5129C7.85542 24.4667 7.86557 24.4195 7.89113 24.3803L11.5508 18.3759L7.98231 12.3523C7.94385 12.3022 7.93765 12.2613 7.9637 12.2284C7.97765 12.2123 7.99518 12.1997 8.01489 12.1915C8.03459 12.1833 8.05594 12.1798 8.07722 12.1814H10.7506C10.8091 12.1778 10.8676 12.1873 10.9218 12.2092C10.9671 12.2352 11.0058 12.271 11.0353 12.3139C11.2632 12.819 11.5162 13.3242 11.7945 13.8293C12.0728 14.3344 12.354 14.8331 12.6381 15.3254C12.9226 15.8177 13.185 16.3164 13.4253 16.8215H13.4439C13.6965 16.304 13.9525 15.7989 14.2118 15.3062C14.4711 14.8135 14.7365 14.3179 15.0082 13.8194C15.2803 13.3209 15.5427 12.8252 15.7954 12.3325C15.8101 12.2855 15.8363 12.2429 15.8716 12.2086C15.9184 12.185 15.9709 12.1753 16.023 12.1807H18.5041C18.518 12.1773 18.5324 12.1766 18.5465 12.1788C18.5606 12.1809 18.5741 12.1858 18.5863 12.1932C18.5985 12.2005 18.6092 12.2102 18.6176 12.2217C18.6261 12.2332 18.6322 12.2462 18.6356 12.26C18.6407 12.28 18.6399 12.301 18.6335 12.3205C18.627 12.3401 18.615 12.3573 18.599 12.3703L18.604 12.3734Z" fill="#FF61F6"/>
<path d="M24.0474 24.7792C23.1745 24.7926 22.3095 24.6114 21.5154 24.2489C20.7756 23.907 20.1572 23.3488 19.7421 22.6481C19.2856 21.8305 19.0624 20.9035 19.097 19.968C19.0904 19.0998 19.3129 18.2451 19.7421 17.49C20.1845 16.7198 20.8352 16.0896 21.6197 15.6717C22.5375 15.1943 23.5626 14.9597 24.597 14.9902C24.659 14.9902 24.7428 14.9939 24.8451 15.0001C24.9474 15.0063 25.0659 15.0162 25.2055 15.0286V11.2936C25.2055 11.2056 25.2433 11.161 25.3196 11.161H27.7089C27.7221 11.1591 27.7354 11.1597 27.7483 11.163C27.7611 11.1663 27.7732 11.172 27.7838 11.18C27.7944 11.1879 27.8034 11.1979 27.8101 11.2093C27.8168 11.2207 27.8212 11.2334 27.8231 11.2465C27.8246 11.2557 27.8246 11.2651 27.8231 11.2743V22.4684C27.8231 22.6836 27.8326 22.9172 27.8516 23.1691C27.8706 23.421 27.8865 23.6482 27.8994 23.8506C27.9017 23.8899 27.8921 23.929 27.8718 23.9628C27.8516 23.9966 27.8216 24.0236 27.7859 24.0401C27.1694 24.297 26.5273 24.4874 25.8704 24.6082C25.2691 24.7196 24.659 24.7768 24.0474 24.7792ZM25.2042 22.4306V17.2601C25.1027 17.2324 24.9989 17.2134 24.8941 17.2031C24.7651 17.1903 24.6355 17.1841 24.5052 17.1846C24.045 17.1802 23.5902 17.2842 23.1778 17.4881C22.7771 17.6879 22.4352 17.988 22.1853 18.3592C21.907 18.807 21.7713 19.3287 21.7964 19.8553C21.7872 20.2682 21.8547 20.6793 21.9955 21.0677C22.1106 21.3804 22.2919 21.6647 22.5271 21.9009C22.7522 22.1183 23.0249 22.2803 23.3236 22.3743C23.639 22.4765 23.9688 22.5278 24.3005 22.526C24.4771 22.526 24.6414 22.5196 24.7936 22.5068C24.9324 22.4957 25.0696 22.4702 25.203 22.4306H25.2042Z" fill="#FF61F6"/>
</svg>
