<svg width="36" height="36" viewBox="0 0 36 36" fill="none" xmlns="http://www.w3.org/2000/svg">
<rect width="36" height="36" rx="18" fill="#000557"/>
<path d="M24.6146 17.7745C25.3021 17.7745 25.5448 17.7745 25.6122 17.75C25.6122 17.6643 25.6392 17.603 25.6392 17.5418C25.6392 16.8808 25.2886 15.6566 23.8865 15.6566C22.5922 15.6566 22.0395 16.6849 21.9047 17.7745H24.6146ZM21.8778 19.4516C21.9047 21.1043 22.7676 22.2184 24.8168 22.2184C25.6122 22.2184 26.2998 22.1205 27.0144 21.8389C27.1087 21.8022 27.1762 21.8144 27.1762 21.9246V23.4548C27.1762 23.5773 27.1358 23.6385 27.0414 23.6997C26.3269 24.018 25.437 24.1649 24.3315 24.1649C20.7724 24.1649 19.4376 21.7777 19.4376 19.1212C19.4376 16.232 21.0825 13.8693 23.9811 13.8693C26.9201 13.8693 27.9447 16.1096 27.9447 17.9337C27.9447 18.5213 27.9043 18.9988 27.8369 19.2314C27.8099 19.3293 27.7695 19.3661 27.6616 19.3905C27.3919 19.4273 26.5965 19.4762 25.4101 19.4762H21.8778V19.4516ZM14.6516 18.2029C14.2741 16.844 13.3573 13.8814 13.0202 12.4491H12.9932C12.7102 13.8814 11.9686 16.3053 11.4159 18.2029H14.6516ZM10.8631 20.1862L9.79804 23.8466C9.77108 23.9445 9.73064 23.9812 9.59578 23.9812H7.61394C7.47914 23.9812 7.45213 23.9445 7.47914 23.7976L11.308 11.6411C11.3754 11.4208 11.4158 11.2494 11.4428 10.6373C11.4428 10.5516 11.4832 10.5149 11.5506 10.5149H14.3818C14.4762 10.5149 14.5166 10.5394 14.5436 10.6373L18.8308 23.8221C18.8578 23.92 18.8308 23.9812 18.723 23.9812H16.4985C16.3906 23.9812 16.3232 23.9445 16.2962 23.8589L15.1907 20.1862L10.8631 20.1862Z" fill="#9194FE"/>
</svg>
