<svg width="36" height="36" viewBox="0 0 36 36" fill="none" xmlns="http://www.w3.org/2000/svg">
<rect width="36" height="36" rx="18" fill="#F3F3F3"/>
<path d="M16.888 9.4629L9.0829 12.7205C8.64898 12.9018 8.65335 13.5237 9.09023 13.6983L16.9279 16.8334C17.6165 17.1089 18.3835 17.1089 19.0721 16.8334L26.9099 13.6983C27.3465 13.5237 27.3511 12.9018 26.917 12.7207L19.1121 9.4629C18.4 9.16569 17.6001 9.16569 16.888 9.4629Z" fill="#FCB400"/>
<path d="M18.72 18.5057V26.2949C18.72 26.6653 19.0924 26.9191 19.4357 26.7826L28.1698 23.3818C28.2672 23.3431 28.3508 23.2759 28.4097 23.1889C28.4686 23.102 28.5 22.9993 28.5 22.8942V15.1051C28.5 14.7346 28.1276 14.4809 27.7843 14.6174L19.0502 18.0182C18.9528 18.0569 18.8692 18.1241 18.8104 18.2111C18.7515 18.298 18.72 18.4006 18.72 18.5057Z" fill="#18BFFF"/>
<path d="M16.6283 18.9242L13.7694 20.3039L8.29057 22.9274C7.94339 23.0949 7.5 22.8419 7.5 22.4564V15.1635C7.5 15.024 7.57157 14.9036 7.66755 14.813C7.70692 14.7738 7.75159 14.7403 7.80026 14.7135C7.93107 14.635 8.11781 14.614 8.27659 14.6768L16.5847 17.9667C17.007 18.1341 17.0402 18.7254 16.6283 18.9242Z" fill="#F82B60"/>
<path d="M16.6287 18.9114L14.0368 20.16L7.68 14.8123C7.71933 14.7733 7.76394 14.74 7.81253 14.7133C7.94317 14.635 8.12966 14.6141 8.28822 14.6767L16.5852 17.9567C17.0069 18.1236 17.04 18.7131 16.6287 18.9114Z" fill="black" fill-opacity="0.25"/>
</svg>
