<svg width="36" height="36" viewBox="0 0 36 36" fill="none" xmlns="http://www.w3.org/2000/svg">
<rect width="36" height="36" rx="18" fill="#A60000"/>
<path d="M18.3498 8.16893C18.085 7.9477 18.091 7.87994 18.4689 7.7053C18.6636 7.61535 18.8736 7.52201 19.0834 7.50492C19.304 7.48633 19.5259 7.52061 19.7289 7.60463C20.6546 8.01392 21.5908 8.40915 22.4814 8.88105C25.513 10.4874 27.6564 12.7834 28.2876 16.1139C28.835 19.0022 28.3568 21.7377 26.4883 24.1455C25.1443 25.8774 23.3079 26.9965 21.1972 27.711C18.6035 28.589 15.9644 28.7852 13.2971 28.0399C11.5539 27.5528 10.0862 26.6611 9.04879 25.2072C8.32938 24.1989 7.92291 23.0654 7.72515 21.8744C7.15694 18.4523 7.63286 15.1655 9.24779 12.049C9.7463 11.087 10.4094 10.2348 11.2994 9.55362C12.0507 8.97864 12.9306 8.73391 13.8605 8.63024C15.3605 8.46302 16.8635 8.32038 18.3498 8.16893ZM17.6834 27.0492C17.966 27.0278 18.4719 27.0014 18.975 26.9492C20.5765 26.7827 22.0384 26.2739 23.2613 25.2536C25.6341 23.274 26.8031 20.7459 26.9156 17.7687C26.9807 16.0436 26.5203 14.4476 25.4916 13.0074C24.7095 11.9123 23.6147 11.1974 22.4 10.6112C22.1946 10.5121 22.0288 10.488 21.8207 10.586C21.436 10.767 21.055 10.7764 20.6821 10.5299C20.5041 10.4122 20.2997 10.3307 20.1082 10.2312C19.1217 9.71873 18.1015 9.3163 16.9435 9.43715C16.3628 9.49776 15.7717 9.5433 15.2115 9.68771C14.3802 9.90199 13.5479 10.1447 12.7599 10.4711C11.4136 11.0287 10.6315 12.1234 10.0803 13.3543C8.77738 16.264 8.55811 19.269 9.34416 22.3383C9.82443 24.2137 11.0472 25.4753 12.91 26.2091C14.3691 26.7838 15.8904 27.0243 17.6834 27.0492Z" fill="white"/>
<path d="M18.0244 23.1998C16.3746 23.1584 14.8844 22.8327 13.5788 21.9479C12.5478 21.2492 11.8882 20.3271 11.7972 19.0908C11.7947 19.0659 11.7937 19.041 11.7941 19.016C11.8024 18.8402 11.7361 18.6159 12.0064 18.5728C12.2809 18.529 12.2994 18.767 12.3514 18.93C12.5407 19.5259 12.9383 20.0423 13.4783 20.3937C15.8024 21.9436 18.2823 22.2775 20.8989 21.1337C21.757 20.7625 22.4798 20.157 22.9754 19.394C23.0242 19.3196 23.1731 19.283 23.2788 19.2765C23.313 19.2745 23.3984 19.4288 23.3909 19.5054C23.3135 20.3939 22.884 21.2211 22.1896 21.8196C21.226 22.6712 20.0407 23.0276 18.7619 23.1539C18.4929 23.1805 18.2218 23.1879 18.0244 23.1998Z" fill="white"/>
<path d="M14.4228 17.0225C13.9634 17.0215 13.6142 16.8927 13.4313 16.5201C13.2324 16.1149 13.2626 15.7081 13.5494 15.3462C13.8197 15.005 14.4834 15.0035 14.8424 15.3262C15.1745 15.6247 15.2942 16.2279 15.0916 16.6176C14.9466 16.8966 14.7101 17.0398 14.4228 17.0225Z" fill="white"/>
<path d="M22.1996 16.0614C22.1967 16.6794 21.7204 17.1792 21.1407 17.1726C20.6536 17.167 20.2953 16.7058 20.3024 16.0936C20.3085 15.5608 20.6965 15.2272 21.2853 15.2133C21.699 15.2035 22.2786 15.6674 22.1996 16.0614Z" fill="white"/>
</svg>
