<svg width="36" height="36" viewBox="0 0 36 36" fill="none" xmlns="http://www.w3.org/2000/svg">
<rect width="36" height="36" rx="18" fill="#F3F3F3"/>
<path d="M12.2399 9.98079V25.9591C9.899 24.0844 8.3999 21.2022 8.3999 17.97C8.3999 14.7377 9.899 11.8555 12.2399 9.98079Z" fill="#0066FF"/>
<path d="M12.2399 25.9591V9.98079C13.3687 9.07677 14.6933 8.40701 16.1399 8.0452V14.1803C14.9088 14.9912 14.0961 16.3858 14.0961 17.97C14.0961 19.5541 14.9088 20.9488 16.1399 21.7596V27.8947C14.6933 27.5329 13.3687 26.8632 12.2399 25.9591Z" fill="#0083FF"/>
<path d="M18.6303 28.2C17.7713 28.2 16.9371 28.0941 16.1399 27.8947V21.7596C16.8547 22.2303 17.7106 22.5043 18.6303 22.5043C19.1226 22.5043 19.5964 22.4259 20.0399 22.2811V28.1037C19.5791 28.1672 19.1086 28.2 18.6303 28.2Z" fill="#00A1FC"/>
<path d="M20.0399 7.83632V13.6589C19.5963 13.514 19.1225 13.4357 18.6303 13.4357C17.7106 13.4357 16.8547 13.7096 16.1399 14.1803V8.0452C16.9371 7.84583 17.7713 7.73999 18.6303 7.73999C19.1086 7.73999 19.5791 7.77281 20.0399 7.83632Z" fill="#00A1FC"/>
<path d="M23.9399 26.7166C22.7728 27.4264 21.4523 27.9091 20.0399 28.1037V22.2811C20.9872 21.9716 21.7967 21.3587 22.354 20.5577H22.356C22.3648 20.5421 22.3746 20.5275 22.3854 20.5119C22.3893 20.508 22.3922 20.5022 22.3952 20.4983C22.7794 19.9328 23.3315 19.5492 23.9399 19.3688V26.7166Z" fill="#00BCFC"/>
<path d="M23.9399 9.22408V16.5722C23.3317 16.392 22.78 16.0086 22.3961 15.4437C22.3922 15.4378 22.3883 15.432 22.3844 15.4271C21.8265 14.6036 21.0045 13.9739 20.0399 13.6589V7.83632C21.4523 8.03098 22.7727 8.51397 23.9399 9.22408Z" fill="#00BCFC"/>
<path d="M23.9399 26.7166C25.1607 25.9743 26.3674 24.924 27.1115 23.69C27.9915 22.3864 27.6479 20.6171 26.345 19.7373C25.6103 19.2425 24.7279 19.1352 23.9399 19.3688V26.7166Z" fill="#00D9FC"/>
<path d="M23.9399 16.5722V9.22408C25.1933 9.98665 26.27 11.0111 27.0938 12.2217C27.9012 13.5608 27.7041 15.2856 26.345 16.2026C25.6103 16.698 24.7277 16.8056 23.9399 16.5722Z" fill="#00D9FC"/>
</svg>
