<svg width="36" height="36" viewBox="0 0 36 36" fill="none" xmlns="http://www.w3.org/2000/svg">
<rect width="36" height="36" rx="18" fill="#A259FF"/>
<path fill-rule="evenodd" clip-rule="evenodd" d="M15.231 8.67993C13.1374 8.67993 11.4551 10.4099 11.4551 12.5216C11.4551 13.7213 11.9969 14.7954 12.8476 15.5007C11.9969 16.2061 11.4551 17.2802 11.4551 18.4799C11.4551 19.6797 11.9969 20.7537 12.8476 21.4591C11.9969 22.1645 11.4551 23.2385 11.4551 24.4383C11.4551 26.5499 13.1374 28.2799 15.231 28.2799C17.3246 28.2799 19.0069 26.5499 19.0069 24.4383V21.6957C19.5997 22.0908 20.3093 22.3215 21.0725 22.3215C23.1661 22.3215 24.8484 20.5915 24.8484 18.4799C24.8484 17.2802 24.3066 16.2061 23.4559 15.5007C24.3066 14.7954 24.8484 13.7213 24.8484 12.5216C24.8484 10.4099 23.1661 8.67993 21.0725 8.67993H15.231ZM13.1653 12.5216C13.1653 11.3441 14.1001 10.4047 15.231 10.4047H17.2966V14.6383L15.2304 14.6383L15.2236 14.6383C14.096 14.6343 13.1653 13.6964 13.1653 12.5216ZM19.0069 14.6383V10.4047H21.0725C22.2034 10.4047 23.1382 11.3441 23.1382 12.5216C23.1382 13.6967 22.2069 14.6348 21.0789 14.6383L21.0725 14.6383L21.0605 14.6383H19.0069ZM13.1653 18.4799C13.1653 17.3047 14.0966 16.3666 15.2247 16.3631L15.231 16.3631H17.2966L17.2967 18.4445L17.2966 18.4799L17.2967 18.5154V20.5967H15.231C14.1001 20.5967 13.1653 19.6573 13.1653 18.4799ZM21.0725 16.3631L21.0798 16.3631C22.2074 16.3671 23.1382 17.305 23.1382 18.4799C23.1382 19.6573 22.2034 20.5967 21.0725 20.5967C19.9506 20.5967 19.0218 19.6724 19.0069 18.5082V18.4516C19.0217 17.2907 19.9455 16.3682 21.0631 16.3631H21.0725ZM13.1653 24.4383C13.1653 23.2609 14.1001 22.3215 15.231 22.3215H17.2967V24.4383C17.2967 25.6157 16.3619 26.5551 15.231 26.5551C14.1001 26.5551 13.1653 25.6157 13.1653 24.4383Z" fill="white"/>
</svg>
