<svg width="36" height="36" viewBox="0 0 36 36" fill="none" xmlns="http://www.w3.org/2000/svg">
<rect width="36" height="36" rx="18" fill="black"/>
<path d="M16.9199 18.2401C16.9199 16.4362 18.3823 14.9737 20.1863 14.9737C21.9903 14.9737 23.4528 16.4362 23.4528 18.2401C23.4528 20.0441 21.9903 21.5065 20.1863 21.5065C18.3823 21.5065 16.9199 20.0441 16.9199 18.2401Z" fill="#1ABCFE"/>
<path d="M10.3872 24.7729C10.3872 22.969 11.8496 21.5065 13.6536 21.5065H16.92V24.7729C16.92 26.5769 15.4576 28.0393 13.6536 28.0393C11.8496 28.0393 10.3872 26.5769 10.3872 24.7729Z" fill="#0ACF83"/>
<path d="M16.9199 8.44092V14.9737L20.1863 14.9737C21.9903 14.9737 23.4528 13.5113 23.4528 11.7073C23.4528 9.90334 21.9903 8.44092 20.1863 8.44092H16.9199Z" fill="#FF7262"/>
<path d="M10.3872 11.7073C10.3872 13.5113 11.8496 14.9737 13.6536 14.9737L16.9199 14.9737V8.44092L13.6536 8.44093C11.8496 8.44093 10.3872 9.90335 10.3872 11.7073Z" fill="#F24E1E"/>
<path d="M10.3872 18.2401C10.3872 20.0441 11.8496 21.5065 13.6536 21.5065H16.92L16.9199 14.9737L13.6536 14.9737C11.8496 14.9737 10.3872 16.4362 10.3872 18.2401Z" fill="#A259FF"/>
<path d="M31.3199 23.4001C31.3199 27.0452 28.365 30.0001 24.7199 30.0001C21.0749 30.0001 18.1199 27.0452 18.1199 23.4001C18.1199 19.755 21.0749 16.8001 24.7199 16.8001C28.365 16.8001 31.3199 19.755 31.3199 23.4001Z" fill="#05060F"/>
<path fill-rule="evenodd" clip-rule="evenodd" d="M30.24 23.4001C30.24 20.3515 27.7686 17.8801 24.72 17.8801C21.6713 17.8801 19.2 20.3515 19.2 23.4001C19.2 26.4487 21.6713 28.9201 24.72 28.9201C27.7686 28.9201 30.24 26.4487 30.24 23.4001ZM25.1493 28.0729C24.9548 28.2775 24.8096 28.3201 24.72 28.3201C24.6303 28.3201 24.4852 28.2775 24.2906 28.0729C24.0948 27.8669 23.8908 27.5369 23.7068 27.0795C23.3654 26.2305 23.1336 25.0442 23.1033 23.7001H26.3366C26.3063 25.0442 26.0745 26.2305 25.7331 27.0795C25.5491 27.5369 25.3451 27.8669 25.1493 28.0729ZM26.3366 23.1001H23.1033C23.1336 21.7561 23.3654 20.5697 23.7068 19.7208C23.8908 19.2634 24.0948 18.9333 24.2906 18.7274C24.4852 18.5228 24.6303 18.4801 24.72 18.4801C24.8096 18.4801 24.9548 18.5228 25.1493 18.7274C25.3451 18.9333 25.5491 19.2634 25.7331 19.7208C26.0745 20.5697 26.3063 21.7561 26.3366 23.1001ZM26.9367 23.7001C26.8952 25.6278 26.4559 27.2928 25.8193 28.1968C27.9131 27.7189 29.4983 25.9054 29.631 23.7001H26.9367ZM29.631 23.1001H26.9367C26.8952 21.1725 26.4559 19.5075 25.8193 18.6034C27.9131 19.0813 29.4983 20.8949 29.631 23.1001ZM22.5032 23.1001C22.5447 21.1725 22.984 19.5075 23.6206 18.6034C21.5268 19.0813 19.9416 20.8949 19.809 23.1001H22.5032ZM19.809 23.7001C19.9416 25.9054 21.5268 27.7189 23.6206 28.1968C22.984 27.2928 22.5447 25.6278 22.5032 23.7001H19.809Z" fill="white"/>
</svg>
