<svg width="36" height="36" viewBox="0 0 36 36" fill="none" xmlns="http://www.w3.org/2000/svg">
<rect width="36" height="36" rx="18" fill="#0D87FF"/>
<path fill-rule="evenodd" clip-rule="evenodd" d="M8.87957 12.5325C8.31991 12.5325 7.86621 12.9824 7.86621 13.5375V14.5424V22.5824C7.86621 23.1374 8.31991 23.5873 8.87957 23.5873H9.38626C9.94592 23.5873 10.3996 23.1374 10.3996 22.5824V15.0449H14.9598C15.5194 15.0449 15.9731 14.595 15.9731 14.04V13.5375C15.9731 12.9824 15.5194 12.5325 14.9598 12.5325H9.89294H8.87957ZM19.0132 12.5325H18.5065C17.9468 12.5325 17.4932 12.9824 17.4932 13.5375V22.5824C17.4932 23.1374 17.9468 23.5873 18.5065 23.5873H19.0132C19.5729 23.5873 20.0266 23.1374 20.0266 22.5824V13.5375C20.0266 12.9824 19.5729 12.5325 19.0132 12.5325ZM27.1201 12.5325H26.6134C26.0538 12.5325 25.6001 12.9824 25.6001 13.5375V22.5824C25.6001 23.1374 26.0538 23.5873 26.6134 23.5873H27.1201C27.6798 23.5873 28.1335 23.1374 28.1335 22.5824V13.5375C28.1335 12.9824 27.6798 12.5325 27.1201 12.5325ZM22.56 14.5424H23.0667C23.6263 14.5424 24.08 14.9924 24.08 15.5474V21.0749C24.08 21.6299 23.6263 22.0799 23.0667 22.0799H22.56C22.0003 22.0799 21.5466 21.6299 21.5466 21.0749V15.5474C21.5466 14.9924 22.0003 14.5424 22.56 14.5424ZM13.4397 17.5574H12.4263C11.8667 17.5574 11.413 18.0073 11.413 18.5624V19.0649C11.413 19.62 11.8667 20.0699 12.4263 20.0699H13.4397C13.9994 20.0699 14.4531 19.62 14.4531 19.0649V18.5624C14.4531 18.0073 13.9994 17.5574 13.4397 17.5574Z" fill="white"/>
</svg>
