<svg width="36" height="36" viewBox="0 0 36 36" fill="none" xmlns="http://www.w3.org/2000/svg">
<rect width="36" height="36" rx="18" fill="#FF3366"/>
<path d="M12.9501 11.3866C13.8655 11.3866 14.6323 10.6255 14.6323 9.62794C14.6323 8.6311 13.8655 7.87012 12.9501 7.87012C12.0347 7.87012 11.2681 8.6311 11.2681 9.62794C11.2681 10.6253 12.0347 11.3866 12.9501 11.3866ZM9.46215 20.8027C9.3633 21.2488 9.31371 21.7306 9.31371 22.1236C9.31371 23.6721 10.1053 24.7001 11.7875 24.7001C13.1826 24.7001 14.3137 23.8213 15.1281 22.4021L14.6308 24.5191H17.4012L18.9845 17.7824C19.3804 16.0767 20.1472 15.1913 21.31 15.1913C22.2253 15.1913 22.7942 15.7952 22.7942 16.792C22.7942 17.0808 22.7694 17.3954 22.6705 17.7367L21.8541 20.8333C21.7304 21.2794 21.6811 21.7258 21.6811 22.1454C21.6811 23.6154 22.4972 24.6906 24.2042 24.6906C25.6637 24.6906 26.8263 23.6939 27.4695 21.3058L26.3812 20.8601C25.8369 22.46 25.3668 22.7492 24.9957 22.7492C24.6246 22.7492 24.4267 22.487 24.4267 21.9625C24.4267 21.7263 24.4764 21.4642 24.5504 21.1485L25.3422 18.1318C25.54 17.4234 25.6143 16.7952 25.6143 16.2181C25.6143 13.9613 24.3279 12.7835 22.7694 12.7835C21.31 12.7835 19.8256 14.18 19.0836 15.6498L19.6277 13.0117H15.3977L14.804 15.3353H16.7831L15.5644 20.5112C14.6073 22.7681 12.8494 22.8047 12.6288 22.7523C12.2665 22.6656 12.0348 22.5196 12.0348 22.0203C12.0348 21.7322 12.0843 21.3183 12.208 20.8193L14.0635 13.0117H9.36329L8.76953 15.3353H10.7237L9.46215 20.8027Z" fill="white"/>
</svg>
