<svg width="36" height="36" viewBox="0 0 36 36" fill="none" xmlns="http://www.w3.org/2000/svg">
<rect width="36" height="36" rx="18" fill="#F3F3F3"/>
<path fill-rule="evenodd" clip-rule="evenodd" d="M17.4009 19.0792C17.4009 20.9899 15.814 22.5388 13.8565 22.5388C11.8989 22.5388 10.312 20.9899 10.312 19.0792C10.312 17.1684 11.8989 15.6195 13.8565 15.6195C15.814 15.6195 17.4009 17.1684 17.4009 19.0792Z" fill="#FF6575"/>
<path fill-rule="evenodd" clip-rule="evenodd" d="M17.4009 23.3468C17.4009 25.2575 15.814 26.8064 13.8565 26.8064C11.8989 26.8064 10.312 25.2575 10.312 23.3468C10.312 21.4361 11.8989 19.8871 13.8565 19.8871C15.814 19.8871 17.4009 21.4361 17.4009 23.3468Z" fill="#0099FF"/>
<path fill-rule="evenodd" clip-rule="evenodd" d="M13.8565 19.8871C12.7237 19.8871 11.715 20.4058 11.0661 21.2131C11.715 22.0203 12.7237 22.5388 13.8565 22.5388C14.9892 22.5388 15.9977 22.0203 16.6466 21.2131C15.9977 20.4058 14.9892 19.8871 13.8565 19.8871Z" fill="#0066B8"/>
<path d="M18.7179 15.7949V26.7975C22.5238 26.7975 25.6158 23.8228 25.6783 20.1302H25.6798V9.01367C21.8349 9.01367 18.7179 12.0496 18.7179 15.7949Z" fill="url(#paint0_linear_304_89)"/>
<defs>
<linearGradient id="paint0_linear_304_89" x1="20.6451" y1="11.6173" x2="26.8719" y2="15.5299" gradientUnits="userSpaceOnUse">
<stop stop-color="#C13ED1"/>
<stop offset="1" stop-color="#9835FF"/>
</linearGradient>
</defs>
</svg>
