<svg width="36" height="36" viewBox="0 0 36 36" fill="none" xmlns="http://www.w3.org/2000/svg">
<rect width="36" height="36" rx="18" fill="#182D40"/>
<path fill-rule="evenodd" clip-rule="evenodd" d="M7.99219 17.2548C7.99219 12.7326 11.5735 6.98999 18.3239 6.98999C21.6767 6.98999 24.168 8.40278 25.7816 10.4208C27.3772 12.4164 28.0949 14.9757 28.0004 17.2882C27.8128 21.8778 24.5971 25.9517 22.0364 28.8526C21.7367 29.1922 21.2185 29.2244 20.879 28.9247C20.5395 28.625 20.5072 28.1068 20.8069 27.7673C23.3945 24.8359 26.2006 21.1625 26.3617 17.2213C26.4415 15.2685 25.8284 13.1054 24.5007 11.4449C23.191 9.8069 21.1666 8.62999 18.3239 8.62999C12.6831 8.62999 9.63219 13.4202 9.63219 17.2548C9.63219 20.3025 10.8872 23.9023 14.2453 26.0686C13.8036 25.2255 13.5866 24.3458 13.6498 23.5015C13.6554 23.4273 13.6632 23.3535 13.6731 23.2803C12.7154 22.3133 12.137 21.042 12.137 19.5616C12.137 18.5278 12.4243 17.6066 12.9259 16.8311C12.5784 16.1173 12.5296 15.4703 12.5296 15.1656C12.5296 13.2708 14.025 11.9552 15.796 11.3246C17.1293 10.85 18.7482 10.6997 20.4046 10.9568C20.3196 10.5956 20.4895 10.2101 20.8357 10.0366C21.2406 9.83365 21.7333 9.99736 21.9362 10.4022L22.6343 11.795C22.8154 12.1563 22.7062 12.5957 22.3771 12.8302L21.1554 13.7007C20.7866 13.9635 20.2746 13.8776 20.0118 13.5088C19.8033 13.2162 19.8143 12.8335 20.0119 12.5565C18.6621 12.369 17.3729 12.5041 16.3461 12.8696C14.8776 13.3925 14.1696 14.2749 14.1696 15.1656C14.1696 15.2325 14.1746 15.3424 14.1977 15.4803C15.3829 14.5919 16.9519 14.128 18.6289 14.128C19.8736 14.128 20.9349 14.39 21.7376 14.8258C22.52 15.2507 23.1497 15.8993 23.3062 16.7072C23.4776 17.5925 23.0315 18.3786 22.2435 18.8739C21.4889 19.3482 20.3862 19.5981 18.978 19.5981C16.5915 19.5981 15.0329 19.0321 14.0385 18.2213C13.8684 18.6252 13.7769 19.0731 13.7769 19.5616C13.7769 20.2949 13.9983 20.9895 14.408 21.5915C14.5979 21.3626 14.8235 21.1529 15.0852 20.9668C15.9523 20.3503 17.1518 20.0373 18.6345 20.0473C20.0794 20.0571 21.1963 20.2971 21.9699 20.733C22.7606 21.1786 23.2812 21.9011 23.1855 22.7766C23.0972 23.585 22.5078 24.2244 21.7982 24.6317C21.0672 25.0513 20.0973 25.2998 18.978 25.2998C17.6644 25.2998 16.4287 25.0144 15.3785 24.4951C15.6453 25.4978 16.4558 26.6719 17.8682 27.6318C18.1981 27.856 18.3188 28.2851 18.1542 28.6485C17.9895 29.0118 17.5873 29.2039 17.2012 29.1037C10.3782 27.3322 7.99219 21.7029 7.99219 17.2548ZM15.5924 22.74C16.4646 23.3129 17.6178 23.6598 18.978 23.6598C19.8656 23.6598 20.5428 23.4614 20.9817 23.2094C21.4421 22.9452 21.5454 22.6885 21.5552 22.5984L21.5553 22.5976C21.5582 22.5718 21.5779 22.3946 21.1647 22.1618C20.7303 21.9169 19.9273 21.6961 18.6234 21.6873C17.3572 21.6788 16.5332 21.9496 16.0355 22.3034C15.8532 22.433 15.7064 22.5792 15.5924 22.74ZM15.0296 16.912C15.6506 17.4386 16.8056 17.9581 18.978 17.9581C20.2312 17.9581 20.9828 17.7293 21.3708 17.4854C21.7253 17.2626 21.7101 17.0912 21.6961 17.019C21.6671 16.8693 21.4951 16.5603 20.955 16.2671C20.4351 15.9848 19.6531 15.768 18.6289 15.768C17.205 15.768 15.9743 16.173 15.1188 16.8404C15.0887 16.8639 15.0589 16.8878 15.0296 16.912Z" fill="#E7B03F"/>
</svg>
