<svg width="36" height="36" viewBox="0 0 36 36" fill="none" xmlns="http://www.w3.org/2000/svg">
<rect width="36" height="36" rx="18" fill="#F3F3F3"/>
<path d="M28.1998 16.9325H21.9853L27.3671 13.8248L26.2998 11.9752L20.9174 15.0828L24.024 9.70065L22.175 8.63305L19.0677 14.0139V7.80005H16.9319V14.0146L13.8246 8.63305L11.975 9.70065L15.0815 15.0815L9.70045 11.9752L8.63253 13.8248L14.0143 16.9325H7.7998V19.0683H14.0136L8.63253 22.1759L9.69977 24.0255L15.0822 20.9179L11.975 26.3001L13.824 27.3677L16.9319 21.9862V28.2001H19.0677V21.8529L22.2321 27.3337L23.9662 26.3328L20.8012 20.8506L26.2985 24.0249L27.3664 22.1753L21.9853 19.0676H28.1991V16.9325H28.1998ZM17.9998 20.9037C17.6185 20.9037 17.241 20.8286 16.8887 20.6827C16.5365 20.5368 16.2164 20.3229 15.9468 20.0532C15.6771 19.7836 15.4632 19.4635 15.3173 19.1111C15.1713 18.7588 15.0962 18.3811 15.0962 17.9997C15.0961 17.6183 15.1712 17.2406 15.317 16.8883C15.4629 16.5359 15.6767 16.2157 15.9463 15.946C16.2158 15.6763 16.5359 15.4623 16.8881 15.3163C17.2403 15.1703 17.6179 15.0951 17.9991 15.0951C18.7691 15.095 19.5076 15.4009 20.0522 15.9455C20.5967 16.4901 20.9027 17.2288 20.9028 17.999C20.9029 18.7693 20.5971 19.508 20.0527 20.0528C19.5082 20.5975 18.7698 20.9036 17.9998 20.9037Z" fill="#535BD0"/>
</svg>
