<svg width="36" height="36" viewBox="0 0 36 36" fill="none" xmlns="http://www.w3.org/2000/svg">
<rect width="36" height="36" rx="18" fill="#8D49F7"/>
<path d="M22.9855 20.3941C22.7642 20.712 22.4468 20.9506 22.08 21.0751C21.7132 21.1995 21.3162 21.2033 20.9471 21.0858C20.578 20.9682 20.2562 20.7356 20.0289 20.422C19.8016 20.1083 19.6806 19.7302 19.6838 19.3428C19.687 18.9555 19.8141 18.5793 20.0465 18.2695C20.279 17.9596 20.6045 17.7323 20.9755 17.6208C21.3465 17.5094 21.7434 17.5196 22.1081 17.6501C22.4728 17.7805 22.7862 18.0243 23.0023 18.3458L24.3426 17.5545C23.9523 16.9389 23.3729 16.4664 22.6912 16.2081C22.0096 15.9499 21.2626 15.9197 20.5623 16.1222C19.8621 16.3247 19.2465 16.7489 18.8079 17.3311C18.3693 17.9133 18.1314 18.6221 18.1299 19.351C18.1285 20.0799 18.3636 20.7896 18.7999 21.3735C19.2362 21.9575 19.8501 22.3841 20.5496 22.5893C21.249 22.7946 21.9961 22.7674 22.6788 22.5118C23.3614 22.2562 23.9427 21.7861 24.3354 21.172L22.9855 20.3941ZM26.6782 13.1399H25.1233V22.4664H26.6773V19.3576C26.6773 18.8766 26.8684 18.4153 27.2085 18.0752C27.5486 17.7351 28.0099 17.544 28.4909 17.544C28.9719 17.544 29.4332 17.7351 29.7733 18.0752C30.1134 18.4153 30.3045 18.8766 30.3045 19.3576V22.4664H31.8589V19.0552C31.8587 18.4552 31.6824 17.8684 31.3519 17.3676C31.0214 16.8668 30.5513 16.474 29.9997 16.2378C29.4481 16.0017 28.8394 15.9325 28.2489 16.039C27.6584 16.1454 27.1121 16.4228 26.6778 16.8367L26.6782 13.1399ZM15.7977 13.1399H14.2432V20.3937C14.2432 20.8414 14.372 21.2796 14.6143 21.656C14.8567 22.0324 15.2022 22.3311 15.6098 22.5164C16.0173 22.7017 16.4696 22.7657 16.9125 22.7008C17.3555 22.636 17.7704 22.4449 18.1077 22.1506L17.3567 20.8763C17.284 20.9682 17.1915 21.0424 17.086 21.0934C16.9805 21.1444 16.8649 21.1708 16.7477 21.1707H16.5747C16.3686 21.1706 16.1711 21.0887 16.0254 20.943C15.8797 20.7973 15.7978 20.5998 15.7977 20.3937V17.8032H17.3517V16.2487H15.7977V13.1399ZM12.4309 13.1399C12.2019 13.1399 11.9823 13.2309 11.8203 13.3928C11.6584 13.5548 11.5674 13.7744 11.5674 14.0034C11.5674 14.2324 11.6584 14.4521 11.8203 14.614C11.9823 14.776 12.2019 14.8669 12.4309 14.8669C12.66 14.8669 12.8796 14.776 13.0415 14.614C13.2035 14.4521 13.2945 14.2324 13.2945 14.0034C13.2945 13.7744 13.2035 13.5548 13.0415 13.3928C12.8796 13.2309 12.66 13.1399 12.4309 13.1399ZM13.2079 22.4664V16.2487H11.6539V22.4664H13.2079Z" fill="white"/>
<path fill-rule="evenodd" clip-rule="evenodd" d="M4.14014 22.4664H5.69414V20.6529H7.1192C7.6125 20.6529 8.10098 20.5557 8.55674 20.3669C9.0125 20.1781 9.42661 19.9014 9.77543 19.5526C10.1243 19.2038 10.401 18.7897 10.5897 18.3339C10.7785 17.8782 10.8757 17.3897 10.8757 16.8964C10.8757 16.4031 10.7785 15.9146 10.5897 15.4588C10.401 15.0031 10.1243 14.589 9.77543 14.2401C9.42661 13.8913 9.0125 13.6146 8.55674 13.4258C8.10098 13.2371 7.6125 13.1399 7.1192 13.1399H4.14014V22.4664ZM5.69414 14.6939H7.1192C7.70322 14.6939 8.26332 14.9259 8.67629 15.3389C9.08925 15.7518 9.32126 16.3119 9.32126 16.896C9.32126 17.48 9.08925 18.0401 8.67629 18.453C8.26332 18.866 7.70322 19.098 7.1192 19.098H5.69456L5.69414 14.6939Z" fill="white"/>
</svg>
