<svg width="36" height="36" viewBox="0 0 36 36" fill="none" xmlns="http://www.w3.org/2000/svg">
<rect width="36" height="36" rx="18" fill="#7526C2"/>
<path fill-rule="evenodd" clip-rule="evenodd" d="M11.7305 24.6756V15.642C11.7305 11.8494 14.806 8.7749 18.5999 8.7749C22.3938 8.7749 25.4694 11.8494 25.4694 15.642C25.4694 19.3848 22.4742 22.4282 18.7492 22.5076V22.5092C17.677 22.5092 16.8079 21.6403 16.8079 20.5685C16.8079 19.5066 17.6609 18.6439 18.7194 18.628V18.6254C20.3135 18.5627 21.5866 17.251 21.5866 15.642C21.5866 13.9931 20.2494 12.6563 18.5999 12.6563C16.9504 12.6563 15.6132 13.9931 15.6132 15.642V25.6442C15.6132 26.7161 14.7441 27.5849 13.6718 27.5849C13.2724 27.5855 12.8827 27.4625 12.5561 27.2326C13.1145 27.0694 13.5225 26.5538 13.5225 25.9428C13.5225 25.2007 12.9207 24.5992 12.1785 24.5992C12.0214 24.5992 11.8706 24.6261 11.7305 24.6756ZM18.7492 21.912C19.4915 21.912 20.0933 21.3105 20.0933 20.5685C20.0933 19.8265 19.4915 19.2249 18.7492 19.2249C18.007 19.2249 17.4052 19.8265 17.4052 20.5685C17.4052 21.3105 18.007 21.912 18.7492 21.912Z" fill="white"/>
</svg>
