<svg width="36" height="36" viewBox="0 0 36 36" fill="none" xmlns="http://www.w3.org/2000/svg">
<rect width="36" height="36" rx="18" fill="#05060F"/>
<path fill-rule="evenodd" clip-rule="evenodd" d="M10.2722 11.7722C10.0994 11.7722 9.94108 11.8451 9.83366 11.9646C9.73688 12.0657 9.67672 12.2033 9.67236 12.3529C9.67236 12.5178 9.72026 12.6697 9.83785 12.7873L11.7499 15.0573L17.7374 22.1632V27.9024C18.1254 27.9024 18.5044 27.7496 18.7838 27.4799C18.785 27.4799 18.785 27.4799 18.785 27.4787L25.6512 19.3275C25.7006 19.2782 25.737 19.2124 25.7618 19.1479C25.7888 19.0813 25.8027 19.0083 25.8027 18.9307V12.3722C25.8027 12.2141 25.7414 12.0688 25.6404 11.9635C25.5318 11.8451 25.3757 11.7722 25.2015 11.7722H10.2722Z" fill="#FF5F5F"/>
<path fill-rule="evenodd" clip-rule="evenodd" d="M17.7377 25.4485L17.7374 27.9024C17.3309 27.9024 16.9624 27.741 16.6912 27.4796C16.6902 27.4796 16.6902 27.4796 16.6902 27.4787L16.4871 27.2367L9.83378 19.3393C9.82942 19.3372 9.82628 19.3328 9.82401 19.3284L9.79716 19.2974C9.79507 19.2951 9.79385 19.293 9.79193 19.2908C9.75949 19.2468 9.73159 19.1994 9.71328 19.1478C9.68852 19.0866 9.67457 19.02 9.67248 18.9511V18.9103C9.67248 18.8974 9.67353 18.8843 9.67579 18.8714C9.68748 18.7361 9.74554 18.6154 9.83378 18.5209C9.94241 18.4037 10.0994 18.3296 10.2723 18.3296H11.7383L17.7366 25.4495L17.7377 25.4485Z" fill="#FCD1CA"/>
<path fill-rule="evenodd" clip-rule="evenodd" d="M17.7374 22.1632L17.7377 25.4485L17.7366 25.4495L11.7383 18.3296L9.82262 16.0572C9.8146 16.0483 9.80658 16.0382 9.79855 16.0279C9.76333 15.9827 9.73404 15.9323 9.71276 15.8767C9.6887 15.8153 9.67457 15.7487 9.67248 15.6783V15.6378C9.67649 15.4877 9.737 15.3525 9.83378 15.2498C9.94172 15.1307 10.0988 15.0572 10.2723 15.0572L11.7499 15.0573L17.7374 22.1632Z" fill="#FF9D8D"/>
</svg>
