<svg width="36" height="36" viewBox="0 0 36 36" fill="none" xmlns="http://www.w3.org/2000/svg">
<rect width="36" height="36" rx="18" fill="#EFAD4E"/>
<path d="M18.0083 9.24414C18.0545 9.23851 18.1012 9.23861 18.1474 9.24443L23.262 9.8899C23.774 9.96066 23.8502 9.98243 24.1116 10.2981L28.0908 15.7287C28.243 15.9365 28.2351 16.2209 28.0715 16.42L20.9158 25.1269L18.4619 28.0579C18.2353 28.3285 17.8185 28.3271 17.5938 28.055L15.1757 25.1269L7.92911 16.3615C7.76267 16.1602 7.75627 15.871 7.91363 15.6625L11.9851 10.2684C12.1306 10.0437 12.3246 9.93353 12.6817 9.89387L18.0083 9.24414ZM19.2362 10.5237C19.2035 10.4898 19.1513 10.4868 19.1152 10.5168C19.0797 10.5461 19.0713 10.5974 19.0936 10.6367L19.1013 10.6481L22.2474 14.6839C22.2779 14.723 22.2945 14.7717 22.2945 14.8218C22.2945 14.9374 22.2081 15.0322 22.0983 15.0413L22.0808 15.0421H13.9796C13.9309 15.0421 13.8837 15.025 13.8457 14.9935C13.7588 14.9216 13.7409 14.7939 13.8014 14.7001L13.8129 14.6839L16.9591 10.6481C16.9881 10.6109 16.9852 10.5571 16.9523 10.5234C16.92 10.4903 16.8697 10.4874 16.8342 10.5146L16.8241 10.5237L12.562 14.9396C12.528 14.9749 12.481 14.9937 12.4327 14.9914C12.3439 14.987 12.2742 14.9137 12.27 14.824L12.27 14.807L12.417 11.6084C12.419 11.5657 12.3909 11.5277 12.3505 11.5183C12.3083 11.5085 12.2663 11.5327 12.2516 11.5733L12.2482 11.5848L11.4407 15.2664C11.4131 15.3923 11.321 15.4919 11.2018 15.5273L11.1792 15.5331L9.17964 15.9771C9.14026 15.9858 9.11215 16.0217 9.11215 16.0632C9.11215 16.1078 9.14431 16.1447 9.18604 16.1505L9.19764 16.1513H11.1922C11.3082 16.1513 11.4157 16.2118 11.4785 16.311L11.4905 16.3314L16.2753 25.1269C16.3082 25.1874 16.3808 25.2114 16.4417 25.1819C16.5015 25.1529 16.5295 25.0824 16.5085 25.0194L16.5032 25.0061L12.635 16.5281C12.619 16.4929 12.6107 16.4545 12.6107 16.4156C12.6107 16.276 12.7157 16.1616 12.8488 16.152L12.8671 16.1513H23.1932C23.2309 16.1513 23.2682 16.1599 23.3023 16.1764C23.4249 16.2358 23.4806 16.3825 23.4325 16.5107L23.4253 16.5281L19.5571 25.0061C19.5285 25.0688 19.5518 25.1437 19.6105 25.1776C19.6681 25.2109 19.74 25.1933 19.7775 25.1391L19.785 25.1269L24.5698 16.3314C24.6265 16.2271 24.7303 16.1601 24.845 16.1521L24.8681 16.1513H26.8627C26.9029 16.1513 26.9377 16.1223 26.9462 16.0818C26.9553 16.0382 26.9314 15.9951 26.8918 15.9804L26.8807 15.9771L24.8811 15.5331C24.7587 15.506 24.6611 15.4121 24.6256 15.2896L24.6196 15.2664L23.8121 11.5848C23.8029 11.5431 23.7661 11.5142 23.7246 11.5162C23.6814 11.5184 23.6472 11.5532 23.6435 11.5964L23.6433 11.6084L23.7903 14.807C23.7926 14.8568 23.7743 14.9052 23.7401 14.9403C23.6773 15.0046 23.5782 15.0084 23.5112 14.9517L23.4983 14.9396L19.2362 10.5237Z" fill="black"/>
</svg>
