<svg width="36" height="36" viewBox="0 0 36 36" fill="none" xmlns="http://www.w3.org/2000/svg">
<path d="M20.1831 35.8689C29.0947 34.7915 36 27.2022 36 18C36 12.7294 33.7347 7.98785 30.1246 4.69592C23.6987 6.88929 23.7634 16.5364 23.8078 23.1534C23.8155 24.306 23.8226 25.3667 23.7947 26.28C23.6924 29.6287 22.6379 33.2089 20.1831 35.8689Z" fill="#F83CF2"/>
<path d="M20.9665 35.7567C20.0014 35.9167 19.0104 36 18 36C9.86871 36 2.99674 30.6084 0.764038 23.2052C0.911199 23.2133 1.05654 23.2451 1.1973 23.3061C5.68686 25.2532 7.64059 24.4877 9.45352 19.7491C10.2478 17.6729 10.9231 15.5521 11.5981 13.4319C12.4218 10.8448 13.2452 8.25862 14.2844 5.75529C14.32 5.6696 14.3555 5.58361 14.3912 5.49742C15.3361 3.21448 16.3391 0.790935 18.6411 0.0111694C23.1188 0.167917 27.1807 1.96023 30.2475 4.80908C26.3121 7.84115 25.5418 12.286 24.8869 16.8886C24.6015 18.8939 24.4745 20.9132 24.3476 22.9321C24.1722 25.7205 23.997 28.5079 23.4046 31.2561C23.0074 33.0989 22.3313 34.6801 20.9665 35.7567Z" fill="#4480FD"/>
<path d="M0.0120212 17.336C2.91153 17.9695 4.76543 16.6604 6.02229 13.8273C6.79025 12.0963 7.65261 10.4067 8.51513 8.71679C9.103 7.565 9.69094 6.41308 10.2491 5.24782C11.2058 3.25047 12.4427 1.56972 14.2147 0.398698C15.4352 0.137487 16.7015 0 18 0C18.6806 0 19.3524 0.0377775 20.0135 0.11135C17.1948 0.931784 16.0994 3.62324 15.0951 6.13341C13.9756 8.93124 13.0719 11.8155 12.1682 14.6998C11.7789 15.9423 11.3896 17.1848 10.983 18.4203C10.9159 18.6242 10.8512 18.8289 10.7864 19.0337C10.6278 19.5354 10.4691 20.0372 10.2764 20.5253C8.14941 25.9126 5.2311 27.0228 1.02454 24.0009C0.361036 22.1239 0 20.1041 0 18C0 17.7777 0.00403009 17.5563 0.0120212 17.336Z" fill="#40ECCB"/>
<path d="M0.76325 12.7974C3.21366 12.0257 4.74548 10.2125 6.02449 7.97119C6.20063 7.66252 6.37466 7.35163 6.54889 7.04036C7.60795 5.14833 8.67474 3.2425 10.2718 1.73879C11.7328 1.04319 13.3023 0.538699 14.9481 0.257629C12.4265 2.59617 10.9804 5.63818 9.53231 8.68438C9.32844 9.11324 9.12453 9.54218 8.91758 9.96925C8.73108 10.3541 8.54684 10.741 8.36245 11.1283C7.53989 12.8556 6.71432 14.5893 5.67215 16.1754C3.8242 18.9877 2.64304 19.2726 0.00457764 17.5881C0.041899 15.9258 0.304572 14.3191 0.76325 12.7974Z" fill="#E75DE6"/>
<path d="M0.622498 13.2901C2.06686 7.9481 5.90881 3.59102 10.9224 1.44482C10.4188 2.27318 9.92058 3.10521 9.42235 3.93723C7.95622 6.3856 6.4901 8.83397 4.88707 11.189C3.91487 12.6173 2.68558 14.2661 0.622498 13.2901Z" fill="#FEC325"/>
</svg>
