<svg width="36" height="36" viewBox="0 0 36 36" fill="none" xmlns="http://www.w3.org/2000/svg">
<rect width="36" height="36" rx="18" fill="#312AC9"/>
<path fill-rule="evenodd" clip-rule="evenodd" d="M17.1651 23.744V26.3563C19.6461 26.5082 22.0728 25.5875 23.8285 23.8281C27.2206 20.436 27.2206 14.9365 23.8285 11.5448C23.5202 11.2363 23.1893 10.9513 22.8385 10.6921L20.9655 12.5649L12.5643 20.9651C11.0251 18.5593 11.3672 15.4067 13.3867 13.3871C14.6544 12.1169 16.4195 11.473 18.2074 11.6286V9.0162C15.7265 8.86438 13.2997 9.78519 11.5441 11.5446C8.15197 14.9366 8.15197 20.4361 11.5441 23.8279C11.8524 24.1364 12.1833 24.4214 12.5341 24.6805L14.407 22.8078L22.8081 14.4074C24.3474 16.8131 24.0053 19.9658 21.9857 21.9854C20.718 23.2557 18.953 23.8995 17.1651 23.744Z" fill="white"/>
</svg>
