<svg width="36" height="36" viewBox="0 0 36 36" fill="none" xmlns="http://www.w3.org/2000/svg">
<rect width="36" height="36" rx="18" fill="#05060F"/>
<path d="M7.69905 13.2917V19.7468C7.69905 20.0244 7.69905 20.3021 7.72207 20.5566C7.74509 20.8111 7.79113 21.0424 7.86019 21.2275C7.95227 21.4126 8.06737 21.5514 8.25153 21.6671C8.41266 21.7828 8.66588 21.8291 8.98816 21.8291C9.4946 21.8291 9.86291 21.6671 10.0471 21.3663C10.2312 21.0656 10.3463 20.5334 10.3463 19.8162V13.2686H11.3592V19.7468C11.3592 19.9087 11.3592 20.0938 11.3362 20.3252C11.3362 20.4676 11.3146 20.6209 11.2937 20.7701C11.284 20.8391 11.2744 20.9072 11.2671 20.973C11.2211 21.1813 11.152 21.4126 11.0599 21.6208C10.9679 21.8291 10.8297 22.0142 10.6456 22.1761C10.4614 22.3381 10.2543 22.4769 9.97801 22.5694C9.70178 22.662 9.3795 22.7314 8.96514 22.7314C8.38965 22.7314 7.95227 22.6389 7.62999 22.4538C7.30771 22.2687 7.07751 22.0373 6.93939 21.7597C6.80128 21.482 6.7092 21.1581 6.68618 20.8111C6.66316 20.464 6.64014 20.117 6.64014 19.7699V13.2917H7.69905Z" fill="white"/>
<path d="M12.3029 13.2686H13.4309L14.674 16.6002L15.9631 13.2686H16.999L15.1804 17.5257L17.2292 22.5232H16.0322L14.5589 18.6825L13.0856 22.5463H12.0497L14.0755 17.7108L12.3029 13.2686Z" fill="white"/>
<path fill-rule="evenodd" clip-rule="evenodd" d="M19.9233 13.2686H18.1277V22.5232H19.1866V18.7519H20.0844C20.5678 18.7519 20.9592 18.6825 21.2814 18.5437C21.6037 18.3817 21.8569 18.1966 22.0641 17.9421C22.2713 17.6876 22.4094 17.3869 22.5015 17.0629C22.5936 16.739 22.6396 16.392 22.6396 16.0218C22.6396 15.7442 22.6396 15.4897 22.5936 15.2814C22.5706 15.0732 22.5245 14.8881 22.4555 14.7262C22.3864 14.5642 22.3173 14.4254 22.2483 14.3097C22.1792 14.194 22.1102 14.1015 22.0411 14.0089C21.7879 13.7082 21.4886 13.4999 21.1663 13.4074C20.821 13.3148 20.4067 13.2686 19.9233 13.2686ZM20.0614 17.8727H19.1636V14.194H19.9693C20.1074 14.194 20.2455 14.194 20.4297 14.2172C20.6139 14.2403 20.798 14.3097 20.9592 14.4254C21.1203 14.5411 21.2814 14.7262 21.3965 14.9807C21.5116 15.2352 21.5807 15.6053 21.5807 16.0681C21.5807 16.4383 21.5347 16.7622 21.4656 16.9935C21.3965 17.2249 21.2814 17.41 21.1433 17.5488C21.0052 17.6645 20.8441 17.757 20.6599 17.8033C20.4757 17.8496 20.2686 17.8727 20.0614 17.8727Z" fill="white"/>
<path d="M24.4812 13.2686V14.4485H23.4444V13.2686H24.4812Z" fill="white"/>
<path d="M23.4905 15.6748H24.4351V22.5232H23.4905V15.6748Z" fill="white"/>
<path d="M26.3909 15.6747H25.5622V22.5231H26.506V18.5668C26.506 18.3817 26.506 18.1503 26.529 17.8958C26.552 17.6413 26.5981 17.41 26.6671 17.1786C26.7362 16.9704 26.8513 16.7853 26.9894 16.6233C27.1506 16.4614 27.3347 16.392 27.5879 16.392C27.7951 16.392 27.9563 16.4382 28.0714 16.5539C28.1864 16.6696 28.2785 16.8084 28.3246 16.9704C28.3706 17.1555 28.4166 17.3406 28.4166 17.5488C28.4397 17.7802 28.4397 17.9884 28.4397 18.1966V22.5231H29.3605V18.1735C29.3605 17.7802 29.3605 17.41 29.3374 17.0629C29.3144 16.6927 29.2454 16.4151 29.1303 16.2069C29.0382 15.9987 28.854 15.8367 28.6468 15.6979C28.4397 15.5822 28.1864 15.5128 27.8872 15.5128C27.634 15.5128 27.4268 15.5591 27.2426 15.6516C27.0815 15.7442 26.9204 15.8598 26.8053 15.9987C26.6902 16.1143 26.5981 16.2532 26.529 16.392C26.46 16.5308 26.4139 16.6465 26.3909 16.7159V15.6747Z" fill="white"/>
</svg>
