<svg width="36" height="36" viewBox="0 0 36 36" fill="none" xmlns="http://www.w3.org/2000/svg">
<rect width="36" height="36" rx="18" fill="#F3F3F3"/>
<path d="M18.0037 7.9537C18.8494 7.9537 19.6724 8.04545 20.4953 8.2519C20.701 8.29778 20.9296 8.18309 20.9982 7.97664C21.0896 7.74725 20.9753 7.49492 20.7467 7.40317C20.7239 7.40317 20.701 7.38023 20.701 7.38023C18.9409 6.96733 17.1122 6.96733 15.352 7.38023C15.1234 7.44905 14.9863 7.67843 15.032 7.90782C15.032 7.93076 15.032 7.9537 15.0549 7.9537C15.1234 8.16015 15.352 8.27484 15.5578 8.22896C16.3578 8.04545 17.1807 7.9537 18.0037 7.9537Z" fill="#495164"/>
<path d="M23.3981 9.12368C23.3752 9.30719 23.4438 9.46776 23.6038 9.55952C28.4727 12.6562 29.9357 19.1479 26.8498 24.0568C23.7638 28.9657 17.2948 30.4338 12.4258 27.337C7.55689 24.2403 6.07107 17.7487 9.15701 12.8398C10.0028 11.5093 11.1229 10.3853 12.4487 9.53658C12.6087 9.44482 12.6773 9.26131 12.6544 9.10074C12.6087 8.87136 12.403 8.68785 12.1515 8.73372C12.1058 8.73372 12.0372 8.75666 11.9915 8.80254C6.68825 12.1287 5.06528 19.1479 8.37981 24.4697C11.6943 29.7915 18.6892 31.4201 23.9924 28.094C29.2957 24.7679 30.9415 17.7716 27.627 12.4269C26.7126 10.9817 25.5011 9.74303 24.0381 8.82548C23.8324 8.71078 23.5581 8.7796 23.4438 8.98605C23.4209 9.03193 23.3981 9.0778 23.3981 9.12368Z" fill="#495164"/>
<path d="M20.3579 12.1058C19.8093 11.9911 19.2378 11.9223 18.6892 11.8764C18.4606 11.8764 18.232 11.8534 18.0034 11.8534C17.3177 11.8534 16.6319 11.8993 15.969 12.037C14.5517 12.2893 13.2031 12.7939 11.9687 13.528C11.1686 14.0097 10.4143 14.5602 9.72851 15.2254C9.54564 15.386 9.47707 15.6154 9.49992 15.8677L10.5971 24.5615C13.9345 28.6675 19.9693 29.2869 24.061 25.9149C24.5639 25.502 25.0211 25.0432 25.4097 24.5615L25.5697 23.254C26.5983 22.6805 27.2384 21.5565 27.2155 20.3637C27.2384 19.4691 26.8727 18.5974 26.2326 17.9552L26.4841 15.8677C26.5069 15.6383 26.4383 15.409 26.2783 15.2484C24.6553 13.6427 22.5752 12.5645 20.3579 12.1058Z" fill="#75D78B"/>
<path d="M16.9518 22.6805C16.609 22.864 16.2432 22.9557 15.8546 22.9557C14.4831 22.9557 13.4544 21.8547 13.4544 20.3637C13.4544 18.8727 14.4831 17.7716 15.8546 17.7716C16.4261 17.7716 16.9976 17.978 17.409 18.368C17.9576 18.8727 18.2777 19.6067 18.2548 20.3637C18.3005 21.3042 17.7976 22.1988 16.9518 22.6805Z" fill="#495164"/>
<path d="M25.2953 22.6805C24.9524 22.864 24.5866 22.9557 24.198 22.9557C22.8265 22.9557 21.7979 21.8547 21.7979 20.3637C21.7979 18.8727 22.8265 17.7716 24.198 17.7716C24.7695 17.7716 25.341 17.978 25.7524 18.368C26.3011 18.8727 26.6211 19.6067 26.5982 20.3637C26.6439 21.3042 26.1182 22.1988 25.2953 22.6805Z" fill="#495164"/>
<path d="M14.0945 12.5415L13.3402 7.6326C12.5401 7.67847 11.8543 7.05913 11.8086 6.23333C11.7629 5.52223 12.2429 4.90288 12.9287 4.74231C13.7059 4.5588 14.4831 5.04052 14.6888 5.7975C14.8488 6.46272 14.5517 7.15088 13.9345 7.47202L15.7175 12.1057C15.1689 12.2203 14.6203 12.358 14.0945 12.5415Z" fill="#495164"/>
<path d="M20.3579 12.1058L22.141 7.44913C21.4324 7.08211 21.1352 6.1875 21.5238 5.4764C21.8439 4.85705 22.5753 4.53591 23.2382 4.74236C24.0154 4.97175 24.4498 5.79754 24.2212 6.57746C24.0383 7.21974 23.4211 7.65558 22.7582 7.6097C22.5296 9.0319 22.2553 10.8211 21.981 12.5415C21.4324 12.381 20.9065 12.2205 20.3579 12.1058Z" fill="#495164"/>
<path d="M16.9518 22.6805C16.609 22.864 16.2432 22.9557 15.8546 22.9557C14.4831 22.9557 13.4544 21.8547 13.4544 20.3637C13.4544 18.8727 14.4831 17.7716 15.8546 17.7716C16.4261 17.7716 16.9976 17.978 17.409 18.368C17.9576 18.8727 18.2777 19.6067 18.2548 20.3637C18.3005 21.3042 17.7976 22.1988 16.9518 22.6805Z" fill="white"/>
<path d="M25.2953 22.6805C24.9524 22.864 24.5866 22.9557 24.198 22.9557C22.8265 22.9557 21.7979 21.8547 21.7979 20.3637C21.7979 18.8727 22.8265 17.7716 24.198 17.7716C24.7695 17.7716 25.341 17.978 25.7524 18.368C26.3011 18.8727 26.6211 19.6067 26.5982 20.3637C26.6439 21.3042 26.1182 22.1988 25.2953 22.6805Z" fill="white"/>
<path d="M24.3811 19.3774C24.244 19.148 24.0154 19.0104 23.7411 19.0104C23.4897 19.0104 23.2611 19.1251 23.1239 19.3545C22.941 19.6068 22.8496 19.9279 22.8496 20.2491C22.8267 20.5702 22.9182 20.8914 23.1011 21.1666C23.2839 21.5107 23.7182 21.6483 24.0611 21.4419C24.1754 21.3731 24.2669 21.2813 24.3354 21.1666C24.5183 20.9143 24.6097 20.6161 24.6097 20.2949C24.6555 19.9738 24.564 19.6527 24.3811 19.3774Z" fill="#495164"/>
<path d="M23.9238 20.1572C24.0879 20.1572 24.2209 20.0237 24.2209 19.859C24.2209 19.6943 24.0879 19.5608 23.9238 19.5608C23.7597 19.5608 23.6266 19.6943 23.6266 19.859C23.6266 20.0237 23.7597 20.1572 23.9238 20.1572Z" fill="white"/>
<path d="M16.0604 19.3774C15.9233 19.148 15.6947 19.0104 15.4204 19.0104C15.1689 19.0104 14.9404 19.1251 14.8032 19.3545C14.6203 19.6068 14.5289 19.9279 14.5289 20.2491C14.506 20.5702 14.5975 20.8914 14.7803 21.1666C14.9632 21.5107 15.3975 21.6483 15.7404 21.4419C15.8547 21.3731 15.9461 21.2813 16.0147 21.1666C16.1976 20.9143 16.289 20.6161 16.289 20.2949C16.3119 19.9738 16.2433 19.6527 16.0604 19.3774Z" fill="#495164"/>
<path d="M15.5803 20.1572C15.7444 20.1572 15.8775 20.0237 15.8775 19.859C15.8775 19.6943 15.7444 19.5608 15.5803 19.5608C15.4162 19.5608 15.2831 19.6943 15.2831 19.859C15.2831 20.0237 15.4162 20.1572 15.5803 20.1572Z" fill="white"/>
</svg>
