<svg width="36" height="36" viewBox="0 0 36 36" fill="none" xmlns="http://www.w3.org/2000/svg">
<rect width="36" height="36" rx="18" fill="#4353FF"/>
<path d="M23.4901 15.6871C23.4901 15.6871 21.9331 20.5651 21.8161 20.9791C21.7711 20.5651 20.6371 11.7991 20.6371 11.7991C17.9821 11.7991 16.5691 13.6801 15.8221 15.6871C15.8221 15.6871 13.9321 20.5831 13.7791 20.9971C13.7701 20.6101 13.4911 15.7411 13.4911 15.7411C13.3291 13.2931 11.0971 11.8081 9.28809 11.8081L11.4661 25.0921C14.2471 25.0831 15.7411 23.2021 16.5241 21.2041C16.5241 21.2041 18.1891 16.8841 18.2611 16.6861C18.2791 16.8751 19.4581 25.0921 19.4581 25.0921C22.2391 25.0921 23.7421 23.3281 24.5521 21.4021L28.4401 11.7991C25.6861 11.7991 24.2371 13.6801 23.4901 15.6871Z" fill="white"/>
</svg>
