<svg width="36" height="36" viewBox="0 0 36 36" fill="none" xmlns="http://www.w3.org/2000/svg">
<rect width="36" height="36" rx="18" fill="#9E3AE3"/>
<path d="M17.9938 23.8032L17.999 23.798L20.0569 25.8559C20.4514 26.2503 21.0909 26.2503 21.4853 25.8559L28.6271 18.7141C29.0215 18.3197 29.0215 17.6802 28.6271 17.2857L21.4853 10.144C21.0909 9.74954 20.4514 9.74954 20.0569 10.144L17.999 12.2019L17.9926 12.1954L16.5642 13.6238L16.5707 13.6302L12.9152 17.2857C12.5207 17.6802 12.5207 18.3197 12.9152 18.7141L16.5707 22.3696L16.5655 22.3748L17.9938 23.8032Z" fill="white"/>
<path d="M16.5873 22.3516L15.227 23.7133L9.51355 17.9999L15.227 12.2865L16.6091 13.6355L18.0375 12.2071L15.9412 10.144C15.5467 9.74954 14.9072 9.74954 14.5128 10.144L7.37102 17.2857C6.97659 17.6802 6.97659 18.3197 7.37102 18.7141L14.5128 25.8559C14.9072 26.2503 15.5467 26.2503 15.9412 25.8559L18.0157 23.78L16.5873 22.3516Z" fill="white" fill-opacity="0.72"/>
</svg>
