<svg width="36" height="36" viewBox="0 0 36 36" fill="none" xmlns="http://www.w3.org/2000/svg">
<rect width="36" height="36" rx="18" fill="#6944D5"/>
<path fill-rule="evenodd" clip-rule="evenodd" d="M19.9501 14.1027C20.3237 14.3999 20.6373 14.7823 20.8508 15.2413L22.2173 12.8746C23.0843 11.3729 25.0045 10.8584 26.5062 11.7254C28.0078 12.5924 28.5224 14.5126 27.6554 16.0142L23.6772 22.9047C23.5496 23.1668 23.385 23.4125 23.1855 23.6331C22.2176 24.7328 20.5781 25.0354 19.2607 24.2748C18.6916 23.9462 18.2643 23.4664 18.0002 22.9153C17.7361 23.4664 17.3088 23.9463 16.7396 24.2749C15.2379 25.1419 13.3177 24.6274 12.4507 23.1257L8.34499 16.0144C7.47799 14.5127 7.99251 12.5925 9.49419 11.7255C10.9959 10.8585 12.9161 11.373 13.7831 12.8747L15.0897 15.1379C15.3526 14.5747 15.7849 14.0837 16.3641 13.7493C17.4632 13.1147 18.9302 13.2912 19.9501 14.1027ZM19.6274 15.8106C19.6472 15.8531 19.669 15.8942 19.6928 15.9339L20.1918 16.8877C20.4315 17.3459 21.0764 17.3752 21.3566 16.9406L21.9298 16.0517C21.9621 16.0086 21.9921 15.9633 22.0194 15.916L23.3859 13.5493C23.8802 12.693 24.9752 12.3996 25.8315 12.894C26.6877 13.3883 26.9811 14.4833 26.4868 15.3396L22.5086 22.23C22.4927 22.2575 22.4778 22.2856 22.4639 22.3141C22.391 22.4638 22.2973 22.6034 22.1844 22.7284L22.1825 22.7305L22.1727 22.7416C21.6211 23.3681 20.6853 23.5391 19.9354 23.1062C19.5685 22.8944 19.307 22.5753 19.164 22.2101C19.1393 22.147 19.1099 22.0859 19.076 22.0272L16.3834 17.3635C15.8891 16.5072 16.1825 15.4123 17.0387 14.9179C17.8447 14.4526 19.1601 14.8064 19.6274 15.8106Z" fill="white"/>
</svg>
