<svg width="37" height="36" viewBox="0 0 37 36" fill="none" xmlns="http://www.w3.org/2000/svg">
<path fill-rule="evenodd" clip-rule="evenodd" d="M3.3335 7.5C3.3335 5.01472 5.34821 3 7.8335 3H28.8335C31.3188 3 33.3335 5.01472 33.3335 7.5V23.2726C33.3335 25.3312 31.6647 27 29.6061 27C29.1309 27 28.7833 27.4483 28.9016 27.9085L28.9935 28.2657C29.9564 32.0104 25.5876 34.8173 22.5819 32.385L16.3403 27.334C16.0733 27.1179 15.7402 27 15.3967 27H7.8335C5.34821 27 3.3335 24.9853 3.3335 22.5V7.5ZM7.8335 6C7.00507 6 6.3335 6.67157 6.3335 7.5V22.5C6.3335 23.3284 7.00507 24 7.8335 24H15.3967C16.4272 24 17.4264 24.3537 18.2275 25.0019L24.4691 30.0529C25.228 30.6671 26.3311 29.9584 26.088 29.0128L25.9962 28.6557C25.3897 26.2971 27.1708 24 29.6061 24C30.0078 24 30.3335 23.6743 30.3335 23.2726V7.5C30.3335 6.67157 29.6619 6 28.8335 6H7.8335Z" fill="white"/>
</svg>
