<svg width="37" height="36" viewBox="0 0 37 36" fill="none" xmlns="http://www.w3.org/2000/svg">
<path d="M26.445 12.8916C25.95 12.3992 25.1486 12.3995 24.654 12.8923L21.3594 16.1733L18.0693 12.8986C17.5746 12.406 16.7731 12.4059 16.2783 12.8985C15.7826 13.392 15.7825 14.1929 16.2781 14.6865L19.5698 17.9628L16.306 21.295C15.8123 21.7889 15.8132 22.5885 16.3085 23.0812C16.8035 23.5737 17.6051 23.5733 18.0997 23.0804L21.3617 19.75L24.6972 23.1066L24.6985 23.1079C25.1932 23.6007 25.9948 23.6007 26.4896 23.1081C26.9851 22.6149 26.9847 21.8139 26.4898 21.3203L23.1512 17.9605L26.4458 14.6795C26.9412 14.1857 26.9409 13.3849 26.445 12.8916Z" fill="white"/>
<path fill-rule="evenodd" clip-rule="evenodd" d="M5.1663 21.302C3.24275 19.5209 3.24274 16.4792 5.1663 14.6982L11.6463 8.69816C12.4781 7.92796 13.57 7.50009 14.7036 7.50009L28.5122 7.5C30.9975 7.5 33.0123 9.51476 33.0123 12L33.0123 24C33.0123 26.4853 30.9975 28.5001 28.5122 28.5001L14.7036 28.5001C13.57 28.5001 12.4781 28.0722 11.6463 27.302L5.1663 21.302ZM7.20452 16.8994C6.56334 17.4931 6.56334 18.507 7.20452 19.1007L13.6845 25.1007C13.9618 25.3575 14.3258 25.5001 14.7036 25.5001L28.5123 25.5C29.3407 25.5 30.0123 24.8285 30.0123 24L30.0123 12C30.0123 11.1716 29.3407 10.5 28.5122 10.5L14.7036 10.5001C14.3258 10.5001 13.9618 10.6427 13.6845 10.8994L7.20452 16.8994Z" fill="white"/>
</svg>
