<svg width="37" height="36" viewBox="0 0 37 36" fill="none" xmlns="http://www.w3.org/2000/svg">
<path d="M5.1665 7.5C5.1665 6.67157 5.83808 6 6.6665 6H30.6665C31.4949 6 32.1665 6.67157 32.1665 7.5C32.1665 8.32843 31.4949 9 30.6665 9H6.6665C5.83808 9 5.1665 8.32843 5.1665 7.5Z" fill="white"/>
<path d="M5.1665 28.5C5.1665 27.6716 5.83808 27 6.6665 27H30.6665C31.4949 27 32.1665 27.6716 32.1665 28.5C32.1665 29.3284 31.4949 30 30.6665 30H6.6665C5.83808 30 5.1665 29.3284 5.1665 28.5Z" fill="white"/>
<path d="M5.1665 18C5.1665 17.1716 5.83808 16.5 6.6665 16.5H30.6665C31.4949 16.5 32.1665 17.1716 32.1665 18C32.1665 18.8284 31.4949 19.5 30.6665 19.5H6.6665C5.83808 19.5 5.1665 18.8284 5.1665 18Z" fill="white"/>
<path fill-rule="evenodd" clip-rule="evenodd" d="M25.1058 12.4393C25.6916 11.8536 26.6414 11.8536 27.2272 12.4393L31.7272 16.9393C32.313 17.5251 32.313 18.4749 31.7272 19.0607L27.2272 23.5607C26.6414 24.1464 25.6916 24.1464 25.1058 23.5607C24.5201 22.9749 24.5201 22.0251 25.1058 21.4393L28.5452 18L25.1058 14.5607C24.5201 13.9749 24.5201 13.0251 25.1058 12.4393Z" fill="white"/>
</svg>
