<svg width="37" height="36" viewBox="0 0 37 36" fill="none" xmlns="http://www.w3.org/2000/svg">
<path d="M4.8335 7.5C4.8335 6.67157 5.50507 6 6.3335 6H30.3335C31.1619 6 31.8335 6.67157 31.8335 7.5C31.8335 8.32843 31.1619 9 30.3335 9H6.3335C5.50507 9 4.8335 8.32843 4.8335 7.5Z" fill="white"/>
<path d="M4.8335 28.5C4.8335 27.6716 5.50507 27 6.3335 27H30.3335C31.1619 27 31.8335 27.6716 31.8335 28.5C31.8335 29.3284 31.1619 30 30.3335 30H6.3335C5.50507 30 4.8335 29.3284 4.8335 28.5Z" fill="white"/>
<path d="M31.8335 18C31.8335 18.8284 31.1619 19.5 30.3335 19.5L6.3335 19.5C5.50507 19.5 4.8335 18.8284 4.8335 18C4.8335 17.1716 5.50507 16.5 6.3335 16.5L30.3335 16.5C31.1619 16.5 31.8335 17.1716 31.8335 18Z" fill="white"/>
<path fill-rule="evenodd" clip-rule="evenodd" d="M11.8942 23.5607C11.3084 24.1464 10.3586 24.1464 9.77284 23.5607L5.27284 19.0607C4.68705 18.4749 4.68705 17.5251 5.27284 16.9393L9.77284 12.4393C10.3586 11.8536 11.3084 11.8536 11.8942 12.4393C12.4799 13.0251 12.4799 13.9749 11.8942 14.5607L8.45482 18L11.8942 21.4393C12.4799 22.0251 12.4799 22.9749 11.8942 23.5607Z" fill="white"/>
</svg>
