<svg width="36" height="36" viewBox="0 0 36 36" fill="none" xmlns="http://www.w3.org/2000/svg">
<path d="M24.4393 13.9393L19.5 18.8787L19.5 4.5C19.5 3.67157 18.8284 3 18 3C17.1716 3 16.5 3.67157 16.5 4.5L16.5 18.8787L11.5607 13.9393C10.9749 13.3536 10.0251 13.3536 9.43934 13.9393C8.85355 14.5251 8.85355 15.4749 9.43934 16.0607L16.9393 23.5607C17.5251 24.1464 18.4749 24.1464 19.0607 23.5607L26.5607 16.0607C27.1464 15.4749 27.1464 14.5251 26.5607 13.9393C25.9749 13.3536 25.0251 13.3536 24.4393 13.9393Z" fill="white"/>
<path d="M9 24C9 23.1716 8.32843 22.5 7.5 22.5C6.67157 22.5 6 23.1716 6 24V28.5C6 30.9853 8.01472 33 10.5 33H25.5C27.9853 33 30 30.9853 30 28.5V24C30 23.1716 29.3284 22.5 28.5 22.5C27.6716 22.5 27 23.1716 27 24V28.5C27 29.3284 26.3284 30 25.5 30H10.5C9.67157 30 9 29.3284 9 28.5V24Z" fill="white"/>
</svg>
