<svg width="37" height="36" viewBox="0 0 37 36" fill="none" xmlns="http://www.w3.org/2000/svg">
<path fill-rule="evenodd" clip-rule="evenodd" d="M24.1638 4.22536C25.7168 2.67228 28.2349 2.67228 29.7879 4.22535L32.6308 7.0685C34.1839 8.62157 34.1839 11.1396 32.6308 12.6927L15.369 29.9545C14.5276 30.7959 13.4671 31.3845 12.3079 31.6535L5.88018 32.8881C4.45509 33.2187 3.20298 31.8893 3.61837 30.4865L5.28233 24.1976C5.5835 23.1806 6.13412 22.255 6.88414 21.505L24.1638 4.22536ZM27.5383 6.47504C27.2277 6.16442 26.724 6.16442 26.4134 6.47504L24.3977 8.49074L26.2489 10.4533L28.3099 12.5143L30.3811 10.443C30.6917 10.1324 30.6917 9.62879 30.3811 9.31818L27.5383 6.47504ZM26.0602 14.764L23.9636 12.6673L22.1469 10.7416L9.13382 23.7546C8.75881 24.1297 8.4835 24.5925 8.33292 25.101L7.28928 29.2951L11.5888 28.5543C12.1684 28.4198 12.6986 28.1255 13.1193 27.7048L26.0602 14.764Z" fill="white"/>
</svg>
