<svg width="37" height="36" viewBox="0 0 37 36" fill="none" xmlns="http://www.w3.org/2000/svg">
<path d="M9.76024 11.8783C9.76024 11.3688 9.76024 10.8742 9.76024 10.3797C9.76342 9.33265 10.1307 8.31957 10.7987 7.51522C11.4668 6.71087 12.3937 6.16569 13.4195 5.97374C13.6871 5.93716 13.9584 5.93716 14.226 5.97374C14.3157 5.98047 14.4049 5.95577 14.4784 5.90384C14.552 5.85191 14.6053 5.77598 14.6293 5.689C15.032 4.76816 15.7309 4.00941 16.6141 3.53403C17.4973 3.05866 18.5138 2.89412 19.5012 3.06672C20.4885 3.23932 21.3897 3.73908 22.0607 4.48613C22.7316 5.23317 23.1336 6.18436 23.2023 7.18762C23.1949 7.27739 23.1949 7.36761 23.2023 7.45737C23.7057 7.54654 24.2042 7.66159 24.6959 7.80205C25.5698 8.11209 26.3264 8.68648 26.8614 9.44606C27.3964 10.2056 27.6835 11.113 27.683 12.0431C27.683 13.287 27.683 14.5458 27.683 15.8047V16.1943C28.0265 16.1943 28.3401 16.0594 28.6389 16.0295C29.2865 15.9343 29.9471 15.9855 30.5724 16.1795C31.1978 16.3735 31.7719 16.7053 32.253 17.1506C32.7341 17.596 33.1098 18.1436 33.3528 18.7534C33.5957 19.3632 33.6998 20.0198 33.6572 20.6752C33.6282 21.3372 33.4218 21.9792 33.0598 22.5335C31.8211 24.5162 30.4383 26.4046 28.9226 28.1832C26.5973 30.8214 23.3645 32.4808 19.8717 32.829C18.2656 33.0881 16.6259 33.0525 15.0325 32.7241C12.8131 32.252 10.7735 31.1558 9.15218 29.5635C7.53086 27.9712 6.39485 25.9486 5.87698 23.7324C5.24342 21.2174 5.03143 18.6142 5.24968 16.0295C5.32519 14.9737 5.76954 13.9785 6.50448 13.2191C7.23941 12.4598 8.21781 11.985 9.26736 11.8783H9.76024ZM20.2152 12.178C20.2152 10.5745 20.2152 8.97097 20.2152 7.36745C20.2184 7.14726 20.1732 6.92906 20.0828 6.72838C19.9924 6.52771 19.859 6.34949 19.6922 6.2064C19.5253 6.06332 19.3291 5.95889 19.1175 5.90055C18.9058 5.8422 18.684 5.83138 18.4677 5.86884C18.0954 5.93501 17.762 6.14039 17.5347 6.44355C17.3074 6.74671 17.2032 7.12508 17.243 7.50233V17.0485C17.243 17.2472 17.1643 17.4378 17.0243 17.5784C16.8842 17.7189 16.6943 17.7978 16.4962 17.7978C16.2981 17.7978 16.1082 17.7189 15.9681 17.5784C15.8281 17.4378 15.7494 17.2472 15.7494 17.0485V10.3797C15.7494 9.98222 15.5921 9.60104 15.312 9.31999C15.0319 9.03895 14.652 8.88106 14.2559 8.88106C13.8597 8.88106 13.4798 9.03895 13.1998 9.31999C12.9197 9.60104 12.7623 9.98222 12.7623 10.3797V17.8728C12.7623 18.9817 12.5681 19.3714 12.0006 19.3714C11.433 19.3714 11.2538 19.0267 11.2538 17.8728C11.2538 17.3782 11.2538 16.8687 11.2538 16.3741C11.2356 15.9826 11.0724 15.6119 10.7962 15.3347C10.5199 15.0575 10.1505 14.8938 9.76024 14.8755C9.36412 14.8755 8.98423 15.0334 8.70413 15.3145C8.42403 15.5955 8.26668 15.9767 8.26668 16.3741C8.13609 18.5179 8.32232 20.6692 8.8193 22.7582C9.19422 24.5604 10.1114 26.2036 11.4469 27.4659C12.7824 28.7282 14.4719 29.5488 16.2871 29.8167C17.5188 29.9917 18.7712 29.9563 19.9911 29.7118C22.4725 29.3852 24.7637 28.2039 26.4732 26.3699C27.9596 24.6531 29.2986 22.8133 30.4759 20.87C30.6255 20.6407 30.6922 20.3669 30.6651 20.0942C30.6379 19.8215 30.5184 19.5664 30.3266 19.3714C30.1656 19.1979 29.9676 19.0631 29.7474 18.9772C29.5272 18.8913 29.2905 18.8564 29.055 18.8751C28.8194 18.8938 28.5912 18.9657 28.3872 19.0854C28.1833 19.2051 28.0089 19.3694 27.8771 19.5662C27.444 20.2256 27.0258 20.915 26.5927 21.5743C26.4998 21.7134 26.3743 21.8274 26.2271 21.9063C26.0799 21.9851 25.9157 22.0263 25.7488 22.0263C25.582 22.0263 25.4177 21.9851 25.2705 21.9063C25.1233 21.8274 24.9978 21.7134 24.905 21.5743C24.7549 21.3426 24.677 21.0714 24.6809 20.7951C24.6809 17.7978 24.6809 14.8006 24.6809 11.9083C24.6999 11.5852 24.6142 11.2646 24.4365 10.9944C24.2588 10.7243 23.9987 10.5191 23.6952 10.4096C23.4632 10.3278 23.2147 10.3048 22.9718 10.3424C22.7288 10.3801 22.4988 10.4774 22.3023 10.6257C22.1058 10.7739 21.9488 10.9685 21.8453 11.1923C21.7417 11.416 21.6948 11.662 21.7087 11.9083C21.7087 13.5268 21.7087 15.1603 21.7087 16.7788C21.7396 16.9623 21.7396 17.1497 21.7087 17.3333C21.6659 17.5112 21.5571 17.666 21.4045 17.7662C21.2519 17.8665 21.0669 17.9046 20.8873 17.8728C20.7025 17.8397 20.537 17.7381 20.4235 17.5882C20.31 17.4382 20.257 17.2509 20.2749 17.0635C20.1853 15.43 20.1853 13.7965 20.1853 12.163L20.2152 12.178Z" fill="white"/>
</svg>
