<svg width="36" height="36" viewBox="0 0 36 36" fill="none" xmlns="http://www.w3.org/2000/svg">
<path fill-rule="evenodd" clip-rule="evenodd" d="M15.4398 9.84285C14.674 9.07708 13.3353 8.30722 10.8653 8.92487C8.3868 9.54465 6.55838 11.3913 5.95105 13.6681C5.35499 15.9028 5.89432 18.7402 8.56345 21.4089L16.9448 29.789C17.5308 30.3749 18.4769 30.3747 19.0628 29.7884C20.945 27.905 23.9358 24.9128 27.4396 21.409C30.1074 18.7412 30.647 15.9037 30.051 13.6686C29.4439 11.3915 27.6158 9.54464 25.1369 8.92489C22.666 8.30716 21.3271 9.07716 20.5614 9.84284C20.1425 10.2617 19.8543 10.726 19.6705 11.0936C19.5798 11.2749 19.5183 11.4253 19.4813 11.5237C19.463 11.5727 19.451 11.6081 19.4447 11.6272L19.4399 11.6423C19.2525 12.2805 18.6668 12.7196 18.0008 12.7197C17.3348 12.7197 16.749 12.2807 16.5615 11.6425L16.5567 11.6274C16.5504 11.6083 16.5384 11.5729 16.52 11.5239C16.4831 11.4254 16.4215 11.275 16.3309 11.0937C16.147 10.7261 15.8587 10.2617 15.4398 9.84285ZM18.0006 8.20184C18.1353 8.04106 18.2815 7.88007 18.4401 7.72151C19.9244 6.2372 22.3355 5.13219 25.8645 6.01447C29.3854 6.89472 32.0571 9.54785 32.9498 12.8957C33.8536 16.2857 32.8931 20.1982 29.5609 23.5303C26.0574 27.0338 23.0669 30.0258 21.1848 31.9091C19.4277 33.6673 16.5817 33.6682 14.8236 31.9104L6.4423 23.5304C3.10882 20.1975 2.14816 16.2849 3.0524 12.895C3.94536 9.54724 6.61751 6.89471 10.1375 6.01449C13.666 5.13214 16.0769 6.23728 17.5611 7.72151C17.7197 7.88007 17.8659 8.04106 18.0006 8.20184Z" fill="white"/>
</svg>
