<svg width="37" height="36" viewBox="0 0 37 36" fill="none" xmlns="http://www.w3.org/2000/svg">
<path fill-rule="evenodd" clip-rule="evenodd" d="M13.8361 9.88846L16.1696 12.2219L20.8922 7.49927C23.1768 5.2147 26.8808 5.2147 29.1654 7.49927C31.4499 9.78383 31.4499 13.4878 29.1654 15.7724L24.4427 20.4951L26.7762 22.8285L31.4988 18.1059C35.0721 14.5326 35.0721 8.73911 31.4988 5.16581C27.9255 1.59252 22.1321 1.59251 18.5588 5.16581L13.8361 9.88846Z" fill="white"/>
<path fill-rule="evenodd" clip-rule="evenodd" d="M8.1643 20.2272L12.1391 16.2524L9.80562 13.919L5.83085 17.8937C2.25755 21.467 2.25755 27.2605 5.83085 30.8338C9.40415 34.4071 15.1976 34.4071 18.7709 30.8338L22.7457 26.859L20.4122 24.5256L16.4375 28.5003C14.1529 30.7849 10.4489 30.7849 8.1643 28.5003C5.87974 26.2158 5.87974 22.5118 8.1643 20.2272Z" fill="white"/>
<path fill-rule="evenodd" clip-rule="evenodd" d="M12.1979 22.1366C11.5535 22.781 11.5535 23.8257 12.1979 24.47C12.8422 25.1144 13.8869 25.1144 14.5313 24.47L25.1379 13.8634C25.7823 13.2191 25.7823 12.1744 25.1379 11.53C24.4935 10.8856 23.4488 10.8856 22.8045 11.53L12.1979 22.1366Z" fill="white"/>
</svg>
