<svg width="36" height="36" viewBox="0 0 36 36" fill="none" xmlns="http://www.w3.org/2000/svg">
<path fill-rule="evenodd" clip-rule="evenodd" d="M25.5 19.95V13.5C25.5 9.9 22.95 6.9 19.5 6.15V4.5C19.5 3.75 18.75 3 18 3C17.25 3 16.5 3.75 16.5 4.5V6.15C13.05 6.9 10.5 9.9 10.5 13.5V20.1C8.85 20.85 6 22.95 6 27C6 27.75 6.75 28.5 7.5 28.5H13.5C13.5 30.9853 15.5147 33 18 33C20.4853 33 22.5 30.9853 22.5 28.5H28.5C29.25 28.5 30 27.75 30 27C30 22.95 27.15 20.85 25.5 19.95ZM9.3 25.5H26.85C26.0444 23.6204 24.3977 22.8824 23.7383 22.5868C23.661 22.5522 23.5972 22.5236 23.55 22.5C22.95 22.2 22.5 21.6 22.5 21V13.5C22.5 11.1 20.55 9 18 9C15.45 9 13.5 11.1 13.5 13.5V21C13.5 21.6 13.05 22.2 12.6 22.5C12.4741 22.584 12.2887 22.6657 12.0674 22.7633C11.2343 23.1306 9.89259 23.7222 9.3 25.5ZM18 30C17.1716 30 16.5 29.3284 16.5 28.5H19.5C19.5 29.3284 18.8284 30 18 30Z" fill="white"/>
</svg>
