<svg width="37" height="36" viewBox="0 0 37 36" fill="none" xmlns="http://www.w3.org/2000/svg">
<path fill-rule="evenodd" clip-rule="evenodd" d="M25.6673 4.31531C23.9136 2.56156 21.0702 2.56156 19.3165 4.31531C17.6988 5.93298 17.5733 8.47777 18.94 10.2393L13.2612 13.0787L11.9071 11.7246C10.1534 9.9709 7.31003 9.9709 5.55629 11.7246C3.80255 13.4784 3.80255 16.3218 5.55629 18.0755L10.8487 23.3679L3.3335 30.883L3.43934 32.8942L5.45045 33L12.9656 25.4848L18.258 30.7772C20.0117 32.5309 22.8551 32.5309 24.6089 30.7772C26.3626 29.0235 26.3626 26.1801 24.6089 24.4263L23.2548 23.0723L26.0942 17.3935C27.8557 18.7602 30.4005 18.6347 32.0182 17.017C33.7719 15.2633 33.7719 12.4199 32.0182 10.6662L25.6673 4.31531ZM21.4334 6.43226C22.018 5.84768 22.9658 5.84768 23.5504 6.43226L29.9012 12.7831C30.4858 13.3677 30.4858 14.3155 29.9012 14.9001C29.3167 15.4846 28.3689 15.4846 27.7843 14.9001L26.7258 13.8416C26.3856 13.5013 25.9025 13.3454 25.4276 13.4225C24.9526 13.4996 24.5436 13.8003 24.3285 14.2306L20.0946 22.6984C19.8064 23.2747 19.9194 23.9707 20.375 24.4263L22.4919 26.5433C23.0765 27.1279 23.0765 28.0757 22.4919 28.6603C21.9073 29.2448 20.9595 29.2448 20.375 28.6603L7.67325 15.9585C7.08867 15.374 7.08867 14.4262 7.67325 13.8416C8.25783 13.257 9.20562 13.257 9.7902 13.8416L11.9071 15.9585C12.3628 16.4141 13.0588 16.5271 13.6351 16.2389L22.1029 12.005C22.5332 11.7899 22.8339 11.3809 22.911 10.9059C22.9881 10.431 22.8321 9.94793 22.4919 9.60769L21.4334 8.54921C20.8489 7.96463 20.8489 7.01684 21.4334 6.43226Z" fill="white"/>
</svg>
