<svg width="36" height="36" viewBox="0 0 36 36" fill="none" xmlns="http://www.w3.org/2000/svg">
<path fill-rule="evenodd" clip-rule="evenodd" d="M29.5447 3.05025C31.7921 1.92657 34.3425 3.89809 33.8211 6.35604L29.563 26.4299C29.1932 28.1732 27.3942 29.2116 25.6997 28.66L21.92 27.4296L16.49 32.7926C15.0597 34.2052 12.6361 33.1761 12.659 31.166L12.7374 24.3068L4.3323 21.3403C1.83581 20.4592 1.6212 17.012 3.98912 15.8281L29.5447 3.05025ZM15.7259 25.3362L15.6797 29.3763L18.7345 26.3592L15.7259 25.3362ZM17.0329 22.6119L25.1839 14.5743C25.7738 13.9926 25.7804 13.0429 25.1988 12.453C24.6171 11.8631 23.6674 11.8565 23.0775 12.4382L13.8643 21.5232L5.33076 18.5113L30.8864 5.73353L26.6283 25.8074L21.9893 24.2973L17.0329 22.6119Z" fill="white"/>
</svg>
