<svg width="36" height="36" viewBox="0 0 36 36" fill="none" xmlns="http://www.w3.org/2000/svg">
<path fill-rule="evenodd" clip-rule="evenodd" d="M4.5 9C4.5 6.51472 6.51472 4.5 9 4.5H10.5C11.3284 4.5 12 5.17157 12 6C12 6.82843 11.3284 7.5 10.5 7.5H9C8.17157 7.5 7.5 8.17157 7.5 9V27C7.5 27.8284 8.17157 28.5 9 28.5H27C27.8284 28.5 28.5 27.8284 28.5 27V25.5C28.5 24.6716 29.1716 24 30 24C30.8284 24 31.5 24.6716 31.5 25.5V27C31.5 29.4853 29.4853 31.5 27 31.5H9C6.51472 31.5 4.5 29.4853 4.5 27V9Z" fill="white"/>
<path fill-rule="evenodd" clip-rule="evenodd" d="M19.5002 7.5C18.6718 7.5 18.0002 6.82843 18.0002 6C18.0002 5.17157 18.6718 4.5 19.5002 4.5H30.1068C30.9353 4.5 31.6068 5.17157 31.6068 6L31.6068 16.6066C31.6068 17.435 30.9353 18.1066 30.1068 18.1066C29.2784 18.1066 28.6068 17.435 28.6068 16.6066L28.6068 9.51472L17.5607 20.5609C16.9749 21.1467 16.0251 21.1467 15.4393 20.5609C14.8536 19.9751 14.8536 19.0254 15.4393 18.4396L26.3789 7.5H19.5002Z" fill="white"/>
</svg>
