<svg width="36" height="36" viewBox="0 0 36 36" fill="none" xmlns="http://www.w3.org/2000/svg">
<path d="M9.43934 13.0607C10.0251 13.6464 10.9749 13.6464 11.5607 13.0607L16.5 8.12132V22.5C16.5 23.3284 17.1716 24 18 24C18.8284 24 19.5 23.3284 19.5 22.5V8.12132L24.4393 13.0607C25.0251 13.6464 25.9749 13.6464 26.5607 13.0607C27.1464 12.4749 27.1464 11.5251 26.5607 10.9393L19.0607 3.43934C18.9168 3.29552 18.7511 3.18702 18.5742 3.11382C18.3973 3.04048 18.2034 3 18 3C17.6161 3 17.2322 3.14645 16.9393 3.43934L9.43934 10.9393C8.85355 11.5251 8.85355 12.4749 9.43934 13.0607Z" fill="white"/>
<path d="M9 24C9 23.1716 8.32843 22.5 7.5 22.5C6.67157 22.5 6 23.1716 6 24V28.5C6 30.9853 8.01472 33 10.5 33H25.5C27.9853 33 30 30.9853 30 28.5V24C30 23.1716 29.3284 22.5 28.5 22.5C27.6716 22.5 27 23.1716 27 24V28.5C27 29.3284 26.3284 30 25.5 30H10.5C9.67157 30 9 29.3284 9 28.5V24Z" fill="white"/>
</svg>
