<svg width="36" height="36" viewBox="0 0 36 36" fill="none" xmlns="http://www.w3.org/2000/svg">
<path fill-rule="evenodd" clip-rule="evenodd" d="M1.5 11.8828C1.5 9.46225 3.53778 7.5 6.0515 7.5H19.706C22.2197 7.5 24.2575 9.46225 24.2575 11.8828V24.1172C24.2575 26.5378 22.2197 28.5 19.706 28.5H6.0515C3.53778 28.5 1.5 26.5378 1.5 24.1172V11.8828ZM6.0515 10.5H19.706C20.6707 10.5 21.2575 11.2249 21.2575 11.8828V24.1172C21.2575 24.7751 20.6707 25.5 19.706 25.5H6.0515C5.08683 25.5 4.5 24.7751 4.5 24.1172L4.5 11.8828C4.5 11.2249 5.08683 10.5 6.0515 10.5Z" fill="white"/>
<path fill-rule="evenodd" clip-rule="evenodd" d="M34.5054 13.773C34.5054 13.2402 34.412 12.4269 33.8735 11.7974C33.5714 11.4443 33.1489 11.1778 32.6309 11.0882C32.1389 11.0031 31.6726 11.0962 31.2764 11.2501C30.9657 11.3708 30.7221 11.5376 30.5752 11.643L26.7643 14.3766L26.7364 14.3988C26.1463 14.8675 25.7886 15.5807 25.7886 16.3507V20.0886C25.7886 20.9009 26.1862 21.6465 26.8294 22.111L26.8605 22.1335L30.9248 24.7529L31.0001 24.7899C31.4139 24.9933 31.9044 25.1367 32.4331 25.086C32.9952 25.0322 33.4635 24.7713 33.8008 24.4043C34.3961 23.7564 34.5054 22.885 34.5054 22.3238V13.773ZM28.6866 16.5642L31.6073 14.4691V21.745L28.6866 19.8626V16.5642Z" fill="white"/>
</svg>
