<svg width="37" height="36" viewBox="0 0 37 36" fill="none" xmlns="http://www.w3.org/2000/svg">
<path fill-rule="evenodd" clip-rule="evenodd" d="M18.3333 30C24.9607 30 30.3333 24.6274 30.3333 18C30.3333 11.3726 24.9607 6 18.3333 6C11.7058 6 6.33325 11.3726 6.33325 18C6.33325 24.6274 11.7058 30 18.3333 30ZM18.3333 33C26.6175 33 33.3333 26.2843 33.3333 18C33.3333 9.71573 26.6175 3 18.3333 3C10.049 3 3.33325 9.71573 3.33325 18C3.33325 26.2843 10.049 33 18.3333 33Z" fill="white"/>
<path d="M19.8333 18C19.8333 18.8284 19.1617 19.5 18.3333 19.5C17.5048 19.5 16.8333 18.8284 16.8333 18V12C16.8333 11.1716 17.5048 10.5 18.3333 10.5C19.1617 10.5 19.8333 11.1716 19.8333 12V18Z" fill="white"/>
<path d="M16.8333 24C16.8333 23.1716 17.5048 22.5 18.3333 22.5C19.1617 22.5 19.8333 23.1716 19.8333 24C19.8333 24.8284 19.1617 25.5 18.3333 25.5C17.5048 25.5 16.8333 24.8284 16.8333 24Z" fill="white"/>
</svg>
