<svg width="36" height="36" viewBox="0 0 36 36" fill="none" xmlns="http://www.w3.org/2000/svg">
<path fill-rule="evenodd" clip-rule="evenodd" d="M7.5 9C5.01472 9 3 11.0147 3 13.5V22.5C3 24.9853 5.01472 27 7.5 27H25.5C27.9853 27 30 24.9853 30 22.5V21H31.5C32.3284 21 33 20.3284 33 19.5V16.5C33 15.6716 32.3284 15 31.5 15H30V13.5C30 11.0147 27.9853 9 25.5 9H7.5ZM27 13.5C27 12.6716 26.3284 12 25.5 12H7.5C6.67157 12 6 12.6716 6 13.5V22.5C6 23.3284 6.67157 24 7.5 24H25.5C26.3284 24 27 23.3284 27 22.5V13.5Z" fill="white"/>
<path d="M15 18H12L18 13.5V18H21L15 22.5V18Z" fill="white"/>
</svg>
