<svg width="36" height="36" viewBox="0 0 36 36" fill="none" xmlns="http://www.w3.org/2000/svg">
<path d="M7.5 15C7.5 14.1716 8.17157 13.5 9 13.5H12C12.8284 13.5 13.5 14.1716 13.5 15V21C13.5 21.8284 12.8284 22.5 12 22.5H9C8.17157 22.5 7.5 21.8284 7.5 21V15Z" fill="white"/>
<path fill-rule="evenodd" clip-rule="evenodd" d="M3 13.5C3 11.0147 5.01472 9 7.5 9H25.5C27.9853 9 30 11.0147 30 13.5V15H31.5C32.3284 15 33 15.6716 33 16.5V19.5C33 20.3284 32.3284 21 31.5 21H30V22.5C30 24.9853 27.9853 27 25.5 27H7.5C5.01472 27 3 24.9853 3 22.5V13.5ZM27 13.5C27 12.6716 26.3284 12 25.5 12H7.5C6.67157 12 6 12.6716 6 13.5V22.5C6 23.3284 6.67157 24 7.5 24H25.5C26.3284 24 27 23.3284 27 22.5V13.5Z" fill="white"/>
</svg>
