<svg width="37" height="36" viewBox="0 0 37 36" fill="none" xmlns="http://www.w3.org/2000/svg">
<path d="M23.5321 12.7526C23.0236 12.2468 22.2003 12.2471 21.6923 12.7533L18.3081 16.1236L14.9285 12.7598C14.4203 12.2538 13.597 12.2537 13.0887 12.7597C12.5795 13.2666 12.5795 14.0893 13.0886 14.5963L16.4698 17.9618L13.1172 21.3846C12.61 21.8919 12.611 22.7133 13.1198 23.2194C13.6282 23.7253 14.4516 23.7249 14.9597 23.2186L18.3105 19.7976L21.7367 23.2455L21.738 23.2469C22.2462 23.753 23.0696 23.7531 23.5779 23.2471C24.0868 22.7404 24.0864 21.9177 23.5781 21.4106L20.1487 17.9594L23.5329 14.5891C24.0418 14.0819 24.0414 13.2593 23.5321 12.7526Z" fill="white"/>
<path fill-rule="evenodd" clip-rule="evenodd" d="M33.3333 18C33.3333 26.2843 26.6175 33 18.3333 33C10.049 33 3.33325 26.2843 3.33325 18C3.33325 9.71573 10.049 3 18.3333 3C26.6175 3 33.3333 9.71573 33.3333 18ZM30.3333 18C30.3333 24.6274 24.9607 30 18.3333 30C11.7058 30 6.33325 24.6274 6.33325 18C6.33325 11.3726 11.7058 6 18.3333 6C24.9607 6 30.3333 11.3726 30.3333 18Z" fill="white"/>
</svg>
