<svg width="37" height="36" viewBox="0 0 37 36" fill="none" xmlns="http://www.w3.org/2000/svg">
<path fill-rule="evenodd" clip-rule="evenodd" d="M5.2078 4.81961C4.61933 4.36137 3.76792 4.40275 3.22694 4.94373C2.64115 5.52952 2.64115 6.47927 3.22694 7.06505L6.04803 9.88615C4.54082 12.2253 3.66628 15.0105 3.66628 18C3.66628 26.2843 10.382 33 18.6663 33C21.6558 33 24.441 32.1255 26.7801 30.6182L28.6828 32.5209C29.2686 33.1067 30.2183 33.1067 30.8041 32.5209C31.3451 31.9799 31.3865 31.1285 30.9282 30.54L5.2078 4.81961ZM19.1807 23.0188L24.5965 28.4346C22.8473 29.4309 20.8233 30 18.6663 30C12.0389 30 6.66628 24.6274 6.66628 18C6.66628 15.843 7.23538 13.8189 8.23163 12.0697L13.6483 17.4864C11.8935 20.966 11.2424 25.4247 11.2424 25.4247C11.2424 25.4247 15.7011 24.7737 19.1807 23.0188Z" fill="white"/>
<path d="M31.0693 26.4385C32.7082 24.0344 33.6663 21.1291 33.6663 18C33.6663 9.71573 26.9505 3 18.6663 3C15.5372 3 12.6319 3.95811 10.2278 5.59695L12.3968 7.766C14.2214 6.64588 16.3684 6 18.6663 6C25.2937 6 30.6663 11.3726 30.6663 18C30.6663 20.2979 30.0204 22.4449 28.9003 24.2695L31.0693 26.4385Z" fill="white"/>
<path d="M23.5005 18.8697C25.395 15.3466 26.0917 10.5754 26.0917 10.5754C26.0917 10.5754 21.3205 11.2721 17.7974 13.1666L23.5005 18.8697Z" fill="white"/>
</svg>
