<svg width="37" height="36" viewBox="0 0 37 36" fill="none" xmlns="http://www.w3.org/2000/svg">
<path fill-rule="evenodd" clip-rule="evenodd" d="M15.4853 14.8181C18.6399 11.6635 26.0919 10.5754 26.0919 10.5754C26.0919 10.5754 25.0038 18.0275 21.8493 21.182C18.6947 24.3366 11.2427 25.4247 11.2427 25.4247C11.2427 25.4247 12.3308 17.9726 15.4853 14.8181ZM16.4177 17.9997C16.4177 16.757 17.4251 15.7497 18.6677 15.7497C19.9104 15.7497 20.9177 16.757 20.9177 17.9997C20.9177 19.2423 19.9104 20.2497 18.6677 20.2497C17.4251 20.2497 16.4177 19.2423 16.4177 17.9997Z" fill="white"/>
<path fill-rule="evenodd" clip-rule="evenodd" d="M33.6665 18C33.6665 26.2843 26.9508 33 18.6665 33C10.3822 33 3.6665 26.2843 3.6665 18C3.6665 9.71573 10.3822 3 18.6665 3C26.9508 3 33.6665 9.71573 33.6665 18ZM30.6665 18C30.6665 24.6274 25.2939 30 18.6665 30C12.0391 30 6.6665 24.6274 6.6665 18C6.6665 11.3726 12.0391 6 18.6665 6C25.2939 6 30.6665 11.3726 30.6665 18Z" fill="white"/>
</svg>
