<svg width="37" height="36" viewBox="0 0 37 36" fill="none" xmlns="http://www.w3.org/2000/svg">
<path fill-rule="evenodd" clip-rule="evenodd" d="M18.3333 30C24.9607 30 30.3333 24.6274 30.3333 18C30.3333 11.3726 24.9607 6 18.3333 6C11.7058 6 6.33325 11.3726 6.33325 18C6.33325 24.6274 11.7058 30 18.3333 30ZM18.3333 33C26.6175 33 33.3333 26.2843 33.3333 18C33.3333 9.71573 26.6175 3 18.3333 3C10.049 3 3.33325 9.71573 3.33325 18C3.33325 26.2843 10.049 33 18.3333 33Z" fill="white"/>
<path d="M10.8333 18C10.8333 17.1716 11.5048 16.5 12.3333 16.5H24.3333C25.1617 16.5 25.8333 17.1716 25.8333 18C25.8333 18.8284 25.1617 19.5 24.3333 19.5H12.3333C11.5048 19.5 10.8333 18.8284 10.8333 18Z" fill="white"/>
</svg>
