<svg width="36" height="36" viewBox="0 0 36 36" fill="none" xmlns="http://www.w3.org/2000/svg">
<path fill-rule="evenodd" clip-rule="evenodd" d="M18 30C24.6274 30 30 24.6274 30 18C30 11.3726 24.6274 6 18 6C11.3726 6 6 11.3726 6 18C6 24.6274 11.3726 30 18 30ZM18 33C26.2843 33 33 26.2843 33 18C33 9.71573 26.2843 3 18 3C9.71573 3 3 9.71573 3 18C3 26.2843 9.71573 33 18 33Z" fill="white"/>
<path d="M19.5 25.5C19.5 26.3284 18.8284 27 18 27C17.1716 27 16.5 26.3284 16.5 25.5C16.5 24.6716 17.1716 24 18 24C18.8284 24 19.5 24.6716 19.5 25.5Z" fill="white"/>
<path fill-rule="evenodd" clip-rule="evenodd" d="M15 15.0105C15 15.0035 15 15.001 15 15.0105V15.0105ZM19.5073 20.5017C20.1571 20.0199 20.9525 19.7008 21.6708 19.3416C24.1153 18.1194 24.4208 15.269 23.7355 13.2132C23.0126 11.0445 21.024 9 18 9C16.6125 9 15.4722 9.35118 14.5664 9.95505C13.67 10.5527 13.0911 11.3387 12.7209 12.0792C12.2657 12.9895 12.0425 13.9878 12 15C12 15.8284 12.6716 16.5 13.5 16.5C14.3249 16.5 14.9943 15.8341 15 15.0105C15.0148 14.4671 15.1622 13.9047 15.4041 13.4208C15.9117 12.4056 16.8988 12 18 12C19.476 12 20.4874 12.9555 20.8895 14.1618C21.3292 15.481 20.8847 16.3806 20.3292 16.6584C19.7287 16.9586 19.1242 17.2533 18.5372 17.5794C18.0952 17.8249 17.6582 18.0955 17.3143 18.4393C16.4312 19.3224 16.5 20.3716 16.5 21C16.5 21.8284 17.1716 22.5 18 22.5C18.8284 22.5 19.5 21.8284 19.5 21C19.5 20.7295 19.5026 20.5854 19.5073 20.5017Z" fill="white"/>
</svg>
