<svg width="36" height="36" viewBox="0 0 36 36" fill="none" xmlns="http://www.w3.org/2000/svg">
<path fill-rule="evenodd" clip-rule="evenodd" d="M15.3487 6.30215C16.4755 4.17371 19.5246 4.17369 20.6514 6.30215L31.6601 27.0963C32.7178 29.0943 31.2694 31.4999 29.0087 31.4999H6.99142C4.7307 31.4999 3.28229 29.0943 4.34005 27.0963L15.3487 6.30215ZM29.0087 28.4999L18.0001 7.70581L6.99142 28.4999L29.0087 28.4999Z" fill="white"/>
<path d="M16.5001 14.9999C16.5001 14.1715 17.1716 13.4999 18.0001 13.4999C18.8285 13.4999 19.5001 14.1715 19.5001 14.9999V20.9999C19.5001 21.8283 18.8285 22.4999 18.0001 22.4999C17.1716 22.4999 16.5001 21.8283 16.5001 20.9999V14.9999Z" fill="white"/>
<path d="M19.5001 25.4999C19.5001 26.3283 18.8285 26.9999 18.0001 26.9999C17.1716 26.9999 16.5001 26.3283 16.5001 25.4999C16.5001 24.6715 17.1716 23.9999 18.0001 23.9999C18.8285 23.9999 19.5001 24.6715 19.5001 25.4999Z" fill="white"/>
</svg>
