<svg width="36" height="36" viewBox="0 0 36 36" fill="none" xmlns="http://www.w3.org/2000/svg">
<path d="M17.9979 9.50262C20.1295 9.50262 21.8576 7.77457 21.8576 5.64291C21.8576 3.51125 20.1295 1.7832 17.9979 1.7832C15.8662 1.7832 14.1382 3.51125 14.1382 5.64291C14.1382 7.77457 15.8662 9.50262 17.9979 9.50262Z" fill="white"/>
<path d="M31.2703 10.3523L17.9731 11.2823L4.72747 10.3523C4.30441 10.3523 3.89868 10.5203 3.59953 10.8195C3.30038 11.1186 3.13232 11.5244 3.13232 11.9474C3.13232 12.6512 3.28082 13.5994 4.72747 13.8816L12.8946 15.4185V32.2856C12.8946 32.7933 13.0963 33.2802 13.4553 33.6392C13.8142 33.9981 14.3011 34.1998 14.8088 34.1998C15.3165 34.1998 15.8033 33.9981 16.1623 33.6392C16.5213 33.2802 16.723 32.7933 16.723 32.2856L17.5321 22.9835H18.4864L19.1472 32.2856C19.1472 32.7933 19.3489 33.2802 19.7078 33.6392C20.0668 33.9981 20.5537 34.1998 21.0614 34.1998C21.569 34.1998 22.0559 33.9981 22.4149 33.6392C22.7739 33.2802 22.9755 32.7933 22.9755 32.2856V15.4185L31.2703 13.8816C32.5692 13.543 32.8654 12.6512 32.8654 11.9474C32.8654 11.5244 32.6974 11.1186 32.3982 10.8195C32.0991 10.5203 31.6933 10.3523 31.2703 10.3523Z" fill="white"/>
</svg>
