<svg width="36" height="36" viewBox="0 0 36 36" fill="none" xmlns="http://www.w3.org/2000/svg">
<path d="M7.17718 24.0586C6.90232 23.6819 6.24559 23.6819 5.97073 24.0586C5.45913 24.7612 2.90918 28.3541 2.90918 30.0246C2.90918 31.9443 4.5532 33.5061 6.57396 33.5061C8.59471 33.5061 10.2387 31.9443 10.2387 30.0246C10.2387 28.3541 7.68878 24.7612 7.17718 24.0586Z" fill="white"/>
<path fill-rule="evenodd" clip-rule="evenodd" d="M32.9193 18.114C33.0361 18.2446 33.2211 18.4576 33.2211 18.4576C34.8394 20.0974 32.6127 23.8742 29.5482 26.7854C27.1932 29.022 24.3003 30.7892 22.303 30.7892C21.7019 30.7892 21.1823 30.629 20.7828 30.2732C20.7828 30.2732 5.21045 19.4192 5.18993 19.3997C4.133 18.3956 4.10589 16.6131 5.11297 14.3807C6.02916 12.3482 7.71349 10.1089 9.85445 8.07494C13.1835 4.91232 16.9898 2.86865 19.5493 2.86865C20.4852 2.86865 21.2336 3.13046 21.7752 3.64364C21.8068 3.67289 22.1938 4.16796 22.8072 4.95757H27.0965C30.7342 4.95757 33.6931 7.76926 33.6931 11.2243C33.6931 14.6794 30.7342 16.6911 27.0965 16.6911H23.3765C22.4496 16.6911 21.9607 17.5282 21.9607 18.2361C21.9607 18.8497 22.4133 19.7266 23.3765 19.7266H27.0965C29.0366 19.7266 31.5296 19.2038 32.9193 18.114ZM30.8189 10.466C30.5742 8.75274 28.7393 7.89537 26.8226 7.89537H24.9452C25.8422 9.05468 26.4584 9.76914 27.0844 10.4951C27.7527 11.27 28.4322 12.058 29.4767 13.414C30.5497 12.5199 30.9716 11.5347 30.8189 10.466ZM19.2749 9.61807C18.6412 11.0233 17.4605 12.5867 15.9517 14.02C13.6865 16.1725 11.0773 17.6184 9.45907 17.6184C9.05892 17.6184 8.75935 17.5254 8.56697 17.3432C8.12669 16.9249 8.1921 15.9479 8.74176 14.7292C9.37552 13.3245 10.5556 11.7611 12.0645 10.3277C14.3307 8.17529 16.94 6.72886 18.5576 6.72886C18.9578 6.72886 19.2573 6.82181 19.4497 7.00405C19.89 7.42231 19.8246 8.39931 19.2749 9.61807Z" fill="white"/>
</svg>
