<svg width="36" height="36" viewBox="0 0 36 36" fill="none" xmlns="http://www.w3.org/2000/svg">
<path d="M13.906 30.9903C13.906 31.2716 14.1341 31.4997 14.4155 31.4997H21.9567C22.2381 31.4997 22.4662 31.2716 22.4662 30.9903V20.0374C22.4662 19.756 22.2381 19.5279 21.9567 19.5279H14.4155C14.1341 19.5279 13.906 19.756 13.906 20.0374V30.9903Z" fill="white"/>
<path d="M25.4436 30.9903C25.4436 31.2716 25.6717 31.4997 25.953 31.4997H32.515C33.6113 31.4997 34.5 30.5874 34.5 29.462V20.0374C34.5 19.756 34.2719 19.5279 33.9906 19.5279H25.953C25.6717 19.5279 25.4436 19.756 25.4436 20.0374V30.9903Z" fill="white"/>
<path d="M33.9906 16.4713C34.2719 16.4713 34.5 16.2432 34.5 15.9619V6.53726C34.5 5.41184 33.6113 4.49951 32.515 4.49951H14.4155C14.1341 4.49951 13.906 4.72759 13.906 5.00895V15.9619C13.906 16.2432 14.1341 16.4713 14.4155 16.4713L33.9906 16.4713Z" fill="white"/>
<path d="M10.9286 5.00895C10.9286 4.7276 10.7005 4.49951 10.4191 4.49951H3.48496C2.3887 4.49951 1.5 5.41184 1.5 6.53726V29.462C1.5 30.5874 2.3887 31.4997 3.48496 31.4997H10.4191C10.7005 31.4997 10.9286 31.2716 10.9286 30.9903V5.00895Z" fill="white"/>
</svg>
