<svg width="36" height="36" viewBox="0 0 36 36" fill="none" xmlns="http://www.w3.org/2000/svg">
<path fill-rule="evenodd" clip-rule="evenodd" d="M11.3723 6.69807C7.17761 6.09527 3.82311 6.89782 2.49645 9.19567C1.16985 11.4934 2.15193 14.7996 4.77102 18.1307C2.1524 21.4615 1.17058 24.7674 2.49708 27.0649C3.82367 29.3627 7.17788 30.1652 11.3722 29.5626C12.9475 33.4962 15.3196 35.9996 17.9727 35.9996C20.6258 35.9996 22.9979 33.4962 24.5732 29.5628C28.7668 30.1649 32.1203 29.3623 33.4468 27.0648C34.7732 24.7673 33.7915 21.4615 31.1729 18.1307C33.7919 14.7996 34.774 11.4935 33.4474 9.19576C32.1209 6.8982 28.7671 6.09557 24.5731 6.69794C22.9979 2.76455 20.6258 0.26123 17.9727 0.26123C15.3196 0.26123 12.9475 2.7646 11.3723 6.69807ZM10.3496 9.89406C10.0768 10.9853 9.85642 12.1424 9.69558 13.3511C8.72882 14.095 7.83642 14.8647 7.02749 15.647C6.9199 15.5006 6.81668 15.355 6.71789 15.2103C4.88223 12.5225 5.16476 11.174 5.35433 10.8457C5.54391 10.5173 6.57047 9.59839 9.81601 9.84422C9.99088 9.85746 10.1688 9.87407 10.3496 9.89406ZM14.6514 7.41059C15.7327 7.71992 16.845 8.1077 17.972 8.57273C19.0995 8.10753 20.2122 7.71964 21.294 7.41026C21.221 7.2441 21.1466 7.08211 21.0708 6.92443C19.661 3.9908 18.3519 3.56123 17.9727 3.56123C17.5936 3.56123 16.2845 3.9908 14.8746 6.92443C14.7988 7.08221 14.7243 7.24431 14.6514 7.41059ZM17.972 12.1752C17.1005 12.5802 16.2161 13.0385 15.3284 13.551C14.4407 14.0635 13.6018 14.6002 12.8154 15.1524C12.7303 16.1099 12.685 17.1051 12.685 18.1304C12.685 19.1558 12.7303 20.1511 12.8154 21.1087C13.6017 21.6607 14.4404 22.1973 15.3277 22.7096C16.2157 23.2222 17.1003 23.6806 17.972 24.0856C18.8437 23.6806 19.7282 23.2223 20.6161 22.7097C21.5041 22.197 22.3434 21.66 23.1301 21.1076C23.2152 20.1503 23.2605 19.1554 23.2605 18.1304C23.2605 17.1055 23.2152 16.1106 23.1301 15.1535C22.3432 14.6008 21.5037 14.0638 20.6155 13.5509C19.7278 13.0384 18.8435 12.5802 17.972 12.1752ZM28.9164 15.647C28.108 14.8652 27.2162 14.0959 26.25 13.3523C26.0892 12.1432 25.8688 10.9856 25.5958 9.89398C25.7761 9.87407 25.9535 9.85751 26.1278 9.84431C29.3734 9.59848 30.3999 10.5174 30.5895 10.8458C30.7791 11.1741 31.0616 12.5226 29.226 15.2104C29.1272 15.355 29.024 15.5006 28.9164 15.647ZM28.9163 20.6143C28.1079 21.3961 27.2161 22.1653 26.25 22.9088C26.0892 24.1177 25.8688 25.2752 25.5958 26.3667C25.7759 26.3866 25.9531 26.4031 26.1272 26.4163C29.3727 26.6621 30.3993 25.7432 30.5889 25.4148C30.7785 25.0865 31.061 23.738 29.2253 21.0502C29.1267 20.9058 29.0237 20.7605 28.9163 20.6143ZM7.0276 20.6143C7.83652 21.3965 8.72889 22.1662 9.69562 22.91C9.85645 24.1185 10.0768 25.2755 10.3496 26.3666C10.169 26.3866 9.99129 26.4031 9.81663 26.4164C6.5711 26.6622 5.54454 25.7433 5.35496 25.4149C5.16538 25.0866 4.88286 23.7381 6.71852 21.0503C6.81715 20.9059 6.9202 20.7605 7.0276 20.6143ZM17.972 27.6881C19.0995 28.1533 20.2122 28.5412 21.294 28.8505C21.221 29.0167 21.1466 29.1787 21.0708 29.3364C19.661 32.27 18.3519 32.6996 17.9727 32.6996C17.5936 32.6996 16.2845 32.27 14.8746 29.3364C14.7988 29.1786 14.7243 29.0165 14.6513 28.8502C15.7327 28.5409 16.845 28.1531 17.972 27.6881Z" fill="white"/>
</svg>
