<svg width="37" height="36" viewBox="0 0 37 36" fill="none" xmlns="http://www.w3.org/2000/svg">
<path d="M23.8945 30.4754C22.9734 30.5251 22.2245 29.7638 22.2245 28.8414C22.2245 27.919 23.0113 27.3059 23.8781 26.9903C24.6263 26.7178 24.748 26.0797 24.748 24.7041V22.0288C24.748 19.4367 26.7643 18.2027 27.2473 17.9443C27.2786 17.9275 27.2705 17.8782 27.2356 17.8721C27.2315 17.8714 27.2275 17.87 27.2239 17.8679C25.3621 16.8187 24.748 15.8265 24.748 14.281V11.0281C24.748 9.64786 24.6243 9.03657 23.8595 8.78416C22.9951 8.49887 22.2244 7.88541 22.2245 6.97511C22.2245 6.06485 22.964 5.31323 23.8724 5.37084C26.8461 5.55945 28.9137 6.47419 28.9137 10.2776V12.8065C28.9137 13.9451 29.1369 14.7161 29.6944 15.1812C30.651 15.9792 31.8339 16.7519 31.8339 17.9977C31.8339 19.2435 30.651 20.0162 29.6944 20.8142C29.1369 21.2793 28.9137 22.0503 28.9137 23.1889V25.7079C28.9137 29.5018 26.8563 30.3158 23.8945 30.4754Z" fill="white"/>
<path d="M12.7729 5.36314C13.6939 5.31349 14.4429 6.07472 14.4429 6.99713C14.4429 7.91955 13.6561 8.5327 12.7893 8.8483C12.041 9.12076 11.9194 9.75884 11.9194 11.1345L11.9194 13.8098C11.9194 16.4018 9.90307 17.6359 9.42004 17.8943C9.38875 17.911 9.39684 17.9604 9.43181 17.9665C9.43586 17.9672 9.43986 17.9686 9.44344 17.9706C11.3053 19.0199 11.9194 20.012 11.9194 21.5576L11.9194 24.8105C11.9194 26.1907 12.0431 26.802 12.8079 27.0544C13.6723 27.3397 14.443 27.9532 14.4429 28.8634C14.4429 29.7737 13.7034 30.5253 12.795 30.4677C9.82131 30.2791 7.75371 29.3644 7.75371 25.561L7.75371 23.0321C7.75371 21.8935 7.5305 21.1224 6.97299 20.6574C6.01635 19.8594 4.8335 19.0866 4.8335 17.8409C4.8335 16.5951 6.01635 15.8223 6.97299 15.0243C7.5305 14.5593 7.75371 13.7882 7.75371 12.6497L7.75371 10.1306C7.75371 6.33672 9.81105 5.5228 12.7729 5.36314Z" fill="white"/>
</svg>
