<svg width="37" height="36" viewBox="0 0 37 36" fill="none" xmlns="http://www.w3.org/2000/svg">
<path d="M17.9648 10.5611C17.9648 9.40012 18.906 8.45898 20.0669 8.45898C21.2279 8.45898 22.169 9.40012 22.169 10.5611C22.169 11.722 21.2279 12.6632 20.0669 12.6632C18.906 12.6632 17.9648 11.722 17.9648 10.5611Z" fill="white"/>
<path d="M11.3658 17.3982C10.2048 17.3982 9.26367 18.3393 9.26367 19.5003C9.26367 20.6612 10.2048 21.6024 11.3658 21.6024C12.5267 21.6024 13.4679 20.6612 13.4679 19.5003C13.4679 18.3393 12.5267 17.3982 11.3658 17.3982Z" fill="white"/>
<path fill-rule="evenodd" clip-rule="evenodd" d="M6.6665 3.00098C5.00965 3.00098 3.6665 4.34412 3.6665 6.00098V24.0004C3.6665 25.6573 5.00965 27.0004 6.66651 27.0004H24.666C26.3228 27.0004 27.666 25.6573 27.666 24.0004V6.00098C27.666 4.34412 26.3228 3.00098 24.666 3.00098H6.6665ZM8.17236 10.4999C8.17236 8.84325 9.51537 7.50024 11.172 7.50024H20.1668C21.8235 7.50024 23.1665 8.84325 23.1665 10.4999C23.1665 12.1566 21.8235 13.4996 20.1668 13.4996H11.172C9.51537 13.4996 8.17236 12.1566 8.17236 10.4999ZM8.1665 19.4999C8.1665 17.8432 9.50951 16.5002 11.1662 16.5002H20.161C21.8176 16.5002 23.1606 17.8432 23.1606 19.4999C23.1606 21.1566 21.8176 22.4996 20.161 22.4996H11.1662C9.50951 22.4996 8.1665 21.1566 8.1665 19.4999Z" fill="white"/>
<path d="M12.6665 33.0002C11.0104 33.0002 9.66769 31.6583 9.6665 30.0024H29.1665C29.9949 30.0024 30.6665 29.3309 30.6665 28.5024V9.00024C32.3234 9.00024 33.6665 10.3434 33.6665 12.0002V30.0002C33.6665 31.6571 32.3234 33.0002 30.6665 33.0002H12.6665Z" fill="white"/>
</svg>
