<svg width="37" height="36" viewBox="0 0 37 36" fill="none" xmlns="http://www.w3.org/2000/svg">
<path d="M22.8126 10.9907C23.1093 10.177 22.4875 9.11731 21.6963 8.81215C20.9051 8.50698 19.5505 8.79001 19.2538 9.60378L13.8538 24.4147C13.5571 25.2284 14.188 26.3074 14.9791 26.6126C15.7703 26.9178 17.1159 26.6154 17.4126 25.8016L22.8126 10.9907Z" fill="white"/>
<path d="M11.2364 11.8646C11.6257 12.6174 11.5266 13.7844 10.6825 14.3084L5.14539 17.8867L10.7974 21.3849C11.7859 22.0656 11.6257 23.2089 11.2364 23.9616C10.8471 24.7144 9.64676 25.2905 8.75737 24.6867L0.907388 19.4264C0.4947 19.1392 0.242188 18.445 0.242188 17.8867C0.242188 17.3283 0.4947 16.7014 0.907388 16.4141L8.59531 11.1999C9.425 10.6796 10.7865 10.9948 11.2364 11.8646Z" fill="white"/>
<path d="M25.3398 24.0218C24.9505 23.2691 25.0496 22.1021 25.8937 21.5781L31.4308 17.9998L25.7788 14.5016C24.7903 13.8209 24.9505 12.6776 25.3398 11.9248C25.7291 11.1721 26.9294 10.596 27.8188 11.1997L35.6688 16.46C36.0815 16.7473 36.334 17.4415 36.334 17.9998C36.334 18.5582 36.0815 19.1851 35.6688 19.4724L27.9809 24.6866C27.1512 25.2069 25.7897 24.8917 25.3398 24.0218Z" fill="white"/>
</svg>
