<svg width="36" height="36" viewBox="0 0 36 36" fill="none" xmlns="http://www.w3.org/2000/svg">
<path d="M26.7965 10.5853C26.7965 12.2436 26.4454 13.7618 25.7869 15.1225C24.9349 16.8833 22.0992 15.5424 22.8987 13.8824C23.3736 12.8964 23.6475 11.7661 23.6475 10.4974C23.3711 5.98937 19.8123 3.31298 16.2186 3.31298C11.9598 3.31298 8.83155 6.75846 8.83155 10.4683C8.83155 12.3972 9.3371 13.8443 10.0988 14.8889C12.2413 17.4229 10.0988 19.4221 8.74706 18.0732C6.82799 16.1584 5.64062 13.5105 5.64062 10.5853C5.64062 4.74324 10.3765 0.00732422 16.2186 0.00732422C22.0606 0.00732422 26.7965 4.74324 26.7965 10.5853Z" fill="white"/>
<path d="M8.96072 30.356L22.2091 35.5693C23.1189 35.9274 24.1462 35.8195 24.9619 35.2804L27.9282 33.3197C29.1886 32.4865 29.9468 31.0765 29.9468 29.5656V24.4428C29.9468 22.6493 28.8818 21.0271 27.2363 20.3139L20.6253 17.4486C20.1531 17.2439 19.8187 16.8113 19.7396 16.3027L18.6122 9.05051C18.4143 7.77775 17.3184 6.83906 16.0304 6.83906C14.5874 6.83906 13.4176 8.00886 13.4176 9.45188L13.4176 22.0401C13.4176 22.8685 12.746 23.5401 11.9176 23.5401H10.0593C8.40241 23.5401 7.05926 24.8832 7.05926 26.5401V27.5643C7.05926 28.7972 7.8135 29.9045 8.96072 30.356Z" fill="white"/>
</svg>
