<svg width="36" height="36" viewBox="0 0 36 36" fill="none" xmlns="http://www.w3.org/2000/svg">
<path d="M19.5009 2.91783C19.5009 2.05928 18.8298 1.36328 18.0019 1.36328C17.174 1.36328 16.5029 2.05928 16.5029 2.91783V5.35667C16.5029 6.21523 17.174 6.91123 18.0019 6.91123C18.8298 6.91123 19.5009 6.21523 19.5009 5.35667V2.91783Z" fill="white"/>
<path d="M22.9228 15.014C22.9228 17.733 20.7186 19.9372 17.9996 19.9372C15.2806 19.9372 13.0764 17.733 13.0764 15.014C13.0764 12.295 15.2806 10.0908 17.9996 10.0908C20.7186 10.0908 22.9228 12.295 22.9228 15.014Z" fill="white"/>
<path d="M17.9997 21.7381C13.9946 21.7381 11.5928 23.2289 10.2366 25.211C8.92584 27.1267 8.71707 29.3223 8.7129 30.5373C8.70871 31.759 9.68566 32.5564 10.6873 32.5564H25.312C26.3137 32.5564 27.2906 31.759 27.2864 30.5373C27.2822 29.3223 27.0735 27.1267 25.7627 25.211C24.4065 23.2289 22.0047 21.7381 17.9997 21.7381Z" fill="white"/>
<path d="M11.7354 17.1714C11.7354 19.4169 9.91505 21.2372 7.66953 21.2372C5.424 21.2372 3.60365 19.4169 3.60365 17.1714C3.60365 14.9258 5.424 13.1055 7.66953 13.1055C9.91505 13.1055 11.7354 14.9258 11.7354 17.1714Z" fill="white"/>
<path d="M8.55185 24.3499C8.89997 23.8411 9.3047 23.3589 9.77241 22.9147C9.1395 22.7914 8.4405 22.7245 7.66956 22.7245C4.36199 22.7245 2.37838 23.9557 1.25835 25.5926C0.175865 27.1747 0.0034536 28.988 1.10989e-05 29.9914C-0.0034505 31.0003 0.803368 31.6589 1.63056 31.6589H6.82802C6.74294 31.4066 6.69626 31.13 6.69728 30.8329C6.70235 29.354 6.95646 26.6816 8.55185 24.3499Z" fill="white"/>
<path d="M29.1737 31.6589C29.2587 31.4066 29.3054 31.13 29.3044 30.8329C29.2993 29.354 29.0452 26.6816 27.4498 24.3499C27.1016 23.8409 26.6967 23.3586 26.2289 22.9143C26.8612 22.7913 27.5596 22.7245 28.3297 22.7245C31.6373 22.7245 33.6209 23.9557 34.7409 25.5926C35.8234 27.1747 35.9958 28.988 35.9993 29.9914C36.0027 31.0003 35.1959 31.6589 34.3687 31.6589H29.1737Z" fill="white"/>
<path d="M28.3297 21.2372C30.5752 21.2372 32.3956 19.4169 32.3956 17.1714C32.3956 14.9258 30.5752 13.1055 28.3297 13.1055C26.0842 13.1055 24.2638 14.9258 24.2638 17.1714C24.2638 19.4169 26.0842 21.2372 28.3297 21.2372Z" fill="white"/>
<path d="M26.2714 4.51831C26.8567 5.10369 26.8391 6.07039 26.2321 6.67748L24.5075 8.402C23.9004 9.00909 22.9338 9.02668 22.3484 8.4413C21.763 7.85591 21.7806 6.88922 22.3877 6.28213L24.1122 4.55761C24.7193 3.95052 25.686 3.93292 26.2714 4.51831Z" fill="white"/>
<path d="M11.8924 4.55773C11.2854 3.95064 10.3187 3.93305 9.73327 4.51844C9.14789 5.10382 9.16548 6.07051 9.77257 6.6776L11.4971 8.40212C12.1042 9.00921 13.0709 9.02681 13.6563 8.44142C14.2416 7.85604 14.2241 6.88934 13.617 6.28225L11.8924 4.55773Z" fill="white"/>
</svg>
