<svg width="37" height="36" viewBox="0 0 37 36" fill="none" xmlns="http://www.w3.org/2000/svg">
<path d="M34.9335 9.03224C36.2249 9.77782 36.6674 11.4291 35.9218 12.7205L35.0218 14.2794C34.2762 15.5707 32.6249 16.0132 31.3335 15.2676L31.2775 15.2353V15.3C31.2775 16.7912 30.0687 18 28.5775 18H26.7775C26.2104 18 25.6841 17.8251 25.2496 17.5264C26.1875 16.38 26.8416 14.9923 27.1046 13.4707C27.2741 13.49 27.4464 13.5 27.6211 13.5C30.1064 13.5 32.1211 11.4853 32.1211 9C32.1211 6.51472 30.1064 4.5 27.6211 4.5C26.4523 4.5 25.3875 4.94563 24.5875 5.67625C23.48 4.59344 22.0877 3.80085 20.5333 3.42149C21.3461 2.36481 22.8356 2.0475 24.0216 2.73224L24.0775 2.76452V2.7C24.0775 1.20883 25.2864 0 26.7775 0H28.5775C30.0687 0 31.2775 1.20883 31.2775 2.7V2.76462L31.3335 2.73231C32.6249 1.98672 34.2762 2.42919 35.0218 3.72058L35.9218 5.27942C36.6673 6.57082 36.2249 8.22211 34.9335 8.96769L34.8776 8.99995L34.9335 9.03224Z" fill="white"/>
<path d="M27.2286 11.6717C27.1731 9.96799 26.6329 8.38686 25.7415 7.06172C26.2276 6.59024 26.8904 6.3 27.6211 6.3C29.1123 6.3 30.3211 7.50883 30.3211 9C30.3211 10.4912 29.1123 11.7 27.6211 11.7C27.4878 11.7 27.3567 11.6903 27.2286 11.6717Z" fill="white"/>
<path d="M8.16376 25.6055C9.95929 22.9813 13.1392 21.0076 18.4417 21.0076C23.7441 21.0076 26.924 22.9813 28.7196 25.6055C30.4549 28.1417 30.7313 31.0487 30.7368 32.6572C30.7424 34.2747 29.4489 35.3305 28.1229 35.3305H8.76046C7.43437 35.3305 6.14095 34.2747 6.1465 32.6572C6.15202 31.0487 6.42842 28.1417 8.16376 25.6055Z" fill="white"/>
<path d="M18.4416 18.6233C22.0414 18.6233 24.9597 15.7051 24.9597 12.1053C24.9597 8.50545 22.0414 5.58721 18.4416 5.58721C14.8418 5.58721 11.9235 8.50545 11.9235 12.1053C11.9235 15.7051 14.8418 18.6233 18.4416 18.6233Z" fill="white"/>
</svg>
