<svg width="36" height="36" viewBox="0 0 36 36" fill="none" xmlns="http://www.w3.org/2000/svg">
<path fill-rule="evenodd" clip-rule="evenodd" d="M6.65321 5.85877C6.94014 5.57184 7.3293 5.41064 7.73508 5.41064L28.2397 5.48698C29.0847 5.48698 29.7697 6.17199 29.7697 7.01698V12.6191C29.7697 13.4641 28.7409 14.1492 27.8959 14.1492C27.0509 14.1492 25.9824 13.4641 25.9824 12.6192V9.43587L20.2829 9.38576V26.2643L22.8348 26.3144C23.6798 26.3144 24.3648 27.2497 24.3648 28.0947C24.3648 28.9397 23.6798 29.8241 22.8348 29.8241H13.0419C12.1969 29.8241 11.5119 28.9397 11.5119 28.0947C11.5119 27.2497 12.1969 26.3144 13.0419 26.3144H15.6384V9.43587H10.0975V12.6191C10.0975 13.4641 8.94922 14.1491 8.10423 14.1491C7.25923 14.1491 6.20508 13.3878 6.20508 12.5428L6.20508 6.94064C6.20508 6.53486 6.36628 6.1457 6.65321 5.85877Z" fill="white"/>
<path fill-rule="evenodd" clip-rule="evenodd" d="M6.66914 18.0001C6.66914 17.503 7.07208 17.1001 7.56914 17.1001H28.2868C28.7838 17.1001 29.1868 17.503 29.1868 18.0001C29.1868 18.4972 28.7838 18.9001 28.2868 18.9001H7.56914C7.07208 18.9001 6.66914 18.4972 6.66914 18.0001Z" fill="white"/>
</svg>
