<svg width="37" height="36" viewBox="0 0 37 36" fill="none" xmlns="http://www.w3.org/2000/svg">
<path d="M1.92143 21.5001C1.15422 22.1442 0.666504 23.1104 0.666504 24.1905C0.666504 26.1296 2.23849 27.7016 4.17764 27.7016C6.11678 27.7016 7.68877 26.1296 7.68877 24.1905C7.68877 22.4627 6.44084 21.0265 4.79718 20.7338C4.62383 19.8493 4.53299 18.9353 4.53299 18C4.53299 10.1943 10.8608 3.86648 18.6665 3.86648C20.8305 3.86648 22.8808 4.35281 24.7143 5.22213C25.3375 5.5176 26.0888 5.42683 26.5762 4.93883C27.261 4.25312 27.1379 3.10673 26.2701 2.67533C23.9797 1.53673 21.3979 0.896484 18.6665 0.896484C9.22049 0.896484 1.56299 8.55399 1.56299 18C1.56299 19.1995 1.68648 20.3703 1.92143 21.5001Z" fill="white"/>
<path d="M18.6665 32.1335C26.4722 32.1335 32.8 25.8057 32.8 18C32.8 16.0414 32.4016 14.1758 31.6814 12.4799C31.5653 12.4915 31.4475 12.4975 31.3283 12.4975C29.3866 12.4975 27.8125 10.9234 27.8125 8.98169C27.8125 7.03998 29.3866 5.46592 31.3283 5.46592C33.27 5.46592 34.8441 7.03998 34.8441 8.98169C34.8441 9.70628 34.6248 10.3797 34.2491 10.9392C35.226 13.0916 35.77 15.4823 35.77 18C35.77 27.446 28.1125 35.1035 18.6665 35.1035C14.745 35.1035 11.1318 33.7838 8.24668 31.5642C7.5615 31.037 7.56069 30.0303 8.18946 29.437C8.75657 28.9018 9.63502 28.8997 10.2615 29.3639C12.6107 31.1043 15.5184 32.1335 18.6665 32.1335Z" fill="white"/>
<path d="M23.2234 11.877C23.2234 14.4227 21.1597 16.4864 18.614 16.4864C16.0683 16.4864 14.0046 14.4227 14.0046 11.877C14.0046 9.33136 16.0683 7.26768 18.614 7.26768C21.1597 7.26768 23.2234 9.33136 23.2234 11.877Z" fill="white"/>
<path d="M18.6354 17.7842C13.1617 17.7842 10.9227 21.1387 10.1847 24.3173C9.84609 25.7754 11.0941 27.0021 12.591 26.9987C16.5876 26.9897 21.6605 26.9965 24.727 27.0024C26.2304 27.0053 27.4743 25.7649 27.118 24.3044C26.3482 21.1484 24.0869 17.7842 18.6354 17.7842Z" fill="white"/>
</svg>
