<svg width="37" height="36" viewBox="0 0 37 36" fill="none" xmlns="http://www.w3.org/2000/svg">
<g clip-path="url(#clip0_304_388)">
<path d="M23.8559 13.5607C23.8559 16.6129 21.4191 19.0872 18.4131 19.0872C15.4071 19.0872 12.9703 16.6129 12.9703 13.5607C12.9703 10.5085 15.4071 8.03415 18.4131 8.03415C21.4191 8.03415 23.8559 10.5085 23.8559 13.5607Z" fill="white"/>
<path fill-rule="evenodd" clip-rule="evenodd" d="M27.1511 28.5594C24.6516 30.5598 21.6427 31.6522 18.1811 31.6522C9.98102 31.6522 3.3335 24.9024 3.3335 16.5761C3.3335 8.24981 9.98102 1.5 18.1811 1.5C26.3813 1.5 33.0288 8.24981 33.0288 16.5761C33.0288 19.9155 32.1014 22.844 30.2978 25.3355L35.742 31.1736C36.5895 32.0824 36.5398 33.5061 35.631 34.3536C34.7222 35.2011 33.2984 35.1514 32.451 34.2426L27.1511 28.5594ZM26.0888 24.9925C28.1691 22.9148 29.4054 19.9602 29.4054 16.5761C29.4054 9.9671 24.1777 5.01155 18.1811 5.01155C12.1846 5.01155 6.88696 9.9671 6.88696 16.5761C6.88696 20.0931 8.24211 23.1463 10.491 25.2333C11.1069 23.8779 12.0904 22.7007 13.3457 21.831C14.8726 20.7731 16.717 20.2286 18.5955 20.2812C20.474 20.3338 22.2827 20.9805 23.7436 22.1221C24.7427 22.9028 25.5413 23.8854 26.0888 24.9925Z" fill="white"/>
</g>
<defs>
<clipPath id="clip0_304_388">
<rect width="36" height="36" fill="white" transform="translate(0.333496)"/>
</clipPath>
</defs>
</svg>
