<svg width="37" height="36" viewBox="0 0 37 36" fill="none" xmlns="http://www.w3.org/2000/svg">
<path d="M25.2961 31.509V33.2085C25.2961 34.2027 24.4902 35.0085 23.4961 35.0085H13.8366C12.8425 35.0085 12.0366 34.2027 12.0366 33.2085V27.5917C12.0366 26.5976 12.8425 25.7917 13.8366 25.7917H23.4961C24.4902 25.7917 25.2961 26.5976 25.2961 27.5917V28.809H33.3643C33.6129 28.809 33.8143 28.6075 33.8143 28.359V7.79551C33.8143 7.54698 33.6129 7.34551 33.3643 7.34551L30.0503 7.33824L31.3673 8.98742C31.8326 9.57003 31.7374 10.4195 31.1548 10.8848C30.5722 11.35 29.7228 11.2549 29.2575 10.6723L26.6325 7.38522C26.585 7.32574 26.541 7.26449 26.5004 7.20173C26.5004 7.20173 26.043 6.6056 26.0551 5.97063C26.0673 5.33566 26.5004 4.76046 26.5004 4.76046C26.565 4.66052 26.6383 4.56462 26.7203 4.47382L29.3101 1.60379C29.8096 1.05026 30.6633 1.00646 31.2168 1.50596C31.7704 2.00545 31.8142 2.8591 31.3147 3.41264L30.2087 4.63824L33.3643 4.64551C35.104 4.64551 36.5143 6.05581 36.5143 7.79551V28.359C36.5143 30.0987 35.104 31.509 33.3643 31.509H25.2961Z" fill="white"/>
<path d="M3.99814 4.64594H12.0366V3.66023C12.0366 2.66612 12.8425 1.86023 13.8366 1.86023H23.4961C24.4902 1.86023 25.2961 2.66612 25.2961 3.66023V9.27703C25.2961 10.2711 24.4902 11.077 23.4961 11.077H13.8366C12.8425 11.077 12.0366 10.2711 12.0366 9.27703V7.34594L3.99814 7.34593C3.74962 7.34593 3.54815 7.54741 3.54815 7.79594L3.54814 28.3595C3.54814 28.608 3.74962 28.8095 3.99814 28.8095H7.20528L5.90337 27.1792C5.43811 26.5966 5.53325 25.7471 6.11585 25.2818C6.69846 24.8166 7.54792 24.9117 8.01318 25.4943L10.6381 28.7814C10.7025 28.862 10.7606 28.9459 10.8123 29.0324C10.8123 29.0324 11.2439 29.5599 11.2439 30.1442C11.2439 30.7284 10.8123 31.3386 10.8123 31.3386C10.738 31.463 10.6506 31.5817 10.5504 31.6928L7.96053 34.5628C7.46104 35.1163 6.60739 35.1601 6.05385 34.6606C5.50032 34.1611 5.45652 33.3075 5.95602 32.754L7.07904 31.5095H3.99814C2.25845 31.5095 0.848145 30.0991 0.848145 28.3595V7.79594C0.848145 6.05624 2.25845 4.64594 3.99814 4.64594Z" fill="white"/>
<path d="M13.8366 13.8262C12.8425 13.8262 12.0366 14.6321 12.0366 15.6262V21.243C12.0366 22.2371 12.8425 23.043 13.8366 23.043H23.4961C24.4902 23.043 25.2961 22.2371 25.2961 21.243V15.6262C25.2961 14.6321 24.4902 13.8262 23.4961 13.8262H13.8366Z" fill="white"/>
</svg>
