<svg width="37" height="36" viewBox="0 0 37 36" fill="none" xmlns="http://www.w3.org/2000/svg">
<path d="M30.7514 4.28405L21.9762 13.0592C20.7814 12.4619 19.1669 12.5665 18.03 13.7035C16.6824 15.051 16.6824 17.2359 18.03 18.5834C19.3775 19.931 21.5624 19.931 22.9099 18.5834C24.0468 17.4465 24.0936 15.529 23.4848 14.5678L32.2837 5.7689C32.8487 5.20394 33.8879 5.65249 33.5211 6.54953C33.2862 7.12385 31.1616 13.167 29.6052 17.5943C28.7305 20.0821 28.0353 22.0597 27.9555 22.27C27.7338 22.8545 26.9459 24.0496 26.0303 24.5074L18.5576 28.2437C17.8222 28.6115 16.934 28.4673 16.3526 27.8859L8.48093 20.0143C7.88273 19.4161 7.74924 18.4957 8.15285 17.7522L12.094 10.4921C12.5611 9.63169 13.3407 8.98341 14.2719 8.68108L29.9677 3.04781C30.7213 2.77731 31.3176 3.71784 30.7514 4.28405Z" fill="white"/>
<path d="M7.11497 21.5718C6.36898 20.8258 5.15948 20.8258 4.41348 21.5718L3.455 22.5302C2.70901 23.2762 2.70901 24.4857 3.455 25.2317L11.1234 32.9002C11.8694 33.6462 13.0789 33.6462 13.8249 32.9002L14.7834 31.9417C15.5294 31.1957 15.5294 29.9862 14.7834 29.2402L7.11497 21.5718Z" fill="white"/>
</svg>
