<svg width="36" height="36" viewBox="0 0 36 36" fill="none" xmlns="http://www.w3.org/2000/svg">
<path fill-rule="evenodd" clip-rule="evenodd" d="M3.00019 12.5265C3.00019 10.983 4.26144 9.71136 5.79229 9.71136C5.84565 9.71136 5.89897 9.71461 5.95194 9.7211L17.8806 11.1811L30.0511 9.72072C30.1031 9.71449 30.1554 9.71136 30.2077 9.71136C31.7385 9.71136 32.9998 10.983 32.9998 12.5265C32.9998 12.5444 32.9998 12.5633 32.9999 12.5831C33.0008 12.9566 33.0026 13.6577 32.6968 14.3334C32.3315 15.1406 31.6363 15.7248 30.6276 16.0647L30.6174 16.0681L24.5325 18.063V30.3091C24.5325 31.8293 24.0708 32.9608 23.2377 33.6829C22.4448 34.3701 21.527 34.5 20.9673 34.5C20.2713 34.5 19.3408 34.3421 18.5441 33.7813C18.3132 33.6187 18.1031 33.4286 17.919 33.2118C17.7553 33.4157 17.5652 33.5992 17.3492 33.7602C16.5465 34.3584 15.5763 34.5 14.7961 34.5C14.2727 34.5 13.3452 34.3905 12.5273 33.7265C11.6539 33.0173 11.1465 31.8762 11.1465 30.3091V18.052L5.39239 16.0956C4.35226 15.7818 3.65531 15.1734 3.29638 14.3534C2.99753 13.6706 2.99922 12.9568 3.0001 12.5818C3.00015 12.5625 3.00019 12.544 3.00019 12.5265ZM5.69572 12.4291C5.65976 12.4654 5.64979 12.502 5.64979 12.5265C5.64979 12.7377 5.65094 12.8858 5.66541 13.0241C5.67918 13.1558 5.70134 13.2312 5.72043 13.2748C5.73522 13.3086 5.7524 13.3347 5.78971 13.3659C5.83224 13.4014 5.93713 13.473 6.16424 13.5399C6.18147 13.545 6.1986 13.5505 6.21561 13.5562L12.8946 15.8271C13.4333 16.0102 13.7961 16.5195 13.7961 17.0928V30.3091C13.7961 31.2738 14.0838 31.5602 14.1891 31.6457C14.35 31.7764 14.5849 31.8285 14.7961 31.8285C15.3192 31.8285 15.6257 31.7226 15.7741 31.612C15.8486 31.5565 16.0249 31.4088 16.0249 30.8241C16.0249 30.7969 16.0257 30.7698 16.0274 30.7427L16.4452 23.8424C16.4878 23.1376 17.0672 22.5881 17.7675 22.5881H17.9571C18.6535 22.5881 19.231 23.1317 19.2788 23.8322L19.7491 30.7325C19.7511 30.763 19.7522 30.7935 19.7522 30.8241C19.7522 31.1004 19.8066 31.2636 19.8546 31.3577C19.9022 31.4512 19.9685 31.5258 20.0611 31.5909C20.2712 31.7389 20.6107 31.8285 20.9673 31.8285C21.1717 31.8285 21.3741 31.7753 21.5104 31.6571C21.6065 31.5738 21.8829 31.2778 21.8829 30.3091V17.0928C21.8829 16.5142 22.2523 16.0014 22.798 15.8225L29.7923 13.5294C30.0335 13.4476 30.1536 13.3671 30.2085 13.321C30.2574 13.28 30.2747 13.2501 30.2863 13.2244C30.3311 13.1254 30.3502 12.9765 30.3502 12.5265C30.3502 12.502 30.3402 12.4654 30.3043 12.4291C30.2822 12.4069 30.2601 12.3946 30.2406 12.3883L18.0356 13.8529C17.9306 13.8655 17.8244 13.8653 17.7194 13.8525L5.75868 12.3885C5.73939 12.3948 5.71749 12.4072 5.69572 12.4291Z" fill="white"/>
<path fill-rule="evenodd" clip-rule="evenodd" d="M18.001 7.17686C18.8242 7.17686 19.4914 6.50408 19.4914 5.67416C19.4914 4.84424 18.8242 4.17146 18.001 4.17146C17.1779 4.17146 16.5106 4.84424 16.5106 5.67416C16.5106 6.50408 17.1779 7.17686 18.001 7.17686ZM18.001 9.84832C20.2875 9.84832 22.141 7.97949 22.141 5.67416C22.141 3.36884 20.2875 1.5 18.001 1.5C15.7146 1.5 13.861 3.36884 13.861 5.67416C13.861 7.97949 15.7146 9.84832 18.001 9.84832Z" fill="white"/>
</svg>
