<svg width="36" height="36" viewBox="0 0 36 36" fill="none" xmlns="http://www.w3.org/2000/svg">
<path d="M7.17718 24.0586C6.90232 23.6819 6.24559 23.6819 5.97073 24.0586C5.45913 24.7612 2.90918 28.3541 2.90918 30.0246C2.90918 31.9443 4.5532 33.5061 6.57396 33.5061C8.59471 33.5061 10.2387 31.9443 10.2387 30.0246C10.2387 28.3541 7.68878 24.7612 7.17718 24.0586Z" fill="white"/>
<path fill-rule="evenodd" clip-rule="evenodd" d="M31.035 15.7366C32.4571 17.5287 32.965 18.1627 33.2211 18.4576C34.8394 20.0974 32.6127 23.8742 29.5482 26.7854C27.1932 29.022 24.3003 30.7892 22.303 30.7892C21.7019 30.7892 21.1823 30.629 20.7828 30.2732C20.7828 30.2732 5.21045 19.4192 5.18993 19.3997C4.133 18.3956 4.10589 16.6131 5.11297 14.3807C6.02916 12.3482 7.71349 10.1089 9.85445 8.07494C13.1835 4.91232 16.9898 2.86865 19.5493 2.86865C20.4852 2.86865 21.2336 3.13046 21.7752 3.64364C21.8068 3.67289 22.1938 4.16796 22.8072 4.95757H27.0965C30.7342 4.95757 33.6931 7.76926 33.6931 11.2243C33.6931 13.2783 32.6474 14.8222 31.035 15.7366ZM30.8189 10.466C30.5742 8.75274 28.7393 7.89537 26.8226 7.89537H24.9452C25.8422 9.05468 26.4584 9.76914 27.0844 10.4951C27.7527 11.27 28.4322 12.058 29.4767 13.414C30.5497 12.5199 30.9716 11.5347 30.8189 10.466ZM11.8367 10.1101C12.9871 8.9916 17.7236 4.65138 19.6437 6.51333C21.5546 8.36649 17.1325 12.9518 15.9459 14.1058C15.8819 14.168 15.8083 14.2406 15.726 14.3217C14.3288 15.6991 10.4157 19.557 8.1395 17.702C5.87461 16.3465 10.6901 11.2252 11.8367 10.1101ZM26.5778 14.5811C26.0974 14.667 25.5955 14.6929 25.1034 14.6773C24.5584 14.6599 24.076 14.5931 23.731 14.5305C23.5597 14.4994 23.4253 14.4699 23.3375 14.4492C23.2937 14.4389 23.2618 14.4308 23.243 14.4259L23.2265 14.4216C22.461 14.2073 21.6666 14.6538 21.4518 15.4192C21.2369 16.1849 21.6834 16.9798 22.4491 17.1947L22.6769 17.2524C22.8078 17.2832 22.9911 17.3233 23.2166 17.3642C23.6653 17.4456 24.2926 17.5329 25.0119 17.5558C26.0352 17.5883 27.3633 17.4943 28.6371 16.9714C29.5695 18.0521 30.442 19.0592 31.1098 19.8156C29.4361 23.5381 25.1177 27.3363 22.3443 27.8551C19.3454 25.8216 15.1683 22.8007 13.1087 21.3112C12.6182 20.9565 12.247 20.688 12.0415 20.5412C14.331 19.8544 19.8397 15.5905 22.6025 10.0674C22.9641 10.3962 24.681 12.3797 26.5778 14.5811Z" fill="white"/>
</svg>
