<svg width="36" height="36" viewBox="0 0 36 36" fill="none" xmlns="http://www.w3.org/2000/svg">
<path fill-rule="evenodd" clip-rule="evenodd" d="M5.03309 4.56299C3.0802 4.56299 1.49707 6.15355 1.49707 8.11562V28.0104C1.49707 29.9724 2.96233 31.563 4.91523 31.563H30.9639C32.9168 31.563 34.5 29.9724 34.5 28.0104V8.11562C34.5 6.15356 32.9168 4.56299 30.9639 4.56299H5.03309ZM4.79736 8.11562C4.79736 7.98482 4.9029 7.87878 5.03309 7.87878H11.3979V28.2472H5.03309C4.9029 28.2472 4.79736 28.1412 4.79736 28.0104V8.11562ZM14.6982 28.2472H21.2988V19.7209H14.6982V28.2472ZM14.6982 16.4051V7.87878H30.9639C31.0941 7.87878 31.1997 7.98482 31.1997 8.11562V16.4051L14.6982 16.4051ZM31.1997 19.7209H24.5991V28.2472H30.9639C31.0941 28.2472 31.1997 28.1412 31.1997 28.0104V19.7209Z" fill="white"/>
</svg>
