<svg width="36" height="36" viewBox="0 0 36 36" fill="none" xmlns="http://www.w3.org/2000/svg">
<path fill-rule="evenodd" clip-rule="evenodd" d="M11.1914 6.38394C7.1177 5.93703 3.85189 6.8535 2.49919 9.19644C1.14642 11.5395 1.9858 14.8262 4.40998 18.1309C1.9858 21.4355 1.14642 24.7223 2.49919 27.0653C3.85193 29.4084 7.11792 30.3248 11.1918 29.8778C12.8417 33.6294 15.2683 35.9996 17.9738 35.9996C20.6792 35.9996 23.1059 33.6294 24.7557 29.8779C28.8302 30.3252 32.0966 29.4088 33.4495 27.0656C34.8023 24.7225 33.9628 21.4356 31.5385 18.1309C33.9628 14.8261 34.8023 11.5393 33.4495 9.19616C32.0967 6.85299 28.8304 5.93658 24.7561 6.38379C23.1063 2.63174 20.6795 0.26123 17.9738 0.26123C15.2681 0.26123 12.8413 2.63181 11.1914 6.38394ZM12.9363 9.40596C12.7826 9.88814 12.6405 10.391 12.5115 10.9126C12.827 10.717 13.148 10.5249 13.4743 10.3365C13.8003 10.1483 14.1268 9.96659 14.4535 9.7913C13.9373 9.64226 13.4308 9.51389 12.9363 9.40596ZM10.2332 9.00847C9.84898 10.2909 9.54332 11.677 9.32939 13.1405C8.16925 14.0574 7.122 15.0149 6.2037 15.9887C6.17112 15.9403 6.13898 15.8919 6.1073 15.8436C4.30194 13.0918 4.37646 11.3449 4.83746 10.5464C5.29846 9.74796 6.77403 8.80999 10.0598 8.99757C10.1173 9.00086 10.1751 9.00449 10.2332 9.00847ZM13.9435 6.86618C15.2463 7.17461 16.5995 7.60288 17.974 8.14933C19.3483 7.60291 20.7014 7.17463 22.0041 6.86616C21.9783 6.81352 21.9524 6.76131 21.9263 6.70952C20.4459 3.77013 18.8958 2.96123 17.9738 2.96123C17.0518 2.96123 15.5017 3.77013 14.0212 6.70953C13.9952 6.76131 13.9692 6.81353 13.9435 6.86618ZM17.974 11.0758C16.9359 11.5323 15.8808 12.0648 14.8243 12.6748C13.7675 13.285 12.7785 13.9327 11.8639 14.6037C11.7402 15.7308 11.6738 16.9106 11.6738 18.1304C11.6738 19.3506 11.7402 20.5307 11.864 21.6582C12.7786 22.3291 13.7675 22.9768 14.8243 23.587C15.8808 24.197 16.9359 24.7294 17.974 25.1859C19.0124 24.7294 20.0676 24.1968 21.1243 23.5867C22.1807 22.9768 23.1693 22.3294 24.0836 21.6587C24.2073 20.5311 24.2738 19.3508 24.2738 18.1304C24.2738 16.9104 24.2074 15.7304 24.0837 14.6031C23.1693 13.9324 22.1808 13.285 21.1243 12.6751C20.0676 12.065 19.0123 11.5324 17.974 11.0758ZM23.436 10.9121C23.1208 10.7168 22.8002 10.5249 22.4743 10.3368C22.1482 10.1485 21.8214 9.96662 21.4945 9.79122C22.0106 9.64221 22.5169 9.51385 23.0113 9.40592C23.165 9.88797 23.307 10.3906 23.436 10.9121ZM26.9564 17.0095C26.9679 17.3802 26.9738 17.7539 26.9738 18.1304C26.9738 18.5072 26.9679 18.8813 26.9563 19.2523C27.3436 18.8797 27.7081 18.5052 28.0489 18.1309C27.7081 17.7566 27.3436 17.3821 26.9564 17.0095ZM29.7448 15.9887C28.8262 15.0147 27.7786 14.0569 26.6181 13.1398C26.4042 11.6765 26.0985 10.2906 25.7143 9.00827C25.7728 9.00426 25.831 9.0006 25.8888 8.9973C29.1747 8.80971 30.6502 9.74768 31.1112 10.5462C31.5722 11.3446 31.6468 13.0915 29.8414 15.8433C29.8096 15.8917 29.7774 15.9402 29.7448 15.9887ZM29.7448 20.273C28.8262 21.2471 27.7785 22.2049 26.618 23.1221C26.404 24.5854 26.0983 25.9712 25.7141 27.2535C25.7726 27.2575 25.8309 27.2612 25.8888 27.2645C29.1747 27.4521 30.6502 26.5141 31.1112 25.7156C31.5722 24.9171 31.6468 23.1703 29.8414 20.4185C29.8096 20.3701 29.7774 20.3216 29.7448 20.273ZM23.011 26.8558C23.1647 26.3738 23.3067 25.8712 23.4357 25.3499C23.1206 25.5451 22.8001 25.7369 22.4743 25.925C22.1482 26.1133 21.8215 26.2951 21.4945 26.4705C22.0105 26.6195 22.5168 26.7479 23.011 26.8558ZM14.4535 26.4705C14.1268 26.2952 13.8003 26.1134 13.4743 25.9253C13.1481 25.7369 12.8272 25.5449 12.5118 25.3494C12.6408 25.8709 12.7829 26.3736 12.9366 26.8557C13.431 26.7478 13.9374 26.6195 14.4535 26.4705ZM8.99122 19.2515C8.97966 18.8807 8.9738 18.5069 8.9738 18.1304C8.9738 17.7542 8.97965 17.3808 8.99119 17.0103C8.60425 17.3827 8.24006 17.7569 7.89956 18.1309C8.24007 18.5049 8.60427 18.8791 8.99122 19.2515ZM6.2037 20.2731C7.12204 21.2469 8.16934 22.2045 9.32955 23.1214C9.54353 24.5849 9.84923 25.9709 10.2335 27.2533C10.1753 27.2573 10.1174 27.2609 10.0598 27.2642C6.77403 27.4518 5.29846 26.5138 4.83746 25.7153C4.37646 24.9169 4.30194 23.17 6.1073 20.4182C6.13898 20.3699 6.17112 20.3215 6.2037 20.2731ZM17.974 28.1124C19.3482 28.6588 20.7011 29.087 22.0037 29.3955C21.9781 29.4479 21.9523 29.4998 21.9263 29.5513C20.4459 32.4907 18.8958 33.2996 17.9738 33.2996C17.0518 33.2996 15.5017 32.4907 14.0213 29.5513C13.9953 29.4998 13.9695 29.4478 13.9439 29.3955C15.2466 29.0871 16.5997 28.6588 17.974 28.1124Z" fill="white"/>
</svg>
