<svg width="37" height="36" viewBox="0 0 37 36" fill="none" xmlns="http://www.w3.org/2000/svg">
<path d="M24.2058 5.45282C23.45 5.38831 22.8335 6.01502 22.8335 6.77362C22.8335 7.53221 23.4688 8.08865 24.1914 8.3195C25.3132 8.67787 25.6197 9.60253 25.6197 11.162V14.4149C25.6197 15.7917 27.6806 17.5367 28.1344 17.9043C28.1684 17.9318 28.1528 17.9862 28.1097 17.9936C28.104 17.9946 28.0985 17.9966 28.0935 17.9994C26.2333 19.0482 25.6197 20.0402 25.6197 21.5852V24.8381C25.6197 26.3879 25.3141 27.3104 24.1961 27.6694C23.4712 27.9021 22.8335 28.4602 22.8335 29.2216C22.8335 29.9829 23.4523 30.6119 24.2108 30.5469C27.197 30.2908 28.9133 29.0321 28.9133 25.1257V22.5968C28.9133 21.1623 29.2676 20.3113 30.1982 19.9205C31.0466 19.5642 31.8335 18.9153 31.8335 17.9951C31.8335 17.0749 31.0466 16.426 30.1982 16.0698C29.2676 15.6789 28.9133 14.8279 28.9133 13.3935V10.8744C28.9133 6.96582 27.195 5.70793 24.2058 5.45282Z" fill="white"/>
<path d="M12.4612 5.45282C13.217 5.38831 13.8335 6.01502 13.8335 6.77362C13.8335 7.53221 13.1982 8.08865 12.4756 8.3195C11.3538 8.67787 11.0473 9.60253 11.0473 11.162V14.4149C11.0473 15.7917 8.98644 17.5367 8.53258 17.9043C8.49862 17.9318 8.51424 17.9862 8.5573 17.9936C8.56294 17.9946 8.5685 17.9966 8.57349 17.9994C10.4337 19.0482 11.0473 20.0402 11.0473 21.5852V24.8381C11.0473 26.3879 11.3529 27.3104 12.4709 27.6694C13.1958 27.9021 13.8335 28.4602 13.8335 29.2216C13.8335 29.9829 13.2147 30.6119 12.4562 30.5469C9.47004 30.2908 7.75371 29.0321 7.75371 25.1257V22.5968C7.75371 21.1623 7.39944 20.3113 6.46878 19.9205C5.62038 19.5642 4.8335 18.9153 4.8335 17.9951C4.8335 17.0749 5.62038 16.426 6.46878 16.0698C7.39944 15.6789 7.75371 14.8279 7.75371 13.3935V10.8744C7.75371 6.96582 9.47196 5.70793 12.4612 5.45282Z" fill="white"/>
</svg>
