<svg width="37" height="36" viewBox="0 0 37 36" fill="none" xmlns="http://www.w3.org/2000/svg">
<path fill-rule="evenodd" clip-rule="evenodd" d="M12.6662 8.17444C11.0095 8.17444 9.6665 9.51744 9.6665 11.1741C9.6665 12.8308 11.0095 14.1738 12.6662 14.1738H18.667C20.3236 14.1738 21.6666 12.8308 21.6666 11.1741C21.6666 9.51744 20.3236 8.17444 18.667 8.17444H12.6662ZM18.4915 9.29541C17.4539 9.29541 16.6128 10.1366 16.6128 11.1742C16.6128 12.2118 17.4539 13.0529 18.4915 13.0529C19.5291 13.0529 20.3703 12.2118 20.3703 11.1742C20.3703 10.1366 19.5291 9.29541 18.4915 9.29541Z" fill="white"/>
<path fill-rule="evenodd" clip-rule="evenodd" d="M9.6665 18.8023C9.6665 17.1456 11.0095 15.8026 12.6662 15.8026H18.6668C20.3235 15.8026 21.6665 17.1456 21.6665 18.8023C21.6665 20.459 20.3235 21.802 18.6668 21.802H12.6662C11.0095 21.802 9.6665 20.459 9.6665 18.8023ZM10.9482 18.803C10.9482 17.7681 11.7872 16.9291 12.8221 16.9291C13.8571 16.9291 14.696 17.7681 14.696 18.803C14.696 19.8379 13.8571 20.6769 12.8221 20.6769C11.7872 20.6769 10.9482 19.8379 10.9482 18.803Z" fill="white"/>
<path fill-rule="evenodd" clip-rule="evenodd" d="M6.6665 3.00098C5.00965 3.00098 3.6665 4.34412 3.6665 6.00098V24.0004C3.6665 25.6573 5.00965 27.0004 6.66651 27.0004H24.666C26.3228 27.0004 27.666 25.6573 27.666 24.0004V6.00098C27.666 4.34412 26.3228 3.00098 24.666 3.00098H6.6665ZM24.666 7.50098C24.666 6.67255 23.9944 6.00098 23.166 6.00098H8.1665C7.33808 6.00098 6.6665 6.67255 6.6665 7.50098V22.5004C6.6665 23.3289 7.33808 24.0004 8.16651 24.0004H23.166C23.9944 24.0004 24.666 23.3289 24.666 22.5004V7.50098Z" fill="white"/>
<path d="M9.6665 30.0024C9.66769 31.6583 11.0104 33.0002 12.6665 33.0002H30.6665C32.3234 33.0002 33.6665 31.6571 33.6665 30.0002V12.0002C33.6665 10.3434 32.3234 9.00024 30.6665 9.00024V28.5024C30.6665 29.3309 29.9949 30.0024 29.1665 30.0024H9.6665Z" fill="white"/>
</svg>
