<svg width="37" height="36" viewBox="0 0 37 36" fill="none" xmlns="http://www.w3.org/2000/svg">
<path d="M22.4663 11.3367C22.763 10.5455 22.3621 9.66357 21.571 9.36687C20.7798 9.07018 19.8979 9.47104 19.6012 10.2622L14.2012 24.6622C13.9045 25.4534 14.3053 26.3353 15.0965 26.632C15.8877 26.9287 16.7696 26.5279 17.0663 25.7367L22.4663 11.3367Z" fill="white"/>
<path d="M25.729 24.4275C25.3396 23.6747 25.55 22.6983 26.1989 22.2466L32.3003 17.9994L26.1989 13.7523C25.55 13.3006 25.3396 12.3242 25.729 11.5714C26.1183 10.8186 26.9599 10.5745 27.6087 11.0262L35.6683 16.6364C36.081 16.9237 36.3335 17.4411 36.3335 17.9994C36.3335 18.5578 36.081 19.0752 35.6683 19.3625L27.6087 24.9727C26.9599 25.4243 26.1183 25.1802 25.729 24.4275Z" fill="white"/>
<path d="M10.938 11.5714C11.3274 12.3242 11.117 13.3006 10.4681 13.7523L4.36666 17.9994L10.4681 22.2466C11.117 22.6983 11.3274 23.6747 10.938 24.4275C10.5487 25.1802 9.70711 25.4243 9.05824 24.9727L0.998697 19.3625C0.586008 19.0752 0.333496 18.5578 0.333496 17.9994C0.333496 17.4411 0.586008 16.9237 0.998697 16.6364L9.05824 11.0262C9.70711 10.5745 10.5487 10.8186 10.938 11.5714Z" fill="white"/>
</svg>
