<svg width="36" height="37" viewBox="0 0 36 37" fill="none" xmlns="http://www.w3.org/2000/svg">
<path d="M26.7965 10.5853C26.7965 12.2155 26.4572 13.7103 25.8201 15.0533C25.0645 16.646 22.5765 15.5093 23.2847 14.0948C23.7962 13.0732 24.1187 11.8797 24.1187 10.5853C24.1187 6.3957 20.4857 2.85181 16.2269 2.85181C11.9681 2.85181 8.3366 6.41821 8.3366 10.5853C8.3366 12.6138 8.92382 14.3075 10.0354 15.626C11.308 17.1354 10.0354 18.795 8.68092 18.0067C6.80075 16.0972 5.64062 13.4767 5.64062 10.5853C5.64062 4.74324 10.3765 0.00732422 16.2186 0.00732422C22.0606 0.00732422 26.7965 4.74324 26.7965 10.5853Z" fill="white"/>
<path fill-rule="evenodd" clip-rule="evenodd" d="M16.1541 6.60919C14.3647 6.60919 12.9141 8.05979 12.9141 9.84919V23.2471H8.8843C7.59196 23.2471 6.54431 24.2948 6.54431 25.5871V28.8519C6.54431 29.857 7.18614 30.7498 8.13885 31.07L23.1555 36.1168C23.8254 36.3419 24.5611 36.2523 25.1573 35.8729L29.3509 33.2042C30.2855 32.6095 30.8514 31.5785 30.8514 30.4708V23.4225C30.8514 22.1476 30.1037 20.9911 28.941 20.4679L20.9193 16.8581L19.7958 9.36856C19.5579 7.78252 18.1955 6.60919 16.5917 6.60919H16.1541ZM15.7941 9.84919C15.7941 9.65036 15.9553 9.48919 16.1541 9.48919H16.5917C16.7699 9.48919 16.9213 9.61956 16.9477 9.79578L18.1148 17.5768C18.2329 18.3638 18.7429 19.0369 19.4687 19.3636L27.7591 23.0943C27.8883 23.1524 27.9714 23.2809 27.9714 23.4225V30.4708C27.9714 30.5938 27.9085 30.7084 27.8047 30.7745L23.8286 33.3047L9.4243 28.4637V26.1271H13.4541C14.7464 26.1271 15.7941 25.0795 15.7941 23.7871V9.84919Z" fill="white"/>
</svg>
