<svg width="36" height="36" viewBox="0 0 36 36" fill="none" xmlns="http://www.w3.org/2000/svg">
<path d="M19.3494 2.25196C19.3494 1.4238 18.745 0.752441 17.9994 0.752441C17.2538 0.752441 16.6494 1.4238 16.6494 2.25196V4.84984C16.6494 5.678 17.2538 6.34936 17.9994 6.34936C18.745 6.34936 19.3494 5.678 19.3494 4.84984V2.25196Z" fill="white"/>
<path fill-rule="evenodd" clip-rule="evenodd" d="M12.7441 13.9288C12.7441 11.0274 15.0962 8.67537 17.9976 8.67537C20.899 8.67537 23.2511 11.0274 23.2511 13.9288C23.2511 16.8303 20.899 19.1823 17.9976 19.1823C15.0962 19.1823 12.7441 16.8303 12.7441 13.9288ZM17.9976 11.3754C16.5874 11.3754 15.4441 12.5186 15.4441 13.9288C15.4441 15.3391 16.5874 16.4823 17.9976 16.4823C19.4079 16.4823 20.5511 15.3391 20.5511 13.9288C20.5511 12.5186 19.4079 11.3754 17.9976 11.3754Z" fill="white"/>
<path fill-rule="evenodd" clip-rule="evenodd" d="M9.81491 24.4863C11.3364 22.2627 13.9712 20.7358 17.9991 20.7358C22.027 20.7358 24.6619 22.2627 26.1833 24.4863C27.6 26.5569 27.8026 28.877 27.8068 30.0948C27.8134 32.0179 26.2536 33.2883 24.6587 33.2883H11.3395C9.74465 33.2883 8.18483 32.0179 8.19143 30.0948C8.19561 28.877 8.39818 26.5569 9.81491 24.4863ZM17.9991 23.4358C14.7321 23.4358 12.992 24.6243 12.0432 26.011C11.0725 27.4297 10.8948 29.1088 10.8914 30.104C10.8908 30.2789 10.9532 30.3871 11.029 30.4595C11.1178 30.5442 11.236 30.5883 11.3395 30.5883H24.6587C24.7622 30.5883 24.8804 30.5442 24.9692 30.4595C25.0451 30.3871 25.1074 30.2789 25.1068 30.104C25.1034 29.1088 24.9257 27.4297 23.955 26.011C23.0062 24.6243 21.2662 23.4358 17.9991 23.4358Z" fill="white"/>
<path fill-rule="evenodd" clip-rule="evenodd" d="M3.30989 16.1637C3.30989 13.7546 5.26281 11.8017 7.67186 11.8017C10.0809 11.8017 12.0338 13.7546 12.0338 16.1637C12.0338 18.5727 10.0809 20.5256 7.67186 20.5256C5.26281 20.5256 3.30989 18.5727 3.30989 16.1637ZM7.67186 14.5017C6.75398 14.5017 6.00989 15.2458 6.00989 16.1637C6.00989 17.0816 6.75398 17.8256 7.67186 17.8256C8.58973 17.8256 9.33382 17.0816 9.33382 16.1637C9.33382 15.2458 8.58973 14.5017 7.67186 14.5017Z" fill="white"/>
<path d="M8.05938 23.9898C8.53856 23.2895 9.11968 22.5581 9.81776 21.8661C9.39264 21.8196 8.94671 21.7956 8.47945 21.7956C5.03195 21.7956 2.74519 23.1064 1.42027 25.0428C0.193495 26.8357 0.0211711 28.8377 0.017597 29.8794C0.0116065 31.6255 1.42984 32.7803 2.87957 32.7803H6.99032C6.46195 32.3275 6.10555 31.6463 6.10842 30.8098C6.10917 30.5901 6.11514 30.3455 6.12958 30.0803H2.87957C2.84862 30.0803 2.80214 30.0651 2.76678 30.0314C2.75184 30.0171 2.74113 30.0016 2.73368 29.9844C2.72682 29.9685 2.71741 29.9392 2.71758 29.8886C2.72039 29.0695 2.86782 27.7085 3.64859 26.5674C4.32638 25.5768 5.52354 24.6893 7.71915 24.5233C7.82557 24.344 7.93883 24.166 8.05938 23.9898Z" fill="white"/>
<path d="M29.0084 32.7805H33.1112C34.561 32.7805 35.9792 31.6257 35.9732 29.8796C35.9696 28.8379 35.7973 26.8359 34.5705 25.0429C33.2456 23.1066 30.9588 21.7957 27.5113 21.7957C27.0468 21.7957 26.6034 21.8195 26.1805 21.8654C26.8789 22.5576 27.4602 23.2893 27.9396 23.9898C28.0603 24.1663 28.1737 24.3446 28.2803 24.5241C30.4704 24.6918 31.6653 25.5783 32.3422 26.5676C33.123 27.7087 33.2704 29.0697 33.2732 29.8888C33.2734 29.9394 33.264 29.9687 33.2571 29.9846C33.2497 30.0018 33.239 30.0173 33.224 30.0316C33.1887 30.0653 33.1422 30.0805 33.1112 30.0805H29.8694C29.8838 30.3456 29.8898 30.5902 29.8905 30.8098C29.8934 31.6465 29.5369 32.3278 29.0084 32.7805Z" fill="white"/>
<path fill-rule="evenodd" clip-rule="evenodd" d="M28.3299 11.8501C25.9178 11.8501 23.9625 13.8055 23.9625 16.2176C23.9625 18.6297 25.9178 20.5851 28.3299 20.5851C30.742 20.5851 32.6974 18.6297 32.6974 16.2176C32.6974 13.8055 30.742 11.8501 28.3299 11.8501ZM26.6625 16.2176C26.6625 15.2967 27.409 14.5501 28.3299 14.5501C29.2508 14.5501 29.9974 15.2967 29.9974 16.2176C29.9974 17.1385 29.2508 17.885 28.3299 17.885C27.409 17.885 26.6625 17.1385 26.6625 16.2176Z" fill="white"/>
<path d="M26.3773 4.0746C26.9045 4.60181 26.8572 5.50392 26.2716 6.08952L24.4346 7.92649C23.849 8.51209 22.9469 8.55943 22.4197 8.03222C21.8925 7.50501 21.9398 6.6029 22.5254 6.0173L24.3624 4.18033C24.948 3.59473 25.8501 3.54739 26.3773 4.0746Z" fill="white"/>
<path d="M11.6122 4.18033C11.0266 3.59473 10.1245 3.54739 9.59728 4.0746C9.07008 4.60181 9.11741 5.50392 9.70301 6.08952L11.54 7.92649C12.1256 8.51209 13.0277 8.55943 13.5549 8.03222C14.0821 7.50501 14.0348 6.6029 13.4492 6.0173L11.6122 4.18033Z" fill="white"/>
</svg>
