<svg width="37" height="36" viewBox="0 0 37 36" fill="none" xmlns="http://www.w3.org/2000/svg">
<path d="M34.9335 9.03224C36.2249 9.77782 36.6674 11.4291 35.9218 12.7205L35.0218 14.2794C34.2762 15.5707 32.6249 16.0132 31.3335 15.2676L31.2775 15.2353V15.3C31.2775 16.7912 30.0687 18 28.5775 18H26.7775C26.2104 18 25.6841 17.8251 25.2496 17.5264C26.1876 16.38 26.8416 14.9923 27.1046 13.4707C27.2741 13.49 27.4464 13.5 27.6211 13.5C30.1064 13.5 32.1211 11.4853 32.1211 9C32.1211 6.51472 30.1064 4.5 27.6211 4.5C26.4523 4.5 25.3875 4.94563 24.5875 5.67625C23.4801 4.59344 22.0877 3.80085 20.5333 3.42149C21.3461 2.36481 22.8356 2.0475 24.0216 2.73224L24.0775 2.76452V2.7C24.0775 1.20883 25.2864 0 26.7775 0H28.5775C30.0687 0 31.2775 1.20883 31.2775 2.7V2.76462L31.3335 2.73231C32.6249 1.98672 34.2762 2.42919 35.0218 3.72058L35.9218 5.27942C36.6673 6.57082 36.2249 8.22211 34.9335 8.96769L34.8776 8.99995L34.9335 9.03224Z" fill="white"/>
<path d="M27.2286 11.6717C27.1731 9.96799 26.6329 8.38686 25.7415 7.06172C26.2276 6.59024 26.8904 6.3 27.6211 6.3C29.1123 6.3 30.3211 7.50883 30.3211 9C30.3211 10.4912 29.1123 11.7 27.6211 11.7C27.4878 11.7 27.3567 11.6903 27.2286 11.6717Z" fill="white"/>
<path fill-rule="evenodd" clip-rule="evenodd" d="M18.4417 21.0076C13.1392 21.0076 9.95929 22.9813 8.16376 25.6055C6.42842 28.1417 6.15202 31.0487 6.1465 32.6572C6.14095 34.2747 7.43437 35.3305 8.76046 35.3305H28.1229C29.4489 35.3305 30.7424 34.2747 30.7368 32.6572C30.7313 31.0487 30.4549 28.1417 28.7196 25.6055C26.924 22.9813 23.7441 21.0076 18.4417 21.0076ZM18.4417 23.9776C13.9762 23.9776 11.7805 25.5791 10.6149 27.2826C9.45973 28.9709 9.16215 30.9888 9.12157 32.3605H27.7618C27.7212 30.9888 27.4236 28.9709 26.2684 27.2826C25.1028 25.5791 22.9071 23.9776 18.4417 23.9776Z" fill="white"/>
<path fill-rule="evenodd" clip-rule="evenodd" d="M24.9597 12.1053C24.9597 15.7051 22.0414 18.6233 18.4416 18.6233C14.8418 18.6233 11.9235 15.7051 11.9235 12.1053C11.9235 8.50545 14.8418 5.58721 18.4416 5.58721C22.0414 5.58721 24.9597 8.50545 24.9597 12.1053ZM21.9897 12.1053C21.9897 14.0648 20.4011 15.6533 18.4416 15.6533C16.4821 15.6533 14.8935 14.0648 14.8935 12.1053C14.8935 10.1457 16.4821 8.55721 18.4416 8.55721C20.4011 8.55721 21.9897 10.1457 21.9897 12.1053Z" fill="white"/>
</svg>
