<svg width="36" height="36" viewBox="0 0 36 36" fill="none" xmlns="http://www.w3.org/2000/svg">
<path fill-rule="evenodd" clip-rule="evenodd" d="M7.02235 6.82361C7.30928 6.53668 7.69844 6.37549 8.10423 6.37549L27.8959 6.37553C28.7409 6.37553 29.4259 7.06053 29.4259 7.90553V12.6188C29.4259 13.4638 28.7409 14.1488 27.8959 14.1488C27.0509 14.1488 26.3659 13.4638 26.3659 12.6188V9.43553H19.5495V26.5644H22.8348C23.6798 26.5644 24.3648 27.2494 24.3648 28.0944C24.3648 28.9394 23.6798 29.6244 22.8348 29.6244H13.0419C12.1969 29.6244 11.5119 28.9394 11.5119 28.0944C11.5119 27.2494 12.1969 26.5644 13.0419 26.5644H16.4895V9.43552L9.63422 9.43549V12.6188C9.63422 13.4638 8.94921 14.1488 8.10422 14.1488C7.25922 14.1488 6.57422 13.4638 6.57422 12.6188V7.90549C6.57422 7.49971 6.73542 7.11054 7.02235 6.82361Z" fill="white"/>
<path fill-rule="evenodd" clip-rule="evenodd" d="M6.66914 17.9999C6.66914 17.5028 7.07208 17.0999 7.56914 17.0999H28.2868C28.7838 17.0999 29.1868 17.5028 29.1868 17.9999C29.1868 18.497 28.7838 18.8999 28.2868 18.8999H7.56914C7.07208 18.8999 6.66914 18.497 6.66914 17.9999Z" fill="white"/>
</svg>
