<svg width="37" height="36" viewBox="0 0 37 36" fill="none" xmlns="http://www.w3.org/2000/svg">
<path d="M1.91145 21.4514C1.03858 22.0901 0.47168 23.1222 0.47168 24.2867C0.47168 26.2259 2.04367 27.7978 3.98281 27.7978C5.92196 27.7978 7.49394 26.2259 7.49394 24.2867C7.49394 22.5368 6.21378 21.0859 4.53887 20.8194C4.35794 19.9076 4.26306 18.9649 4.26306 18C4.26306 10.0452 10.7117 3.59648 18.6666 3.59648C20.9422 3.59648 23.0945 4.1242 25.0079 5.06394C25.5716 5.34076 26.2566 5.2589 26.7003 4.81457C27.3213 4.19276 27.2098 3.1536 26.427 2.75432C24.0979 1.56638 21.4605 0.896484 18.6666 0.896484C9.22057 0.896484 1.56306 8.55399 1.56306 18C1.56306 19.1823 1.68303 20.3366 1.91145 21.4514Z" fill="white"/>
<path d="M18.6666 32.4035C26.6214 32.4035 33.0701 25.9548 33.0701 18C33.0701 16.0638 32.688 14.2168 31.9952 12.5303C31.8639 12.5452 31.7303 12.5528 31.595 12.5528C29.6533 12.5528 28.0792 10.9788 28.0792 9.03706C28.0792 7.09535 29.6533 5.52129 31.595 5.52129C33.5367 5.52129 35.1108 7.09535 35.1108 9.03706C35.1108 9.85346 34.8325 10.6049 34.3657 11.2016C35.2692 13.2853 35.7701 15.5842 35.7701 18C35.7701 27.446 28.1126 35.1035 18.6666 35.1035C14.6925 35.1035 11.0351 33.7482 8.1312 31.4745C7.51287 30.9903 7.51197 30.0763 8.08315 29.5373C8.59889 29.0507 9.39832 29.0486 9.96302 29.4775C12.3807 31.3137 15.3964 32.4035 18.6666 32.4035Z" fill="white"/>
<path fill-rule="evenodd" clip-rule="evenodd" d="M18.6141 16.4864C21.1598 16.4864 23.2234 14.4227 23.2234 11.877C23.2234 9.33136 21.1598 7.26768 18.6141 7.26768C16.0684 7.26768 14.0047 9.33136 14.0047 11.877C14.0047 14.4227 16.0684 16.4864 18.6141 16.4864ZM18.6141 13.5164C19.5195 13.5164 20.2534 12.7824 20.2534 11.877C20.2534 10.9716 19.5195 10.2377 18.6141 10.2377C17.7087 10.2377 16.9747 10.9716 16.9747 11.877C16.9747 12.7824 17.7087 13.5164 18.6141 13.5164Z" fill="white"/>
<path fill-rule="evenodd" clip-rule="evenodd" d="M10.1847 24.3173C10.9228 21.1387 13.1618 17.7842 18.6354 17.7842C24.0869 17.7842 26.3483 21.1484 27.1181 24.3044C27.4744 25.7649 26.2305 27.0053 24.7271 27.0024C21.6606 26.9965 16.5877 26.9897 12.5911 26.9987C11.0942 27.0021 9.84616 25.7754 10.1847 24.3173ZM13.3674 24.0272C16.887 24.0212 21.0439 24.0259 23.926 24.0309C23.6195 23.2487 23.1875 22.5672 22.6216 22.0465C21.8851 21.369 20.6996 20.7542 18.6354 20.7542C16.554 20.7542 15.3741 21.3702 14.651 22.0391C14.0909 22.5571 13.6655 23.2386 13.3674 24.0272Z" fill="white"/>
</svg>
