<svg width="37" height="36" viewBox="0 0 37 36" fill="none" xmlns="http://www.w3.org/2000/svg">
<g clip-path="url(#clip0_304_403)">
<path fill-rule="evenodd" clip-rule="evenodd" d="M18.0525 8.06668C16.674 8.06668 15.3519 8.6195 14.3772 9.60354C13.4024 10.5876 12.8548 11.9222 12.8548 13.3139C12.8548 14.7055 13.4024 16.0401 14.3772 17.0242C15.3519 18.0082 16.674 18.561 18.0525 18.561C19.431 18.561 20.753 18.0082 21.7277 17.0242C22.7025 16.0401 23.2501 14.7055 23.2501 13.3139C23.2501 11.9222 22.7025 10.5876 21.7277 9.60354C20.753 8.6195 19.431 8.06668 18.0525 8.06668ZM16.5238 11.7706C16.9292 11.3613 17.4791 11.1314 18.0525 11.1314C18.6258 11.1314 19.1757 11.3613 19.5811 11.7706C19.9865 12.1799 20.2143 12.735 20.2143 13.3139C20.2143 13.8927 19.9865 14.4478 19.5811 14.8571C19.1757 15.2664 18.6258 15.4963 18.0525 15.4963C17.4791 15.4963 16.9292 15.2664 16.5238 14.8571C16.1184 14.4478 15.8906 13.8927 15.8906 13.3139C15.8906 12.735 16.1184 12.1799 16.5238 11.7706Z" fill="white"/>
<path fill-rule="evenodd" clip-rule="evenodd" d="M29.7946 25.3204C31.663 22.8292 32.7714 19.7249 32.7714 16.3593C32.7714 8.15272 26.1815 1.5 18.0525 1.5C9.9234 1.5 3.3335 8.15272 3.3335 16.3593C3.3335 24.5658 9.9234 31.2185 18.0525 31.2185C21.7519 31.2185 25.1326 29.8407 27.7184 27.5657L33.7082 34.0157C34.2816 34.6331 35.2422 34.6644 35.8537 34.0855C36.4653 33.5067 36.4963 32.537 35.923 31.9196L29.7946 25.3204ZM23.7227 26.674C22.0436 27.6168 20.1101 28.1538 18.0525 28.1538C16.0075 28.1538 14.0852 27.6234 12.4133 26.6914C12.4171 26.6803 12.4208 26.6692 12.4243 26.658C12.7933 25.501 13.5527 24.4768 14.603 23.7533C15.6544 23.0291 16.9338 22.6508 18.2441 22.6873C19.5543 22.7237 20.807 23.1724 21.8106 23.9521C22.729 24.6656 23.3893 25.6169 23.7227 26.674ZM26.2415 24.7715C25.6635 23.5062 24.7794 22.3914 23.662 21.5233C22.1398 20.3407 20.2654 19.6776 18.3277 19.6237C16.3901 19.5698 14.4805 20.1275 12.8919 21.2218C11.5767 22.1278 10.5381 23.3633 9.88901 24.7968C7.71737 22.6552 6.36928 19.6662 6.36928 16.3593C6.36928 9.84531 11.6 4.56472 18.0525 4.56472C24.5049 4.56472 29.7356 9.84531 29.7356 16.3593C29.7356 19.6532 28.3981 22.6317 26.2415 24.7715Z" fill="white"/>
</g>
<defs>
<clipPath id="clip0_304_403">
<rect width="36" height="36" fill="white" transform="translate(0.333496)"/>
</clipPath>
</defs>
</svg>
