<svg width="37" height="36" viewBox="0 0 37 36" fill="none" xmlns="http://www.w3.org/2000/svg">
<path fill-rule="evenodd" clip-rule="evenodd" d="M13.431 13.2799C12.4368 13.2799 11.631 14.0858 11.631 15.0799V21.3799C11.631 22.374 12.4368 23.1799 13.431 23.1799H23.9015C24.8956 23.1799 25.7015 22.374 25.7015 21.3799V15.0799C25.7015 14.0858 24.8956 13.2799 23.9015 13.2799H13.431ZM14.601 16.2499V20.2099H22.7315V16.2499H14.601Z" fill="white"/>
<path fill-rule="evenodd" clip-rule="evenodd" d="M13.431 1.09473C12.4368 1.09473 11.631 1.90061 11.631 2.89473V4.64595H3.99863C2.25893 4.64595 0.848635 6.05625 0.848635 7.79595L0.848633 28.3595C0.848633 30.0992 2.25893 31.5095 3.99863 31.5095H7.8439L6.72088 32.754C6.22139 33.3075 6.26519 34.1612 6.81872 34.6607C7.37225 35.1601 8.2259 35.1163 8.7254 34.5628L11.3153 31.6928C11.4408 31.5537 11.5461 31.4025 11.631 31.2433V33.565C11.631 34.5592 12.4368 35.365 13.431 35.365H23.9015C24.8956 35.365 25.7015 34.5592 25.7015 33.565V31.509H33.3648C35.1045 31.509 36.5148 30.0987 36.5148 28.359V7.79552C36.5148 6.05582 35.1045 4.64552 33.3648 4.64552H29.4651L30.5711 3.41991C31.0706 2.86638 31.0268 2.01273 30.4732 1.51323C29.9197 1.01373 29.0661 1.05754 28.5666 1.61107L25.9767 4.48109C25.8704 4.59889 25.7786 4.72529 25.7015 4.85792V2.89473C25.7015 1.90061 24.8956 1.09473 23.9015 1.09473H13.431ZM14.601 4.06473V8.02473H22.7315V4.06473H14.601ZM11.631 29.1277V27.265C11.631 26.2709 12.4368 25.465 13.431 25.465H23.9015C24.8956 25.465 25.7015 26.2709 25.7015 27.265V28.809H33.3648C33.6134 28.809 33.8148 28.6076 33.8148 28.359V7.79552C33.8148 7.54699 33.6134 7.34552 33.3648 7.34552H29.3067L30.6237 8.9947C31.089 9.57731 30.9939 10.4268 30.4112 10.892C29.8286 11.3573 28.9792 11.2622 28.5139 10.6795L25.889 7.3925C25.819 7.30485 25.7565 7.21335 25.7015 7.11883V9.19473C25.7015 10.1888 24.8956 10.9947 23.9015 10.9947H13.431C12.4368 10.9947 11.631 10.1888 11.631 9.19473V7.34595L3.99863 7.34595C3.75011 7.34595 3.54863 7.54742 3.54863 7.79595L3.54863 28.3595C3.54863 28.608 3.75011 28.8095 3.99863 28.8095H7.97014L6.66824 27.1792C6.20298 26.5966 6.29811 25.7471 6.88072 25.2819C7.46333 24.8166 8.31279 24.9117 8.77805 25.4943L11.403 28.7814C11.4908 28.8913 11.5668 29.0073 11.631 29.1277ZM14.601 32.395V28.435H22.7315V32.395H14.601Z" fill="white"/>
</svg>
