<svg width="37" height="36" viewBox="0 0 37 36" fill="none" xmlns="http://www.w3.org/2000/svg">
<path fill-rule="evenodd" clip-rule="evenodd" d="M33.3776 3.43488C33.7515 3.80876 33.8985 4.35328 33.7633 4.86451L28.8729 23.3666C28.8659 23.3932 28.8581 23.4196 28.8496 23.4457C28.4107 24.7977 27.4475 25.917 26.1761 26.5527L26.1514 26.5648L19.0174 29.9679C18.7064 30.1216 18.3802 30.224 18.0498 30.2769C17.8899 30.8919 17.5587 31.4651 17.1046 31.9192L16.1461 32.8777C14.8202 34.2036 12.6704 34.2036 11.3445 32.8777L3.67608 25.2093C2.35016 23.8834 2.35016 21.7336 3.67608 20.4077L4.63456 19.4492C5.09399 18.9898 5.67209 18.6607 6.29044 18.5048C6.34981 18.1411 6.4692 17.783 6.65076 17.4452L10.2589 10.5229L10.2706 10.5008C10.9193 9.30589 12.0019 8.40564 13.295 7.98579C13.3211 7.97733 13.3473 7.96959 13.3738 7.96259L31.9479 3.04941C32.4591 2.91419 33.0036 3.06101 33.3776 3.43488ZM9.34079 19.3532C9.20762 19.22 9.17791 19.0151 9.26776 18.8496L9.27951 18.8275L12.8861 11.9081C13.1664 11.3975 13.6273 11.0103 14.1779 10.822L27.3834 7.32894L22.158 12.5541C20.1524 11.4565 17.8263 12.0059 16.4616 13.3705C14.5341 15.298 14.5341 18.4231 16.4616 20.3506C18.3891 22.2781 21.5142 22.2781 23.4417 20.3506C24.8176 18.9747 25.2639 16.6097 24.246 14.6663L29.4853 9.42728L26.0133 22.5629C25.8164 23.1389 25.4023 23.6156 24.8587 23.8909L17.728 27.2924L17.7033 27.3044C17.5396 27.3863 17.3418 27.3542 17.2124 27.2248L9.34079 19.3532ZM15.1123 29.3249L7.24068 21.4533C7.19835 21.4109 7.16527 21.394 7.14478 21.3862C7.12329 21.378 7.09756 21.373 7.06424 21.3748C6.99692 21.3782 6.87059 21.4134 6.73467 21.5493L5.77619 22.5078C5.61012 22.6739 5.61012 22.9431 5.77619 23.1092L13.4446 30.7776C13.6107 30.9437 13.8799 30.9437 14.046 30.7776L15.0045 29.8191C15.147 29.6766 15.1818 29.5481 15.1855 29.4855C15.1872 29.455 15.1828 29.4329 15.1761 29.4152C15.1697 29.3984 15.1545 29.3671 15.1123 29.3249ZM21.254 15.5582C20.3525 14.6566 19.1876 14.8448 18.5617 15.4707C17.7941 16.2383 17.7941 17.4829 18.5617 18.2505C19.3293 19.0181 20.5739 19.0181 21.3416 18.2505C21.9363 17.6557 22.0814 16.3855 21.254 15.5582Z" fill="white"/>
</svg>
