<svg width="36" height="36" viewBox="0 0 36 36" fill="none" xmlns="http://www.w3.org/2000/svg">
<path d="M16.5001 15C19.8138 15 22.5001 12.3137 22.5001 9C22.5001 5.68629 19.8138 3 16.5001 3C13.1864 3 10.5001 5.68629 10.5001 9C10.5001 12.3137 13.1864 15 16.5001 15Z" fill="white"/>
<path d="M5.21494 22.8153C7.18641 20.067 10.6779 18 16.4999 18C17.0905 18 17.6572 18.0213 18.2007 18.0624C17.6524 18.3665 17.1812 18.8053 16.8811 19.3406L15.8615 21.1592C15.0169 22.6659 15.5181 24.5924 16.9811 25.4622L17.0446 25.4999L16.9811 25.5377C15.5181 26.4075 15.0168 28.334 15.8615 29.8407L16.8811 31.6593C17.15 32.139 17.5562 32.6095 18.0322 33H5.8701C4.41409 33 2.99393 31.8943 3.00002 30.2004C3.00608 28.5158 3.30956 25.4714 5.21494 22.8153Z" fill="white"/>
<path d="M28.7841 25.5C28.7841 26.9912 27.6253 28.2 26.1959 28.2C24.7665 28.2 23.6077 26.9912 23.6077 25.5C23.6077 24.0088 24.7665 22.8 26.1959 22.8C27.6253 22.8 28.7841 24.0088 28.7841 25.5Z" fill="white"/>
<path fill-rule="evenodd" clip-rule="evenodd" d="M33.2055 25.5322C34.4434 26.2778 34.8675 27.9291 34.1528 29.2205L33.2901 30.7794C32.5754 32.0707 30.9925 32.5132 29.7546 31.7676L29.7009 31.7353V31.8C29.7009 33.2912 28.5421 34.5 27.1127 34.5H25.3872C23.9578 34.5 22.7991 33.2912 22.7991 31.8V31.7354L22.7454 31.7677C21.5075 32.5133 19.9246 32.0708 19.2099 30.7794L18.3472 29.2206C17.6325 27.9292 18.0566 26.2779 19.2945 25.5323L19.3482 25.4999L19.2946 25.4676C18.0567 24.722 17.6325 23.0707 18.3472 21.7794L19.21 20.2205C19.9247 18.9291 21.5076 18.4867 22.7455 19.2322L22.7991 19.2645V19.2C22.7991 17.7088 23.9578 16.5 25.3873 16.5H27.1127C28.5421 16.5 29.7009 17.7088 29.7009 19.2V19.2646L29.7545 19.2323C30.9924 18.4867 32.5753 18.9292 33.29 20.2206L34.1528 21.7794C34.8675 23.0708 34.4433 24.7221 33.2054 25.4677L33.1519 25.5L33.2055 25.5322ZM26.1959 30C28.5783 30 30.5095 27.9853 30.5095 25.5C30.5095 23.0147 28.5783 21 26.1959 21C23.8135 21 21.8823 23.0147 21.8823 25.5C21.8823 27.9853 23.8135 30 26.1959 30Z" fill="white"/>
</svg>
