<svg width="36" height="36" viewBox="0 0 36 36" fill="none" xmlns="http://www.w3.org/2000/svg">
<path d="M27.0006 2.37305C27.829 2.37305 28.9049 2.93925 28.9049 4.19458L28.9049 23.3991H33.7079C35.0352 23.3991 35.7512 24.791 34.8874 25.692L28.1801 33.3879C27.5601 34.0346 26.4411 34.0346 25.8211 33.3879L19.1005 25.692C18.2368 24.791 18.9528 23.3991 20.2801 23.3991H25.0637L25.0637 4.19458C25.0637 2.96855 26.1721 2.37305 27.0006 2.37305Z" fill="white"/>
<path d="M3.07798 16.6243C2.2129 16.6243 1.62384 15.7473 1.95105 14.9465L6.68395 3.21811C6.89001 2.70749 7.38564 2.3732 7.93628 2.37318C8.32874 2.37316 8.69715 2.37309 9.08946 2.37306C9.64204 2.37302 10.1389 2.70987 10.3434 3.2232L15.0362 14.9998C15.2998 15.7905 14.7774 16.6243 13.944 16.6243C13.6823 16.6243 13.4188 16.6243 13.1592 16.6243C12.5747 16.6243 12.0391 16.2865 11.8194 15.7449C11.5868 15.1716 11.396 14.6328 11.1408 13.9704H5.81481L5.15356 15.6686C4.92917 16.2448 4.37415 16.6243 3.75575 16.6243C3.53703 16.6243 3.30789 16.6243 3.07798 16.6243ZM10.1869 11.0014L8.54405 6.49806L6.82171 11.0014H10.1869Z" fill="white"/>
<path d="M3.71279 33.873C3.05005 33.873 2.51376 33.3358 2.51376 32.673C2.51376 32.2439 2.51376 31.8169 2.51376 31.6159C2.51376 30.8556 2.81174 30.5678 3.29185 29.9492C5.67789 26.8749 6.19863 25.6446 8.39991 22.8568C7.50426 22.8568 4.96829 22.8568 3.44605 22.8568C2.7833 22.8568 2.24695 22.3195 2.24695 21.6568V20.823C2.24695 20.1603 2.78094 19.623 3.44369 19.623C5.84021 19.623 10.2745 19.623 12.2906 19.623C12.8705 19.623 13.3372 20.0932 13.3372 20.6731C13.3372 20.9373 13.3372 21.191 13.3372 21.3511C13.3372 22.0786 12.8961 22.6183 12.7141 22.8568L7.16383 30.7474C8.07283 30.7474 10.8394 30.7474 12.5873 30.7474C13.4158 30.7474 14.0859 31.419 14.0859 32.2474V32.373C14.0859 33.2015 13.4152 33.873 12.5868 33.873C10.085 33.873 5.79241 33.873 3.71279 33.873Z" fill="white"/>
</svg>
