<svg width="36" height="36" viewBox="0 0 36 36" fill="none" xmlns="http://www.w3.org/2000/svg">
<path fill-rule="evenodd" clip-rule="evenodd" d="M12 9C12 5.68629 14.6863 3 18 3C21.3137 3 24 5.68629 24 9V12.8453C25.3509 13.1561 26.4487 14.201 26.796 15.5905L29.796 27.5905C30.3877 29.9573 28.5977 32.25 26.158 32.25H9.84267C7.40303 32.25 5.61293 29.9573 6.20463 27.5905L9.20463 15.5905C9.55196 14.2012 10.6494 13.1565 12 12.8455V9ZM15 12.75H20.9996L21 9C21 7.34315 19.6569 6 18 6C16.3431 6 15 7.34315 15 9V12.75Z" fill="white"/>
</svg>
