<svg width="36" height="36" viewBox="0 0 36 36" fill="none" xmlns="http://www.w3.org/2000/svg">
<path d="M6 3C4.34314 3 3 4.34315 3 6V30C3 31.6569 4.34315 33 6 33H16.5C18.1569 33 19.5 31.6569 19.5 30V22.5H12C10.3431 22.5 9 21.1569 9 19.5V16.5C9 14.8431 10.3431 13.5 12 13.5H19.5V6C19.5 4.34315 18.1569 3 16.5 3H6Z" fill="white"/>
<path d="M12 16.5V19.5L27.8787 19.5L24.4393 22.9393C23.8536 23.5251 23.8536 24.4749 24.4393 25.0607C25.0251 25.6464 25.9749 25.6464 26.5607 25.0607L32.3485 19.2728C32.386 19.2353 32.4214 19.1966 32.4549 19.1568C32.7878 18.8817 33 18.4656 33 18C33 17.5344 32.7878 17.1183 32.4549 16.8432C32.4214 16.8034 32.386 16.7647 32.3485 16.7272L26.5607 10.9393C25.9749 10.3536 25.0251 10.3536 24.4393 10.9393C23.8536 11.5251 23.8536 12.4749 24.4393 13.0607L27.8787 16.5L12 16.5Z" fill="white"/>
</svg>
