<svg width="36" height="36" viewBox="0 0 36 36" fill="none" xmlns="http://www.w3.org/2000/svg">
<path fill-rule="evenodd" clip-rule="evenodd" d="M18.0175 3C19.2571 3 20.2786 4.01123 20.2786 5.25387L20.2792 15.7631H30.7557C31.9952 15.7631 33 16.7704 33 18.0131C33 19.2557 31.9952 20.2631 30.7557 20.2631H20.2792L20.279 30.7435C20.279 31.9862 19.2742 32.9935 18.0346 32.9935C16.7951 32.9935 15.7903 31.9862 15.7903 30.7435L15.7905 20.2631H5.27428C4.03476 20.2631 3 19.2247 3 17.982C3 16.7394 4.03476 15.7631 5.27428 15.7631H15.7905L15.79 5.25387C15.79 4.01123 16.778 3 18.0175 3Z" fill="white"/>
</svg>
