<svg width="36" height="36" viewBox="0 0 36 36" fill="none" xmlns="http://www.w3.org/2000/svg">
<path d="M6 10.5C6 8.01472 8.01472 6 10.5 6H25.5C27.9853 6 30 8.01472 30 10.5H6Z" fill="white"/>
<path fill-rule="evenodd" clip-rule="evenodd" d="M4.5 13.5C3.67157 13.5 3 14.1716 3 15V25.5C3 27.9853 5.01472 30 7.5 30H28.5C30.9853 30 33 27.9853 33 25.5V15C33 14.1716 32.3284 13.5 31.5 13.5H4.5ZM25.5 18C24.6716 18 24 18.6716 24 19.5C24 20.3284 24.6716 21 25.5 21C26.3284 21 27 20.3284 27 19.5C27 18.6716 26.3284 18 25.5 18Z" fill="white"/>
</svg>
