<svg width="36" height="36" viewBox="0 0 36 36" fill="none" xmlns="http://www.w3.org/2000/svg">
<path fill-rule="evenodd" clip-rule="evenodd" d="M14.3933 5.25C9.3436 5.25 5.25 9.3436 5.25 14.3933C5.25 19.443 9.3436 23.5366 14.3933 23.5366C16.9201 23.5366 19.2039 22.5146 20.8612 20.856C22.5168 19.1991 23.5366 16.9175 23.5366 14.3933C23.5366 9.3436 19.443 5.25 14.3933 5.25ZM0.75 14.3933C0.75 6.85832 6.85832 0.75 14.3933 0.75C21.9283 0.75 28.0366 6.85832 28.0366 14.3933C28.0366 17.3459 27.0969 20.0817 25.5028 22.3143L33.0975 29.909C33.9762 30.7877 33.9762 32.2123 33.0975 33.091C32.2188 33.9697 30.7942 33.9697 29.9155 33.091L22.3219 25.4973C20.0879 27.0947 17.3493 28.0366 14.3933 28.0366C6.85832 28.0366 0.75 21.9283 0.75 14.3933Z" fill="white"/>
</svg>
