<svg width="36" height="36" viewBox="0 0 36 36" fill="none" xmlns="http://www.w3.org/2000/svg">
<path fill-rule="evenodd" clip-rule="evenodd" d="M8.74822 4.07957C6.12866 3.97882 3.97784 6.12964 4.0786 8.7492L4.41801 17.5739C4.46158 18.7067 4.9311 19.7813 5.7327 20.5829L14.9989 29.8491C16.7563 31.6065 19.6055 31.6065 21.3629 29.8491L29.8481 21.3638C31.6055 19.6065 31.6055 16.7572 29.8481 14.9999L20.5819 5.73368C19.7803 4.93207 18.7057 4.46255 17.5729 4.41898L8.74822 4.07957ZM15.3635 15.3638C16.5351 14.1922 16.5351 12.2927 15.3635 11.1211C14.1919 9.94954 12.2924 9.94954 11.1209 11.1211C9.94929 12.2927 9.94929 14.1922 11.1209 15.3638C12.2924 16.5353 14.1919 16.5353 15.3635 15.3638Z" fill="white"/>
</svg>
