<svg width="36" height="36" viewBox="0 0 36 36" fill="none" xmlns="http://www.w3.org/2000/svg">
<path d="M13.5 4.5C13.5 3.67157 14.1716 3 15 3H21C21.8284 3 22.5 3.67157 22.5 4.5V6H30C30.8284 6 31.5 6.67157 31.5 7.5C31.5 8.32843 30.8284 9 30 9H6C5.17157 9 4.5 8.32843 4.5 7.5C4.5 6.67157 5.17157 6 6 6H13.5V4.5Z" fill="white"/>
<path fill-rule="evenodd" clip-rule="evenodd" d="M27 12H9C8.17157 12 7.5 12.6716 7.5 13.5V28.5C7.5 30.9853 9.51472 33 12 33H24C26.4853 33 28.5 30.9853 28.5 28.5V13.5C28.5 12.6716 27.8284 12 27 12ZM15 15C14.1716 15 13.5 15.6716 13.5 16.5V25.5C13.5 26.3284 14.1716 27 15 27C15.8284 27 16.5 26.3284 16.5 25.5V16.5C16.5 15.6716 15.8284 15 15 15ZM19.5 16.5C19.5 15.6716 20.1716 15 21 15C21.8284 15 22.5 15.6716 22.5 16.5V25.5C22.5 26.3284 21.8284 27 21 27C20.1716 27 19.5 26.3284 19.5 25.5V16.5Z" fill="white"/>
</svg>
