<svg width="36" height="36" viewBox="0 0 36 36" fill="none" xmlns="http://www.w3.org/2000/svg">
<path fill-rule="evenodd" clip-rule="evenodd" d="M7.5 4.5C5.01472 4.5 3 6.51472 3 9V27C3 29.4853 5.01472 31.5 7.5 31.5H28.5C30.9853 31.5 33 29.4853 33 27V15C33 12.5147 30.9853 10.5 28.5 10.5H25.5V9C25.5 6.51472 23.4853 4.5 21 4.5H7.5ZM30 19.5V22.5H24V19.5H30ZM24 16.5H30V15C30 14.1716 29.3284 13.5 28.5 13.5H6V27C6 27.8284 6.67157 28.5 7.5 28.5H28.5C29.3284 28.5 30 27.8284 30 27V25.5H24C22.3431 25.5 21 24.1569 21 22.5V19.5C21 17.8431 22.3431 16.5 24 16.5Z" fill="white"/>
</svg>
