<svg width="36" height="36" viewBox="0 0 36 36" fill="none" xmlns="http://www.w3.org/2000/svg">
<path fill-rule="evenodd" clip-rule="evenodd" d="M14.3933 1.5C7.27253 1.5 1.5 7.27253 1.5 14.3933C1.5 21.5141 7.27253 27.2866 14.3933 27.2866C17.1724 27.2866 19.7476 26.4061 21.8529 24.9106L29.5853 32.6428C30.464 33.5214 31.8886 33.5214 32.7673 32.6427C33.646 31.764 33.6459 30.3394 32.7672 29.4607L25.0129 21.7067C26.4462 19.629 27.2866 17.1084 27.2866 14.3933C27.2866 7.27253 21.5141 1.5 14.3933 1.5ZM14.4029 7.54102C15.2314 7.54102 15.9029 8.21259 15.9029 9.04102V12.7791H19.5147C20.3431 12.7791 21.0147 13.4506 21.0147 14.2791C21.0147 15.1075 20.3431 15.7791 19.5147 15.7791H15.9029V19.4927C15.9029 20.3211 15.2314 20.9927 14.4029 20.9927C13.5745 20.9927 12.9029 20.3211 12.9029 19.4927V15.7791H9.22119C8.39276 15.7791 7.72119 15.1075 7.72119 14.2791C7.72119 13.4506 8.39276 12.7791 9.22119 12.7791H12.9029V9.04102C12.9029 8.21259 13.5745 7.54102 14.4029 7.54102Z" fill="white"/>
</svg>
