<svg width="82" height="31" viewBox="0 0 82 31" fill="none" xmlns="http://www.w3.org/2000/svg">
<path d="M11.9933 0.726775C13.3213 -0.0406796 14.958 -0.0406797 16.286 0.726775L25.5163 6.06103C26.8427 6.82753 27.6596 8.24317 27.6596 9.77507V20.5273C27.6596 22.0592 26.8427 23.4748 25.5163 24.2413L16.286 29.5756C14.958 30.343 13.3213 30.343 11.9933 29.5756L2.7629 24.2413C1.43655 23.4748 0.619629 22.0592 0.619629 20.5273V9.77507C0.619629 8.24317 1.43655 6.82753 2.7629 6.06103L11.9933 0.726775Z" fill="white"/>
<path fill-rule="evenodd" clip-rule="evenodd" d="M6.74796 11.3744C6.74796 11.1975 6.93939 11.087 7.09259 11.1753L12.4929 14.2909C12.6351 14.373 12.7228 14.5247 12.7228 14.689V22.2985C12.7228 22.4754 12.5314 22.5859 12.3782 22.4976L6.97788 19.382C6.83561 19.2999 6.74796 19.1482 6.74796 18.9839V16.6887C6.74796 16.6007 6.8428 16.5454 6.91939 16.5887L10.1001 18.3865C10.1767 18.4298 10.2716 18.3744 10.2716 18.2864V15.9045C10.2716 15.7941 10.2121 15.6921 10.1159 15.6378L6.98141 13.8661C6.83715 13.7846 6.74796 13.6317 6.74796 13.466V11.3744ZM21.1872 11.1753C21.3404 11.087 21.5318 11.1975 21.5318 11.3744V13.466C21.5318 13.6317 21.4426 13.7846 21.2984 13.8661L18.1639 15.6378C18.0677 15.6921 18.0082 15.7941 18.0082 15.9045V18.2864C18.0082 18.3744 18.1031 18.4298 18.1797 18.3865L21.3604 16.5887C21.437 16.5454 21.5318 16.6007 21.5318 16.6887V18.9839C21.5318 19.1482 21.4442 19.2999 21.3019 19.382L15.9016 22.4976C15.7484 22.5859 15.557 22.4754 15.557 22.2985V14.689C15.557 14.5247 15.6447 14.373 15.7869 14.2909L21.1872 11.1753ZM13.6851 6.98413C13.9671 6.8236 14.3127 6.8236 14.5947 6.98413L19.0388 9.51432C19.193 9.60215 19.1937 9.82426 19.04 9.91303L16.8187 11.1957C16.7251 11.2498 16.6099 11.2505 16.5156 11.1977L14.2897 9.94981C14.1967 9.89763 14.0831 9.89763 13.9901 9.94981L11.7642 11.1977C11.6699 11.2505 11.5547 11.2498 11.4611 11.1957L9.23983 9.91303C9.08611 9.82426 9.08679 9.60215 9.24104 9.51432L13.6851 6.98413Z" fill="#1E1F27"/>
<path fill-rule="evenodd" clip-rule="evenodd" d="M39.6316 21.2881C40.7964 21.2881 41.2942 21.2881 42.4445 21.2881H45.3891C45.4738 21.2881 45.5423 21.2195 45.5423 21.1349V11.5609C45.5423 11.4763 45.4738 11.4077 45.3891 11.4077H42.5977C42.5131 11.4077 42.4445 11.4763 42.4445 11.5609V17.1254C42.4445 17.5854 42.3542 17.9089 42.0219 18.1682C41.6897 18.4275 41.2745 18.5467 40.6469 18.5467C40.0192 18.5467 39.3319 18.4247 39.0886 18.1682C38.8453 17.9116 38.7236 17.5387 38.7236 17.0494V11.5609C38.7236 11.4763 38.655 11.4077 38.5704 11.4077H35.779C35.6944 11.4077 35.6258 11.4763 35.6258 11.5609V17.1976C35.6258 18.6774 35.9581 19.7574 36.6228 20.4376C37.2875 21.1178 38.2904 21.2881 39.6316 21.2881ZM50.347 21.2881C50.4023 21.2881 50.4533 21.2583 50.4805 21.21L51.938 18.6203C51.9669 18.5688 52.0408 18.5681 52.0707 18.619L53.5967 21.2126C53.6243 21.2594 53.6745 21.2881 53.7288 21.2881H56.827C56.9482 21.2881 57.0214 21.154 56.9559 21.0521L53.9809 16.4223C53.9151 16.32 53.9161 16.1884 53.9835 16.087L56.9368 11.6458C57.0045 11.5439 56.9315 11.4077 56.8092 11.4077H53.6036C53.5496 11.4077 53.4996 11.4362 53.472 11.4826L52.1229 13.7489C52.0931 13.7989 52.0206 13.7987 51.991 13.7485L50.659 11.4833C50.6315 11.4365 50.5812 11.4077 50.5269 11.4077H47.2857C47.1636 11.4077 47.0906 11.5437 47.158 11.6455L50.0062 15.9448C50.073 16.0456 50.0742 16.1764 50.0093 16.2785L46.9722 21.0527C46.9073 21.1547 46.9806 21.2881 47.1015 21.2881H50.347ZM62.5994 21.5474C63.8623 21.5474 65.0949 21.241 65.9427 20.7914C66.0062 20.7578 66.0354 20.6835 66.0143 20.6149L65.3699 18.5135C65.3406 18.4177 65.2287 18.3755 65.1396 18.4212C64.4998 18.7499 63.697 18.8431 62.8753 18.8431C61.1563 18.8431 60.5467 17.6996 60.5467 16.2896C60.5467 14.849 61.2594 13.8272 62.9554 13.8039C63.5379 13.8039 64.0963 13.8918 64.6372 14.0272C64.7139 14.0463 64.7934 14.0049 64.8203 13.9306C65.2093 12.8583 65.2405 12.549 65.4913 11.8033C65.5172 11.7263 65.4796 11.6415 65.4038 11.6123C64.5129 11.2679 63.5493 11.1213 62.5994 11.1213C60.9377 11.1333 59.6677 11.6017 58.7894 12.5265C57.9111 13.4514 57.472 14.6129 57.472 16.3075C57.472 18.014 57.9111 19.1875 58.7894 20.1243C59.6677 21.0611 60.9377 21.5355 62.5994 21.5474ZM72.2363 21.5474C73.4191 21.5474 74.6399 21.4672 75.6379 20.7762C75.6419 20.7734 75.64 20.7738 75.6444 20.7717C75.6841 20.7525 75.7067 20.702 75.6915 20.6606L74.9519 18.6363C74.9254 18.5639 74.8489 18.5212 74.7745 18.5415C74.768 18.5432 74.7624 18.5448 74.7579 18.5462C74.089 18.7529 73.3831 18.9697 72.6636 18.9697C71.4012 18.9697 70.2768 18.6786 69.9276 17.6105C69.9119 17.5625 69.9485 17.5143 69.999 17.5143H76.2669C76.3515 17.5143 76.4201 17.4457 76.4201 17.3611V16.2792C76.4201 14.6204 75.9988 13.3584 75.1561 12.4932C74.3134 11.628 73.1502 11.1954 71.6666 11.1954C69.8832 11.1954 68.2427 12.049 67.376 13.6389C66.9368 14.4444 66.7172 15.408 66.7172 16.5298C66.7172 17.6038 66.9309 18.1761 67.3582 18.9876C68.3147 20.8044 70.2761 21.5474 72.2363 21.5474ZM69.9194 15.4274C69.8771 15.4274 69.8426 15.393 69.8439 15.3508C69.8649 14.6597 70.1686 14.1955 70.4774 13.9471C70.7975 13.6897 71.2393 13.5508 71.6666 13.5508C72.1295 13.5508 72.6138 13.7178 72.8736 13.965C73.1242 14.2036 73.5721 14.6602 73.6034 15.3508C73.6053 15.393 73.5708 15.4274 73.5285 15.4274H69.9194ZM80.8954 21.5461C80.9805 21.5468 81.0499 21.478 81.0499 21.3929V6.99333C81.0499 6.90872 80.9813 6.84012 80.8967 6.84012H78.1053C78.0207 6.84012 77.9521 6.90871 77.9521 6.99333V21.3687C77.9521 21.4528 78.0199 21.5212 78.104 21.5219L80.8954 21.5461Z" fill="white"/>
</svg>
