<svg width="36" height="36" viewBox="0 0 36 36" fill="none" xmlns="http://www.w3.org/2000/svg">
<path fill-rule="evenodd" clip-rule="evenodd" d="M25.1738 28.2C25.1738 28.5402 25.4479 28.816 25.7859 28.816H28.3878C28.7259 28.816 29 28.5402 29 28.2V7.616C29 7.27579 28.7259 7 28.3878 7H7.93027C7.59219 7 7.31812 7.27579 7.31812 7.616V10.2342C7.31812 10.5745 7.59219 10.8502 7.93027 10.8502H24.5616C24.8997 10.8502 25.1738 11.126 25.1738 11.4662V28.2Z" fill="white"/>
<path fill-rule="evenodd" clip-rule="evenodd" d="M14.6519 29C18.878 29 22.3039 25.5526 22.3039 21.3C22.3039 17.0474 18.878 13.6 14.6519 13.6C10.4259 13.6 7 17.0474 7 21.3C7 25.5526 10.4259 29 14.6519 29ZM14.6519 25.3333C16.8656 25.3333 18.6601 23.5275 18.6601 21.3C18.6601 19.0725 16.8656 17.2667 14.6519 17.2667C12.4383 17.2667 10.6438 19.0725 10.6438 21.3C10.6438 23.5275 12.4383 25.3333 14.6519 25.3333Z" fill="white"/>
</svg>
