<svg width="36" height="36" viewBox="0 0 36 36" fill="none" xmlns="http://www.w3.org/2000/svg">
<path d="M19.0115 9.69283L14.0827 17.8045L19.3556 26.4192C19.3893 26.4794 19.3987 26.5502 19.3816 26.6171C19.3634 26.6793 19.3028 26.6396 19.1962 26.6577H15.4373C15.173 26.6577 14.9867 26.6482 14.8809 26.4719C14.5273 25.7851 14.174 25.1024 13.821 24.4237C13.4679 23.745 13.0924 23.0536 12.6943 22.3495C12.2962 21.6449 11.903 20.9313 11.5147 20.2088H11.4887C11.1351 20.9135 10.7685 21.6181 10.3889 22.3227C10.0093 23.0274 9.63371 23.7274 9.26219 24.4228C8.89125 25.1188 8.51164 25.8102 8.12337 26.497C8.0523 26.656 7.92838 26.6698 7.75157 26.6698H4.12187C4.05167 26.6698 4.01181 26.6975 4.00314 26.6275C3.99311 26.563 4.0073 26.4972 4.043 26.4425L9.15647 18.0664L4.17041 9.66345C4.11667 9.59345 4.10801 9.53641 4.14441 9.4906C4.16389 9.4681 4.18839 9.45045 4.21593 9.43904C4.24346 9.42764 4.27328 9.42281 4.30302 9.42492H8.03844C8.12009 9.41991 8.20182 9.4332 8.27764 9.46381C8.34084 9.50001 8.39503 9.54993 8.43623 9.60987C8.7546 10.3145 9.1082 11.0191 9.49706 11.7238C9.88591 12.4284 10.2788 13.1241 10.6758 13.8109C11.0733 14.4977 11.4399 15.1934 11.7756 15.898H11.8016C12.1546 15.1761 12.5123 14.4715 12.8745 13.7841C13.2368 13.0968 13.6078 12.4054 13.9874 11.71C14.3675 11.0145 14.7342 10.3231 15.0872 9.6358C15.1077 9.57022 15.1444 9.51081 15.1938 9.46295C15.2591 9.43003 15.3325 9.41652 15.4053 9.42406H18.872C18.8914 9.41928 18.9115 9.41835 18.9312 9.42132C18.9509 9.4243 18.9698 9.43112 18.9869 9.44139C19.004 9.45166 19.0188 9.46519 19.0306 9.4812C19.0425 9.49721 19.051 9.51538 19.0558 9.53468C19.0629 9.56251 19.0618 9.59179 19.0527 9.61905C19.0437 9.64631 19.027 9.67042 19.0046 9.68851L19.0115 9.69283Z" fill="white"/>
<path d="M26.6174 26.999C25.3977 27.0177 24.1891 26.765 23.0796 26.2593C22.0459 25.7823 21.1818 25.0036 20.6017 24.0261C19.9639 22.8856 19.6521 21.5924 19.7004 20.2874C19.6911 19.0762 20.002 17.8839 20.6017 16.8305C21.2199 15.756 22.1292 14.877 23.2252 14.294C24.5077 13.628 25.9399 13.3007 27.3853 13.3433C27.472 13.3433 27.589 13.3485 27.732 13.3571C27.875 13.3658 28.0405 13.3796 28.2355 13.3969V8.18643C28.2355 8.06371 28.2884 8.00149 28.395 8.00149H31.7335C31.7518 7.9988 31.7705 7.99976 31.7884 8.00431C31.8064 8.00886 31.8233 8.01691 31.8381 8.028C31.8529 8.03909 31.8654 8.05299 31.8748 8.06891C31.8842 8.08483 31.8904 8.10245 31.8929 8.12075C31.895 8.13363 31.895 8.14676 31.8929 8.15964V23.7755C31.8929 24.0756 31.9062 24.4014 31.9328 24.7529C31.9594 25.1044 31.9816 25.4212 31.9995 25.7036C32.0027 25.7584 31.9893 25.813 31.961 25.8601C31.9328 25.9073 31.8909 25.9449 31.8409 25.968C30.9796 26.3263 30.0824 26.592 29.1646 26.7605C28.3244 26.9158 27.4719 26.9957 26.6174 26.999ZM28.2338 23.7227V16.5099C28.0918 16.4712 27.9469 16.4446 27.8004 16.4303C27.6202 16.4125 27.439 16.4038 27.257 16.4044C26.614 16.3983 25.9786 16.5434 25.4023 16.8279C24.8425 17.1065 24.3647 17.5252 24.0156 18.043C23.6266 18.6678 23.4371 19.3956 23.4722 20.1301C23.4593 20.7062 23.5536 21.2797 23.7504 21.8214C23.9112 22.2577 24.1645 22.6542 24.4932 22.9838C24.8077 23.287 25.1887 23.5131 25.606 23.6441C26.0468 23.7868 26.5076 23.8582 26.971 23.8558C27.2177 23.8558 27.4474 23.8469 27.66 23.829C27.8539 23.8135 28.0456 23.7779 28.232 23.7227H28.2338Z" fill="white"/>
</svg>
