<svg width="36" height="36" viewBox="0 0 36 36" fill="none" xmlns="http://www.w3.org/2000/svg">
<path d="M27.4459 18.6367C28.3861 18.6367 28.718 18.6367 28.8102 18.6009C28.8102 18.4753 28.8471 18.3856 28.8471 18.2959C28.8471 17.3273 28.3677 15.5336 26.4503 15.5336C24.6803 15.5336 23.9245 17.0402 23.7401 18.6367H27.4459ZM23.7033 21.0941C23.7402 23.5156 24.9201 25.1479 27.7225 25.1479C28.8103 25.1479 29.7505 25.0045 30.7277 24.592C30.8568 24.5381 30.949 24.5561 30.949 24.7175V26.9596C30.949 27.139 30.8937 27.2287 30.7647 27.3184C29.7875 27.7847 28.5706 28 27.0589 28C22.1916 28 20.3664 24.5023 20.3664 20.6099C20.3664 16.3767 22.6157 12.9149 26.5796 12.9149C30.5988 12.9149 32 16.1974 32 18.87C32 19.731 31.9447 20.4306 31.8525 20.7714C31.8157 20.9149 31.7604 20.9688 31.6128 21.0046C31.244 21.0584 30.1563 21.1301 28.5338 21.1301H23.7033V21.0941ZM13.8213 19.2645C13.3051 17.2735 12.0513 12.9327 11.5904 10.834H11.5535C11.1664 12.9327 10.1523 16.4842 9.39642 19.2645H13.8213ZM8.64047 22.1704L7.18401 27.5336C7.14715 27.677 7.09184 27.7309 6.90743 27.7309H4.19722C4.01288 27.7309 3.97593 27.6771 4.01288 27.4619L9.24887 9.65015C9.34104 9.32732 9.39635 9.07616 9.43321 8.17935C9.43321 8.0538 9.48852 8 9.58069 8H13.4524C13.5814 8 13.6367 8.03587 13.6737 8.17935L19.5365 27.4978C19.5734 27.6412 19.5365 27.7309 19.389 27.7309H16.347C16.1995 27.7309 16.1073 27.6771 16.0704 27.5516L14.5586 22.1705L8.64047 22.1704Z" fill="white"/>
</svg>
