<svg width="36" height="36" viewBox="0 0 36 36" fill="none" xmlns="http://www.w3.org/2000/svg">
<path d="M16.6233 7.29163L6.95978 11.5536C6.42254 11.7908 6.42796 12.6044 6.96886 12.8329L16.6727 16.9345C17.5253 17.2949 18.4748 17.2949 19.3273 16.9345L29.0313 12.8329C29.5719 12.6044 29.5776 11.7908 29.0401 11.5538L19.3769 7.29163C18.4953 6.90279 17.5049 6.90279 16.6233 7.29163Z" fill="white"/>
<path d="M18.8914 19.1224V29.313C18.8914 29.7976 19.3525 30.1296 19.7776 29.951L30.5912 25.5018C30.7118 25.4512 30.8153 25.3632 30.8882 25.2495C30.9611 25.1357 31 25.0014 31 24.8638V14.6733C31 14.1886 30.5389 13.8567 30.1139 14.0353L19.3002 18.4845C19.1796 18.5352 19.0762 18.6232 19.0033 18.7369C18.9304 18.8507 18.8914 18.9848 18.8914 19.1224Z" fill="white"/>
<path d="M16.3017 19.6699L12.7621 21.4749L5.9788 24.9073C5.54896 25.1264 5 24.7955 5 24.291V14.7497C5 14.5672 5.08861 14.4097 5.20744 14.2912C5.25619 14.2399 5.31149 14.1961 5.37175 14.161C5.53371 14.0583 5.76491 14.0309 5.96149 14.113L16.2477 18.4172C16.7706 18.6362 16.8117 19.4098 16.3017 19.6699Z" fill="white"/>
<path d="M16.3022 19.6531L13.0932 21.2867L5.22286 14.2903C5.27155 14.2393 5.32678 14.1956 5.38694 14.1607C5.54869 14.0583 5.77958 14.031 5.9759 14.1129L16.2483 18.4041C16.7705 18.6225 16.8115 19.3938 16.3022 19.6531Z" fill="white"/>
</svg>
