<svg width="36" height="36" viewBox="0 0 36 36" fill="none" xmlns="http://www.w3.org/2000/svg">
<path d="M27.4444 13.3718L18.7778 6.49885C18 5.83372 16.8889 5.83372 16.1111 6.49885L7.55556 13.3718C7.22222 13.5935 7 14.037 7 14.4804V28.5589C7 29.1132 7.33333 29.5566 7.77778 29.7783C8.22222 30 8.77778 30 9.22222 29.6674L16.8889 23.5704C17.2222 23.2379 17.7778 23.2379 18.1111 23.5704L25.7778 29.6674C26 29.8891 26.3333 30 26.6667 30C26.8889 30 27.1111 30 27.2222 29.8891C27.6667 29.6674 28 29.224 28 28.6697V14.4804C28 14.037 27.7778 13.5935 27.4444 13.3718ZM16.1111 22.6836L8.44444 28.7806C8.33333 28.8915 8.33333 28.7806 8.22222 28.7806C8.22222 28.7806 8.11111 28.6697 8.11111 28.5589V14.4804C8.11111 14.3695 8.11111 14.3695 8.22222 14.3695L16.8889 7.49654V22.351C16.6667 22.351 16.3333 22.4619 16.1111 22.6836ZM26.7778 28.5589C26.7778 28.6697 26.6667 28.6697 26.6667 28.7806C26.6667 28.7806 26.5556 28.7806 26.4444 28.7806L18.7778 22.6836C18.5556 22.4619 18.3333 22.351 18 22.351V7.38568L26.6667 14.2587L26.7778 14.3695V28.5589Z" fill="white"/>
</svg>
