<svg width="36" height="36" viewBox="0 0 36 36" fill="none" xmlns="http://www.w3.org/2000/svg">
<path d="M12.965 7.54401L12.9627 7.54049C12.5579 7 12.0193 7 11.8422 7H10.0899C9.64088 7 9.27326 7.20675 9.08125 7.56659C8.88368 7.93523 8.92554 8.37806 9.19891 8.78834L15.6906 17.8051L8.2257 28.2372C7.96491 28.6296 7.92832 29.0657 8.12531 29.434C8.31849 29.7938 8.6864 30 9.13452 30H10.9258C11.3865 30 11.7916 29.7604 11.9942 29.383L20.3497 17.8467L12.965 7.54401Z" fill="white"/>
<path d="M26.9643 7.60881C26.7855 7.22757 26.4017 7.00029 25.9381 7.00029H24.1465C23.6261 7.00029 23.2371 7.21026 23.0322 7.58828L20.3769 11.4755L22.7015 14.6607L26.76 8.82762C27.2055 8.28538 27.0512 7.79445 26.9643 7.60881Z" fill="white"/>
<path d="M22.6473 21.1668L27.8555 28.3284C28.0536 28.7249 28.0478 29.1451 27.8394 29.4824C27.636 29.8114 27.2768 29.9997 26.8536 29.9997H25.1018C24.9226 29.9983 24.7457 29.9595 24.5823 29.8859L24.4752 29.839L20.3564 24.3312L22.6473 21.1668Z" fill="white"/>
</svg>
