<svg width="36" height="36" viewBox="0 0 36 36" fill="none" xmlns="http://www.w3.org/2000/svg">
<path d="M18.4358 5.82819C18.1081 5.5543 18.1156 5.4704 18.5833 5.25418C18.8242 5.14282 19.0842 5.02725 19.3439 5.00609C19.6169 4.98308 19.8916 5.02552 20.1429 5.12954C21.2887 5.63628 22.4476 6.12561 23.5499 6.70987C27.3024 8.69875 29.9555 11.5414 30.7368 15.6648C31.4144 19.2408 30.8225 22.6277 28.5096 25.6088C26.846 27.753 24.5729 29.1385 21.9604 30.0231C18.7498 31.1102 15.4833 31.3532 12.1817 30.4304C10.0239 29.8273 8.20722 28.7232 6.92312 26.9231C6.03265 25.6749 5.52953 24.2715 5.28474 22.7969C4.58141 18.56 5.1705 14.4907 7.16945 10.6321C7.78649 9.44106 8.60727 8.3859 9.70888 7.54258C10.6388 6.8307 11.728 6.5277 12.879 6.39935C14.7357 6.19231 16.5961 6.01571 18.4358 5.82819ZM17.6109 29.2037C17.9607 29.1772 18.587 29.1446 19.2097 29.0799C21.192 28.8738 23.0015 28.2439 24.5152 26.9807C27.4523 24.5297 28.8993 21.3997 29.0385 17.7136C29.1191 15.5778 28.5492 13.6018 27.2759 11.8186C26.3078 10.4628 24.9527 9.57769 23.4492 8.85191C23.195 8.72921 22.9897 8.69946 22.7321 8.8207C22.256 9.04483 21.7844 9.05649 21.3228 8.75133C21.1024 8.60559 20.8495 8.50468 20.6123 8.38147C19.3913 7.747 18.1285 7.24875 16.6951 7.39838C15.9764 7.47341 15.2446 7.5298 14.5512 7.70859C13.5223 7.97389 12.4921 8.2744 11.5167 8.67852C9.85031 9.36888 8.88223 10.7242 8.19994 12.2482C6.58718 15.8506 6.31576 19.5711 7.28873 23.3712C7.88321 25.6931 9.39676 27.2552 11.7025 28.1637C13.5085 28.8752 15.3916 29.1729 17.6109 29.2037Z" fill="white"/>
<path d="M18.033 24.4378C15.991 24.3867 14.1464 23.9833 12.5303 22.8879C11.2542 22.0229 10.4377 20.8811 10.3251 19.3505C10.322 19.3197 10.3207 19.2888 10.3213 19.2579C10.3315 19.0402 10.2495 18.7626 10.584 18.7092C10.9238 18.655 10.9467 18.9496 11.0111 19.1514C11.2454 19.8892 11.7376 20.5286 12.4059 20.9637C15.2827 22.8825 18.3523 23.296 21.5911 21.8798C22.6533 21.4202 23.5479 20.6705 24.1614 19.7259C24.2218 19.6338 24.4061 19.5885 24.5369 19.5805C24.5792 19.5779 24.685 19.7689 24.6757 19.8638C24.5798 20.9638 24.0483 21.9881 23.1888 22.729C21.9959 23.7833 20.5288 24.2246 18.9459 24.3811C18.613 24.414 18.2775 24.4232 18.033 24.4378Z" fill="white"/>
<path d="M13.575 16.7898C13.0064 16.7885 12.5742 16.6291 12.3478 16.1677C12.1016 15.666 12.1389 15.1625 12.4939 14.7144C12.8285 14.292 13.6501 14.29 14.0944 14.6895C14.5055 15.0591 14.6537 15.806 14.4029 16.2884C14.2234 16.6339 13.9306 16.8112 13.575 16.7898Z" fill="white"/>
<path d="M23.2011 15.5998C23.1975 16.365 22.608 16.9838 21.8904 16.9756C21.2875 16.9687 20.8439 16.3977 20.8527 15.6398C20.8603 14.98 21.3406 14.567 22.0694 14.5498C22.5814 14.5377 23.2989 15.112 23.2011 15.5998Z" fill="white"/>
</svg>
