<svg width="36" height="36" viewBox="0 0 36 36" fill="none" xmlns="http://www.w3.org/2000/svg">
<path d="M31.9179 18.8078C31.7536 17.6408 31.3533 16.534 30.7275 15.5186C30.1818 14.6324 29.4816 13.8443 28.6458 13.1744L28.6481 13.1723L19.8703 6.36578C19.864 6.36015 19.8574 6.35485 19.8505 6.3499C19.5587 6.12419 19.1635 6 18.7383 6C18.3126 6 17.902 6.12447 17.5828 6.35062C17.2397 6.59264 17.0435 6.91378 17.0298 7.2556C17.0173 7.57452 17.1679 7.88138 17.4552 8.12058C18.0202 8.57061 18.5838 9.03043 19.1483 9.4908C19.696 9.93779 20.2605 10.3981 20.8222 10.8463L10.0708 10.8389C8.84128 10.8389 8.00408 11.4218 7.83186 12.3977C7.75619 12.8252 7.88972 13.2952 8.18824 13.6551C8.50495 14.0367 8.96479 14.2472 9.48298 14.2472L10.3026 14.2478C11.4349 14.2478 12.5721 14.2449 13.7078 14.2422L14.7909 14.2396L5.03313 21.5279L4.99439 21.5565C4.44935 21.9783 4.09253 22.5696 4.01554 23.1787C3.95719 23.6402 4.06382 24.0619 4.32404 24.3987C4.63417 24.8002 5.11839 25.0211 5.68759 25.0211C6.24677 25.0211 6.81734 24.8071 7.29493 24.4176L12.5643 20.0639C12.5418 20.2765 12.5144 20.5884 12.5175 20.8148C12.5235 21.1732 12.6374 21.8924 12.8179 22.4762C13.1907 23.6761 13.8187 24.7739 14.6843 25.7381C15.585 26.7411 16.682 27.5365 17.9446 28.1014C19.2794 28.6975 20.7143 29 22.2096 29H22.2234C23.7235 28.9963 25.1629 28.689 26.502 28.0862C27.7667 27.5145 28.8632 26.7159 29.7605 25.7131C30.625 24.744 31.2522 23.6444 31.6243 22.4455C31.8084 21.852 31.9263 21.2396 31.9758 20.6197C32.0218 20.0206 32.002 19.411 31.9179 18.8078ZM22.3189 24.5589C19.0235 24.5589 16.3512 22.1454 16.3512 19.1681C16.3512 16.1911 19.0235 13.7777 22.3189 13.7777C25.6143 13.7777 28.2864 16.1911 28.2864 19.1681C28.2865 22.1454 25.6143 24.5589 22.3189 24.5589Z" fill="white"/>
<path d="M24.8402 21.0189C25.4576 20.4081 25.8091 19.583 25.7605 18.6944C25.7127 17.8314 25.2955 17.07 24.667 16.5306C24.0493 16.0002 23.2201 15.6765 22.314 15.6765C21.4079 15.6765 20.5785 16.0001 19.9608 16.5306C19.3326 17.07 18.9156 17.832 18.8683 18.6951C18.8199 19.5831 19.1708 20.4081 19.7879 21.0189C20.4161 21.6411 21.3124 22.032 22.314 22.032C23.3161 22.032 24.2122 21.6411 24.8402 21.0189Z" fill="white"/>
</svg>
