<svg width="36" height="36" viewBox="0 0 36 36" fill="none" xmlns="http://www.w3.org/2000/svg">
<path d="M26.5705 22.1292C26.4189 22.1292 26.2854 22.2524 26.1466 22.5216C24.5786 25.5825 21.8703 27.7482 18.7364 27.7482C15.1127 27.7482 12.8686 24.5991 12.8686 20.2486C12.8686 12.8793 17.1338 8.61847 20.88 8.61847C22.6306 8.61847 23.6996 9.67752 23.6996 11.3628C23.6996 13.3631 22.5192 14.4221 22.5192 15.1276C22.5192 15.4442 22.7238 15.636 23.1295 15.636C24.7596 15.636 26.6728 13.8328 26.6728 11.2854C26.6728 8.8155 24.4397 7 20.6936 7C14.5023 7 9 12.5257 9 20.1712C9 26.0893 12.5104 30 17.9269 30C23.6758 30 27 24.4936 27 22.7063C27 22.3105 26.7898 22.1292 26.5705 22.1292Z" fill="white"/>
</svg>
