<svg width="36" height="36" viewBox="0 0 36 36" fill="none" xmlns="http://www.w3.org/2000/svg">
<path d="M10.6002 8.6285V27.3714C7.79586 25.1723 6 21.7915 6 18C6 14.2084 7.79586 10.8276 10.6002 8.6285Z" fill="white"/>
<path d="M10.6002 27.3714V8.6285C11.9524 7.56806 13.5392 6.78242 15.2722 6.35802V13.5547C13.7973 14.5058 12.8238 16.1417 12.8238 18C12.8238 19.8582 13.7973 21.4942 15.2722 22.4453V29.6419C13.5392 29.2175 11.9524 28.4319 10.6002 27.3714Z" fill="white" fill-opacity="0.8"/>
<path d="M18.2556 30C17.2266 30 16.2272 29.8758 15.2722 29.6419V22.4453C16.1285 22.9975 17.1538 23.3189 18.2556 23.3189C18.8454 23.3189 19.4129 23.2269 19.9443 23.057V29.8871C19.3923 29.9615 18.8285 30 18.2556 30Z" fill="white" fill-opacity="0.56"/>
<path d="M19.9443 6.11299V12.9429C19.4128 12.773 18.8452 12.6811 18.2556 12.6811C17.1538 12.6811 16.1285 13.0025 15.2722 13.5547V6.35802C16.2272 6.12415 17.2266 6 18.2556 6C18.8285 6 19.3922 6.0385 19.9443 6.11299Z" fill="white" fill-opacity="0.56"/>
<path d="M24.6163 28.26C23.2181 29.0925 21.6362 29.6588 19.9443 29.8871V23.057C21.0791 22.694 22.0488 21.975 22.7165 21.0354H22.7188C22.7294 21.0171 22.7411 21 22.754 20.9817C22.7587 20.9771 22.7622 20.9703 22.7657 20.9657C23.2261 20.3025 23.8875 19.8525 24.6163 19.6409V28.26Z" fill="white" fill-opacity="0.48"/>
<path d="M24.6163 7.74086V16.3603C23.8877 16.149 23.2267 15.6993 22.7669 15.0366C22.7622 15.0297 22.7575 15.0228 22.7528 15.0171C22.0845 14.0511 21.0998 13.3125 19.9443 12.9429V6.11299C21.6362 6.34133 23.2181 6.9079 24.6163 7.74086Z" fill="white" fill-opacity="0.48"/>
<path d="M24.6163 28.26C26.0788 27.3892 27.5244 26.1572 28.4157 24.7097C29.4699 23.1805 29.0583 21.1051 27.4975 20.0731C26.6174 19.4927 25.5602 19.3668 24.6163 19.6409V28.26Z" fill="white" fill-opacity="0.32"/>
<path d="M24.6163 16.3603V7.74086C26.1179 8.63538 27.4076 9.8371 28.3946 11.2571C29.3617 12.8279 29.1256 14.8512 27.4975 15.9268C26.6173 16.5079 25.5601 16.6341 24.6163 16.3603Z" fill="white" fill-opacity="0.32"/>
</svg>
