<svg width="36" height="36" viewBox="0 0 36 36" fill="none" xmlns="http://www.w3.org/2000/svg">
<path fill-rule="evenodd" clip-rule="evenodd" d="M13.7927 6C11.1353 6 9 8.11837 9 10.704C9 12.1731 9.68776 13.4883 10.7675 14.352C9.68776 15.2157 9 16.5309 9 18C9 19.4691 9.68776 20.7842 10.7676 21.648C9.68777 22.5117 9 23.8269 9 25.296C9 27.8816 11.1353 30 13.7927 30C16.4502 30 18.5855 27.8816 18.5855 25.296V21.9377C19.3379 22.4214 20.2385 22.704 21.2073 22.704C23.8647 22.704 26 20.5856 26 18C26 16.5309 25.3122 15.2157 24.2325 14.352C25.3122 13.4883 26 12.1731 26 10.704C26 8.11837 23.8647 6 21.2073 6H13.7927ZM11.1707 10.704C11.1707 9.2623 12.3573 8.112 13.7927 8.112H16.4145V13.2959L13.792 13.2959L13.7834 13.296C12.3521 13.291 11.1707 12.1426 11.1707 10.704ZM18.5855 13.296V8.112H21.2073C22.6427 8.112 23.8293 9.2623 23.8293 10.704C23.8293 12.143 22.6472 13.2917 21.2154 13.296L21.2073 13.2959L21.1921 13.296H18.5855ZM11.1707 18C11.1707 16.5609 12.3529 15.4122 13.7847 15.408L13.7927 15.408H16.4146L16.4147 17.9566L16.4145 18L16.4147 18.0434V20.5919H13.7927C12.3573 20.592 11.1707 19.4417 11.1707 18ZM21.2073 15.408L21.2165 15.408C22.6478 15.4128 23.8293 16.5613 23.8293 18C23.8293 19.4417 22.6427 20.592 21.2073 20.592C19.7833 20.592 18.6043 19.4601 18.5855 18.0346V17.9654C18.6043 16.5438 19.7767 15.4142 21.1953 15.408H21.2073ZM11.1707 25.296C11.1707 23.8542 12.3573 22.7039 13.7927 22.7039H16.4147V25.296C16.4147 26.7377 15.2282 27.888 13.7927 27.888C12.3573 27.888 11.1707 26.7377 11.1707 25.296Z" fill="white"/>
</svg>
