<svg width="36" height="36" viewBox="0 0 36 36" fill="none" xmlns="http://www.w3.org/2000/svg">
<path d="M17.9999 18C17.9999 15.6068 19.7908 13.6667 21.9999 13.6667C24.209 13.6667 25.9999 15.6068 25.9999 18C25.9999 20.3933 24.209 22.3333 21.9999 22.3333C19.7908 22.3333 17.9999 20.3933 17.9999 18Z" fill="white"/>
<path d="M10 26.6666C10 24.2734 11.7909 22.3333 14 22.3333H18V26.6666C18 29.0599 16.2092 31 14 31C11.7909 31 10 29.0599 10 26.6666Z" fill="white"/>
<path d="M17.9999 5V13.6666L21.9999 13.6667C24.2091 13.6667 25.9999 11.7266 25.9999 9.33333C25.9999 6.9401 24.2091 5 21.9999 5H17.9999Z" fill="white"/>
<path d="M10 9.33335C10 11.7266 11.7909 13.6667 14 13.6667L17.9999 13.6666V5L14 5.00002C11.7909 5.00002 10 6.94011 10 9.33335Z" fill="white"/>
<path d="M10 18C10 20.3932 11.7909 22.3333 14 22.3333H18L17.9999 13.6666L14 13.6667C11.7909 13.6667 10 15.6068 10 18Z" fill="white"/>
</svg>
