<svg width="36" height="36" viewBox="0 0 36 36" fill="none" xmlns="http://www.w3.org/2000/svg">
<path d="M13.1141 17.0814C13.1141 14.8408 14.9305 13.0243 17.1712 13.0243C19.4118 13.0243 21.2283 14.8408 21.2283 17.0814C21.2283 19.3221 19.4118 21.1385 17.1712 21.1385C14.9305 21.1385 13.1141 19.3221 13.1141 17.0814Z" fill="white"/>
<path d="M5 25.1955C5 22.9549 6.81642 21.1385 9.05709 21.1385H13.1142V25.1955C13.1142 27.4362 11.2978 29.2526 9.05709 29.2526C6.81642 29.2526 5 27.4362 5 25.1955Z" fill="white"/>
<path d="M13.1141 4.91016V13.0243L17.1712 13.0243C19.4119 13.0243 21.2283 11.2079 21.2283 8.96723C21.2283 6.72657 19.4119 4.91016 17.1712 4.91016H13.1141Z" fill="white"/>
<path d="M5 8.96725C5 11.2079 6.81642 13.0243 9.05709 13.0243L13.1141 13.0243V4.91016L9.05709 4.91017C6.81642 4.91017 5 6.72659 5 8.96725Z" fill="white"/>
<path d="M5 17.0814C5 19.3221 6.81642 21.1385 9.05709 21.1385H13.1142L13.1141 13.0243L9.05709 13.0243C6.81642 13.0243 5 14.8408 5 17.0814Z" fill="white"/>
<path d="M31.0002 23.4906C31.0002 28.018 27.33 31.6882 22.8026 31.6882C18.2752 31.6882 14.605 28.018 14.605 23.4906C14.605 18.9632 18.2752 15.293 22.8026 15.293C27.33 15.293 31.0002 18.9632 31.0002 23.4906Z" fill="white"/>
<path fill-rule="evenodd" clip-rule="evenodd" d="M29.6586 23.4907C29.6586 19.7041 26.589 16.6345 22.8025 16.6345C19.0159 16.6345 15.9463 19.7041 15.9463 23.4907C15.9463 27.2773 19.0159 30.3469 22.8025 30.3469C26.589 30.3469 29.6586 27.2773 29.6586 23.4907ZM23.3357 29.2946C23.0941 29.5486 22.9138 29.6016 22.8025 29.6016C22.6912 29.6016 22.5108 29.5486 22.2692 29.2946C22.026 29.0388 21.7726 28.6288 21.5441 28.0607C21.12 27.0062 20.8321 25.5327 20.7945 23.8633H24.8104C24.7729 25.5327 24.4849 27.0062 24.0608 28.0607C23.8323 28.6288 23.5789 29.0388 23.3357 29.2946ZM24.8104 23.1181H20.7945C20.8321 21.4487 21.12 19.9752 21.5441 18.9207C21.7726 18.3526 22.026 17.9426 22.2692 17.6868C22.5108 17.4328 22.6912 17.3798 22.8025 17.3798C22.9138 17.3798 23.0941 17.4328 23.3357 17.6868C23.5789 17.9426 23.8323 18.3526 24.0608 18.9207C24.4849 19.9752 24.7729 21.4487 24.8104 23.1181ZM25.5558 23.8633C25.5043 26.2576 24.9587 28.3256 24.168 29.4485C26.7685 28.8549 28.7375 26.6024 28.9022 23.8633H25.5558ZM28.9022 23.1181H25.5558C25.5043 20.7238 24.9587 18.6558 24.168 17.5329C26.7685 18.1265 28.7375 20.379 28.9022 23.1181ZM20.0491 23.1181C20.1007 20.7238 20.6463 18.6558 21.437 17.5329C18.8364 18.1265 16.8674 20.379 16.7027 23.1181H20.0491ZM16.7027 23.8633C16.8674 26.6024 18.8364 28.8549 21.437 29.4485C20.6463 28.3256 20.1007 26.2576 20.0491 23.8633H16.7027Z" fill="#1E1F27"/>
</svg>
