<svg width="36" height="36" viewBox="0 0 36 36" fill="none" xmlns="http://www.w3.org/2000/svg">
<path fill-rule="evenodd" clip-rule="evenodd" d="M4.5 10C3.67157 10 3 10.6512 3 11.4545V12.9091V24.5455C3 25.3488 3.67157 26 4.5 26H5.25C6.07843 26 6.75 25.3488 6.75 24.5455V13.6364H13.5C14.3285 13.6364 15 12.9852 15 12.1818V11.4545C15 10.6512 14.3285 10 13.5 10H6H4.5ZM19.5 10H18.75C17.9215 10 17.25 10.6512 17.25 11.4545V24.5455C17.25 25.3488 17.9215 26 18.75 26H19.5C20.3284 26 21 25.3488 21 24.5455V11.4545C21 10.6512 20.3284 10 19.5 10ZM31.5 10H30.75C29.9216 10 29.25 10.6512 29.25 11.4545V24.5455C29.25 25.3488 29.9216 26 30.75 26H31.5C32.3284 26 33 25.3488 33 24.5455V11.4545C33 10.6512 32.3284 10 31.5 10ZM24.75 12.9091H25.5C26.3284 12.9091 27 13.5603 27 14.3636V22.3636C27 23.167 26.3284 23.8182 25.5 23.8182H24.75C23.9216 23.8182 23.25 23.167 23.25 22.3636V14.3636C23.25 13.5603 23.9216 12.9091 24.75 12.9091ZM11.25 17.2727H9.75C8.92157 17.2727 8.25 17.9239 8.25 18.7273V19.4545C8.25 20.2579 8.92157 20.9091 9.75 20.9091H11.25C12.0785 20.9091 12.75 20.2579 12.75 19.4545V18.7273C12.75 17.9239 12.0785 17.2727 11.25 17.2727Z" fill="white"/>
</svg>
