<svg width="36" height="36" viewBox="0 0 36 36" fill="none" xmlns="http://www.w3.org/2000/svg">
<path d="M22.6447 8.10227V27.6023C22.6447 29.7842 24.1866 31 25.8224 31C27.3355 31 29 29.9659 29 27.6023V8.25C29 6.24977 27.4868 5 25.8224 5C24.1579 5 22.6447 6.3783 22.6447 8.10227Z" fill="white"/>
<path d="M14.3224 18V27.6023C14.3224 29.7842 15.8643 31 17.5 31C19.0132 31 20.6776 29.9659 20.6776 27.6023V18.1477C20.6776 16.1475 19.1645 14.8977 17.5 14.8977C15.8355 14.8977 14.3224 16.276 14.3224 18Z" fill="white"/>
<path d="M9.17763 31C10.9326 31 12.3553 29.6111 12.3553 27.8977C12.3553 26.1844 10.9326 24.7955 9.17763 24.7955C7.42267 24.7955 6 26.1844 6 27.8977C6 29.6111 7.42267 31 9.17763 31Z" fill="white"/>
</svg>
