<svg width="36" height="36" viewBox="0 0 36 36" fill="none" xmlns="http://www.w3.org/2000/svg">
<path d="M10.8125 11.5967C12.0853 11.5967 13.1514 10.6018 13.1514 9.2978C13.1514 7.99475 12.0853 7 10.8125 7C9.5398 7 8.47391 7.99475 8.47391 9.2978C8.47391 10.6016 9.5398 11.5967 10.8125 11.5967ZM5.963 23.9053C5.82555 24.4885 5.75661 25.1183 5.75661 25.632C5.75661 27.6562 6.8572 29 9.19612 29C11.1359 29 12.7085 27.8512 13.8408 25.9961L13.1494 28.7634H17.0012L19.2027 19.9572C19.753 17.7276 20.8192 16.5702 22.4359 16.5702C23.7085 16.5702 24.4995 17.3596 24.4995 18.6626C24.4995 19.0402 24.4651 19.4514 24.3275 19.8975L23.1924 23.9453C23.0204 24.5285 22.9519 25.112 22.9519 25.6605C22.9519 27.5821 24.0866 28.9876 26.4599 28.9876C28.4892 28.9876 30.1057 27.6847 31 24.563L29.4868 23.9803C28.73 26.0717 28.0765 26.4498 27.5605 26.4498C27.0445 26.4498 26.7693 26.107 26.7693 25.4214C26.7693 25.1126 26.8384 24.77 26.9413 24.3574L28.0422 20.4139C28.3172 19.4879 28.4206 18.6668 28.4206 17.9124C28.4206 14.9623 26.6319 13.4227 24.4651 13.4227C22.4359 13.4227 20.372 15.2482 19.3404 17.1696L20.0969 13.721H14.2157L13.3901 16.7585H16.1418L14.4474 23.5244C13.1167 26.4744 10.6725 26.5223 10.3658 26.4538C9.86209 26.3405 9.53995 26.1497 9.53995 25.497C9.53995 25.1204 9.60874 24.5794 9.78073 23.9271L12.3606 13.721H5.82555L5 16.7585H7.717L5.96315 23.9053" fill="white"/>
</svg>
