<svg width="36" height="36" viewBox="0 0 36 36" fill="none" xmlns="http://www.w3.org/2000/svg">
<path fill-rule="evenodd" clip-rule="evenodd" d="M16.6094 19.2741C16.6094 22.1735 14.2344 24.524 11.3047 24.524C8.37501 24.524 6 22.1735 6 19.2741C6 16.3746 8.37501 14.0242 11.3047 14.0242C14.2344 14.0242 16.6094 16.3746 16.6094 19.2741Z" fill="white" fill-opacity="0.48"/>
<path fill-rule="evenodd" clip-rule="evenodd" d="M16.6094 25.7501C16.6094 28.6495 14.2344 31 11.3047 31C8.37501 31 6 28.6495 6 25.7501C6 22.8506 8.37501 20.5001 11.3047 20.5001C14.2344 20.5001 16.6094 22.8506 16.6094 25.7501Z" fill="white"/>
<path fill-rule="evenodd" clip-rule="evenodd" d="M11.3047 20.5001C9.60943 20.5001 8.09977 21.2872 7.12866 22.5122C8.09977 23.7372 9.60943 24.524 11.3047 24.524C13 24.524 14.5094 23.7372 15.4805 22.5122C14.5094 21.2872 13 20.5001 11.3047 20.5001Z" fill="white"/>
<path d="M18.5805 14.2903V30.9865C24.2765 30.9865 28.9042 26.4723 28.9977 20.869H29V4C23.2455 4 18.5805 8.607 18.5805 14.2903Z" fill="white"/>
</svg>
