<svg width="36" height="36" viewBox="0 0 36 36" fill="none" xmlns="http://www.w3.org/2000/svg">
<path fill-rule="evenodd" clip-rule="evenodd" d="M6 17.0543C6 11.7438 10.2941 5 18.3878 5C22.4079 5 25.3951 6.65909 27.3298 9.02891C29.243 11.3724 30.1035 14.3779 29.9901 17.0937C29.7652 22.4833 25.9096 27.2675 22.8393 30.6742C22.4799 31.0729 21.8586 31.1108 21.4515 30.7588C21.0444 30.4069 21.0057 29.7984 21.3651 29.3996C24.4677 25.9572 27.8322 21.6433 28.0254 17.015C28.1211 14.7217 27.3859 12.1816 25.794 10.2316C24.2236 8.30801 21.7963 6.92592 18.3878 6.92592C11.6245 6.92592 7.96639 12.5512 7.96639 17.0543C7.96639 20.6334 9.47114 24.8608 13.4976 27.4048C12.968 26.4146 12.7077 25.3816 12.7836 24.3902C12.7903 24.3029 12.7996 24.2163 12.8115 24.1304C11.6631 22.9948 10.9696 21.5018 10.9696 19.7633C10.9696 18.5493 11.3141 17.4675 11.9156 16.5568C11.499 15.7186 11.4405 14.9588 11.4405 14.601C11.4405 12.3758 13.2334 10.8309 15.357 10.0904C16.9555 9.53294 18.8966 9.35649 20.8827 9.65837C20.7808 9.23418 20.9845 8.78152 21.3996 8.57773C21.885 8.33943 22.4758 8.53167 22.7191 9.00712L23.5561 10.6427C23.7733 11.067 23.6424 11.583 23.2477 11.8584L21.7829 12.8807C21.3407 13.1893 20.7268 13.0884 20.4117 12.6553C20.1617 12.3117 20.1749 11.8622 20.4118 11.537C18.7934 11.3168 17.2476 11.4754 16.0165 11.9047C14.2558 12.5187 13.4068 13.555 13.4068 14.601C13.4068 14.6795 13.4129 14.8085 13.4406 14.9705C14.8615 13.9272 16.7428 13.3824 18.7536 13.3824C20.246 13.3824 21.5186 13.6901 22.481 14.2019C23.4191 14.7009 24.1742 15.4626 24.3617 16.4113C24.5673 17.4509 24.0324 18.3741 23.0876 18.9558C22.1828 19.5128 20.8607 19.8062 19.1721 19.8062C16.3107 19.8062 14.442 19.1416 13.2496 18.1894C13.0456 18.6637 12.936 19.1896 12.936 19.7633C12.936 20.6245 13.2014 21.4402 13.6926 22.1471C13.9204 21.8783 14.1908 21.632 14.5046 21.4135C15.5444 20.6895 16.9825 20.322 18.7603 20.3337C20.4928 20.3452 21.832 20.627 22.7595 21.139C23.7076 21.6623 24.3318 22.5107 24.2171 23.5388C24.1111 24.4881 23.4044 25.2391 22.5536 25.7174C21.6772 26.2101 20.5143 26.502 19.1721 26.502C17.5971 26.502 16.1155 26.1668 14.8563 25.557C15.1763 26.7344 16.148 28.1132 17.8415 29.2405C18.2371 29.5038 18.3818 30.0077 18.1844 30.4344C17.9869 30.8611 17.5047 31.0867 17.0418 30.969C8.86082 28.8886 6 22.278 6 17.0543ZM15.1128 23.4959C16.1586 24.1687 17.5413 24.576 19.1721 24.576C20.2364 24.576 21.0484 24.343 21.5747 24.0471C22.1266 23.7368 22.2505 23.4353 22.2623 23.3295L22.2624 23.3287C22.2659 23.2983 22.2895 23.0903 21.7941 22.8168C21.2732 22.5293 20.3104 22.2699 18.747 22.2596C17.2288 22.2496 16.2408 22.5676 15.644 22.9832C15.4255 23.1354 15.2495 23.3071 15.1128 23.4959ZM14.438 16.6519C15.1826 17.2703 16.5674 17.8803 19.1721 17.8803C20.6747 17.8803 21.576 17.6116 22.0411 17.3252C22.4662 17.0635 22.448 16.8623 22.4312 16.7774C22.3965 16.6016 22.1902 16.2388 21.5426 15.8944C20.9192 15.5629 19.9816 15.3084 18.7536 15.3084C17.0464 15.3084 15.5707 15.784 14.545 16.5677C14.5088 16.5954 14.4731 16.6234 14.438 16.6519Z" fill="white"/>
</svg>
