<svg width="36" height="36" viewBox="0 0 36 36" fill="none" xmlns="http://www.w3.org/2000/svg">
<path d="M31 16.6393H23.0796L29.9387 12.6787L28.5785 10.3213L21.7185 14.282L25.6778 7.42233L23.3213 6.06167L19.3611 12.9196V5H16.6389V12.9205L12.6787 6.06167L10.3213 7.42233L14.2806 14.2803L7.42239 10.3213L6.06131 12.6787L12.9204 16.6393H5V19.3615H12.9196L6.06131 23.3222L7.42153 25.6795L14.2815 21.7189L10.3213 28.5785L12.6778 29.9392L16.6389 23.0804V31H19.3611V22.9105L23.3941 29.8959L25.6042 28.6201L21.5703 21.6331L28.5767 25.6787L29.9378 23.3213L23.0796 19.3607H30.9991V16.6393H31ZM18 21.7007C17.5141 21.7007 17.0329 21.605 16.5839 21.4191C16.135 21.2331 15.727 20.9605 15.3834 20.6168C15.0397 20.2731 14.7671 19.8651 14.5811 19.416C14.3951 18.967 14.2993 18.4857 14.2993 17.9996C14.2992 17.5135 14.3949 17.0321 14.5808 16.583C14.7667 16.1339 15.0392 15.7258 15.3828 15.3821C15.7263 15.0383 16.1342 14.7656 16.5831 14.5795C17.032 14.3935 17.5132 14.2977 17.9991 14.2976C18.9805 14.2975 19.9217 14.6874 20.6158 15.3814C21.3098 16.0755 21.6998 17.017 21.6999 17.9987C21.7 18.9804 21.3102 19.922 20.6164 20.6162C19.9225 21.3105 18.9814 21.7006 18 21.7007Z" fill="white"/>
</svg>
