<svg width="36" height="36" viewBox="0 0 36 36" fill="none" xmlns="http://www.w3.org/2000/svg">
<path fill-rule="evenodd" clip-rule="evenodd" d="M4.40749 23.1838C2.53081 21.3236 2.53084 18.3077 4.40755 16.4475L9.50475 11.3951C11.0912 9.82264 13.511 9.57944 15.3552 10.6656C15.9257 11.0015 15.9207 11.7721 15.4515 12.2372C14.9823 12.7022 14.2164 12.6622 13.5796 12.4776C12.7641 12.2412 11.847 12.4417 11.2038 13.0792L6.1066 18.1316C5.16825 19.0617 5.16824 20.5696 6.10657 21.4997C7.04493 22.4299 8.56634 22.4299 9.50469 21.4997L19.699 11.3952C21.5758 9.53503 24.6185 9.53502 26.4952 11.3952L31.5925 16.4475C33.4692 18.3076 33.4692 21.3236 31.5925 23.1838C29.7158 25.044 26.673 25.044 24.7963 23.1838L23.0972 21.4997L20.9734 23.6049C19.3869 25.1774 16.9672 25.4206 15.1229 24.3344C14.5525 23.9985 14.5575 23.2279 15.0267 22.7628C15.4958 22.2977 16.2617 22.3377 16.8986 22.5224C17.7141 22.7588 18.6312 22.5582 19.2743 21.9207L21.4589 19.7555C22.3637 18.8586 23.8307 18.8586 24.7356 19.7555L26.4953 21.4997C27.4337 22.4298 28.955 22.4298 29.8934 21.4997C30.8317 20.5696 30.8317 19.0617 29.8934 18.1316L24.7961 13.0793C23.8578 12.1492 22.3364 12.1492 21.3981 13.0793L11.2038 23.1839C9.32701 25.0441 6.2842 25.0441 4.40749 23.1838Z" fill="white"/>
</svg>
