<svg width="36" height="36" viewBox="0 0 36 36" fill="none" xmlns="http://www.w3.org/2000/svg">
<path fill-rule="evenodd" clip-rule="evenodd" d="M21.7424 6.05477L8.44588 7.03563C7.37318 7.12827 7 7.82834 7 8.66737V23.2256C7 23.8791 7.23237 24.4383 7.79299 25.1857L10.9186 29.2447C11.4321 29.8982 11.899 30.0384 12.8794 29.9918L28.3203 29.0582C29.6259 28.9654 30 28.3582 30 27.332V10.9538C30 10.4234 29.7902 10.2706 29.1727 9.81792L24.8223 6.7546C23.7955 6.00893 23.3757 5.91461 21.7424 6.05453V6.05477ZM13.2286 10.6858C11.9677 10.7705 11.6818 10.7897 10.9657 10.2082L9.14515 8.76193C8.96012 8.57474 9.05312 8.34122 9.5193 8.29466L22.3015 7.36179C23.375 7.26819 23.9339 7.64187 24.3537 7.96826L26.5459 9.55464C26.6397 9.60192 26.8727 9.88104 26.5923 9.88104L13.392 10.6747L13.2286 10.686V10.6858ZM11.7586 27.192V13.2883C11.7586 12.6811 11.9454 12.401 12.5043 12.354L27.6657 11.4674C28.18 11.4211 28.4123 11.7475 28.4123 12.3537V26.1648C28.4123 26.772 28.3186 27.2856 27.4793 27.332L12.9707 28.1719C12.1314 28.2183 11.7589 27.9391 11.7589 27.192H11.7586ZM26.0805 14.0337C26.1735 14.4537 26.0805 14.8737 25.66 14.9217L24.9607 15.0602V25.3256C24.3534 25.652 23.7945 25.8384 23.3274 25.8384C22.5808 25.8384 22.3943 25.6049 21.8351 24.9056L17.2622 17.7201V24.6721L18.7088 24.9992C18.7088 24.9992 18.7088 25.8392 17.5417 25.8392L14.3241 26.0256C14.2304 25.8384 14.3241 25.3721 14.6502 25.2793L15.4905 25.0465V15.8546L14.3243 15.7602C14.2306 15.3403 14.4637 14.7338 15.1173 14.6867L18.5697 14.4547L23.3276 21.7331V15.2939L22.1148 15.1547C22.0211 14.6404 22.3943 14.2667 22.8605 14.2211L26.0805 14.0339V14.0337Z" fill="white"/>
</svg>
