<svg width="36" height="36" viewBox="0 0 36 36" fill="none" xmlns="http://www.w3.org/2000/svg">
<path d="M23.0366 20.5678C22.813 20.8994 22.4925 21.1483 22.1219 21.2781C21.7514 21.408 21.3503 21.4119 20.9775 21.2893C20.6046 21.1667 20.2796 20.924 20.05 20.5968C19.8203 20.2696 19.6982 19.8751 19.7014 19.471C19.7046 19.0669 19.833 18.6745 20.0678 18.3513C20.3026 18.028 20.6314 17.7909 21.0062 17.6746C21.3809 17.5583 21.7819 17.569 22.1503 17.7051C22.5187 17.8412 22.8353 18.0955 23.0536 18.4309L24.4074 17.6054C24.0132 16.9631 23.4279 16.4703 22.7393 16.2009C22.0508 15.9314 21.2962 15.9 20.5888 16.1112C19.8815 16.3224 19.2596 16.765 18.8165 17.3723C18.3735 17.9797 18.1332 18.7191 18.1317 19.4795C18.1303 20.24 18.3678 20.9803 18.8085 21.5895C19.2492 22.1987 19.8694 22.6437 20.5759 22.8578C21.2825 23.072 22.0372 23.0436 22.7268 22.777C23.4163 22.5103 24.0035 22.0199 24.4002 21.3792L23.0366 20.5678ZM26.7667 13H25.1961V22.7296H26.7659V19.4864C26.7659 18.9846 26.9589 18.5034 27.3025 18.1486C27.646 17.7938 28.112 17.5945 28.5978 17.5945C29.0837 17.5945 29.5497 17.7938 29.8932 18.1486C30.2368 18.5034 30.4298 18.9846 30.4298 19.4864V22.7296H32V19.1709C31.9998 18.545 31.8217 17.9329 31.4879 17.4104C31.154 16.888 30.6791 16.4782 30.122 16.2318C29.5648 15.9854 28.9499 15.9133 28.3534 16.0244C27.7569 16.1354 27.2051 16.4248 26.7663 16.8566L26.7667 13ZM15.7758 13H14.2056V20.5673C14.2056 21.0343 14.3357 21.4915 14.5805 21.8842C14.8253 22.2769 15.1743 22.5885 15.586 22.7818C15.9977 22.975 16.4545 23.0418 16.902 22.9742C17.3494 22.9065 17.7685 22.7072 18.1092 22.4001L17.3507 21.0708C17.2772 21.1666 17.1837 21.244 17.0772 21.2972C16.9707 21.3504 16.8538 21.378 16.7355 21.3779H16.5607C16.3526 21.3778 16.153 21.2923 16.0058 21.1404C15.8586 20.9884 15.7759 20.7823 15.7758 20.5673V17.8648H17.3456V16.2432H15.7758V13ZM12.3749 13C12.1436 13 11.9217 13.0949 11.7581 13.2638C11.5945 13.4328 11.5026 13.6619 11.5026 13.9008C11.5026 14.1398 11.5945 14.3689 11.7581 14.5378C11.9217 14.7068 12.1436 14.8017 12.3749 14.8017C12.6063 14.8017 12.8281 14.7068 12.9917 14.5378C13.1553 14.3689 13.2472 14.1398 13.2472 13.9008C13.2472 13.6619 13.1553 13.4328 12.9917 13.2638C12.8281 13.0949 12.6063 13 12.3749 13ZM13.1598 22.7296V16.2432H11.59V22.7296H13.1598Z" fill="white"/>
<path fill-rule="evenodd" clip-rule="evenodd" d="M4 22.7296H5.56977V20.8377H7.00929C7.5076 20.8377 8.00104 20.7363 8.46142 20.5394C8.9218 20.3424 9.34011 20.0538 9.69247 19.6899C10.0448 19.326 10.3243 18.894 10.515 18.4185C10.7057 17.943 10.8039 17.4335 10.8039 16.9188C10.8039 16.4042 10.7057 15.8946 10.515 15.4192C10.3243 14.9437 10.0448 14.5117 9.69247 14.1478C9.34011 13.7839 8.9218 13.4952 8.46142 13.2983C8.00104 13.1014 7.5076 13 7.00929 13H4V22.7296ZM5.56977 14.6212H7.00929C7.59924 14.6212 8.16502 14.8632 8.58218 15.294C8.99934 15.7248 9.23369 16.3091 9.23369 16.9184C9.23369 17.5277 8.99934 18.112 8.58218 18.5428C8.16502 18.9736 7.59924 19.2156 7.00929 19.2156H5.57019L5.56977 14.6212Z" fill="white"/>
</svg>
