<svg width="36" height="36" viewBox="0 0 36 36" fill="none" xmlns="http://www.w3.org/2000/svg">
<path fill-rule="evenodd" clip-rule="evenodd" d="M9 27.1333V15.127C9 10.0863 13.0294 6 18 6C22.9706 6 27 10.0863 27 15.127C27 20.1013 23.0758 24.1463 18.1957 24.2518V24.254C16.7909 24.254 15.6522 23.0992 15.6522 21.6746C15.6522 20.2633 16.7698 19.1167 18.1565 19.0956V19.0921C20.2451 19.0088 21.913 17.2654 21.913 15.127C21.913 12.9354 20.1611 11.1587 18 11.1587C15.8389 11.1587 14.087 12.9354 14.087 15.127V28.4206C14.087 29.8452 12.9483 31 11.5435 31C11.0202 31.0008 10.5096 30.8373 10.0817 30.5317C10.8133 30.3149 11.3478 29.6295 11.3478 28.8175C11.3478 27.8313 10.5594 27.0317 9.58696 27.0317C9.38113 27.0317 9.1836 27.0675 9 27.1333ZM18.1957 23.4603C19.1681 23.4603 19.9565 22.6608 19.9565 21.6746C19.9565 20.6884 19.1681 19.8889 18.1957 19.8889C17.2232 19.8889 16.4348 20.6884 16.4348 21.6746C16.4348 22.6608 17.2232 23.4603 18.1957 23.4603Z" fill="white"/>
</svg>
