<svg width="36" height="36" viewBox="0 0 36 36" fill="none" xmlns="http://www.w3.org/2000/svg">
<path fill-rule="evenodd" clip-rule="evenodd" d="M7.81813 7C7.58244 7 7.36649 7.09941 7.21999 7.26233C7.088 7.40027 7.00595 7.58792 7 7.79197C7 8.01684 7.06532 8.22403 7.2257 8.38441L9.83348 11.4805L17.9998 21.1723V29C18.5289 29 19.0459 28.7916 19.427 28.4237C19.4286 28.4237 19.4286 28.4237 19.4286 28.4221L28.7933 17.3047C28.8607 17.2374 28.9103 17.1477 28.9441 17.0597C28.981 16.9689 29 16.8692 29 16.7634V7.81837C29 7.60266 28.9163 7.40455 28.7786 7.2609C28.6304 7.09941 28.4176 7 28.18 7H7.81813Z" fill="white"/>
<path fill-rule="evenodd" clip-rule="evenodd" d="M18.0002 25.6531L17.9998 29C17.4454 29 16.9428 28.7798 16.573 28.4233C16.5715 28.4233 16.5715 28.4233 16.5715 28.4221L16.2945 28.092L7.22015 17.3207C7.21421 17.3178 7.20992 17.3119 7.20683 17.3059L7.17021 17.2636C7.16735 17.2605 7.16569 17.2577 7.16307 17.2546C7.11884 17.1946 7.08078 17.1299 7.05581 17.0595C7.02204 16.9761 7.00301 16.8852 7.00016 16.7913V16.7356C7.00016 16.718 7.00159 16.7002 7.00468 16.6826C7.02061 16.498 7.09981 16.3334 7.22015 16.2045C7.36832 16.0447 7.58236 15.9436 7.81829 15.9436H9.8177L17.9987 25.6545L18.0002 25.6531Z" fill="white" fill-opacity="0.2"/>
<path fill-rule="evenodd" clip-rule="evenodd" d="M17.9998 21.1723L18.0002 25.6531L17.9987 25.6545L9.8177 15.9436L7.20493 12.8443C7.19399 12.8322 7.18305 12.8184 7.17211 12.8043C7.12407 12.7427 7.08411 12.674 7.0551 12.5981C7.02228 12.5144 7.00301 12.4236 7.00016 12.3275V12.2723C7.00563 12.0675 7.08816 11.8832 7.22015 11.7431C7.36737 11.5807 7.58165 11.4803 7.81829 11.4803L9.83348 11.4805L17.9998 21.1723Z" fill="white" fill-opacity="0.8"/>
</svg>
