<svg width="36" height="36" viewBox="0 0 36 36" fill="none" xmlns="http://www.w3.org/2000/svg">
<path d="M18.0108 6.00502C18.0697 5.99821 18.1293 5.99833 18.1881 6.00537L24.7067 6.7859C25.3592 6.87147 25.4564 6.8978 25.7896 7.27957L30.861 13.8464C31.0551 14.0977 31.045 14.4417 30.8365 14.6824L21.7164 25.2113L18.5889 28.7556C18.3001 29.0829 17.7689 29.0812 17.4825 28.7521L14.4006 25.2113L5.1648 14.6118C4.95267 14.3683 4.94451 14.0186 5.14507 13.7665L10.3342 7.24367C10.5196 6.97189 10.7669 6.83867 11.2221 6.79071L18.0108 6.00502ZM19.5758 7.55235C19.5342 7.51139 19.4676 7.50776 19.4215 7.54395C19.3763 7.57947 19.3656 7.64147 19.3941 7.689L19.4038 7.70278L23.4136 12.5831C23.4524 12.6303 23.4736 12.6892 23.4736 12.7499C23.4736 12.8896 23.3635 13.0042 23.2235 13.0153L23.2012 13.0162H12.8762C12.8141 13.0162 12.7539 12.9955 12.7056 12.9575C12.5948 12.8705 12.572 12.7161 12.6491 12.6026L12.6638 12.5831L16.6735 7.70278C16.7106 7.65774 16.7068 7.59266 16.665 7.55192C16.6238 7.51192 16.5596 7.50844 16.5145 7.54138L16.5015 7.55235L11.0695 12.8923C11.0261 12.935 10.9662 12.9577 10.9047 12.9549C10.7915 12.9496 10.7026 12.8609 10.6973 12.7525L10.6973 12.732L10.8847 8.86402C10.8872 8.8124 10.8514 8.76647 10.7999 8.75507C10.7461 8.74318 10.6926 8.77244 10.6738 8.82161L10.6696 8.83549L9.64033 13.2874C9.60512 13.4397 9.48785 13.5601 9.3359 13.6029L9.30702 13.61L6.75861 14.1468C6.70843 14.1574 6.6726 14.2008 6.6726 14.251C6.6726 14.3049 6.71359 14.3495 6.76677 14.3566L6.78156 14.3575H9.32367C9.4715 14.3575 9.60851 14.4307 9.68859 14.5507L9.70384 14.5753L15.8021 25.2113C15.844 25.2844 15.9366 25.3135 16.0142 25.2778C16.0904 25.2427 16.1261 25.1575 16.0993 25.0813L16.0926 25.0652L11.1625 14.8131C11.1421 14.7706 11.1315 14.7241 11.1315 14.6771C11.1315 14.5083 11.2654 14.37 11.435 14.3583L11.4583 14.3575H24.619C24.6671 14.3575 24.7146 14.3679 24.7581 14.3879C24.9144 14.4597 24.9854 14.637 24.924 14.7921L24.9148 14.8131L19.9848 25.0652C19.9483 25.141 19.978 25.2316 20.0528 25.2726C20.1263 25.3128 20.2179 25.2916 20.2657 25.226L20.2753 25.2113L26.3735 14.5753C26.4458 14.4492 26.5781 14.3681 26.7243 14.3585L26.7537 14.3575H29.2958C29.3471 14.3575 29.3915 14.3225 29.4023 14.2734C29.4139 14.2207 29.3835 14.1687 29.333 14.1508L29.3187 14.1468L26.7703 13.61C26.6142 13.5771 26.4899 13.4637 26.4446 13.3156L26.437 13.2874L25.4078 8.83549C25.3961 8.78508 25.3491 8.75012 25.2964 8.75257C25.2413 8.75512 25.1977 8.79726 25.193 8.84954L25.1927 8.86402L25.38 12.732C25.3829 12.7921 25.3597 12.8506 25.316 12.8931C25.236 12.9709 25.1098 12.9754 25.0244 12.907L25.0079 12.8923L19.5758 7.55235Z" fill="white"/>
</svg>
