<svg width="36" height="36" viewBox="0 0 36 36" fill="none" xmlns="http://www.w3.org/2000/svg">
<path fill-rule="evenodd" clip-rule="evenodd" d="M18.3333 31.6667C25.6971 31.6667 31.6667 25.6971 31.6667 18.3333C31.6667 10.9695 25.6971 5 18.3333 5C10.9695 5 5 10.9695 5 18.3333C5 25.6971 10.9695 31.6667 18.3333 31.6667ZM25.4143 10.0344C23.671 10.8415 21.4748 13.5899 22.7596 17.141C24.1167 20.8917 24.2614 24.467 23.4416 26.7731C23.022 27.9536 21.9174 28.7165 20.6939 28.9863C19.9338 29.154 19.1439 29.2424 18.3333 29.2424C14.9188 29.2424 11.8707 27.6737 9.87041 25.2177C9.92408 25.2286 9.97904 25.2388 10.0353 25.2485C12.8161 25.7262 15.1333 23.6346 15.9177 17.5822C16.3841 13.9829 17.4573 11.2754 19.105 9.29409C20.0365 8.17399 21.607 7.82186 22.928 8.43614C23.8306 8.85587 24.6662 9.39544 25.4143 10.0344ZM18.3333 7.42424C18.4126 7.42424 18.4918 7.42509 18.5707 7.42677C18.474 7.44565 18.374 7.46815 18.2706 7.49475C16.702 7.8982 14.7412 11.1262 13.9569 13.9507C13.6521 15.0481 12.3882 19.5997 9.64315 20.4066C9.22724 20.5289 8.79582 20.4262 8.39599 20.2101C7.73272 19.8518 7.42424 19.0872 7.42424 18.3333L-nan -nanL7.42424 18.3333C7.42424 17.5153 7.51429 16.7182 7.68502 15.9515C8.52241 15.8722 9.81676 15.5047 10.4988 14.7577C10.9192 14.2972 11.4738 13.3643 12.1076 12.2982C12.7371 11.2394 13.4447 10.0492 14.1766 9.05985C14.772 8.25505 15.6535 7.70836 16.6427 7.55446C17.1937 7.46873 17.7583 7.42424 18.3333 7.42424Z" fill="white"/>
</svg>
