<svg xmlns="http://www.w3.org/2000/svg" xml:space="preserve" width="36" height="36" fill="none">
<path fill="#fff" fill-rule="evenodd" d="M18 31.334c7.364 0 13.334-5.97 13.334-13.334S25.364 4.666 18 4.666 4.667 10.636 4.667 18 10.637 31.334 18 31.334M25.081 9.7c-1.743.807-3.94 3.555-2.655 7.107 1.357 3.75 1.502 7.326.682 9.632-.42 1.18-1.524 1.943-2.747 2.213-.76.168-1.55.256-2.361.256a10.89 10.89 0 0 1-8.463-4.025q.081.017.165.031c2.78.478 5.098-1.614 5.882-7.666.467-3.6 1.54-6.307 3.188-8.288a3.21 3.21 0 0 1 3.823-.858c.902.42 1.738.959 2.486 1.598M18 7.091q.12 0 .237.002a5 5 0 0 0-.3.068c-1.568.404-3.53 3.632-4.314 6.456-.304 1.098-1.568 5.65-4.313 6.456-.416.123-.848.02-1.247-.196-.664-.359-.972-1.123-.972-1.877 0-.818.09-1.615.26-2.382.838-.08 2.132-.447 2.814-1.194.42-.46.975-1.393 1.61-2.46.629-1.058 1.336-2.248 2.068-3.238a3.8 3.8 0 0 1 2.466-1.505q.828-.13 1.691-.13" style="stroke-width:3.70371"/>
</svg>