<svg width="36" height="36" viewBox="0 0 36 36" fill="none" xmlns="http://www.w3.org/2000/svg">
<path fill-rule="evenodd" clip-rule="evenodd" d="M16.81 25.52V28.9785C20.0946 29.1796 23.3074 27.9607 25.6318 25.6314C30.1227 21.1405 30.1227 13.8596 25.6318 9.36908C25.2237 8.9607 24.7855 8.58337 24.3211 8.24027L21.8414 10.7197L10.7189 21.841C8.68107 18.6559 9.13402 14.4821 11.8077 11.8082C13.486 10.1265 15.8228 9.27407 18.19 9.48002V6.02145C14.9054 5.82045 11.6925 7.03953 9.36819 9.36886C4.87727 13.8597 4.87727 21.1406 9.36819 25.6312C9.77635 26.0395 10.2144 26.4169 10.6789 26.7599L13.1584 24.2806L24.281 13.159C26.3188 16.344 25.8659 20.518 23.1922 23.1918C21.5138 24.8735 19.177 25.7259 16.81 25.52Z" fill="white"/>
</svg>
