<svg width="36" height="36" viewBox="0 0 36 36" fill="none" xmlns="http://www.w3.org/2000/svg">
<path d="M11.4142 4H24.6718C27.1448 4 29.0898 5.92558 28.9968 8.28928V22.6409C28.9968 25.0009 27.0556 26.9265 24.6681 26.9265H21.7526L23.3442 32L15.6574 26.9265H11.418C8.94496 26.9265 7.00001 25.0009 7.00001 22.5525V8.29296C6.9963 5.92558 8.94124 4 11.4142 4ZM16.5648 19.7507C16.1148 19.504 15.7541 19.1469 15.4826 18.6756C15.2112 18.2043 15.0773 17.6373 15.0773 16.9783V9.33123C15.0773 9.21341 15.0512 9.12137 14.9955 9.06246C14.9434 8.99987 14.8542 8.97041 14.7277 8.97041H12.753C12.7084 8.97041 12.6638 8.97778 12.6229 8.99619C12.582 9.0146 12.5448 9.04037 12.5187 9.07719C12.4555 9.14714 12.422 9.23918 12.4258 9.33491V16.9489C12.4258 18.1675 12.6786 19.1874 13.1844 20.0158C13.6902 20.8405 14.367 21.4554 15.2223 21.8604C16.0739 22.2654 17.0259 22.4642 18.0746 22.4642C19.1271 22.4642 20.0791 22.2654 20.9307 21.8714C21.7823 21.4775 22.4591 20.87 22.9649 20.0452C23.4706 19.2205 23.7235 18.197 23.7235 16.9746V9.33859C23.7235 9.29073 23.7161 9.24287 23.6975 9.195C23.6789 9.15082 23.6529 9.10664 23.6194 9.0735C23.5487 9.00355 23.4558 8.96673 23.3368 8.96673H21.455C21.3435 8.96673 21.2505 8.99987 21.1836 9.06982C21.1129 9.13978 21.0794 9.22814 21.0794 9.33859V16.9783C21.0794 17.5932 20.9456 18.1417 20.6778 18.6167C20.4101 19.0953 20.0493 19.4635 19.5919 19.7249C19.1345 19.9863 18.6287 20.1152 18.0784 20.1152C17.5168 20.1189 17.0148 19.9974 16.5648 19.7507Z" fill="white"/>
</svg>
