<svg width="36" height="36" viewBox="0 0 36 36" fill="none" xmlns="http://www.w3.org/2000/svg">
<path d="M5.30498 13.0269V20.5306C5.30498 20.8533 5.30498 21.176 5.33335 21.4719C5.36172 21.7677 5.41846 22.0367 5.50356 22.2518C5.61704 22.467 5.75889 22.6284 5.98584 22.7628C6.18442 22.8973 6.49648 22.9511 6.89365 22.9511C7.51777 22.9511 7.97168 22.7628 8.19863 22.4132C8.42558 22.0636 8.56743 21.445 8.56743 20.6112V13H9.81567V20.5306C9.81567 20.7188 9.81567 20.934 9.7873 21.2029C9.7873 21.3685 9.76076 21.5466 9.7349 21.7202C9.72296 21.8003 9.71116 21.8795 9.7022 21.956C9.64546 22.198 9.56035 22.467 9.44687 22.709C9.3334 22.9511 9.16318 23.1663 8.93623 23.3545C8.70928 23.5428 8.45395 23.7042 8.11352 23.8117C7.77309 23.9193 7.37593 24 6.86528 24C6.15605 24 5.61704 23.8924 5.21987 23.6773C4.8227 23.4621 4.53901 23.1932 4.3688 22.8704C4.19858 22.5477 4.08511 22.1711 4.05674 21.7677C4.02837 21.3643 4 20.9609 4 20.5575V13.0269H5.30498Z" fill="white"/>
<path d="M10.9787 13H12.3688L13.9007 16.8729L15.4894 13H16.766L14.5249 17.9487L17.0497 23.7579H15.5745L13.7589 19.2934L11.9433 23.7848H10.6667L13.1631 18.1638L10.9787 13Z" fill="white"/>
<path fill-rule="evenodd" clip-rule="evenodd" d="M20.3698 13H18.157V23.7579H19.462V19.3741H20.5684C21.1642 19.3741 21.6464 19.2934 22.0436 19.132C22.4408 18.9438 22.7528 18.7286 23.0082 18.4328C23.2635 18.1369 23.4337 17.7873 23.5472 17.4107C23.6607 17.0342 23.7174 16.6308 23.7174 16.2005C23.7174 15.8777 23.7174 15.5819 23.6607 15.3398C23.6323 15.0978 23.5755 14.8826 23.4904 14.6944C23.4053 14.5061 23.3202 14.3447 23.2351 14.2103C23.15 14.0758 23.0649 13.9682 22.9798 13.8606C22.6677 13.511 22.2989 13.2689 21.9018 13.1614C21.4762 13.0538 20.9656 13 20.3698 13ZM20.54 18.3521H19.4336V14.0758H20.4266C20.5968 14.0758 20.767 14.0758 20.9939 14.1027C21.2209 14.1296 21.4479 14.2103 21.6464 14.3447C21.845 14.4792 22.0436 14.6944 22.1855 14.9902C22.3273 15.2861 22.4124 15.7164 22.4124 16.2543C22.4124 16.6846 22.3557 17.0611 22.2706 17.3301C22.1855 17.599 22.0436 17.8142 21.8734 17.9755C21.7032 18.11 21.5046 18.2176 21.2776 18.2714C21.0507 18.3252 20.7954 18.3521 20.54 18.3521Z" fill="white"/>
<path d="M25.9869 13V14.3716H24.7092V13H25.9869Z" fill="white"/>
<path d="M24.766 15.7971H25.9301V23.7579H24.766V15.7971Z" fill="white"/>
<path d="M28.3404 15.7971H27.3191V23.7579H28.4822V19.1589C28.4822 18.9437 28.4822 18.6748 28.5106 18.379C28.539 18.0831 28.5957 17.8142 28.6808 17.5452C28.7659 17.3032 28.9078 17.088 29.078 16.8997C29.2766 16.7115 29.5035 16.6308 29.8156 16.6308C30.0709 16.6308 30.2695 16.6846 30.4113 16.8191C30.5532 16.9535 30.6667 17.1149 30.7234 17.3032C30.7801 17.5183 30.8369 17.7335 30.8369 17.9755C30.8652 18.2445 30.8652 18.4865 30.8652 18.7286V23.7579H32V18.7017C32 18.2445 32 17.8142 31.9716 17.4107C31.9433 16.9804 31.8582 16.6577 31.7163 16.4156C31.6028 16.1736 31.3759 15.9853 31.1206 15.8239C30.8652 15.6895 30.5532 15.6088 30.1844 15.6088C29.8723 15.6088 29.617 15.6626 29.39 15.7702C29.1915 15.8777 28.9929 16.0122 28.851 16.1736C28.7092 16.3081 28.5957 16.4694 28.5106 16.6308C28.4255 16.7922 28.3688 16.9266 28.3404 17.0073V15.7971Z" fill="white"/>
</svg>
