<svg width="36" height="36" viewBox="0 0 36 36" fill="none" xmlns="http://www.w3.org/2000/svg">
<path d="M18.0041 6.04167C19.0482 6.04167 20.0642 6.15495 21.0801 6.40982C21.3341 6.46646 21.6163 6.32486 21.701 6.06999C21.8139 5.7868 21.6728 5.47529 21.3906 5.36201C21.3623 5.36201 21.3341 5.33369 21.3341 5.33369C19.1611 4.82394 16.9035 4.82394 14.7305 5.33369C14.4483 5.41865 14.279 5.70184 14.3354 5.98503C14.3354 6.01335 14.3354 6.04167 14.3636 6.04167C14.4483 6.29655 14.7305 6.43814 14.9845 6.3815C15.9722 6.15495 16.9881 6.04167 18.0041 6.04167Z" fill="white"/>
<path d="M24.664 7.48595C24.6358 7.71251 24.7204 7.91074 24.918 8.02402C30.929 11.8471 32.7351 19.8615 28.9253 25.9218C25.1155 31.9821 17.1291 33.7945 11.1181 29.9714C5.10707 26.1483 3.27273 18.134 7.08252 12.0737C8.12668 10.4312 9.50949 9.04351 11.1463 7.9957C11.3438 7.88242 11.4285 7.65587 11.4003 7.45763C11.3438 7.17444 11.0898 6.94789 10.7794 7.00452C10.723 7.00452 10.6383 7.03284 10.5819 7.08948C4.03469 11.1958 2.03102 19.8615 6.12302 26.4315C10.215 33.0016 18.8505 35.0123 25.3977 30.906C31.9449 26.7997 33.9768 18.1623 29.8848 11.5639C28.756 9.77981 27.2603 8.25057 25.4542 7.1178C25.2002 6.9762 24.8615 7.06116 24.7204 7.31604C24.6922 7.37267 24.664 7.42931 24.664 7.48595Z" fill="white"/>
<path d="M13.1782 11.7058L12.247 5.6455C11.2592 5.70214 10.4126 4.93752 10.3562 3.91802C10.2997 3.04013 10.8924 2.27551 11.739 2.07727C12.6985 1.85072 13.658 2.44542 13.912 3.37996C14.1095 4.20122 13.7426 5.0508 12.9807 5.44727L15.1819 11.1678C14.5046 11.3094 13.8273 11.4793 13.1782 11.7058Z" fill="white"/>
<path d="M20.9109 11.1676L23.1121 5.41874C22.2373 4.96563 21.8704 3.86118 22.3502 2.98329C22.7453 2.21867 23.6483 1.8222 24.4667 2.07707C25.4262 2.36026 25.9624 3.37975 25.6802 4.34261C25.4544 5.13555 24.6925 5.67362 23.8741 5.61698C23.5919 7.37277 23.2532 9.58167 22.9146 11.7056C22.2373 11.5074 21.5882 11.3091 20.9109 11.1676Z" fill="white"/>
<path fill-rule="evenodd" clip-rule="evenodd" d="M20.9109 11.1676C20.2336 11.026 19.5277 10.9413 18.8504 10.8847C18.7093 10.8847 18.5682 10.8776 18.4271 10.8705C18.286 10.8634 18.1449 10.8563 18.0038 10.8563C17.1571 10.8563 16.3105 10.913 15.4921 11.0829C13.7424 11.3944 12.0774 12.0174 10.5535 12.9236C9.56579 13.5183 8.63451 14.198 7.78789 15.0193C7.56212 15.2175 7.47746 15.5007 7.50568 15.8122L8.86027 26.5452C12.9805 31.6144 20.4307 32.379 25.4822 28.216C26.1031 27.7063 26.6675 27.1399 27.1472 26.5452L27.3448 24.931C28.6147 24.223 29.4049 22.8354 29.3767 21.3628C29.4049 20.2583 28.9534 19.1822 28.1632 18.3893L28.4736 15.8122C28.5018 15.529 28.4172 15.2458 28.2196 15.0476C26.216 13.0652 23.6483 11.7339 20.9109 11.1676ZM27.0059 24.2228C26.5826 24.4494 26.1311 24.5626 25.6514 24.5626C23.9581 24.5626 22.6882 23.2033 22.6882 21.3626C22.6882 19.5218 23.9581 18.1625 25.6514 18.1625C26.3569 18.1625 27.0624 18.4174 27.5704 18.8988C28.2477 19.5218 28.6427 20.428 28.6145 21.3626C28.671 22.5237 28.0219 23.6281 27.0059 24.2228ZM15.3506 24.5626C15.8304 24.5626 16.2819 24.4494 16.7052 24.2228C17.7494 23.6281 18.3703 22.5236 18.3138 21.3626C18.342 20.428 17.9469 19.5218 17.2696 18.8988C16.7617 18.4174 16.0562 18.1625 15.3506 18.1625C13.6574 18.1625 12.3875 19.5218 12.3875 21.3626C12.3875 23.2033 13.6574 24.5626 15.3506 24.5626Z" fill="white"/>
<path fill-rule="evenodd" clip-rule="evenodd" d="M25.0875 19.6919C25.4262 19.6919 25.7084 19.8618 25.8777 20.145C26.1035 20.4849 26.2164 20.8813 26.1599 21.2778C26.1599 21.6743 26.047 22.0424 25.8213 22.3539C25.7366 22.4955 25.6237 22.6088 25.4826 22.6938C25.0593 22.9486 24.5231 22.7787 24.2973 22.3539C24.0716 22.0141 23.9587 21.6176 23.9869 21.2212C23.9869 20.8247 24.0998 20.4282 24.3256 20.1167C24.4949 19.8335 24.7771 19.6919 25.0875 19.6919ZM25.6799 20.7392C25.6799 20.9426 25.5157 21.1074 25.3131 21.1074C25.1104 21.1074 24.9462 20.9426 24.9462 20.7392C24.9462 20.5359 25.1104 20.3711 25.3131 20.3711C25.5157 20.3711 25.6799 20.5359 25.6799 20.7392Z" fill="white"/>
<path fill-rule="evenodd" clip-rule="evenodd" d="M14.8149 19.6919C15.1536 19.6919 15.4358 19.8618 15.6051 20.145C15.8309 20.4849 15.9156 20.8813 15.8873 21.2778C15.8873 21.6743 15.7745 22.0424 15.5487 22.3539C15.464 22.4955 15.3511 22.6088 15.21 22.6938C14.7867 22.9486 14.2505 22.7787 14.0248 22.3539C13.799 22.0141 13.6861 21.6176 13.7143 21.2212C13.7143 20.8247 13.8272 20.4282 14.053 20.1167C14.2223 19.8335 14.5045 19.6919 14.8149 19.6919ZM15.3794 20.7392C15.3794 20.9426 15.2152 21.1074 15.0125 21.1074C14.8099 21.1074 14.6457 20.9426 14.6457 20.7392C14.6457 20.5359 14.8099 20.3711 15.0125 20.3711C15.2152 20.3711 15.3794 20.5359 15.3794 20.7392Z" fill="white"/>
</svg>
