<svg width="36" height="36" viewBox="0 0 36 36" fill="none" xmlns="http://www.w3.org/2000/svg">
<path d="M24.7632 13.5572C24.7632 13.5572 22.4868 20.5295 22.3158 21.1212C22.25 20.5295 20.5921 8 20.5921 8C16.7105 8 14.6447 10.6886 13.5526 13.5572C13.5526 13.5572 10.7895 20.5552 10.5658 21.1469C10.5526 20.5938 10.1447 13.6344 10.1447 13.6344C9.90789 10.1354 6.64474 8.01286 4 8.01286L7.18421 27C11.25 26.9871 13.4342 24.2986 14.5789 21.4428C14.5789 21.4428 17.0132 15.2681 17.1184 14.9851C17.1447 15.2552 18.8684 27 18.8684 27C22.9342 27 25.1316 24.4787 26.3158 21.7258L32 8C27.9737 8 25.8553 10.6886 24.7632 13.5572Z" fill="white"/>
</svg>
