<svg width="36" height="36" viewBox="0 0 36 36" fill="none" xmlns="http://www.w3.org/2000/svg">
<path d="M17.9933 25.119L18 25.1126L20.6374 27.6371C21.1429 28.121 21.9625 28.121 22.468 27.6371L31.6209 18.8761C32.1264 18.3922 32.1264 17.6078 31.6209 17.1239L22.468 8.36289C21.9625 7.87904 21.1429 7.87904 20.6374 8.36289L18 10.8874L17.9917 10.8794L16.1611 12.6316L16.1694 12.6396L11.4845 17.1239C10.979 17.6078 10.979 18.3922 11.4845 18.8761L16.1694 23.3604L16.1627 23.3668L17.9933 25.119Z" fill="white"/>
<path d="M16.1908 23.3383L14.4473 25.0088L7.12499 18L14.4473 10.9912L16.2187 12.646L18.0493 10.8938L15.3626 8.36289C14.8571 7.87904 14.0375 7.87904 13.532 8.36289L4.37913 17.1239C3.87363 17.6078 3.87362 18.3922 4.37913 18.8761L13.532 27.6371C14.0375 28.121 14.8571 28.121 15.3626 27.6371L18.0213 25.0905L16.1908 23.3383Z" fill="white" fill-opacity="0.56"/>
</svg>
