<svg width="36" height="36" viewBox="0 0 36 36" fill="none" xmlns="http://www.w3.org/2000/svg">
<path fill-rule="evenodd" clip-rule="evenodd" d="M20.7092 12.7614C21.2282 13.1609 21.664 13.6749 21.9607 14.2918L23.8592 11.1107C25.0638 9.09231 27.7317 8.40075 29.8181 9.56608C31.9046 10.7314 32.6194 13.3124 31.4148 15.3308L25.8876 24.5922C25.7103 24.9445 25.4816 25.2747 25.2045 25.5713C23.8597 27.0493 21.5818 27.4561 19.7514 26.4338C18.9607 25.9921 18.3669 25.3471 18 24.6065C17.6331 25.3472 17.0394 25.9922 16.2486 26.4339C14.1622 27.5992 11.4942 26.9077 10.2896 24.8893L4.58516 15.3309C3.38056 13.3125 4.09542 10.7316 6.18186 9.56625C8.26829 8.40092 10.9362 9.09248 12.1408 11.1109L13.9563 14.1529C14.3215 13.3958 14.9221 12.7359 15.7268 12.2865C17.2539 11.4335 19.2921 11.6707 20.7092 12.7614ZM20.2609 15.057C20.2884 15.1141 20.3187 15.1694 20.3517 15.2228L21.045 16.5048C21.3781 17.1207 22.2741 17.16 22.6634 16.5758L23.4598 15.3811C23.5047 15.3232 23.5463 15.2623 23.5843 15.1987L25.4828 12.0176C26.1697 10.8666 27.691 10.4723 28.8807 11.1368C30.0705 11.8013 30.4781 13.273 29.7912 14.4239L24.2639 23.6853C24.2419 23.7223 24.2211 23.76 24.2018 23.7984C24.1006 23.9996 23.9705 24.1873 23.8136 24.3552L23.8109 24.358L23.7972 24.3729C23.031 25.2151 21.7307 25.4449 20.6888 24.863C20.179 24.5783 19.8156 24.1495 19.617 23.6586C19.5827 23.5738 19.5419 23.4916 19.4948 23.4128L15.7537 17.1443C15.0668 15.9934 15.4745 14.5217 16.6642 13.8572C17.7839 13.2318 19.6116 13.7073 20.2609 15.057Z" fill="white"/>
</svg>
