<svg width="36" height="36" viewBox="0 0 36 36" fill="none" xmlns="http://www.w3.org/2000/svg">
<path d="M19.9281 24.9722C19.8103 24.5347 19.6988 24.0683 19.5942 23.5777C19.9522 24.0086 20.3062 24.4145 20.6526 24.7909C20.4087 24.8577 20.1671 24.918 19.9281 24.9722Z" fill="white"/>
<path fill-rule="evenodd" clip-rule="evenodd" d="M21.8218 26.9899C21.9954 26.3664 22.1331 25.6929 22.2337 25.1681C22.3084 25.2425 22.3825 25.3152 22.4562 25.3863C23.0743 25.9824 23.6295 26.4391 24.1174 26.7481C24.6003 27.0539 25.0423 27.2313 25.4282 27.2313C25.6537 27.2313 25.8634 27.1704 26.0417 27.0408C26.3088 26.8466 26.4419 26.5462 26.4929 26.218C26.5435 25.8924 26.5175 25.5175 26.4491 25.131C26.3121 24.3568 25.9925 23.4714 25.6694 22.7052L25.6183 22.5846C29.5397 20.1202 31.7454 16.6325 30.7702 13.8498C29.7796 11.0251 25.784 9.82358 21.1289 10.6463L21.1173 10.6052C21.1002 10.5449 21.0809 10.4741 21.0593 10.3948C20.9322 9.92889 20.7246 9.16803 20.419 8.49738C20.24 8.10467 20.0193 7.72367 19.7471 7.4449C19.4721 7.16318 19.127 6.96975 18.7142 7.00391L18.7122 7.00407C18.2066 7.05019 17.8116 7.53263 17.5377 8.15034C17.2964 8.69437 17.1174 9.40965 17.0274 10.2355C16.5088 9.76741 16.0729 9.44004 15.7065 9.21546C15.165 8.88363 14.7612 8.76768 14.4581 8.76768C14.2336 8.76768 14.0246 8.82819 13.8467 8.95728C13.4358 9.25622 13.3205 9.80452 13.3825 10.4611C13.4453 11.127 13.6956 11.9855 14.1176 13.0229C14.7647 14.6128 15.7696 16.495 16.993 18.4224C17.0464 19.083 17.1184 19.7499 17.2037 20.4045C17.1127 20.2724 17.022 20.1392 16.9315 20.0051C15.4578 17.8203 14.2316 15.6354 13.4521 13.8092C11.8094 14.9584 10.5226 16.2885 9.71892 17.6461L5 19.429L7.64745 22.5864L7.57412 26.7714L12.2822 24.9929C12.2822 24.9929 14.7709 25.6788 18.1366 25.2799C18.1771 25.4285 18.2174 25.5694 18.2573 25.702C18.5041 26.5223 18.7766 27.3095 19.1121 27.9033C19.4427 28.4884 19.8743 28.9553 20.4631 28.9984C20.6603 29.0128 20.8304 28.9282 20.9669 28.8074C21.101 28.6886 21.2158 28.5244 21.3153 28.3429C21.5146 27.9794 21.6822 27.491 21.8218 26.9899ZM20.1384 10.8499C19.8767 9.92596 19.5864 9.1611 19.314 8.66228C19.1873 8.4311 19.0691 8.26456 18.9675 8.15929C18.9169 8.10694 18.8752 8.07475 18.8435 8.0566C18.8184 8.0422 18.8043 8.03927 18.7999 8.03868C18.7937 8.04103 18.7596 8.05525 18.7018 8.12581C18.6321 8.21098 18.5481 8.35444 18.46 8.57617C18.2841 9.01852 18.1077 9.73033 17.9804 10.7934C17.9237 11.2667 17.9022 11.7461 17.8657 12.2289L17.8458 12.4908L17.8414 12.4862C17.7592 14.14 17.8002 16.0625 17.9659 18.0697C18.1631 18.3767 18.366 18.685 18.5741 18.9935C18.7016 19.1825 18.8297 19.3696 18.9582 19.5546C18.908 19.1051 18.8633 18.6483 18.8242 18.1862C18.6072 15.6069 18.5941 13.1558 18.7846 11.2196C19.2389 11.0778 19.6909 10.9547 20.1384 10.8499ZM22.6258 24.1149C22.7984 24.2937 22.9685 24.464 23.1356 24.6251C24.6608 26.0969 25.2917 26.1959 25.4199 26.1959C25.4504 26.1959 25.4648 26.1915 25.4693 26.1896C25.4738 26.1842 25.4988 26.1516 25.5149 26.0501C25.5339 25.9305 25.5344 25.7487 25.4972 25.4921C25.4229 24.9803 25.2055 24.2171 24.757 23.1534L24.7365 23.1052C24.072 23.4734 23.3664 23.8123 22.6258 24.1149ZM21.3749 24.4399C21.3749 24.3794 21.3759 24.3228 21.3778 24.2698C20.3445 23.1321 19.2515 21.7446 18.1904 20.2217C18.4391 22.188 18.7908 23.9779 19.2109 25.3952C19.4635 26.2478 19.7368 26.9372 19.9977 27.3948C20.0175 27.4295 20.0366 27.4649 20.0559 27.5007C20.11 27.6011 20.1654 27.7038 20.2392 27.7981C20.3215 27.9032 20.3905 27.9487 20.4517 27.9585C20.4565 27.9533 20.4622 27.9467 20.4688 27.9384C20.5085 27.8888 20.5587 27.8069 20.616 27.6904C20.7297 27.4595 20.8529 27.131 20.967 26.7534C21.1961 25.9953 21.3749 25.085 21.3749 24.4399ZM16.9179 11.9045C16.9235 11.7854 16.9295 11.668 16.9357 11.5524C16.1837 10.8049 15.6298 10.372 15.2336 10.1239C14.774 9.83613 14.5404 9.80532 14.4641 9.80532C14.4409 9.80532 14.4266 9.80779 14.4192 9.80975C14.4128 9.8184 14.3919 9.85052 14.3772 9.93385C14.3578 10.0436 14.3541 10.2113 14.3845 10.4491C14.4451 10.9234 14.6352 11.6313 15.0369 12.6182C15.0591 12.6727 15.0817 12.7276 15.1048 12.7829C15.68 12.4665 16.2856 12.1722 16.9179 11.9045Z" fill="white"/>
</svg>
