<svg width="37" height="36" viewBox="0 0 37 36" fill="none" xmlns="http://www.w3.org/2000/svg">
<path fill-rule="evenodd" clip-rule="evenodd" d="M3.3335 7.5C3.3335 5.01472 5.34821 3 7.8335 3H28.8335C31.3188 3 33.3335 5.01472 33.3335 7.5V23.2726C33.3335 25.3312 31.6647 27 29.6061 27H28.8335V31.3791C28.8335 32.6368 27.3786 33.3361 26.3965 32.5504L19.4585 27H7.8335C5.34821 27 3.3335 24.9853 3.3335 22.5V7.5ZM7.8335 10.5C7.8335 9.67157 8.50507 9 9.3335 9H24.3335C25.1619 9 25.8335 9.67157 25.8335 10.5C25.8335 11.3284 25.1619 12 24.3335 12H9.3335C8.50507 12 7.8335 11.3284 7.8335 10.5ZM7.8335 16.5C7.8335 15.6716 8.50507 15 9.3335 15H18.3335C19.1619 15 19.8335 15.6716 19.8335 16.5C19.8335 17.3284 19.1619 18 18.3335 18H9.3335C8.50507 18 7.8335 17.3284 7.8335 16.5Z" fill="white"/>
</svg>
