<svg width="37" height="36" viewBox="0 0 37 36" fill="none" xmlns="http://www.w3.org/2000/svg">
<path fill-rule="evenodd" clip-rule="evenodd" d="M5.16727 21.3019C3.24372 19.5209 3.24372 16.4792 5.16727 14.6981L11.6473 8.6981C12.4791 7.92789 13.571 7.50002 14.7046 7.50002L28.4224 7.5C30.9077 7.5 32.9224 9.51472 32.9224 12L32.9224 24C32.9224 26.4853 30.9077 28.5 28.4224 28.5L14.7046 28.5C13.571 28.5 12.4791 28.0721 11.6473 27.3019L5.16727 21.3019ZM24.9016 12.6965C25.4151 12.1848 26.2473 12.1844 26.7613 12.6957C27.2761 13.2079 27.2765 14.0394 26.7621 14.5521L23.3412 17.9589L26.8078 21.4475C27.3216 21.9601 27.322 22.7918 26.8076 23.3039C26.2938 23.8154 25.4615 23.8153 24.9478 23.3037L24.9464 23.3023L21.4831 19.817L18.096 23.2751C17.5825 23.7869 16.7502 23.7873 16.2362 23.2759C15.7219 22.7643 15.7209 21.9341 16.2336 21.4213L19.6225 17.9613L16.2046 14.5594C15.6901 14.0469 15.6901 13.2153 16.2048 12.7029C16.7186 12.1914 17.5508 12.1915 18.0645 12.703L21.4807 16.1033L24.9016 12.6965Z" fill="white"/>
</svg>
