<svg width="37" height="36" viewBox="0 0 37 36" fill="none" xmlns="http://www.w3.org/2000/svg">
<path fill-rule="evenodd" clip-rule="evenodd" d="M21.5986 30.9485C21.1902 32.1736 20.0438 32.9998 18.7525 32.9998H16.8337C15.1768 32.9998 13.8337 31.6567 13.8337 29.9998L13.8337 23.9998H5.7607C3.53055 23.9998 2.08008 21.6529 3.07743 19.6582L9.07743 7.6582C9.5856 6.64185 10.6244 5.99984 11.7607 5.99984L21.9066 5.99984C23.0429 5.99984 24.0817 6.64184 24.5899 7.6582L26.8974 12.2733C27.2533 12.9849 27.3118 13.8088 27.0602 14.5636L21.5986 30.9485Z" fill="white"/>
<path fill-rule="evenodd" clip-rule="evenodd" d="M28.3593 23.9229C27.5734 23.6609 27.1487 22.8114 27.4106 22.0255L30.0177 14.2044C30.1435 13.827 30.1142 13.415 29.9363 13.0592L27.492 8.17066C27.1215 7.42969 27.4219 6.52868 28.1628 6.1582C28.9038 5.78772 29.8048 6.08805 30.1753 6.82902L32.6196 11.7176C33.1533 12.785 33.2411 14.0208 32.8637 15.1531L30.2567 22.9742C29.9947 23.7601 29.1452 24.1848 28.3593 23.9229Z" fill="white"/>
</svg>
