<svg width="37" height="36" viewBox="0 0 37 36" fill="none" xmlns="http://www.w3.org/2000/svg">
<path d="M25.2982 4.94069C26.4698 3.76912 28.3693 3.76912 29.5408 4.94069L31.6622 7.06201C32.8337 8.23358 32.8337 10.1331 31.6622 11.3047L29.5403 13.4265L23.1764 7.06253L25.2982 4.94069Z" fill="white"/>
<path d="M13.6309 29.3359C14.1665 29.25 27.4195 15.5473 27.4195 15.5473L21.0555 9.18333C21.0555 9.18333 7.4165 22.5 7.26697 22.9719L13.6309 29.3359Z" fill="white"/>
<path d="M13.6309 29.3359C12.7028 29.975 7.35637 31.4522 6.95489 31.5626C6.93731 31.5675 6.92215 31.5722 6.90475 31.5777C5.74844 31.9413 4.65822 30.8483 5.02717 29.6917C5.03137 29.6786 5.03527 29.6662 5.03911 29.653C5.14229 29.2957 6.68669 23.9654 7.26697 22.9719L13.6309 29.3359Z" fill="white"/>
</svg>
