<svg width="37" height="36" viewBox="0 0 37 36" fill="none" xmlns="http://www.w3.org/2000/svg">
<path d="M20.4063 4.88789L20.4056 17.0549C20.4056 17.5768 20.8283 18 21.3498 18C21.8713 18 22.294 17.5769 22.294 17.0549V9.39125C22.294 8.34674 23.14 7.5 24.1835 7.5C25.2236 7.5 26.0682 8.34143 26.073 9.38251L26.1257 20.8095C26.1293 21.5828 27.3716 21.7798 27.656 21.0608C28.1116 19.9093 28.6285 18.7762 29.1453 18C29.2947 17.7755 29.4338 17.5907 29.5642 17.4403C29.9721 16.8709 30.6389 16.5 31.3922 16.5C32.6336 16.5 33.6399 17.5071 33.6401 18.7496C33.6401 18.7723 33.64 18.7965 33.639 18.8212C33.6367 18.8954 33.6308 18.9688 33.6215 19.041C33.2943 21.8777 28.679 33 16.6345 33C14.7596 33 8.91381 32.25 6.66555 27C5.01367 23.1426 5.06206 16.856 5.20397 13.7922C5.25117 12.7732 6.09819 12 7.11732 12C8.20704 12 9.09037 12.8843 9.09013 13.9751L9.08913 18.5561C9.08902 19.0773 9.51118 19.5 10.032 19.5C10.5527 19.5 10.9748 19.0776 10.9748 18.5564L10.9763 7.88748C10.9764 6.84501 11.8208 6 12.8623 6C13.904 6 14.7484 6.84531 14.7482 7.88797L14.7471 17.0562C14.747 17.5774 15.1691 18 15.6899 18C16.2105 18 16.6326 17.5776 16.6327 17.0564L16.6342 4.88755C16.6343 3.84504 17.4787 3 18.5202 3C19.5619 3 20.4063 3.84525 20.4063 4.88789Z" fill="white"/>
</svg>
