<svg width="36" height="36" viewBox="0 0 36 36" fill="none" xmlns="http://www.w3.org/2000/svg">
<path d="M10.3191 5.99209C13.5828 5.17597 15.7257 6.19709 17.0304 7.50186C17.1726 7.64398 17.304 7.78861 17.4253 7.93345C17.5678 8.10358 17.7783 8.20185 18.0003 8.20185C18.2222 8.20185 18.4327 8.10357 18.5752 7.93345C18.6965 7.78859 18.8279 7.64396 18.97 7.50186C20.2749 6.19705 22.4179 5.176 25.6822 5.99208C28.9428 6.80723 31.4035 9.25885 32.2248 12.339C33.0515 15.4397 32.1967 19.0836 29.0302 22.25C25.5267 25.7535 22.5361 28.7456 20.654 30.6289C19.1897 32.0942 16.8186 32.0949 15.3536 30.6301L6.97225 22.2501C3.80448 19.0828 2.94965 15.4389 3.77671 12.3383C4.59825 9.25834 7.05941 6.80722 10.3191 5.99209Z" fill="white"/>
</svg>
