<svg width="37" height="36" viewBox="0 0 37 36" fill="none" xmlns="http://www.w3.org/2000/svg">
<path fill-rule="evenodd" clip-rule="evenodd" d="M15.0684 5.05132C15.4767 3.82629 16.6231 3 17.9144 3H19.8333C21.4901 3 22.8333 4.34315 22.8333 6V12H30.9062C33.1364 12 34.5868 14.3469 33.5895 16.3416L27.5895 28.3416C27.0813 29.358 26.0425 30 24.9062 30H14.7603C13.624 30 12.5852 29.358 12.077 28.3416L9.76948 23.7265C9.41366 23.0149 9.35511 22.191 9.60672 21.4362L15.0684 5.05132Z" fill="white"/>
<path fill-rule="evenodd" clip-rule="evenodd" d="M8.3076 12.077C9.09352 12.3389 9.51826 13.1884 9.25629 13.9743L6.64924 21.7955C6.52344 22.1729 6.55272 22.5848 6.73063 22.9406L9.1749 27.8292C9.54539 28.5701 9.24505 29.4712 8.50408 29.8416C7.76311 30.2121 6.86211 29.9118 6.49162 29.1708L4.04735 24.2823C3.51361 23.2148 3.42579 21.979 3.80319 20.8468L6.41024 13.0257C6.67221 12.2397 7.52169 11.815 8.3076 12.077Z" fill="white"/>
</svg>
