<svg width="37" height="36" viewBox="0 0 37 36" fill="none" xmlns="http://www.w3.org/2000/svg">
<path fill-rule="evenodd" clip-rule="evenodd" d="M16.1695 13.0708L12.9875 9.88885L18.1344 4.74194C21.942 0.934327 28.1154 0.934328 31.923 4.74194C35.7306 8.54955 35.7306 14.7229 31.923 18.5305L26.7761 23.6774L23.5941 20.4954L28.741 15.3485C30.7913 13.2983 30.7913 9.97417 28.741 7.92392C26.6908 5.87367 23.3666 5.87367 21.3164 7.92392L16.1695 13.0708ZM12.9875 16.2528L8.58847 20.6518C6.53822 22.7021 6.53822 26.0262 8.58847 28.0765C10.6387 30.1267 13.9628 30.1267 16.0131 28.0765L20.4121 23.6774L23.5941 26.8594L19.1951 31.2584C15.3875 35.0661 9.2141 35.0661 5.40649 31.2584C1.59888 27.4508 1.59888 21.2775 5.40649 17.4699L9.80552 13.0708L12.9875 16.2528ZM11.7735 24.8947C10.8948 24.016 10.8948 22.5914 11.7735 21.7127L22.3801 11.1061C23.2588 10.2274 24.6834 10.2274 25.5621 11.1061C26.4408 11.9848 26.4408 13.4094 25.5621 14.2881L14.9555 24.8947C14.0768 25.7734 12.6522 25.7734 11.7735 24.8947Z" fill="white"/>
</svg>
