<svg width="36" height="36" viewBox="0 0 36 36" fill="none" xmlns="http://www.w3.org/2000/svg">
<path fill-rule="evenodd" clip-rule="evenodd" d="M25.5 13.5V19.95C27.15 20.85 30 22.95 30 27C30 27.75 29.25 28.5 28.5 28.5H22.5C22.5 30.9853 20.4853 33 18 33C15.5147 33 13.5 30.9853 13.5 28.5H7.5C6.75 28.5 6 27.75 6 27C6 22.95 8.85 20.85 10.5 20.1V13.5C10.5 9.9 13.05 6.9 16.5 6.15V4.5C16.5 3.75 17.25 3 18 3C18.75 3 19.5 3.75 19.5 4.5V6.15C22.95 6.9 25.5 9.9 25.5 13.5ZM16.5 28.5C16.5 29.3284 17.1716 30 18 30C18.8284 30 19.5 29.3284 19.5 28.5H16.5Z" fill="white"/>
</svg>
