<svg width="37" height="36" viewBox="0 0 37 36" fill="none" xmlns="http://www.w3.org/2000/svg">
<path d="M19.9837 3.86209C18.8343 5.01155 18.8343 6.87519 19.9837 8.02465L20.6081 8.64904L11.8667 14.4766L9.57733 12.1872C8.42787 11.0378 6.56423 11.0378 5.41478 12.1872C4.26532 13.3367 4.26532 15.2003 5.41478 16.3498L11.6586 22.5936L3.3335 30.9187V33H5.41478L13.7399 24.6749L19.9837 30.9187C21.1332 32.0682 22.9968 32.0682 24.1463 30.9187C25.2957 29.7693 25.2957 27.9056 24.1463 26.7562L21.8569 24.4668L27.6845 15.7254L28.3088 16.3498C29.4583 17.4992 31.3219 17.4992 32.4714 16.3498C33.6209 15.2003 33.6209 13.3367 32.4714 12.1872L24.1463 3.86209C22.9968 2.71264 21.1332 2.71264 19.9837 3.86209Z" fill="white"/>
</svg>
