<svg width="36" height="36" viewBox="0 0 36 36" fill="none" xmlns="http://www.w3.org/2000/svg">
<path d="M10.7044 32.6095V26.6244C10.7044 25.949 11.3615 25.4687 12.005 25.6738L18.8903 27.8676C19.7252 28.1336 19.8362 29.2696 19.0687 29.6922L12.1834 33.4834C11.5184 33.8496 10.7044 33.3685 10.7044 32.6095Z" fill="white"/>
<path d="M12.5659 22.7103C12.2088 23.079 11.6714 23.2093 11.185 23.0452L3.84496 20.5682C1.76931 19.8357 1.59087 16.9696 3.55963 15.9852L30.2086 2.66072C32.0771 1.72646 34.1975 3.36565 33.764 5.40925L29.3286 26.3191C29.0197 27.7754 27.5122 28.6386 26.0999 28.1678L15.8982 24.7596C15.212 24.5304 14.9903 23.6699 15.4802 23.1376L23.7195 14.1864C24.2639 13.5645 24.6657 12.9108 24.0438 12.3664C23.4219 11.8219 22.6081 12.2823 22.0637 12.9042L12.5659 22.7103Z" fill="white"/>
</svg>
