<svg width="37" height="36" viewBox="0 0 37 36" fill="none" xmlns="http://www.w3.org/2000/svg">
<path d="M34.1604 18.5645C34.3164 18.4279 34.409 18.2329 34.4161 18.0257C34.4232 17.8185 34.3442 17.6177 34.1979 17.4708L22.2463 5.47076C22.032 5.25564 21.7092 5.19092 21.4286 5.30682C21.1479 5.42273 20.9649 5.6964 20.9649 6.00002L20.9649 12.0112C15.8478 12.1642 11.4198 13.8865 8.22154 16.8909C4.86312 20.0458 2.9165 24.563 2.9165 30C2.9165 30.3185 3.11769 30.6023 3.41825 30.7077C3.71881 30.8132 4.05318 30.7173 4.25215 30.4685C5.72559 28.6268 7.55401 26.6483 10.2643 25.1223C12.8347 23.6751 16.2418 22.6109 20.9594 22.5082L20.9165 28.4946C20.9144 28.7899 21.0857 29.0589 21.3541 29.1819C21.6226 29.3049 21.9382 29.2589 22.1604 29.0645L34.1604 18.5645Z" fill="white"/>
</svg>
