<svg width="36" height="36" viewBox="0 0 36 36" fill="none" xmlns="http://www.w3.org/2000/svg">
<path d="M6.0515 7.5C3.53778 7.5 1.5 9.46225 1.5 11.8828V24.1172C1.5 26.5378 3.53778 28.5 6.0515 28.5H19.706C22.2197 28.5 24.2575 26.5378 24.2575 24.1172V11.8828C24.2575 9.46225 22.2197 7.5 19.706 7.5H6.0515Z" fill="white"/>
<path d="M26.5107 15.6612V20.6494C26.5107 21.1615 26.772 21.6382 27.2036 21.9137L32.1941 25.0995C33.1926 25.737 34.5012 25.0198 34.5012 23.8352V12.1177C34.5012 10.8996 33.126 10.1894 32.1328 10.8947L27.1423 14.4382C26.7461 14.7195 26.5107 15.1753 26.5107 15.6612Z" fill="white"/>
</svg>
