<svg width="36" height="36" viewBox="0 0 36 36" fill="none" xmlns="http://www.w3.org/2000/svg">
<path d="M17.1503 1.79971C17.6189 1.33108 18.3787 1.33108 18.8474 1.79971L21.1706 4.12296C21.6392 4.59159 21.6392 5.35138 21.1706 5.82001C20.702 6.28864 19.9422 6.28864 19.4735 5.82001L19.1988 5.5453V10.9341C19.1988 11.5969 18.6616 12.1341 17.9988 12.1341C17.3361 12.1341 16.7988 11.5969 16.7988 10.9341V5.5453L16.5241 5.82001C16.0555 6.28864 15.2957 6.28864 14.8271 5.82001C14.3584 5.35138 14.3584 4.59159 14.8271 4.12296L17.1503 1.79971Z" fill="white"/>
<path d="M35.6368 22.2065L33.3136 24.5297C32.8449 24.9984 32.0851 24.9984 31.6165 24.5297C31.1479 24.0611 31.1479 23.3013 31.6165 22.8327L31.8912 22.558H26.4797C25.8169 22.558 25.2797 22.0207 25.2797 21.358C25.2797 20.6952 25.8169 20.158 26.4797 20.158H31.8912L31.6165 19.8832C31.1479 19.4146 31.1479 18.6548 31.6165 18.1862C32.0851 17.7176 32.8449 17.7176 33.3136 18.1862L35.6368 20.5094C36.1054 20.9781 36.1054 21.7379 35.6368 22.2065Z" fill="white"/>
<path d="M0.351472 22.2066C-0.117157 21.738 -0.117157 20.9782 0.351472 20.5096L2.67471 18.1863C3.14334 17.7177 3.90314 17.7177 4.37177 18.1863C4.8404 18.655 4.8404 19.4148 4.37177 19.8834L4.09706 20.1581L9.57305 20.1581C10.2358 20.1581 10.773 20.6954 10.773 21.3581C10.773 22.0208 10.2358 22.5581 9.57305 22.5581H4.09706L4.37177 22.8328C4.8404 23.3014 4.8404 24.0612 4.37177 24.5299C3.90314 24.9985 3.14334 24.9985 2.67471 24.5299L0.351472 22.2066Z" fill="white"/>
<path d="M15.5295 8.86694V11.0014C15.5295 12.3656 16.6354 13.4715 17.9996 13.4715C19.3638 13.4715 20.4697 12.3656 20.4697 11.0014V8.89395L27.7244 12.1392C27.9117 12.223 27.9149 12.3857 27.7309 12.4719L18.4626 16.8129C18.1928 16.9393 17.8068 16.9392 17.5371 16.8129L8.27013 12.4712C8.08668 12.3853 8.08927 12.2231 8.27544 12.1391L15.5295 8.86694Z" fill="white"/>
<path d="M23.8418 21.3581C23.8418 19.9939 24.9477 18.888 26.3119 18.888H29.2151V14.2395C29.2151 14.0159 28.9792 13.8709 28.7797 13.9718L19.2725 18.7806C19.0706 18.8827 18.9434 19.0898 18.9434 19.316V31.0086C18.9434 31.344 19.2971 31.5615 19.5965 31.4101L28.3921 26.9612C28.8969 26.7059 29.2151 26.1883 29.2151 25.6227V23.8282H26.3119C24.9477 23.8282 23.8418 22.7223 23.8418 21.3581Z" fill="white"/>
<path d="M9.87534 23.8282H6.78516V25.8057C6.78516 26.3772 7.10981 26.8989 7.62243 27.1514L16.3001 31.4251C16.5991 31.5724 16.9489 31.3547 16.9489 31.0214V19.3421C16.9489 19.1135 16.8191 18.9048 16.614 18.8038L7.2177 14.1762C7.01834 14.078 6.78516 14.2231 6.78516 14.4453V18.888H9.87534C11.2395 18.888 12.3454 19.9939 12.3454 21.3581C12.3454 22.7223 11.2395 23.8282 9.87534 23.8282Z" fill="white"/>
</svg>
