<svg width="36" height="36" viewBox="0 0 36 36" fill="none" xmlns="http://www.w3.org/2000/svg">
<path d="M17.9979 9.10798C20.2288 9.10798 22.0372 7.29951 22.0372 5.06864C22.0372 2.83777 20.2288 1.0293 17.9979 1.0293C15.767 1.0293 13.9586 2.83777 13.9586 5.06864C13.9586 7.29951 15.767 9.10798 17.9979 9.10798Z" fill="white"/>
<path d="M31.887 9.99708L17.9709 10.9704L4.10884 9.99708C3.66609 9.99708 3.24148 10.173 2.9284 10.486C2.61533 10.7991 2.43945 11.2237 2.43945 11.6665C2.43945 12.403 2.59486 13.3953 4.10884 13.6906L12.6561 15.2991V32.9512C12.6561 33.4825 12.8672 33.9921 13.2428 34.3678C13.6185 34.7434 14.1281 34.9545 14.6594 34.9545C15.1907 34.9545 15.7002 34.7434 16.0759 34.3678C16.4516 33.9921 16.6626 33.4825 16.6626 32.9512L17.5094 23.2162H18.5081L19.1997 32.9512C19.1997 33.4825 19.4107 33.9921 19.7864 34.3678C20.1621 34.7434 20.6716 34.9545 21.2029 34.9545C21.7342 34.9545 22.2438 34.7434 22.6194 34.3678C22.9951 33.9921 23.2062 33.4825 23.2062 32.9512V15.2991L31.887 13.6906C33.2464 13.3363 33.5564 12.403 33.5564 11.6665C33.5564 11.2237 33.3805 10.7991 33.0674 10.486C32.7543 10.173 32.3297 9.99708 31.887 9.99708Z" fill="white"/>
</svg>
