<svg width="36" height="37" viewBox="0 0 36 37" fill="none" xmlns="http://www.w3.org/2000/svg">
<path fill-rule="evenodd" clip-rule="evenodd" d="M12.4543 16.6371C12.4543 13.9188 14.657 11.7152 17.3742 11.7152C20.0914 11.7152 22.2941 13.9188 22.2941 16.6371C22.2941 19.3553 20.0914 21.5589 17.3742 21.5589C14.657 21.5589 12.4543 19.3553 12.4543 16.6371ZM17.3742 14.1977C16.0275 14.1977 14.9358 15.2898 14.9358 16.6371C14.9358 17.9843 16.0275 19.0764 17.3742 19.0764C18.7209 19.0764 19.8126 17.9843 19.8126 16.6371C19.8126 15.2898 18.7209 14.1977 17.3742 14.1977Z" fill="white"/>
<path fill-rule="evenodd" clip-rule="evenodd" d="M3 16.701C3 8.58187 9.46503 2 17.44 2C25.4151 2 31.8801 8.58187 31.8801 16.701C31.8801 19.6205 30.8597 22.4727 29.4183 24.7601L34.9962 29.8536C36.2046 31.0838 36.3891 32.9468 35.1807 34.177C33.9723 35.4073 32.1894 35.1941 30.981 33.9638L25.4032 28.8704C23.1564 30.3379 20.3077 31.4021 17.44 31.4021C9.46503 31.4021 3 24.8202 3 16.701ZM17.3738 8.7997C14.7849 8.7997 12.4906 10.1572 10.7653 11.6041C9.02336 13.0651 7.73446 14.7239 7.13892 15.5526C6.67046 16.2044 6.67046 17.0697 7.13892 17.7215C7.73446 18.5502 9.02336 20.209 10.7653 21.67C12.4906 23.1169 14.7849 24.4744 17.3738 24.4744C19.9628 24.4744 22.2571 23.1169 23.9823 21.67C25.7243 20.209 27.0132 18.5502 27.6087 17.7215C28.0772 17.0697 28.0772 16.2044 27.6087 15.5526C27.0132 14.7239 25.7243 13.0651 23.9823 11.6041C22.2571 10.1572 19.9628 8.7997 17.3738 8.7997Z" fill="white"/>
</svg>
