<svg width="36" height="37" viewBox="0 0 36 37" fill="none" xmlns="http://www.w3.org/2000/svg">
<path d="M7.17718 24.5591C6.90232 24.1824 6.24559 24.1824 5.97073 24.5591C5.45913 25.2617 2.90918 28.8546 2.90918 30.525C2.90918 32.4448 4.5532 34.0066 6.57395 34.0066C8.59471 34.0066 10.2387 32.4448 10.2387 30.525C10.2387 28.8546 7.68878 25.2617 7.17718 24.5591Z" fill="white"/>
<path fill-rule="evenodd" clip-rule="evenodd" d="M32.9193 18.6145C33.0361 18.7451 33.2211 18.9581 33.2211 18.9581C34.8394 20.5979 32.6127 24.3746 29.5482 27.2859C27.1932 29.5224 24.3003 31.2897 22.303 31.2897C21.7019 31.2897 21.1823 31.1295 20.7828 30.7737C20.7828 30.7737 5.21045 19.9197 5.18993 19.9002C4.133 18.8961 4.10589 17.1136 5.11297 14.8812C6.02916 12.8487 7.71349 10.6093 9.85445 8.57543C13.1835 5.4128 16.9898 3.36914 19.5493 3.36914C20.4852 3.36914 21.2336 3.63095 21.7752 4.14413C21.8068 4.17338 22.1938 4.66845 22.8072 5.45806H27.0965C30.7341 5.45806 33.6931 8.26975 33.6931 11.7248C33.6931 15.1799 30.7341 17.1916 27.0965 17.1916H23.3765C22.4496 17.1916 21.9607 18.0287 21.9607 18.7366C21.9607 19.3501 22.4133 20.2271 23.3765 20.2271H27.0965C29.0366 20.2271 31.5296 19.7043 32.9193 18.6145ZM30.8189 10.9665C30.5742 9.25323 28.7393 8.39586 26.8226 8.39586H24.9452C25.8422 9.55517 26.4584 10.2696 27.0844 10.9956C27.7527 11.7705 28.4322 12.5585 29.4767 13.9145C30.5497 13.0204 30.9716 12.0352 30.8189 10.9665ZM19.2749 10.1186C18.6412 11.5237 17.4605 13.0871 15.9517 14.5205C13.6865 16.673 11.0773 18.1189 9.45907 18.1189C9.05892 18.1189 8.75935 18.0259 8.56697 17.8437C8.12669 17.4254 8.1921 16.4484 8.74176 15.2297C9.37552 13.825 10.5556 12.2616 12.0645 10.8282C14.3307 8.67578 16.94 7.22935 18.5576 7.22935C18.9578 7.22935 19.2573 7.32229 19.4497 7.50453C19.89 7.9228 19.8246 8.8998 19.2749 10.1186Z" fill="white"/>
</svg>
