<svg width="36" height="36" viewBox="0 0 36 36" fill="none" xmlns="http://www.w3.org/2000/svg">
<path fill-rule="evenodd" clip-rule="evenodd" d="M15.3405 4.58032C13.4726 4.58032 11.9583 6.09456 11.9583 7.96246V19.2363C11.9583 21.1042 13.4726 22.6184 15.3405 22.6184H24.0777L29.2921 26.79C30.0303 27.3805 31.1238 26.8549 31.1238 25.9096V22.6184H31.7044C33.2516 22.6184 34.5059 21.3641 34.5059 19.8169V7.96246C34.5059 6.09456 32.9917 4.58032 31.1238 4.58032H15.3405ZM15.8212 10.9971C15.8212 10.3095 16.3786 9.7522 17.0661 9.7522H29.2325C29.92 9.7522 30.4774 10.3095 30.4774 10.9971C30.4774 11.6846 29.92 12.242 29.2325 12.242H17.0661C16.3786 12.242 15.8212 11.6846 15.8212 10.9971ZM15.8212 16.2085C15.8212 15.5209 16.3786 14.9636 17.0661 14.9636H25.2084C25.896 14.9636 26.4533 15.5209 26.4533 16.2085C26.4533 16.896 25.896 17.4533 25.2084 17.4533H17.0661C16.3786 17.4533 15.8212 16.896 15.8212 16.2085Z" fill="white"/>
<path d="M9.40534 21.1199V11.6453H4.8791C3.00963 11.6453 1.49414 13.1595 1.49414 15.0274V26.8819C1.49414 28.4291 2.74944 29.6833 4.29795 29.6833H4.8791V32.9746C4.8791 33.9199 5.97351 34.4454 6.71229 33.8549L11.9311 29.6833H20.6757C22.5452 29.6833 24.0607 28.1691 24.0607 26.3012V25.2157H13.5011C11.2391 25.2157 9.40534 23.3819 9.40534 21.1199Z" fill="white"/>
</svg>
