<svg width="36" height="36" viewBox="0 0 36 36" fill="none" xmlns="http://www.w3.org/2000/svg">
<path fill-rule="evenodd" clip-rule="evenodd" d="M1.42383 7.5C1.42383 5.01472 3.43855 3 5.92383 3H29.9238C32.4091 3 34.4238 5.01472 34.4238 7.5V13.9843C34.4238 14.2477 34.1981 14.4528 33.9347 14.459C33.3387 14.473 32.9126 14.4225 32.1834 14.4225C31.8022 14.459 31.4238 14.3514 31.4238 13.9843V13.506H4.42383V28.5C4.42383 29.3284 5.0954 30 5.92383 30H14.7395C15.0399 30 15.256 30.2887 15.1712 30.5769L14.5537 32.6769C14.4974 32.8685 14.3216 33 14.122 33H5.92383C3.43855 33 1.42383 30.9853 1.42383 28.5V7.5ZM7.43262 9.84902C8.26104 9.84902 8.93262 9.17745 8.93262 8.34902C8.93262 7.52059 8.26104 6.84902 7.43262 6.84902C6.60419 6.84902 5.93262 7.52059 5.93262 8.34902C5.93262 9.17745 6.60419 9.84902 7.43262 9.84902ZM11.9326 9.84902C12.761 9.84902 13.4326 9.17745 13.4326 8.34902C13.4326 7.52059 12.761 6.84902 11.9326 6.84902C11.1042 6.84902 10.4326 7.52059 10.4326 8.34902C10.4326 9.17745 11.1042 9.84902 11.9326 9.84902ZM17.9326 8.34902C17.9326 9.17745 17.261 9.84902 16.4326 9.84902C15.6042 9.84902 14.9326 9.17745 14.9326 8.34902C14.9326 7.52059 15.6042 6.84902 16.4326 6.84902C17.261 6.84902 17.9326 7.52059 17.9326 8.34902Z" fill="white"/>
<path d="M30.8699 16.9995C31.6997 16.1697 33.0452 16.1697 33.8751 16.9995L35.3777 18.5021C36.2075 19.332 36.2075 20.6775 35.3777 21.5073L33.8747 23.0103L29.3669 18.5025L30.8699 16.9995Z" fill="white"/>
<path d="M22.6055 34.2795C22.9849 34.2186 32.3725 24.5125 32.3725 24.5125L27.8646 20.0047C27.8646 20.0047 18.2037 29.4374 18.0977 29.7716C17.6929 30.4648 16.6256 34.1377 16.5237 34.4902C16.52 34.503 16.5164 34.5147 16.5127 34.5266L16.5063 34.5473C16.2619 35.3537 17.0144 36.1103 17.8204 35.8737L17.8476 35.8656C17.8642 35.8606 17.8806 35.8557 17.8977 35.8509C18.3103 35.7372 21.9612 34.7232 22.6055 34.2795Z" fill="white"/>
</svg>
