<svg width="36" height="36" viewBox="0 0 36 36" fill="none" xmlns="http://www.w3.org/2000/svg">
<path d="M12.6264 18.5C13.4203 18.5 14.0639 17.8564 14.0639 17.0625C14.0639 16.2686 13.4203 15.625 12.6264 15.625C11.8325 15.625 11.1889 16.2686 11.1889 17.0625C11.1889 17.8564 11.8325 18.5 12.6264 18.5Z" fill="white"/>
<path d="M19.2912 18.4834C19.8459 17.5325 21.2198 17.5325 21.7745 18.4834L25.5544 24.9632C26.1134 25.9215 25.4222 27.125 24.3127 27.125L12.47 27.125C11.3474 27.125 10.6581 25.8958 11.2434 24.9379L13.915 20.5663C14.4755 19.6491 15.8077 19.6491 16.3682 20.5663L17.242 21.9962L19.2912 18.4834Z" fill="white"/>
<path fill-rule="evenodd" clip-rule="evenodd" d="M6 3C3.51472 3 1.5 5.01472 1.5 7.5V28.5C1.5 30.9853 3.51472 33 6 33H30C32.4853 33 34.5 30.9853 34.5 28.5V7.5C34.5 5.01472 32.4853 3 30 3H6ZM4.5 28.5V13.506H31.5V28.5C31.5 29.3284 30.8284 30 30 30H6C5.17157 30 4.5 29.3284 4.5 28.5ZM9.00879 8.34902C9.00879 9.17745 8.33722 9.84902 7.50879 9.84902C6.68036 9.84902 6.00879 9.17745 6.00879 8.34902C6.00879 7.52059 6.68036 6.84902 7.50879 6.84902C8.33722 6.84902 9.00879 7.52059 9.00879 8.34902ZM13.5088 8.34902C13.5088 9.17745 12.8372 9.84902 12.0088 9.84902C11.1804 9.84902 10.5088 9.17745 10.5088 8.34902C10.5088 7.52059 11.1804 6.84902 12.0088 6.84902C12.8372 6.84902 13.5088 7.52059 13.5088 8.34902ZM16.5088 9.84902C17.3372 9.84902 18.0088 9.17745 18.0088 8.34902C18.0088 7.52059 17.3372 6.84902 16.5088 6.84902C15.6804 6.84902 15.0088 7.52059 15.0088 8.34902C15.0088 9.17745 15.6804 9.84902 16.5088 9.84902Z" fill="white"/>
</svg>
