<svg width="36" height="36" viewBox="0 0 36 36" fill="none" xmlns="http://www.w3.org/2000/svg">
<path d="M16.8233 10.5277C17.5081 10.1933 18.3918 10.1661 19.1732 10.5266C19.9244 10.8731 26.3971 13.7831 26.7313 13.9196C27.1159 14.0767 27.3511 14.468 27.3511 14.8783C27.3511 15.2917 27.1104 15.6671 26.7349 15.8356L25.2849 16.4865L25.284 16.4845L19.0426 19.2712C18.3723 19.5705 17.6063 19.5703 16.9361 19.2707L11.4151 16.8023L9.26395 15.8356C8.88846 15.6671 8.64772 15.2917 8.64772 14.8783C8.64772 14.467 8.87834 14.0863 9.26573 13.9203C9.60767 13.7738 16.1726 10.8455 16.8233 10.5277Z" fill="white"/>
<path d="M11.4143 18.6875C11.4142 18.8774 11.4142 19.0732 11.4142 19.2711C11.4142 20.5875 11.4151 21.9949 11.4188 22.3545C11.4229 22.7472 11.5842 23.0563 11.7952 23.3085C11.9793 23.5283 12.2063 23.7104 12.4026 23.8678L12.479 23.9292C14.0039 25.16 16.0784 25.7334 17.9994 25.7334C19.5535 25.7334 20.9738 25.3424 22.079 24.8172C22.6326 24.5542 23.1223 24.2501 23.5199 23.9291C23.737 23.7535 23.9996 23.5278 24.2082 23.2657C24.4162 23.0044 24.58 22.695 24.58 22.3532L24.5782 19.3893L24.5794 18.6843L19.7444 20.843C18.6272 21.3418 17.3505 21.3415 16.2336 20.8421L11.4143 18.6875Z" fill="white"/>
<path d="M4.18522 28.0896C4.21858 28.1354 4.25234 28.179 4.28644 28.2205H2.69529C1.86687 28.2205 1.19529 28.892 1.19529 29.7205C1.19529 30.5489 1.86687 31.2205 2.69529 31.2205H8.00682C8.83524 31.2205 9.50682 30.5489 9.50682 29.7205V24.5285C9.50682 23.7001 8.83524 23.0285 8.00682 23.0285C7.17839 23.0285 6.50682 23.7001 6.50682 24.5285V26.2307L6.48968 26.2063C5.96724 25.4719 5.50779 24.6765 5.12238 23.8243C1.90574 16.7121 5.06368 8.33901 12.1758 5.12238C14.1475 4.23064 16.2161 3.82881 18.2449 3.86534C18.9345 3.87776 19.5816 3.48544 19.8246 2.83997C20.166 1.93299 19.5814 0.939198 18.6129 0.903738C16.0568 0.810146 13.4406 1.29072 10.9519 2.41628C2.34524 6.30885 -1.4763 16.4415 2.41628 25.0482C2.9106 26.1411 3.50554 27.1569 4.18522 28.0896Z" fill="white"/>
<path d="M23.8243 30.8777C30.9364 27.6611 34.0944 19.288 30.8777 12.1758C30.0706 10.3912 28.9388 8.85562 27.5838 7.6072C27.5617 7.58688 27.5403 7.56629 27.5196 7.54545L27.4946 9.03978C27.4807 9.8681 26.798 10.5283 25.9697 10.5145C25.1414 10.5006 24.4811 9.81792 24.495 8.98961L24.5818 3.79836C24.5957 2.97005 25.2784 2.30981 26.1067 2.32366L31.4175 2.4125C32.2458 2.42636 32.906 3.10907 32.8922 3.93738C32.8783 4.76569 32.1956 5.42594 31.3673 5.41208L29.5525 5.38172C31.2123 6.89991 32.5981 8.7725 33.5838 10.9519C37.4764 19.5586 33.6549 29.6913 25.0482 33.5838C21.4751 35.1998 17.6391 35.4863 14.0957 34.6528C13.2542 34.4549 12.8386 33.5379 13.167 32.7382C13.4632 32.017 14.2627 31.6531 15.0248 31.8178C17.8824 32.4354 20.9559 32.175 23.8243 30.8777Z" fill="white"/>
</svg>
