<svg width="36" height="37" viewBox="0 0 36 37" fill="none" xmlns="http://www.w3.org/2000/svg">
<path d="M18.7788 1.55947C18.7788 0.698197 18.0808 0 17.2199 0C16.3589 0 15.661 0.698197 15.661 1.55947V3.49315C15.661 4.35442 16.3589 5.05262 17.2199 5.05262C18.0808 5.05262 18.7788 4.35442 18.7788 3.49315V1.55947Z" fill="white"/>
<path d="M7.31056 4.51588C6.66847 3.94211 5.683 3.99768 5.10944 4.64C4.53588 5.28232 4.59142 6.26815 5.23351 6.84192L6.73335 8.18219C7.37543 8.75596 8.36091 8.70039 8.93447 8.05807C9.50803 7.41576 9.45248 6.42992 8.8104 5.85615L7.31056 4.51588Z" fill="white"/>
<path d="M0 16.729C0 15.8677 0.697942 15.1695 1.5589 15.1695H3.36393C4.22488 15.1695 4.92283 15.8677 4.92283 16.729C4.92283 17.5902 4.22488 18.2884 3.36393 18.2884H1.5589C0.697942 18.2884 0 17.5902 0 16.729Z" fill="white"/>
<path d="M17.1611 6.68737C11.8955 6.68957 6.52484 10.9218 6.52484 17.1774C6.52484 21.0101 8.89331 23.7725 10.688 25.3275C11.794 26.2858 12.4565 27.4726 12.4565 28.6115V29.6601C12.4565 29.9185 12.6659 30.128 12.9242 30.128H17.1611V6.68737Z" fill="white"/>
<path d="M12.9242 32.2834C12.6659 32.2834 12.454 32.4938 12.4778 32.751C12.6589 34.7152 13.9762 36.0397 15.5743 36.0397H18.9493C20.5455 36.0397 21.8615 34.6856 22.0451 32.751C22.0696 32.4938 21.8577 32.2834 21.5994 32.2834H12.9242Z" fill="white"/>
<path d="M19.5176 29.9531V6.72517C20.6493 6.10544 22.7494 5.58533 23.7176 7.32741C23.1836 7.59197 22.713 7.95102 22.3288 8.38381C21.1026 9.76479 20.8262 11.8365 22.11 13.6466C22.3988 14.0537 22.963 14.1497 23.3701 13.8609C23.7773 13.5721 23.8732 13.0079 23.5844 12.6008C22.8089 11.5074 22.9875 10.3646 23.6805 9.58399C23.8977 9.33934 24.1722 9.12469 24.4944 8.96089C26.9414 8.43789 28.4432 10.6717 28.0147 12.507C30.5286 12.9595 32.0369 14.7695 31.6849 17.1325C31.5208 18.2349 30.8927 19.1628 30.2414 19.8347C29.9888 19.5203 29.7002 19.2435 29.3858 19.0094C27.9804 17.9628 25.8959 17.7089 24.4922 19.097C24.1372 19.4479 24.134 20.0202 24.485 20.3752C24.836 20.7301 25.4083 20.7333 25.7632 20.3823C26.3413 19.8106 27.3792 19.7689 28.3062 20.4593C28.7376 20.7806 29.1117 21.2497 29.3194 21.8496C29.4769 22.7668 29.2928 23.9979 28.0147 25.026C28.8108 26.9534 27.4771 29.7189 24.8859 29.5392C25.0439 29.1122 25.1273 28.6689 25.1388 28.2301C25.1788 26.716 24.3186 25.0843 22.5997 24.7764C22.1083 24.6884 21.6386 25.0153 21.5506 25.5067C21.4626 25.998 21.7896 26.4677 22.2809 26.5557C22.857 26.6589 23.356 27.2647 23.3318 28.1825C23.3218 28.5607 23.2148 28.9661 22.9792 29.3407C21.9193 30.7219 20.6959 30.8017 19.5176 29.9531Z" fill="white"/>
</svg>
