<svg width="36" height="37" viewBox="0 0 36 37" fill="none" xmlns="http://www.w3.org/2000/svg">
<path fill-rule="evenodd" clip-rule="evenodd" d="M0.970459 15.2629C0.970459 7.4736 7.42014 1.16455 15.3695 1.16455C23.2725 1.16455 29.6933 7.40035 29.7678 15.1271L29.7701 15.3613L25.7051 13.5365C24.6559 13.0653 23.4788 12.9946 22.3912 13.3244L22.3533 13.3359L22.3146 13.3272C21.9455 13.2437 21.5595 13.1663 21.1581 13.0959C21.17 13.3046 21.1802 13.5148 21.1886 13.7262L21.1926 13.8266L18.07 15.2596L18.0685 15.0274C18.0633 14.2316 18.0318 13.458 17.9772 12.7136C17.1409 12.6546 16.2685 12.6232 15.3695 12.6232C14.4704 12.6232 13.598 12.6546 12.7617 12.7136C12.7017 13.5312 12.6697 14.384 12.6697 15.2629C12.6697 16.0647 12.6963 16.8448 12.7466 17.5963L12.7535 17.6995L10.3803 18.7886C9.6428 19.0661 9.08564 19.6223 8.7573 20.3094L8.70742 20.4138L8.59379 20.392C7.583 20.1988 6.64592 19.9623 5.80432 19.6876C5.50535 19.5901 5.21376 19.4862 4.93159 19.3758C6.09371 22.1975 8.41657 24.4409 11.3225 25.5377L11.3331 25.5417L12.7153 26.3173V29.1234L12.5366 29.0884C5.94303 27.8003 0.970459 22.1021 0.970459 15.2629ZM15.3695 4.25422C15.3589 4.25428 15.3373 4.25873 15.3021 4.27919C15.2677 4.29916 15.2293 4.32938 15.1885 4.3679C15.1065 4.44535 15.0306 4.54097 14.9721 4.61484L14.9421 4.65264C14.5864 5.09439 14.1966 5.82993 13.8406 6.87566C13.5728 7.66212 13.3395 8.57715 13.1532 9.59334C13.8766 9.55391 14.617 9.53356 15.3695 9.53356C16.1219 9.53356 16.8623 9.55391 17.5857 9.59334C17.3994 8.57715 17.1662 7.66212 16.8983 6.87566C16.5423 5.82993 16.153 5.09508 15.7974 4.65333L15.7672 4.61543C15.7089 4.54173 15.6323 4.44533 15.55 4.36755C15.509 4.32885 15.4705 4.29857 15.4362 4.27866C15.4009 4.25824 15.3794 4.25419 15.3695 4.25422ZM19.5692 5.04701C19.6813 5.32182 19.7868 5.60574 19.8859 5.89679C20.2844 7.06705 20.6045 8.42608 20.831 9.91301C22.3504 10.1347 23.739 10.448 24.9346 10.8382C25.2336 10.9357 25.5252 11.0396 25.8073 11.15C24.6656 8.37787 22.4037 6.16403 19.5692 5.04701ZM4.93159 11.15C5.21375 11.0396 5.50535 10.9357 5.80432 10.8381C6.99989 10.448 8.3885 10.1347 9.90792 9.91301C10.1345 8.42608 10.4545 7.06705 10.853 5.89679C10.9521 5.60574 11.0576 5.32182 11.1697 5.04701C8.33524 6.16403 6.07327 8.37786 4.93159 11.15ZM9.58077 13.0959C8.54042 13.2785 7.60363 13.5072 6.79857 13.7699C5.72972 14.1186 4.97842 14.4999 4.52674 14.8484C4.39023 14.9537 4.28325 15.0395 4.21006 15.1166C4.13391 15.1968 4.12022 15.2415 4.12026 15.2626C4.12029 15.2835 4.13398 15.3281 4.20994 15.4084C4.28289 15.4856 4.3898 15.5718 4.52674 15.6774C4.97842 16.0259 5.72972 16.4072 6.79857 16.7559C7.60363 17.0186 8.54042 17.2473 9.58077 17.4299C9.54059 16.7226 9.51986 15.9986 9.51986 15.2629C9.51986 14.5272 9.54059 13.8032 9.58077 13.0959Z" fill="white"/>
<path d="M22.2389 16.2534C23.134 15.8163 24.2891 15.7808 25.3106 16.252C26.2924 16.7049 34.753 20.5086 35.1898 20.687C35.6925 20.8923 36 21.4039 36 21.9402C36 22.4805 35.6853 22.9712 35.1945 23.1914L33.2992 24.0423L33.298 24.0397L25.1398 27.6822C24.2637 28.0734 23.2624 28.0731 22.3864 27.6815L15.1698 24.4551L12.358 23.1914C11.8672 22.9712 11.5525 22.4805 11.5525 21.9402C11.5525 21.4026 11.8539 20.9049 12.3603 20.688C12.8072 20.4965 21.3883 16.6688 22.2389 16.2534Z" fill="white"/>
<path d="M15.1687 26.9192C15.1686 27.1675 15.1686 27.4234 15.1686 27.682C15.1685 29.4027 15.1697 31.2424 15.1746 31.7124C15.18 32.2258 15.3907 32.6298 15.6667 32.9594C15.9072 33.2468 16.204 33.4847 16.4606 33.6904L16.5604 33.7707C18.5537 35.3796 21.2652 36.129 23.7762 36.129C25.8076 36.129 27.6641 35.618 29.1087 34.9314C29.8324 34.5877 30.4724 34.1901 30.9922 33.7706C31.276 33.5411 31.6192 33.2461 31.8918 32.9035C32.1636 32.5619 32.3779 32.1575 32.3779 31.7108L32.3755 27.8365L32.377 26.915L26.0571 29.7367C24.5968 30.3887 22.928 30.3883 21.468 29.7356L15.1687 26.9192Z" fill="white"/>
</svg>
