<svg width="36" height="36" viewBox="0 0 36 36" fill="none" xmlns="http://www.w3.org/2000/svg">
<path fill-rule="evenodd" clip-rule="evenodd" d="M34.5032 14.7935V26.8594C34.5032 29.4668 32.3904 31.5 29.8827 31.5H6.12045C3.61278 31.5 1.5 29.4668 1.5 26.8594V9.14063C1.5 6.53318 3.61278 4.5 6.12045 4.5H24.197C25.4076 4.5 26.5777 4.97771 27.4476 5.84252L33.1334 11.4954C34.0048 12.3618 34.5032 13.5472 34.5032 14.7935ZM17.6171 18.2413C17.6171 17.7656 18.0628 17.38 18.6127 17.38H20.6038C21.1537 17.38 21.5994 17.7656 21.5994 18.2413V27.1417C21.5994 27.6174 21.1537 28.003 20.6038 28.003H18.6127C18.0628 28.003 17.6171 27.6174 17.6171 27.1417V18.2413ZM12.3417 20.2622C11.7919 20.2622 11.3462 20.6479 11.3462 21.1236V27.2964C11.3462 27.7721 11.7919 28.1577 12.3417 28.1577H14.3329C14.8827 28.1577 15.3284 27.7721 15.3284 27.2964V21.1236C15.3284 20.6479 14.8827 20.2622 14.3329 20.2622H12.3417ZM5.21804 23.6964C5.21804 23.2207 5.66377 22.8351 6.21361 22.8351H8.20475C8.75459 22.8351 9.20032 23.2207 9.20032 23.6964V27.1417C9.20032 27.6174 8.75459 28.003 8.20475 28.003H6.21361C5.66377 28.003 5.21804 27.6174 5.21804 27.1417V23.6964ZM16.2349 7.64319C15.6003 7.64319 15.0859 8.15763 15.0859 8.79222C15.0859 9.42681 15.6003 9.94125 16.2349 9.94125H17.7267L12.8388 14.428L11.2698 12.699C11.0565 12.4638 10.7553 12.3275 10.4378 12.3222C10.1203 12.317 9.81486 12.4434 9.59386 12.6714L5.54175 16.8518C5.10008 17.3075 5.11141 18.0349 5.56708 18.4766C6.02274 18.9183 6.75018 18.9069 7.19186 18.4513L10.3913 15.1505L11.9135 16.8281C12.119 17.0546 12.4064 17.1898 12.712 17.2038C13.0176 17.2178 13.3161 17.1093 13.5414 16.9024L19.5287 11.4067V12.7072C19.5287 13.3418 20.0431 13.8562 20.6777 13.8562C21.3123 13.8562 21.8267 13.3418 21.8267 12.7072V8.79222C21.8267 8.15763 21.3123 7.64319 20.6777 7.64319H16.2349ZM31.0008 15.9008C31.1665 15.9008 31.3023 16.0354 31.2858 16.2003C31.2467 16.5895 31.1318 16.9683 30.9465 17.315C30.714 17.7501 30.3777 18.1211 29.9675 18.3952C29.5573 18.6693 29.0858 18.838 28.5948 18.8863C28.1039 18.9347 27.6085 18.8612 27.1527 18.6724C26.6969 18.4836 26.2947 18.1853 25.9817 17.804C25.6688 17.4226 25.4547 16.9699 25.3584 16.4861C25.2622 16.0022 25.2867 15.5021 25.43 15.0299C25.5441 14.6538 25.7307 14.3047 25.9783 14.0019C26.0831 13.8736 26.2744 13.8744 26.3916 13.9916L28.2129 15.8129C28.2692 15.8692 28.3455 15.9008 28.425 15.9008H31.0008ZM31.0008 24.9887C31.1665 24.9887 31.3023 25.1233 31.2858 25.2882C31.2467 25.6774 31.1318 26.0562 30.9465 26.4029C30.714 26.838 30.3777 27.209 29.9675 27.4831C29.5573 27.7572 29.0858 27.9259 28.5948 27.9742C28.1039 28.0226 27.6085 27.9491 27.1527 27.7603C26.6969 27.5715 26.2947 27.2732 25.9817 26.8919C25.6688 26.5105 25.4547 26.0578 25.3584 25.574C25.2622 25.0901 25.2867 24.5899 25.43 24.1178C25.5441 23.7417 25.7307 23.3926 25.9783 23.0897C26.0831 22.9615 26.2744 22.9623 26.3916 23.0795L28.2129 24.9008C28.2692 24.9571 28.3455 24.9887 28.425 24.9887H31.0008Z" fill="white"/>
</svg>
