<svg width="36" height="36" viewBox="0 0 36 36" fill="none" xmlns="http://www.w3.org/2000/svg">
<path d="M14.8444 31.1823C14.8436 31.0092 14.984 30.8684 15.1574 30.8684H20.7909C20.9631 30.8684 21.103 31.0074 21.1038 31.1794L21.1223 35.0583C21.1248 35.5777 20.7037 36 20.1834 36H15.8018C15.285 36 14.8654 35.5831 14.8629 35.0672L14.8444 31.1823Z" fill="white"/>
<path d="M18.7707 8.18967L18.0187 5.79879C18.0139 5.78368 17.9999 5.7734 17.984 5.7734C17.9682 5.7734 17.9541 5.78369 17.9494 5.79881L17.1989 8.18967H18.7707Z" fill="white"/>
<path fill-rule="evenodd" clip-rule="evenodd" d="M10.1178 1.5C8.82144 1.5 7.77053 2.54902 7.77053 3.84306V11.6532C7.77053 12.9473 8.82144 13.9963 10.1178 13.9963H27.5634C27.9886 13.9963 28.3955 13.8236 28.6904 13.5179L33.2137 8.8301C33.7976 8.22503 33.7974 7.26738 33.2134 6.6625L28.6904 1.97805C28.3954 1.67258 27.9887 1.5 27.5637 1.5H10.1178ZM16.0121 10.8722C16.2173 10.8722 16.3987 10.7392 16.46 10.5437L16.8061 9.44108H19.1643L19.5112 10.544C19.5726 10.7393 19.754 10.8722 19.9591 10.8722H20.7344C21.0555 10.8722 21.2819 10.5575 21.1792 10.2538L19.1921 4.37484C19.1277 4.18432 18.9487 4.05604 18.7472 4.05604H17.2241C17.0227 4.05604 16.8437 4.18432 16.7793 4.37484L14.7922 10.2538C14.6895 10.5575 14.9158 10.8722 15.237 10.8722H16.0121Z" fill="white"/>
<path d="M18.0546 24.5537H17.0343V22.9295H18.0846C18.2958 22.9295 18.4769 22.965 18.6281 23.036C18.7792 23.1048 18.8959 23.2035 18.9782 23.3322C19.0604 23.4587 19.1015 23.6096 19.1015 23.7849C19.1015 24.0267 19.016 24.2153 18.8448 24.3507C18.6759 24.486 18.4125 24.5537 18.0546 24.5537Z" fill="white"/>
<path d="M17.9479 21.8678H17.0343V20.3735H17.9746C18.2502 20.3735 18.4692 20.4389 18.6314 20.5698C18.7937 20.7007 18.8748 20.8805 18.8748 21.109C18.8748 21.2687 18.8348 21.4052 18.7548 21.5184C18.677 21.6315 18.5681 21.7181 18.428 21.778C18.288 21.8379 18.1279 21.8678 17.9479 21.8678Z" fill="white"/>
<path fill-rule="evenodd" clip-rule="evenodd" d="M26.5335 28.6869C27.8298 28.6869 28.8808 27.6379 28.8808 26.3439V18.5337C28.8808 17.2396 27.8298 16.1906 26.5335 16.1906H9.0845C8.659 16.1906 8.25184 16.3636 7.95683 16.6697L3.44011 21.3558C2.8572 21.9605 2.8572 22.917 3.44011 23.5218L7.95683 28.2079C8.25184 28.514 8.659 28.6869 9.0845 28.6869H26.5335ZM15.3839 25.413C15.3839 25.6718 15.5941 25.8816 15.8534 25.8816H18.448C18.9526 25.8816 19.3816 25.7995 19.735 25.6354C20.0885 25.4689 20.3585 25.2426 20.5452 24.9564C20.732 24.668 20.8253 24.3407 20.8253 23.9746C20.8253 23.6462 20.7542 23.3622 20.6119 23.1226C20.4697 22.8807 20.2807 22.6921 20.0451 22.5568C19.8117 22.4214 19.5572 22.3471 19.2816 22.3338V22.2672C19.5328 22.214 19.7539 22.1208 19.9451 21.9876C20.1363 21.8545 20.2863 21.687 20.3952 21.4851C20.5041 21.281 20.5586 21.0491 20.5586 20.7895C20.5586 20.4478 20.4708 20.1471 20.2952 19.8875C20.1218 19.6279 19.8617 19.426 19.515 19.2818C19.1704 19.1376 18.7426 19.0655 18.2313 19.0655H15.8534C15.5941 19.0655 15.3839 19.2753 15.3839 19.5341V25.413Z" fill="white"/>
</svg>
