<svg width="36" height="37" viewBox="0 0 36 37" fill="none" xmlns="http://www.w3.org/2000/svg">
<path fill-rule="evenodd" clip-rule="evenodd" d="M4.5 2C2.84315 2 1.5 3.34314 1.5 5V14.4512C1.5 16.108 2.84314 17.4512 4.5 17.4512H13.9512C15.608 17.4512 16.9512 16.108 16.9512 14.4512V5C16.9512 3.34315 15.608 2 13.9512 2H4.5ZM8.6221 4.91778C8.89696 4.54108 9.55369 4.54108 9.82854 4.91778C10.3401 5.62035 12.8901 9.2133 12.8901 10.8837C12.8901 12.8035 11.2461 14.3653 9.22532 14.3653C7.20457 14.3653 5.56055 12.8035 5.56055 10.8837C5.56055 9.2133 8.1105 5.62035 8.6221 4.91778Z" fill="white"/>
<path d="M27.8126 10.3976L26.8181 7.24079C26.8118 7.22077 26.7932 7.20715 26.7722 7.20715C26.7512 7.20715 26.7326 7.22078 26.7263 7.24082L25.7339 10.3976H27.8126Z" fill="white"/>
<path fill-rule="evenodd" clip-rule="evenodd" d="M22.0488 2C20.392 2 19.0488 3.34315 19.0488 5V14.4512C19.0488 16.108 20.392 17.4512 22.0488 17.4512H31.5C33.1569 17.4512 34.5 16.108 34.5 14.4512V5C34.5 3.34315 33.1569 2 31.5 2H22.0488ZM23.8114 13.9396C24.2928 13.9396 24.7185 13.6271 24.8629 13.1679L25.2144 12.0499H28.3332L28.6855 13.1683C28.8302 13.6274 29.2558 13.9396 29.7371 13.9396C30.4918 13.9396 31.0235 13.1983 30.7814 12.4835L28.5724 5.95856C28.3661 5.34946 27.7946 4.93958 27.1516 4.93958H26.3972C25.7542 4.93958 25.1827 5.34946 24.9765 5.95855L22.7673 12.4838C22.5253 13.1985 23.0568 13.9396 23.8114 13.9396Z" fill="white"/>
<path fill-rule="evenodd" clip-rule="evenodd" d="M22.0488 19.5488C20.392 19.5488 19.0488 20.892 19.0488 22.5488V32C19.0488 33.6569 20.392 35 22.0488 35H31.5C33.1569 35 34.5 33.6569 34.5 32V22.5488C34.5 20.892 33.1569 19.5488 31.5 19.5488H22.0488ZM24.8537 22.6543L31.2355 27.2071C31.5563 27.436 31.4488 27.9374 31.0624 28.0147L28.6731 28.4925L30.1313 30.8621C30.255 31.0632 30.2024 31.3256 30.0107 31.4634L29.0597 32.1469C28.8498 32.2978 28.5562 32.2412 28.4174 32.0231L26.838 29.5411L25.0595 31.5789C24.7926 31.8847 24.2892 31.7087 24.2709 31.3032L23.9058 23.1697C23.8834 22.6699 24.4464 22.3638 24.8537 22.6543Z" fill="white"/>
<path fill-rule="evenodd" clip-rule="evenodd" d="M4.5 19.5488C2.84315 19.5488 1.5 20.892 1.5 22.5488V32C1.5 33.6569 2.84315 35 4.5 35H13.9512C15.608 35 16.9512 33.6569 16.9512 32V22.5488C16.9512 20.892 15.608 19.5488 13.9512 19.5488H4.5ZM8.90935 23.9858C8.48476 23.5612 7.78743 23.2289 6.72539 23.4945C5.66464 23.7598 4.86374 24.5574 4.5964 25.5597C4.32726 26.5687 4.60544 27.7544 5.63627 28.7851L8.36368 31.5121C8.84041 31.9887 9.61199 31.9885 10.0885 31.5117C10.701 30.8988 11.6741 29.9252 12.8142 28.7851C13.8447 27.7547 14.1228 26.5689 13.8538 25.5599C13.5865 24.5576 12.7858 23.7598 11.7248 23.4945C10.6625 23.229 9.96513 23.5612 9.54053 23.9858C9.49428 24.0321 9.45152 24.0791 9.41204 24.1263C9.36567 24.1816 9.29716 24.2136 9.22494 24.2136C9.15273 24.2136 9.08422 24.1816 9.03785 24.1263C8.99837 24.0791 8.9556 24.0321 8.90935 23.9858Z" fill="white"/>
</svg>
