<svg width="36" height="36" viewBox="0 0 36 36" fill="none" xmlns="http://www.w3.org/2000/svg">
<path d="M19.4044 0.376319C18.5354 -0.12544 17.4646 -0.12544 16.5956 0.376319L11.933 3.06825C11.0639 3.57001 10.5286 4.4973 10.5286 5.50082V10.8847C10.5286 11.8882 11.0639 12.8155 11.933 13.3172L16.5956 16.0092C17.4646 16.5109 18.5354 16.5109 19.4044 16.0092L24.067 13.3172C24.9361 12.8155 25.4714 11.8882 25.4714 10.8847V5.50082C25.4714 4.4973 24.9361 3.57001 24.067 3.06825L19.4044 0.376319Z" fill="white"/>
<path d="M7.56701 16.3268C8.43608 15.825 9.50682 15.825 10.3759 16.3268L15.0385 19.0187C15.9075 19.5205 16.4429 20.4477 16.4429 21.4513V26.8351C16.4429 27.8386 15.9075 28.7659 15.0385 29.2677L10.3759 31.9596C9.50682 32.4614 8.43608 32.4614 7.56701 31.9596L2.90444 29.2677C2.03537 28.7659 1.5 27.8386 1.5 26.8351V21.4513C1.5 20.4477 2.03537 19.5205 2.90444 19.0187L7.56701 16.3268Z" fill="white"/>
<path d="M25.6241 16.3268C26.4932 15.825 27.5639 15.825 28.433 16.3268L33.0956 19.0187C33.9646 19.5205 34.5 20.4477 34.5 21.4513V26.8351C34.5 27.8386 33.9646 28.7659 33.0956 29.2677L28.433 31.9596C27.5639 32.4614 26.4932 32.4614 25.6241 31.9596L20.9615 29.2677C20.0925 28.7659 19.5571 27.8386 19.5571 26.8351V21.4513C19.5571 20.4477 20.0925 19.5205 20.9615 19.0187L25.6241 16.3268Z" fill="white"/>
</svg>
