<svg width="36" height="36" viewBox="0 0 36 36" fill="none" xmlns="http://www.w3.org/2000/svg">
<path d="M5.61159 4.31836C5.33746 4.31836 5.11523 4.53644 5.11523 4.80545L5.11406 8.29746C5.11406 8.58131 5.34034 8.76945 5.58315 8.78454C5.72543 8.79372 5.8735 8.74349 5.98514 8.61828L7.10012 7.36782L8.21503 8.61821C8.31068 8.72548 8.43307 8.77772 8.55565 8.78471C8.82025 8.80044 9.08611 8.60521 9.08611 8.29753V4.80545C9.08611 4.53644 8.86388 4.31836 8.58975 4.31836H5.61159Z" fill="white"/>
<path fill-rule="evenodd" clip-rule="evenodd" d="M10.2849 8.29746V5.16138H16.0829C16.4484 5.16138 16.7983 5.31006 17.0519 5.57326L17.052 30.5157C16.7983 30.7791 16.4483 30.9279 16.0826 30.9279H3.77067C2.65576 30.9279 1.75195 30.0241 1.75195 28.9092V7.18009C1.75195 6.06519 2.65576 5.16138 3.77067 5.16138H3.91406V8.29746C3.91406 9.89832 5.87656 10.5418 6.87963 9.41683L7.0995 9.17024L7.31937 9.41683C8.32243 10.5418 10.2849 9.89834 10.2849 8.29746ZM11.8669 12.7222C12.2206 12.4003 12.7747 12.4117 13.1137 12.7505C13.4633 13.0996 13.4488 13.6597 13.0848 13.9918L9.40257 17.366C9.22775 17.5251 8.99596 17.6082 8.76205 17.6003C8.52881 17.5924 8.30456 17.4954 8.14126 17.3249L6.34058 15.4711C5.99903 15.1129 6.02905 14.5529 6.40117 14.2303C6.76152 13.918 7.31383 13.9408 7.64512 14.2862L8.83333 15.5042L11.8669 12.7222ZM5.95898 21.2606C5.95898 20.7635 6.36193 20.3606 6.85898 20.3606H12.4994C12.9964 20.3606 13.3994 20.7635 13.3994 21.2606C13.3994 21.7577 12.9964 22.1606 12.4994 22.1606H6.85899C6.36193 22.1606 5.95898 21.7577 5.95898 21.2606ZM7.86973 23.6155C7.37267 23.6155 6.96973 24.0184 6.96973 24.5155C6.96973 25.0125 7.37267 25.4155 7.86973 25.4155H11.4858C11.9829 25.4155 12.3858 25.0125 12.3858 24.5155C12.3858 24.0184 11.9829 23.6155 11.4858 23.6155H7.86973Z" fill="white"/>
<path fill-rule="evenodd" clip-rule="evenodd" d="M32.2282 30.928C33.3432 30.928 34.247 30.0242 34.247 28.9092V7.18012C34.247 6.0652 33.3432 5.16138 32.2282 5.16138H19.9132C19.5472 5.16138 19.1971 5.3104 18.9434 5.57411L18.9434 30.5153C19.1971 30.779 19.5473 30.928 19.9132 30.928H32.2282ZM28.2694 12.3519C28.6023 12.0202 29.1415 12.02 29.4747 12.3515C29.8088 12.6839 29.8091 13.2239 29.4752 13.5566L27.9999 15.0259L29.4979 16.5334C29.831 16.8661 29.8306 17.4054 29.4968 17.7377C29.1637 18.0693 28.6244 18.0692 28.2914 17.7375L28.2899 17.736L26.7959 16.2325L25.3352 17.7238C25.0023 18.0556 24.463 18.0558 24.1297 17.7243C23.7962 17.3926 23.7953 16.8541 24.1272 16.5212L25.5895 15.0282L24.1146 13.5602C23.7807 13.2275 23.7806 12.6875 24.1147 12.3549C24.4478 12.0234 24.987 12.0234 25.32 12.355L26.7935 13.8216L28.2694 12.3519ZM23.775 20.3606C23.2779 20.3606 22.875 20.7635 22.875 21.2606C22.875 21.7577 23.2779 22.1606 23.775 22.1606H29.4154C29.9125 22.1606 30.3154 21.7577 30.3154 21.2606C30.3154 20.7635 29.9125 20.3606 29.4154 20.3606H23.775ZM24.7857 23.6155C24.2887 23.6155 23.8857 24.0184 23.8857 24.5155C23.8857 25.0125 24.2887 25.4155 24.7857 25.4155H28.4018C28.8989 25.4155 29.3018 25.0125 29.3018 24.5155C29.3018 24.0184 28.8989 23.6155 28.4018 23.6155H24.7857Z" fill="white"/>
</svg>
