<svg width="36" height="36" viewBox="0 0 36 36" fill="none" xmlns="http://www.w3.org/2000/svg">
<path d="M8.26335 12.2769C8.26488 12.703 7.92065 13.0498 7.49446 13.0514C7.06828 13.053 6.72147 12.7086 6.71981 12.2824C6.71472 10.8634 6.344 9.97018 5.77345 9.41908C5.19655 8.86185 4.28609 8.52886 2.93904 8.50974C2.51498 8.50372 2.17523 8.15665 2.17824 7.73256C2.18125 7.30847 2.52589 6.96627 2.95 6.96627C4.44631 6.96627 5.33512 6.57101 5.86599 5.99692C6.40869 5.41004 6.7081 4.49655 6.71984 3.18953C6.72359 2.77219 7.05843 2.43344 7.4757 2.42485C7.89297 2.41626 8.24147 2.74095 8.26238 3.15779C8.33168 4.53903 8.69888 5.46605 9.26916 6.04746C9.82998 6.61922 10.7003 6.97131 12.0302 6.96627C12.4538 6.96467 12.7995 7.30477 12.8049 7.72833C12.8102 8.15188 12.4732 8.50058 12.0497 8.50964C10.5905 8.54085 9.68039 8.92669 9.12882 9.49956C8.57556 10.0742 8.25825 10.9666 8.26335 12.2769Z" fill="white"/>
<path d="M2.23918 16.6258C1.88418 14.2209 3.10304 12.2881 5.28922 11.4033L5.71773 13.0645C6.20746 14.9629 8.9035 14.9629 9.39323 13.0645L9.83966 11.3339C10.0122 10.665 10.5345 10.1427 11.2033 9.97017L12.7565 9.56952C12.7874 9.56436 12.8183 9.5576 12.8492 9.5492C12.8718 9.54304 12.894 9.5361 12.9158 9.52843L12.934 9.52374C14.8324 9.03401 14.8324 6.33796 12.934 5.84824L11.8963 5.58058C11.7533 5.21584 11.7379 4.83269 11.9611 4.49649C13.1778 2.66339 15.5631 3.27468 16.8718 3.99772V32.1821C15.7545 32.994 14.6034 33.1056 13.5417 32.2949C12.9765 31.8634 13.1894 31.0029 13.0716 30.3016C12.9244 29.4248 11.7727 28.8749 11.1952 29.5508C11.0828 29.6824 10.974 29.8247 10.8653 29.9668C10.4154 30.5555 9.96823 31.1405 9.27997 30.9405C7.10887 30.3099 5.87266 28.1098 6.65301 26.2036C5.10997 24.9514 4.89289 23.4507 5.08627 22.3364C5.33687 21.6146 5.78452 21.0497 6.30039 20.6621C7.41523 19.8245 8.66333 19.8751 9.3586 20.5688C9.78545 20.9947 10.4737 20.9908 10.8958 20.5601C11.3179 20.1294 11.314 19.435 10.8872 19.0091C9.19902 17.3249 6.69215 17.633 5.00196 18.903C4.39318 19.3604 3.49231 19.4196 3.07996 18.7794C2.67555 18.1516 2.35739 17.4266 2.23918 16.6258Z" fill="white"/>
<path d="M19.0907 3.99772V32.1821C20.2104 32.9937 21.3638 33.1055 22.4279 32.2958C22.9948 31.8644 22.7809 31.0014 22.9007 30.2991C23.0501 29.4239 24.2027 28.8756 24.7812 29.5506C24.8945 29.6828 25.0041 29.8259 25.1135 29.9688C25.5635 30.5565 26.0104 31.1402 26.6982 30.9415C28.8766 30.312 30.1175 28.1107 29.3348 26.2036C30.8817 24.9514 31.0993 23.4507 30.9054 22.3364C30.6542 21.6146 30.2055 21.0497 29.6883 20.6621C28.5707 19.8245 27.3195 19.8751 26.6225 20.5688C26.1946 20.9947 25.5047 20.9908 25.0815 20.5601C24.6584 20.1294 24.6623 19.435 25.0902 19.0091C26.7825 17.3249 29.2956 17.633 30.9899 18.903C31.6006 19.3606 32.5031 19.4201 32.917 18.779C33.3222 18.1513 33.6411 17.4265 33.7596 16.6258C34.1839 13.7586 32.3655 11.5624 29.3348 11.0133C29.661 9.60711 29.0592 8.0081 27.8287 7.18026C27.4838 7.03026 27.1296 6.95209 26.7892 6.93973C25.6971 6.90007 24.654 7.51988 24.2851 8.87997C24.1477 9.38645 23.6275 9.68608 23.1233 9.5492C22.6191 9.41232 22.3217 8.89078 22.4591 8.38429C22.6793 7.57248 23.0619 6.90233 23.5517 6.38052C24.0473 5.85246 24.4142 5.09782 24.0126 4.4951C22.7926 2.6637 20.4023 3.27486 19.0907 3.99772Z" fill="white"/>
<path d="M30.2661 7.11715C30.5515 7.11608 30.7821 6.88385 30.781 6.59841C30.7776 5.72085 30.9901 5.12319 31.3607 4.73834C31.7301 4.35466 32.3396 4.09625 33.3169 4.07535C33.6005 4.06928 33.8263 3.83574 33.8227 3.55207C33.8191 3.2684 33.5876 3.04062 33.3039 3.04169C32.4132 3.04506 31.8303 2.80926 31.4547 2.42632C31.0727 2.03693 30.8268 1.41607 30.7804 0.490991C30.7664 0.21182 30.533 -0.00563829 30.2535 0.00011143C29.974 0.00586266 29.7498 0.232738 29.7473 0.512248C29.7394 1.38762 29.5389 1.99942 29.1754 2.39248C28.8199 2.77697 28.2246 3.04169 27.2225 3.04169C26.9384 3.04169 26.7076 3.27088 26.7056 3.55491C26.7036 3.83894 26.9311 4.07138 27.2151 4.07541C28.1173 4.08822 28.7271 4.31124 29.1134 4.68444C29.4956 5.05353 29.7439 5.65175 29.7473 6.60212C29.7484 6.88756 29.9806 7.11822 30.2661 7.11715Z" fill="white"/>
</svg>
