<svg width="36" height="36" viewBox="0 0 36 36" fill="none" xmlns="http://www.w3.org/2000/svg">
<path fill-rule="evenodd" clip-rule="evenodd" d="M17.7287 5.52324C18.4178 5.52324 19.0248 5.65569 19.546 5.92472L19.5477 5.92562L19.5507 5.92714L19.5524 5.92793C19.9322 6.11251 20.2448 6.37286 20.4907 6.70628L20.634 6.90055L20.7358 6.68171C20.8349 6.46899 20.9785 6.28927 21.1694 6.14584C21.473 5.91773 21.873 5.80983 22.3576 5.80983C22.8471 5.80983 23.243 5.95535 23.5296 6.25825L23.5352 6.26355C23.8367 6.54972 23.9827 6.9373 23.9827 7.41209C23.9827 7.50973 23.9638 7.66603 23.9291 7.8743L23.9286 7.87754L23.2533 11.6499L23.2527 11.6537C23.1668 12.2227 23.1245 12.6753 23.1245 13.0135C23.1245 13.4851 23.2082 13.8193 23.3583 14.0337L23.3642 14.041C23.5253 14.242 23.7948 14.3552 24.204 14.3552C24.4341 14.3552 24.6823 14.2261 24.9489 13.9255L24.9528 13.9212C25.2276 13.6288 25.4634 13.1472 25.6517 12.4613L25.6524 12.4587L25.6529 12.457C25.8561 11.7774 25.9596 10.9046 25.9596 9.83502C25.9596 7.60227 25.2828 5.90022 23.944 4.71168C22.6207 3.52197 20.6852 2.91794 18.1188 2.91794C16.5066 2.91794 15.0695 3.2704 13.8057 3.97188C12.562 4.65469 11.5894 5.67119 10.8885 7.02407C10.1886 8.35827 9.83592 9.97113 9.83592 11.8672C9.83592 12.293 9.8576 12.7048 9.90091 13.1026C9.94464 13.5041 9.49163 13.8114 9.15292 13.5913L6.9065 12.1316C6.8033 12.0645 6.69437 11.9963 6.58018 11.9279C6.44028 11.8441 6.35176 11.694 6.35477 11.5309C6.39793 9.19222 6.89441 7.17347 7.84896 5.47883C8.86524 3.68835 10.2605 2.3252 12.0318 1.39397C13.8189 0.463706 15.8488 0 18.1188 0C20.4207 0 22.408 0.419762 24.0746 1.26313C25.7395 2.08854 27.0138 3.24092 27.893 4.72068C28.7719 6.19999 29.2097 7.90602 29.2097 9.83502C29.2097 10.6074 29.1456 11.3318 29.0168 12.0078C28.9944 12.1253 28.9237 12.2276 28.8234 12.2927L21.8452 16.8272C21.6556 16.7499 21.4763 16.6582 21.3074 16.5518L21.302 16.5485C20.8199 16.2213 20.4707 15.8135 20.2561 15.3276L20.1602 15.1106L20.0128 15.2965C19.5944 15.8239 19.149 16.2515 18.6779 16.5759C18.1153 16.9576 17.3795 17.1429 16.4805 17.1429C15.1011 17.1429 14.0252 16.6986 13.2705 15.7985L13.2679 15.7954C12.5371 14.8841 12.1768 13.7014 12.1768 12.258C12.1768 10.9924 12.4138 9.84624 12.8899 8.8215C13.3657 7.79764 14.0197 6.99048 14.8531 6.40422L14.8547 6.40315C15.7067 5.81642 16.6659 5.52324 17.7287 5.52324ZM18.3528 8.31092C17.9481 8.31092 17.5819 8.40597 17.2568 8.60618C16.9325 8.80592 16.6569 9.10554 16.4253 9.50338C15.9513 10.3174 15.7131 11.2432 15.7131 12.284C15.7131 12.9087 15.8475 13.4134 16.1079 13.8058L16.1098 13.8085C16.3635 14.1724 16.7245 14.3552 17.2086 14.3552C17.9042 14.3552 18.4726 14.1121 18.9188 13.62C19.0348 13.4921 19.1425 13.3474 19.242 13.1857C19.7492 12.3727 20.0044 11.4309 20.0044 10.3561C20.0044 9.65883 19.8513 9.15245 19.5645 8.81718C19.4929 8.73346 19.4142 8.65994 19.3282 8.59676C19.0707 8.40746 18.7478 8.31092 18.3528 8.31092Z" fill="white"/>
<path d="M1.50003 29.3632L1.5 16.8823C1.50032 15.483 1.85606 14.6606 2.4327 14.3466C3.00918 14.0328 3.89114 14.1811 5.06333 14.9428L16.9988 22.6985C17.6053 23.094 18.3949 23.0939 19.0014 22.6984L30.9281 14.9484C32.2296 14.1026 33.1703 14.0121 33.7421 14.4693C34.1484 14.7942 34.4169 15.4268 34.4837 16.3988C34.4945 16.5558 34.5 16.721 34.5 16.8946V29.3632C34.5 31.8147 32.5944 33.8358 30.1466 34.0789C29.9835 34.0951 29.8179 34.1034 29.6503 34.1034H6.34974C4.08777 34.1034 2.18998 32.5904 1.6525 30.5472C1.55928 30.1928 1.50692 29.8223 1.50066 29.4407C1.50024 29.4149 1.50003 29.389 1.50003 29.3632Z" fill="white"/>
</svg>
