<svg width="36" height="36" viewBox="0 0 36 36" fill="none" xmlns="http://www.w3.org/2000/svg">
<path d="M21.8204 7.38086C21.8204 10.6946 19.1341 13.3809 15.8204 13.3809C12.5067 13.3809 9.82039 10.6946 9.82039 7.38086C9.82039 4.06715 12.5067 1.38086 15.8204 1.38086C19.1341 1.38086 21.8204 4.06715 21.8204 7.38086Z" fill="white"/>
<path d="M15.8202 16.3809C9.99826 16.3809 6.50672 18.4479 4.53526 21.1961C2.62987 23.8523 2.32639 26.8966 2.32033 28.5812C2.31424 30.2752 3.7344 31.3809 5.19041 31.3809H24.4662C25.3812 31.3809 25.7183 30.4671 25.0697 29.8217C23.2387 27.9999 21.424 26.1611 19.5976 24.335C17.0799 21.8177 16.3257 18.9369 16.8736 16.4387C16.3488 16.4006 16.3887 16.3809 15.8202 16.3809Z" fill="white"/>
<path d="M23.332 13.3862C25.1944 12.9205 26.4172 13.5032 27.1617 14.2477C27.2428 14.3288 27.3178 14.4114 27.387 14.494C27.4684 14.5911 27.5885 14.6472 27.7151 14.6472C27.8418 14.6472 27.9619 14.5911 28.0432 14.494C28.1124 14.4114 28.1874 14.3288 28.2685 14.2477C29.0131 13.5032 30.236 12.9205 32.0987 13.3862C33.9592 13.8514 35.3634 15.2503 35.832 17.0079C36.3038 18.7773 35.816 20.8566 34.0091 22.6635C32.0099 24.6627 30.3034 26.3701 29.2294 27.4447C28.3938 28.2809 27.0408 28.2813 26.2049 27.4454L21.4222 22.6635C19.6146 20.8562 19.1268 18.7769 19.5987 17.0076C20.0675 15.2501 21.4719 13.8514 23.332 13.3862Z" fill="white"/>
</svg>
