<svg width="36" height="36" viewBox="0 0 36 36" fill="none" xmlns="http://www.w3.org/2000/svg">
<path d="M18.3743 6.67562C18.1395 6.58169 17.8778 6.58022 17.6419 6.6715L8.65894 10.1482C8.30675 10.306 8.30355 10.8049 8.65368 10.9672L17.7026 15.1616C17.8642 15.2365 18.0508 15.2357 18.2118 15.1595L27.0643 10.9655C27.4099 10.8018 27.4066 10.3089 27.059 10.1497L18.3743 6.67562Z" fill="white"/>
<path d="M6.78223 23.6928C6.78223 24.2725 7.11622 24.8003 7.64007 25.0484L16.3743 29.199C16.6397 29.3251 16.946 29.1316 16.946 28.8378C16.946 25.5501 16.946 21.1703 16.946 17.5479C16.946 17.316 16.8124 17.1049 16.6029 17.0056L7.42487 12.658C7.12632 12.5165 6.78223 12.7343 6.78223 13.0646C6.78223 17.4779 6.78223 19.4888 6.78223 23.6928Z" fill="white"/>
<path d="M28.3713 24.8658C28.8875 24.6147 29.2151 24.091 29.2151 23.517C29.2151 19.0392 29.2151 16.774 29.2151 12.8694C29.2151 12.537 28.8671 12.3193 28.5682 12.4647L19.2809 16.9832C19.0744 17.0836 18.9434 17.2931 18.9434 17.5227C18.9434 21.1778 18.9434 25.5756 18.9434 28.8301C18.9434 29.1259 19.2532 29.3193 19.5189 29.1895L28.3713 24.8658Z" fill="white"/>
<path d="M3 12.0029C2.17157 12.0029 1.5 11.3314 1.5 10.5029L1.5 4.49707C1.5 2.84022 2.84315 1.49707 4.5 1.49707H10.5C11.3284 1.49707 12 2.16864 12 2.99707C12 3.8255 11.3284 4.49707 10.5 4.49707L4.5 4.49707L4.5 10.5029C4.5 11.3314 3.82843 12.0029 3 12.0029Z" fill="white"/>
<path d="M25.5 1.5C24.6716 1.5 24 2.17157 24 3C24 3.82843 24.6716 4.5 25.5 4.5H31.5059V10.5C31.5059 11.3284 32.1774 12 33.0059 12C33.8343 12 34.5059 11.3284 34.5059 10.5V4.5C34.5059 2.84315 33.1627 1.5 31.5059 1.5H25.5Z" fill="white"/>
<path d="M34.5 25.5C34.5 24.6716 33.8284 24 33 24C32.1716 24 31.5 24.6716 31.5 25.5V31.5059H25.5C24.6716 31.5059 24 32.1774 24 33.0059C24 33.8343 24.6716 34.5059 25.5 34.5059H31.5C33.1569 34.5059 34.5 33.1627 34.5 31.5059V25.5Z" fill="white"/>
<path d="M10.5 34.5C11.3284 34.5 12 33.8284 12 33C12 32.1716 11.3284 31.5 10.5 31.5H4.49414L4.49414 25.5C4.49414 24.6716 3.82257 24 2.99414 24C2.16571 24 1.49414 24.6716 1.49414 25.5V31.5C1.49414 33.1569 2.83729 34.5 4.49414 34.5H10.5Z" fill="white"/>
</svg>
