<svg width="36" height="36" viewBox="0 0 36 36" fill="none" xmlns="http://www.w3.org/2000/svg">
<path d="M19.9626 16.647C19.6901 16.5419 19.3429 16.5427 19.044 16.6273C18.7495 16.7107 18.4396 16.8949 18.3222 17.2168L15.3421 25.3907C15.2316 25.6936 15.2996 26.0229 15.4405 26.2858C15.5817 26.5493 15.8153 26.7834 16.0935 26.8907C16.3674 26.9963 16.7143 26.9921 17.0119 26.9044C17.3056 26.8179 17.6122 26.6304 17.7289 26.3103L20.7091 18.1364C20.8192 17.8343 20.7533 17.5078 20.613 17.2465C20.4726 16.9848 20.24 16.7541 19.9626 16.647Z" fill="white"/>
<path d="M14.3088 18.4382C14.1473 18.1259 13.8337 17.9306 13.5123 17.8519C13.1907 17.7732 12.823 17.8013 12.5318 17.984L8.28222 20.8662L8.27998 20.8677C7.97384 21.0808 7.81641 21.5083 7.81641 21.8651C7.81641 22.0502 7.85766 22.252 7.93143 22.4315C8.00401 22.6082 8.11774 22.7866 8.27996 22.8995L12.615 25.8045C12.9327 26.0198 13.2989 26.0184 13.6034 25.9107C13.9037 25.8045 14.1717 25.5862 14.3088 25.3211C14.4297 25.0873 14.5205 24.7839 14.4973 24.475C14.4735 24.1569 14.3284 23.8401 13.9944 23.6102L11.1683 21.861L13.9237 20.0803C14.2197 19.8957 14.3788 19.6016 14.4328 19.3033C14.4863 19.0072 14.4399 18.6917 14.3088 18.4382Z" fill="white"/>
<path d="M23.3869 17.9885L27.7214 20.893C27.8836 21.006 27.9973 21.1843 28.0699 21.361C28.1437 21.5406 28.1849 21.7424 28.1849 21.9275C28.1849 22.2843 28.0275 22.7118 27.7214 22.9249L27.7191 22.9264L23.4696 25.8086C23.1783 25.9912 22.8107 26.0194 22.4891 25.9407C22.1677 25.862 21.8541 25.6666 21.6926 25.3543C21.5615 25.1009 21.515 24.7854 21.5686 24.4893C21.6225 24.1909 21.7816 23.8968 22.0776 23.7123L24.8331 21.9316L22.0069 20.1824C21.673 19.9525 21.5279 19.6357 21.504 19.3176C21.4809 19.0086 21.5716 18.7053 21.6926 18.4715C21.8297 18.2063 22.0977 17.9881 22.398 17.8818C22.7025 17.7742 23.0693 17.7732 23.3869 17.9885Z" fill="white"/>
<path fill-rule="evenodd" clip-rule="evenodd" d="M6 3C3.51472 3 1.5 5.01472 1.5 7.5V28.5C1.5 30.9853 3.51472 33 6 33H30C32.4853 33 34.5 30.9853 34.5 28.5V7.5C34.5 5.01472 32.4853 3 30 3H6ZM4.5 28.5V13.506H31.5V28.5C31.5 29.3284 30.8284 30 30 30H6C5.17157 30 4.5 29.3284 4.5 28.5ZM9.00879 8.34902C9.00879 9.17745 8.33722 9.84902 7.50879 9.84902C6.68036 9.84902 6.00879 9.17745 6.00879 8.34902C6.00879 7.52059 6.68036 6.84902 7.50879 6.84902C8.33722 6.84902 9.00879 7.52059 9.00879 8.34902ZM13.5088 8.34902C13.5088 9.17745 12.8372 9.84902 12.0088 9.84902C11.1804 9.84902 10.5088 9.17745 10.5088 8.34902C10.5088 7.52059 11.1804 6.84902 12.0088 6.84902C12.8372 6.84902 13.5088 7.52059 13.5088 8.34902ZM16.5088 9.84902C17.3372 9.84902 18.0088 9.17745 18.0088 8.34902C18.0088 7.52059 17.3372 6.84902 16.5088 6.84902C15.6804 6.84902 15.0088 7.52059 15.0088 8.34902C15.0088 9.17745 15.6804 9.84902 16.5088 9.84902Z" fill="white"/>
</svg>
