<svg width="36" height="36" viewBox="0 0 36 36" fill="none" xmlns="http://www.w3.org/2000/svg">
<path fill-rule="evenodd" clip-rule="evenodd" d="M6 3C3.51472 3 1.5 5.01472 1.5 7.5V28.5C1.5 30.9853 3.51472 33 6 33H30C32.4853 33 34.5 30.9853 34.5 28.5V7.5C34.5 5.01472 32.4853 3 30 3H6ZM4.91958 12.4513L8.84293 15.446C9.13044 15.6408 9.46248 15.6399 9.73808 15.5425C10.0099 15.4464 10.2525 15.2489 10.3766 15.009C10.486 14.7975 10.5682 14.523 10.5472 14.2435C10.5257 13.9557 10.3943 13.6691 10.092 13.4611L7.53397 11.5117L10.028 9.55353C10.296 9.38657 10.44 9.12047 10.4888 8.85057C10.5373 8.58264 10.4952 8.2972 10.3766 8.0679C10.2304 7.78536 9.94654 7.60862 9.6556 7.53743C9.36453 7.4662 9.03174 7.49167 8.7681 7.65691L4.92163 10.6116L4.9196 10.6131C4.6425 10.8059 4.5 11.1926 4.5 11.5154C4.5 11.6829 4.53734 11.8654 4.60411 12.0279C4.66981 12.1878 4.77275 12.3492 4.91958 12.4513ZM31.0804 23.5487L27.1571 20.554C26.8696 20.3592 26.5375 20.3601 26.2619 20.4575C25.9901 20.5536 25.7475 20.7511 25.6234 20.991C25.514 21.2025 25.4318 21.477 25.4528 21.7565C25.4743 22.0443 25.6057 22.3309 25.908 22.5389L28.466 24.4883L25.972 26.4465C25.704 26.6134 25.56 26.8795 25.5112 27.1494C25.4627 27.4174 25.5048 27.7028 25.6234 27.9321C25.7696 28.2146 26.0535 28.3914 26.3444 28.4626C26.6355 28.5338 26.9683 28.5083 27.2319 28.3431L31.0784 25.3883L31.0804 25.3869C31.3575 25.1941 31.5 24.8074 31.5 24.4846C31.5 24.3171 31.4627 24.1346 31.3959 23.9721C31.3302 23.8122 31.2273 23.6508 31.0804 23.5487ZM12.7176 11.5534C12.7176 10.8054 13.3242 10.1991 14.0725 10.1991H21.9084C22.6567 10.1991 23.2633 10.8054 23.2633 11.5534C23.2633 12.3014 22.6567 12.9077 21.9084 12.9077H14.0725C13.3242 12.9077 12.7176 12.3014 12.7176 11.5534ZM12.7176 18.0089C12.7176 17.2609 13.3242 16.6546 14.0725 16.6546H21.9084C22.6567 16.6546 23.2633 17.2609 23.2633 18.0089C23.2633 18.7569 22.6567 19.3632 21.9084 19.3632H14.0725C13.3242 19.3632 12.7176 18.7569 12.7176 18.0089ZM12.7176 24.4466C12.7176 23.6986 13.3242 23.0923 14.0725 23.0923H21.9084C22.6567 23.0923 23.2633 23.6986 23.2633 24.4466C23.2633 25.1946 22.6567 25.8009 21.9084 25.8009H14.0725C13.3242 25.8009 12.7176 25.1946 12.7176 24.4466Z" fill="white"/>
</svg>
