<svg width="36" height="36" viewBox="0 0 36 36" fill="none" xmlns="http://www.w3.org/2000/svg">
<path fill-rule="evenodd" clip-rule="evenodd" d="M31.1717 9.30279C28.3402 3.55138 19.2095 -0.848818 11.197 4.63579C7.35152 7.26807 5.88617 10.2159 5.32522 12.8938C5.05766 14.1711 5.00249 15.3585 4.95883 16.298L4.95729 16.3311C4.90921 17.3652 4.86891 17.9326 4.73899 18.3053C4.26824 19.656 3.83865 20.555 3.49969 21.2645L3.35763 21.5626C3.05551 22.1972 2.64309 23.0636 2.80017 24.0453C2.9599 25.0436 3.73145 25.5033 4.17352 25.6904C4.59875 25.8704 5.08606 25.9595 5.39281 26.0156L5.41659 26.0199C5.65966 26.0644 5.83334 26.0965 5.9663 26.1271C5.98635 26.2244 6.00698 26.3377 6.02808 26.4674C6.09161 26.8577 6.14907 27.331 6.20889 27.8551L6.24883 28.2088C6.35176 29.1251 6.47043 30.1817 6.6459 30.9226C6.92927 32.119 7.66493 32.8826 8.48558 33.2972C9.24799 33.6823 10.0349 33.7481 10.5596 33.7189C10.7571 33.708 11.1789 33.697 11.7109 33.6831C12.0381 33.6746 12.4073 33.665 12.7913 33.6537C13.719 33.6262 14.8092 33.5873 15.3157 33.515C16.0226 33.414 17.1064 32.972 17.9776 32.1648C18.9169 31.2946 19.6859 29.9131 19.374 28.0704C19.2358 27.2536 18.4616 26.7035 17.6448 26.8417C16.828 26.98 16.2779 27.7542 16.4161 28.571C16.5249 29.2139 16.2996 29.6298 15.9387 29.9641C15.7427 30.1458 15.5111 30.2928 15.2903 30.3985C15.1818 30.4504 15.0846 30.4881 15.0073 30.5132C14.9371 30.5361 14.8977 30.5439 14.8914 30.5451C14.5948 30.5875 13.7157 30.625 12.7026 30.655C12.3757 30.6646 12.0395 30.6734 11.7248 30.6817C11.1421 30.6969 10.6331 30.7102 10.3932 30.7235C10.2297 30.7326 10.0032 30.7028 9.83825 30.6195C9.76753 30.5837 9.71972 30.5444 9.68449 30.5014C9.65164 30.4613 9.60134 30.384 9.56514 30.2312C9.43489 29.6813 9.33825 28.8275 9.22881 27.8608L9.18954 27.5148C9.12986 26.9921 9.06543 26.4544 8.98914 25.9855C8.91948 25.5575 8.81812 25.0352 8.63983 24.6251C8.28416 23.8071 7.53871 23.4834 7.1504 23.3485C6.76761 23.2156 6.33365 23.1372 6.03921 23.0839L5.96632 23.0707C6.00389 22.9867 6.04841 22.89 6.10116 22.7789C6.13483 22.708 6.17037 22.6336 6.20763 22.5557C6.5524 21.8346 7.0449 20.8046 7.57185 19.2927C7.86313 18.457 7.90948 17.4441 7.9483 16.5954L7.95405 16.4704C7.9988 15.5082 8.04664 14.5346 8.2615 13.5089C8.67167 11.5507 9.71511 9.28569 12.8916 7.11137C19.1809 2.80628 26.3356 6.27167 28.4802 10.6278C29.3552 12.4053 29.6574 14.6374 29.5666 16.7337C29.4744 18.8638 28.9898 20.5901 28.5336 21.3642L28.3827 21.62C27.8456 22.5296 27.3945 23.2936 27.0921 24.0217C26.7287 24.8969 26.5753 25.7164 26.5753 26.7528V33.8968C26.5753 34.7252 27.2469 35.3968 28.0753 35.3968C28.9038 35.3968 29.5753 34.7252 29.5753 33.8968V26.7528C29.5753 26.0685 29.6663 25.6452 29.8627 25.1723C30.0809 24.647 30.4237 24.0654 31.0227 23.0493L31.1182 22.8873C31.924 21.5199 32.4609 19.2408 32.5638 16.8635C32.6683 14.4523 32.3395 11.6749 31.1717 9.30279ZM6.22391 26.2062C6.22328 26.2064 6.21545 26.2032 6.20229 26.196C6.21797 26.2023 6.22454 26.206 6.22391 26.2062Z" fill="white"/>
<path fill-rule="evenodd" clip-rule="evenodd" d="M10.058 13.8119C10.3536 11.9244 11.6973 10.9913 12.8388 10.578C12.9984 11.1337 13.3682 11.6685 14.0511 11.9146C14.4797 12.069 14.9524 11.8467 15.1069 11.4181C15.2613 10.9894 15.039 10.5167 14.6103 10.3623C14.5333 10.3345 14.4588 10.2828 14.4127 10.0752C14.3824 9.93912 14.3755 9.76717 14.3948 9.57357C15.0735 8.31138 16.4566 7.44653 18.1421 7.32058C19.8289 7.19453 21.0807 7.74531 21.9231 8.63299C22.2458 8.97302 22.4897 9.34255 22.6742 9.70509C23.1522 9.63546 23.6323 9.65297 24.1017 9.76607C25.0546 9.99559 25.8294 10.5866 26.3761 11.3657C26.6391 11.7405 26.8885 12.3162 27.0015 12.9547C27.0643 13.3095 27.0915 13.7232 27.0359 14.1602C27.6889 14.8874 27.9225 15.8986 27.8751 16.7579C27.8274 17.6237 27.5041 18.5396 26.8698 19.2858C26.1549 19.8268 25.2705 19.9669 24.4812 19.8018C23.3997 19.5754 22.7452 18.8609 22.7452 18.0639C22.7452 17.6083 22.3758 17.2389 21.9202 17.2389C21.4646 17.2389 21.0952 17.6083 21.0952 18.0639C21.0952 19.0421 21.5167 19.8356 22.1453 20.4133L21.5776 24.152C21.4709 24.8545 20.8379 25.3541 20.1298 25.2946C19.4217 25.2351 18.881 24.6369 18.893 23.9264L18.8938 23.8834C18.9095 22.9588 18.9216 22.2498 18.756 21.7389C18.6854 21.5211 18.6109 21.4431 18.5707 21.4116C18.5389 21.3867 18.4201 21.3039 18.0749 21.2995C16.8822 21.284 15.7594 21.1444 14.897 20.6516C14.4352 20.3877 14.0443 20.0209 13.772 19.5364C13.7376 19.4752 13.7057 19.4133 13.6763 19.3508C13.6733 19.3275 13.6707 19.3042 13.6684 19.2809C13.6133 18.7284 13.742 18.1886 13.9938 17.801C14.2349 17.4296 14.5768 17.2063 15.0197 17.1827C15.4747 17.1584 15.8239 16.77 15.7996 16.315C15.7754 15.86 15.3869 15.5108 14.9319 15.535C13.8921 15.5904 13.0981 16.1507 12.61 16.9023C12.3101 17.364 12.1221 17.8995 12.0454 18.453C11.7642 18.2696 11.4985 18.0561 11.2561 17.8106C10.2971 16.8393 9.79967 15.4613 10.058 13.8119ZM20.4765 11.2094C20.6637 10.794 20.4787 10.3055 20.0634 10.1183C19.648 9.93105 19.1594 10.116 18.9722 10.5314C18.3565 11.8976 18.8411 13.1972 19.7711 13.9151C20.678 14.6153 22.0472 14.7845 23.157 13.9436C23.5201 13.6684 23.5914 13.1509 23.3163 12.7878C23.0411 12.4246 22.5236 12.3533 22.1605 12.6285C21.7201 12.9622 21.1754 12.9148 20.7793 12.609C20.4063 12.321 20.1988 11.8256 20.4765 11.2094Z" fill="white"/>
</svg>
