<svg width="36" height="37" viewBox="0 0 36 37" fill="none" xmlns="http://www.w3.org/2000/svg">
<path fill-rule="evenodd" clip-rule="evenodd" d="M1.875 4.175C1.875 3.18089 2.68089 2.375 3.675 2.375H8.325C9.31911 2.375 10.125 3.18089 10.125 4.175V5H25.875V4.175C25.875 3.18089 26.6809 2.375 27.675 2.375H32.325C33.3191 2.375 34.125 3.18089 34.125 4.175V8.825C34.125 9.81911 33.3191 10.625 32.325 10.625H31.5V26.375H32.325C33.3191 26.375 34.125 27.1809 34.125 28.175V32.825C34.125 33.8191 33.3191 34.625 32.325 34.625H27.675C26.6809 34.625 25.875 33.8191 25.875 32.825V32H10.125V32.825C10.125 33.8191 9.31911 34.625 8.325 34.625H3.675C2.68089 34.625 1.875 33.8191 1.875 32.825V28.175C1.875 27.1809 2.68089 26.375 3.675 26.375H4.5V10.625H3.675C2.68089 10.625 1.875 9.81911 1.875 8.825V4.175ZM28.5 26.375H27.675C26.6809 26.375 25.875 27.1809 25.875 28.175V29H10.125V28.175C10.125 27.1809 9.31911 26.375 8.325 26.375H7.5V10.625H8.325C9.31911 10.625 10.125 9.81911 10.125 8.825V8H25.875V8.825C25.875 9.81911 26.6809 10.625 27.675 10.625H28.5V26.375Z" fill="white"/>
<path fill-rule="evenodd" clip-rule="evenodd" d="M18.9551 9.82237C18.6546 8.89732 17.3459 8.89733 17.0453 9.82237L15.5206 14.5151C15.3861 14.9288 15.0006 15.2089 14.5656 15.2089H9.63144C8.65878 15.2089 8.25437 16.4535 9.04127 17.0252L13.0331 19.9255C13.385 20.1812 13.5323 20.6344 13.3979 21.048L11.8731 25.7408C11.5726 26.6658 12.6313 27.435 13.4182 26.8633L17.4101 23.9631C17.762 23.7074 18.2385 23.7074 18.5904 23.9631L22.5823 26.8633C23.3691 27.435 24.4279 26.6658 24.1273 25.7408L22.6026 21.048C22.4682 20.6344 22.6154 20.1812 22.9673 19.9255L26.9592 17.0252C27.7461 16.4535 27.3417 15.2089 26.369 15.2089H21.4348C20.9998 15.2089 20.6143 14.9288 20.4799 14.5151L18.9551 9.82237Z" fill="white"/>
</svg>
