<svg width="36" height="36" viewBox="0 0 36 36" fill="none" xmlns="http://www.w3.org/2000/svg">
<path d="M4.86914 10.4146C6.52599 10.4146 7.86914 9.0714 7.86914 7.41455C7.86914 5.7577 6.52599 4.41455 4.86914 4.41455C3.21229 4.41455 1.86914 5.7577 1.86914 7.41455C1.86914 9.0714 3.21229 10.4146 4.86914 10.4146Z" fill="white"/>
<path d="M18.7782 10.3799C19.9358 8.39535 22.8032 8.39536 23.9609 10.3799L27.9826 17.2742C27.3826 17.6129 26.8062 17.8306 26.2373 18.0454C25.0997 18.4751 23.9924 18.8933 22.7876 20.2443C20.209 23.1359 20.2561 26.1538 20.6892 28.4145L4.54279 28.4145C2.2 28.4145 0.7613 25.8493 1.98295 23.8502L7.55836 14.7268C8.72815 12.8126 11.5083 12.8126 12.6781 14.7268L14.5017 17.711L18.7782 10.3799Z" fill="white"/>
<path d="M23.3994 28.5963C22.9867 27.0573 22.7157 24.7523 24.7374 21.9668C25.4969 20.9203 26.6399 20.449 27.8841 19.9359C29.3892 19.3153 31.0423 18.6336 32.3437 16.7988C32.7188 16.27 33.5807 16.2897 33.8124 16.8952C36.0392 22.7118 36.6029 29.0523 28.4796 31.5784L23.3994 28.5963Z" fill="white"/>
<path d="M21.0151 30.286C21.3425 29.7189 22.0677 29.5246 22.6348 29.852L27.8494 32.8625C28.4165 33.1899 28.6108 33.9151 28.2834 34.4822L27.8627 35.2108C27.5353 35.778 26.8101 35.9723 26.243 35.6448L21.0284 32.6343C20.4613 32.3069 20.267 31.5817 20.5944 31.0146L21.0151 30.286Z" fill="white"/>
</svg>
