<svg width="36" height="36" viewBox="0 0 36 36" fill="none" xmlns="http://www.w3.org/2000/svg">
<path d="M20.8168 0.256836C19.4098 0.256836 18.2685 1.39488 18.2685 2.79886V9.59402H23.3682V2.79886C23.3682 1.39488 22.2269 0.256836 20.8168 0.256836Z" fill="white"/>
<path d="M16.7982 4.11361V10.3742C16.3018 10.6494 15.9635 11.72 15.9635 12.3277V13.5885C15.5114 13.9992 14.9075 14.2496 14.2467 14.2496C12.8398 14.2496 11.6984 13.1116 11.6984 11.7078V4.11361C11.6984 2.70962 12.8398 1.57158 14.2467 1.57158C15.6568 1.57158 16.7982 2.70962 16.7982 4.11361Z" fill="white"/>
<path d="M29.9738 9.64997V4.11361C29.9738 2.70962 28.8324 1.57158 27.4223 1.57158C26.0154 1.57158 24.874 2.70962 24.874 4.11361V9.59402H29.3699C29.5754 9.59402 29.7777 9.61313 29.9738 9.64997Z" fill="white"/>
<path d="M7.64302 3.77852C6.23609 3.77852 5.09473 4.91656 5.09473 6.32055V11.7078C5.09473 13.1116 6.23609 14.2496 7.64302 14.2496C9.05312 14.2496 10.1945 13.1116 10.1945 11.7078V6.32055C10.1945 4.91656 9.05312 3.77852 7.64302 3.77852Z" fill="white"/>
<path d="M25.7024 34.5068C25.7024 35.0591 25.2547 35.5068 24.7024 35.5068H10.2839C9.73164 35.5068 9.28392 35.0591 9.28392 34.5068V29.2749L9.2679 29.25C9.2679 27.6292 7.95908 26.285 6.96972 25.2688C6.87525 25.1718 6.78367 25.0777 6.69644 24.9867C5.6957 23.9427 5.30656 22.9862 5.30656 21.2615V15.7198C5.89363 16.3147 6.71052 16.6835 7.61457 16.6835H8.0983C9.41671 16.6835 10.5518 15.8957 11.0576 14.7661C11.5603 15.8957 12.6985 16.6835 14.0201 16.6835H14.5038C15.2161 16.6835 15.8752 16.4537 16.4101 16.0644C16.9207 17.1847 17.847 18.0769 18.9926 18.5451C18.944 18.5823 18.8957 18.6201 18.8477 18.6585C17.0729 20.0788 15.6934 22.3782 15.789 25.6983C15.8082 26.3665 16.3672 26.8926 17.0374 26.8734C17.7076 26.8542 18.2354 26.297 18.2161 25.6288C18.1433 23.1006 19.1591 21.5134 20.3677 20.5462C21.1879 19.8898 22.0991 19.5174 22.8484 19.3498C23.408 19.2247 23.9015 18.7642 23.9096 18.1909L23.914 17.8712C23.9218 17.3135 23.4719 16.8573 22.9141 16.8573H21.2014C19.4134 16.8573 17.9639 15.4122 17.9639 13.6297C17.9639 12.4915 18.904 11.6388 20.3413 11.6388H27.5085C29.1579 11.6388 30.6552 12.7114 30.6552 14.6856C30.6303 16.8988 30.6161 18.5254 30.6779 19.6348L30.6837 19.7382C30.7807 21.4706 30.8518 22.7389 29.5833 24.198C29.223 24.6125 28.7623 25.0424 28.2851 25.4876C27.0491 26.641 25.7024 27.8976 25.7024 29.2574V34.5068Z" fill="white"/>
</svg>
