<svg width="36" height="37" viewBox="0 0 36 37" fill="none" xmlns="http://www.w3.org/2000/svg">
<path d="M11.6801 4.12505C11.7041 3.77949 11.6511 3.42927 11.4845 3.12557L10.3008 0.966914C9.73789 -0.0595837 8.37078 -0.302844 7.4886 0.466518C6.8869 0.991268 6.69372 1.84518 7.01094 2.57798L12.5947 15.4769L12.3111 33.9046C12.3111 34.4642 12.5333 35.0009 12.9289 35.3966C13.3244 35.7923 13.8609 36.0146 14.4203 36.0146C14.9797 36.0146 15.5162 35.7923 15.9118 35.3966C16.3073 35.0009 16.5296 34.4642 16.5296 33.9046L17.4211 23.6504H18.4727L19.2008 33.9046C19.2008 34.4642 19.423 35.0009 19.8186 35.3966C20.2141 35.7923 20.7506 36.0146 21.31 36.0146C21.8694 36.0146 22.4059 35.7923 22.8015 35.3966C23.197 35.0009 23.4193 34.4642 23.4193 33.9046L22.8015 16.9299L26.1765 24.221C26.554 25.0366 27.5424 25.3629 28.331 24.9322C28.9947 24.5697 29.3012 23.7819 29.0571 23.066L25.5479 12.7724C25.1126 11.4955 23.9031 10.6458 22.5548 10.6696L17.9071 10.7516C16.834 10.6949 15.9231 10.5978 14.9965 10.065C13.1567 9.00701 11.6658 6.93298 11.6658 4.53494C11.6658 4.39714 11.6706 4.26046 11.6801 4.12505Z" fill="white"/>
<path d="M22.1876 4.53499C22.1876 6.88482 20.2834 8.78974 17.9346 8.78974C15.5857 8.78974 13.6816 6.88482 13.6816 4.53499C13.6816 2.18515 15.5857 0.280234 17.9346 0.280234C20.2834 0.280234 22.1876 2.18515 22.1876 4.53499Z" fill="white"/>
</svg>
