<svg width="36" height="36" viewBox="0 0 36 36" fill="none" xmlns="http://www.w3.org/2000/svg">
<path fill-rule="evenodd" clip-rule="evenodd" d="M8.04199 1.67505C6.38514 1.67505 5.04199 3.0182 5.04199 4.67505V18.4762C5.04199 20.1331 6.38514 21.4762 8.04199 21.4762H27.9583C29.6152 21.4762 30.9583 20.1331 30.9583 18.4762V4.67505C30.9583 3.01819 29.6152 1.67505 27.9583 1.67505H8.04199ZM12.6848 8.4554C13.4188 8.4554 14.0139 7.86438 14.0139 7.13533C14.0139 6.40627 13.4188 5.81525 12.6848 5.81525C11.9507 5.81525 11.3557 6.40627 11.3557 7.13533C11.3557 7.86438 11.9507 8.4554 12.6848 8.4554ZM18.847 8.44014C19.3598 7.5669 20.6302 7.56691 21.1431 8.44014L24.6379 14.3906C25.1548 15.2707 24.5157 16.3759 23.4899 16.3759L12.5402 16.3759C11.5022 16.3759 10.8648 15.2471 11.4061 14.3674L13.8762 10.3529C14.3944 9.5106 15.6261 9.5106 16.1444 10.3529L16.9523 11.666L18.847 8.44014Z" fill="white"/>
<path d="M5.04199 25.6289C5.04199 24.6348 5.84788 23.8289 6.84199 23.8289H29.1596C30.1537 23.8289 30.9596 24.6348 30.9596 25.6289V29.2226C30.9596 30.2167 30.1537 31.0226 29.1596 31.0226H28.805L22.7423 26.0465C21.1661 24.8771 19.0838 25.6749 18.9924 27.5141L18.8461 30.5949C18.8342 30.8344 18.6365 31.0226 18.3967 31.0226H6.842C5.84788 31.0226 5.04199 30.2167 5.04199 29.2226V25.6289Z" fill="white"/>
<path d="M21.6713 27.1127C21.1927 26.7217 20.4731 27.0399 20.4454 27.6548L20.1045 35.2135C20.072 35.9321 20.9766 36.2812 21.4354 35.7272L23.3797 33.3791C23.5294 33.1984 23.7556 33.0984 23.991 33.1088L27.0489 33.2449C27.7704 33.277 28.1144 32.3757 27.5551 31.9188L21.6713 27.1127Z" fill="white"/>
</svg>
