<svg width="36" height="36" viewBox="0 0 36 36" fill="none" xmlns="http://www.w3.org/2000/svg">
<path d="M16.906 32.6606C16.906 32.8482 17.0581 33.0002 17.2456 33.0002H31.015C32.1113 33.0002 33 32.0879 33 30.9625V19.868C33 19.6805 32.8479 19.5284 32.6604 19.5284H17.2456C17.0581 19.5284 16.906 19.6805 16.906 19.868V32.6606Z" fill="white"/>
<path d="M32.6604 16.4718C32.8479 16.4718 33 16.3197 33 16.1322V5.03775C33 3.91233 32.1113 3 31.015 3H17.2456C17.0581 3 16.906 3.15206 16.906 3.33963V16.1322C16.906 16.3197 17.0581 16.4718 17.2456 16.4718H32.6604Z" fill="white"/>
<path d="M13.9286 3.33963C13.9286 3.15206 13.7765 3 13.5889 3H4.98496C3.8887 3 3 3.91233 3 5.03775V30.9625C3 32.0879 3.8887 33.0002 4.98496 33.0002H13.5889C13.7765 33.0002 13.9286 32.8482 13.9286 32.6606V3.33963Z" fill="white"/>
</svg>
