<svg width="36" height="36" viewBox="0 0 36 36" fill="none" xmlns="http://www.w3.org/2000/svg">
<path fill-rule="evenodd" clip-rule="evenodd" d="M7.5 4.5C7.5 2.84314 8.84315 1.5 10.5 1.5H25.5C27.1569 1.5 28.5 2.84315 28.5 4.5V31.5C28.5 33.1569 27.1569 34.5 25.5 34.5H10.5C8.84315 34.5 7.5 33.1569 7.5 31.5V4.5ZM15.0012 9.24375C15.0012 9.79258 14.5553 10.2375 14.0053 10.2375C13.4552 10.2375 13.0093 9.79258 13.0093 9.24375C13.0093 8.69492 13.4552 8.25 14.0053 8.25C14.5553 8.25 15.0012 8.69492 15.0012 9.24375ZM20.3434 10.226C19.9591 9.56864 19.0072 9.56864 18.6228 10.226L17.2031 12.6544L16.5977 11.6659C16.2094 11.0318 15.2864 11.0318 14.898 11.6659L13.0471 14.6881C12.6415 15.3502 13.1192 16.2 13.8969 16.2L22.102 16.2C22.8706 16.2 23.3496 15.368 22.9622 14.7055L20.3434 10.226ZM13.5 25.5C12.6716 25.5 12 26.1716 12 27C12 27.8284 12.6716 28.5 13.5 28.5H22.5C23.3284 28.5 24 27.8284 24 27C24 26.1716 23.3284 25.5 22.5 25.5H13.5ZM13.5 19.5C12.6716 19.5 12 20.1716 12 21C12 21.8284 12.6716 22.5 13.5 22.5H22.5C23.3284 22.5 24 21.8284 24 21C24 20.1716 23.3284 19.5 22.5 19.5H13.5ZM15.75 3.75C15.3358 3.75 15 4.08579 15 4.5C15 4.91421 15.3358 5.25 15.75 5.25H20.25C20.6642 5.25 21 4.91421 21 4.5C21 4.08579 20.6642 3.75 20.25 3.75H15.75Z" fill="white"/>
</svg>
