<svg width="36" height="36" viewBox="0 0 36 36" fill="none" xmlns="http://www.w3.org/2000/svg">
<path d="M2.6 6.00196C2.6 4.95261 3.45066 4.10195 4.5 4.10195H31.4981C32.5475 4.10195 33.3981 4.95261 33.3981 6.00195V22.4999C33.3981 23.5492 32.5475 24.3999 31.4981 24.3999H4.5C3.45066 24.3999 2.6 23.5492 2.6 22.4999V6.00196ZM20.4325 20.7718C24.0339 20.7718 26.9533 17.8523 26.9533 14.251C26.9533 10.6497 24.0339 7.7302 20.4325 7.7302C18.5307 7.7302 16.8198 8.544 15.6281 9.84222C15.3512 8.92871 14.5025 8.26377 13.4985 8.26377H12.0146C10.7858 8.26377 9.78965 9.25993 9.78965 10.4888C9.78965 11.0851 10.0243 11.6267 10.4063 12.0262H9.20215C7.97332 12.0262 6.97715 13.0224 6.97715 14.2512C6.97715 15.4801 7.97332 16.4762 9.20215 16.4762H10.4059C10.0241 16.8757 9.78965 17.4171 9.78965 18.0133C9.78965 19.2421 10.7858 20.2383 12.0146 20.2383H17.8458C18.6401 20.5818 19.5154 20.7718 20.4325 20.7718ZM9.17149 31.4723C9.17149 31.9003 8.82451 32.2473 8.39648 32.2473C7.96846 32.2473 7.62148 31.9003 7.62148 31.4723C7.62148 31.0443 7.96846 30.6973 8.39648 30.6973C8.82451 30.6973 9.17149 31.0443 9.17149 31.4723ZM3.76035 31.5354C3.76035 31.6997 3.76883 31.8623 3.78537 32.0225H3C2.77909 32.0225 2.6 31.8434 2.6 31.6225V31.3225C2.6 31.1016 2.77909 30.9225 3 30.9225H3.80007C3.77386 31.1233 3.76035 31.3279 3.76035 31.5354ZM32.9991 32.0225H13.1353C13.1518 31.8623 13.1603 31.6997 13.1603 31.5354C13.1603 31.3279 13.1468 31.1233 13.1206 30.9225H32.9991C33.22 30.9225 33.3991 31.1016 33.3991 31.3225V31.6225C33.3991 31.8434 33.22 32.0225 32.9991 32.0225Z" fill="white" stroke="white" stroke-width="2.2"/>
</svg>
