<svg width="36" height="36" viewBox="0 0 36 36" fill="none" xmlns="http://www.w3.org/2000/svg">
<path fill-rule="evenodd" clip-rule="evenodd" d="M18.0025 9.50528C19.184 9.50528 20.1418 8.54751 20.1418 7.36603C20.1418 6.18456 19.184 5.22678 18.0025 5.22678C16.8211 5.22678 15.8633 6.18456 15.8633 7.36603C15.8633 8.54751 16.8211 9.50528 18.0025 9.50528ZM19.2861 7.36603C19.2861 8.07492 18.7114 8.64958 18.0025 8.64958C17.2936 8.64958 16.719 8.07492 16.719 7.36603C16.719 6.65715 17.2936 6.08248 18.0025 6.08248C18.7114 6.08248 19.2861 6.65715 19.2861 7.36603Z" fill="white"/>
<path d="M28.2228 23.3584C28.1081 23.5429 28.0203 23.8176 27.9796 24.1833C28.1939 24.2449 28.3991 24.3402 28.5801 24.481C28.9372 24.7588 29.1371 25.1656 29.164 25.6535C29.2285 26.8252 27.9314 27.7994 26.4582 27.1121C26.1714 26.9783 26.0474 26.6374 26.1812 26.3507C26.3149 26.0639 26.6558 25.9399 26.9426 26.0737C27.7398 26.4456 28.0303 25.9069 28.0199 25.7166C28.0092 25.5235 27.9447 25.4384 27.8764 25.3853C27.7882 25.3167 27.6235 25.2508 27.3499 25.2356C27.0463 25.2188 26.8088 24.9676 26.8088 24.6636C26.8088 23.9524 26.9279 23.2708 27.2498 22.7532C27.5966 22.1956 28.1567 21.8702 28.8782 21.8969C29.5178 21.9206 30.0569 22.152 30.4248 22.5765C30.7873 22.9947 30.9285 23.5366 30.9047 24.0831C30.891 24.3992 30.6236 24.6444 30.3075 24.6306C29.9914 24.6169 29.7462 24.3495 29.76 24.0333C29.7741 23.7098 29.6883 23.4762 29.559 23.327C29.4351 23.1841 29.2177 23.0561 28.8358 23.042C28.536 23.0309 28.3583 23.1405 28.2228 23.3584Z" fill="white"/>
<path fill-rule="evenodd" clip-rule="evenodd" d="M25.3664 7.36614C25.3664 9.43036 24.5173 11.2963 23.1494 12.6337L26.5795 18.2964C27.2316 18.1074 27.9209 18.0061 28.6339 18.0061C32.7021 18.0061 36 21.3041 36 25.3723C36 29.4405 32.7021 32.7384 28.6339 32.7384C25.1958 32.7384 22.3078 30.383 21.4957 27.1978H14.4985C13.6863 30.383 10.7984 32.7384 7.36028 32.7384C3.29207 32.7384 -0.00585938 29.4405 -0.00585938 25.3723C-0.00585938 21.3041 3.29207 18.0061 7.36028 18.0061C8.1271 18.0061 8.86655 18.1233 9.56171 18.3407L12.9162 12.6965C11.5102 11.355 10.6341 9.46287 10.6341 7.36614C10.6341 3.29793 13.9321 0 18.0003 0C22.0685 0 25.3664 3.29793 25.3664 7.36614ZM21.41 23.924H14.5841C14.2775 22.3861 13.492 21.0209 12.3897 19.9903L15.7271 14.3748C16.443 14.6069 17.207 14.7323 18.0003 14.7323C18.8253 14.7323 19.6187 14.5966 20.3593 14.3465L23.716 19.8881C22.5552 20.9298 21.7269 22.3347 21.41 23.924ZM18.0023 3.94324C16.8712 3.94324 15.8689 4.5361 15.1151 5.16802C14.3541 5.80607 13.7909 6.5305 13.5307 6.8924C13.3261 7.17708 13.3261 7.55498 13.5307 7.83966C13.7909 8.20156 14.3541 8.926 15.1151 9.56405C15.8689 10.196 16.8712 10.7888 18.0023 10.7888C19.1335 10.7888 20.1358 10.196 20.8896 9.56405C21.6506 8.926 22.2137 8.20156 22.4739 7.83966C22.6786 7.55498 22.6786 7.17708 22.4739 6.8924C22.2137 6.5305 21.6506 5.80606 20.8896 5.16802C20.1358 4.5361 19.1335 3.94324 18.0023 3.94324ZM9.27828 24.6633C9.44683 24.315 9.53671 23.9264 9.53671 23.502C9.53671 22.0066 8.3245 20.7944 6.82916 20.7944C5.33382 20.7944 4.12161 22.0066 4.12161 23.502C4.12161 24.2507 4.42553 24.9284 4.91674 25.4186C5.26274 25.7638 5.81113 25.2521 5.26274 24.6035C5.06777 24.3361 4.93836 23.9657 4.93836 23.472C4.93836 22.5224 5.73907 21.6405 6.82916 21.6405C7.74901 21.6405 8.65992 22.3256 8.73067 23.4795C8.73067 23.8042 8.66057 24.0935 8.53902 24.3459C8.33436 24.7708 9.06019 25.114 9.27828 24.6633ZM4.97143 28.5625L8.36249 29.8969C8.59538 29.9886 8.85833 29.961 9.06711 29.823L9.82636 29.3211C10.149 29.1078 10.343 28.7469 10.343 28.3602V27.0489C10.343 26.5899 10.0705 26.1747 9.64927 25.9921L7.95712 25.2587C7.83623 25.2063 7.75065 25.0956 7.73041 24.9654L7.44183 23.1091C7.39119 22.7833 7.11068 22.5431 6.78099 22.5431C6.41163 22.5431 6.11221 22.8425 6.11221 23.2118V26.4339C6.11221 26.646 5.94031 26.8179 5.72827 26.8179H5.25261C4.82852 26.8179 4.48473 27.1617 4.48473 27.5858V27.8479C4.48473 28.1635 4.67778 28.4469 4.97143 28.5625ZM26.0885 28.015C25.7741 26.6093 25.7299 24.7794 25.8495 23.4716C26.0829 20.9203 29.4343 19.8047 31.2445 21.6988C33.0546 23.593 31.3232 25.7731 30.4181 26.5951C29.7953 27.1607 29.7129 27.6033 29.6066 28.1738C29.5585 28.4323 29.5054 28.7171 29.395 29.0515C29.0408 30.1236 26.3236 30.7311 26.0885 28.015Z" fill="white"/>
</svg>
