<svg width="36" height="36" viewBox="0 0 36 36" fill="none" xmlns="http://www.w3.org/2000/svg">
<path fill-rule="evenodd" clip-rule="evenodd" d="M4.50293 4.5C4.50293 2.84315 5.84608 1.5 7.50293 1.5H19.7603C20.5559 1.5 21.319 1.81607 21.8816 2.37868L27.6243 8.12132C28.1869 8.68393 28.5029 9.44699 28.5029 10.2426V28.5C28.5029 30.1569 27.1598 31.5 25.5029 31.5H7.50293C5.84608 31.5 4.50293 30.1569 4.50293 28.5V4.5ZM10.5029 24C10.5029 23.1716 11.1745 22.5 12.0029 22.5H21.0029C21.8314 22.5 22.5029 23.1716 22.5029 24C22.5029 24.8284 21.8314 25.5 21.0029 25.5H12.0029C11.1745 25.5 10.5029 24.8284 10.5029 24ZM16.5273 11.9597C18.0682 11.9597 19.3175 10.7148 19.3175 9.17924C19.3175 7.64365 18.0682 6.3988 16.5273 6.3988C14.9863 6.3988 13.7371 7.64365 13.7371 9.17924C13.7371 10.7148 14.9863 11.9597 16.5273 11.9597ZM11.5329 15.2754C12.4497 14.0018 13.8198 13.0439 16.5272 13.0439C19.2346 13.0439 20.5561 14.0018 21.4729 15.2754C22.359 16.5062 22.5001 17.5012 22.5029 18.2819C22.5058 19.0669 21.8453 19.5792 21.1682 19.5792H11.8376C11.1605 19.5792 10.5001 19.0669 10.5029 18.2819C10.5058 17.5012 10.6469 16.5062 11.5329 15.2754Z" fill="white"/>
<path d="M33 13.0851C33 12.2567 32.3284 11.5851 31.5 11.5851C30.6715 11.5851 30 12.2567 30 13.0851V31.4999C30 32.3283 29.3284 32.9999 28.5 32.9999H9.62402C8.7956 32.9999 8.12402 33.6714 8.12402 34.4999C8.12402 35.3283 8.7956 35.9999 9.62402 35.9999H28.5C30.9853 35.9999 33 33.9851 33 31.4999V13.0851Z" fill="white"/>
</svg>
