<svg width="36" height="36" viewBox="0 0 36 36" fill="none" xmlns="http://www.w3.org/2000/svg">
<path d="M30.8052 3.59605C31.0849 3.31403 31.032 2.84112 30.6695 2.68161C28.7895 1.85442 26.5188 2.21623 24.9807 3.76704C23.664 5.09467 23.2115 6.96371 23.6233 8.66344L20.219 12.1022C20.0283 12.2948 20.046 12.6115 20.2555 12.7831C21.3407 13.6726 22.7582 14.9072 23.7211 15.9142C23.9019 16.1033 24.2031 16.1102 24.3859 15.9232L27.7048 12.5279C29.303 12.8159 31.0104 12.3372 32.2454 11.092C33.784 9.54068 34.1426 7.25017 33.3212 5.35431C33.1629 4.9889 32.694 4.93563 32.4143 5.21759L29.6341 8.02085C29.5137 8.14229 29.3184 8.14229 29.198 8.02085L28.0255 6.83862C27.905 6.71718 27.905 6.5203 28.0255 6.39887L30.8052 3.59605Z" fill="white"/>
<path d="M11.5219 20.9661L9.0663 23.5181C7.40472 23.1406 5.59312 23.6039 4.29968 24.908C2.76114 26.4593 2.40256 28.7498 3.22394 30.6457C3.38225 31.0111 3.85116 31.0644 4.1308 30.7824L6.91101 27.9791C7.03145 27.8577 7.22671 27.8577 7.34714 27.9791L8.51966 29.1614C8.64009 29.2828 8.6401 29.4797 8.51966 29.6011L5.73989 32.4039C5.46019 32.686 5.51312 33.1589 5.87565 33.3184C7.75559 34.1456 10.0263 33.7838 11.5644 32.233C12.8138 30.9731 13.2851 29.2258 12.9782 27.5982L15.337 25.2613C15.5193 25.0792 15.5148 24.781 15.3317 24.5997C14.2756 23.5541 13.0821 22.1516 12.2117 21.0114C12.0422 20.7894 11.7169 20.7665 11.5219 20.9661Z" fill="white"/>
<path d="M2.43448 3.35353C2.35205 3.27042 2.21566 3.36019 2.25795 3.46972L4.50549 9.29108C4.6084 9.61065 4.82904 9.87818 5.1219 10.0385C5.49092 10.2405 5.96467 10.4554 6.41484 10.6596C6.94907 10.9019 7.45012 11.1292 7.70348 11.302L9.06873 12.2606C9.25822 12.3937 9.51543 12.3686 9.67609 12.2014L11.6941 10.1009C11.8519 9.93661 11.8712 9.68223 11.7399 9.49572L10.8576 8.2421C10.7786 8.12982 10.7094 8.01082 10.6509 7.88644L9.57699 5.60597C9.42118 5.29177 9.14685 5.05376 8.81548 4.94528L2.96852 2.73047C2.86005 2.68938 2.77254 2.82631 2.85448 2.90893L6.29476 6.37774C6.6219 6.16879 7.27455 6.18485 7.66152 6.57503C8.12018 7.03749 8.16214 7.74506 7.70348 8.20752C7.24482 8.66999 6.5423 8.62859 6.08364 8.16613C5.69667 7.77595 5.66104 7.22187 5.86436 6.81185L2.43448 3.35353Z" fill="white"/>
<path d="M13.6896 10.9652C13.5184 10.8773 13.315 10.9192 13.1811 11.0581C12.85 11.4019 12.4367 11.8468 12.0084 12.308C11.5182 12.8358 11.0081 13.3851 10.5792 13.8276C10.4416 13.9697 10.4021 14.1809 10.4927 14.3573C11.5152 16.3479 14.4604 20.1641 17.1045 22.8302C19.8859 25.6347 30.3824 33.1358 30.3824 33.1358C31.0638 33.6627 31.8893 33.7241 32.4727 33.1358C33.0562 32.5475 32.9689 31.6751 32.4661 31.0348C32.4661 31.0348 25.1593 20.9419 22.301 18.0599C19.586 15.3223 15.605 11.9497 13.6896 10.9652Z" fill="white"/>
</svg>
