<svg width="36" height="36" viewBox="0 0 36 36" fill="none" xmlns="http://www.w3.org/2000/svg">
<path d="M12.7788 5.21053C12.7788 2.33283 15.1167 0 18.0007 0C20.8847 0 23.2226 2.33283 23.2226 5.21053C23.2226 8.08822 20.8847 10.4211 18.0007 10.4211C15.1167 10.4211 12.7788 8.08822 12.7788 5.21053Z" fill="white"/>
<path fill-rule="evenodd" clip-rule="evenodd" d="M30.1851 33C32.1078 33 33.6664 31.4448 33.6664 29.5263V19.1053C33.6664 17.1868 32.1078 15.6316 30.1851 15.6316H5.81623C3.89358 15.6316 2.33496 17.1868 2.33496 19.1053V29.5263C2.33496 31.4448 3.89358 33 5.81623 33H30.1851ZM18.0007 19.1053C15.1167 19.1053 12.7788 21.4381 12.7788 24.3158C12.7788 27.1935 15.1167 29.5263 18.0007 29.5263C20.8847 29.5263 23.2226 27.1935 23.2226 24.3158C23.2226 21.4381 20.8847 19.1053 18.0007 19.1053Z" fill="white"/>
</svg>
