<svg width="36" height="36" viewBox="0 0 36 36" fill="none" xmlns="http://www.w3.org/2000/svg">
<path d="M23.1914 22.8241L23.232 22.8176V25.2177L23.2099 25.2099L23.0699 25.1591V25.1673C22.726 25.0434 22.4938 24.895 22.3004 24.7226C22.1028 24.5309 22.0019 24.2818 22.0019 23.9655C22.0019 23.6783 22.1047 23.4362 22.314 23.2333C22.5363 23.026 22.7936 22.8893 23.1914 22.8241Z" fill="white"/>
<path d="M24.2716 29.3876V26.9664C24.2991 26.9756 24.3264 26.985 24.3534 26.9945L24.4206 27.0182C24.7496 27.1519 24.9367 27.3158 25.1117 27.5146L25.1131 27.5161C25.2894 27.7088 25.3837 27.9526 25.3919 28.2549C25.3916 28.5052 25.2946 28.7263 25.092 28.9221L25.0905 28.9236C24.893 29.1222 24.7084 29.265 24.395 29.3613L24.3574 29.3729C24.3314 29.3777 24.3026 29.3826 24.2716 29.3876Z" fill="white"/>
<path fill-rule="evenodd" clip-rule="evenodd" d="M14.8651 34.5H26.6628C29.2123 34.5 31.2003 32.3874 31.2003 29.88L31.2003 6.12C31.2003 3.61257 29.2123 1.5 26.6628 1.5H9.3378C6.7883 1.5 4.80029 3.61257 4.80029 6.12V24.1948C4.80029 25.4053 5.26738 26.5753 6.11298 27.4451L11.6403 33.1303C12.4874 34.0016 13.6464 34.5 14.8651 34.5ZM8.10029 22.95H16.3503L16.3503 31.2H14.8651C14.5521 31.2 14.2422 31.0726 14.0064 30.8299L8.47906 25.1447C8.24164 24.9005 8.10029 24.5596 8.10029 24.1948L8.10029 22.95ZM20.2402 6.94201C20.2402 6.37817 20.6973 5.92108 21.2611 5.92108H26.6034C27.1673 5.92108 27.6243 6.37817 27.6243 6.94201V11.6496C27.6243 12.2135 27.1673 12.6705 26.6034 12.6705C26.0396 12.6705 25.5825 12.2135 25.5825 11.6496V9.26496L17.7784 16.4285C17.5782 16.6123 17.3129 16.7086 17.0414 16.6962C16.7699 16.6838 16.5146 16.5637 16.332 16.3624L14.2431 14.0604L10.1282 18.3056C9.73578 18.7104 9.08944 18.7205 8.68458 18.3281C8.27972 17.9356 8.26964 17.2893 8.66208 16.8844L13.5346 11.8576C13.7309 11.6551 14.0024 11.5428 14.2844 11.5474C14.5665 11.5521 14.8341 11.6732 15.0237 11.8821L17.1541 14.2299L23.9815 7.96294H21.2611C20.6973 7.96294 20.2402 7.50585 20.2402 6.94201ZM23.232 20.7982C23.232 20.5111 23.4647 20.2784 23.7518 20.2784C24.0388 20.2784 24.2716 20.5111 24.2716 20.7982V21.4256C24.3395 21.4361 24.4126 21.4482 24.4924 21.4621C24.8605 21.526 25.1422 21.6319 25.4625 21.7768C25.8112 21.9345 26.1025 22.1286 26.334 22.3606C26.5431 22.5443 26.6611 22.7542 26.6611 22.9898C26.6611 23.1742 26.5887 23.3367 26.4529 23.4738C26.3227 23.614 26.1593 23.6856 25.969 23.6856C25.8287 23.6856 25.7048 23.6447 25.6059 23.5564L25.6036 23.5543C25.4592 23.4173 25.2679 23.2856 25.027 23.1604L24.9953 23.1433C24.7833 23.029 24.6269 22.9451 24.4011 22.8838L24.3956 22.8823C24.3628 22.8714 24.3211 22.8596 24.2716 22.8482V25.4892C24.3862 25.5177 24.5014 25.5465 24.6125 25.575L24.6162 25.576C25.3343 25.7889 25.8212 26.0774 26.1944 26.4442C26.6219 26.8469 26.8271 27.4395 26.8271 28.2022C26.8271 28.864 26.5901 29.4342 26.1194 29.9072C25.6725 30.3479 25.176 30.6364 24.4924 30.7681C24.4126 30.7835 24.3397 30.7967 24.2716 30.808V31.5461C24.2716 31.8331 24.0388 32.0658 23.7518 32.0658C23.4647 32.0658 23.232 31.8331 23.232 31.5461V30.8306C23.181 30.8258 23.1271 30.8203 23.0699 30.8143C22.6079 30.7654 22.2232 30.6587 21.8318 30.4948C21.4195 30.3185 21.0261 30.0546 20.6528 29.7059C20.457 29.5366 20.3496 29.3342 20.3496 29.1009C20.3496 28.9164 20.422 28.7539 20.5579 28.6168C20.6949 28.4698 20.8619 28.3922 21.0544 28.3922C21.2236 28.3922 21.3723 28.448 21.4946 28.5603C21.7786 28.8121 22.0568 29.0121 22.329 29.1615C22.5728 29.2839 22.7941 29.3672 23.0601 29.4138L23.0673 29.4151L23.0742 29.4173C23.0777 29.4184 23.0814 29.4193 23.0854 29.42C23.1329 29.4275 23.182 29.4335 23.232 29.438V26.6913L23.1535 26.6749L23.1511 26.6744C22.3204 26.483 21.7243 26.1809 21.2655 25.7641L21.2639 25.7626C20.805 25.3285 20.5795 24.7424 20.5795 24.0168C20.5795 23.3131 20.8246 22.7243 21.3149 22.2584C21.7814 21.8151 22.3374 21.5407 23.0699 21.434C23.1274 21.4257 23.1811 21.4181 23.232 21.4115V20.7982Z" fill="white"/>
</svg>
