<svg width="36" height="36" viewBox="0 0 36 36" fill="none" xmlns="http://www.w3.org/2000/svg">
<path fill-rule="evenodd" clip-rule="evenodd" d="M6 6C6 4.34315 7.34315 3 9 3H21.2574C22.053 3 22.8161 3.31607 23.3787 3.87868L29.1213 9.62132C29.6839 10.1839 30 10.947 30 11.7426V15.5246C30 15.7317 29.795 15.8768 29.5958 15.8203C29.0092 15.6538 28.39 15.5648 27.75 15.5648C24.4863 15.5648 21.4822 17.9752 21.4822 21.7032C21.4822 22.9694 22.1634 24.3057 22.8077 25.3355C22.8695 25.4343 22.8357 25.5649 22.7337 25.6211C21.2856 26.4193 19.9059 27.3873 19.0541 28.6095C17.9659 30.1709 17.4395 31.5485 17.1939 32.7527C17.1648 32.8954 17.0408 33 16.8952 33H9C7.34315 33 6 31.6569 6 30V6ZM16.6429 6.70315C17.0084 6.3543 17.5874 6.36777 17.9363 6.73323C18.2851 7.09859 18.2717 7.67743 17.9065 8.02631L13.2659 12.4861C13.0876 12.6563 12.8474 12.7481 12.6011 12.7393C12.3553 12.7306 12.1233 12.6233 11.9576 12.4416L9.68908 9.99234C9.34922 9.6185 9.37678 9.03992 9.75063 8.70006C10.124 8.36062 10.7016 8.38768 11.0416 8.76021L12.6766 10.5177L16.6429 6.70315ZM16.6429 14.2032C17.0084 13.8543 17.5874 13.8678 17.9363 14.2332C18.2851 14.5986 18.2717 15.1774 17.9065 15.5263L13.2659 19.9861C13.0876 20.1563 12.8474 20.2481 12.6011 20.2393C12.3553 20.2306 12.1233 20.1233 11.9576 19.9416L9.68908 17.4923C9.34922 17.1185 9.37678 16.5399 9.75063 16.2001C10.124 15.8606 10.7016 15.8877 11.0416 16.2602L12.6766 18.0177L16.6429 14.2032ZM16.6429 21.7032C17.0084 21.3543 17.5874 21.3678 17.9363 21.7332C18.2851 22.0986 18.2717 22.6774 17.9065 23.0263L13.2659 27.4861C13.0876 27.6563 12.8474 27.7481 12.6011 27.7393C12.3553 27.7306 12.1233 27.6233 11.9576 27.4416L9.68908 24.9923C9.34922 24.6185 9.37678 24.0399 9.75063 23.7001C10.124 23.3606 10.7016 23.3877 11.0416 23.7602L12.6766 25.5177L16.6429 21.7032Z" fill="white"/>
<path fill-rule="evenodd" clip-rule="evenodd" d="M20.9163 30.1224C22.1769 28.3831 24.0607 27.075 27.7834 27.075C31.5061 27.075 33.3231 28.3831 34.5837 30.1224C35.8021 31.8033 35.9961 33.1621 36 34.2282C36.0039 35.3003 35.0958 36 34.1648 36H21.3352C20.4042 36 19.4961 35.3003 19.5 34.2282C19.5039 33.1621 19.6979 31.8033 20.9163 30.1224Z" fill="white"/>
<path fill-rule="evenodd" clip-rule="evenodd" d="M27.7835 25.5943C29.9023 25.5943 31.62 23.8942 31.62 21.7971C31.62 19.7 29.9023 18 27.7835 18C25.6646 18 23.947 19.7 23.947 21.7971C23.947 23.8942 25.6646 25.5943 27.7835 25.5943Z" fill="white"/>
</svg>
