<svg width="36" height="36" viewBox="0 0 36 36" fill="none" xmlns="http://www.w3.org/2000/svg">
<path fill-rule="evenodd" clip-rule="evenodd" d="M0.75 2.9812C0.75 1.74894 1.75309 0.75 2.99046 0.75H14.1928C15.4301 0.75 16.4332 1.74894 16.4332 2.9812V23.062C16.4332 24.2943 15.4301 25.2933 14.1928 25.2933H11.8204C11.8203 23.4637 10.3309 21.9805 8.49372 21.9805C6.65652 21.9805 5.16716 23.4637 5.16703 25.2933H2.99046C1.75309 25.2933 0.75 24.2943 0.75 23.062V2.9812ZM4.8087 13.5376C4.50247 13.2326 4.50247 12.7382 4.8087 12.4332L7.48321 9.76975L4.77183 7.06957C4.46559 6.7646 4.46559 6.27015 4.77183 5.96518C5.07806 5.66021 5.57456 5.66021 5.8808 5.96518L8.59218 8.66536L11.3036 5.96511C11.6099 5.66014 12.1064 5.66014 12.4126 5.96511C12.7188 6.27008 12.7188 6.76453 12.4126 7.0695L9.70115 9.76975L12.3757 12.4333C12.682 12.7382 12.682 13.2327 12.3757 13.5377C12.0695 13.8426 11.573 13.8426 11.2668 13.5377L8.59218 10.8741L5.91767 13.5376C5.61144 13.8426 5.11494 13.8426 4.8087 13.5376ZM4.57278 16.5095C4.1397 16.5095 3.78862 16.8591 3.78862 17.2904C3.78862 17.7217 4.1397 18.0713 4.57278 18.0713H12.4144C12.8475 18.0713 13.1985 17.7217 13.1985 17.2904C13.1985 16.8591 12.8475 16.5095 12.4144 16.5095H4.57278Z" fill="white"/>
<path fill-rule="evenodd" clip-rule="evenodd" d="M19.5668 12.938C19.5668 11.7057 20.5699 10.7068 21.8072 10.7068H33.0095C34.2469 10.7068 35.25 11.7057 35.25 12.938V33.0188C35.25 34.2511 34.2469 35.25 33.0095 35.25H21.8072C20.6967 35.25 19.7749 34.4454 19.5976 33.3896L22.2455 30.7527C22.4219 30.5769 22.5211 30.3386 22.5211 30.09C22.5211 29.8415 22.4219 29.6031 22.2454 29.4274L19.5668 26.76V12.938ZM24.0477 25.6558C23.429 25.6558 22.9275 26.1553 22.9275 26.7714C22.9275 27.3876 23.429 27.887 24.0477 27.887H30.7691C31.3878 27.887 31.8893 27.3876 31.8893 26.7714C31.8893 26.1553 31.3878 25.6558 30.7691 25.6558H24.0477ZM24.6979 16.182C24.6979 16.6672 24.3021 17.0605 23.8138 17.0605C23.3255 17.0605 22.9296 16.6672 22.9296 16.182C22.9296 15.6968 23.3255 15.3034 23.8138 15.3034C24.3021 15.3034 24.6979 15.6968 24.6979 16.182ZM29.4403 17.0504C29.0992 16.4692 28.2541 16.4692 27.9129 17.0504L26.6526 19.1972L26.1152 18.3233C25.7704 17.7628 24.9511 17.7628 24.6063 18.3233L22.9632 20.9951C22.6032 21.5805 23.0272 22.3317 23.7176 22.3317L31.0014 22.3317C31.6838 22.3317 32.109 21.5962 31.7652 21.0105L29.4403 17.0504Z" fill="white"/>
<path d="M9.43458 26.9415C10.0728 26.6048 10.5077 25.9365 10.5077 25.1672C10.5077 24.059 9.6056 23.1607 8.49285 23.1607C7.38011 23.1607 6.47805 24.059 6.47805 25.1672C6.47805 25.9371 6.91353 26.6058 7.55259 26.9422L7.55259 30.1979C7.55259 30.7155 7.97389 31.135 8.49359 31.135H17.5551L16.2525 32.4322C15.885 32.7982 15.885 33.3915 16.2525 33.7575C16.62 34.1235 17.2158 34.1235 17.5833 33.7575L20.6006 30.7527C20.777 30.5769 20.8762 30.3386 20.8762 30.09C20.8762 29.8415 20.777 29.6031 20.6005 29.4274L17.5832 26.4227C17.2157 26.0568 16.6199 26.0568 16.2524 26.4228C15.8849 26.7887 15.8849 27.3821 16.2524 27.748L17.7716 29.2608H9.43458L9.43458 26.9415Z" fill="white"/>
</svg>
