<svg width="36" height="36" viewBox="0 0 36 36" fill="none" xmlns="http://www.w3.org/2000/svg">
<path fill-rule="evenodd" clip-rule="evenodd" d="M2.47634 1.5C1.10944 1.5 0.00134277 2.61248 0.00134277 3.98478V12.2674C0.00134277 13.6397 1.10944 14.7522 2.47634 14.7522H8.87012L12.686 17.8169C13.2262 18.2508 14.0264 17.8647 14.0264 17.1702V14.7522H14.4513C15.5835 14.7522 16.5013 13.8307 16.5013 12.694V3.98478C16.5013 2.61248 15.3933 1.5 14.0264 1.5H2.47634ZM3.30135 4.81305C2.84571 4.81305 2.47634 5.18387 2.47634 5.64131C2.47634 6.09874 2.84571 6.46957 3.30135 6.46957H11.5514C12.007 6.46957 12.3764 6.09874 12.3764 5.64131C12.3764 5.18387 12.007 4.81305 11.5514 4.81305H3.30135ZM3.30135 8.12609C2.84571 8.12609 2.47634 8.49692 2.47634 8.95435C2.47634 9.41179 2.84571 9.78261 3.30135 9.78261H8.25135C8.70698 9.78261 9.07635 9.41179 9.07635 8.95435C9.07635 8.49692 8.70698 8.12609 8.25135 8.12609H3.30135Z" fill="white"/>
<path d="M23.3379 22.5C18.5078 22.5 16.3111 24.1536 14.6755 26.3522C13.0947 28.4771 12.843 30.9126 12.8379 32.2603C12.8329 33.6155 14.0111 34.5 15.219 34.5H31.4568C32.6648 34.5 33.843 33.6155 33.8379 32.2603C33.8329 30.9126 33.5811 28.4771 32.0003 26.3522C30.3648 24.1536 28.168 22.5 23.3379 22.5Z" fill="white"/>
<path d="M23.3379 21C26.2374 21 28.5879 18.6495 28.5879 15.75C28.5879 12.8505 26.2374 10.5 23.3379 10.5C20.4384 10.5 18.0879 12.8505 18.0879 15.75C18.0879 18.6495 20.4384 21 23.3379 21Z" fill="white"/>
</svg>
