<svg width="37" height="36" viewBox="0 0 37 36" fill="none" xmlns="http://www.w3.org/2000/svg">
<path d="M26.8163 29.6013C24.3169 31.6018 21.308 32.6942 17.8464 32.6942C13.3857 32.6942 9.38455 30.6969 6.66286 27.5351C6.41998 27.2529 6.62723 26.8294 6.99952 26.8294H10.8795C10.9628 26.8294 11.0449 26.853 11.1161 26.8962C15.6898 29.6707 20.6105 30.0122 25.754 26.0345C27.8343 23.9568 29.0707 21.0022 29.0707 17.6181C29.0707 11.0091 23.8429 6.05354 17.8464 6.05354C13.1159 6.05354 8.75721 8.70297 7.14298 13.172C7.07684 13.3551 6.90499 13.4811 6.71033 13.4811H4.15826C3.8602 13.4811 3.64449 13.1964 3.73616 12.9128C5.68278 6.89068 11.2644 2.54199 17.8464 2.54199C26.0465 2.54199 32.694 9.2918 32.694 17.6181C32.694 20.9575 31.7666 23.8859 29.963 26.3775L35.4072 32.2156C36.2547 33.1244 36.205 34.5481 35.2962 35.3956C34.3874 36.2431 32.9637 36.1934 32.1162 35.2846L26.8163 29.6013Z" fill="white"/>
<path d="M18.6826 10.0819C17.8542 10.0819 17.1826 10.7535 17.1826 11.5819V23.3927C17.1826 24.2211 17.8542 24.8927 18.6826 24.8927H20.9326C21.761 24.8927 22.4326 24.2211 22.4326 23.3927V11.5819C22.4326 10.7535 21.761 10.0819 20.9326 10.0819H18.6826Z" fill="white"/>
<path d="M8.93262 14.2604C8.93262 13.4319 9.60419 12.7604 10.4326 12.7604H12.6826C13.511 12.7604 14.1826 13.4319 14.1826 14.2604V23.3925C14.1826 24.2209 13.511 24.8925 12.6826 24.8925H10.4326C9.60419 24.8925 8.93262 24.2209 8.93262 23.3925V14.2604Z" fill="white"/>
<path d="M2.18262 15.8926C1.35419 15.8926 0.682617 16.5642 0.682617 17.3926V23.3926C0.682617 24.221 1.35419 24.8926 2.18262 24.8926H4.43262C5.26104 24.8926 5.93262 24.221 5.93262 23.3926V17.3926C5.93262 16.5642 5.26104 15.8926 4.43262 15.8926H2.18262Z" fill="white"/>
</svg>
