<svg width="36" height="36" viewBox="0 0 36 36" fill="none" xmlns="http://www.w3.org/2000/svg">
<path d="M26.4363 1.21454C27.2365 1.42888 27.7114 2.25134 27.4971 3.05156L26.8946 5.30092C26.6802 6.10114 25.8578 6.57608 25.0576 6.36174C24.2573 6.1474 23.7824 5.32494 23.9967 4.52472L24.5992 2.27536C24.8136 1.47514 25.636 1.00019 26.4363 1.21454Z" fill="white"/>
<path d="M30.8079 16.2178C31.0158 15.4159 31.8344 14.9342 32.6363 15.1421L34.877 15.7228C35.6789 15.9306 36.1605 16.7492 35.9527 17.5512C35.7449 18.3531 34.9263 18.8347 34.1244 18.6269L31.8837 18.0461C31.0817 17.8383 30.6001 17.0197 30.8079 16.2178Z" fill="white"/>
<path d="M29.2922 8.67856C28.5748 9.09277 28.329 10.0102 28.7432 10.7276C29.1574 11.445 30.0748 11.6908 30.7922 11.2766L32.6493 10.2044C33.3668 9.79021 33.6126 8.87283 33.1984 8.15539C32.7841 7.43795 31.8668 7.19213 31.1493 7.60635L29.2922 8.67856Z" fill="white"/>
<path d="M22.0304 4.8767C20.983 3.06262 18.4471 2.85155 17.1143 4.46763C15.4998 6.42528 13.5123 8.81892 11.8637 10.7681C11.6317 11.0423 11.3473 11.4518 11.0732 11.8463C10.8115 12.2231 10.5593 12.5862 10.3713 12.8049L17.414 25.1437C17.7108 25.0913 18.1946 25.0212 18.6845 24.9502C19.1266 24.8861 19.5743 24.8212 19.893 24.7681C21.4396 24.5105 23.2123 24.2621 24.9368 24.0204C26.0296 23.8673 27.1034 23.7168 28.0877 23.5685C30.1796 23.2532 31.2993 20.9309 30.241 19.0978L22.0304 4.8767Z" fill="white"/>
<path d="M6.71132 29.292C7.9239 29.61 9.14692 29.0576 10.2326 28.4308L15.1744 25.5776L8.67271 14.3165C8.56951 14.38 8.44208 14.457 8.29229 14.5464C7.94853 14.7516 7.50166 15.0133 6.98916 15.3105C5.96498 15.9045 4.69292 16.6321 3.48931 17.3168C1.31842 18.5518 0.558995 21.3199 1.81095 23.4883L3.94189 27.1792C4.56929 28.2659 5.58402 28.9963 6.71132 29.292Z" fill="white"/>
<path d="M10.6132 30.4438L16.2793 27.2154L17.9567 30.1596C18.9937 31.9795 18.8355 34.0239 17.0156 35.0608C15.1957 36.0978 13.3277 35.2078 12.2907 33.3879L10.6132 30.4438Z" fill="white"/>
</svg>
