<svg width="36" height="36" viewBox="0 0 36 36" fill="none" xmlns="http://www.w3.org/2000/svg">
<path fill-rule="evenodd" clip-rule="evenodd" d="M31.1363 11.7656C28.7578 6.5335 23.4668 3 17.6045 3C9.32022 3 2.60449 9.71573 2.60449 18C2.60449 26.2843 9.32022 33 17.6045 33C18.9594 33 20.2724 32.8204 21.5209 32.4836C21.4211 32.0906 21.3682 31.6703 21.3682 31.2241C21.3682 30.1725 21.5402 29.144 22.0311 28.2946C21.2638 27.5744 20.4654 26.7638 19.6897 25.9253C19.5588 26.4676 19.5187 26.606 19.3634 27.0716C18.9854 28.2058 18.5683 29.0154 18.178 29.5106C17.899 29.8646 17.7247 29.9912 17.6045 29.991C17.4863 29.9909 17.3106 29.8654 17.031 29.5106C16.6407 29.0154 16.2236 28.2058 15.8455 27.0716C15.5434 26.1652 15.2835 25.1041 15.0807 23.9244C15.9024 23.9742 16.5232 24.0474 17.3818 24.0474C17.6487 24.0474 17.9142 24.0449 18.178 24.0399C17.2655 22.9742 16.4414 21.9251 15.8124 21.0161C15.3629 20.9981 15.1442 20.9251 14.7121 20.8924C14.642 19.9669 14.6045 18.9989 14.6045 18C14.6045 17.0011 14.642 16.0331 14.7121 15.1076C15.4396 15.0525 16.0671 14.9384 16.8415 14.926C18.4277 13.4322 20.5629 12.0756 23.0827 11.4919C22.8586 10.2133 22.5544 9.01445 22.2095 7.97972C22.0649 7.54586 21.9075 7.12755 21.7367 6.73042C23.9764 7.5519 25.8967 9.1186 27.2829 11.0098C28.5292 10.9967 29.8702 11.3495 31.1363 11.7656ZM12.9995 28.0203C13.1441 28.4541 13.3015 28.8725 13.4723 29.2696C10.169 28.058 7.54649 25.4355 6.33491 22.1322C6.73204 22.303 7.15036 22.4604 7.58421 22.605C8.86289 23.0312 10.3559 23.3724 11.9938 23.6107C12.2321 25.2486 12.5733 26.7416 12.9995 28.0203ZM13.4723 6.73042C10.169 7.942 7.54649 10.5645 6.33491 13.8678C6.73204 13.697 7.15035 13.5396 7.58421 13.395C8.86289 12.9688 10.3559 12.6276 11.9938 12.3893C12.2321 10.7514 12.5733 9.2584 12.9995 7.97972C13.1441 7.54586 13.3015 7.12755 13.4723 6.73042ZM18.1468 6.44935C18.0259 6.29325 17.7984 5.9994 17.6041 6C17.4093 6.0012 17.1836 6.29258 17.0624 6.44903C17.051 6.46379 17.0405 6.47735 17.031 6.48936C16.6407 6.98462 16.2236 7.79424 15.8455 8.9284C15.5434 9.83485 15.2835 10.8959 15.0807 12.0756C15.9024 12.0258 16.7459 12 17.6045 12C18.4631 12 19.3066 12.0258 20.1283 12.0756C19.9255 10.8959 19.6656 9.83485 19.3634 8.9284C18.9854 7.79424 18.5683 6.98462 18.178 6.48936C18.1686 6.47748 18.1582 6.46402 18.1468 6.44935ZM8.53289 19.759C7.39873 19.3809 6.58912 18.9638 6.09385 18.5735C5.80798 18.3482 5.60478 18.1736 5.60449 18C5.60421 17.8248 5.80939 17.6507 6.09385 17.4265C6.58912 17.0362 7.39873 16.6191 8.53289 16.241C9.43934 15.9389 10.5004 15.679 11.6801 15.4762C11.6303 16.2979 11.6045 17.1414 11.6045 18C11.6045 18.8586 11.6303 19.7021 11.6801 20.5238C10.5004 20.321 9.43934 20.0611 8.53289 19.759Z" fill="white"/>
<path d="M35.6891 17.7295C36.1651 18.324 36.0781 19.1716 35.5518 19.7221C35.0445 20.2526 34.1667 20.1419 33.7188 19.5603C33.5292 19.314 33.3161 19.0601 33.0784 18.8065C31.7335 17.3719 29.606 15.9473 26.3622 15.9473C23.1184 15.9473 20.9909 17.3719 19.646 18.8065C19.4391 19.0272 19.2509 19.2482 19.0805 19.4641C18.6209 20.0469 17.7287 20.1434 17.2297 19.594C16.7222 19.0355 16.652 18.1957 17.1304 17.6121C17.3034 17.4012 17.4899 17.1873 17.6906 16.9732C19.4231 15.1252 22.2197 13.2669 26.3622 13.2669C30.5047 13.2669 33.3013 15.1252 35.0338 16.9732C35.2719 17.2271 35.49 17.4808 35.6891 17.7295Z" fill="white"/>
<path d="M32.9122 20.7659C33.3606 21.3226 33.2629 22.116 32.7689 22.6327C32.2437 23.1819 31.294 23.0207 30.815 22.4308C30.7218 22.3161 30.6203 22.1995 30.5103 22.0829C29.6788 21.2028 28.3545 20.3243 26.3622 20.3243C25.0636 20.3243 24.0487 20.6975 23.2691 21.2012C22.8527 21.4702 22.5034 21.7765 22.2139 22.0829C22.1118 22.191 22.0172 22.2991 21.9297 22.4057C21.4416 23.0002 20.4692 23.1529 19.9506 22.5848C19.4753 22.0642 19.3923 21.2819 19.8369 20.7348C19.9652 20.577 20.1044 20.4165 20.2549 20.2559C21.4745 18.955 23.4504 17.6438 26.3619 17.6438C29.2734 17.6438 31.2493 18.955 32.4689 20.2559C32.6232 20.4205 32.7711 20.5906 32.9122 20.7659Z" fill="white"/>
<path d="M30.0676 23.7218C30.5446 24.2827 30.4089 25.1009 29.9001 25.633C29.326 26.2334 28.5633 26.1895 28.0711 25.5203C28.0329 25.4684 27.9924 25.4186 27.9486 25.3719C27.6298 25.0319 27.1438 24.7013 26.3617 24.7013C25.5797 24.7013 25.0936 25.0319 24.7748 25.3719C24.702 25.4496 24.638 25.5341 24.5789 25.6221C24.1148 26.3137 23.3139 26.2912 22.7539 25.6748C22.2665 25.1383 22.1358 24.3429 22.6002 23.7864C22.6715 23.7008 22.7449 23.6182 22.8194 23.5387C23.4646 22.8504 24.4841 22.1534 25.9361 22.0376C26.0741 22.0266 26.2159 22.0209 26.3617 22.0209C27.756 22.0209 28.7886 22.5468 29.5035 23.1564C29.6503 23.2816 29.7837 23.4103 29.9041 23.5387C29.9601 23.5984 30.0146 23.6595 30.0676 23.7218Z" fill="white"/>
<path d="M26.3612 27.4919C25.0167 27.4919 23.9268 28.5818 23.9268 29.9263C23.9268 31.2708 25.0167 32.3608 26.3612 32.3608C27.7057 32.3608 28.7957 31.2708 28.7957 29.9263C28.7957 28.5818 27.7057 27.4919 26.3612 27.4919Z" fill="white"/>
</svg>
