<svg width="37" height="36" viewBox="0 0 37 36" fill="none" xmlns="http://www.w3.org/2000/svg">
<path d="M13.8786 12.718C13.8786 11.7239 14.6845 10.918 15.6786 10.918H23.5278C24.5219 10.918 25.3278 11.7239 25.3278 12.718V19.6347C25.3278 20.6288 24.5219 21.4347 23.5278 21.4347C22.5337 21.4347 21.7278 20.6288 21.7278 19.6347V16.8125L14.3815 23.5399C14.0285 23.8638 13.5607 24.0339 13.0822 24.012C12.6035 23.9901 12.1533 23.7783 11.8313 23.4235L11.8258 23.4174L9.33758 20.5211L3.14846 26.2913C2.45603 26.9995 1.32064 27.0154 0.608723 26.3253C-0.10509 25.6334 -0.122852 24.4938 0.569051 23.78L0.577995 23.7708L8.10982 16.6386C8.45564 16.2845 8.93214 16.0883 9.42724 16.0965C9.92458 16.1047 10.3964 16.3183 10.7306 16.6867L10.736 16.6926L13.287 19.6585L18.9034 14.518H15.6786C14.6845 14.518 13.8786 13.7121 13.8786 12.718Z" fill="white"/>
<path d="M26.8621 29.675C25.9955 28.7463 26.0459 27.2909 26.9746 26.4243C27.9033 25.5577 29.3588 25.6081 30.2253 26.5368L35.4437 32.1294C36.3103 33.0582 36.2599 34.5136 35.3311 35.3802C34.4024 36.2467 32.947 36.1964 32.0804 35.2676L26.8621 29.675Z" fill="white"/>
<path d="M28.6797 17.542C28.6797 23.6171 23.7548 28.542 17.6797 28.542C14.1398 28.542 10.9905 26.8699 8.97842 24.2725C8.82664 24.0765 8.53613 24.0515 8.36087 24.2268L6.08749 26.5001C5.94478 26.6429 5.9303 26.8699 6.05799 27.0262C8.80867 30.3928 12.9932 32.542 17.6797 32.542C25.964 32.542 32.6797 25.8263 32.6797 17.542C32.6797 9.25772 25.964 2.54199 17.6797 2.54199C9.39542 2.54199 2.67969 9.25772 2.67969 17.542C2.67969 17.588 2.67989 17.634 2.68031 17.6799C2.6834 18.0235 3.09376 18.1802 3.33672 17.9372L7.19033 14.0836C7.23384 14.0401 7.26665 13.9869 7.28685 13.9288C8.78171 9.62853 12.8702 6.54199 17.6797 6.54199C23.7548 6.54199 28.6797 11.4669 28.6797 17.542Z" fill="white"/>
</svg>
