<svg width="37" height="36" viewBox="0 0 37 36" fill="none" xmlns="http://www.w3.org/2000/svg">
<path d="M23.5224 13.5607C23.5224 16.6129 21.0856 19.0872 18.0796 19.0872C15.0736 19.0872 12.6368 16.6129 12.6368 13.5607C12.6368 10.5085 15.0736 8.03415 18.0796 8.03415C21.0856 8.03415 23.5224 10.5085 23.5224 13.5607Z" fill="white"/>
<path fill-rule="evenodd" clip-rule="evenodd" d="M26.8176 28.5594C24.3181 30.5598 21.3092 31.6522 17.8477 31.6522C9.64752 31.6522 3 24.9024 3 16.5761C3 8.24981 9.64752 1.5 17.8477 1.5C26.0478 1.5 32.6953 8.24981 32.6953 16.5761C32.6953 19.9155 31.7679 22.844 29.9643 25.3355L35.4085 31.1736C36.256 32.0824 36.2063 33.5061 35.2975 34.3536C34.3887 35.2011 32.9649 35.1514 32.1175 34.2426L26.8176 28.5594ZM25.7553 24.9925C27.8356 22.9148 29.0719 19.9602 29.0719 16.5761C29.0719 9.9671 23.8442 5.01155 17.8477 5.01155C11.8511 5.01155 6.55347 9.9671 6.55347 16.5761C6.55347 20.0931 7.90862 23.1463 10.1575 25.2333C10.7734 23.8779 11.7569 22.7007 13.0122 21.831C14.5391 20.7731 16.3835 20.2286 18.262 20.2812C20.1405 20.3338 21.9492 20.9805 23.4101 22.1221C24.4092 22.9028 25.2078 23.8854 25.7553 24.9925Z" fill="white"/>
</svg>
