<svg width="36" height="36" viewBox="0 0 36 36" fill="none" xmlns="http://www.w3.org/2000/svg">
<path fill-rule="evenodd" clip-rule="evenodd" d="M0 7.5C0 5.01472 2.01472 3 4.5 3H28.5C30.9853 3 33 5.01472 33 7.5V8.75019C33 9.04082 32.728 9.25443 32.439 9.22351C32.2799 9.20649 32.1183 9.19775 31.9547 9.19775H21C18.5789 9.19775 16.6044 11.1097 16.504 13.506H3V28.5C3 29.3284 3.67157 30 4.5 30H16.05C16.2985 30 16.5 30.2015 16.5 30.45V31.5C16.5 31.8624 16.5 32.2122 16.5 32.55C16.5 32.7985 16.2985 33 16.05 33H4.5C2.01472 33 0 30.9853 0 28.5V7.5ZM6.00879 9.84902C6.83722 9.84902 7.50879 9.17745 7.50879 8.34902C7.50879 7.52059 6.83722 6.84902 6.00879 6.84902C5.18036 6.84902 4.50879 7.52059 4.50879 8.34902C4.50879 9.17745 5.18036 9.84902 6.00879 9.84902ZM10.5088 9.84902C11.3372 9.84902 12.0088 9.17745 12.0088 8.34902C12.0088 7.52059 11.3372 6.84902 10.5088 6.84902C9.68036 6.84902 9.00879 7.52059 9.00879 8.34902C9.00879 9.17745 9.68036 9.84902 10.5088 9.84902ZM16.5088 8.34902C16.5088 9.17745 15.8372 9.84902 15.0088 9.84902C14.1804 9.84902 13.5088 9.17745 13.5088 8.34902C13.5088 7.52059 14.1804 6.84902 15.0088 6.84902C15.8372 6.84902 16.5088 7.52059 16.5088 8.34902Z" fill="white"/>
<path d="M5.59541 18C5.59541 17.1716 6.26698 16.5 7.09541 16.5H14.6232C15.4516 16.5 16.1232 17.1716 16.1232 18V25.4959C16.1232 26.3244 15.4516 26.9959 14.6232 26.9959H7.09541C6.26698 26.9959 5.59541 26.3244 5.59541 25.4959V18Z" fill="white"/>
<path fill-rule="evenodd" clip-rule="evenodd" d="M18.5684 13.6841C18.5684 12.4516 19.5675 11.4525 20.7999 11.4525H31.9579C33.1904 11.4525 34.1895 12.4516 34.1895 13.6841V33.7684C34.1895 35.0009 33.1904 36 31.9579 36H20.7999C19.5675 36 18.5684 35.0009 18.5684 33.7684V13.6841ZM23.0315 29.3052C22.4153 29.3052 21.9157 29.8048 21.9157 30.421C21.9157 31.0373 22.4153 31.5368 23.0315 31.5368H29.7263C30.3425 31.5368 30.8421 31.0373 30.8421 30.421C30.8421 29.8048 30.3425 29.3052 29.7263 29.3052H23.0315ZM24.7052 13.1262C24.3971 13.1262 24.1473 13.376 24.1473 13.6841C24.1473 13.9922 24.3971 14.242 24.7052 14.242H28.0526C28.3607 14.242 28.6105 13.9922 28.6105 13.6841C28.6105 13.376 28.3607 13.1262 28.0526 13.1262H24.7052ZM21.8115 18.3329C21.8115 17.5045 22.4831 16.8329 23.3115 16.8329H29.3159C30.1443 16.8329 30.8159 17.5045 30.8159 18.3329V24.5187C30.8159 25.3471 30.1443 26.0187 29.3159 26.0187H23.3115C22.4831 26.0187 21.8115 25.3471 21.8115 24.5187V18.3329Z" fill="white"/>
</svg>
