<svg width="36" height="36" viewBox="0 0 36 36" fill="none" xmlns="http://www.w3.org/2000/svg">
<path d="M10.4971 29.5C10.4971 28.9477 10.9448 28.5 11.4971 28.5H24.4971C25.0494 28.5 25.4971 28.9477 25.4971 29.5V30.5C25.4971 31.0523 25.0494 31.5 24.4971 31.5H11.4971C10.9448 31.5 10.4971 31.0523 10.4971 30.5V29.5Z" fill="white"/>
<path fill-rule="evenodd" clip-rule="evenodd" d="M5.34926 4.5C3.22337 4.5 1.5 6.1775 1.5 8.24681V23.234C1.5 25.3033 3.22337 26.9808 5.34926 26.9808L30.6458 27C32.7717 27 34.4951 25.3225 34.4951 23.2532V8.26593C34.4951 6.19663 32.7717 4.51913 30.6458 4.51913L5.34926 4.5ZM8.21227 8.24996C7.38384 8.24996 6.71227 8.92153 6.71227 9.74996V12.75C6.71227 13.5784 7.38384 14.25 8.21227 14.25H11.2123C12.0407 14.25 12.7123 13.5784 12.7123 12.75V9.74996C12.7123 8.92153 12.0407 8.24996 11.2123 8.24996H8.21227ZM8.21227 17.25C7.38384 17.25 6.71227 17.9215 6.71227 18.75V21.75C6.71227 22.5784 7.38384 23.25 8.21227 23.25H11.2123C12.0407 23.25 12.7123 22.5784 12.7123 21.75V18.75C12.7123 17.9215 12.0407 17.25 11.2123 17.25H8.21227ZM29.897 11.9434C30.2354 12.366 30.1735 12.9684 29.7994 13.3597C29.4388 13.7368 28.8149 13.6581 28.4966 13.2447C28.3618 13.0696 28.2104 12.8891 28.0414 12.7088C27.0855 11.6892 25.5733 10.6766 23.2677 10.6766C20.9621 10.6766 19.45 11.6892 18.494 12.7088C18.347 12.8657 18.2132 13.0228 18.0921 13.1763C17.7654 13.5905 17.1313 13.6591 16.7765 13.2686C16.4159 12.8716 16.3659 12.2747 16.706 11.86C16.8289 11.71 16.9615 11.558 17.1042 11.4058C18.3356 10.0923 20.3233 8.77148 23.2677 8.77148C26.2121 8.77148 28.1998 10.0923 29.4313 11.4058C29.6005 11.5863 29.7555 11.7666 29.897 11.9434ZM27.9233 14.1015C28.242 14.4972 28.1725 15.0612 27.8214 15.4284C27.4481 15.8188 26.7731 15.7042 26.4326 15.285C26.3664 15.2034 26.2943 15.1205 26.216 15.0377C25.6251 14.4121 24.6838 13.7877 23.2677 13.7877C22.3447 13.7877 21.6233 14.053 21.0692 14.411C20.7732 14.6022 20.525 14.8199 20.3192 15.0377C20.2466 15.1145 20.1794 15.1913 20.1172 15.2671C19.7703 15.6897 19.0791 15.7982 18.7105 15.3944C18.3727 15.0243 18.3137 14.4683 18.6297 14.0795C18.7209 13.9673 18.8198 13.8532 18.9268 13.7391C19.7937 12.8145 21.1981 11.8825 23.2675 11.8825C25.3369 11.8825 26.7414 12.8145 27.6082 13.7391C27.7179 13.8561 27.823 13.977 27.9233 14.1015ZM25.9014 16.2026C26.2404 16.6012 26.144 17.1827 25.7823 17.561C25.3743 17.9878 24.8322 17.9565 24.4824 17.4809C24.4552 17.4439 24.4264 17.4086 24.3953 17.3754C24.1687 17.1337 23.8232 16.8987 23.2674 16.8987C22.7115 16.8987 22.366 17.1337 22.1394 17.3754C22.0877 17.4306 22.0422 17.4907 22.0002 17.5533C21.6703 18.0448 21.1011 18.0288 20.703 17.5906C20.3566 17.2093 20.2637 16.644 20.5938 16.2484C20.6445 16.1876 20.6966 16.1289 20.7496 16.0724C21.2082 15.5832 21.9328 15.0877 22.9649 15.0055C23.0629 14.9976 23.1637 14.9936 23.2674 14.9936C24.2584 14.9936 24.9923 15.3674 25.5005 15.8007C25.6048 15.8896 25.6996 15.9811 25.7852 16.0724C25.825 16.1149 25.8637 16.1583 25.9014 16.2026ZM23.267 18.8822C22.3114 18.8822 21.5367 19.6569 21.5367 20.6125C21.5367 21.5682 22.3114 22.3429 23.267 22.3429C24.2227 22.3429 24.9973 21.5682 24.9973 20.6125C24.9973 19.6569 24.2227 18.8822 23.267 18.8822Z" fill="white"/>
</svg>
