<svg width="36" height="36" viewBox="0 0 36 36" fill="none" xmlns="http://www.w3.org/2000/svg">
<path d="M36 4.5C36 2.01472 33.9853 0 31.5 0C29.0147 0 27 2.01472 27 4.5C27 6.48224 28.2817 8.16513 30.0615 8.76518V16.6081H27.7559V19.6081H30.0615C31.7184 19.6081 33.0615 18.265 33.0615 16.6081V8.72169C34.7771 8.0869 36 6.43626 36 4.5Z" fill="white"/>
<path d="M8.72506 2.94763C8.09277 1.22725 6.4397 0 4.5 0C2.01472 0 0 2.01472 0 4.5C0 6.98528 2.01472 9 4.5 9C6.47884 9 8.15936 7.72272 8.76208 5.94763H16.4033V8.24515H19.4033V5.94763C19.4033 4.29078 18.0602 2.94763 16.4033 2.94763H8.72506Z" fill="white"/>
<path d="M5.82422 27.198C7.66322 27.7634 9 29.4756 9 31.5C9 33.9853 6.98528 36 4.5 36C2.01472 36 0 33.9853 0 31.5C0 29.607 1.16886 27.987 2.82422 27.3224V19.5248C2.82422 17.868 4.16737 16.5248 5.82422 16.5248H8.2462V19.5248H5.82422V27.198Z" fill="white"/>
<path d="M36 31.5C36 29.0147 33.9853 27 31.5 27C29.5337 27 27.862 28.2611 27.2495 30.0187H19.4032V27.7548H16.4032V30.0187C16.4032 31.6755 17.7464 33.0187 19.4032 33.0187H27.2627C27.8857 34.7567 29.5477 36 31.5 36C33.9853 36 36 33.9853 36 31.5Z" fill="white"/>
<path d="M25.5 13.5C25.5 11.8431 24.1569 10.5 22.5 10.5H13.5C11.8431 10.5 10.5 11.8431 10.5 13.5V22.5C10.5 24.1569 11.8431 25.5 13.5 25.5H22.5C24.1569 25.5 25.5 24.1569 25.5 22.5V13.5Z" fill="white"/>
</svg>
