<svg width="36" height="36" viewBox="0 0 36 36" fill="none" xmlns="http://www.w3.org/2000/svg">
<path fill-rule="evenodd" clip-rule="evenodd" d="M24.3076 3.03906C24.3076 2.21064 23.636 1.53906 22.8076 1.53906H16.8076C15.9792 1.53906 15.3076 2.21064 15.3076 3.03906C15.3076 3.86749 15.9792 4.53906 16.8076 4.53906H18.3018V6.98232C14.9154 7.36148 11.9078 8.99331 9.75292 11.4037H3.97266C3.14423 11.4037 2.47266 12.0753 2.47266 12.9037C2.47266 13.7321 3.14423 14.4037 3.97266 14.4037H10.8031C10.8346 14.4037 10.8658 14.4027 10.8969 14.4008C11.6809 14.4499 12.3016 15.1014 12.3016 15.8978C12.3016 16.7263 11.6301 17.3978 10.8016 17.3978H6.65517L6.65384 17.4037H1.5C0.671573 17.4037 0 18.0753 0 18.9037C0 19.7321 0.671573 20.4037 1.5 20.4037H8.30135C9.06724 20.4712 9.66785 21.1144 9.66785 21.8978C9.66785 22.7263 8.99627 23.3978 8.16785 23.3978H6.65517L6.6565 23.4037H3.97266C3.14423 23.4037 2.47266 24.0753 2.47266 24.9037C2.47266 25.7321 3.14423 26.4037 3.97266 26.4037H10.8031C10.8346 26.4037 10.8658 26.4027 10.8969 26.4008C11.6809 26.4499 12.3016 27.1014 12.3016 27.8978C12.3016 28.7263 11.6301 29.3978 10.8016 29.3978H9.75816C12.2301 32.1597 15.8224 33.8978 19.8206 33.8978C27.2765 33.8978 33.3206 27.8537 33.3206 20.3978C33.3206 13.4425 28.0608 7.71572 21.3018 6.97815V4.53906H22.8076C23.636 4.53906 24.3076 3.86749 24.3076 3.03906ZM24.4105 14.2249C24.9087 13.7267 25.7163 13.7267 26.2145 14.2249C26.7127 14.7231 26.7127 15.5308 26.2145 16.0289L22.6968 19.5466C22.7766 19.8165 22.8193 20.1022 22.8193 20.3979C22.8193 22.0547 21.4762 23.3979 19.8193 23.3979C18.1625 23.3979 16.8193 22.0547 16.8193 20.3979C16.8193 18.741 18.1625 17.3979 19.8193 17.3979C20.2375 17.3979 20.6357 17.4834 20.9974 17.638L24.4105 14.2249Z" fill="white"/>
</svg>
