<svg width="36" height="36" viewBox="0 0 36 36" fill="none" xmlns="http://www.w3.org/2000/svg">
<path d="M25.2001 15.6001C25.2001 14.606 26.006 13.8001 27.0001 13.8001H30.6001C31.5942 13.8001 32.4001 14.606 32.4001 15.6001V34.2001C32.4001 35.1942 31.5942 36.0001 30.6001 36.0001H27.0001C26.006 36.0001 25.2001 35.1942 25.2001 34.2001V15.6001Z" fill="white"/>
<path d="M16.2001 19.5001C15.206 19.5001 14.4001 20.306 14.4001 21.3001V34.2001C14.4001 35.1942 15.206 36.0001 16.2001 36.0001H19.8001C20.7942 36.0001 21.6001 35.1942 21.6001 34.2001V21.3001C21.6001 20.306 20.7942 19.5001 19.8001 19.5001H16.2001Z" fill="white"/>
<path d="M5.4001 25.2001C4.40599 25.2001 3.6001 26.006 3.6001 27.0001V34.2001C3.6001 35.1942 4.40599 36.0001 5.4001 36.0001H9.0001C9.99421 36.0001 10.8001 35.1942 10.8001 34.2001V27.0001C10.8001 26.006 9.99421 25.2001 9.0001 25.2001H5.4001Z" fill="white"/>
<path fill-rule="evenodd" clip-rule="evenodd" d="M21.2926 2.34814C21.2926 1.51972 21.9642 0.848145 22.7926 0.848145H30.6418C31.4702 0.848145 32.1418 1.51972 32.1418 2.34814V9.2648C32.1418 10.0932 31.4702 10.7648 30.6418 10.7648C29.8134 10.7648 29.1418 10.0932 29.1418 9.2648V5.76115L17.6756 16.2862C17.3814 16.5562 16.9917 16.6978 16.5928 16.6796C16.1939 16.6613 15.8188 16.4848 15.5504 16.1891L12.4813 12.8068L6.43556 19.0441C5.85897 19.6389 4.90934 19.6537 4.31449 19.0771C3.71965 18.5005 3.70485 17.5509 4.28143 16.9561L11.4404 9.57044C11.7289 9.2728 12.1277 9.10782 12.5421 9.11464C12.9566 9.12146 13.3497 9.29949 13.6283 9.60645L16.7583 13.0559L26.7895 3.84814H22.7926C21.9642 3.84814 21.2926 3.17657 21.2926 2.34814Z" fill="white"/>
</svg>
