<svg width="36" height="36" viewBox="0 0 36 36" fill="none" xmlns="http://www.w3.org/2000/svg">
<path d="M19.7251 9.61168C19.7251 10.5654 18.952 11.3385 17.9983 11.3385C17.0446 11.3385 16.2715 10.5654 16.2715 9.61168C16.2715 8.65798 17.0446 7.88486 17.9983 7.88486C18.952 7.88486 19.7251 8.65798 19.7251 9.61168Z" fill="white"/>
<path fill-rule="evenodd" clip-rule="evenodd" d="M25.468 9.64491C26.797 10.4122 27.2523 12.1116 26.485 13.4406L25.5588 15.0448C24.7915 16.3739 23.0921 16.8292 21.7631 16.0619L21.7055 16.0286V16.0952C21.7055 17.6298 20.4614 18.8739 18.9268 18.8739H17.0744C15.5398 18.8739 14.2958 17.6298 14.2958 16.0952V16.0287L14.2382 16.062C12.9092 16.8293 11.2098 16.3739 10.4425 15.0449L9.51628 13.4407C8.74899 12.1117 9.20434 10.4123 10.5333 9.64498L10.591 9.61168L10.5334 9.57841C9.20439 8.81111 8.74904 7.11172 9.51634 5.78272L10.4426 4.17847C11.2099 2.84947 12.9092 2.39412 14.2382 3.16142L14.2958 3.19464V3.12825C14.2958 1.59365 15.5398 0.349609 17.0744 0.349609H18.9268C20.4614 0.349609 21.7055 1.59365 21.7055 3.12825V3.19475L21.7631 3.1615C23.0921 2.3942 24.7915 2.84955 25.5588 4.17855L26.485 5.7828C27.2523 7.1118 26.7969 8.81119 25.4679 9.57849L25.4104 9.61168L25.468 9.64491ZM17.9981 13.3481C20.0616 13.3481 21.7345 11.6753 21.7345 9.61174C21.7345 7.5482 20.0616 5.87537 17.9981 5.87537C15.9345 5.87537 14.2617 7.5482 14.2617 9.61174C14.2617 11.6753 15.9345 13.3481 17.9981 13.3481Z" fill="white"/>
<path d="M29.1001 13.7006C29.0393 13.8479 28.9681 13.9928 28.8862 14.1345L27.8937 16.3489C26.8892 18.0888 24.661 18.9476 22.9212 17.9431L22.8457 17.8995V17.9867C22.8457 19.9957 21.2204 21.3617 19.2114 21.3617H16.7863C14.7772 21.3617 13.0677 19.9926 13.0677 17.9836V17.8965L12.9923 17.94C11.2524 18.9446 9.10853 18.0889 8.10401 16.349L7.02344 14.125C6.94194 13.9838 6.87097 13.8395 6.8103 13.6928L2.91052 15.8466C1.34298 16.6912 1.3559 18.128 2.93854 18.9631L15.522 25.603C16.9256 26.3437 19.0763 26.3437 20.4799 25.603L33.0633 18.9631C34.646 18.128 34.6589 16.6912 33.0913 15.8466L29.1001 13.7006Z" fill="white"/>
<path d="M2.93854 21.1765C2.86066 21.1354 2.78658 21.0928 2.7163 21.049C1.34703 21.9038 1.42424 23.2537 2.93854 24.0528L15.522 30.6927C16.9256 31.4334 19.0763 31.4334 20.4799 30.6927L33.0633 24.0528C34.5776 23.2537 34.6548 21.9038 33.2856 21.049C33.2153 21.0928 33.1412 21.1354 33.0633 21.1765L20.4799 27.8164C19.0763 28.557 16.9256 28.557 15.522 27.8164L2.93854 21.1765Z" fill="white"/>
<path d="M2.94147 26.0782C2.81988 26.014 2.70756 25.9463 2.60451 25.8756C1.3556 26.7327 1.47079 28.0283 2.94147 28.8044L15.5249 35.4443C16.9286 36.1849 19.0792 36.1849 20.4828 35.4443L33.0663 28.8044C34.5369 28.0283 34.6521 26.7327 33.4032 25.8756C33.3002 25.9463 33.1878 26.014 33.0663 26.0782L20.4828 32.7181C19.0792 33.4588 16.9286 33.4588 15.5249 32.7181L2.94147 26.0782Z" fill="white"/>
</svg>
