<svg width="36" height="36" viewBox="0 0 36 36" fill="none" xmlns="http://www.w3.org/2000/svg">
<path d="M9.08496 4.5C9.08496 3.67157 9.75653 3 10.585 3C11.4134 3 12.085 3.67157 12.085 4.5V6H24.085V4.5C24.085 3.67157 24.7565 3 25.585 3C26.4134 3 27.085 3.67157 27.085 4.5V6H28.585C31.0702 6 33.085 8.01472 33.085 10.5V12.3818C33.085 13.5428 31.8713 12.9409 31.5616 12.8006C30.117 12.1458 28.5128 11.7812 26.8234 11.7812C23.7258 11.7812 20.9145 13.007 18.8481 15H6.08496V25.5C6.08496 26.3284 6.75653 27 7.58496 27H15.6309C15.8231 27 15.9933 27.1225 16.0608 27.3025C16.3189 27.9912 16.6412 28.6485 17.0204 29.2671C17.2123 29.5803 16.9953 30 16.628 30H7.58496C5.09968 30 3.08496 27.9853 3.08496 25.5V10.5C3.08496 8.01472 5.09968 6 7.58496 6H9.08496V4.5Z" fill="white"/>
<path fill-rule="evenodd" clip-rule="evenodd" d="M26.9862 32.2838C31.9638 32.2838 35.999 28.2486 35.999 23.2709C35.999 18.2933 31.9638 14.2581 26.9862 14.2581C22.0085 14.2581 17.9733 18.2933 17.9733 23.2709C17.9733 28.2486 22.0085 32.2838 26.9862 32.2838ZM26.0849 18.7645C26.0849 18.2667 26.4884 17.8632 26.9862 17.8632C27.4839 17.8632 27.8874 18.2667 27.8874 18.7645V23.2709H31.4926C31.9904 23.2709 32.3939 23.6745 32.3939 24.1722C32.3939 24.67 31.9904 25.0735 31.4926 25.0735H26.9862C26.4884 25.0735 26.0849 24.67 26.0849 24.1722V18.7645Z" fill="white"/>
</svg>
