<svg width="36" height="36" viewBox="0 0 36 36" fill="none" xmlns="http://www.w3.org/2000/svg">
<path fill-rule="evenodd" clip-rule="evenodd" d="M5.01346 5.02314C5.34222 4.68818 5.78812 4.5 6.25306 4.5L29.7469 4.58912C30.7151 4.58912 31.5 5.38879 31.5 6.37523V12.9151C31.5 13.9016 30.3213 14.7013 29.3531 14.7013C28.3849 14.7013 27.1606 13.9016 27.1606 12.9151V9.19902L20.6302 9.14051V28.8444L23.5542 28.9029C24.5224 28.9029 25.3072 29.9948 25.3072 30.9812C25.3072 31.9677 24.5224 33 23.5542 33H12.3335C11.3653 33 10.5805 31.9677 10.5805 30.9812C10.5805 29.9948 11.3653 28.9029 12.3335 28.9029H15.3086V9.19901H8.95984V12.9151C8.95984 13.9016 7.64421 14.7012 6.67602 14.7012C5.70784 14.7012 4.5 13.8124 4.5 12.826L4.5 6.28611C4.5 5.8124 4.6847 5.3581 5.01346 5.02314Z" fill="white"/>
<path fill-rule="evenodd" clip-rule="evenodd" d="M5.03172 19.1968C5.03172 18.6166 5.4934 18.1462 6.06293 18.1462H29.8009C30.3704 18.1462 30.8321 18.6166 30.8321 19.1968C30.8321 19.7771 30.3704 20.2475 29.8009 20.2475H6.06293C5.4934 20.2475 5.03172 19.7771 5.03172 19.1968Z" fill="white"/>
</svg>
