<svg width="36" height="36" viewBox="0 0 36 36" fill="none" xmlns="http://www.w3.org/2000/svg">
<path fill-rule="evenodd" clip-rule="evenodd" d="M1.5 7.5C1.5 5.01472 3.51472 3 6 3H30C32.4853 3 34.5 5.01472 34.5 7.5V12.006C34.5 12.8345 33.8282 13.506 32.9998 13.506C31.6131 13.506 30.4741 13.506 30 13.506H4.5V28.5C4.5 29.3284 5.17157 30 6 30H12.1279C12.2983 30 12.4606 30.0725 12.5744 30.1993L14.6385 32.4996C14.8118 32.6928 14.6747 33 14.4152 33H6C3.51472 33 1.5 30.9853 1.5 28.5V7.5ZM7.50879 9.84902C8.33722 9.84902 9.00879 9.17745 9.00879 8.34902C9.00879 7.52059 8.33722 6.84902 7.50879 6.84902C6.68036 6.84902 6.00879 7.52059 6.00879 8.34902C6.00879 9.17745 6.68036 9.84902 7.50879 9.84902ZM12.0088 9.84902C12.8372 9.84902 13.5088 9.17745 13.5088 8.34902C13.5088 7.52059 12.8372 6.84902 12.0088 6.84902C11.1804 6.84902 10.5088 7.52059 10.5088 8.34902C10.5088 9.17745 11.1804 9.84902 12.0088 9.84902ZM18.0088 8.34902C18.0088 9.17745 17.3372 9.84902 16.5088 9.84902C15.6804 9.84902 15.0088 9.17745 15.0088 8.34902C15.0088 7.52059 15.6804 6.84902 16.5088 6.84902C17.3372 6.84902 18.0088 7.52059 18.0088 8.34902Z" fill="white"/>
<path d="M19.6432 26.2509C19.6428 24.2824 20.0564 21.4453 23.3596 18.7678C24.6005 17.7619 26.1152 17.5649 27.7639 17.3505C29.7584 17.0912 31.949 16.8063 34.0886 15.0329C34.7052 14.5218 35.7274 14.8209 35.8104 15.6175C36.6077 23.2704 35.253 31.0168 24.7519 31.4338L19.6432 26.2509Z" fill="white"/>
<path d="M16.2578 27.5048C16.8298 26.9328 17.7573 26.9328 18.3293 27.5048L23.5893 32.7646C24.1614 33.3366 24.1614 34.2641 23.5893 34.8362L22.8543 35.5711C22.2823 36.1432 21.3548 36.1432 20.7828 35.5711L15.5228 30.3114C14.9507 29.7393 14.9507 28.8119 15.5228 28.2398L16.2578 27.5048Z" fill="white"/>
</svg>
