<svg width="36" height="36" viewBox="0 0 36 36" fill="none" xmlns="http://www.w3.org/2000/svg">
<path d="M16.4561 17.9865H5.25C4.42157 17.9865 3.75 18.658 3.75 19.4865L3.75019 19.5105L3.75 19.5346V22.5404C3.75 23.3688 4.42157 24.0404 5.25 24.0404C6.07843 24.0404 6.75 23.3688 6.75 22.5404V20.9865H16.4561V22.5625C16.4561 23.3909 17.1276 24.0625 17.9561 24.0625C18.7845 24.0625 19.4561 23.3909 19.4561 22.5625V20.9865H29.25V22.5404C29.25 23.3688 29.9216 24.0404 30.75 24.0404C31.5784 24.0404 32.25 23.3688 32.25 22.5404V19.5593L32.2496 19.5229L32.25 19.4865C32.25 18.658 31.5784 17.9865 30.75 17.9865H19.4561C19.6951 17.9866 16.4561 17.9865 16.4561 17.9865Z" fill="white"/>
<path d="M18 25.5C15.1005 25.5 12.75 27.8505 12.75 30.75C12.75 33.6495 15.1005 36 18 36C20.8995 36 23.25 33.6495 23.25 30.75C23.25 27.8505 20.8995 25.5 18 25.5Z" fill="white"/>
<path d="M25.5 30.75C25.5 27.8505 27.8505 25.5 30.75 25.5C33.6495 25.5 36 27.8505 36 30.75C36 33.6495 33.6495 36 30.75 36C27.8505 36 25.5 33.6495 25.5 30.75Z" fill="white"/>
<path d="M5.25 25.5C2.35051 25.5 0 27.8505 0 30.75C0 33.6495 2.35051 36 5.25 36C8.1495 36 10.5 33.6495 10.5 30.75C10.5 27.8505 8.1495 25.5 5.25 25.5Z" fill="white"/>
<path d="M21.7334 3.73291C21.7334 5.79454 20.0621 7.46582 18.0005 7.46582C15.9389 7.46582 14.2676 5.79454 14.2676 3.73291C14.2676 1.67128 15.9389 0 18.0005 0C20.0621 0 21.7334 1.67128 21.7334 3.73291Z" fill="white"/>
<path d="M18.0021 8.39795C14.7832 8.39795 12.8527 9.42485 11.7627 10.7902C10.7092 12.1097 10.5414 13.6222 10.5381 14.4591C10.5347 15.3006 11.3199 15.8499 12.1249 15.8499H23.8792C24.6842 15.8499 25.4694 15.3006 25.466 14.4591C25.4627 13.6222 25.2949 12.1097 24.2414 10.7902C23.1514 9.42485 21.221 8.39795 18.0021 8.39795Z" fill="white"/>
</svg>
