<svg width="36" height="36" viewBox="0 0 36 36" fill="none" xmlns="http://www.w3.org/2000/svg">
<path fill-rule="evenodd" clip-rule="evenodd" d="M17.3106 1.3677C17.7243 1.08577 18.2729 1.08577 18.6866 1.3677L21.2197 3.09374C21.4145 3.22643 21.6447 3.29988 21.8816 3.30492L24.9642 3.37048C25.4677 3.38119 25.9115 3.6978 26.0774 4.16469L27.0935 7.02305C27.1716 7.24278 27.3139 7.43507 27.5026 7.57591L29.9572 9.40804C30.3581 9.70731 30.5276 10.2196 30.3824 10.6931L29.4934 13.592C29.425 13.8148 29.425 14.0525 29.4934 14.2753L30.3824 17.1742C30.5276 17.6477 30.3581 18.16 29.9572 18.4593L27.5026 20.2914C27.3139 20.4323 27.1716 20.6245 27.0935 20.8443L26.0774 23.7026C25.9115 24.1695 25.4677 24.4861 24.9642 24.4968L21.8816 24.5624C21.6447 24.5674 21.4145 24.6409 21.2197 24.7736L18.6866 26.4996C18.2729 26.7816 17.7243 26.7816 17.3106 26.4996L14.7775 24.7736C14.5828 24.6409 14.3525 24.5674 14.1156 24.5624L11.033 24.4968C10.5295 24.4861 10.0857 24.1695 9.91976 23.7026L8.90369 20.8443C8.82559 20.6245 8.68331 20.4323 8.49462 20.2914L6.04003 18.4593C5.6391 18.16 5.46958 17.6477 5.6148 17.1742L6.50385 14.2753C6.5722 14.0525 6.5722 13.8148 6.50385 13.592L5.6148 10.6931C5.46958 10.2196 5.6391 9.70731 6.04003 9.40804L8.49462 7.57591C8.68331 7.43507 8.82559 7.24278 8.90369 7.02305L9.91976 4.16469C10.0857 3.6978 10.5295 3.3812 11.033 3.37048L14.1156 3.30492C14.3525 3.29988 14.5828 3.22643 14.7775 3.09374L17.3106 1.3677ZM15.7995 10.6258C15.7995 10.3773 16.001 10.1758 16.2495 10.1758H17.1915C17.44 10.1758 17.6415 10.3773 17.6415 10.6258V15.1014C17.6415 15.6707 17.506 16.1666 17.2351 16.5892C16.9641 17.0093 16.5863 17.3349 16.1016 17.5661C15.6168 17.7948 15.0538 17.9092 14.4125 17.9092C13.7637 17.9092 13.1969 17.7948 12.7122 17.5661C12.2275 17.3349 11.8509 17.0093 11.5824 16.5892C11.3139 16.1666 11.1797 15.6707 11.1797 15.1014V10.6258C11.1797 10.3773 11.3812 10.1758 11.6297 10.1758H12.5754C12.8239 10.1758 13.0254 10.3773 13.0254 10.6258V14.9411C13.0254 15.2046 13.0826 15.4395 13.1969 15.6458C13.3137 15.8522 13.4766 16.0137 13.6854 16.1306C13.8942 16.2474 14.1365 16.3058 14.4125 16.3058C14.6884 16.3058 14.9295 16.2474 15.1358 16.1306C15.3446 16.0137 15.5075 15.8522 15.6243 15.6458C15.7411 15.4395 15.7995 15.2046 15.7995 14.9411V10.6258ZM20.4068 10.1758C20.5675 10.1758 20.7159 10.2615 20.7964 10.4006L22.046 12.5624C22.0552 12.5784 22.0723 12.5883 22.0909 12.5883C22.1093 12.5883 22.1263 12.5785 22.1356 12.5626L23.3998 10.3988C23.4805 10.2607 23.6284 10.1758 23.7883 10.1758H24.7986C25.1489 10.1758 25.3648 10.5584 25.1838 10.8584L23.434 13.7578C23.3465 13.9027 23.3478 14.0845 23.4373 14.2282L25.2417 17.1242C25.4284 17.424 25.2129 17.8122 24.8598 17.8122H23.81C23.6504 17.8122 23.5028 17.7277 23.422 17.5901L22.1357 15.3994C22.1264 15.3834 22.1093 15.3736 22.0908 15.3736C22.0723 15.3736 22.0552 15.3834 22.0458 15.3994L20.7596 17.5901C20.6788 17.7277 20.5311 17.8122 20.3715 17.8122H19.3347C18.982 17.8122 18.7664 17.4248 18.9523 17.125L20.7487 14.2282C20.8378 14.0845 20.8388 13.9029 20.7513 13.7582L18.9985 10.8586C18.8173 10.5587 19.0332 10.1758 19.3837 10.1758H20.4068Z" fill="white"/>
<path d="M11.9971 35.1759V26.8765L13.2569 26.9033C13.5461 26.9094 13.827 26.999 14.0646 27.1609L17.1556 29.2671C17.6604 29.6112 18.3298 29.6112 18.8347 29.2671L21.9257 27.1609C22.1633 26.999 22.4442 26.9094 22.7334 26.9033L23.9992 26.8763V35.1759C23.9992 35.7577 23.3654 36.118 22.8655 35.8203L18.3818 33.1509C18.1454 33.0101 17.8509 33.0101 17.6144 33.1509L13.1307 35.8203C12.6308 36.118 11.9971 35.7577 11.9971 35.1759Z" fill="white"/>
</svg>
