<svg width="36" height="36" viewBox="0 0 36 36" fill="none" xmlns="http://www.w3.org/2000/svg">
<path d="M23.4397 6.62094C23.4397 9.44916 21.147 11.7419 18.3188 11.7419C15.4905 11.7419 13.1978 9.44916 13.1978 6.62094C13.1978 3.79272 15.4905 1.5 18.3188 1.5C21.147 1.5 23.4397 3.79272 23.4397 6.62094Z" fill="white"/>
<path d="M24.6838 26.8237L20.9534 29.0552C20.5678 29.2858 20.5745 29.8467 20.9655 30.0681L28.212 34.1713C28.5703 34.3742 29.0105 34.3667 29.3617 34.1518L29.9874 33.7691C32.3211 32.3414 32.568 29.0459 30.4731 27.2864C30.3126 27.1516 30.1454 27.0282 29.9726 26.9163H32.2375C33.3357 26.9163 34.2259 26.0261 34.2259 24.9279C34.2259 23.8298 33.3357 22.9395 32.2375 22.9395H30.9587C30.7721 22.9395 30.5966 22.8507 30.4862 22.7002L24.2992 14.2693C23.7472 13.517 22.8699 13.0726 21.9367 13.0726H13.7015C12.7608 13.0726 11.8772 13.5243 11.3262 14.2868L5.24999 22.6967C5.1398 22.8492 4.96309 22.9395 4.77493 22.9395H3.76233C2.66416 22.9395 1.77393 23.8298 1.77393 24.9279C1.77393 26.0261 2.66416 26.9163 3.76233 26.9163H5.96728C5.32704 27.2823 4.75702 27.7914 4.30892 28.4318C2.52018 30.9882 4.34905 34.5 7.46909 34.5H22.2956C22.8984 34.5 23.1086 33.6994 22.5834 33.4034L11.0479 26.9003C10.1052 26.3688 9.06049 26.1655 8.05106 26.2589C8.26357 26.086 8.45322 25.8822 8.61275 25.6512L12.4286 20.1258V24.4974C12.4286 25.0194 12.7064 25.502 13.1577 25.7643L16.4671 27.6873C17.3995 28.2291 18.5543 28.215 19.4732 27.6505L22.5352 25.7696C22.9691 25.503 23.2335 25.0303 23.2335 24.5211V20.1258L26.9393 25.6238C27.0609 25.8042 27.2007 25.9684 27.3554 26.1147C26.437 26.0959 25.5102 26.3294 24.6838 26.8237Z" fill="white"/>
</svg>
