<svg width="36" height="36" viewBox="0 0 36 36" fill="none" xmlns="http://www.w3.org/2000/svg">
<path d="M9.17175 25.9951C9.17175 27.9987 7.5475 29.6229 5.54388 29.6229C3.54027 29.6229 1.91602 27.9987 1.91602 25.9951C1.91602 23.9914 3.54027 22.3672 5.54388 22.3672C7.5475 22.3672 9.17175 23.9914 9.17175 25.9951Z" fill="white"/>
<path d="M34.0887 16.3905C34.0887 18.3941 32.4645 20.0183 30.4609 20.0183C28.4573 20.0183 26.833 18.3941 26.833 16.3905C26.833 14.3869 28.4573 12.7626 30.4609 12.7626C32.4645 12.7626 34.0887 14.3869 34.0887 16.3905Z" fill="white"/>
<path d="M5.54297 22V19.209C5.54297 10.6437 17.8863 10.583 17.8863 19.209L17.8865 23.427C17.8865 31.579 30.4589 31.4084 30.4589 23.427C30.4589 22.0224 30.4587 23.3752 30.4587 20.5M9.17175 25.9951C9.17175 27.9987 7.5475 29.6229 5.54388 29.6229C3.54027 29.6229 1.91602 27.9987 1.91602 25.9951C1.91602 23.9914 3.54027 22.3672 5.54388 22.3672C7.5475 22.3672 9.17175 23.9914 9.17175 25.9951ZM34.0887 16.3905C34.0887 18.3941 32.4645 20.0183 30.4609 20.0183C28.4573 20.0183 26.833 18.3941 26.833 16.3905C26.833 14.3869 28.4573 12.7626 30.4609 12.7626C32.4645 12.7626 34.0887 14.3869 34.0887 16.3905Z" stroke="white" stroke-width="2" stroke-linecap="round"/>
<path d="M22.6386 0.518555C21.499 0.518555 20.5752 1.51303 20.5752 2.73978L20.5435 13.2365C20.5419 13.7891 20.9887 14.2383 21.5414 14.2395L22.3076 14.2412C22.8609 14.2424 23.3099 13.7942 23.3098 13.241L23.309 9.40344H29.0833C30.2367 9.40344 30.8779 7.96715 30.1574 6.99757L28.6439 4.961L30.1574 2.92443C30.8779 1.95484 30.2367 0.518555 29.0833 0.518555H22.6386Z" fill="white"/>
</svg>
