<svg width="36" height="36" viewBox="0 0 36 36" fill="none" xml:space="preserve" xmlns="http://www.w3.org/2000/svg">
<g fill="#fff" style="stroke-width:3.42718">
<path d="M24.43 8.062c-5.27 0-9.544 4.271-9.544 9.54v65.122c0 5.27 4.273 9.54 9.545 9.54h23.288a1.24 1.24 0 0 0 1.204-.932l.12-.476c.374-1.47.801-3.157 1.443-5.226q.07-.228.14-.487c.347-1.248.851-3.064 3.408-5.639.966-.972 5.1-5.024 10.133-9.957 7.1-6.96 15.992-15.673 20.306-19.975L14.886 92.265l69.587-42.693.004-.007V17.603c0-5.27-4.274-9.54-9.545-9.54zm5.26 15.197a3.817 3.817 0 1 0 0 7.632h39.98a3.817 3.817 0 1 0 0-7.632zm-3.817 19.28a3.817 3.817 0 0 1 3.818-3.817H69.67a3.817 3.817 0 1 1 0 7.633H29.69a3.817 3.817 0 0 1-3.817-3.817m3.818 11.647a3.817 3.817 0 1 0 0 7.632H49.63a3.817 3.817 0 1 0 0-7.632z" fill-rule="evenodd" style="stroke-width:3.42718" transform="translate(-3.686 -2.305)scale(.38905)"/>
<path d="M86.709 54.435a5.79 5.79 0 0 1 8.192 0 5.8 5.8 0 0 1 0 8.2l-6.338 6.344-8.193-8.2zm-10.25 10.283 8.192 8.2-19.6 19.594a8.53 8.53 0 0 1-3.714 2.18l-5.488 1.553c-1.504.425-2.906-.934-2.529-2.451l1.395-5.612a8.5 8.5 0 0 1 2.24-3.967z" style="stroke-width:3.42718" transform="translate(-3.686 -2.305)scale(.38905)"/>
</g>
</svg>