<svg width="36" height="36" viewBox="0 0 36 36" fill="none" xmlns="http://www.w3.org/2000/svg">
<path fill-rule="evenodd" clip-rule="evenodd" d="M8.79506 2.90234C6.89731 2.90234 5.35889 4.44006 5.35889 6.33692V29.7807C5.35889 31.6775 6.89731 33.2153 8.79506 33.2153H17.1787C17.3831 33.2153 17.5618 33.0775 17.6122 32.8794C17.6265 32.8232 17.641 32.7661 17.6557 32.7082C17.7899 32.1786 17.9438 31.5716 18.1748 30.8268C18.1918 30.7721 18.208 30.7138 18.2253 30.6515C18.3501 30.202 18.5318 29.5483 19.4521 28.6216C19.7999 28.2714 21.288 26.8129 23.1001 25.0369C25.6563 22.5316 28.8571 19.3945 30.4104 17.8459L-nan -nanL30.4104 17.8459C30.4112 17.8452 30.4116 17.8443 30.4116 17.8433V6.33692C30.4116 4.44006 28.8732 2.90234 26.9754 2.90234H8.79506ZM10.6887 8.37325C9.92961 8.37325 9.31424 8.98833 9.31424 9.74708C9.31424 10.5058 9.92961 11.1209 10.6887 11.1209H25.0811C25.8402 11.1209 26.4556 10.5058 26.4556 9.74708C26.4556 8.98833 25.8402 8.37325 25.0811 8.37325H10.6887ZM9.31424 15.3139C9.31424 14.5551 9.92961 13.94 10.6887 13.94H25.0811C25.8402 13.94 26.4556 14.5551 26.4556 15.3139C26.4556 16.0726 25.8402 16.6877 25.0811 16.6877H10.6887C9.92961 16.6877 9.31424 16.0726 9.31424 15.3139ZM10.6887 19.5068C9.92961 19.5068 9.31424 20.1219 9.31424 20.8806C9.31424 21.6394 9.92961 22.2545 10.6887 22.2545H17.8666C18.6257 22.2545 19.2411 21.6394 19.2411 20.8806C19.2411 20.1219 18.6257 19.5068 17.8666 19.5068H10.6887Z" fill="white"/>
<path d="M31.2152 19.5967C32.0296 18.7815 33.35 18.7815 34.1644 19.5967C34.9788 20.4118 34.9788 21.7334 34.1644 22.5485L31.8825 24.8325L28.9333 21.8806L31.2152 19.5967Z" fill="white"/>
<path d="M27.5251 23.2986L30.4744 26.2504L23.4181 33.3045C23.0468 33.6761 22.5866 33.9463 22.0813 34.0893L20.1055 34.6482C19.5642 34.8014 19.0596 34.3121 19.1954 33.7657L19.6973 31.7455C19.8317 31.205 20.1106 30.7112 20.5041 30.3173L27.5251 23.2986Z" fill="white"/>
</svg>
