<svg width="36" height="36" viewBox="0 0 36 36" fill="none" xmlns="http://www.w3.org/2000/svg">
<path d="M11.7949 2.1154C11.9174 1.74789 12.2613 1.5 12.6487 1.5H23.3513C23.7387 1.5 24.0826 1.74789 24.2051 2.1154L25.1051 4.81539C25.2994 5.39817 24.8656 6 24.2513 6H11.7487C11.1344 6 10.7006 5.39817 10.8949 4.81539L11.7949 2.1154Z" fill="white"/>
<path d="M24.2051 33.8846C24.0826 34.2521 23.7387 34.5 23.3513 34.5H12.6487C12.2613 34.5 11.9174 34.2521 11.7949 33.8846L10.8949 31.1846C10.7006 30.6018 11.1344 30 11.7487 30H24.2513C24.8656 30 25.2994 30.6018 25.1051 31.1846L24.2051 33.8846Z" fill="white"/>
<path fill-rule="evenodd" clip-rule="evenodd" d="M24 28.5C26.4853 28.5 28.5 26.4853 28.5 24L28.5 12C28.5 9.51472 26.4853 7.5 24 7.5L12 7.5C9.51472 7.5 7.5 9.51472 7.5 12V24C7.5 26.4853 9.51472 28.5 12 28.5L24 28.5ZM24 23.0999C24 23.5141 23.6642 23.8499 23.25 23.8499L20.25 23.8499C19.8358 23.8499 19.5 23.5141 19.5 23.0999L19.5 20.0999C19.5 19.6856 19.8358 19.3499 20.25 19.3499L23.25 19.3499C23.6642 19.3499 24 19.6856 24 20.0999L24 23.0999ZM16.5 23.0999C16.5 23.5141 16.1642 23.8499 15.75 23.8499H12.75C12.3358 23.8499 12 23.5141 12 23.0999V20.0999C12 19.6856 12.3358 19.3499 12.75 19.3499H15.75C16.1642 19.3499 16.5 19.6856 16.5 20.0999V23.0999ZM24 15.5519C24 15.9661 23.6642 16.3019 23.25 16.3019L12.75 16.3019C12.3358 16.3019 12 15.9661 12 15.5519L12 12.5519C12 12.1377 12.3358 11.8019 12.75 11.8019L23.25 11.8019C23.6642 11.8019 24 12.1377 24 12.5519V15.5519Z" fill="white"/>
</svg>
