<svg width="36" height="36" viewBox="0 0 36 36" fill="none" xmlns="http://www.w3.org/2000/svg">
<path fill-rule="evenodd" clip-rule="evenodd" d="M1.62891 7.5C1.62891 5.01472 3.64363 3 6.12891 3H30.1289C32.6142 3 34.6289 5.01472 34.6289 7.5V12.006C34.6289 12.8345 33.9571 13.506 33.1287 13.506C31.742 13.506 30.603 13.506 30.1289 13.506H4.62891V28.5C4.62891 29.3284 5.30048 30 6.12891 30H12.133C12.3034 30 12.4658 30.0725 12.5796 30.1993L14.6436 32.4996C14.817 32.6928 14.6799 33 14.4203 33H6.12891C3.64362 33 1.62891 30.9853 1.62891 28.5V7.5ZM7.6377 9.84902C8.46612 9.84902 9.1377 9.17745 9.1377 8.34902C9.1377 7.52059 8.46612 6.84902 7.6377 6.84902C6.80927 6.84902 6.1377 7.52059 6.1377 8.34902C6.1377 9.17745 6.80927 9.84902 7.6377 9.84902ZM12.1377 9.84902C12.9661 9.84902 13.6377 9.17745 13.6377 8.34902C13.6377 7.52059 12.9661 6.84902 12.1377 6.84902C11.3093 6.84902 10.6377 7.52059 10.6377 8.34902C10.6377 9.17745 11.3093 9.84902 12.1377 9.84902ZM18.1377 8.34902C18.1377 9.17745 17.4661 9.84902 16.6377 9.84902C15.8093 9.84902 15.1377 9.17745 15.1377 8.34902C15.1377 7.52059 15.8093 6.84902 16.6377 6.84902C17.4661 6.84902 18.1377 7.52059 18.1377 8.34902Z" fill="white"/>
<path d="M34.0551 16.0789L28.0634 22.0706C27.2477 21.6627 26.1453 21.7342 25.369 22.5105C24.4488 23.4306 24.4488 24.9224 25.369 25.8425C26.2891 26.7626 27.7809 26.7626 28.701 25.8425C29.4773 25.0662 29.5093 23.7569 29.0935 23.1007L35.1014 17.0928C35.4872 16.707 36.1968 17.0133 35.9463 17.6258C35.7859 18.0179 34.3353 22.1442 33.2725 25.1672C32.6753 26.8658 32.2006 28.2162 32.1461 28.3597C31.9947 28.7588 31.4567 29.5748 30.8316 29.8874L25.7292 32.4386C25.2271 32.6897 24.6206 32.5912 24.2236 32.1943L18.8489 26.8195C18.4404 26.4111 18.3493 25.7826 18.6249 25.2749L21.3159 20.3178C21.6348 19.7303 22.1671 19.2876 22.803 19.0812L33.52 15.2348C34.0346 15.0501 34.4417 15.6923 34.0551 16.0789Z" fill="white"/>
<path d="M17.9162 27.8829C17.4068 27.3736 16.581 27.3736 16.0716 27.8829L15.4172 28.5374C14.9078 29.0468 14.9078 29.8726 15.4172 30.382L20.6532 35.618C21.1625 36.1274 21.9884 36.1274 22.4978 35.618L23.1522 34.9635C23.6616 34.4542 23.6616 33.6283 23.1522 33.1189L17.9162 27.8829Z" fill="white"/>
</svg>
