<svg width="36" height="36" viewBox="0 0 36 36" fill="none" xmlns="http://www.w3.org/2000/svg">
<path d="M3 6.00146C3 4.3438 4.3438 3 6.00146 3H29.9985C31.6562 3 33 4.3438 33 6.00146V12.0056C33 13.6633 31.6562 15.0071 29.9985 15.0071H6.00146C4.3438 15.0071 3 13.6633 3 12.0056V6.00146Z" fill="white"/>
<path d="M4.5 18C3.67157 18 3 18.6716 3 19.5C3 20.3284 3.67157 21 4.5 21H13.5C14.3284 21 15 20.3284 15 19.5C15 18.6716 14.3284 18 13.5 18H4.5Z" fill="white"/>
<path d="M3 25.5C3 24.6716 3.67157 24 4.5 24H13.5C14.3284 24 15 24.6716 15 25.5C15 26.3284 14.3284 27 13.5 27H4.5C3.67157 27 3 26.3284 3 25.5Z" fill="white"/>
<path d="M19.828 32.7624C20.188 32.9154 20.5841 33 21 33H30C30.4155 33 30.8112 32.9155 31.171 32.7629L25.4993 27.0911L19.828 32.7624Z" fill="white"/>
<path d="M32.7623 31.1722C32.9154 30.8121 33 30.4159 33 30V21C33 20.5841 32.9154 20.188 32.7624 19.828L27.0903 25.5001L32.7623 31.1722Z" fill="white"/>
<path d="M31.1712 18.2372C30.8113 18.0845 30.4155 18 30 18H21C20.5841 18 20.1879 18.0846 19.8278 18.2377L25.4993 23.9091L31.1712 18.2372Z" fill="white"/>
<path d="M18.2371 19.829L23.9083 25.5001L18.2372 31.1712C18.0845 30.8113 18 30.4155 18 30V21C18 20.5845 18.0845 20.1888 18.2371 19.829Z" fill="white"/>
<path d="M3 31.5C3 30.6716 3.67157 30 4.5 30H13.5C14.3284 30 15 30.6716 15 31.5C15 32.3284 14.3284 33 13.5 33H4.5C3.67157 33 3 32.3284 3 31.5Z" fill="white"/>
</svg>
