<svg width="36" height="36" viewBox="0 0 36 36" fill="none" xmlns="http://www.w3.org/2000/svg">
<path d="M18.0005 7.46583C20.0621 7.46583 21.7334 5.79454 21.7334 3.73291C21.7334 1.67128 20.0621 0 18.0005 0C15.9389 0 14.2676 1.67128 14.2676 3.73291C14.2676 5.79454 15.9389 7.46583 18.0005 7.46583Z" fill="white"/>
<path d="M11.7627 10.7902C12.8527 9.42485 14.7832 8.39795 18.0021 8.39795C21.221 8.39795 23.1514 9.42485 24.2414 10.7902C25.2949 12.1097 25.4627 13.6222 25.466 14.4591C25.4694 15.3007 24.6842 15.8499 23.8792 15.8499H12.1249C11.3199 15.8499 10.5347 15.3006 10.5381 14.4591C10.5414 13.6222 10.7092 12.1097 11.7627 10.7902Z" fill="white"/>
<path d="M7.4624 26.3294C9.52403 26.3294 11.1953 24.6581 11.1953 22.5964C11.1953 20.5348 9.52403 18.8635 7.4624 18.8635C5.40077 18.8635 3.72949 20.5348 3.72949 22.5964C3.72949 24.6581 5.40077 26.3294 7.4624 26.3294Z" fill="white"/>
<path d="M1.22462 29.6537C2.31462 28.2884 4.24507 27.2615 7.46398 27.2615C10.6829 27.2615 12.6133 28.2884 13.7033 29.6537C14.7568 30.9733 14.9246 32.4857 14.928 33.3226C14.9313 34.1642 14.1461 34.7135 13.3411 34.7135H1.58685C0.781834 34.7135 -0.00335801 34.1642 1.08014e-05 33.3226C0.00336102 32.4857 0.171151 30.9733 1.22462 29.6537Z" fill="white"/>
<path d="M32.2686 22.5964C32.2686 24.6581 30.5973 26.3294 28.5356 26.3294C26.474 26.3294 24.8027 24.6581 24.8027 22.5964C24.8027 20.5348 26.474 18.8635 28.5356 18.8635C30.5973 18.8635 32.2686 20.5348 32.2686 22.5964Z" fill="white"/>
<path d="M28.5372 27.2615C25.3183 27.2615 23.3879 28.2884 22.2979 29.6537C21.2444 30.9733 21.0766 32.4857 21.0733 33.3226C21.0699 34.1642 21.8551 34.7135 22.6601 34.7135H34.4143C35.2194 34.7135 36.0046 34.1642 36.0012 33.3226C35.9978 32.4857 35.8301 30.9733 34.7766 29.6537C33.6866 28.2884 31.7561 27.2615 28.5372 27.2615Z" fill="white"/>
<path d="M19.0494 18.0476C19.0494 17.4677 18.5793 16.9976 17.9994 16.9976C17.4195 16.9976 16.9494 17.4677 16.9494 18.0476V21.4325H13.9102C13.3303 21.4325 12.8602 21.9026 12.8602 22.4825C12.8602 23.0624 13.3303 23.5325 13.9102 23.5325H22.1004C22.6803 23.5325 23.1504 23.0624 23.1504 22.4825C23.1504 21.9026 22.6803 21.4325 22.1004 21.4325H19.0494V18.0476Z" fill="white"/>
</svg>
