<svg width="36" height="36" viewBox="0 0 36 36" fill="none" xmlns="http://www.w3.org/2000/svg">
<path d="M18.7088 3.53793C18.4753 2.86626 17.5254 2.86626 17.2919 3.53793L16.4083 6.07988C16.3053 6.37618 16.0288 6.57708 15.7152 6.58347L13.0246 6.6383C12.3137 6.65279 12.0201 7.5562 12.5868 7.9858L14.7313 9.61164C14.9813 9.80116 15.0869 10.1262 14.996 10.4265L14.2168 13.0023C14.0108 13.6829 14.7793 14.2413 15.363 13.8351L17.572 12.298C17.8294 12.1188 18.1712 12.1188 18.4287 12.298L20.6377 13.8351C21.2214 14.2413 21.9898 13.6829 21.7839 13.0023L21.0046 10.4265C20.9138 10.1262 21.0194 9.80116 21.2694 9.61164L23.4139 7.9858C23.9805 7.5562 23.687 6.65279 22.9761 6.6383L20.2855 6.58347C19.9719 6.57708 19.6953 6.37618 19.5923 6.07988L18.7088 3.53793Z" fill="white"/>
<path d="M13.5 17.9999C12.6716 17.9999 12 18.6715 12 19.4999V32.9999H24V19.4999C24 18.6715 23.3284 17.9999 22.5 17.9999H13.5Z" fill="white"/>
<path d="M4.5 25.4999C3.67157 25.4999 3 26.1715 3 26.9999V32.9999H9V25.4999H4.5Z" fill="white"/>
<path d="M27 25.4999H31.5C32.3284 25.4999 33 26.1715 33 26.9999V32.9999H27V25.4999Z" fill="white"/>
</svg>
