<svg width="36" height="36" viewBox="0 0 36 36" fill="none" xmlns="http://www.w3.org/2000/svg">
<path fill-rule="evenodd" clip-rule="evenodd" d="M5.60778 14.0663C5.67617 14.1922 5.71217 14.3351 5.71217 14.4805V32.2514C5.71217 33.494 6.71953 34.5014 7.96217 34.5014H28.1136C29.3563 34.5014 30.3636 33.494 30.3636 32.2514V14.4805C30.3636 14.3351 30.3996 14.1922 30.468 14.0663L32.3961 11.5108C32.7888 10.9903 33.0012 10.356 33.0012 9.70393V2.69883C33.0012 2.03609 32.464 1.49883 31.8012 1.49883L26.2353 1.4988C25.8211 1.4988 25.4853 1.83459 25.4853 2.2488V4.90623C25.4853 5.32044 25.1495 5.65623 24.7353 5.65623H22.5876C22.1734 5.65623 21.8376 5.32044 21.8376 4.90623V2.2488C21.8376 1.8346 21.5018 1.49882 21.0876 1.4988L14.9289 1.49854C14.5146 1.49852 14.1788 1.83431 14.1788 2.24854V4.90623C14.1788 5.32044 13.8431 5.65623 13.4288 5.65623H11.265C10.8508 5.65623 10.515 5.32044 10.515 4.90623V2.24882C10.515 1.83461 10.1793 1.49883 9.76506 1.49882L4.20743 1.4987C3.54469 1.49869 3.00742 2.03594 3.00741 2.69869L3.00732 9.68276C3.00732 10.3478 3.22829 10.994 3.63551 11.5198L5.60778 14.0663ZM12.9814 19.3692C12.9814 16.6022 15.2236 14.3496 18.0011 14.3496C20.7786 14.3496 23.0207 16.6022 23.0207 19.3692V22.8889C23.0207 23.7173 22.3492 24.3889 21.5207 24.3889H14.4814C13.653 24.3889 12.9814 23.7173 12.9814 22.8889V19.3692Z" fill="white"/>
</svg>
