<svg width="37" height="36" viewBox="0 0 37 36" fill="none" xmlns="http://www.w3.org/2000/svg">
<path fill-rule="evenodd" clip-rule="evenodd" d="M1.8335 7.5C1.8335 5.84315 3.17664 4.5 4.8335 4.5H28.8335C30.4903 4.5 31.8335 5.84314 31.8335 7.5V13.4995C33.6552 14.8678 34.8335 17.0463 34.8335 19.5C34.8335 21.9537 33.6552 24.1322 31.8335 25.5005V32.6893C31.8335 33.3575 31.0256 33.6921 30.5532 33.2197L27.8638 30.5303C27.5709 30.2374 27.0961 30.2374 26.8032 30.5303L24.1138 33.2197C23.6414 33.6921 22.8335 33.3575 22.8335 32.6893V27H4.8335C3.17664 27 1.8335 25.6569 1.8335 24V7.5ZM9.3335 10.5C8.50507 10.5 7.8335 11.1716 7.8335 12C7.8335 12.8284 8.50507 13.5 9.3335 13.5H18.3335C19.1619 13.5 19.8335 12.8284 19.8335 12C19.8335 11.1716 19.1619 10.5 18.3335 10.5H9.3335ZM7.8335 18C7.8335 17.1716 8.50507 16.5 9.3335 16.5H13.8335C14.6619 16.5 15.3335 17.1716 15.3335 18C15.3335 18.8284 14.6619 19.5 13.8335 19.5H9.3335C8.50507 19.5 7.8335 18.8284 7.8335 18ZM27.3335 24C29.8188 24 31.8335 21.9853 31.8335 19.5C31.8335 17.0147 29.8188 15 27.3335 15C24.8482 15 22.8335 17.0147 22.8335 19.5C22.8335 21.9853 24.8482 24 27.3335 24Z" fill="white"/>
</svg>
