<svg width="37" height="36" viewBox="0 0 37 36" fill="none" xmlns="http://www.w3.org/2000/svg">
<path d="M19.3688 1.52832C18.3172 1.52832 17.4648 2.44135 17.4648 3.56763L17.4318 11.9351C16.8378 12.0137 16.3152 12.385 16.049 12.9334L14.912 15.2754L18.2304 17.5048C18.5957 17.7502 19.0752 17.7418 19.4317 17.4838L22.4686 15.2854L21.3332 12.9363C21.0731 12.3983 20.5666 12.0301 19.9875 11.9407V9.68558H26.299C27.3633 9.68558 27.955 8.36691 27.2902 7.47673L25.8936 5.60695L27.2902 3.73716C27.955 2.84698 27.3633 1.52832 26.299 1.52832H19.3688Z" fill="white"/>
<path d="M27.0935 24.8536L28.8358 22.5421C29.6187 21.5035 31.2108 21.6125 31.8448 22.748L36.2081 30.5621C36.9897 31.9619 35.9778 33.6859 34.3745 33.6859L3.05946 33.686C1.47226 33.686 0.458766 31.993 1.20852 30.594L5.28099 22.9952C5.92469 21.7942 7.61777 21.7162 8.36915 22.853L9.6952 24.8593C9.79475 25.0099 9.93548 25.1247 10.0971 25.1926L13.7212 17.7281L17.5932 20.3295C18.3759 20.8554 19.4035 20.8374 20.1673 20.2845L23.6621 17.7546L27.0935 24.8536Z" fill="white"/>
</svg>
