<svg width="37" height="36" viewBox="0 0 37 36" fill="none" xmlns="http://www.w3.org/2000/svg">
<path d="M1.08478 13.2273C1.02129 13.4011 1.15976 13.5673 1.34479 13.5673H9.87023L6.3704 5.16311C6.27612 4.9367 5.96477 4.91294 5.83722 5.12241L4.89832 6.66434L1.47731 12.4478C1.41946 12.544 1.21378 12.8742 1.08478 13.2273Z" fill="white"/>
<path d="M32.833 7.22653L31.6573 5.29576C31.5299 5.08638 31.2187 5.11 31.1243 5.33622L27.6885 13.5673H35.9678C36.1591 13.5673 36.3001 13.3904 36.233 13.2113C36.107 12.8747 35.9384 12.5955 35.8965 12.5242L32.833 7.22653Z" fill="white"/>
<path d="M35.2709 16.4265C35.4222 16.2323 35.2815 15.9546 35.0352 15.9561L27.1036 16.0029L22.4089 30.5223L29.6682 22.6001L29.6988 22.5665C29.6988 22.5665 34.4703 17.3901 34.8518 16.943C34.9968 16.7731 35.1441 16.5892 35.2709 16.4265Z" fill="white"/>
<path d="M19.8993 32.4154C20.2864 31.1955 24.6026 16.0029 24.6026 16.0029H12.8677C12.8677 16.0029 16.9622 31.2068 17.3282 32.4154C17.6941 33.624 19.5122 33.6352 19.8993 32.4154Z" fill="white"/>
<path d="M14.3291 29.7997L14.7842 30.3509L10.4863 16.0029H2.39943C2.14312 16.0029 2.00617 16.3023 2.17619 16.4941C2.23719 16.5629 2.30176 16.6353 2.36785 16.7088C2.69706 17.0745 14.3291 29.7997 14.3291 29.7997Z" fill="white"/>
<path d="M20.573 3.32446C23.3201 3.32446 26.0849 3.32933 28.8738 3.32985C29.0879 3.32989 29.2331 3.54782 29.1506 3.74545L25.6405 12.1548L20.573 3.32446Z" fill="white"/>
<path d="M16.8006 3.32446H8.69135C8.4773 3.32446 8.33212 3.54219 8.41441 3.73979L11.8256 11.9312L16.8006 3.32446Z" fill="white"/>
<path d="M18.4253 5.37798C18.5411 5.1778 18.8302 5.17825 18.9453 5.37879L23.6445 13.5673H13.6916L18.4253 5.37798Z" fill="white"/>
</svg>
