<svg width="36" height="36" viewBox="0 0 36 36" fill="none" xmlns="http://www.w3.org/2000/svg">
<path fill-rule="evenodd" clip-rule="evenodd" d="M18.4784 33C10.4996 33 5.2501 26.25 6.03683 18.9036C6.68364 12.8637 13.5299 4.42411 17.2744 1.64182C17.8061 1.24677 18.3691 1.73269 18.247 2.41421C17.2744 5.50271 16.8751 9.75 20.5935 11.8306C20.9175 12.0159 21.3223 11.9324 21.5249 11.6038C22.083 10.6981 22.3142 9.49123 22.4099 8.47217C22.4798 7.72745 23.2015 7.33159 23.6842 7.87182C25.8951 10.3459 28.7385 15.4931 29.4812 17.9314C30.75 22.0968 31.4991 33 18.4784 33ZM18.1458 27.8411C14.5638 27.8411 13.1268 25.097 13.5833 22.8433C14.0127 20.7236 16.5908 17.6143 17.7856 16.326C17.9738 16.1231 18.2974 16.1411 18.4779 16.3509C18.5782 16.4676 18.6921 16.5982 18.8167 16.7409C20.0501 18.1545 22.3227 20.7592 22.7323 22.8102C23.1889 25.097 21.7301 27.8411 18.1458 27.8411Z" fill="white"/>
</svg>
