<svg width="37" height="36" viewBox="0 0 37 36" fill="none" xmlns="http://www.w3.org/2000/svg">
<path d="M19.8335 11.7437C20.5762 11.4814 21.2295 11.0288 21.7363 10.4458C22.4204 9.65625 22.8335 8.62646 22.8335 7.5C22.8335 5.01416 20.8193 3 18.3335 3C15.8477 3 13.8335 5.01416 13.8335 7.5C13.8335 9.45996 15.0859 11.1255 16.8335 11.7437V19.5C16.8335 20.3291 17.5044 21 18.3335 21C18.7832 21 19.186 20.8037 19.46 20.4917C19.6929 20.2266 19.8335 19.8794 19.8335 19.5V11.7437Z" fill="white"/>
<path d="M9.70264 15C8.50439 15 7.42188 15.7119 6.94727 16.812L3.57959 24.6211L3.51807 24.7764L3.46533 24.9302C3.44629 24.9917 3.42871 25.0547 3.41553 25.1177L3.39502 25.2056C3.354 25.4033 3.3335 25.6055 3.3335 25.8091V30C3.3335 31.6567 4.67676 33 6.3335 33H30.3335C31.9902 33 33.3335 31.6567 33.3335 30V25.8091C33.3335 25.4004 33.25 24.9961 33.0874 24.6211L29.7197 16.812C29.2451 15.7119 28.1626 15 26.9644 15H24.6426C24.2485 15 23.8896 15.1523 23.6216 15.3999C23.3271 15.6738 23.1426 16.0649 23.1426 16.5C23.1426 16.998 23.3843 17.439 23.7578 17.7114C23.897 17.8125 24.0537 17.8916 24.2236 17.9414C24.3569 17.9795 24.4976 18 24.6426 18H26.9644L29.5527 24H7.11426L9.70264 18H12.0244C12.8535 18 13.5244 17.3291 13.5244 16.5C13.5244 15.6709 12.8535 15 12.0244 15H9.70264Z" fill="white"/>
</svg>
