<svg width="37" height="36" viewBox="0 0 37 36" fill="none" xmlns="http://www.w3.org/2000/svg">
<path d="M20.1665 21.0006H30.6665V30.0006C30.6665 31.6574 29.3234 33.0006 27.6665 33.0006H20.1665V21.0006Z" fill="white"/>
<path d="M17.1665 21.0006V33.0006H9.6665C8.00965 33.0006 6.6665 31.6574 6.6665 30.0006V21.0006H17.1665Z" fill="white"/>
<path fill-rule="evenodd" clip-rule="evenodd" d="M3.6665 13.5006C3.6665 12.6722 4.33808 12.0006 5.1665 12.0006H9.77782C7.99774 10.2393 7.55607 7.43345 9.01486 5.2707C10.6743 2.81043 14.0268 2.31862 16.4585 3.95887C17.2059 4.46299 17.7803 5.29124 18.2033 6.02719C18.3653 6.30911 18.52 6.6045 18.6665 6.90487C18.813 6.6045 18.9677 6.30911 19.1297 6.02719C19.5527 5.29124 20.1271 4.46299 20.8745 3.95887C23.3063 2.31862 26.6587 2.81043 28.3181 5.2707C29.7769 7.43345 29.3353 10.2393 27.5552 12.0006H32.1665C32.9949 12.0006 33.6665 12.6722 33.6665 13.5006V16.5006C33.6665 17.329 32.9949 18.0006 32.1665 18.0006H5.1665C4.33808 18.0006 3.6665 17.329 3.6665 16.5006V13.5006ZM12.2646 10.1766C11.0907 9.38483 10.8452 7.922 11.502 6.94828C12.1588 5.97456 13.607 5.65416 14.7809 6.44598C14.935 6.54988 15.2292 6.87295 15.6022 7.522C15.95 8.12723 16.2813 8.86304 16.5729 9.59973C16.7136 9.95531 16.8421 10.3035 16.9561 10.6271C16.6133 10.6427 16.2423 10.6539 15.8599 10.6567C15.0677 10.6623 14.2613 10.6308 13.5699 10.535C12.8284 10.4323 12.4186 10.2805 12.2646 10.1766ZM25.831 6.94828C26.4878 7.922 26.2424 9.38483 25.0684 10.1766C24.9144 10.2805 24.5046 10.4323 23.7631 10.535C23.0717 10.6308 22.2653 10.6623 21.4731 10.6567C21.0907 10.6539 20.7197 10.6427 20.3769 10.6271C20.4909 10.3035 20.6194 9.95531 20.7602 9.59973C21.0517 8.86304 21.383 8.12723 21.7308 7.522C22.1038 6.87295 22.398 6.54988 22.5521 6.44598C23.726 5.65416 25.1742 5.97456 25.831 6.94828Z" fill="white"/>
</svg>
