<svg width="36" height="36" viewBox="0 0 36 36" fill="none" xmlns="http://www.w3.org/2000/svg">
<path fill-rule="evenodd" clip-rule="evenodd" d="M12.75 12.75V6.75C12.75 5.92157 13.4216 5.25 14.25 5.25H21.75C22.5784 5.25 23.25 5.92157 23.25 6.75V12.75H29.25C30.0784 12.75 30.75 13.4216 30.75 14.25V21.75C30.75 22.5784 30.0784 23.25 29.25 23.25H23.25V29.25C23.25 30.0784 22.5784 30.75 21.75 30.75H14.25C13.4216 30.75 12.75 30.0784 12.75 29.25V23.25H6.75C5.92157 23.25 5.25 22.5784 5.25 21.75V14.25C5.25 13.4216 5.92157 12.75 6.75 12.75H12.75Z" fill="white"/>
</svg>
