<svg width="37" height="36" viewBox="0 0 37 36" fill="none" xmlns="http://www.w3.org/2000/svg">
<path d="M14.2832 4.5C14.2832 3.67157 14.9548 3 15.7832 3H20.7332C21.5616 3 22.2332 3.67157 22.2332 4.5V33H14.2832V4.5Z" fill="white"/>
<path d="M3.3335 19.5C3.3335 18.6716 4.00507 18 4.8335 18H9.7835C10.6119 18 11.2835 18.6716 11.2835 19.5V33H4.8335C4.00507 33 3.3335 32.3284 3.3335 31.5V19.5Z" fill="white"/>
<path d="M26.7329 12C25.9045 12 25.2329 12.6716 25.2329 13.5V33H31.6829C32.5113 33 33.1829 32.3284 33.1829 31.5V13.5C33.1829 12.6716 32.5113 12 31.6829 12H26.7329Z" fill="white"/>
</svg>
