<svg width="36" height="36" viewBox="0 0 36 36" fill="none" xmlns="http://www.w3.org/2000/svg">
<path d="M19.4962 4.35792C19.2257 2.65477 16.7742 2.65479 16.5037 4.35792L15.3522 11.6078L9.41158 7.29557C8.01598 6.28253 6.28256 8.01603 7.29557 9.41158L11.6078 15.3522L4.35792 16.5037C2.65477 16.7742 2.65479 19.2257 4.35792 19.4962L11.6078 20.6477L7.29557 26.5883C6.28253 27.9839 8.01602 29.7173 9.41158 28.7043L15.3522 24.3921L16.5037 31.642C16.7742 33.3451 19.2257 33.3451 19.4962 31.642L20.6477 24.3921L26.5883 28.7043C27.9839 29.7173 29.7173 27.9839 28.7043 26.5883L24.3921 20.6477L31.642 19.4962C33.3451 19.2257 33.3451 16.7742 31.642 16.5037L24.3921 15.3522L28.7043 9.41158C29.7173 8.01599 27.9839 6.28255 26.5883 7.29557L20.6477 11.6078L19.4962 4.35792Z" fill="white"/>
</svg>
