<svg width="37" height="36" viewBox="0 0 37 36" fill="none" xmlns="http://www.w3.org/2000/svg">
<path fill-rule="evenodd" clip-rule="evenodd" d="M20.7279 0.601766C19.3349 -0.200588 17.62 -0.200589 16.2269 0.601765C16.2269 0.601765 6.17704 6.40803 4.54677 7.32902C2.9165 8.25 2.28809 9.55442 2.28809 11.2365C2.28809 12.9185 2.28809 23.1509 2.28809 24.7635C2.28809 26.3762 3.14932 27.8661 4.54677 28.671C5.94423 29.4759 16.2269 35.3982 16.2269 35.3982C17.62 36.2006 19.3349 36.2006 20.7279 35.3982L32.408 28.671C33.8055 27.8661 34.6667 26.3762 34.6667 24.7635V11.2365C34.6667 9.62379 33.8055 8.13389 32.408 7.32902L20.7279 0.601766Z" fill="white"/>
<path fill-rule="evenodd" clip-rule="evenodd" d="M11.4576 23.5129V20.5025H13.058C13.9601 20.5025 14.7557 20.3348 15.4405 19.9943C16.1289 19.654 16.6655 19.1672 17.047 18.5344C17.4332 17.8998 17.6235 17.153 17.6235 16.2998C17.6235 15.4545 17.4391 14.7088 17.0654 14.0675C16.6924 13.4276 16.1696 12.9307 15.5001 12.5784C14.8298 12.2256 14.0521 12.0516 13.1714 12.0516H8.45174C8.21137 12.0516 8.0165 12.2465 8.0165 12.4869V23.5129C8.0165 23.7533 8.21137 23.9482 8.45174 23.9482H11.0224C11.2628 23.9482 11.4576 23.7533 11.4576 23.5129ZM12.4233 17.7642H11.4576V15.0031C11.4576 14.923 11.5226 14.858 11.6027 14.858H12.4233C12.7772 14.858 13.0695 14.9195 13.3056 15.0358L13.3079 15.0369C13.5476 15.1499 13.7269 15.3118 13.851 15.5231L13.8524 15.5255C13.9793 15.7325 14.0464 15.9884 14.0464 16.2998C14.0464 16.6068 13.9795 16.8656 13.8514 17.0814L13.8505 17.0829C13.7258 17.2985 13.5457 17.4663 13.3052 17.5866C13.0692 17.7028 12.777 17.7642 12.4233 17.7642Z" fill="#1E1F27"/>
<path d="M19.1452 12.0516C18.8078 12.0516 18.5987 12.419 18.7709 12.7091L21.8669 17.9234C21.8944 17.9697 21.894 18.0274 21.8659 18.0733L18.6694 23.2854C18.4915 23.5754 18.7002 23.9482 19.0404 23.9482H21.9355C22.0916 23.9482 22.2357 23.8646 22.3132 23.7291L24.1213 20.5703L25.9293 23.7291C26.0068 23.8646 26.1509 23.9482 26.307 23.9482H29.2213C29.5626 23.9482 29.7711 23.5732 29.591 23.2833L26.3553 18.0735C26.3267 18.0274 26.3262 17.9692 26.354 17.9226L29.4692 12.7102C29.6426 12.42 29.4336 12.0516 29.0956 12.0516H26.262C26.1057 12.0516 25.9614 12.1354 25.8839 12.2712L24.1217 15.3602L22.3814 12.2731C22.3042 12.1363 22.1593 12.0516 22.0022 12.0516H19.1452Z" fill="#1E1F27"/>
</svg>
