<svg width="36" height="36" viewBox="0 0 36 36" fill="none" xmlns="http://www.w3.org/2000/svg">
<path fill-rule="evenodd" clip-rule="evenodd" d="M29.7024 5.05936C30.4128 5.13045 30.9746 5.69231 31.0456 6.40265C31.6148 12.0946 29.9096 16.9881 27.2188 20.4069C26.5684 21.2333 25.8511 21.9832 25.0859 22.6397C26.033 24.3342 26.2487 26.3218 25.4524 28.1799C24.3782 30.6866 21.6742 32.4776 17.6565 33.0513C17.226 33.1128 16.7901 32.9845 16.4616 32.6995C16.1331 32.4146 15.9444 32.0011 15.9445 31.5663C15.9446 29.4794 16.2546 27.4517 16.7689 25.4343L10.6541 19.2919C10.5479 19.3188 10.4346 19.3487 10.3133 19.3807C9.22944 19.6668 7.50602 20.1217 4.50011 20.122C4.07379 20.122 3.66759 19.9406 3.38304 19.6231C3.09849 19.3057 2.96246 18.8821 3.00895 18.4584C3.45999 14.3473 5.17256 11.5399 7.72049 10.448C9.65206 9.62018 11.7255 9.92398 13.493 10.9888C14.1428 10.2352 14.8834 9.52845 15.6983 8.88679C19.1166 6.19523 24.0099 4.48968 29.7024 5.05936ZM22.597 24.3483C21.704 24.821 20.7793 25.1693 19.8455 25.3729C19.7548 26.0075 19.6094 26.6269 19.4641 27.2463C19.2748 28.0532 19.0853 28.8605 19.0163 29.7025C21.2 29.0603 22.2789 27.9691 22.695 26.9982C23.0401 26.1929 23.0248 25.2544 22.597 24.3483ZM10.7444 16.2139C10.953 15.2791 11.3063 14.3539 11.7839 13.4608C10.7568 12.8955 9.72872 12.8512 8.9022 13.2054C7.9485 13.6141 6.86439 14.725 6.29013 17.0561C7.13959 16.9896 7.95384 16.7989 8.76728 16.6083C9.4209 16.4552 10.074 16.3022 10.7444 16.2139ZM22.7463 17.7766C21.5747 18.9482 19.6753 18.9482 18.5037 17.7766C17.3321 16.605 17.3321 14.7055 18.5037 13.534C19.6753 12.3624 21.5747 12.3624 22.7463 13.534C23.9179 14.7055 23.9179 16.605 22.7463 17.7766Z" fill="white"/>
<path d="M13.8474 28.9121C14.0746 28.1655 14.1967 27.2922 14.1153 26.5596L9.44243 22.0431C8.87539 22.0431 8.07803 22.143 7.33224 22.3493C6.48705 22.5831 5.6101 22.9673 5.07087 23.6895C4.64469 24.2259 4.42226 24.8609 4.29592 25.4274C3.79366 27.6795 4.15152 30.7682 4.78133 31.398C5.41113 32.0278 8.56324 32.4418 10.8035 31.9123C11.3651 31.7795 12.0118 31.536 12.5381 31.0509C13.2612 30.4794 13.6471 29.57 13.8474 28.9121Z" fill="white"/>
</svg>
