<svg width="37" height="36" viewBox="0 0 37 36" fill="none" xmlns="http://www.w3.org/2000/svg">
<path d="M33.7869 6.546C33.8431 6.272 33.629 6.02001 33.3493 6.02197L29.5391 6.04868L29.5644 2.23761C29.5662 1.95771 29.3135 1.74372 29.0392 1.79938C24.8313 2.65316 22.8969 4.82422 22.6815 9.47527C20.7885 8.22678 18.5208 7.50012 16.0835 7.50012C9.45608 7.50012 4.0835 12.8727 4.0835 19.5001C4.0835 26.1275 9.45608 31.5001 16.0835 31.5001C22.7109 31.5001 28.0835 26.1275 28.0835 19.5001C28.0835 18.7223 28.0262 18.0795 27.9275 17.5604C27.8073 16.8209 27.6196 16.104 27.3707 15.4163C27.2976 15.2144 27.0404 15.162 26.8886 15.3138L23.6904 18.512C23.5938 18.6086 23.5471 18.7439 23.5582 18.8801C23.575 19.0845 23.5835 19.2913 23.5835 19.5001C23.5835 23.6423 20.2256 27.0001 16.0835 27.0001C11.9414 27.0001 8.5835 23.6423 8.5835 19.5001C8.5835 15.358 11.9414 12.0001 16.0835 12.0001C17.7065 12.0001 18.814 12.3896 19.9412 13.067L17.7065 15.3017C17.203 15.1069 16.6557 15.0001 16.0835 15.0001C13.5982 15.0001 11.5835 17.0148 11.5835 19.5001C11.5835 21.9854 13.5982 24.0001 16.0835 24.0001C18.5688 24.0001 20.5835 21.9854 20.5835 19.5001C20.5835 18.9152 20.4719 18.3563 20.2688 17.8436L25.1843 12.9281C30.0778 12.9217 32.8334 11.1925 33.7869 6.546Z" fill="white"/>
</svg>
