<svg width="37" height="36" viewBox="0 0 37 36" fill="none" xmlns="http://www.w3.org/2000/svg">
<path d="M31.836 5.44664C29.3921 4.56366 26.6247 4.28938 24.0584 4.66171C22.8957 4.83039 21.7451 5.13667 20.6714 5.5986C20.1485 5.82359 19.8335 6.37329 19.8335 6.96569V30.6676C19.8335 31.2822 20.4811 31.6642 21.0089 31.3961C24.0666 29.8428 27.0713 29.9303 30.1346 31.3081C31.5601 31.9493 33.3335 30.9248 33.3335 29.1088V7.67199C33.3335 6.70412 32.7672 5.78309 31.836 5.44664Z" fill="white"/>
<path d="M15.6581 31.3961C16.1859 31.6642 16.8335 31.2822 16.8335 30.6676V6.96569C16.8335 6.37329 16.5185 5.82359 15.9955 5.5986C14.9219 5.13667 13.7713 4.83039 12.6086 4.66171C10.0422 4.28938 7.27493 4.56366 4.83102 5.44664C3.89986 5.78307 3.3335 6.70405 3.3335 7.67197V29.1177C3.3335 30.9602 5.13092 31.9385 6.53242 31.3081C9.59567 29.9303 12.6004 29.8428 15.6581 31.3961Z" fill="white"/>
</svg>
