<svg width="37" height="36" viewBox="0 0 37 36" fill="none" xmlns="http://www.w3.org/2000/svg">
<path fill-rule="evenodd" clip-rule="evenodd" d="M24.3274 5.96581C23.705 5.04793 22.6797 4.5 21.5846 4.5H15.122C14.005 4.5 12.9622 5.06992 12.3446 6.01798L11.0407 8.01938C10.4231 8.96745 9.38032 9.53737 8.26329 9.53737H6.66683C4.82588 9.53737 3.3335 11.0575 3.3335 12.9327V26.6047C3.3335 28.4799 4.82588 30 6.66683 30H30.0002C31.8411 30 33.3335 28.4799 33.3335 26.6047V12.8908C33.3335 11.0388 31.8595 9.53737 30.0413 9.53737H28.4979C27.4028 9.53737 26.3775 8.98943 25.7552 8.07156L24.3274 5.96581ZM18.3335 27C22.4756 27 25.8335 23.6421 25.8335 19.5C25.8335 15.3579 22.4756 12 18.3335 12C14.1914 12 10.8335 15.3579 10.8335 19.5C10.8335 23.6421 14.1914 27 18.3335 27Z" fill="white"/>
<path d="M22.8335 19.5C22.8335 21.9853 20.8188 24 18.3335 24C15.8482 24 13.8335 21.9853 13.8335 19.5C13.8335 17.0147 15.8482 15 18.3335 15C20.8188 15 22.8335 17.0147 22.8335 19.5Z" fill="white"/>
</svg>
