<svg width="37" height="36" viewBox="0 0 37 36" fill="none" xmlns="http://www.w3.org/2000/svg">
<path d="M9.3335 9C9.3335 10.6569 7.99035 12 6.3335 12C4.67664 12 3.3335 10.6569 3.3335 9C3.3335 7.34315 4.67664 6 6.3335 6C7.99035 6 9.3335 7.34315 9.3335 9Z" fill="white"/>
<path fill-rule="evenodd" clip-rule="evenodd" d="M25.4252 11.9653C24.2676 9.9808 21.4002 9.98079 20.2425 11.9653L15.9661 19.2964L14.1424 16.3122C12.9726 14.398 10.1925 14.398 9.02272 16.3122L3.4473 25.4356C2.22566 27.4347 3.66436 30 6.00715 30L15.3335 30L30.7223 30C33.0377 30 34.4803 27.4883 33.3137 25.4884L25.4252 11.9653Z" fill="white"/>
</svg>
