<svg width="36" height="36" viewBox="0 0 36 36" fill="none" xmlns="http://www.w3.org/2000/svg">
<path d="M18.2561 7.5H6C5.17157 7.5 4.5 8.17157 4.5 9C4.5 9.82843 5.17157 10.5 6 10.5H18.2561C18.8738 12.2478 20.5407 13.5 22.5 13.5C24.4593 13.5 26.1262 12.2478 26.7439 10.5H30C30.8284 10.5 31.5 9.82843 31.5 9C31.5 8.17157 30.8284 7.5 30 7.5H26.7439C26.1262 5.75221 24.4593 4.5 22.5 4.5C20.5407 4.5 18.8738 5.75221 18.2561 7.5Z" fill="white"/>
<path d="M12 13.5C13.9593 13.5 15.6262 14.7522 16.2439 16.5H30C30.8284 16.5 31.5 17.1716 31.5 18C31.5 18.8284 30.8284 19.5 30 19.5H16.2439C15.6262 21.2478 13.9593 22.5 12 22.5C10.0407 22.5 8.37381 21.2478 7.75606 19.5H6C5.17157 19.5 4.5 18.8284 4.5 18C4.5 17.1716 5.17157 16.5 6 16.5H7.75606C8.37381 14.7522 10.0407 13.5 12 13.5Z" fill="white"/>
<path d="M4.5 27C4.5 26.1716 5.17157 25.5 6 25.5H21.2561C21.8738 23.7522 23.5407 22.5 25.5 22.5C27.4593 22.5 29.1262 23.7522 29.7439 25.5H30C30.8284 25.5 31.5 26.1716 31.5 27C31.5 27.8284 30.8284 28.5 30 28.5H29.7439C29.1262 30.2478 27.4593 31.5 25.5 31.5C23.5407 31.5 21.8738 30.2478 21.2561 28.5H6C5.17157 28.5 4.5 27.8284 4.5 27Z" fill="white"/>
</svg>
