<svg width="37" height="36" viewBox="0 0 37 36" fill="none" xmlns="http://www.w3.org/2000/svg">
<path fill-rule="evenodd" clip-rule="evenodd" d="M21.6665 15C21.6665 14.1715 22.3381 13.5 23.1665 13.5C25.6518 13.5 27.6665 15.5147 27.6665 18C27.6665 20.4853 25.6518 22.5 23.1665 22.5C22.3381 22.5 21.6665 21.8284 21.6665 21C21.6665 20.1715 22.3381 19.5 23.1665 19.5C23.9949 19.5 24.6665 18.8284 24.6665 18C24.6665 17.1715 23.9949 16.5 23.1665 16.5C22.3381 16.5 21.6665 15.8284 21.6665 15Z" fill="white"/>
<path fill-rule="evenodd" clip-rule="evenodd" d="M13.0618 7.15991C14.5881 4.48886 18.6665 5.57193 18.6665 8.64832V27.3516C18.6665 30.428 14.5881 31.5111 13.0618 28.84L10.296 24H8.1665C6.50965 24 5.1665 22.6568 5.1665 21V15C5.1665 13.3431 6.50965 12 8.1665 12H10.296L13.0618 7.15991Z" fill="white"/>
</svg>
