<svg width="36" height="36" viewBox="0 0 36 36" fill="none" xmlns="http://www.w3.org/2000/svg">
<path d="M9.13883 23.685C5.41664 26.0319 3 29.3804 3 31.4596C3 33.3343 4.96484 32.7421 8.07997 31.8032C10.724 31.0062 14.1967 29.9596 18 29.9596C21.8033 29.9596 25.276 31.0062 27.92 31.8032C31.0352 32.7421 33 33.3343 33 31.4596C33 29.3804 30.5834 26.0319 26.8612 23.685C24.49 25.7497 21.391 27 18 27C14.609 27 11.51 25.7497 9.13883 23.685Z" fill="white"/>
<path d="M15 13.5C16.6569 13.5 18 12.1569 18 10.5C18 9.96049 17.8576 9.45425 17.6083 9.01681C17.7374 9.00568 17.868 9 18 9C20.4853 9 22.5 11.0147 22.5 13.5C22.5 15.9853 20.4853 18 18 18C15.5147 18 13.5 15.9853 13.5 13.5C13.5 13.368 13.5057 13.2374 13.5168 13.1083C13.9543 13.3576 14.4605 13.5 15 13.5Z" fill="white"/>
<path fill-rule="evenodd" clip-rule="evenodd" d="M18 21C22.1421 21 25.5 17.6421 25.5 13.5C25.5 9.35786 22.1421 6 18 6C13.8579 6 10.5 9.35786 10.5 13.5C10.5 17.6421 13.8579 21 18 21ZM18 24C23.799 24 28.5 19.299 28.5 13.5C28.5 7.70101 23.799 3 18 3C12.201 3 7.5 7.70101 7.5 13.5C7.5 19.299 12.201 24 18 24Z" fill="white"/>
</svg>
