<svg width="36" height="36" viewBox="0 0 36 36" fill="none" xmlns="http://www.w3.org/2000/svg">
<path fill-rule="evenodd" clip-rule="evenodd" d="M12 10.4516L11.9899 10.2823C11.9033 9.56038 11.2693 9 10.5 9L10.3251 9.00977C9.57906 9.09362 9 9.70717 9 10.4516V25.5484L9.01009 25.7177C9.09674 26.4396 9.73075 27 10.5 27L10.6749 26.9902C11.4209 26.9064 12 26.2928 12 25.5484L12 10.4516ZM15 16.8337C14.2576 17.4332 14.2576 18.5668 15 19.1663C15.0074 19.1723 15.0148 19.1782 15.0223 19.184L24.5791 26.6171C25.5644 27.3834 27 26.6813 27 25.433V10.567C27 9.31874 25.5644 8.6166 24.5791 9.38293L15.0223 16.816C15.0148 16.8218 15.0074 16.8277 15 16.8337ZM18.3865 18L24 22.3661L24 13.6339L18.3865 18Z" fill="white"/>
</svg>
