<svg width="36" height="36" viewBox="0 0 36 36" fill="none" xmlns="http://www.w3.org/2000/svg">
<path fill-rule="evenodd" clip-rule="evenodd" d="M17.6135 18L12 22.3661V13.6339L17.6135 18ZM11.4209 26.6171L20.9777 19.184C21.7498 18.5835 21.7498 17.4165 20.9777 16.816L11.4209 9.38293C10.4356 8.61659 9 9.31874 9 10.567V25.433C9 26.6813 10.4356 27.3834 11.4209 26.6171Z" fill="white"/>
<path d="M24 10.5C24 9.67157 24.6716 9 25.5 9C26.3284 9 27 9.67157 27 10.5V25.5C27 26.3284 26.3284 27 25.5 27C24.6716 27 24 26.3284 24 25.5V10.5Z" fill="white"/>
</svg>
