<svg width="37" height="36" viewBox="0 0 37 36" fill="none" xmlns="http://www.w3.org/2000/svg">
<path fill-rule="evenodd" clip-rule="evenodd" d="M24.0584 4.65432C26.6247 4.29902 29.3921 4.56075 31.836 5.40333C32.7672 5.72439 33.3335 6.60329 33.3335 7.52687V27.983C33.3335 29.7159 31.5601 30.6936 30.1346 30.0817C26.4626 28.5056 22.8748 28.6988 19.179 31.2373C18.669 31.5876 17.998 31.5876 17.488 31.2373C13.7922 28.6988 10.2044 28.5056 6.53242 30.0817C5.13092 30.6832 3.3335 29.7497 3.3335 27.9914V7.52685C3.3335 6.60322 3.89986 5.72437 4.83102 5.40334C7.27493 4.56075 10.0422 4.29902 12.6086 4.65432C14.6768 4.94064 16.707 5.64247 18.3335 6.85679C19.96 5.64247 21.9902 4.94064 24.0584 4.65432ZM16.8335 9.51015C15.6926 8.55068 14.0742 7.90538 12.1999 7.64589C10.2756 7.37949 8.19725 7.53834 6.3335 8.09036V26.9189C9.8209 25.6693 13.3488 25.7346 16.8335 27.3848V9.51015ZM19.8335 27.3848C23.3182 25.7346 26.8461 25.6693 30.3335 26.9189V8.09036C28.4697 7.53834 26.3914 7.37949 24.4671 7.64589C22.5928 7.90538 20.9744 8.55068 19.8335 9.51015V27.3848Z" fill="white"/>
</svg>
