<svg width="37" height="36" viewBox="0 0 37 36" fill="none" xmlns="http://www.w3.org/2000/svg">
<path fill-rule="evenodd" clip-rule="evenodd" d="M21.5846 4.5C22.6797 4.5 23.705 5.04793 24.3274 5.96581L25.7552 8.07156C26.3775 8.98943 27.4028 9.53737 28.4979 9.53737H30.0413C31.8595 9.53737 33.3335 11.0388 33.3335 12.8908V26.6047C33.3335 28.4799 31.8411 30 30.0002 30H6.66683C4.82588 30 3.3335 28.4799 3.3335 26.6047V12.9327C3.3335 11.0575 4.82588 9.53737 6.66683 9.53737H8.26329C9.38032 9.53737 10.4231 8.96745 11.0407 8.01938L12.3446 6.01798C12.9622 5.06992 14.005 4.5 15.122 4.5H21.5846ZM21.9003 7.83291C21.7611 7.62488 21.5272 7.5 21.2769 7.5H15.4397C15.1845 7.5 14.9468 7.62976 14.8088 7.84441L13.6892 9.58598C12.4933 11.446 10.5228 12.6078 8.37935 12.738L7.97557 12.7503H7.0835C6.66928 12.7503 6.3335 13.086 6.3335 13.5003V26.25C6.3335 26.6642 6.66928 27 7.0835 27H29.5835C29.9977 27 30.3335 26.6642 30.3335 26.25V13.4993C30.3335 13.0848 29.9972 12.7489 29.5826 12.7493L28.7883 12.7503C26.668 12.7503 24.675 11.7385 23.3805 10.0243L23.1461 9.69475L21.9003 7.83291ZM18.3335 10.5C22.4756 10.5 25.8335 13.8579 25.8335 18C25.8335 22.1421 22.4756 25.5 18.3335 25.5C14.1914 25.5 10.8335 22.1421 10.8335 18C10.8335 13.8579 14.1914 10.5 18.3335 10.5ZM18.3335 13.5C15.8482 13.5 13.8335 15.5147 13.8335 18C13.8335 20.4853 15.8482 22.5 18.3335 22.5C20.8188 22.5 22.8335 20.4853 22.8335 18C22.8335 15.5147 20.8188 13.5 18.3335 13.5Z" fill="white"/>
</svg>
