<svg width="37" height="36" viewBox="0 0 37 36" fill="none" xmlns="http://www.w3.org/2000/svg">
<path fill-rule="evenodd" clip-rule="evenodd" d="M12.6665 9C12.6665 5.68629 15.3528 3 18.6665 3C21.9802 3 24.6665 5.68629 24.6665 9V16.5C24.6665 19.8137 21.9802 22.5 18.6665 22.5C15.3528 22.5 12.6665 19.8137 12.6665 16.5V9ZM18.6665 6C17.0096 6 15.6665 7.34315 15.6665 9V16.5C15.6665 18.1569 17.0096 19.5 18.6665 19.5C20.3234 19.5 21.6665 18.1569 21.6665 16.5V9C21.6665 7.34315 20.3234 6 18.6665 6Z" fill="white"/>
<path d="M8.1665 15C8.99493 15 9.6665 15.6716 9.6665 16.5C9.6665 21.4706 13.6959 25.5 18.6665 25.5C23.6371 25.5 27.6665 21.4706 27.6665 16.5C27.6665 15.6716 28.3381 15 29.1665 15C29.9949 15 30.6665 15.6716 30.6665 16.5C30.6665 22.6194 26.086 27.669 20.1665 28.4072V31.5C20.1665 32.3284 19.4949 33 18.6665 33C17.8381 33 17.1665 32.3284 17.1665 31.5V28.4072C11.247 27.669 6.6665 22.6194 6.6665 16.5C6.6665 15.6716 7.33808 15 8.1665 15Z" fill="white"/>
</svg>
