<svg width="36" height="36" viewBox="0 0 36 36" fill="none" xmlns="http://www.w3.org/2000/svg">
<path fill-rule="evenodd" clip-rule="evenodd" d="M7.5 10.5C7.5 8.84314 8.84315 7.5 10.5 7.5H13.5C15.1569 7.5 16.5 8.84315 16.5 10.5V25.5C16.5 27.1569 15.1569 28.5 13.5 28.5H10.5C8.84315 28.5 7.5 27.1569 7.5 25.5V10.5ZM13.5 10.5L10.5 10.5V25.5H13.5V10.5Z" fill="white"/>
<path fill-rule="evenodd" clip-rule="evenodd" d="M19.5 10.5C19.5 8.84314 20.8431 7.5 22.5 7.5H25.5C27.1569 7.5 28.5 8.84315 28.5 10.5V25.5C28.5 27.1569 27.1569 28.5 25.5 28.5H22.5C20.8431 28.5 19.5 27.1569 19.5 25.5V10.5ZM25.5 10.5L22.5 10.5V25.5H25.5V10.5Z" fill="white"/>
</svg>
