<svg width="37" height="36" viewBox="0 0 37 36" fill="none" xmlns="http://www.w3.org/2000/svg">
<path d="M22.8335 15L15.3335 11.25V18.75L22.8335 15Z" fill="white"/>
<path fill-rule="evenodd" clip-rule="evenodd" d="M28.8335 9H7.8335V21H28.8335V9ZM7.8335 6C6.17664 6 4.8335 7.34315 4.8335 9V21C4.8335 22.6569 6.17664 24 7.8335 24H28.8335C30.4904 24 31.8335 22.6569 31.8335 21V9C31.8335 7.34315 30.4904 6 28.8335 6H7.8335Z" fill="white"/>
<path d="M3.3335 27H33.3335C33.3335 28.6569 31.9904 30 30.3335 30H6.3335C4.67664 30 3.3335 28.6569 3.3335 27Z" fill="white"/>
</svg>
