<svg width="36" height="36" viewBox="0 0 36 36" fill="none" xmlns="http://www.w3.org/2000/svg">
<path fill-rule="evenodd" clip-rule="evenodd" d="M29.1921 14.302L29.3323 14.4268L33.314 18.4394L33.4379 18.5807C33.854 19.1201 33.854 19.88 33.4379 20.4194L33.314 20.5607L33.1738 20.6855C32.6385 21.1049 31.8845 21.1049 31.3492 20.6855L31.209 20.5607L29.823 19.1625C29.6589 20.879 29.133 22.5226 28.2842 24.0013C26.1707 27.683 22.2701 30 17.9704 30C14.2651 30 10.8382 28.2816 8.59559 25.3998C8.08829 24.748 8.20144 23.8051 8.84831 23.2939C9.49518 22.7826 10.4308 22.8967 10.9381 23.5485C12.6223 25.7127 15.1895 27 17.9704 27C21.1965 27 24.1207 25.263 25.7073 22.499C26.3122 21.4454 26.6979 20.2812 26.8399 19.062L25.3506 20.5607L25.2103 20.6855C24.6264 21.143 23.7821 21.1014 23.2455 20.5607C22.709 20.02 22.6677 19.1691 23.1217 18.5807L23.2455 18.4394L27.2273 14.4268L27.3675 14.302C27.9028 13.8826 28.6568 13.8826 29.1921 14.302ZM18.1023 6C21.8075 6 25.2345 7.7184 27.4771 10.6002C27.9844 11.252 27.8712 12.1949 27.2244 12.7061C26.5775 13.2174 25.6419 13.1033 25.1346 12.4515C23.4504 10.2873 20.8832 9 18.1023 9C14.8762 9 11.952 10.737 10.3653 13.501C9.98811 14.1581 9.6961 14.8583 9.49531 15.588L10.6494 14.4268L10.7897 14.302C11.3736 13.8445 12.2179 13.8861 12.7545 14.4268C13.291 14.9675 13.3323 15.8184 12.8783 16.4068L12.7545 16.5481L8.77272 20.5607L8.6325 20.6855C8.09724 21.1049 7.34318 21.1049 6.80792 20.6855L6.6677 20.5607L2.68597 16.5481L2.56214 16.4068C2.14595 15.8674 2.14595 15.1075 2.56214 14.5681L2.68597 14.4268L2.82619 14.302C3.36145 13.8826 4.11551 13.8826 4.65077 14.302L4.79099 14.4268L6.3582 16.0067C6.59322 14.5911 7.07764 13.2371 7.7885 11.9987C9.90197 8.31703 13.8026 6 18.1023 6Z" fill="white"/>
</svg>
