<svg width="36" height="36" viewBox="0 0 36 36" fill="none" xmlns="http://www.w3.org/2000/svg">
<path fill-rule="evenodd" clip-rule="evenodd" d="M23.9519 5.38929C24.4926 4.84857 25.3435 4.80697 25.9319 5.26451L30.2105 9.54315C30.6299 10.0826 30.6299 10.8425 30.2105 11.3819L25.9319 15.6605C25.3925 16.0799 24.4673 16.0512 23.9519 15.5357C23.4364 15.0203 23.4077 14.0951 23.8271 13.5557L25.36 12.0036C23.5529 12.0327 21.4587 13.2959 19.0775 15.7929L18.6053 16.3079L17.9912 17.0113C17.5067 17.5756 17.5089 18.4097 17.9962 18.9715L19.0621 20.1853C21.4735 22.7117 23.5989 23.9832 25.4382 23.9995L23.8271 22.3693C23.3696 21.7809 23.4112 20.93 23.9519 20.3893C24.4926 19.8486 25.3435 19.807 25.9319 20.2645L30.2105 24.5432C30.6299 25.0826 30.6299 25.8425 30.2105 26.3819L25.9319 30.6605C25.3925 31.0799 24.4687 31.0525 23.9519 30.5357C23.4351 30.0189 23.4077 29.0951 23.8271 28.5557L25.3678 26.997L25.106 26.9939C20.9163 26.8736 17.1549 24.3947 15.4168 20.8073C13.6243 24.5432 10.3486 27.0022 7.0498 27.0022C6.22138 27.0022 5.5498 26.3306 5.5498 25.5022C5.5498 24.6737 6.22138 24.0022 7.0498 24.0022C9.23613 24.0022 10.6757 22.717 12.9569 19.0836L13.392 18.3772C13.5353 18.1445 13.5407 17.8522 13.4061 17.6144L12.9569 16.8207C10.6181 13.0832 9.15805 12 7.0498 12C6.22138 12 5.5498 11.3284 5.5498 10.5C5.5498 9.67152 6.22138 8.99995 7.0498 8.99995C10.5846 8.99995 12.6489 10.8146 15.4175 15.1962C18.2881 11.0356 20.9131 9.13084 25.0981 9.00848L25.4428 9.00295L23.8271 7.3693C23.3696 6.78086 23.4112 5.93002 23.9519 5.38929Z" fill="white"/>
</svg>
