<svg width="36" height="36" viewBox="0 0 36 36" fill="none" xmlns="http://www.w3.org/2000/svg">
<path fill-rule="evenodd" clip-rule="evenodd" d="M18.2561 7.5H6C5.17157 7.5 4.5 8.17157 4.5 9C4.5 9.82843 5.17157 10.5 6 10.5H18.2561C18.8738 12.2478 20.5407 13.5 22.5 13.5C24.4593 13.5 26.1262 12.2478 26.7439 10.5H30C30.8284 10.5 31.5 9.82843 31.5 9C31.5 8.17157 30.8284 7.5 30 7.5H26.7439C26.1262 5.75221 24.4593 4.5 22.5 4.5C20.5407 4.5 18.8738 5.75221 18.2561 7.5ZM21 9C21 8.17157 21.6716 7.5 22.5 7.5C23.3284 7.5 24 8.17157 24 9C24 9.82843 23.3284 10.5 22.5 10.5C21.6716 10.5 21 9.82843 21 9Z" fill="white"/>
<path fill-rule="evenodd" clip-rule="evenodd" d="M12 13.5C13.9593 13.5 15.6262 14.7522 16.2439 16.5H30C30.8284 16.5 31.5 17.1716 31.5 18C31.5 18.8284 30.8284 19.5 30 19.5H16.2439C15.6262 21.2478 13.9593 22.5 12 22.5C10.0407 22.5 8.37381 21.2478 7.75606 19.5H6C5.17157 19.5 4.5 18.8284 4.5 18C4.5 17.1716 5.17157 16.5 6 16.5H7.75606C8.37381 14.7522 10.0407 13.5 12 13.5ZM12 16.5C12.8284 16.5 13.5 17.1716 13.5 18C13.5 18.8284 12.8284 19.5 12 19.5C11.1716 19.5 10.5 18.8284 10.5 18C10.5 17.1716 11.1716 16.5 12 16.5Z" fill="white"/>
<path fill-rule="evenodd" clip-rule="evenodd" d="M6 25.5C5.17157 25.5 4.5 26.1716 4.5 27C4.5 27.8284 5.17157 28.5 6 28.5H21.2561C21.8738 30.2478 23.5407 31.5 25.5 31.5C27.4593 31.5 29.1262 30.2478 29.7439 28.5H30C30.8284 28.5 31.5 27.8284 31.5 27C31.5 26.1716 30.8284 25.5 30 25.5H29.7439C29.1262 23.7522 27.4593 22.5 25.5 22.5C23.5407 22.5 21.8738 23.7522 21.2561 25.5H6ZM27 27C27 26.1716 26.3284 25.5 25.5 25.5C24.6716 25.5 24 26.1716 24 27C24 27.8284 24.6716 28.5 25.5 28.5C26.3284 28.5 27 27.8284 27 27Z" fill="white"/>
</svg>
