<svg width="37" height="36" viewBox="0 0 37 36" fill="none" xmlns="http://www.w3.org/2000/svg">
<path fill-rule="evenodd" clip-rule="evenodd" d="M13.0618 7.15991C14.5881 4.48886 18.6665 5.57193 18.6665 8.64832V27.3516C18.6665 30.428 14.5881 31.5111 13.0618 28.84L10.296 24H8.1665C6.50965 24 5.1665 22.6568 5.1665 21V15C5.1665 13.3431 6.50965 12 8.1665 12H10.296L13.0618 7.15991ZM15.6665 8.64833L12.9007 13.4884C12.3666 14.4231 11.3726 15 10.296 15H8.1665V21H10.296C11.3726 21 12.3666 21.5768 12.9007 22.5116L15.6665 27.3516L15.6665 8.64833Z" fill="white"/>
<path d="M22.1058 13.9393C22.6916 13.3536 23.6414 13.3536 24.2272 13.9393L26.1665 15.8787L28.1058 13.9393C28.6916 13.3536 29.6414 13.3536 30.2272 13.9393C30.813 14.5251 30.813 15.4749 30.2272 16.0607L28.2878 18L30.2272 19.9393C30.813 20.5251 30.813 21.4749 30.2272 22.0607C29.6414 22.6464 28.6916 22.6464 28.1058 22.0607L26.1665 20.1213L24.2272 22.0607C23.6414 22.6464 22.6916 22.6464 22.1058 22.0607C21.5201 21.4749 21.5201 20.5251 22.1058 19.9393L24.0452 18L22.1058 16.0607C21.5201 15.4749 21.5201 14.5251 22.1058 13.9393Z" fill="white"/>
</svg>
