<svg width="36" height="36" viewBox="0 0 36 36" fill="none" xmlns="http://www.w3.org/2000/svg">
<path fill-rule="evenodd" clip-rule="evenodd" d="M9.61768 24.6582C10.0826 25.3438 9.90369 26.2766 9.21803 26.7415C8.12159 27.485 7.27343 28.2742 6.71611 28.9796C6.53391 29.2102 6.39624 29.4145 6.29287 29.5909C6.73066 29.4945 7.30184 29.3392 8.04092 29.1275C8.16635 29.0916 8.29495 29.0545 8.42662 29.0166C10.8221 28.3269 14.2332 27.3447 18 27.3447C21.7668 27.3447 25.1779 28.3269 27.5734 29.0166C27.705 29.0545 27.8337 29.0916 27.9591 29.1275C28.6982 29.3392 29.2693 29.4945 29.7071 29.5909C29.6038 29.4145 29.4661 29.2102 29.2839 28.9796C28.7266 28.2742 27.8784 27.485 26.782 26.7415C26.0963 26.2766 25.9174 25.3438 26.3823 24.6582C26.8473 23.9725 27.78 23.7936 28.4657 24.2585C29.7664 25.1405 30.8564 26.1307 31.6378 27.1198C32.3794 28.0584 33 29.1951 33 30.3447C33 30.9649 32.8057 31.7098 32.1334 32.2208C31.5455 32.6676 30.8591 32.7191 30.3979 32.7064C29.4818 32.6812 28.2837 32.3412 27.1328 32.0115C27.0257 31.9808 26.9172 31.9496 26.8076 31.9181C24.3792 31.2204 21.3315 30.3447 18 30.3447C14.6685 30.3447 11.6208 31.2204 9.19245 31.9181C9.08276 31.9496 8.97433 31.9808 8.86719 32.0115C7.7163 32.3412 6.51822 32.6812 5.6021 32.7064C5.14092 32.7191 4.45446 32.6676 3.8666 32.2208C3.19431 31.7098 3 30.9649 3 30.3447C3 29.1951 3.62056 28.0584 4.36217 27.1198C5.14364 26.1307 6.23357 25.1405 7.53435 24.2585C8.22001 23.7936 9.15275 23.9725 9.61768 24.6582Z" fill="white"/>
<path d="M15 13.5C16.6569 13.5 18 12.1569 18 10.5C18 9.96049 17.8576 9.45425 17.6083 9.01681C17.7374 9.00568 17.868 9 18 9C20.4853 9 22.5 11.0147 22.5 13.5C22.5 15.9853 20.4853 18 18 18C15.5147 18 13.5 15.9853 13.5 13.5C13.5 13.368 13.5057 13.2374 13.5168 13.1083C13.9543 13.3576 14.4605 13.5 15 13.5Z" fill="white"/>
<path fill-rule="evenodd" clip-rule="evenodd" d="M18 21C22.1421 21 25.5 17.6421 25.5 13.5C25.5 9.35786 22.1421 6 18 6C13.8579 6 10.5 9.35786 10.5 13.5C10.5 17.6421 13.8579 21 18 21ZM18 24C23.799 24 28.5 19.299 28.5 13.5C28.5 7.70101 23.799 3 18 3C12.201 3 7.5 7.70101 7.5 13.5C7.5 19.299 12.201 24 18 24Z" fill="white"/>
</svg>
