<svg width="36" height="36" viewBox="0 0 36 36" fill="none" xmlns="http://www.w3.org/2000/svg">
<path fill-rule="evenodd" clip-rule="evenodd" d="M11.9471 19.2957C11.9471 15.9882 14.651 13.2957 18.0006 13.2957C21.3501 13.2957 24.054 15.9882 24.054 19.2957V22.9894C24.054 24.256 23.0177 25.2957 21.7233 25.2957H14.2779C12.9835 25.2957 11.9471 24.256 11.9471 22.9894V19.2957ZM18.0006 16.2665C16.3237 16.2665 14.9541 17.6171 14.9541 19.2957V22.3248H21.0471V19.2957C21.0471 17.6171 19.6775 16.2665 18.0006 16.2665Z" fill="white"/>
<path fill-rule="evenodd" clip-rule="evenodd" d="M31.0132 13.9168L32.5476 11.7145L32.6141 11.5931C32.8756 11.1156 33 10.6018 33 10.0987V4.67984C33 3.95639 32.7366 3.01541 31.8288 2.29753C30.9821 1.62796 30.0076 1.5 29.3964 1.5H24.8713C23.8997 1.5 23.1307 1.7984 22.5548 2.24464C21.9788 1.7984 21.2099 1.5 20.2383 1.5H15.8227C14.8511 1.5 14.0821 1.7984 13.5062 2.24464C12.9302 1.7984 12.1613 1.5 11.1897 1.5H6.48238C5.86961 1.5 4.65058 1.63695 3.76205 2.62394C3.02025 3.44794 3 4.36385 3 4.67984V10.0987C3 10.6018 3.12441 11.1157 3.38594 11.5932L3.46223 11.7324L5.04805 13.9344V31.4266C5.04805 33.124 6.60232 34.5 8.51962 34.5H27.5417C29.459 34.5 31.0132 33.124 31.0132 31.4266V13.9168ZM8.05675 13.3725C8.05675 13.2559 8.02762 13.1413 7.97228 13.0402L6.09316 10.431C6.03783 10.33 6.0087 10.2154 6.0087 10.0987V4.67984C6.0087 4.31273 6.134 4.16361 6.48238 4.16361H11.1897C11.538 4.16361 11.8205 4.46121 11.8205 4.82832V6.83333C11.8205 7.20045 12.1029 7.49805 12.4512 7.49805H14.5611C14.9095 7.49805 15.1919 7.20044 15.1919 6.83333V4.82832C15.1919 4.46121 15.4743 4.16361 15.8227 4.16361H20.2383C20.5866 4.16361 20.8691 4.46121 20.8691 4.82832V6.83333C20.8691 7.20045 21.1515 7.49805 21.4999 7.49805H23.6097C23.9581 7.49805 24.2405 7.20044 24.2405 6.83333V4.82832C24.2405 4.46121 24.5229 4.16361 24.8713 4.16361H29.3964C29.7448 4.16361 29.9913 4.31273 29.9913 4.67984V10.0987C29.9913 10.2154 29.9622 10.33 29.9068 10.431L28.089 13.0402C28.0337 13.1413 28.0045 13.2559 28.0045 13.3725V31.4266C28.0045 31.6529 27.7973 31.8364 27.5417 31.8364H8.51962C8.26398 31.8364 8.05675 31.6529 8.05675 31.4266V13.3725Z" fill="white"/>
</svg>
