<svg width="37" height="36" viewBox="0 0 37 36" fill="none" xmlns="http://www.w3.org/2000/svg">
<path fill-rule="evenodd" clip-rule="evenodd" d="M4.8335 4.5C3.17664 4.5 1.8335 5.84315 1.8335 7.5V24C1.8335 25.6569 3.17664 27 4.8335 27H15.3335C16.1619 27 16.8335 26.3284 16.8335 25.5C16.8335 24.6716 16.1619 24 15.3335 24H4.8335V7.5H28.8335V12.15C28.3488 12.0516 27.8472 12 27.3335 12C23.1914 12 19.8335 15.3579 19.8335 19.5C19.8335 21.9537 21.0118 24.1322 22.8335 25.5005V32.6893C22.8335 33.3575 23.6414 33.6921 24.1138 33.2197L26.8032 30.5303C27.0961 30.2374 27.5709 30.2374 27.8638 30.5303L30.5532 33.2197C31.0256 33.6921 31.8335 33.3575 31.8335 32.6893V25.5005C33.6552 24.1322 34.8335 21.9537 34.8335 19.5C34.8335 17.0463 33.6552 14.8678 31.8335 13.4995V7.5C31.8335 5.84314 30.4903 4.5 28.8335 4.5H4.8335ZM27.3335 15C27.8594 15 28.3643 15.0902 28.8335 15.2561C30.5813 15.8738 31.8335 17.5407 31.8335 19.5C31.8335 21.9853 29.8188 24 27.3335 24C25.0291 24 23.1292 22.2678 22.8649 20.0345C22.8442 19.8592 22.8335 19.6809 22.8335 19.5C22.8335 17.0147 24.8482 15 27.3335 15Z" fill="white"/>
<path d="M9.3335 10.5C8.50507 10.5 7.8335 11.1716 7.8335 12C7.8335 12.8284 8.50507 13.5 9.3335 13.5H18.3335C19.1619 13.5 19.8335 12.8284 19.8335 12C19.8335 11.1716 19.1619 10.5 18.3335 10.5H9.3335Z" fill="white"/>
<path d="M7.8335 18C7.8335 17.1716 8.50507 16.5 9.3335 16.5H13.8335C14.6619 16.5 15.3335 17.1716 15.3335 18C15.3335 18.8284 14.6619 19.5 13.8335 19.5H9.3335C8.50507 19.5 7.8335 18.8284 7.8335 18Z" fill="white"/>
</svg>
