<svg width="37" height="36" viewBox="0 0 37 36" fill="none" xmlns="http://www.w3.org/2000/svg">
<path fill-rule="evenodd" clip-rule="evenodd" d="M17.4637 3.56763L17.4302 12.6502C17.4302 12.6639 17.4306 12.6775 17.4313 12.6909C16.7658 12.8185 16.1841 13.2423 15.8624 13.8559L10.6513 23.2141L9.33507 21.2227C8.39585 19.8017 6.27949 19.8992 5.47487 21.4005L1.08926 29.5836C-0.142486 31.8819 1.52254 34.6633 4.13009 34.6633L33.3019 34.6632C35.9358 34.6632 37.5982 31.8309 36.3142 29.5312L31.6937 21.2564C30.9011 19.837 28.911 19.7008 27.9325 20.999L26.5146 22.8801L21.4831 13.8567C21.1732 13.2651 20.6217 12.8498 19.9863 12.7061V9.68558H26.2979C27.3622 9.68558 27.9539 8.36691 27.289 7.47673L25.8925 5.60695L27.289 3.73716C27.9539 2.84698 27.3622 1.52832 26.2979 1.52832H19.3677C18.3161 1.52832 17.4637 2.44135 17.4637 3.56763ZM19.849 7.28558L19.8623 3.92832H24.1507L22.8969 5.60695L24.1507 7.28558H19.849ZM27.9009 25.5264L31.273 31.9632L33.3019 31.9632C33.8745 31.9632 34.2359 31.3475 33.9568 30.8475L29.6729 23.1756L27.9009 25.5264ZM6.06417 31.9632L9.21966 25.9448L7.49842 23.3406L3.46903 30.859C3.20127 31.3586 3.56322 31.9633 4.13009 31.9633L6.06417 31.9632ZM9.11913 31.9511L14.7818 21.1507L17.5464 23.008C18.3291 23.5339 19.3567 23.5159 20.1205 22.963L22.578 21.184L28.2186 31.9511H9.11913ZM18.7915 20.5918L16.043 18.7452L18.1273 15.3507L19.2177 15.3508L21.3119 18.7673L18.7915 20.5918Z" fill="white"/>
</svg>
