<svg width="37" height="36" viewBox="0 0 37 36" fill="none" xmlns="http://www.w3.org/2000/svg">
<path fill-rule="evenodd" clip-rule="evenodd" d="M7.67759 4.75144C8.09834 4.03798 8.86491 3.6001 9.6932 3.6001H27.4229C28.2512 3.6001 29.0178 4.03797 29.4385 4.75144L34.3254 13.0381C34.8288 13.8918 34.7399 14.97 34.1034 15.7297L20.3517 32.1416C19.4164 33.2578 17.6997 33.2578 16.7645 32.1416L3.01273 15.7297C2.37623 14.97 2.28728 13.8918 2.79071 13.0381L7.67759 4.75144ZM9.16327 7.90175L6.24549 12.8494H11.2251L9.16327 7.90175ZM11.6909 6.4801L13.5601 10.9656L16.1548 6.4801H11.6909ZM20.9527 6.4801L23.6218 11.1278L25.5632 6.4801H20.9527ZM28.0335 8.03843L26.0238 12.8494H30.8706L28.0335 8.03843ZM21.2894 12.8494L18.5534 8.08525L15.7975 12.8494H21.2894ZM15.3622 15.7294H21.8561L18.5731 25.57L15.3622 15.7294ZM12.3328 15.7294H6.76991L15.8806 26.6025L12.3328 15.7294ZM21.2839 26.5448L24.8922 15.7294H30.3462L21.2839 26.5448Z" fill="white"/>
</svg>
