<svg width="36" height="36" viewBox="0 0 36 36" fill="none" xmlns="http://www.w3.org/2000/svg">
<path fill-rule="evenodd" clip-rule="evenodd" d="M19.2309 2.29163C18.7189 1.81045 17.8912 1.62103 17.1472 2.03607C14.3805 3.57968 11.5978 6.70017 9.45537 9.9979C7.31068 13.2992 5.6217 17.065 5.26106 20.0714C4.86889 23.3405 5.75656 26.9257 7.9144 29.7144C10.1025 32.5422 13.5603 34.5 18.1409 34.5C20.9326 34.5 23.1919 33.798 24.9741 32.6155C26.7485 31.438 27.9666 29.8399 28.774 28.1693C30.3587 24.891 30.4469 21.1591 29.9592 19.1467C29.502 17.2603 28.4159 15.1148 27.2354 13.2693C26.0569 11.4268 24.67 9.70577 23.4975 8.72211C22.9333 8.24873 22.1632 8.18077 21.5429 8.5114C20.9387 8.83351 20.5785 9.47601 20.6117 10.1658C20.6408 10.7718 20.6642 11.4809 20.565 12.1067C20.5397 12.2665 20.5099 12.3981 20.4788 12.5063C20.0539 12.2549 19.7453 11.9451 19.5138 11.6029C19.1444 11.0568 18.9181 10.346 18.8356 9.49279C18.6678 7.7564 19.1254 5.73587 19.6833 4.24022C19.9553 3.51112 19.7255 2.75651 19.2309 2.29163ZM15.9597 6.69979C15.809 7.70335 15.7504 8.75578 15.8496 9.78143C15.9652 10.9777 16.3027 12.21 17.0288 13.2836C17.77 14.3794 18.8621 15.228 20.3312 15.706C20.7675 15.848 21.3165 15.835 21.8045 15.5354C22.7988 14.9251 23.2317 13.912 23.4321 13.0652C23.8547 13.6143 24.2883 14.2294 24.7082 14.8859C25.8075 16.6045 26.6982 18.4283 27.0436 19.8533C27.3744 21.2183 27.343 24.2365 26.073 26.8638C25.4532 28.1461 24.5603 29.2896 23.3154 30.1157C22.0782 30.9367 20.4099 31.5 18.1409 31.5C14.4963 31.5 11.9116 29.9781 10.2871 27.8785C8.63225 25.7399 7.93724 22.9501 8.23971 20.4287C8.52229 18.0731 9.94089 14.7573 11.9711 11.6323C13.1992 9.74185 14.5832 8.02597 15.9597 6.69979Z" fill="white"/>
<path d="M13.5796 23.4566C13.1384 25.7308 14.5272 28.5 17.9891 28.5C21.4531 28.5 22.8631 25.7308 22.4217 23.4231C22.0161 21.302 19.7194 18.5941 18.5506 17.1944C18.2515 16.8362 17.6964 16.8107 17.3921 17.1646C16.162 18.5953 13.9668 21.4606 13.5796 23.4566Z" fill="white"/>
</svg>
