<svg width="37" height="36" viewBox="0 0 37 36" fill="none" xmlns="http://www.w3.org/2000/svg">
<path fill-rule="evenodd" clip-rule="evenodd" d="M19.8335 11.7439C21.5813 11.1262 22.8335 9.45933 22.8335 7.5C22.8335 5.01472 20.8188 3 18.3335 3C15.8482 3 13.8335 5.01472 13.8335 7.5C13.8335 9.45933 15.0857 11.1262 16.8335 11.7439V19.5C16.8335 20.3284 17.5051 21 18.3335 21C19.1619 21 19.8335 20.3284 19.8335 19.5V11.7439ZM16.8335 7.5C16.8335 6.67157 17.5051 6 18.3335 6C19.1619 6 19.8335 6.67157 19.8335 7.5C19.8335 8.32843 19.1619 9 18.3335 9C17.5051 9 16.8335 8.32843 16.8335 7.5Z" fill="white"/>
<path fill-rule="evenodd" clip-rule="evenodd" d="M9.7024 15C8.50489 15 7.42209 15.7122 6.94777 16.8117L3.57886 24.6215C3.41699 24.9967 3.3335 25.4011 3.3335 25.8097V30C3.3335 31.6569 4.67664 33 6.3335 33H30.3335C31.9904 33 33.3335 31.6569 33.3335 30V25.8097C33.3335 25.4011 33.25 24.9967 33.0881 24.6215L29.7192 16.8117C29.2449 15.7122 28.1621 15 26.9646 15H24.6423C23.8139 15 23.1423 15.6716 23.1423 16.5C23.1423 17.3284 23.8139 18 24.6423 18H26.9646L29.5528 24L7.11417 24L9.7024 18H12.0247C12.8531 18 13.5247 17.3284 13.5247 16.5C13.5247 15.6716 12.8531 15 12.0247 15H9.7024ZM6.3335 27V30H30.3335V27H6.3335Z" fill="white"/>
</svg>
