<svg width="36" height="36" viewBox="0 0 36 36" fill="none" xmlns="http://www.w3.org/2000/svg">
<path fill-rule="evenodd" clip-rule="evenodd" d="M12 12V6C12 5.17157 12.6716 4.5 13.5 4.5H22.5C23.3284 4.5 24 5.17157 24 6V12H30C30.8284 12 31.5 12.6716 31.5 13.5V22.5C31.5 23.3284 30.8284 24 30 24H24V30C24 30.8284 23.3284 31.5 22.5 31.5H13.5C12.6716 31.5 12 30.8284 12 30V24H6C5.17157 24 4.5 23.3284 4.5 22.5V13.5C4.5 12.6716 5.17157 12 6 12H12ZM15 7.5H21V15H28.5V21H21V28.5H15V21H7.5L7.5 15H15V7.5Z" fill="white"/>
</svg>
