<svg width="37" height="36" viewBox="0 0 37 36" fill="none" xmlns="http://www.w3.org/2000/svg">
<path fill-rule="evenodd" clip-rule="evenodd" d="M12.3335 6C12.3335 4.34315 13.6766 3 15.3335 3H21.3335C22.9904 3 24.3335 4.34315 24.3335 6V12H30.3335C31.9903 12 33.3335 13.3431 33.3335 15V30C33.3335 31.6569 31.9903 33 30.3335 33H6.3335C4.67664 33 3.3335 31.6569 3.3335 30V21C3.3335 19.3431 4.67664 18 6.3335 18H12.3335V6ZM21.3335 30V6L15.3335 6V30H21.3335ZM24.3335 15V30H30.3335V15H24.3335ZM6.3335 21H12.3335V30H6.3335V21Z" fill="white"/>
</svg>
