<svg width="36" height="36" viewBox="0 0 36 36" fill="none" xmlns="http://www.w3.org/2000/svg">
<path d="M19.7781 20.7787L18.5307 18.3216C18.4801 18.2249 18.4041 18.1439 18.3109 18.0872C18.2177 18.0306 18.1108 18.0004 18.0017 18C17.8926 17.9996 17.7855 18.0289 17.6918 18.0849C17.5982 18.1409 17.5216 18.2213 17.4703 18.3176L16.2219 20.7747H14.0959C13.9789 20.7718 13.8637 20.8043 13.7655 20.868C13.6672 20.9316 13.5904 21.0235 13.5452 21.1315C13.5 21.2394 13.4883 21.3586 13.5119 21.4733C13.5354 21.5879 13.593 21.6929 13.6771 21.7743L15.6292 23.6956L14.5477 26.1797C14.5 26.2934 14.4893 26.4193 14.517 26.5395C14.5447 26.6597 14.6095 26.7682 14.7021 26.8496C14.7948 26.931 14.9107 26.9812 15.0334 26.9932C15.1562 27.0052 15.2796 26.9783 15.3863 26.9164L18 25.4459L20.6137 26.9204C20.7204 26.9823 20.8438 27.0092 20.9666 26.9972C21.0893 26.9852 21.2052 26.935 21.2979 26.8536C21.3905 26.7722 21.4553 26.6637 21.483 26.5435C21.5107 26.4233 21.5 26.2974 21.4523 26.1837L20.3708 23.6996L22.3229 21.7783C22.407 21.6969 22.4646 21.5919 22.4881 21.4773C22.5117 21.3626 22.5 21.2434 22.4548 21.1355C22.4096 21.0275 22.3328 20.9356 22.2345 20.872C22.1363 20.8083 22.0211 20.7758 21.9041 20.7787H19.7781Z" fill="white"/>
<path fill-rule="evenodd" clip-rule="evenodd" d="M4.5 3C3.95471 3 3.45238 3.29592 3.18804 3.77285C2.9237 4.24978 2.939 4.8326 3.228 5.295L9.84613 15.884C8.37918 17.6897 7.5 19.9922 7.5 22.5C7.5 28.299 12.201 33 18 33C23.799 33 28.5 28.299 28.5 22.5C28.5 19.9922 27.6208 17.6897 26.1539 15.884L32.772 5.295C33.061 4.8326 33.0763 4.24978 32.812 3.77285C32.5476 3.29592 32.0453 3 31.5 3H4.5ZM24.0005 18C22.8572 16.4778 21.1482 15.4049 19.1856 15.0932C18.7994 15.0319 18.4034 15 18 15C17.5966 15 17.2006 15.0319 16.8144 15.0932C14.8518 15.4049 13.1428 16.4778 11.9995 18C11.0579 19.2535 10.5 20.8116 10.5 22.5C10.5 26.6421 13.8579 30 18 30C22.1421 30 25.5 26.6421 25.5 22.5C25.5 20.8116 24.9421 19.2535 24.0005 18ZM23.9073 13.8181L28.7936 6H25.688L21.7287 12.6813C22.5029 12.9755 23.2332 13.3586 23.9073 13.8181ZM18.6341 12.0188L22.2008 6H13.7992L17.3659 12.0188C17.5756 12.0063 17.7871 12 18 12C18.2129 12 18.4244 12.0063 18.6341 12.0188ZM14.2713 12.6813L10.312 6H7.20637L12.0927 13.8181C12.7668 13.3586 13.4971 12.9755 14.2713 12.6813Z" fill="white"/>
</svg>
