<svg width="36" height="36" viewBox="0 0 36 36" fill="none" xmlns="http://www.w3.org/2000/svg">
<path fill-rule="evenodd" clip-rule="evenodd" d="M16.5275 4.20613C16.9023 2.66271 19.0973 2.66276 19.472 4.20613L21.0394 10.6617L26.7125 7.20524C28.0688 6.37886 29.6209 7.93099 28.7945 9.28728L25.3381 14.9604L31.7936 16.5278C33.3371 16.9025 33.337 19.0975 31.7936 19.4722L25.3381 21.0396L28.7945 26.7127C29.6209 28.0691 28.0688 29.6211 26.7125 28.7948L21.0394 25.3383L19.472 31.7939C19.0972 33.3373 16.9023 33.3373 16.5275 31.7939L14.9601 25.3383L9.28704 28.7948C7.93069 29.6212 6.37865 28.069 7.205 26.7127L10.6614 21.0396L4.20588 19.4722C2.66247 19.0975 2.66252 16.9025 4.20588 16.5278L10.6614 14.9604L7.205 9.28728C6.37862 7.93094 7.93074 6.37889 9.28704 7.20524L14.9601 10.6617L16.5275 4.20613ZM17.9998 10.8574L17.3958 13.345C17.1537 14.342 16.0115 14.8152 15.1353 14.2813L12.9492 12.9494L14.2811 15.1355C14.8149 16.0117 14.3418 17.1539 13.3448 17.396L10.8572 18L13.3448 18.604C14.3418 18.8461 14.8149 19.9883 14.2811 20.8645L12.9492 23.0506L15.1353 21.7187C16.0114 21.1849 17.1537 21.658 17.3958 22.655L17.9998 25.1426L18.6038 22.655C18.8458 21.658 19.9881 21.1848 20.8642 21.7187L23.0503 23.0506L21.7184 20.8645C21.1846 19.9883 21.6577 18.8461 22.6548 18.604L25.1424 18L22.6548 17.396C21.6578 17.1539 21.1846 16.0117 21.7184 15.1355L23.0503 12.9494L20.8642 14.2813C19.9881 14.8152 18.8458 14.342 18.6038 13.345L17.9998 10.8574Z" fill="white"/>
</svg>
