<svg width="37" height="36" viewBox="0 0 37 36" fill="none" xmlns="http://www.w3.org/2000/svg">
<path d="M16.2509 19.902L16.3005 19.8768C16.2784 19.8883 16.256 19.8996 16.2336 19.9107L16.2509 19.902Z" fill="white"/>
<path fill-rule="evenodd" clip-rule="evenodd" d="M12.2678 20.2476H13.951C14.7967 20.2476 15.5351 20.0904 16.1668 19.7764C16.8018 19.4624 17.2942 19.0152 17.6442 18.4345C17.9977 17.8538 18.175 17.1657 18.175 16.3711C18.175 15.5836 18.0034 14.8961 17.6607 14.308C17.3179 13.7198 16.838 13.2634 16.2208 12.9386C15.6037 12.6138 14.8834 12.4512 14.0596 12.4512H9.53798C9.39053 12.4512 9.271 12.5707 9.271 12.7182V23.2817C9.271 23.4291 9.39053 23.5487 9.53798 23.5487H12.0008C12.1482 23.5487 12.2678 23.4291 12.2678 23.2817V20.2476ZM12.2678 17.9241V15.1288C12.2678 14.9692 12.3971 14.8398 12.5568 14.8398C12.6178 14.8398 12.6809 14.8394 12.7455 14.8389C13.2005 14.8357 13.7289 14.8319 14.1571 14.9807C14.4078 15.0678 14.6348 15.2099 14.7975 15.4411C14.9599 15.6719 15.0479 15.9768 15.0479 16.3711C15.0479 16.802 14.9547 17.1283 14.7815 17.3695C14.6077 17.6117 14.3651 17.7515 14.0989 17.8311C13.8351 17.9101 13.5416 17.9319 13.2549 17.9354C13.1109 17.9372 12.966 17.9343 12.8256 17.931L12.7757 17.9298C12.6523 17.9269 12.5328 17.9241 12.4178 17.9241H12.2678Z" fill="white"/>
<path d="M24.5502 20.1605L26.4126 23.4143C26.4601 23.4974 26.5485 23.5487 26.6443 23.5487H29.4363C29.6457 23.5487 29.7736 23.3187 29.6631 23.1408L26.5631 18.1496C26.506 18.0578 26.505 17.9417 26.5605 17.8489L29.5451 12.8551C29.6514 12.6772 29.5232 12.4512 29.3159 12.4512H26.6011C26.5052 12.4512 26.4167 12.5026 26.3692 12.5859L24.5499 15.775L22.7526 12.587C22.7053 12.5031 22.6164 12.4512 22.5201 12.4512H19.7828C19.5759 12.4512 19.4476 12.6765 19.5533 12.8545L22.5194 17.8501C22.5742 17.9423 22.5733 18.0573 22.5173 18.1487L19.4549 23.1421C19.3458 23.32 19.4738 23.5487 19.6825 23.5487H22.4561C22.5519 23.5487 22.6403 23.4974 22.6878 23.4143L24.5502 20.1605Z" fill="white"/>
<path fill-rule="evenodd" clip-rule="evenodd" d="M16.8202 0.601765C18.2132 -0.200589 19.9281 -0.200588 21.3212 0.601766L33.0013 7.32902C34.3988 8.13389 35.26 9.62379 35.26 11.2365V24.7635C35.26 26.3762 34.3988 27.8661 33.0013 28.671L21.3212 35.3982C19.9281 36.2006 18.2132 36.2006 16.8201 35.3982L5.14003 28.671C3.74258 27.8661 2.88135 26.3762 2.88135 24.7635V11.2365C2.88135 9.6238 3.74258 8.13389 5.14004 7.32902L16.8202 0.601765ZM19.8239 3.20141L31.504 9.92866C31.9717 10.198 32.26 10.6967 32.26 11.2365V24.7635C32.26 25.3033 31.9717 25.802 31.504 26.0713L19.8239 32.7986C19.3577 33.0671 18.7837 33.0671 18.3174 32.7986L6.63732 26.0713C6.1696 25.802 5.88135 25.3033 5.88135 24.7635V11.2365C5.88135 10.6967 6.1696 10.198 6.63732 9.92866L18.3174 3.20141C18.7837 2.93286 19.3577 2.93286 19.8239 3.20141Z" fill="white"/>
</svg>
