<svg width="36" height="36" viewBox="0 0 36 36" fill="none" xmlns="http://www.w3.org/2000/svg">
<path fill-rule="evenodd" clip-rule="evenodd" d="M18.0015 10.5541L17.1501 13.1741C16.5477 15.0282 14.8199 16.2835 12.8704 16.2835H10.1155L12.3443 17.9028C13.9214 19.0487 14.5814 21.0799 13.979 22.934L13.1277 25.5541L15.3564 23.9348C16.9336 22.7889 19.0693 22.7889 20.6465 23.9348L22.8753 25.5541L22.0239 22.934C21.4215 21.0799 22.0815 19.0487 23.6587 17.9028L25.8874 16.2835H23.1325C21.183 16.2835 19.4552 15.0282 18.8528 13.1741L18.0015 10.5541ZM19.428 5.23642C18.979 3.85446 17.0239 3.85446 16.5749 5.23643L14.297 12.2471C14.0962 12.8651 13.5202 13.2835 12.8704 13.2835H5.49897C4.04588 13.2835 3.44172 15.143 4.61729 15.9971L10.5809 20.3299C11.1066 20.7118 11.3266 21.3889 11.1258 22.0069L8.84791 29.0176C8.39888 30.3995 9.98061 31.5487 11.1562 30.6946L17.1198 26.3618C17.6455 25.9798 18.3574 25.9798 18.8831 26.3618L24.8467 30.6946C26.0223 31.5487 27.604 30.3995 27.155 29.0176L24.8771 22.0069C24.6763 21.3889 24.8963 20.7118 25.422 20.3299L31.3856 15.9971C32.5612 15.143 31.957 13.2835 30.5039 13.2835H23.1325C22.4827 13.2835 21.9068 12.8651 21.7059 12.2471L19.428 5.23642Z" fill="white"/>
</svg>
