<svg width="37" height="36" viewBox="0 0 37 36" fill="none" xmlns="http://www.w3.org/2000/svg">
<path fill-rule="evenodd" clip-rule="evenodd" d="M35.5244 5.26182L31.045 5.29322L31.0747 0.8125C26.2818 1.62227 23.0665 3.64959 22.7063 9.0328C20.9703 8.0567 18.9669 7.49997 16.8335 7.49997C10.2061 7.49997 4.8335 12.8726 4.8335 19.5C4.8335 26.1274 10.2061 31.5 16.8335 31.5C23.4609 31.5 28.8335 26.1274 28.8335 19.5C28.8335 17.7189 28.4455 16.0284 27.7493 14.5085L25.4303 16.8281C25.6923 17.6723 25.8335 18.5696 25.8335 19.5C25.8335 24.4705 21.8041 28.5 16.8335 28.5C11.8629 28.5 7.8335 24.4705 7.8335 19.5C7.8335 14.5294 11.8629 10.5 16.8335 10.5C18.7772 10.5 20.577 11.1161 22.0483 12.1638L18.7736 15.4385C18.1862 15.1574 17.5282 15 16.8335 15C14.3482 15 12.3335 17.0147 12.3335 19.5C12.3335 21.9853 14.3482 24 16.8335 24C19.3188 24 21.3335 21.9853 21.3335 19.5C21.3335 18.8052 21.1761 18.1473 20.8949 17.5598L24.8041 13.6506C30.6546 13.9437 34.507 11.2917 35.5244 5.26182ZM25.8607 10.6778C27.9316 10.6824 30.9853 10.5755 31.8064 8.28796L28.0249 8.31446L28.05 4.53099C25.6455 5.39451 25.6555 8.2993 25.6607 10.4778L25.8607 10.6778Z" fill="white"/>
</svg>
