<svg width="36" height="36" viewBox="0 0 36 36" fill="none" xmlns="http://www.w3.org/2000/svg">
<g clip-path="url(#clip0_304_187)">
<path d="M13.0239 7.2002C13.9591 7.2002 14.8223 7.27652 15.6136 7.5055C16.4049 7.65815 17.0524 7.96345 17.6279 8.34507C18.2034 8.7267 18.635 9.26097 18.9227 9.9479C19.2105 10.6348 19.3544 11.4744 19.3544 12.3903C19.3544 13.4589 19.1386 14.3748 18.635 15.0617C18.2034 15.7486 17.484 16.3592 16.6207 16.8172C17.8437 17.1988 18.7789 17.8857 19.3544 18.8016C19.9299 19.7175 20.2895 20.8624 20.2895 22.1599C20.2895 23.2285 20.0737 24.1444 19.7141 24.9076C19.3544 25.6709 18.7789 26.3578 18.1314 26.8157C17.484 27.2737 16.6927 27.6553 15.8294 27.8843C14.9662 28.1133 14.1029 28.2659 13.2397 28.2659H3.6001V7.2002H13.0239ZM12.4484 15.7486C13.2397 15.7486 13.8871 15.5196 14.3907 15.138C14.8943 14.7564 15.1101 14.0695 15.1101 13.2299C15.1101 12.7719 15.0381 12.314 14.8943 12.0087C14.7504 11.7034 14.5346 11.4744 14.2468 11.2454C13.9591 11.0928 13.6713 10.9401 13.3116 10.8638C12.9519 10.7875 12.5923 10.7875 12.1606 10.7875H7.98827V15.7486H12.4484ZM12.6642 24.755C13.0958 24.755 13.5274 24.6786 13.8871 24.6023C14.2468 24.526 14.6065 24.3733 14.8943 24.1444C15.182 23.9154 15.3978 23.6864 15.6136 23.3048C15.7575 22.9232 15.9014 22.4652 15.9014 21.9309C15.9014 20.8624 15.6136 20.0991 15.0381 19.5649C14.4626 19.1069 13.6713 18.8779 12.7361 18.8779H7.98827V24.755H12.6642ZM26.5481 24.6786C27.1236 25.2892 27.9868 25.5945 29.1378 25.5945C29.9291 25.5945 30.6485 25.3656 31.224 24.9839C31.7995 24.526 32.1592 24.068 32.3031 23.6101H35.828C35.2525 25.4419 34.3893 26.7394 33.2383 27.579C32.0873 28.3422 30.7205 28.8002 29.0659 28.8002C27.9149 28.8002 26.9078 28.5712 25.9726 28.1896C25.0374 27.808 24.318 27.2737 23.6706 26.5104C23.0232 25.8235 22.5196 24.9839 22.2319 23.9917C21.8722 22.9995 21.7283 21.9309 21.7283 20.7097C21.7283 19.5649 21.8722 18.4963 22.2319 17.5041C22.5915 16.5119 23.0951 15.6723 23.7425 14.909C24.39 14.2221 25.1813 13.6115 26.0445 13.2299C26.9797 12.8483 27.9149 12.6193 29.0659 12.6193C30.2888 12.6193 31.3679 12.8483 32.3031 13.3825C33.2383 13.9168 33.9576 14.5274 34.5331 15.4433C35.1086 16.2829 35.5403 17.2751 35.828 18.3437C35.9719 19.4122 36.0438 20.4808 35.9719 21.702H25.541C25.541 22.9232 25.9726 24.068 26.5481 24.6786ZM31.0801 16.6645C30.5766 16.1302 29.7853 15.8249 28.8501 15.8249C28.2026 15.8249 27.6991 15.9776 27.2675 16.2066C26.8358 16.4355 26.5481 16.7408 26.2603 17.0461C25.9726 17.3514 25.8287 17.7331 25.7568 18.1147C25.6848 18.4963 25.6129 18.8016 25.6129 19.1069H32.0873C31.9434 17.962 31.5837 17.1988 31.0801 16.6645ZM24.7497 8.65037H32.8066V10.7111H24.7497V8.65037Z" fill="white"/>
</g>
<defs>
<clipPath id="clip0_304_187">
<rect width="36" height="36" fill="white"/>
</clipPath>
</defs>
</svg>
