<svg width="37" height="36" viewBox="0 0 37 36" fill="none" xmlns="http://www.w3.org/2000/svg">
<path d="M27.4479 14.3673L19.3654 8.96284V13.7908L23.8504 16.7933L27.4479 14.3673Z" fill="white"/>
<path d="M17.3028 13.7668V8.96284L9.22028 14.3673L12.8418 16.7693L17.3028 13.7668Z" fill="white"/>
<path d="M10.9711 18.0183L8.40484 16.2889V19.7478L10.9711 18.0183Z" fill="white"/>
<path d="M17.2788 27.0578L9.22028 21.6694L12.8178 19.2434L17.2788 22.2459V27.0578Z" fill="white"/>
<path d="M14.6886 18.0183L18.3341 20.4684L21.9796 18.0183L18.3341 15.5683L14.6886 18.0183Z" fill="white"/>
<path d="M19.3654 22.2699V27.0738L27.4239 21.6934L23.8264 19.2674L19.3654 22.2699Z" fill="white"/>
<path d="M25.6971 18.0183L28.2634 19.7478L28.2873 16.2889L25.6971 18.0183Z" fill="white"/>
<path fill-rule="evenodd" clip-rule="evenodd" d="M7.83301 1.5C4.5193 1.5 1.83301 4.18629 1.83301 7.5V28.5C1.83301 31.8137 4.5193 34.5 7.83301 34.5H28.833C32.1467 34.5 34.833 31.8137 34.833 28.5V7.5C34.833 4.18629 32.1467 1.5 28.833 1.5H7.83301ZM29.2706 13.0858C29.7205 13.3641 30.2437 13.6876 30.326 14.2232C30.3489 14.4529 30.328 14.6826 30.3051 14.9334L30.302 14.9678V21.5733C30.302 21.9816 30.1581 22.3179 29.8223 22.5581C29.7187 22.6446 29.6027 22.7186 29.4921 22.7891C29.4491 22.8165 29.4069 22.8435 29.3666 22.8704L26.9922 24.4557C25.9249 25.1643 24.8577 25.8789 23.7904 26.5935C22.7231 27.3081 21.6558 28.0226 20.5886 28.7312C20.3128 28.9114 20.0429 29.0915 19.7731 29.2717C19.5033 29.4518 19.2335 29.632 18.9577 29.8121C18.327 30.2332 17.81 29.8796 17.296 29.528C17.2823 29.5186 17.2686 29.5092 17.2548 29.4999C16.2955 28.8633 15.3362 28.2208 14.3768 27.5783C13.4175 26.9358 12.4581 26.2932 11.4987 25.6567C11.0725 25.3743 10.6463 25.0937 10.2205 24.8134C9.08913 24.0686 7.96118 23.326 6.8459 22.5581C6.29704 22.1917 6.31676 21.5491 6.33552 20.9376C6.33889 20.8276 6.34224 20.7187 6.34224 20.6125V16.7693C6.34224 16.506 6.33959 16.24 6.33693 15.9731C6.3316 15.4367 6.32622 14.8966 6.34224 14.3673C6.36347 13.7293 6.9111 13.3926 7.40257 13.0904C7.4662 13.0513 7.5289 13.0127 7.58939 12.9742L13.6333 8.93882C14.3167 8.48255 15.006 8.02028 15.6954 7.55801C16.3851 7.09552 17.0748 6.63302 17.7585 6.17653C18.1182 5.93633 18.5739 5.93633 18.9097 6.17653C19.1495 6.33266 19.3894 6.4948 19.6292 6.65693C19.8691 6.81907 20.1089 6.9812 20.3487 7.13733C21.3681 7.82196 22.3935 8.50659 23.4189 9.19121C24.4441 9.87572 25.4694 10.5602 26.4886 11.2447C26.9203 11.533 27.3461 11.8153 27.7718 12.0975C28.1975 12.3797 28.6232 12.6619 29.0548 12.9501C29.1232 12.9946 29.1959 13.0396 29.2706 13.0858Z" fill="white"/>
</svg>
