<svg width="36" height="36" viewBox="0 0 36 36" fill="none" xmlns="http://www.w3.org/2000/svg">
<path d="M18 22.5C20.4853 22.5 22.5 20.4853 22.5 18C22.5 15.5147 20.4853 13.5 18 13.5C15.5147 13.5 13.5 15.5147 13.5 18C13.5 20.4853 15.5147 22.5 18 22.5Z" fill="white"/>
<path fill-rule="evenodd" clip-rule="evenodd" d="M9 3C5.68629 3 3 5.68629 3 9V27C3 30.3137 5.68629 33 9 33H27C30.3137 33 33 30.3137 33 27V9C33 5.68629 30.3137 3 27 3H9ZM18 25.5C22.1421 25.5 25.5 22.1421 25.5 18C25.5 13.8579 22.1421 10.5 18 10.5C13.8579 10.5 10.5 13.8579 10.5 18C10.5 22.1421 13.8579 25.5 18 25.5ZM27 9C27 9.82843 26.3284 10.5 25.5 10.5C24.6716 10.5 24 9.82843 24 9C24 8.17157 24.6716 7.5 25.5 7.5C26.3284 7.5 27 8.17157 27 9Z" fill="white"/>
</svg>
