<svg width="37" height="36" viewBox="0 0 37 36" fill="none" xmlns="http://www.w3.org/2000/svg">
<path d="M12.2408 29.0328H7.44172V13.175H12.4494V29.0328H12.2408ZM9.94559 11.0884C8.27634 11.0884 7.02441 9.62785 7.02441 8.16727C7.02441 6.49802 8.27634 5.24609 9.94559 5.24609C11.6148 5.24609 12.8668 6.49802 12.8668 8.16727C12.6581 9.62785 11.4062 11.0884 9.94559 11.0884ZM30.8111 29.0328H25.8034V21.3125C25.8034 19.4346 25.8034 17.1394 23.2995 17.1394C20.7957 17.1394 20.3783 19.226 20.3783 21.3125V29.2414H15.3706V13.175H20.1697V15.2615C20.7957 14.0096 22.4649 12.7577 24.7601 12.7577C29.7678 12.7577 30.6024 16.0962 30.6024 20.2693V29.0328H30.8111Z" fill="white"/>
</svg>
