<svg width="37" height="36" viewBox="0 0 37 36" fill="none" xmlns="http://www.w3.org/2000/svg">
<path fill-rule="evenodd" clip-rule="evenodd" d="M7.83301 1.5C4.5193 1.5 1.83301 4.18629 1.83301 7.5V28.5C1.83301 31.8137 4.5193 34.5 7.83301 34.5H28.833C32.1467 34.5 34.833 31.8137 34.833 28.5V7.5C34.833 4.18629 32.1467 1.5 28.833 1.5H7.83301ZM12.824 10.5332C16.7598 10.5332 19.9505 13.8757 19.9505 17.999C19.9505 22.1222 16.76 25.4649 12.824 25.4649C8.88801 25.4649 5.69727 22.1214 5.69727 17.999C5.69727 13.8765 8.88825 10.5332 12.824 10.5332ZM24.2052 10.9703C26.1732 10.9703 27.7685 14.1178 27.7685 17.999C27.7685 21.8811 26.1729 25.0276 24.2049 25.0276C22.2369 25.0276 20.6418 21.8801 20.6418 17.999C20.6418 14.1178 22.2372 10.9703 24.2052 10.9703ZM29.713 11.7024C30.4053 11.7024 30.9663 14.5224 30.9663 17.999C30.9663 21.4765 30.405 24.2955 29.713 24.2955C29.021 24.2955 28.46 21.4762 28.46 17.999C28.46 14.5217 29.0208 11.7024 29.713 11.7024Z" fill="white"/>
</svg>
