<svg width="36" height="36" viewBox="0 0 36 36" fill="none" xmlns="http://www.w3.org/2000/svg">
<path d="M18 3C9.71484 3 3 9.71484 3 18C3 24.3574 6.95508 29.7832 12.5332 31.9687C12.4043 30.7793 12.2812 28.9629 12.5859 27.668C12.8613 26.4961 14.3438 20.2148 14.3438 20.2148C14.3438 20.2148 13.8926 19.3184 13.8926 17.9883C13.8926 15.9023 15.0996 14.3438 16.6055 14.3438C17.8828 14.3438 18.5039 15.3047 18.5039 16.459C18.5039 17.748 17.6836 19.6699 17.2617 21.4512C16.9102 22.9453 18.0117 24.1641 19.4824 24.1641C22.1484 24.1641 24.1992 21.3516 24.1992 17.2969C24.1992 13.7051 21.6211 11.1914 17.9355 11.1914C13.6699 11.1914 11.1621 14.3906 11.1621 17.7012C11.1621 18.9902 11.6602 20.373 12.2812 21.123C12.4043 21.2695 12.4219 21.4043 12.3867 21.5508C12.2754 22.0254 12.0176 23.0449 11.9707 23.25C11.9062 23.5254 11.7539 23.584 11.4668 23.4492C9.5918 22.5762 8.41992 19.8398 8.41992 17.6367C8.41992 12.9023 11.8594 8.56055 18.3281 8.56055C23.5312 8.56055 27.5742 12.2695 27.5742 17.2266C27.5742 22.3945 24.3164 26.5547 19.793 26.5547C18.2754 26.5547 16.8457 25.7637 16.3535 24.832C16.3535 24.832 15.6035 27.6973 15.4219 28.4004C15.082 29.7012 14.168 31.3359 13.5586 32.332C14.9648 32.7656 16.4531 33 18 33C26.2852 33 33 26.2852 33 18C33 9.71484 26.2852 3 18 3Z" fill="white"/>
</svg>
