<svg width="36" height="36" viewBox="0 0 36 36" fill="none" xmlns="http://www.w3.org/2000/svg">
<path fill-rule="evenodd" clip-rule="evenodd" d="M18 34C9.16344 34 2 26.8366 2 18C2 9.16344 9.16344 2 18 2C26.8366 2 34 9.16344 34 18C34 26.8366 26.8366 34 18 34ZM29.7333 17.7917C29.7333 16.3283 28.5377 15.1376 27.0676 15.1376C26.3952 15.1376 25.7818 15.3891 25.3124 15.7995C23.6422 14.7313 21.4341 14.0362 18.9888 13.9146L20.2746 9.86828L23.7829 10.6908C23.8223 11.8695 24.7951 12.8173 25.9889 12.8173C27.2073 12.8173 28.1986 11.8306 28.1986 10.6173C28.1986 9.40411 27.207 8.41738 25.9889 8.41738C25.1039 8.41738 24.3411 8.93916 23.9883 9.68848L20.0461 8.76506C19.785 8.70409 19.5197 8.8538 19.4397 9.10858L17.9175 13.8987C15.314 13.9496 12.9521 14.6496 11.1821 15.7645C10.718 15.3743 10.1188 15.1376 9.46574 15.1376C7.99566 15.1379 6.8 16.3283 6.8 17.7917C6.8 18.7234 7.28577 19.5425 8.01703 20.0157C7.97976 20.2534 7.9597 20.4942 7.9597 20.7378C7.9597 24.5117 12.562 27.5821 18.2198 27.5821C23.877 27.5821 28.4798 24.5117 28.4798 20.7378C28.4798 20.5118 28.4626 20.2884 28.4306 20.0674C29.2085 19.6045 29.7333 18.7592 29.7333 17.7917Z" fill="white"/>
<path fill-rule="evenodd" clip-rule="evenodd" d="M28.1494 19.0134C27.7744 18.0522 27.0916 17.1728 26.1776 16.4238C26.4341 16.2575 26.7395 16.1599 27.0679 16.1599C27.9716 16.1599 28.7068 16.8918 28.7068 17.7917C28.7063 18.2781 28.49 18.7146 28.1494 19.0134Z" fill="white"/>
<path fill-rule="evenodd" clip-rule="evenodd" d="M25.9889 9.44017C26.6412 9.44017 27.1718 9.96869 27.1718 10.6181C27.1718 11.2675 26.6412 11.7958 25.9889 11.7958C25.3364 11.7958 24.8058 11.2675 24.8058 10.6181C24.8058 9.96869 25.3364 9.44017 25.9889 9.44017Z" fill="white"/>
<path fill-rule="evenodd" clip-rule="evenodd" d="M27.453 20.7383C27.453 23.9481 23.3104 26.5601 18.2198 26.5601C13.1283 26.5601 8.98649 23.9484 8.98649 20.7383C8.98649 20.6252 8.99274 20.5136 9.00264 20.4023C9.03366 20.0611 9.11288 19.7275 9.23354 19.4042C9.54653 18.5661 10.147 17.7971 10.9671 17.1414C11.2295 16.9315 11.5138 16.7333 11.8182 16.5483C13.4796 15.5388 15.7359 14.9161 18.2198 14.9161C20.7396 14.9161 23.0264 15.5564 24.6932 16.5919C24.9984 16.7811 25.2819 16.984 25.543 17.1985C26.3306 17.8443 26.9063 18.5973 27.2099 19.4159C27.3295 19.7402 27.4087 20.0741 27.4384 20.4161C27.4476 20.5232 27.453 20.6301 27.453 20.7383ZM16.4114 19.5077C16.4114 18.6458 15.7093 17.9227 14.8433 17.9227C13.9776 17.9227 13.2516 18.6458 13.2516 19.5077C13.2516 20.3694 13.9779 21.0691 14.8433 21.0691C15.7093 21.0681 16.4114 20.3694 16.4114 19.5077ZM21.7137 17.9222C20.848 17.9222 20.1196 18.645 20.1196 19.5069C20.1196 20.3691 20.848 21.0684 21.7137 21.0684C22.5797 21.0684 23.2823 20.3696 23.2823 19.5069C23.2818 18.6445 22.5797 17.9222 21.7137 17.9222ZM21.2707 23.2919C20.6898 23.8695 19.7117 24.15 18.2787 24.15C18.2742 24.15 18.2703 24.1513 18.2661 24.1513C18.2617 24.1513 18.2581 24.15 18.2539 24.15C16.8206 24.15 15.8423 23.8695 15.2621 23.2919C15.0617 23.0922 14.7365 23.0922 14.5361 23.2919C14.3354 23.492 14.3354 23.8155 14.5361 24.0145C15.3182 24.7934 16.5344 25.1725 18.2539 25.1725C18.2583 25.1725 18.262 25.1709 18.2661 25.1709C18.2703 25.1709 18.2742 25.1725 18.2787 25.1725C19.9979 25.1725 21.2144 24.7934 21.9972 24.0151C22.1982 23.815 22.1982 23.4917 21.9978 23.2925C21.7968 23.0927 21.4716 23.0927 21.2707 23.2919Z" fill="white"/>
<path fill-rule="evenodd" clip-rule="evenodd" d="M7.82679 17.7917C7.82679 16.8921 8.56196 16.1599 9.46548 16.1599C9.77065 16.1599 10.0558 16.2453 10.301 16.3908C9.38652 17.1306 8.70216 18.001 8.31621 18.9525C8.01416 18.6564 7.82679 18.2457 7.82679 17.7917Z" fill="white"/>
</svg>
