<svg width="36" height="36" viewBox="0 0 36 36" fill="none" xmlns="http://www.w3.org/2000/svg">
<path fill-rule="evenodd" clip-rule="evenodd" d="M18 35C8.61116 35 1 27.3888 1 18C1 8.61116 8.61116 1 18 1C27.3888 1 35 8.61116 35 18C35 27.3888 27.3888 35 18 35ZM26.5453 19.925C26.6764 19.3343 26.7447 18.7226 26.7447 18.0941C26.7447 13.3855 22.8734 9.5671 18.096 9.5671C17.5927 9.5671 17.0991 9.61019 16.6172 9.69217C15.8442 9.21185 14.9294 8.93333 13.9496 8.93333C11.1787 8.93333 8.93333 11.1468 8.93333 13.8795C8.93333 14.7917 9.18495 15.6452 9.62208 16.3809C9.508 16.9337 9.44722 17.5076 9.44722 18.0941C9.44722 22.8048 13.3195 26.6221 18.096 26.6221C18.6376 26.6221 19.1664 26.5727 19.6803 26.4791C20.3871 26.8533 21.1932 27.0667 22.0514 27.0667C24.8213 27.0667 27.0667 24.8522 27.0667 22.1216C27.0667 21.3323 26.879 20.5871 26.5453 19.925Z" fill="white"/>
<path fill-rule="evenodd" clip-rule="evenodd" d="M22.4027 22.1952C22.0084 22.761 21.4259 23.2077 20.6688 23.5246C19.9211 23.8394 19.0252 24 18.0042 24C16.7792 24 15.7518 23.782 14.9495 23.3512C14.3764 23.0386 13.9043 22.6153 13.5457 22.0899C13.183 21.5624 13 21.038 13 20.5307C13 20.2159 13.1199 19.9415 13.3554 19.7171C13.5889 19.4938 13.8885 19.3821 14.2461 19.3821C14.5384 19.3821 14.7918 19.4704 14.9968 19.6458C15.1935 19.8149 15.3617 20.0649 15.4974 20.385C15.6488 20.736 15.8128 21.0316 15.9863 21.2624C16.1546 21.4879 16.3954 21.6762 16.7024 21.824C17.0116 21.9708 17.429 22.0473 17.9411 22.0473C18.6467 22.0473 19.225 21.8942 19.6593 21.5943C20.0852 21.3018 20.2913 20.9487 20.2913 20.5169C20.2913 20.1776 20.183 19.9096 19.9621 19.699C19.7287 19.4799 19.4227 19.3098 19.0515 19.1906C18.6635 19.0694 18.1378 18.9365 17.4869 18.7982C16.6004 18.6068 15.8486 18.3802 15.2513 18.1218C14.6393 17.8591 14.1462 17.4943 13.7855 17.038C13.4196 16.5733 13.2334 15.9915 13.2334 15.3076C13.2334 14.6567 13.428 14.0686 13.8128 13.5624C14.1935 13.0593 14.7508 12.6658 15.469 12.3988C16.1767 12.134 17.0179 12 17.9716 12C18.7329 12 19.4027 12.0893 19.9621 12.2659C20.5247 12.4424 20.9979 12.6807 21.3701 12.9753C21.7455 13.2731 22.0252 13.5889 22.1998 13.9186C22.3764 14.2515 22.4669 14.5823 22.4669 14.9024C22.4669 15.2108 22.3491 15.4916 22.1167 15.7352C21.8833 15.9819 21.5878 16.1064 21.2408 16.1064C20.9253 16.1064 20.6772 16.0277 20.5068 15.8745C20.347 15.7309 20.1809 15.5076 19.9968 15.1885C19.7844 14.7801 19.5268 14.4579 19.2313 14.2303C18.9443 14.009 18.4658 13.8984 17.8065 13.8984C17.1966 13.8984 16.6982 14.0218 16.3291 14.2675C15.9737 14.5025 15.8002 14.7737 15.8002 15.0949C15.8002 15.2906 15.8559 15.4555 15.9716 15.5959C16.0915 15.7469 16.2629 15.8766 16.4795 15.9872C16.7035 16.101 16.9348 16.1925 17.1661 16.2563C17.4027 16.3233 17.8002 16.4222 18.346 16.5499C19.0368 16.6988 19.6709 16.8679 20.2313 17.0497C20.8002 17.2327 21.2902 17.4581 21.6919 17.7229C22.0999 17.992 22.4227 18.3366 22.653 18.7493C22.8833 19.1651 23 19.6756 23 20.2701C23 20.9806 22.7981 21.6283 22.4027 22.1952Z" fill="white"/>
</svg>
