<svg width="37" height="36" viewBox="0 0 37 36" fill="none" xmlns="http://www.w3.org/2000/svg">
<path fill-rule="evenodd" clip-rule="evenodd" d="M14.7324 4.5C13.2399 4.5011 12.032 5.70991 12.0331 7.19945C12.032 8.68899 13.241 9.8978 14.7335 9.8989H17.4339V7.20055C17.435 5.71101 16.226 4.5022 14.7324 4.5C14.7335 4.5 14.7335 4.5 14.7324 4.5ZM14.7324 11.7H7.53345C6.04093 11.7011 4.83191 12.9099 4.83301 14.3994C4.8308 15.889 6.03982 17.0978 7.53234 17.1H14.7324C16.2249 17.0989 17.4339 15.8901 17.4328 14.4005C17.4339 12.9099 16.2249 11.7011 14.7324 11.7Z" fill="white"/>
<path fill-rule="evenodd" clip-rule="evenodd" d="M31.8334 14.3994C31.8345 12.9099 30.6255 11.7011 29.133 11.7C27.6404 11.7011 26.4314 12.9099 26.4325 14.3994V17.1H29.133C30.6255 17.0989 31.8345 15.8901 31.8334 14.3994ZM24.6333 14.3994V7.19945C24.6344 5.71101 23.4265 4.5022 21.9339 4.5C20.4414 4.5011 19.2324 5.70991 19.2335 7.19945V14.3994C19.2313 15.889 20.4403 17.0978 21.9328 17.1C23.4254 17.0989 24.6344 15.8901 24.6333 14.3994Z" fill="white"/>
<path fill-rule="evenodd" clip-rule="evenodd" d="M21.9326 31.5C23.4251 31.4989 24.6341 30.2901 24.633 28.8006C24.6341 27.311 23.4251 26.1022 21.9326 26.1011H19.2322V28.8006C19.231 30.289 20.4401 31.4978 21.9326 31.5ZM21.9326 24.2989H29.1327C30.6252 24.2978 31.8342 23.089 31.8331 21.5994C31.8353 20.1099 30.6263 18.9011 29.1338 18.8989H21.9337C20.4412 18.9 19.2322 20.1088 19.2333 21.5983C19.2322 23.089 20.4401 24.2978 21.9326 24.2989Z" fill="white"/>
<path fill-rule="evenodd" clip-rule="evenodd" d="M4.83303 21.5994C4.83193 23.0889 6.04095 24.2977 7.53348 24.2988C9.02601 24.2977 10.235 23.0889 10.2339 21.5994V18.8999H7.53348C6.04095 18.901 4.83193 20.1098 4.83303 21.5994ZM12.0331 21.5994V28.7994C12.0309 30.289 13.2399 31.4978 14.7325 31.5C16.225 31.4989 17.434 30.2901 17.4329 28.8005V21.6016C17.4351 20.112 16.2261 18.9032 14.7336 18.901C13.2399 18.901 12.032 20.1098 12.0331 21.5994Z" fill="white"/>
</svg>
