<svg width="36" height="36" viewBox="0 0 36 36" fill="none" xmlns="http://www.w3.org/2000/svg">
<path fill-rule="evenodd" clip-rule="evenodd" d="M33 18C33 26.2843 26.2843 33 18 33C9.71573 33 3 26.2843 3 18C3 9.71573 9.71573 3 18 3C26.2843 3 33 9.71573 33 18ZM18.5373 14.0734C17.0783 14.6803 14.1625 15.9363 9.78965 17.8414C9.07958 18.1238 8.70761 18.4001 8.67375 18.6702C8.61652 19.1267 9.18818 19.3064 9.96663 19.5512C10.0725 19.5845 10.1822 19.619 10.2947 19.6555C11.0606 19.9045 12.0908 20.1958 12.6264 20.2073C13.1122 20.2178 13.6544 20.0175 14.2531 19.6065C18.3387 16.8485 20.4478 15.4545 20.5802 15.4245C20.6736 15.4033 20.803 15.3766 20.8907 15.4546C20.9785 15.5325 20.9698 15.6802 20.9605 15.7198C20.9039 15.9612 18.6599 18.0474 17.4987 19.127C17.1367 19.4636 16.8799 19.7023 16.8274 19.7568C16.7098 19.879 16.5899 19.9945 16.4748 20.1055C15.7632 20.7914 15.2297 21.3058 16.5043 22.1458C17.1168 22.5494 17.607 22.8832 18.096 23.2162C18.63 23.5799 19.1626 23.9426 19.8518 24.3944C20.0274 24.5095 20.1951 24.629 20.3584 24.7454C20.9799 25.1885 21.5382 25.5866 22.228 25.5231C22.6288 25.4862 23.0429 25.1093 23.2531 23.9852C23.7501 21.3287 24.7268 15.5729 24.9526 13.201C24.9723 12.9932 24.9475 12.7272 24.9275 12.6105C24.9075 12.4938 24.8657 12.3274 24.714 12.2043C24.5343 12.0585 24.2568 12.0277 24.1327 12.0299C23.5686 12.0398 22.703 12.3408 18.5373 14.0734Z" fill="white"/>
</svg>
