<svg width="37" height="36" viewBox="0 0 37 36" fill="none" xmlns="http://www.w3.org/2000/svg">
<path d="M32.8162 11.0502C32.9051 10.9763 32.9718 10.8791 33.0088 10.7695C33.0458 10.6599 33.0517 10.5422 33.0258 10.4295C32.9999 10.3168 32.9432 10.2135 32.8621 10.1311C32.7809 10.0486 32.6785 9.99036 32.5662 9.9627L31.5787 9.7127C31.4889 9.69022 31.4052 9.64807 31.3337 9.58931C31.2622 9.53055 31.2046 9.45664 31.1651 9.37292C31.1257 9.2892 31.1053 9.19775 31.1055 9.10519C31.1057 9.01263 31.1264 8.92126 31.1662 8.8377L31.7162 7.7252C31.7681 7.61739 31.7881 7.49694 31.7736 7.37815C31.7591 7.25936 31.7108 7.14723 31.6344 7.05508C31.5581 6.96293 31.4569 6.89464 31.3428 6.85832C31.2288 6.822 31.1068 6.81918 30.9912 6.8502L28.4912 7.5502C28.398 7.57736 28.2998 7.58247 28.2044 7.56511C28.1089 7.54776 28.0188 7.50841 27.9412 7.4502C26.8593 6.63881 25.5435 6.2002 24.1912 6.2002C22.5336 6.2002 20.9439 6.85868 19.7718 8.03078C18.5997 9.20288 17.9412 10.7926 17.9412 12.4502V12.9002C17.9417 12.977 17.914 13.0513 17.8633 13.1089C17.8126 13.1665 17.7424 13.2035 17.6662 13.2127C14.1537 13.6252 10.7912 11.8377 7.16619 7.6627C7.08744 7.57585 6.98627 7.51239 6.8738 7.47931C6.76133 7.44624 6.64192 7.44481 6.52869 7.4752C6.42668 7.52208 6.33919 7.59558 6.27541 7.68796C6.21162 7.78034 6.17389 7.8882 6.16619 8.0002C5.66551 10.0569 5.86794 12.222 6.74119 14.1502C6.76703 14.2013 6.77831 14.2586 6.77379 14.3157C6.76928 14.3728 6.74915 14.4276 6.7156 14.4741C6.68205 14.5205 6.63638 14.5569 6.58357 14.5791C6.53077 14.6013 6.47286 14.6086 6.41619 14.6002L5.01619 14.3252C4.91677 14.3092 4.81495 14.3175 4.71942 14.3493C4.62388 14.3811 4.53745 14.4356 4.46748 14.508C4.39752 14.5804 4.34608 14.6687 4.31756 14.7653C4.28905 14.8618 4.28429 14.9639 4.30369 15.0627C4.41161 16.022 4.73391 16.9448 5.24671 17.7627C5.75952 18.5805 6.44971 19.2726 7.26619 19.7877C7.31902 19.8133 7.36358 19.8532 7.39476 19.903C7.42594 19.9527 7.44247 20.0102 7.44247 20.0689C7.44247 20.1276 7.42594 20.1852 7.39476 20.2349C7.36358 20.2847 7.31902 20.3246 7.26619 20.3502L6.60369 20.6127C6.52323 20.6449 6.45037 20.6936 6.38972 20.7555C6.32907 20.8174 6.28197 20.8913 6.2514 20.9724C6.22084 21.0535 6.20748 21.1401 6.21218 21.2267C6.21687 21.3132 6.23953 21.3979 6.27869 21.4752C6.64505 22.2768 7.20038 22.9777 7.89706 23.5176C8.59374 24.0575 9.41097 24.4204 10.2787 24.5752C10.339 24.5971 10.3911 24.637 10.428 24.6896C10.4648 24.7421 10.4846 24.8048 10.4846 24.8689C10.4846 24.9331 10.4648 24.9957 10.428 25.0483C10.3911 25.1009 10.339 25.1408 10.2787 25.1627C8.57914 25.8656 6.75527 26.2185 4.91619 26.2002C4.75043 26.167 4.57829 26.2011 4.43764 26.2949C4.29698 26.3886 4.19934 26.5344 4.16619 26.7002C4.13304 26.866 4.16709 27.0381 4.26086 27.1787C4.35463 27.3194 4.50043 27.417 4.66619 27.4502C7.85062 28.9605 11.3177 29.7825 14.8412 29.8627C17.9405 29.91 20.9847 29.0402 23.5912 27.3627C25.7352 25.9315 27.4918 23.9921 28.7045 21.7173C29.9171 19.4425 30.5481 16.903 30.5412 14.3252V13.2377C30.5419 13.1469 30.5625 13.0574 30.6013 12.9754C30.6402 12.8934 30.6964 12.8208 30.7662 12.7627L32.8162 11.0502Z" fill="white"/>
</svg>
