<svg width="37" height="36" viewBox="0 0 37 36" fill="none" xmlns="http://www.w3.org/2000/svg">
<path d="M29.1665 7.3125C26.354 4.5 22.7915 3 18.6665 3C10.604 3 3.854 9.75 3.854 17.8125C3.854 20.4375 4.604 23.0625 5.9165 25.3125L3.6665 33L11.5415 30.9375C13.7915 32.0625 16.229 32.8125 18.6665 32.8125C26.9165 32.8125 33.479 26.0625 33.479 18C33.6665 13.875 31.979 10.125 29.1665 7.3125ZM25.979 23.25C25.604 24.1875 24.104 24.9375 23.5415 24.9375C22.979 25.125 21.104 24.9375 19.0415 24C15.2915 22.3125 12.854 18.5625 12.6665 18.375C12.479 18.1875 11.1665 16.3125 11.1665 14.625C11.1665 12.9375 12.104 11.8125 12.479 11.4375C13.229 10.6875 14.729 10.875 15.104 11.625C15.2915 12.375 16.0415 14.25 16.229 14.4375C16.4165 14.625 16.4165 15.375 15.854 15.75C15.6665 15.75 14.729 16.5 15.104 17.0625C15.2915 17.4375 16.0415 18.5625 17.1665 19.6875C18.6665 21 19.7915 21.375 20.1665 21.5625C20.5415 21.75 20.729 21.75 20.9165 21.375C21.104 21.1875 21.854 20.25 22.0415 19.875C22.229 19.5 22.604 19.5 22.7915 19.6875C22.979 19.875 25.0415 20.625 25.4165 20.8125C25.7915 21.1875 26.1665 21.1875 26.1665 21.375C26.354 21.5625 26.354 22.3125 25.979 23.25Z" fill="white"/>
</svg>
