<svg width="37" height="36" viewBox="0 0 37 36" fill="none" xmlns="http://www.w3.org/2000/svg">
<path d="M33.3206 13.2804C33.2007 12.5 32.3316 12.0798 31.7322 11.6896C30.6532 10.9692 29.6042 10.2788 28.5253 9.55845C25.9778 7.84755 23.4003 6.13665 20.8528 4.42575C20.2534 4.03554 19.654 3.61532 19.0546 3.22512C18.635 2.92496 18.0656 2.92496 17.616 3.22512C15.9077 4.36572 14.1694 5.53633 12.4611 6.67693L4.9085 11.7196C4.24915 12.1398 3.38 12.56 3.35003 13.4605C3.32006 14.451 3.35003 15.4716 3.35003 16.4621V21.2646C3.35003 22.1351 3.17021 23.1556 3.97941 23.6959C5.89753 25.0166 7.84562 26.2772 9.7937 27.5679C12.1913 29.1587 14.589 30.7796 16.9866 32.3704C17.646 32.8207 18.3053 33.3009 19.1145 32.7606C19.8039 32.3104 20.4632 31.8602 21.1525 31.4099C23.8199 29.639 26.4873 27.838 29.1547 26.0671L32.1218 24.0861C32.3016 23.966 32.5114 23.846 32.6912 23.6959C33.1108 23.3957 33.2906 22.9755 33.2906 22.4652V14.2109C33.3206 13.8807 33.3506 13.5806 33.3206 13.2804C33.3206 13.3404 33.3206 13.2504 33.3206 13.2804ZM19.624 6.70695L29.7241 13.4605L25.2285 16.4921L19.624 12.7401V6.70695ZM17.0466 6.70695V12.7101L11.4721 16.4621L6.9465 13.4605L17.0466 6.70695ZM5.9275 15.8618L9.13435 18.0229L5.9275 20.184V15.8618ZM17.0466 29.3388L6.9465 22.5853L11.4421 19.5537L17.0166 23.3057V29.3388H17.0466ZM18.3353 21.0845L13.7798 18.0229L18.3353 14.9613L22.8908 18.0229L18.3353 21.0845ZM19.624 29.3388V23.3357L25.1986 19.5837L29.6942 22.6153L19.624 29.3388ZM30.7431 20.184L27.5363 18.0229L30.7731 15.8618L30.7431 20.184Z" fill="white"/>
</svg>
