<svg width="36" height="36" viewBox="0 0 36 36" fill="none" xmlns="http://www.w3.org/2000/svg">
<path fill-rule="evenodd" clip-rule="evenodd" d="M18 3C9.71901 3 3 9.71901 3 18C3 26.281 9.71901 33 18 33C26.2648 33 33 26.2813 33 18C33 9.71875 26.2648 3 18 3ZM19.8972 12.7187C18.2287 9.6964 16.4509 7.15301 15.6915 6.09869C16.4342 5.95998 17.2063 5.89033 18 5.89033C20.9592 5.89033 23.6766 6.95573 25.7848 8.71916C25.2018 9.43384 23.4053 11.3372 19.8972 12.7187ZM16.7633 13.6869C11.935 14.9121 7.65392 15.0593 6.22206 15.0765C7.0838 11.6159 9.44554 8.73433 12.5684 7.16196C13.1837 8.0144 14.9974 10.6116 16.7633 13.6869ZM21.1952 15.221C24.8872 13.6416 26.92 11.5613 27.6617 10.6959C29.1038 12.592 29.9935 14.9252 30.1126 17.4453C28.8866 17.2254 25.4966 16.707 22.0221 17.0965L21.9833 16.9991C21.9474 16.9086 21.909 16.8119 21.8604 16.6984C21.6534 16.207 21.4261 15.7062 21.1952 15.221ZM5.85858 18.0152V18.0062C7.35441 18.0113 12.6484 17.8938 18.1468 16.2939C18.3906 16.7731 18.6208 17.2599 18.843 17.7497C18.8124 17.7586 18.782 17.7675 18.752 17.7764L18.7448 17.7788C13.0028 19.6314 9.61586 24.2746 8.65213 25.7508C6.91457 23.6556 5.85858 20.9515 5.85858 18.0152ZM25.2264 27.734C24.9749 26.4076 24.3215 23.3831 23.0355 19.7588C26.1976 19.3536 28.965 19.9941 29.9024 20.2572C29.3456 23.303 27.6282 25.9513 25.2264 27.734ZM10.8014 27.7689C11.4163 26.6652 13.9881 22.6859 20.0093 20.4993C21.5386 24.5395 22.2348 27.9519 22.477 29.2826C21.0878 29.8421 19.5787 30.1414 18 30.1414C15.305 30.1414 12.8102 29.2594 10.8014 27.7689Z" fill="white"/>
</svg>
