<svg width="37" height="36" viewBox="0 0 37 36" fill="none" xmlns="http://www.w3.org/2000/svg">
<path d="M20.6721 17.999C20.6721 12.8913 16.7195 8.75068 11.844 8.75068C6.9685 8.75068 3.01562 12.8922 3.01562 17.999C3.01562 23.1057 6.9682 27.2476 11.844 27.2476C16.7198 27.2476 20.6721 23.1067 20.6721 17.999ZM30.3568 17.999C30.3568 13.1912 28.3805 9.29213 25.9426 9.29213C23.5047 9.29213 21.5284 13.1912 21.5284 17.999C21.5284 22.8068 23.5044 26.7058 25.9423 26.7058C28.3802 26.7058 30.3564 22.808 30.3564 17.999H30.3568ZM34.318 17.999C34.318 13.6924 33.6231 10.199 32.7656 10.199C31.908 10.199 31.2134 13.6914 31.2134 17.999C31.2134 22.3065 31.9083 25.7989 32.7656 25.7989C33.6228 25.7989 34.318 22.3068 34.318 17.999Z" fill="white"/>
</svg>
